<svg id="Layer_1" data-name="Layer 1" xmlns="http://www.w3.org/2000/svg" viewBox="0 0 2000 2000"><defs><style>.cls-1{fill:#636363;}.cls-2{fill:#0078c0;}.cls-3{fill:#fff;}.cls-4{fill:#282828;}</style></defs><path class="cls-1" d="M1000,10a149.2,149.2,0,0,0-43.11,6.36L398.14,185A142.38,142.38,0,0,0,296.3,322.13v949.14c0,242.84,82.05,327.38,239.29,467.71,153.69,137.16,428.51,238,440.14,242.2L1000,1990l24.27-8.82c11.63-4.23,286.45-105,440.14-242.2,157.24-140.33,239.29-224.87,239.29-467.71V322.13A142.38,142.38,0,0,0,1601.86,185L1043.11,16.36A149.2,149.2,0,0,0,1000,10Z"/><path class="cls-1" d="M1581.33,253.07,1022.56,84.4a78.54,78.54,0,0,0-45.12,0L418.67,253.07a72.13,72.13,0,0,0-51.28,69.05V999.57H1632.61V322.12A72.13,72.13,0,0,0,1581.33,253.07Z"/><path class="cls-2" d="M367.39,1271.28c0,214,64.55,279.94,215.51,414.67,145.27,129.64,417.1,228.42,417.1,228.42s271.83-98.78,417.1-228.42c151-134.73,215.51-200.7,215.51-414.67V999.57H367.39Z"/><path class="cls-1" d="M1000,656.84c-300.5,0-593.32,25.46-870.34,75.68A102.73,102.73,0,0,0,47.27,854.08c25.46,125.27,54.59,278.35,74.23,390a113.27,113.27,0,0,0,111.74,93.78,114.58,114.58,0,0,0,23.46-2.44C354,1315,621.31,1267.58,1000,1267.58s646,47.43,743.31,67.82a114.42,114.42,0,0,0,23.45,2.44,113.27,113.27,0,0,0,111.74-93.78c19.64-111.64,48.77-264.72,74.23-390a102.73,102.73,0,0,0-82.39-121.56c-277-50.22-569.84-75.68-870.34-75.68Z"/><path class="cls-3" d="M1000,1230.27c315.15,0,582.57,33.34,751,68.61a76.19,76.19,0,0,0,90.8-61.28c20.68-117.62,50.24-272,74.41-390.95a65.42,65.42,0,0,0-52.49-77.42c-166.56-30.2-465-75.08-863.68-75.08h0c-398.71,0-697.12,44.88-863.68,75.08a65.42,65.42,0,0,0-52.49,77.42C108,965.58,137.56,1120,158.24,1237.6a76.19,76.19,0,0,0,90.8,61.28c168.39-35.27,435.81-68.61,751-68.61Z"/><path class="cls-3" d="M645.92,400.57H622.38V337.25q0-10.26.89-22.66h-.59a111.37,111.37,0,0,1-3.33,14l-24.79,72H575.07l-25.24-71.22q-1-2.88-3.32-14.76h-.66q1,15.66,1,27.46v58.52H525.33V294.74h34.91l21.62,62.73a89,89,0,0,1,3.77,15.13h.44a152.11,152.11,0,0,1,4.21-15.28l21.62-62.58h34Z"/><path class="cls-3" d="M678,313a13.6,13.6,0,0,1-9.67-3.5,11.29,11.29,0,0,1-3.76-8.6,10.9,10.9,0,0,1,3.76-8.56,15.8,15.8,0,0,1,19.38,0,11,11,0,0,1,3.72,8.56,11.25,11.25,0,0,1-3.72,8.71A13.88,13.88,0,0,1,678,313Zm11.51,87.53H666.18V325H689.5Z"/><path class="cls-3" d="M764.89,397.84q-7.89,4.57-22.8,4.58-17.42,0-28.2-10.56t-10.76-27.23q0-19.26,11.54-30.37t30.89-11.11q13.35,0,19.33,3.55v19.78A26.58,26.58,0,0,0,748.58,341q-10,0-15.9,5.87t-5.87,16.2q0,10,5.61,15.76t15.42,5.72a30.78,30.78,0,0,0,17-5.46Z"/><path class="cls-3" d="M828,346a20.21,20.21,0,0,0-9.8-2.29,14.15,14.15,0,0,0-11.89,5.58Q802,354.89,802,364.48v36.09H778.66V325H802v14h.3q5.54-15.34,19.92-15.35a14.76,14.76,0,0,1,5.75.89Z"/><path class="cls-3" d="M873.31,402.42q-18.9,0-29.71-10.59t-10.81-28.75q0-18.74,11.22-29.34t30.33-10.59q18.82,0,29.52,10.59t10.71,28q0,18.83-11,29.75T873.31,402.42ZM873.9,341q-8.26,0-12.84,5.69t-4.58,16.09q0,21.76,17.57,21.77,16.74,0,16.75-22.36Q890.8,341,873.9,341Z"/><path class="cls-3" d="M923.24,398.58V379.69a49.6,49.6,0,0,0,11.48,5.16,37.66,37.66,0,0,0,10.81,1.7c4.13,0,7.39-.56,9.78-1.7s3.57-2.85,3.57-5.16a4.77,4.77,0,0,0-1.62-3.69,14.94,14.94,0,0,0-4.17-2.59,48.69,48.69,0,0,0-5.57-2c-2-.59-4-1.25-5.83-2a55.21,55.21,0,0,1-7.93-3.65,23.11,23.11,0,0,1-5.76-4.54,17.92,17.92,0,0,1-3.54-6,23.92,23.92,0,0,1-1.22-8.05A20.68,20.68,0,0,1,926,336.29a22.48,22.48,0,0,1,7.38-7.49,33.73,33.73,0,0,1,10.55-4.28,55,55,0,0,1,12.36-1.37,68.34,68.34,0,0,1,10.19.78,75.49,75.49,0,0,1,10.18,2.25v18a37.08,37.08,0,0,0-9.49-3.88,39.92,39.92,0,0,0-9.92-1.29,21.9,21.9,0,0,0-4.31.41,14.14,14.14,0,0,0-3.59,1.18,6.52,6.52,0,0,0-2.43,2,4.58,4.58,0,0,0-.89,2.77,5.14,5.14,0,0,0,1.33,3.54,11.41,11.41,0,0,0,3.47,2.55,34.67,34.67,0,0,0,4.76,1.92c1.74.57,3.48,1.14,5.2,1.73a66.51,66.51,0,0,1,8.41,3.54,26.86,26.86,0,0,1,6.46,4.5,17.66,17.66,0,0,1,4.13,6.06A24.12,24.12,0,0,1,978.33,389a23.41,23.41,0,0,1-7.74,7.75,35.27,35.27,0,0,1-11.15,4.35,61.86,61.86,0,0,1-13.1,1.37A67.45,67.45,0,0,1,923.24,398.58Z"/><path class="cls-3" d="M1029.18,402.42q-18.88,0-29.71-10.59t-10.81-28.75q0-18.74,11.22-29.34t30.33-10.59q18.82,0,29.52,10.59t10.71,28q0,18.83-11,29.75T1029.18,402.42Zm.59-61.41q-8.26,0-12.84,5.69t-4.58,16.09q0,21.76,17.57,21.77,16.75,0,16.75-22.36Q1046.67,341,1029.77,341Z"/><path class="cls-3" d="M1133.35,306.55a23.57,23.57,0,0,0-8.64-1.77q-11.2,0-11.21,12.17V325h17.27v17.19H1113.5v58.38h-23.25V342.19h-12.69V325h12.69v-9.38q0-12.9,8.42-20.8t22.87-7.9a40,40,0,0,1,11.81,1.48Z"/><path class="cls-3" d="M1186.16,399.69q-5.16,2.73-15.57,2.73-24.66,0-24.66-25.61V342.19h-12.25V325h12.25V308.69l23.25-6.65v23h17v17.19h-17v30.56q0,11.81,9.38,11.81a15.77,15.77,0,0,0,7.6-2.14Z"/><path class="cls-3" d="M1239,397.1V376.81a40.9,40.9,0,0,0,24.79,7.75q8.94,0,13.91-3.84a12.75,12.75,0,0,0,5-10.7,12.15,12.15,0,0,0-6.16-10.92q-6.16-3.84-16.94-3.84h-9.51V337.4h8.78q20.66,0,20.66-13.73,0-12.92-15.87-12.92-10.62,0-20.66,6.87v-19q11.15-5.61,26-5.61,16.23,0,25.27,7.31a23.23,23.23,0,0,1,9,19q0,20.75-21,26v.37q11.22,1.41,17.71,8.15a23,23,0,0,1,6.5,16.57q0,14.83-10.85,23.47t-30,8.64Q1249.26,402.42,1239,397.1Z"/><path class="cls-3" d="M1388,295.85v19.48a34.89,34.89,0,0,0-17.56-4.58,23.1,23.1,0,0,0-18.93,9q-7.2,9-7.49,24h.44q7.6-11.21,22.22-11.21,13.27,0,21.06,9t7.8,23.84q0,15.94-10.34,26.49t-26.27,10.56q-17.87,0-27.9-12.92t-10-36.23q0-27.47,12.92-43.88T1368.94,293Q1381.18,293,1388,295.85Zm-29.22,53.95a12.68,12.68,0,0,0-10.22,4.5,17.2,17.2,0,0,0-3.8,11.51,22.41,22.41,0,0,0,3.87,13.25,12.55,12.55,0,0,0,20.34.59q3.76-4.9,3.76-12.8Q1372.7,349.8,1358.75,349.8Z"/><path class="cls-3" d="M1411.11,397.84V377.92a43.59,43.59,0,0,0,23.1,6.64q9.22,0,14.43-4.39t5.2-11.92q0-15.72-22.21-15.72a138.57,138.57,0,0,0-17.49,1.33V294.74h58.6v19h-38.68V335q4.65-.43,8.79-.44,16.31,0,25.53,8.56t9.23,23q0,16-11,26.16t-29.81,10.15Q1421.52,402.42,1411.11,397.84Z"/><path class="cls-3" d="M734.43,544.69q-9,4.77-22.5,4.77-17.38,0-27.84-11.19t-10.46-29.38q0-19.54,11.76-31.59t29.83-12.05q11.6,0,19.21,3.36v10.17a38.93,38.93,0,0,0-19.32-4.89q-14,0-22.76,9.38t-8.72,25.05q0,14.9,8.15,23.73t21.4,8.83q12.26,0,21.25-5.46Z"/><path class="cls-3" d="M814,548.09H770.8V466.62h41.36v8.63H780.35v27.11h29.42v8.58H780.35v28.52H814Z"/><path class="cls-3" d="M907.85,548.09H896.49l-13.64-22.83a49,49,0,0,0-3.63-5.43,21,21,0,0,0-3.61-3.67,12.84,12.84,0,0,0-4-2.07,16.19,16.19,0,0,0-4.8-.66H859v34.66h-9.54V466.62h24.31a34.68,34.68,0,0,1,9.86,1.33,22,22,0,0,1,7.84,4.07,18.84,18.84,0,0,1,5.2,6.79,22.51,22.51,0,0,1,1.88,9.51,22.79,22.79,0,0,1-1.29,7.82,20.18,20.18,0,0,1-3.63,6.33,22.1,22.1,0,0,1-5.68,4.75,29,29,0,0,1-7.47,3v.24a17,17,0,0,1,3.55,2.07,19.93,19.93,0,0,1,2.87,2.75,36.84,36.84,0,0,1,2.69,3.61c.89,1.34,1.89,2.91,3,4.69ZM859,475.25V504.8h13a19.6,19.6,0,0,0,6.62-1.08,15.36,15.36,0,0,0,5.26-3.1,14,14,0,0,0,3.46-4.94,16.61,16.61,0,0,0,1.25-6.56q0-6.53-4.23-10.2c-2.83-2.44-6.9-3.67-12.24-3.67Z"/><path class="cls-3" d="M981.78,475.25H958.26v72.84h-9.55V475.25H925.25v-8.63h56.53Z"/><path class="cls-3" d="M1023.89,548.09h-9.54V466.62h9.54Z"/><path class="cls-3" d="M1106.46,475.25h-31.82v28.19h29.43V512h-29.43v36.07h-9.55V466.62h41.37Z"/><path class="cls-3" d="M1151.24,548.09h-9.55V466.62h9.55Z"/><path class="cls-3" d="M1235.62,548.09h-43.18V466.62h41.37v8.63H1202v27.11h29.43v8.58H1202v28.52h33.63Z"/><path class="cls-3" d="M1271.09,548.09V466.62h22.49q43.08,0,43.07,39.71,0,18.87-12,30.32t-32,11.44Zm9.54-72.84v64.21h12.16q16,0,25-8.58t8.91-24.32q0-31.31-33.29-31.31Z"/><polygon class="cls-3" points="858.58 1519.13 887.24 1607.31 979.96 1607.31 904.94 1661.81 933.6 1750 858.58 1695.49 783.57 1750 812.22 1661.81 737.21 1607.31 829.93 1607.31 858.58 1519.13"/><polygon class="cls-3" points="1140.51 1519.13 1169.16 1607.31 1261.88 1607.31 1186.87 1661.81 1215.52 1750 1140.51 1695.49 1065.49 1750 1094.14 1661.81 1019.13 1607.31 1111.85 1607.31 1140.51 1519.13"/><path class="cls-3" d="M697.33,1454.91q-11.21.67-22.39,1.4-3.9-9.91-7.83-19.82-16.27,1.07-32.55,2.26-2.49,10.35-4.95,20.71-11.13.82-22.24,1.7,13-46.77,26.62-93.49,12.4-.89,24.81-1.72Q678.36,1410.35,697.33,1454.91Zm-36-33.85q-6-15-12-29.92a38.49,38.49,0,0,1-2.11-8.08l-.52,0a34.15,34.15,0,0,1-1.07,8q-3.95,15.78-7.83,31.56Q649.58,1421.85,661.33,1421.06Z"/><path class="cls-3" d="M716,1450.31q-.59-10.17-1.15-20.33a39.72,39.72,0,0,0,25.72,7.92,29.27,29.27,0,0,0,6.76-1.05,16.18,16.18,0,0,0,4.76-2.17,8.47,8.47,0,0,0,2.76-3.07,7.26,7.26,0,0,0,.79-3.7,8,8,0,0,0-1.77-4.69,16.56,16.56,0,0,0-4.38-3.67,43.31,43.31,0,0,0-6.49-3.12c-2.49-1-5.17-2-8.06-3q-11-3.88-16.66-10a23.52,23.52,0,0,1-6.18-15.2,24.1,24.1,0,0,1,2.22-12.39,24.56,24.56,0,0,1,7.45-8.86,36.08,36.08,0,0,1,11.37-5.48,60.45,60.45,0,0,1,13.92-2.27,83.81,83.81,0,0,1,12.9.25,50,50,0,0,1,10.46,2.16l.85,19a31.35,31.35,0,0,0-5.19-2.57,40.53,40.53,0,0,0-5.75-1.73,41.13,41.13,0,0,0-5.84-.91,40.59,40.59,0,0,0-5.47-.11,28,28,0,0,0-6.43,1,16.48,16.48,0,0,0-4.81,2.12,9.63,9.63,0,0,0-3,3,6.75,6.75,0,0,0-.89,3.84,7.13,7.13,0,0,0,1.43,4,14,14,0,0,0,3.66,3.25,37.1,37.1,0,0,0,5.63,2.9c2.19.94,4.68,1.88,7.43,2.85a80.25,80.25,0,0,1,10.16,4.39,35.26,35.26,0,0,1,7.82,5.46,22.77,22.77,0,0,1,5.14,7.2A29.37,29.37,0,0,1,775,1438a23.57,23.57,0,0,1-7.5,8.75,34.5,34.5,0,0,1-11.34,5.15,67.92,67.92,0,0,1-13.83,2.09,79.44,79.44,0,0,1-14.34-.52A43,43,0,0,1,716,1450.31Z"/><path class="cls-3" d="M800.88,1446.24q-.4-10.17-.8-20.34a39.7,39.7,0,0,0,12.34,6.5,39.25,39.25,0,0,0,13.23,1.85,29.51,29.51,0,0,0,6.78-.93,15.85,15.85,0,0,0,4.79-2.09,8.47,8.47,0,0,0,2.82-3,7.32,7.32,0,0,0,.85-3.69,7.86,7.86,0,0,0-1.69-4.72,16.45,16.45,0,0,0-4.32-3.74,44.55,44.55,0,0,0-6.42-3.23c-2.46-1-5.15-2-8-3.1q-10.94-4.07-16.49-10.28a23.5,23.5,0,0,1-5.91-15.3,23.35,23.35,0,0,1,10-21.08,35.8,35.8,0,0,1,11.45-5.28,60.48,60.48,0,0,1,14-2,82.88,82.88,0,0,1,12.91.47,50.73,50.73,0,0,1,10.41,2.34q.26,9.5.52,19a31.07,31.07,0,0,0-5.14-2.65,39.69,39.69,0,0,0-5.72-1.84,43.23,43.23,0,0,0-5.82-1,39.57,39.57,0,0,0-5.47-.21,28.55,28.55,0,0,0-6.45.88,16.43,16.43,0,0,0-4.85,2,9.53,9.53,0,0,0-3,3,6.77,6.77,0,0,0-1,3.82,7.22,7.22,0,0,0,1.37,4.06,14.36,14.36,0,0,0,3.6,3.31,38.45,38.45,0,0,0,5.58,3c2.17,1,4.64,2,7.38,3a80,80,0,0,1,10.08,4.56,35.07,35.07,0,0,1,7.72,5.6,22.65,22.65,0,0,1,5,7.28A29.43,29.43,0,0,1,860,1435a23.67,23.67,0,0,1-7.65,8.61,34.44,34.44,0,0,1-11.42,5,68,68,0,0,1-13.86,1.85,78.69,78.69,0,0,1-14.33-.76A43.31,43.31,0,0,1,800.88,1446.24Z"/><path class="cls-3" d="M928.65,1448q-19.6.27-32.22-12.21c-8.41-8.33-12.82-19.32-13.12-33q-.49-21.63,12-35.25t33.6-13.92q19.92-.27,32.3,12.46t12.41,33.65q.09,21.51-12.39,34.74T928.65,1448Zm-.14-76.66c-7.31.1-13.1,2.9-17.32,8.37s-6.23,12.68-6.06,21.58,2.44,16.15,6.79,21.33a20.58,20.58,0,0,0,16.87,7.63q10.66-.15,16.85-7.86t6.09-21.34q-.12-14.19-6.33-22T928.51,1371.29Z"/><path class="cls-3" d="M1066.19,1443.17c-6.72,3.13-15.45,4.62-26.17,4.53-14-.13-25-4.28-33-12.53s-12.06-19.2-12.06-32.9q0-21.88,13.75-35.48c9.17-9,21.15-13.54,35.81-13.4q13.62.13,22.92,3.65-.15,9.89-.28,19.78a40.78,40.78,0,0,0-21.13-5.73c-8.71-.08-15.77,2.57-21.12,7.91s-8.06,12.65-8.1,21.85q0,13.25,7.39,21.13t20.09,8a43.49,43.49,0,0,0,22.19-5.59Z"/><path class="cls-3" d="M1114.37,1447.33l-20.57-.45q.92-45.6,1.81-91.21,10.47.21,21,.46Z"/><path class="cls-3" d="M1227.13,1451.33q-11.2-.52-22.41-1-2.81-10.27-5.66-20.55-16.29-.66-32.59-1.23-3.59,10-7.13,20.07-11.14-.37-22.28-.69,17.93-45.12,36.45-90.11,12.4.43,24.83.94Q1213,1405,1227.13,1451.33Zm-32.17-37.5q-4.32-15.52-8.7-31a39.07,39.07,0,0,1-1.24-8.26l-.52,0a34.65,34.65,0,0,1-1.91,7.89q-5.61,15.25-11.16,30.53Q1183.21,1413.36,1195,1413.83Z"/><path class="cls-3" d="M1309.86,1381.25q-13.2-.82-26.41-1.58l-4.26,74.37q-10.31-.58-20.62-1.14l4-74.39q-13.14-.71-26.28-1.33.4-8.36.8-16.71,36.93,1.77,73.86,4.08Z"/><path class="cls-3" d="M1383.85,1461.16q-27.31-2.15-54.66-4,3.09-45.51,6.15-91,26.78,1.8,53.54,3.9-.66,8.34-1.31,16.68-16.24-1.27-32.51-2.44-.72,10.13-1.45,20.24,15.08,1.08,30.13,2.26l-1.29,16.61q-15-1.15-30-2.24-.73,10.41-1.49,20.81,17.13,1.23,34.24,2.58Q1384.52,1452.86,1383.85,1461.16Z"/><path class="cls-4" d="M575.59,1026.32,567.46,923q15.22-1.2,30.47-2.31c39-2.83,59.47,12.86,61.53,46.46,1,16-3.55,29.13-13.53,39.52s-23.85,16.19-41.67,17.5Q589.94,1025.19,575.59,1026.32ZM586,936.19l5.61,74.32,13.76-1c12.13-.89,21.3-4.86,27.61-12s9.06-16.69,8.27-28.81c-1.58-24.18-15.13-35.48-40.65-33.63Z"/><path class="cls-4" d="M750.28,1015.37q-29.1,1.36-58.2,3-3-51.75-5.93-103.5,28.47-1.64,56.94-3l.69,14.58q-19.65.93-39.31,2,.79,14.64,1.58,29.3,18-1,36-1.83c.23,4.84.45,9.67.69,14.51q-18,.85-35.94,1.83.84,15.3,1.66,30.61,20.55-1.12,41.11-2.08Q749.94,1008.11,750.28,1015.37Z"/><path class="cls-4" d="M857.65,907.71Q840,960,823.14,1012.46q-9.61.31-19.24.67Q783.68,962,762.79,911q9.59-.42,19.16-.81,14.63,38.78,28.87,77.62a48.27,48.27,0,0,1,2.2,8.68h.29a46.74,46.74,0,0,1,1.8-9q11.79-39.69,24-79.33Q848.36,908,857.65,907.71Z"/><path class="cls-4" d="M942.77,1009.77q-29.13.35-58.25,1-1.15-51.81-2.3-103.64,28.5-.63,57-1l.18,14.6q-19.68.24-39.34.61.27,14.67.55,29.35,18-.35,36.07-.57c.07,4.84.12,9.68.19,14.53q-18,.23-36,.56.3,15.33.58,30.65,20.58-.39,41.14-.63Q942.69,1002.52,942.77,1009.77Z"/><path class="cls-4" d="M1029.07,1009.46q-28.74-.12-57.47.06-.33-51.84-.65-103.67l17.55-.08q.13,44.57.28,89.13,20.18-.06,40.35,0Z"/><path class="cls-4" d="M1092.75,1011.83q-22.43-.35-35.78-15c-8.93-9.77-13.39-22.4-13.28-37.92.12-16.67,4.84-29.94,14.26-39.79s22.16-14.66,38.19-14.41q22.27.38,35.56,15.15T1144.32,958q-.63,25.37-14.71,39.79T1092.75,1011.83Zm2.27-92q-14.51-.23-23.71,10.31T1062,958q-.18,17.28,8.44,27.93t22.65,10.87c10,.15,17.88-3,23.78-9.63s9-15.89,9.25-27.93q.42-18.57-7.85-28.87T1095,919.82Z"/><path class="cls-4" d="M1190.8,974.91l-1.26,37.57q-8.58-.29-17.15-.54l3.15-103.63q16,.5,32.06,1.07,18.21.66,27.89,9.39t9,23.83c-.42,10.07-4.25,18.14-11.42,24.26s-16.61,8.95-28.36,8.53Zm1.74-51.88q-.64,18.93-1.27,37.86l11.24.39q11.17.39,17.21-4.5t6.42-14.22c.48-12.18-6.47-18.57-20.88-19.09Z"/><path class="cls-4" d="M1327.54,1018.84q-29.1-1.71-58.2-3.1,2.49-51.78,5-103.55,28.49,1.37,57,3-.43,7.28-.85,14.57-19.65-1.14-39.3-2.15l-1.5,29.31q18,.93,36,2l-.84,14.5q-18-1-35.93-2l-1.56,30.62q20.55,1,41.09,2.25Q1328,1011.59,1327.54,1018.84Z"/><path class="cls-4" d="M1436.36,1026.32q-10-.79-20.07-1.54-7.23-14.46-14.55-28.91a60.37,60.37,0,0,0-3.93-6.84,26,26,0,0,0-4-4.74,15,15,0,0,0-4.66-2.87,20.69,20.69,0,0,0-5.84-1.19l-7-.48-2.82,42q-8.57-.57-17.13-1.12,3.32-51.74,6.62-103.46,17.38,1.11,34.75,2.34a50.88,50.88,0,0,1,13.57,2.71,32.08,32.08,0,0,1,10.5,6,24.62,24.62,0,0,1,6.57,9.27,27.39,27.39,0,0,1,1.67,12.42,29.67,29.67,0,0,1-2.41,9.93,26.21,26.21,0,0,1-5.3,7.79,28.83,28.83,0,0,1-7.74,5.55,37,37,0,0,1-9.87,3.19c0,.1,0,.19,0,.29a26.66,26.66,0,0,1,4.7,3.85c1.32,1.38,2.55,2.79,3.71,4.23a46.79,46.79,0,0,1,3.41,4.85q1.65,2.7,3.65,6.26Q1428.29,1011.08,1436.36,1026.32Zm-56.9-94.1q-1.14,16.8-2.26,33.61,7.23.48,14.45,1a21.91,21.91,0,0,0,7.5-.7,17.19,17.19,0,0,0,6.13-3.12,16,16,0,0,0,4.28-5.34,19.43,19.43,0,0,0,1.93-7.32q.55-7.43-3.92-12t-13.42-5.16Q1386.8,932.71,1379.46,932.22Z"/></svg>