<svg id="Layer_1" data-name="Layer 1" xmlns="http://www.w3.org/2000/svg" viewBox="0 0 2000 2000"><defs><style>.cls-1{fill:#505050;}.cls-2{fill:#fff;}.cls-3{fill:#0064b5;}.cls-4{fill:#002050;}.cls-5{fill:#282828;}</style></defs><path class="cls-1" d="M1000,10a149.2,149.2,0,0,0-43.11,6.36L398.14,185A142.38,142.38,0,0,0,296.3,322.13v949.14c0,242.84,82.05,327.38,239.29,467.71,153.69,137.16,428.51,238,440.14,242.2L1000,1990l24.27-8.82c11.63-4.23,286.45-105,440.14-242.2,157.24-140.33,239.29-224.87,239.29-467.71V322.13A142.38,142.38,0,0,0,1601.86,185L1043.11,16.36A149.2,149.2,0,0,0,1000,10Z"/><path class="cls-2" d="M1581.33,253.07,1022.56,84.4a78.54,78.54,0,0,0-45.12,0L418.67,253.07a72.13,72.13,0,0,0-51.28,69.05V999.57H1632.61V322.12A72.13,72.13,0,0,0,1581.33,253.07Z"/><path class="cls-3" d="M367.39,1271.28c0,214,64.55,279.94,215.51,414.67,145.27,129.64,417.1,228.42,417.1,228.42s271.83-98.78,417.1-228.42c151-134.73,215.51-200.7,215.51-414.67V999.57H367.39Z"/><path class="cls-1" d="M1000,656.84c-300.5,0-593.32,25.46-870.34,75.68A102.73,102.73,0,0,0,47.27,854.08c25.46,125.27,54.59,278.35,74.23,390a113.27,113.27,0,0,0,111.74,93.78,114.58,114.58,0,0,0,23.46-2.44C354,1315,621.31,1267.58,1000,1267.58s646,47.43,743.31,67.82a114.42,114.42,0,0,0,23.45,2.44,113.27,113.27,0,0,0,111.74-93.78c19.64-111.64,48.77-264.72,74.23-390a102.73,102.73,0,0,0-82.39-121.56c-277-50.22-569.84-75.68-870.34-75.68Z"/><path class="cls-2" d="M1000,1230.27c315.15,0,582.57,33.34,751,68.61a76.19,76.19,0,0,0,90.8-61.28c20.68-117.62,50.24-272,74.41-390.95a65.42,65.42,0,0,0-52.49-77.42c-166.56-30.2-465-75.08-863.68-75.08h0c-398.71,0-697.12,44.88-863.68,75.08a65.42,65.42,0,0,0-52.49,77.42C108,965.58,137.56,1120,158.24,1237.6a76.19,76.19,0,0,0,90.8,61.28c168.39-35.27,435.81-68.61,751-68.61Z"/><path class="cls-4" d="M645.92,400.57H622.38V337.25q0-10.26.89-22.66h-.59a111.37,111.37,0,0,1-3.33,14l-24.79,72H575.07l-25.24-71.22q-1-2.88-3.32-14.76h-.66q1,15.66,1,27.46v58.52H525.33V294.74h34.91l21.62,62.73a89,89,0,0,1,3.77,15.13h.44a152.11,152.11,0,0,1,4.21-15.28l21.62-62.58h34Z"/><path class="cls-4" d="M678,313a13.6,13.6,0,0,1-9.67-3.5,11.29,11.29,0,0,1-3.76-8.6,10.9,10.9,0,0,1,3.76-8.56,15.8,15.8,0,0,1,19.38,0,11,11,0,0,1,3.72,8.56,11.25,11.25,0,0,1-3.72,8.71A13.88,13.88,0,0,1,678,313Zm11.51,87.53H666.18V325H689.5Z"/><path class="cls-4" d="M764.89,397.84q-7.89,4.57-22.8,4.58-17.42,0-28.2-10.56t-10.76-27.23q0-19.26,11.54-30.37t30.89-11.11q13.35,0,19.33,3.55v19.78A26.58,26.58,0,0,0,748.58,341q-10,0-15.9,5.87t-5.87,16.2q0,10,5.61,15.76t15.42,5.72a30.78,30.78,0,0,0,17-5.46Z"/><path class="cls-4" d="M828,346a20.21,20.21,0,0,0-9.8-2.29,14.15,14.15,0,0,0-11.89,5.58Q802,354.89,802,364.48v36.09H778.66V325H802v14h.3q5.54-15.34,19.92-15.35a14.76,14.76,0,0,1,5.75.89Z"/><path class="cls-4" d="M873.31,402.42q-18.9,0-29.71-10.59t-10.81-28.75q0-18.74,11.22-29.34t30.33-10.59q18.82,0,29.52,10.59t10.71,28q0,18.83-11,29.75T873.31,402.42ZM873.9,341q-8.26,0-12.84,5.69t-4.58,16.09q0,21.76,17.57,21.77,16.74,0,16.75-22.36Q890.8,341,873.9,341Z"/><path class="cls-4" d="M923.24,398.58V379.69a49.6,49.6,0,0,0,11.48,5.16,37.66,37.66,0,0,0,10.81,1.7c4.13,0,7.39-.56,9.78-1.7s3.57-2.85,3.57-5.16a4.77,4.77,0,0,0-1.62-3.69,14.94,14.94,0,0,0-4.17-2.59,48.69,48.69,0,0,0-5.57-2c-2-.59-4-1.25-5.83-2a55.21,55.21,0,0,1-7.93-3.65,23.11,23.11,0,0,1-5.76-4.54,17.92,17.92,0,0,1-3.54-6,23.92,23.92,0,0,1-1.22-8.05A20.68,20.68,0,0,1,926,336.29a22.48,22.48,0,0,1,7.38-7.49,33.73,33.73,0,0,1,10.55-4.28,55,55,0,0,1,12.36-1.37,68.34,68.34,0,0,1,10.19.78,75.49,75.49,0,0,1,10.18,2.25v18a37.08,37.08,0,0,0-9.49-3.88,39.92,39.92,0,0,0-9.92-1.29,21.9,21.9,0,0,0-4.31.41,14.14,14.14,0,0,0-3.59,1.18,6.52,6.52,0,0,0-2.43,2,4.58,4.58,0,0,0-.89,2.77,5.14,5.14,0,0,0,1.33,3.54,11.41,11.41,0,0,0,3.47,2.55,34.67,34.67,0,0,0,4.76,1.92c1.74.57,3.48,1.14,5.2,1.73a66.51,66.51,0,0,1,8.41,3.54,26.86,26.86,0,0,1,6.46,4.5,17.66,17.66,0,0,1,4.13,6.06A24.12,24.12,0,0,1,978.33,389a23.41,23.41,0,0,1-7.74,7.75,35.27,35.27,0,0,1-11.15,4.35,61.86,61.86,0,0,1-13.1,1.37A67.45,67.45,0,0,1,923.24,398.58Z"/><path class="cls-4" d="M1029.18,402.42q-18.88,0-29.71-10.59t-10.81-28.75q0-18.74,11.22-29.34t30.33-10.59q18.82,0,29.52,10.59t10.71,28q0,18.83-11,29.75T1029.18,402.42Zm.59-61.41q-8.26,0-12.84,5.69t-4.58,16.09q0,21.76,17.57,21.77,16.75,0,16.75-22.36Q1046.67,341,1029.77,341Z"/><path class="cls-4" d="M1133.35,306.55a23.57,23.57,0,0,0-8.64-1.77q-11.2,0-11.21,12.17V325h17.27v17.19H1113.5v58.38h-23.25V342.19h-12.69V325h12.69v-9.38q0-12.9,8.42-20.8t22.87-7.9a40,40,0,0,1,11.81,1.48Z"/><path class="cls-4" d="M1186.16,399.69q-5.16,2.73-15.57,2.73-24.66,0-24.66-25.61V342.19h-12.25V325h12.25V308.69l23.25-6.65v23h17v17.19h-17v30.56q0,11.81,9.38,11.81a15.77,15.77,0,0,0,7.6-2.14Z"/><path class="cls-4" d="M1239,397.1V376.81a40.9,40.9,0,0,0,24.79,7.75q8.94,0,13.91-3.84a12.75,12.75,0,0,0,5-10.7,12.15,12.15,0,0,0-6.16-10.92q-6.16-3.84-16.94-3.84h-9.51V337.4h8.78q20.66,0,20.66-13.73,0-12.92-15.87-12.92-10.62,0-20.66,6.87v-19q11.15-5.61,26-5.61,16.23,0,25.27,7.31a23.23,23.23,0,0,1,9,19q0,20.75-21,26v.37q11.22,1.41,17.71,8.15a23,23,0,0,1,6.5,16.57q0,14.83-10.85,23.47t-30,8.64Q1249.26,402.42,1239,397.1Z"/><path class="cls-4" d="M1388,295.85v19.48a34.89,34.89,0,0,0-17.56-4.58,23.1,23.1,0,0,0-18.93,9q-7.2,9-7.49,24h.44q7.6-11.21,22.22-11.21,13.27,0,21.06,9t7.8,23.84q0,15.94-10.34,26.49t-26.27,10.56q-17.87,0-27.9-12.92t-10-36.23q0-27.47,12.92-43.88T1368.94,293Q1381.18,293,1388,295.85Zm-29.22,53.95a12.68,12.68,0,0,0-10.22,4.5,17.2,17.2,0,0,0-3.8,11.51,22.41,22.41,0,0,0,3.87,13.25,12.55,12.55,0,0,0,20.34.59q3.76-4.9,3.76-12.8Q1372.7,349.8,1358.75,349.8Z"/><path class="cls-4" d="M1411.11,397.84V377.92a43.59,43.59,0,0,0,23.1,6.64q9.22,0,14.43-4.39t5.2-11.92q0-15.72-22.21-15.72a138.57,138.57,0,0,0-17.49,1.33V294.74h58.6v19h-38.68V335q4.65-.43,8.79-.44,16.31,0,25.53,8.56t9.23,23q0,16-11,26.16t-29.81,10.15Q1421.52,402.42,1411.11,397.84Z"/><path class="cls-4" d="M734.43,544.69q-9,4.77-22.5,4.77-17.38,0-27.84-11.19t-10.46-29.38q0-19.54,11.76-31.59t29.83-12.05q11.6,0,19.21,3.36v10.17a38.93,38.93,0,0,0-19.32-4.89q-14,0-22.76,9.38t-8.72,25.05q0,14.9,8.15,23.73t21.4,8.83q12.26,0,21.25-5.46Z"/><path class="cls-4" d="M814,548.09H770.8V466.62h41.36v8.63H780.35v27.11h29.42v8.58H780.35v28.52H814Z"/><path class="cls-4" d="M907.85,548.09H896.49l-13.64-22.83a49,49,0,0,0-3.63-5.43,21,21,0,0,0-3.61-3.67,12.84,12.84,0,0,0-4-2.07,16.19,16.19,0,0,0-4.8-.66H859v34.66h-9.54V466.62h24.31a34.68,34.68,0,0,1,9.86,1.33,22,22,0,0,1,7.84,4.07,18.84,18.84,0,0,1,5.2,6.79,22.51,22.51,0,0,1,1.88,9.51,22.79,22.79,0,0,1-1.29,7.82,20.18,20.18,0,0,1-3.63,6.33,22.1,22.1,0,0,1-5.68,4.75,29,29,0,0,1-7.47,3v.24a17,17,0,0,1,3.55,2.07,19.93,19.93,0,0,1,2.87,2.75,36.84,36.84,0,0,1,2.69,3.61c.89,1.34,1.89,2.91,3,4.69ZM859,475.25V504.8h13a19.6,19.6,0,0,0,6.62-1.08,15.36,15.36,0,0,0,5.26-3.1,14,14,0,0,0,3.46-4.94,16.61,16.61,0,0,0,1.25-6.56q0-6.53-4.23-10.2c-2.83-2.44-6.9-3.67-12.24-3.67Z"/><path class="cls-4" d="M981.78,475.25H958.26v72.84h-9.55V475.25H925.25v-8.63h56.53Z"/><path class="cls-4" d="M1023.89,548.09h-9.54V466.62h9.54Z"/><path class="cls-4" d="M1106.46,475.25h-31.82v28.19h29.43V512h-29.43v36.07h-9.55V466.62h41.37Z"/><path class="cls-4" d="M1151.24,548.09h-9.55V466.62h9.55Z"/><path class="cls-4" d="M1235.62,548.09h-43.18V466.62h41.37v8.63H1202v27.11h29.43v8.58H1202v28.52h33.63Z"/><path class="cls-4" d="M1271.09,548.09V466.62h22.49q43.08,0,43.07,39.71,0,18.87-12,30.32t-32,11.44Zm9.54-72.84v64.21h12.16q16,0,25-8.58t8.91-24.32q0-31.31-33.29-31.31Z"/><path class="cls-5" d="M349.38,976.93q-22.94,1.64-45.86,3.39,1.39,18.2,2.78,36.39,21.06-1.61,42.1-3.12.6,8.49,1.22,17-21,1.5-42,3.11l3.87,50.65-20.13,1.57q-4.75-60.53-9.53-121.05,33.18-2.61,66.36-5Q348.77,968.41,349.38,976.93Z"/><path class="cls-5" d="M477.05,1024c1.94,34-13.22,51.94-45.47,54-30.88,2-47.46-13.32-49.71-46q-2.52-37.05-5.05-74.08,10.21-.71,20.41-1.37l4.62,70q2.36,35.65,30.15,33.86,26.78-1.66,24.73-36-2.12-35.64-4.26-71.26l20.42-1.19Q475,987.93,477.05,1024Z"/><path class="cls-5" d="M619.53,1066.1l-22,1q-31-43.29-62.55-86.36a39.86,39.86,0,0,1-4-6.83l-.51,0c.61,2.56,1.08,8.1,1.53,16.62L536,1070l-19.48,1q-3.24-60.62-6.48-121.24,11.88-.63,23.77-1.24,30.61,42.06,60.7,84.33a85.92,85.92,0,0,1,4.92,7.24l.34,0q-1.08-4.77-1.57-16.29l-3.45-78.15,19.66-.85Q617,1005.45,619.53,1066.1Z"/><path class="cls-5" d="M657.75,1064.58q-2.28-60.66-4.57-121.33,17.76-.68,35.54-1.27c45.43-1.52,68.66,17.69,69.65,57.11.5,18.74-5.37,33.95-17.48,45.67s-28.62,17.91-49.5,18.61Q674.56,1064,657.75,1064.58Zm16.38-105q1.56,43.62,3.09,87.24,8.07-.3,16.13-.56,21.31-.72,32.8-12.73t10.91-33.36C736.26,971.82,721,958,691.19,959Q682.66,959.3,674.13,959.6Z"/><path class="cls-5" d="M887.49,1058.86q-11.07.14-22.12.3-5.7-15.37-11.42-30.74-24,.38-48,.88-5,15.57-9.86,31.13-11,.24-22,.52,21.25-61.26,43.12-122.4,11.5-.24,23-.43Q864.17,998.44,887.49,1058.86Zm-39.17-46.78Q839.44,988,830.48,964a53.26,53.26,0,0,1-1.76-7.59h-.35A47.93,47.93,0,0,1,826.8,964q-8,24.38-15.88,48.75Q829.63,1012.4,848.32,1012.08Z"/><path class="cls-5" d="M1042.87,1058.33l-20-.09q.12-39.29.23-78.57c0-6.44.44-14.31,1.28-23.62H1024a81.8,81.8,0,0,1-3.37,11.42q-18.43,45.33-36.52,90.74l-13.9,0q-18.32-45-37-89.91a83.32,83.32,0,0,1-3.34-12.08h-.34c.51,4.86.76,12.78.86,23.79q.27,39.19.57,78.4l-18.65.15q-.57-60.7-1.13-121.41Q925.59,937,940,937q16.44,40.34,32.59,80.72a119.34,119.34,0,0,1,4.8,13.87h.42c2.09-6.38,3.77-11.12,5.08-14.23q16.29-40.29,32.87-80.51,13.88,0,27.75.1Z"/><path class="cls-5" d="M1149.16,1059.51q-34.11-.59-68.22-.91l1.14-121.41q33.2.31,66.4.87-.13,8.55-.29,17.1-22.93-.37-45.86-.65-.19,17.19-.4,34.37,21,.25,42.1.59-.13,8.52-.28,17-21-.35-42-.59l-.42,35.9q24.07.29,48.14.69Q1149.31,1051,1149.16,1059.51Z"/><path class="cls-5" d="M1282,1062.75q-11-.35-22-.67-27.7-45.46-56-90.74a40.17,40.17,0,0,1-3.52-7.11h-.51q.6,3.9.3,16.69-.89,39.78-1.79,79.57l-19.5-.42q1.24-60.69,2.48-121.39,11.89.24,23.79.52,27.42,44.2,54.31,88.57a87.18,87.18,0,0,1,4.37,7.58h.34c-.48-3.23-.59-8.68-.37-16.36q1.17-39.11,2.32-78.2l19.67.61Z"/><path class="cls-5" d="M1402.79,963q-17.64-.78-35.29-1.51-2.14,52.11-4.26,104.23c-6.73-.28-13.44-.54-20.17-.8q2-52.12,4-104.24-17.61-.67-35.22-1.29c.2-5.7.39-11.4.6-17.09q45.54,1.58,91.08,3.62Q1403.17,954.45,1402.79,963Z"/><path class="cls-5" d="M1511.18,1073l-22.09-1.24q-4.6-15.73-9.26-31.46-24-1.27-47.92-2.44-6,15.18-12,30.37-11-.53-22-1,25.45-59.62,51.53-119.11,11.49.57,23,1.17Q1492.11,1011.08,1511.18,1073Zm-35.83-49.38q-7.18-24.63-14.46-49.25a58.91,58.91,0,0,1-1.24-7.7l-.35,0a48.73,48.73,0,0,1-2.09,7.53q-9.66,23.76-19.23,47.53Q1456.66,1022.6,1475.35,1023.6Z"/><path class="cls-5" d="M1603.2,1078.74q-33.59-2.28-67.19-4.3,3.65-60.6,7.3-121.19,10.2.62,20.41,1.25-3.24,52.1-6.5,104.19,23.57,1.47,47.13,3.07C1604,1067.42,1603.59,1073.08,1603.2,1078.74Z"/><path class="cls-5" d="M1623.61,1075.31q.72-10.35,1.45-20.69a31.9,31.9,0,0,0,6.34,5,51.66,51.66,0,0,0,7.93,4,65.63,65.63,0,0,0,8.49,2.77,46.25,46.25,0,0,0,7.92,1.35q12.71.93,19.25-2.81c4.38-2.51,6.76-6.42,7.16-11.77a13.36,13.36,0,0,0-1.51-7.63,21.79,21.79,0,0,0-5.39-6.23,61.2,61.2,0,0,0-8.42-5.68c-3.26-1.85-6.72-3.8-10.48-5.82q-6-3.75-11.09-7.52a50,50,0,0,1-8.79-8.14,31.54,31.54,0,0,1-5.58-9.69,29.9,29.9,0,0,1-1.41-12.23,27.66,27.66,0,0,1,4.94-14.55,32.38,32.38,0,0,1,11-9.67,47.45,47.45,0,0,1,15-5,69.66,69.66,0,0,1,16.78-.76q19.29,1.46,27.78,6.46-.77,9.93-1.55,19.84-9.84-8.25-26.29-9.49a48.35,48.35,0,0,0-9.08.18,26.9,26.9,0,0,0-8.26,2.19,17.41,17.41,0,0,0-6.13,4.56,12.07,12.07,0,0,0-2.76,7.19,14.23,14.23,0,0,0,1.2,7.13,18.29,18.29,0,0,0,4.6,5.77,50.63,50.63,0,0,0,7.67,5.35q4.56,2.69,10.58,5.85c4.08,2.51,8,5.13,11.53,7.84a56.57,56.57,0,0,1,9.34,8.78,35,35,0,0,1,6,10.29,28.52,28.52,0,0,1,1.56,12.39q-.73,9.2-5,15.24a30.31,30.31,0,0,1-10.83,9.52,45,45,0,0,1-14.95,4.63,82.6,82.6,0,0,1-17.46.48c-2-.15-4.51-.49-7.45-1s-5.94-1.19-9-2a81.16,81.16,0,0,1-8.64-2.78A27.37,27.37,0,0,1,1623.61,1075.31Z"/><polygon class="cls-2" points="1000 1436.83 1031.5 1533.78 1133.44 1533.78 1050.97 1593.7 1082.47 1690.64 1000 1630.73 917.53 1690.64 949.03 1593.7 866.56 1533.78 968.5 1533.78 1000 1436.83"/></svg>