<svg id="Layer_1" data-name="Layer 1" xmlns="http://www.w3.org/2000/svg" viewBox="0 0 2000 2000"><defs><style>.cls-1{fill:#505050;}.cls-2{fill:#002050;}.cls-3{fill:#0064b5;}.cls-4{fill:#fff;}.cls-5{fill:#282828;}</style></defs><path class="cls-1" d="M1000,10a149.2,149.2,0,0,0-43.11,6.36L398.14,185A142.38,142.38,0,0,0,296.3,322.13v949.14c0,242.84,82.05,327.38,239.29,467.71,153.69,137.16,428.51,238,440.14,242.2L1000,1990l24.27-8.82c11.63-4.23,286.45-105,440.14-242.2,157.24-140.33,239.29-224.87,239.29-467.71V322.13A142.38,142.38,0,0,0,1601.86,185L1043.11,16.36A149.2,149.2,0,0,0,1000,10Z"/><path class="cls-2" d="M1581.33,253.07,1022.56,84.4a78.54,78.54,0,0,0-45.12,0L418.67,253.07a72.13,72.13,0,0,0-51.28,69.05V999.57H1632.61V322.12A72.13,72.13,0,0,0,1581.33,253.07Z"/><path class="cls-3" d="M367.39,1271.28c0,214,64.55,279.94,215.51,414.67,145.27,129.64,417.1,228.42,417.1,228.42s271.83-98.78,417.1-228.42c151-134.73,215.51-200.7,215.51-414.67V999.57H367.39Z"/><path class="cls-1" d="M1000,656.84c-300.5,0-593.32,25.46-870.34,75.68A102.73,102.73,0,0,0,47.27,854.08c25.46,125.27,54.59,278.35,74.23,390a113.27,113.27,0,0,0,111.74,93.78,114.58,114.58,0,0,0,23.46-2.44C354,1315,621.31,1267.58,1000,1267.58s646,47.43,743.31,67.82a114.42,114.42,0,0,0,23.45,2.44,113.27,113.27,0,0,0,111.74-93.78c19.64-111.64,48.77-264.72,74.23-390a102.73,102.73,0,0,0-82.39-121.56c-277-50.22-569.84-75.68-870.34-75.68Z"/><path class="cls-4" d="M1000,1230.27c315.15,0,582.57,33.34,751,68.61a76.19,76.19,0,0,0,90.8-61.28c20.68-117.62,50.24-272,74.41-390.95a65.42,65.42,0,0,0-52.49-77.42c-166.56-30.2-465-75.08-863.68-75.08h0c-398.71,0-697.12,44.88-863.68,75.08a65.42,65.42,0,0,0-52.49,77.42C108,965.58,137.56,1120,158.24,1237.6a76.19,76.19,0,0,0,90.8,61.28c168.39-35.27,435.81-68.61,751-68.61Z"/><path class="cls-4" d="M645.92,400.57H622.38V337.25q0-10.26.89-22.66h-.59a111.37,111.37,0,0,1-3.33,14l-24.79,72H575.07l-25.24-71.22q-1-2.88-3.32-14.76h-.66q1,15.66,1,27.46v58.52H525.33V294.74h34.91l21.62,62.73a89,89,0,0,1,3.77,15.13h.44a152.11,152.11,0,0,1,4.21-15.28l21.62-62.58h34Z"/><path class="cls-4" d="M678,313a13.6,13.6,0,0,1-9.67-3.5,11.29,11.29,0,0,1-3.76-8.6,10.9,10.9,0,0,1,3.76-8.56,15.8,15.8,0,0,1,19.38,0,11,11,0,0,1,3.72,8.56,11.25,11.25,0,0,1-3.72,8.71A13.88,13.88,0,0,1,678,313Zm11.51,87.53H666.18V325H689.5Z"/><path class="cls-4" d="M764.89,397.84q-7.89,4.57-22.8,4.58-17.42,0-28.2-10.56t-10.76-27.23q0-19.26,11.54-30.37t30.89-11.11q13.35,0,19.33,3.55v19.78A26.58,26.58,0,0,0,748.58,341q-10,0-15.9,5.87t-5.87,16.2q0,10,5.61,15.76t15.42,5.72a30.78,30.78,0,0,0,17-5.46Z"/><path class="cls-4" d="M828,346a20.21,20.21,0,0,0-9.8-2.29,14.15,14.15,0,0,0-11.89,5.58Q802,354.89,802,364.48v36.09H778.66V325H802v14h.3q5.54-15.34,19.92-15.35a14.76,14.76,0,0,1,5.75.89Z"/><path class="cls-4" d="M873.31,402.42q-18.9,0-29.71-10.59t-10.81-28.75q0-18.74,11.22-29.34t30.33-10.59q18.82,0,29.52,10.59t10.71,28q0,18.83-11,29.75T873.31,402.42ZM873.9,341q-8.26,0-12.84,5.69t-4.58,16.09q0,21.76,17.57,21.77,16.74,0,16.75-22.36Q890.8,341,873.9,341Z"/><path class="cls-4" d="M923.24,398.58V379.69a49.6,49.6,0,0,0,11.48,5.16,37.66,37.66,0,0,0,10.81,1.7c4.13,0,7.39-.56,9.78-1.7s3.57-2.85,3.57-5.16a4.77,4.77,0,0,0-1.62-3.69,14.94,14.94,0,0,0-4.17-2.59,48.69,48.69,0,0,0-5.57-2c-2-.59-4-1.25-5.83-2a55.21,55.21,0,0,1-7.93-3.65,23.11,23.11,0,0,1-5.76-4.54,17.92,17.92,0,0,1-3.54-6,23.92,23.92,0,0,1-1.22-8.05A20.68,20.68,0,0,1,926,336.29a22.48,22.48,0,0,1,7.38-7.49,33.73,33.73,0,0,1,10.55-4.28,55,55,0,0,1,12.36-1.37,68.34,68.34,0,0,1,10.19.78,75.49,75.49,0,0,1,10.18,2.25v18a37.08,37.08,0,0,0-9.49-3.88,39.92,39.92,0,0,0-9.92-1.29,21.9,21.9,0,0,0-4.31.41,14.14,14.14,0,0,0-3.59,1.18,6.52,6.52,0,0,0-2.43,2,4.58,4.58,0,0,0-.89,2.77,5.14,5.14,0,0,0,1.33,3.54,11.41,11.41,0,0,0,3.47,2.55,34.67,34.67,0,0,0,4.76,1.92c1.74.57,3.48,1.14,5.2,1.73a66.51,66.51,0,0,1,8.41,3.54,26.86,26.86,0,0,1,6.46,4.5,17.66,17.66,0,0,1,4.13,6.06A24.12,24.12,0,0,1,978.33,389a23.41,23.41,0,0,1-7.74,7.75,35.27,35.27,0,0,1-11.15,4.35,61.86,61.86,0,0,1-13.1,1.37A67.45,67.45,0,0,1,923.24,398.58Z"/><path class="cls-4" d="M1029.18,402.42q-18.88,0-29.71-10.59t-10.81-28.75q0-18.74,11.22-29.34t30.33-10.59q18.82,0,29.52,10.59t10.71,28q0,18.83-11,29.75T1029.18,402.42Zm.59-61.41q-8.26,0-12.84,5.69t-4.58,16.09q0,21.76,17.57,21.77,16.75,0,16.75-22.36Q1046.67,341,1029.77,341Z"/><path class="cls-4" d="M1133.35,306.55a23.57,23.57,0,0,0-8.64-1.77q-11.2,0-11.21,12.17V325h17.27v17.19H1113.5v58.38h-23.25V342.19h-12.69V325h12.69v-9.38q0-12.9,8.42-20.8t22.87-7.9a40,40,0,0,1,11.81,1.48Z"/><path class="cls-4" d="M1186.16,399.69q-5.16,2.73-15.57,2.73-24.66,0-24.66-25.61V342.19h-12.25V325h12.25V308.69l23.25-6.65v23h17v17.19h-17v30.56q0,11.81,9.38,11.81a15.77,15.77,0,0,0,7.6-2.14Z"/><path class="cls-4" d="M1239,397.1V376.81a40.9,40.9,0,0,0,24.79,7.75q8.94,0,13.91-3.84a12.75,12.75,0,0,0,5-10.7,12.15,12.15,0,0,0-6.16-10.92q-6.16-3.84-16.94-3.84h-9.51V337.4h8.78q20.66,0,20.66-13.73,0-12.92-15.87-12.92-10.62,0-20.66,6.87v-19q11.15-5.61,26-5.61,16.23,0,25.27,7.31a23.23,23.23,0,0,1,9,19q0,20.75-21,26v.37q11.22,1.41,17.71,8.15a23,23,0,0,1,6.5,16.57q0,14.83-10.85,23.47t-30,8.64Q1249.26,402.42,1239,397.1Z"/><path class="cls-4" d="M1388,295.85v19.48a34.89,34.89,0,0,0-17.56-4.58,23.1,23.1,0,0,0-18.93,9q-7.2,9-7.49,24h.44q7.6-11.21,22.22-11.21,13.27,0,21.06,9t7.8,23.84q0,15.94-10.34,26.49t-26.27,10.56q-17.87,0-27.9-12.92t-10-36.23q0-27.47,12.92-43.88T1368.94,293Q1381.18,293,1388,295.85Zm-29.22,53.95a12.68,12.68,0,0,0-10.22,4.5,17.2,17.2,0,0,0-3.8,11.51,22.41,22.41,0,0,0,3.87,13.25,12.55,12.55,0,0,0,20.34.59q3.76-4.9,3.76-12.8Q1372.7,349.8,1358.75,349.8Z"/><path class="cls-4" d="M1411.11,397.84V377.92a43.59,43.59,0,0,0,23.1,6.64q9.22,0,14.43-4.39t5.2-11.92q0-15.72-22.21-15.72a138.57,138.57,0,0,0-17.49,1.33V294.74h58.6v19h-38.68V335q4.65-.43,8.79-.44,16.31,0,25.53,8.56t9.23,23q0,16-11,26.16t-29.81,10.15Q1421.52,402.42,1411.11,397.84Z"/><path class="cls-4" d="M734.43,544.69q-9,4.77-22.5,4.77-17.38,0-27.84-11.19t-10.46-29.38q0-19.54,11.76-31.59t29.83-12.05q11.6,0,19.21,3.36v10.17a38.93,38.93,0,0,0-19.32-4.89q-14,0-22.76,9.38t-8.72,25.05q0,14.9,8.15,23.73t21.4,8.83q12.26,0,21.25-5.46Z"/><path class="cls-4" d="M814,548.09H770.8V466.62h41.36v8.63H780.35v27.11h29.42v8.58H780.35v28.52H814Z"/><path class="cls-4" d="M907.85,548.09H896.49l-13.64-22.83a49,49,0,0,0-3.63-5.43,21,21,0,0,0-3.61-3.67,12.84,12.84,0,0,0-4-2.07,16.19,16.19,0,0,0-4.8-.66H859v34.66h-9.54V466.62h24.31a34.68,34.68,0,0,1,9.86,1.33,22,22,0,0,1,7.84,4.07,18.84,18.84,0,0,1,5.2,6.79,22.51,22.51,0,0,1,1.88,9.51,22.79,22.79,0,0,1-1.29,7.82,20.18,20.18,0,0,1-3.63,6.33,22.1,22.1,0,0,1-5.68,4.75,29,29,0,0,1-7.47,3v.24a17,17,0,0,1,3.55,2.07,19.93,19.93,0,0,1,2.87,2.75,36.84,36.84,0,0,1,2.69,3.61c.89,1.34,1.89,2.91,3,4.69ZM859,475.25V504.8h13a19.6,19.6,0,0,0,6.62-1.08,15.36,15.36,0,0,0,5.26-3.1,14,14,0,0,0,3.46-4.94,16.61,16.61,0,0,0,1.25-6.56q0-6.53-4.23-10.2c-2.83-2.44-6.9-3.67-12.24-3.67Z"/><path class="cls-4" d="M981.78,475.25H958.26v72.84h-9.55V475.25H925.25v-8.63h56.53Z"/><path class="cls-4" d="M1023.89,548.09h-9.54V466.62h9.54Z"/><path class="cls-4" d="M1106.46,475.25h-31.82v28.19h29.43V512h-29.43v36.07h-9.55V466.62h41.37Z"/><path class="cls-4" d="M1151.24,548.09h-9.55V466.62h9.55Z"/><path class="cls-4" d="M1235.62,548.09h-43.18V466.62h41.37v8.63H1202v27.11h29.43v8.58H1202v28.52h33.63Z"/><path class="cls-4" d="M1271.09,548.09V466.62h22.49q43.08,0,43.07,39.71,0,18.87-12,30.32t-32,11.44Zm9.54-72.84v64.21h12.16q16,0,25-8.58t8.91-24.32q0-31.31-33.29-31.31Z"/><polygon class="cls-4" points="1000 1591.76 1028.65 1679.94 1121.38 1679.94 1046.36 1734.44 1075.01 1822.62 1000 1768.12 924.99 1822.62 953.64 1734.44 878.63 1679.94 971.35 1679.94 1000 1591.76"/><polygon class="cls-4" points="754 1515.22 780.62 1597.14 866.75 1597.14 797.07 1647.77 823.68 1729.69 754 1679.06 684.32 1729.69 710.93 1647.77 641.25 1597.14 727.38 1597.14 754 1515.22"/><polygon class="cls-4" points="1246 1515.22 1219.38 1597.14 1133.25 1597.14 1202.93 1647.77 1176.32 1729.69 1246 1679.06 1315.68 1729.69 1289.07 1647.77 1358.75 1597.14 1272.62 1597.14 1246 1515.22"/><path class="cls-4" d="M783.76,1456.07q-26.89.66-53.8,1.51l-2.82-89.67q26.15-.83,52.29-1.48l.41,16.45q-15.9.39-31.8.86.29,10,.58,20,14.76-.43,29.52-.81l.42,16.39q-14.73.38-29.47.8l.6,20.52q16.83-.49,33.66-.91Z"/><path class="cls-4" d="M890.63,1454.07q-12,.15-24,.33-7.95-14.49-15.95-29a25.2,25.2,0,0,1-1.93-6h-.25a46.68,46.68,0,0,1-2,6.29q-7.53,14.63-15,29.25l-24.09.51q13.8-22.76,27.75-45.44-13.56-22.18-27.27-44.32,12.42-.27,24.84-.5,6.74,13.32,13.44,26.66a47,47,0,0,1,2.84,7.52h.25c.48-1.76,1.37-4.39,2.7-7.87q7-13.45,14-26.88,11.38-.17,22.76-.31-13.32,22.41-26.49,44.86Q876.52,1431.63,890.63,1454.07Z"/><path class="cls-4" d="M938,1422.71l.21,30.91q-10.11.06-20.21.16-.4-44.87-.82-89.72,16-.15,32-.23c22.86-.12,34.3,9.42,34.31,28.48q0,13.51-9.74,21.89t-26.08,8.45Zm-.29-43.29q.09,14,.19,28l8,0q16.23-.1,16.18-14.22-.06-13.83-16.34-13.75Z"/><path class="cls-4" d="M1067.18,1453.74q-26.91-.23-53.82-.29.1-44.87.2-89.72,26.16.06,52.3.28-.06,8.22-.13,16.45-15.92-.14-31.82-.2l-.09,20q14.76.07,29.53.19-.06,8.2-.13,16.39-14.74-.12-29.48-.19l-.09,20.53q16.83.07,33.67.22Q1067.24,1445.55,1067.18,1453.74Z"/><path class="cls-4" d="M1173.49,1455.33q-11.6-.24-23.21-.46-6.77-11.67-13.56-23.33-1.53-2.65-2.94-4.74a25.62,25.62,0,0,0-2.86-3.58,11.61,11.61,0,0,0-3-2.31,8,8,0,0,0-3.47-.83l-5.47-.08-.51,34.34q-10.1-.15-20.2-.27.54-44.86,1.1-89.71,16.18.2,32.38.46c22,.36,32.85,8.73,32.52,25a25.23,25.23,0,0,1-1.63,8.63,24.09,24.09,0,0,1-4.23,7.09,25.91,25.91,0,0,1-6.49,5.38,32.56,32.56,0,0,1-8.39,3.47c0,.09,0,.17,0,.26a13,13,0,0,1,3.86,2.1,27.94,27.94,0,0,1,3.59,3.35,46.36,46.36,0,0,1,3.28,4.1c1,1.46,2,2.88,2.84,4.28Q1165.3,1441.9,1173.49,1455.33Zm-54-75.56q-.18,12.48-.37,25l8.82.13q6.54.11,10.57-3.58a12.49,12.49,0,0,0,4.2-9.37q.2-11.76-14-12Z"/><path class="cls-4" d="M1261.26,1384.36q-12.9-.4-25.81-.78-1,36.63-2.08,73.24-10.12-.28-20.27-.55,1-36.63,1.91-73.24-12.84-.33-25.69-.63.2-8.22.38-16.45,36,.83,72.08,2Q1261.51,1376.13,1261.26,1384.36Z"/><path class="cls-5" d="M565.47,946.21q-36,2.25-72,4.89-4.53-62-9.08-124.07,35.16-2.58,70.34-4.79.56,8.75,1.1,17.48-24.28,1.54-48.56,3.24l2.46,35.13q22.26-1.56,44.52-3l1.11,17.4q-22.2,1.41-44.41,3,1.29,18.35,2.57,36.69,25.41-1.78,50.81-3.37Q564.92,937.51,565.47,946.21Z"/><path class="cls-5" d="M698.87,939.16q-11.64.5-23.26,1Q642.85,896,609.27,852a38.2,38.2,0,0,1-4.3-7l-.54,0q.95,3.95,1.68,17,2.28,40.71,4.55,81.42-10.27.57-20.56,1.18-3.66-62.09-7.33-124.18,12.62-.75,25.23-1.45,32.6,42.9,64.45,86.1a88.11,88.11,0,0,1,5.21,7.4l.36,0q-1.12-4.9-1.67-16.68l-3.69-80.08,20.85-.93Q696.2,877,698.87,939.16Z"/><path class="cls-5" d="M812,828.3q-18.72.5-37.45,1.08,1.68,53.42,3.37,106.83-10.65.33-21.3.7-1.85-53.4-3.7-106.81-18.67.64-37.35,1.4-.36-8.76-.7-17.51,48.33-1.95,96.68-3.21Z"/><path class="cls-5" d="M907.51,933.34q-36,.46-72.07,1.29l-2.88-124.36q35.22-.82,70.46-1.28.11,8.76.22,17.52-24.32.32-48.64.81.36,17.59.71,35.21,22.31-.45,44.6-.75.12,8.72.23,17.44-22.25.3-44.48.74.38,18.39.74,36.78,25.44-.51,50.89-.83Q907.4,924.63,907.51,933.34Z"/><path class="cls-5" d="M1031.38,932.89q-12.44-.06-24.89-.09-10.22-16.66-20.55-33.32a68.91,68.91,0,0,0-5.45-7.84,31.06,31.06,0,0,0-5.42-5.32,18.58,18.58,0,0,0-6-3,25.74,25.74,0,0,0-7.31-.92l-8.66,0,.3,50.48-21.21.16q-.57-62.19-1.13-124.39,21.51-.2,43-.26A64.66,64.66,0,0,1,991,810.47a39.94,39.94,0,0,1,13.48,6.3,29.39,29.39,0,0,1,8.93,10.51,31.65,31.65,0,0,1,3.19,14.72,35,35,0,0,1-2.08,12.09,31.26,31.26,0,0,1-5.81,9.79,35.63,35.63,0,0,1-9,7.32,46.46,46.46,0,0,1-11.88,4.69v.34a33.06,33.06,0,0,1,6.14,4.2c1.76,1.53,3.42,3.11,5,4.74a55,55,0,0,1,4.63,5.51q2.3,3.08,5.08,7.17Q1020.05,915.34,1031.38,932.89ZM952.75,825.26l.24,40.42,17.9-.08a27.66,27.66,0,0,0,9.18-1.5,21.5,21.5,0,0,0,7.27-4.26,19.18,19.18,0,0,0,4.8-6.77,22.65,22.65,0,0,0,1.71-8.94c0-6-2-10.61-5.9-14s-9.62-5-17-5Q961.84,825.2,952.75,825.26Z"/><path class="cls-5" d="M1069.88,888.09q-.26,22.56-.5,45.11-10.61-.12-21.22-.2.49-62.19,1-124.4,19.81.17,39.65.43,22.51.3,34.73,10.53t11.8,28.34q-.39,18.14-13.42,29.42t-34.81,11Zm.67-62.28q-.24,22.73-.49,45.45l13.91.17q13.82.18,21.15-5.86t7.53-17.22c.26-14.63-8.55-22.11-26.36-22.35Z"/><path class="cls-5" d="M1256.33,937.79q-12.43-.48-24.87-.91-9.68-17-19.45-34a69.14,69.14,0,0,0-5.2-8,32.22,32.22,0,0,0-5.24-5.49,18.37,18.37,0,0,0-5.9-3.22,26.25,26.25,0,0,0-7.28-1.16l-8.66-.24-1.35,50.48-21.21-.54,2.94-124.37q21.53.51,43,1.16a64.56,64.56,0,0,1,16.88,2.6,40.11,40.11,0,0,1,13.27,6.74,29.63,29.63,0,0,1,8.59,10.8,31.8,31.8,0,0,1,2.7,14.81,34.91,34.91,0,0,1-2.47,12,31.47,31.47,0,0,1-6.14,9.59,34.82,34.82,0,0,1-9.28,7,46.53,46.53,0,0,1-12,4.3c0,.11,0,.23,0,.34a33,33,0,0,1,6,4.4c1.68,1.59,3.31,3.22,4.8,4.9a56.47,56.47,0,0,1,4.45,5.65c1.47,2.11,3.07,4.56,4.84,7.34Q1245.59,919.89,1256.33,937.79Zm-75.07-110.15-1.08,40.41,17.9.5a27.47,27.47,0,0,0,9.21-1.2,21.21,21.21,0,0,0,7.42-4,19.57,19.57,0,0,0,5-6.61,22.1,22.1,0,0,0,2-8.87c.22-6-1.62-10.68-5.44-14.15s-9.44-5.34-16.84-5.55Q1190.36,827.88,1181.26,827.64Z"/><path class="cls-5" d="M1294.94,939.37q-10.95-.48-21.92-.92,2.52-62.16,5-124.3,11.16.45,22.32.94Q1297.66,877.23,1294.94,939.37Z"/><path class="cls-5" d="M1322.69,935.69c.33-7.07.68-14.15,1-21.23a34.81,34.81,0,0,0,6.82,5,56.79,56.79,0,0,0,8.49,3.94,69.84,69.84,0,0,0,9,2.67,50,50,0,0,0,8.39,1.22c9,.47,15.71-.6,20.27-3.24a14.15,14.15,0,0,0,7.3-12.19,13.34,13.34,0,0,0-1.77-7.79,22.74,22.74,0,0,0-5.83-6.28,63.74,63.74,0,0,0-9-5.67q-5.22-2.75-11.22-5.76-6.39-3.72-11.92-7.47a54,54,0,0,1-9.5-8.17,32.27,32.27,0,0,1-6.14-9.8,29.61,29.61,0,0,1-1.81-12.51,27.54,27.54,0,0,1,4.86-15,34,34,0,0,1,11.44-10.12,50.85,50.85,0,0,1,15.75-5.45,75.78,75.78,0,0,1,17.77-1.09c13.68.75,23.55,2.81,29.62,6.12q-.6,10.17-1.21,20.35-10.62-8.28-28.07-9.25a52.68,52.68,0,0,0-9.64.35,29.21,29.21,0,0,0-8.69,2.4,18.44,18.44,0,0,0-6.39,4.8,12.14,12.14,0,0,0-2.75,7.41,13.77,13.77,0,0,0,1.45,7.29,18.93,18.93,0,0,0,5,5.82,55.19,55.19,0,0,0,8.25,5.34q4.88,2.65,11.33,5.78c4.38,2.5,8.53,5.11,12.38,7.82a59.24,59.24,0,0,1,10.07,8.84,35.85,35.85,0,0,1,6.62,10.42,28.51,28.51,0,0,1,1.91,12.68c-.37,6.29-2,11.52-4.9,15.69a31.36,31.36,0,0,1-11.23,10,48.3,48.3,0,0,1-15.68,5,90.5,90.5,0,0,1-18.43.83q-3.21-.18-7.89-.9c-3.1-.47-6.3-1.1-9.54-1.87a91.71,91.71,0,0,1-9.2-2.67A30.09,30.09,0,0,1,1322.69,935.69Z"/><path class="cls-5" d="M1501.85,951.57q-36-2.67-71.95-5l7.89-124.15q35.19,2.24,70.34,4.82l-1.29,17.48q-24.27-1.78-48.55-3.41-1.18,17.58-2.35,35.14,22.27,1.49,44.52,3.12-.63,8.68-1.27,17.39-22.2-1.63-44.41-3.11-1.21,18.36-2.44,36.7,25.4,1.7,50.8,3.58Z"/><path class="cls-5" d="M379.18,1162.62q-11.3,1.05-22.6,2.13-7.09-15.21-14.26-30.43-24.54,2.4-49.06,5-3.74,16.31-7.42,32.63-11.25,1.2-22.49,2.44Q279.74,1110,297,1045.67q11.82-1.22,23.64-2.4Q350.35,1102.82,379.18,1162.62Zm-44-44.51q-11.13-23.82-22.37-47.63a60.27,60.27,0,0,1-2.45-7.6l-.35,0a49.88,49.88,0,0,1-1,7.95q-6.14,25.56-12.15,51.13Q316,1120,335.19,1118.11Z"/><path class="cls-5" d="M401.58,1160.58l-11.07-123.91q18.27-1.64,36.55-3.16c46.73-3.9,71.58,14.67,74.48,55,1.41,19.15-3.88,35-15.73,47.59S457.37,1155.8,436,1157.6Q418.78,1159,401.58,1160.58Zm11.35-108.29q3.84,44.57,7.69,89.11l16.51-1.4c14.53-1.22,25.52-6.09,33-14.69s10.67-20.14,9.55-34.68c-2.18-29-18.61-42.37-49.23-39.82Q421.69,1051.53,412.93,1052.29Z"/><path class="cls-5" d="M667.94,1142.15q-10.25.51-20.49,1l-4.2-80.4q-.5-9.87,0-24.23l-.35,0a83.35,83.35,0,0,1-2.83,11.87q-16.39,47.43-32.28,94.93c-4.75.27-9.49.56-14.23.84q-21.4-44.94-43.3-89.75a84.57,84.57,0,0,1-4.16-12.16l-.36,0q1.2,7.39,2.32,24.28,2.67,40.08,5.32,80.16l-19.08,1.29Q530,1088,525.68,1026q14.8-1,29.61-2,19.34,40.26,38.28,80.62a119.56,119.56,0,0,1,5.73,13.91l.43,0c1.77-6.66,3.25-11.61,4.38-14.86q14.37-42.16,29.16-84.26,14.28-.75,28.57-1.46Q664.89,1080,667.94,1142.15Z"/><path class="cls-5" d="M725.12,1139.59c-7.1.29-14.18.59-21.28.9q-2.7-62.15-5.42-124.28,10.83-.48,21.67-.92Q722.6,1077.45,725.12,1139.59Z"/><path class="cls-5" d="M866.77,1135.37q-11.29.23-22.59.47-30.79-45-62.4-89.78a42.2,42.2,0,0,1-4-7.08l-.52,0c.54,2.65,1,8.33,1.25,17.06l2.61,81.5-20,.67q-2.18-62.16-4.36-124.32,12.25-.43,24.52-.81,30.69,43.68,60.62,87.65c2.54,3.65,4.15,6.15,4.89,7.53h.35q-1-4.92-1.25-16.72l-1.77-80.14q10.13-.23,20.27-.42Q865.58,1073.18,866.77,1135.37Z"/><path class="cls-5" d="M924.17,1134.52q-10.65.11-21.3.26l-1.71-124.39,21.69-.27Z"/><path class="cls-5" d="M954.42,1129.32q-.07-10.62-.13-21.25a33.57,33.57,0,0,0,6.87,4.65,54,54,0,0,0,8.43,3.47,69.81,69.81,0,0,0,8.89,2.19,47.44,47.44,0,0,0,8.19.76q13.05,0,19.47-4.33t6.45-12.56a13.71,13.71,0,0,0-2.12-7.69,22.54,22.54,0,0,0-6-6,62.88,62.88,0,0,0-9.06-5.17c-3.48-1.65-7.19-3.37-11.17-5.15q-6.4-3.37-11.94-6.83a51,51,0,0,1-9.64-7.64,32,32,0,0,1-6.47-9.46A30.68,30.68,0,0,1,953.8,1042a28,28,0,0,1,3.93-15.25A33.36,33.36,0,0,1,968.29,1016a48.7,48.7,0,0,1,15-6.29,72.1,72.1,0,0,1,17.18-2q19.92,0,29,4.51-.06,10.19-.1,20.38c-7.15-5.12-16.41-7.7-27.7-7.72a50.28,50.28,0,0,0-9.32.87,27.77,27.77,0,0,0-8.3,2.87,17.7,17.7,0,0,0-5.95,5.13,12.32,12.32,0,0,0-2.27,7.55,14.13,14.13,0,0,0,1.78,7.2,18.71,18.71,0,0,0,5.16,5.54,54.1,54.1,0,0,0,8.27,4.89c3.24,1.59,7,3.31,11.29,5.17q6.57,3.39,12.41,7.14a57.62,57.62,0,0,1,10.22,8.28,35.78,35.78,0,0,1,7,10,29,29,0,0,1,2.51,12.55q-.06,9.47-3.93,15.94a31.08,31.08,0,0,1-10.36,10.54,46.63,46.63,0,0,1-14.93,5.86,85.82,85.82,0,0,1-17.81,1.81,74.38,74.38,0,0,1-7.69-.46c-3-.32-6.16-.77-9.35-1.37a84.48,84.48,0,0,1-9.05-2.17A28.34,28.34,0,0,1,954.42,1129.32Z"/><path class="cls-5" d="M1144.75,1028.94q-18.2-.4-36.38-.71l-1.8,106.86q-10.33-.18-20.68-.32l1.47-106.86q-18.15-.26-36.29-.4.08-8.76.14-17.53,47,.39,93.93,1.44Z"/><path class="cls-5" d="M1262.22,1139.53q-12.08-.49-24.15-.93-9.35-17-18.78-34a70.83,70.83,0,0,0-5-8,31.33,31.33,0,0,0-5.08-5.49,17.66,17.66,0,0,0-5.72-3.22,24.08,24.08,0,0,0-7.06-1.17l-8.41-.25q-.72,25.23-1.45,50.47-10.29-.3-20.59-.57,1.61-62.17,3.2-124.36,20.89.54,41.78,1.21a60.92,60.92,0,0,1,16.38,2.62,38.39,38.39,0,0,1,12.87,6.75,29.54,29.54,0,0,1,8.31,10.81,32.5,32.5,0,0,1,2.57,14.82,35.55,35.55,0,0,1-2.43,12,31.83,31.83,0,0,1-6,9.59,34.75,34.75,0,0,1-9,7,44.81,44.81,0,0,1-11.69,4.28c0,.11,0,.23,0,.35a32.49,32.49,0,0,1,5.82,4.4c1.63,1.59,3.19,3.23,4.64,4.9a53.36,53.36,0,0,1,4.31,5.66q2.11,3.16,4.67,7.34Q1251.85,1121.62,1262.22,1139.53Zm-72.57-110.23q-.57,20.21-1.16,40.41,8.68.26,17.37.53a26.53,26.53,0,0,0,9-1.19,20.52,20.52,0,0,0,7.21-4,19.36,19.36,0,0,0,4.89-6.6,23.14,23.14,0,0,0,2-8.87q.3-8.94-5.25-14.16t-16.34-5.56Q1198.48,1029.56,1189.65,1029.3Z"/><path class="cls-5" d="M1384.34,1145.56l-22.66-1.29q-4.73-16.11-9.51-32.22-24.59-1.32-49.2-2.45-6.13,15.56-12.23,31.14-11.28-.51-22.58-1,25.88-61.18,52.62-122.18,11.85.58,23.7,1.19Q1364.85,1082.11,1384.34,1145.56ZM1347.56,1095q-7.39-25.25-14.92-50.46a57.6,57.6,0,0,1-1.28-7.88H1331a52.7,52.7,0,0,1-2.15,7.71q-9.91,24.35-19.69,48.73Q1328.37,1093.94,1347.56,1095Z"/><path class="cls-5" d="M1481.71,1044.83q-18.17-1.32-36.32-2.53-3.56,53.33-7.12,106.64-10.32-.69-20.65-1.34,3.39-53.34,6.79-106.66-18.12-1.15-36.25-2.21l1-17.5q46.9,2.73,93.79,6.12Z"/><path class="cls-5" d="M1541.25,1158.71q-26.85-2.2-41.72-20.79c-9.92-12.41-14.26-27.89-12.88-46.46,1.47-20,8.18-35.47,20.25-46.51s27.73-15.79,46.94-14.2q26.7,2.2,41.42,21c9.82,12.49,13.82,28,12.12,46.65q-2.79,30.32-20.8,46.46C1574.57,1155.61,1559.53,1160.21,1541.25,1158.71Zm10-110q-17.37-1.43-29.23,10.44t-13.44,32.63c-1.07,13.79,1.61,25.15,7.9,34.12s15.07,13.89,26.3,14.81q17.9,1.49,29.28-9.62t13.32-32.71q2-22.22-7.13-35.2T1551.29,1048.73Z"/><path class="cls-5" d="M1725.59,1174.38q-12-1.32-24-2.61-8.14-17.61-16.39-35.22a68.37,68.37,0,0,0-4.46-8.36,31.17,31.17,0,0,0-4.69-5.84,17.81,17.81,0,0,0-5.48-3.61,24.66,24.66,0,0,0-7-1.66l-8.38-.83q-2.49,25.13-5,50.24-10.26-1-20.52-2,5.92-61.92,11.86-123.84,20.82,2,41.63,4.12a61.56,61.56,0,0,1,16.19,3.76,38.58,38.58,0,0,1,12.38,7.63,29.31,29.31,0,0,1,7.54,11.36,32.33,32.33,0,0,1,1.54,15,35.91,35.91,0,0,1-3.27,11.82,31.58,31.58,0,0,1-6.64,9.14,34.36,34.36,0,0,1-9.52,6.37,44.56,44.56,0,0,1-12,3.45c0,.12,0,.23,0,.35a31.83,31.83,0,0,1,5.5,4.8q2.28,2.55,4.3,5.21a55.74,55.74,0,0,1,3.9,5.95c1.27,2.2,2.66,4.74,4.17,7.64Q1716.48,1155.79,1725.59,1174.38Zm-64.79-115q-2,20.12-4,40.23l17.32,1.73a26,26,0,0,0,9-.56,20.15,20.15,0,0,0,7.48-3.5A19.07,19.07,0,0,0,1696,1091a22.94,22.94,0,0,0,2.6-8.72q.95-8.88-4.26-14.48t-15.93-6.7Z"/></svg>