<svg id="Layer_1" data-name="Layer 1" xmlns="http://www.w3.org/2000/svg" viewBox="0 0 2000 2000"><defs><style>.cls-1{fill:#505050;}.cls-2{fill:#0064b5;}.cls-3{fill:#fff;}.cls-4{fill:#282828;}</style></defs><path class="cls-1" d="M1000,10a149.2,149.2,0,0,0-43.11,6.36L398.14,185A142.38,142.38,0,0,0,296.3,322.13v949.14c0,242.84,82.05,327.38,239.29,467.71,153.69,137.16,428.51,238,440.14,242.2L1000,1990l24.27-8.82c11.63-4.23,286.45-105,440.14-242.2,157.24-140.33,239.29-224.87,239.29-467.71V322.13A142.38,142.38,0,0,0,1601.86,185L1043.11,16.36A149.2,149.2,0,0,0,1000,10Z"/><path class="cls-1" d="M1581.33,253.07,1022.56,84.4a78.54,78.54,0,0,0-45.12,0L418.67,253.07a72.13,72.13,0,0,0-51.28,69.05V999.57H1632.61V322.12A72.13,72.13,0,0,0,1581.33,253.07Z"/><path class="cls-2" d="M367.39,1271.28c0,214,64.55,279.94,215.51,414.67,145.27,129.64,417.1,228.42,417.1,228.42s271.83-98.78,417.1-228.42c151-134.73,215.51-200.7,215.51-414.67V999.57H367.39Z"/><path class="cls-1" d="M1000,656.84c-300.5,0-593.32,25.46-870.34,75.68A102.73,102.73,0,0,0,47.27,854.08c25.46,125.27,54.59,278.35,74.23,390a113.27,113.27,0,0,0,111.74,93.78,114.58,114.58,0,0,0,23.46-2.44C354,1315,621.31,1267.58,1000,1267.58s646,47.43,743.31,67.82a114.42,114.42,0,0,0,23.45,2.44,113.27,113.27,0,0,0,111.74-93.78c19.64-111.64,48.77-264.72,74.23-390a102.73,102.73,0,0,0-82.39-121.56c-277-50.22-569.84-75.68-870.34-75.68Z"/><path class="cls-3" d="M1000,1230.27c315.15,0,582.57,33.34,751,68.61a76.19,76.19,0,0,0,90.8-61.28c20.68-117.62,50.24-272,74.41-390.95a65.42,65.42,0,0,0-52.49-77.42c-166.56-30.2-465-75.08-863.68-75.08h0c-398.71,0-697.12,44.88-863.68,75.08a65.42,65.42,0,0,0-52.49,77.42C108,965.58,137.56,1120,158.24,1237.6a76.19,76.19,0,0,0,90.8,61.28c168.39-35.27,435.81-68.61,751-68.61Z"/><polygon class="cls-3" points="858.58 1519.13 887.24 1607.31 979.96 1607.31 904.94 1661.81 933.6 1750 858.58 1695.49 783.57 1750 812.22 1661.81 737.21 1607.31 829.93 1607.31 858.58 1519.13"/><polygon class="cls-3" points="1140.51 1519.13 1169.16 1607.31 1261.88 1607.31 1186.87 1661.81 1215.52 1750 1140.51 1695.49 1065.49 1750 1094.14 1661.81 1019.13 1607.31 1111.85 1607.31 1140.51 1519.13"/><path class="cls-3" d="M697.32,1454.91q-11.19.67-22.38,1.4-3.9-9.91-7.83-19.82c-10.84.71-21.71,1.47-32.55,2.26q-2.49,10.35-4.95,20.71-11.11.82-22.24,1.7,13-46.77,26.62-93.49,12.4-.89,24.81-1.72Q678.36,1410.35,697.32,1454.91Zm-36-33.85q-6-15-12-29.92a37.85,37.85,0,0,1-2.12-8.08l-.51,0a34.14,34.14,0,0,1-1.06,8q-4,15.78-7.84,31.56Q649.58,1421.85,661.33,1421.06Z"/><path class="cls-3" d="M716,1450.31q-.57-10.17-1.15-20.33a39.77,39.77,0,0,0,25.73,7.92,29.35,29.35,0,0,0,6.75-1.05,16.18,16.18,0,0,0,4.76-2.17,8.59,8.59,0,0,0,2.77-3.07,7.35,7.35,0,0,0,.78-3.7,7.78,7.78,0,0,0-1.77-4.69,16.4,16.4,0,0,0-4.38-3.67,44.28,44.28,0,0,0-6.49-3.12c-2.48-1-5.17-2-8-3q-11-3.88-16.67-10a23.67,23.67,0,0,1-6.18-15.2,23.42,23.42,0,0,1,9.67-21.25,36.08,36.08,0,0,1,11.37-5.48,60.36,60.36,0,0,1,13.92-2.27,83.84,83.84,0,0,1,12.9.25,50,50,0,0,1,10.46,2.16q.43,9.49.85,19a32.56,32.56,0,0,0-5.19-2.57,42.68,42.68,0,0,0-17.06-2.75,28,28,0,0,0-6.43,1,16.79,16.79,0,0,0-4.82,2.12,9.59,9.59,0,0,0-2.95,3,7,7,0,0,0-.89,3.84,7.07,7.07,0,0,0,1.44,4,13.81,13.81,0,0,0,3.65,3.25,36.63,36.63,0,0,0,5.63,2.9c2.22.94,4.67,1.88,7.43,2.85a79.17,79.17,0,0,1,10.17,4.39,35.43,35.43,0,0,1,7.81,5.46,22.77,22.77,0,0,1,5.14,7.2A29.37,29.37,0,0,1,775,1438a23.57,23.57,0,0,1-7.5,8.75,34.31,34.31,0,0,1-11.34,5.15,67.6,67.6,0,0,1-13.83,2.09,79.58,79.58,0,0,1-14.34-.52A43.23,43.23,0,0,1,716,1450.31Z"/><path class="cls-3" d="M800.88,1446.24q-.4-10.17-.8-20.34a39.87,39.87,0,0,0,12.33,6.5,39.29,39.29,0,0,0,13.25,1.85,29.5,29.5,0,0,0,6.77-.93,16.15,16.15,0,0,0,4.8-2.09,8.44,8.44,0,0,0,2.81-3,7.22,7.22,0,0,0,.85-3.69,7.79,7.79,0,0,0-1.69-4.72,16.45,16.45,0,0,0-4.32-3.74,43,43,0,0,0-6.42-3.23c-2.48-1-5.18-2-8-3.1q-10.94-4.07-16.49-10.28a23.71,23.71,0,0,1-5.92-15.3,23.41,23.41,0,0,1,10-21.08,36,36,0,0,1,11.46-5.28,60.56,60.56,0,0,1,14-2,82.93,82.93,0,0,1,12.91.47,50.44,50.44,0,0,1,10.41,2.34q.26,9.5.52,19a31.89,31.89,0,0,0-5.14-2.65,39.69,39.69,0,0,0-5.72-1.84,43.23,43.23,0,0,0-5.82-1,39.63,39.63,0,0,0-5.47-.21,28.47,28.47,0,0,0-6.45.88,16.78,16.78,0,0,0-4.85,2,9.75,9.75,0,0,0-3,3,6.76,6.76,0,0,0-1,3.82,7.21,7.21,0,0,0,1.36,4.06,14,14,0,0,0,3.6,3.31,38.45,38.45,0,0,0,5.58,3c2.2,1,4.65,2,7.38,3a80,80,0,0,1,10.08,4.56,35.07,35.07,0,0,1,7.72,5.6,22.81,22.81,0,0,1,5,7.28,25.68,25.68,0,0,1,1.93,9.65A26,26,0,0,1,860,1435a23.55,23.55,0,0,1-7.64,8.61,34.26,34.26,0,0,1-11.42,5,67.88,67.88,0,0,1-13.86,1.85,78.69,78.69,0,0,1-14.33-.76A43.31,43.31,0,0,1,800.88,1446.24Z"/><path class="cls-3" d="M928.65,1448q-19.57.27-32.22-12.21t-13.12-33c-.32-14.42,3.63-26.18,12-35.25s19.53-13.74,33.6-13.92c13.26-.18,24.09,4,32.3,12.46s12.35,19.7,12.41,33.65c.08,14.34-4.09,25.9-12.39,34.74S942.06,1447.77,928.65,1448Zm-.14-76.66q-11,.15-17.31,8.37c-4.21,5.49-6.25,12.68-6.07,21.58s2.46,16.15,6.79,21.33a20.59,20.59,0,0,0,16.87,7.63c7.12-.1,12.72-2.71,16.85-7.86s6.16-12.26,6.09-21.34c-.1-9.46-2.16-16.8-6.33-22S935.65,1371.2,928.51,1371.29Z"/><path class="cls-3" d="M1066.19,1443.17c-6.73,3.13-15.44,4.62-26.17,4.53-14-.13-25-4.28-33-12.53s-12.07-19.2-12.06-32.9q0-21.88,13.75-35.48c9.18-9,21.16-13.54,35.81-13.4q13.61.13,22.92,3.65-.15,9.89-.28,19.78a40.8,40.8,0,0,0-21.13-5.73c-8.71-.08-15.77,2.57-21.12,7.91s-8.05,12.65-8.1,21.85c0,8.83,2.44,15.86,7.39,21.13s11.67,7.93,20.09,8a43.37,43.37,0,0,0,22.19-5.59Q1066.31,1433.79,1066.19,1443.17Z"/><path class="cls-3" d="M1114.37,1447.33l-20.57-.45q.92-45.6,1.81-91.21,10.47.21,21,.46Q1115.45,1401.73,1114.37,1447.33Z"/><path class="cls-3" d="M1227.13,1451.33q-11.2-.52-22.41-1-2.81-10.27-5.66-20.55-16.29-.66-32.6-1.23-3.57,10-7.12,20.07-11.14-.37-22.28-.69,17.91-45.12,36.45-90.11,12.4.43,24.83.94Q1213,1405,1227.13,1451.33Zm-32.17-37.5q-4.31-15.52-8.7-31a38.43,38.43,0,0,1-1.24-8.26l-.52,0a33.14,33.14,0,0,1-1.91,7.89q-5.61,15.25-11.16,30.53Q1183.21,1413.36,1195,1413.83Z"/><path class="cls-3" d="M1309.86,1381.25q-13.2-.82-26.41-1.58l-4.26,74.37-20.62-1.14q2-37.2,4-74.39-13.14-.71-26.28-1.33.4-8.36.8-16.71,36.95,1.77,73.86,4.08Z"/><path class="cls-3" d="M1383.85,1461.16q-27.31-2.15-54.66-4,3.09-45.51,6.15-91,26.79,1.8,53.54,3.9-.64,8.34-1.31,16.68-16.24-1.27-32.51-2.44-.72,10.13-1.45,20.24,15.06,1.08,30.13,2.26l-1.29,16.61q-15-1.15-30-2.24-.75,10.41-1.49,20.81,17.11,1.23,34.24,2.58Q1384.5,1452.86,1383.85,1461.16Z"/><path class="cls-3" d="M645.92,400.57H622.38V337.25q0-10.26.89-22.66h-.59a111.37,111.37,0,0,1-3.33,14l-24.79,72H575.07l-25.24-71.22q-1-2.88-3.32-14.76h-.66q1,15.66,1,27.46v58.52H525.33V294.74h34.91l21.62,62.73a89,89,0,0,1,3.77,15.13h.44a152.11,152.11,0,0,1,4.21-15.28l21.62-62.58h34Z"/><path class="cls-3" d="M678,313a13.6,13.6,0,0,1-9.67-3.5,11.29,11.29,0,0,1-3.76-8.6,10.9,10.9,0,0,1,3.76-8.56,15.8,15.8,0,0,1,19.38,0,11,11,0,0,1,3.72,8.56,11.25,11.25,0,0,1-3.72,8.71A13.88,13.88,0,0,1,678,313Zm11.51,87.53H666.18V325H689.5Z"/><path class="cls-3" d="M764.89,397.84q-7.89,4.57-22.8,4.58-17.42,0-28.2-10.56t-10.76-27.23q0-19.26,11.54-30.37t30.89-11.11q13.35,0,19.33,3.55v19.78A26.58,26.58,0,0,0,748.58,341q-10,0-15.9,5.87t-5.87,16.2q0,10,5.61,15.76t15.42,5.72a30.78,30.78,0,0,0,17-5.46Z"/><path class="cls-3" d="M828,346a20.21,20.21,0,0,0-9.8-2.29,14.15,14.15,0,0,0-11.89,5.58Q802,354.89,802,364.48v36.09H778.66V325H802v14h.3q5.54-15.34,19.92-15.35a14.76,14.76,0,0,1,5.75.89Z"/><path class="cls-3" d="M873.31,402.42q-18.9,0-29.71-10.59t-10.81-28.75q0-18.74,11.22-29.34t30.33-10.59q18.82,0,29.52,10.59t10.71,28q0,18.83-11,29.75T873.31,402.42ZM873.9,341q-8.26,0-12.84,5.69t-4.58,16.09q0,21.76,17.57,21.77,16.74,0,16.75-22.36Q890.8,341,873.9,341Z"/><path class="cls-3" d="M923.24,398.58V379.69a49.6,49.6,0,0,0,11.48,5.16,37.66,37.66,0,0,0,10.81,1.7c4.13,0,7.39-.56,9.78-1.7s3.57-2.85,3.57-5.16a4.77,4.77,0,0,0-1.62-3.69,14.94,14.94,0,0,0-4.17-2.59,48.69,48.69,0,0,0-5.57-2c-2-.59-4-1.25-5.83-2a55.21,55.21,0,0,1-7.93-3.65,23.11,23.11,0,0,1-5.76-4.54,17.92,17.92,0,0,1-3.54-6,23.92,23.92,0,0,1-1.22-8.05A20.68,20.68,0,0,1,926,336.29a22.48,22.48,0,0,1,7.38-7.49,33.73,33.73,0,0,1,10.55-4.28,55,55,0,0,1,12.36-1.37,68.34,68.34,0,0,1,10.19.78,75.49,75.49,0,0,1,10.18,2.25v18a37.08,37.08,0,0,0-9.49-3.88,39.92,39.92,0,0,0-9.92-1.29,21.9,21.9,0,0,0-4.31.41,14.14,14.14,0,0,0-3.59,1.18,6.52,6.52,0,0,0-2.43,2,4.58,4.58,0,0,0-.89,2.77,5.14,5.14,0,0,0,1.33,3.54,11.41,11.41,0,0,0,3.47,2.55,34.67,34.67,0,0,0,4.76,1.92c1.74.57,3.48,1.14,5.2,1.73a66.51,66.51,0,0,1,8.41,3.54,26.86,26.86,0,0,1,6.46,4.5,17.66,17.66,0,0,1,4.13,6.06A24.12,24.12,0,0,1,978.33,389a23.41,23.41,0,0,1-7.74,7.75,35.27,35.27,0,0,1-11.15,4.35,61.86,61.86,0,0,1-13.1,1.37A67.45,67.45,0,0,1,923.24,398.58Z"/><path class="cls-3" d="M1029.18,402.42q-18.88,0-29.71-10.59t-10.81-28.75q0-18.74,11.22-29.34t30.33-10.59q18.82,0,29.52,10.59t10.71,28q0,18.83-11,29.75T1029.18,402.42Zm.59-61.41q-8.26,0-12.84,5.69t-4.58,16.09q0,21.76,17.57,21.77,16.75,0,16.75-22.36Q1046.67,341,1029.77,341Z"/><path class="cls-3" d="M1133.35,306.55a23.57,23.57,0,0,0-8.64-1.77q-11.2,0-11.21,12.17V325h17.27v17.19H1113.5v58.38h-23.25V342.19h-12.69V325h12.69v-9.38q0-12.9,8.42-20.8t22.87-7.9a40,40,0,0,1,11.81,1.48Z"/><path class="cls-3" d="M1186.16,399.69q-5.16,2.73-15.57,2.73-24.66,0-24.66-25.61V342.19h-12.25V325h12.25V308.69l23.25-6.65v23h17v17.19h-17v30.56q0,11.81,9.38,11.81a15.77,15.77,0,0,0,7.6-2.14Z"/><path class="cls-3" d="M1239,397.1V376.81a40.9,40.9,0,0,0,24.79,7.75q8.94,0,13.91-3.84a12.75,12.75,0,0,0,5-10.7,12.15,12.15,0,0,0-6.16-10.92q-6.16-3.84-16.94-3.84h-9.51V337.4h8.78q20.66,0,20.66-13.73,0-12.92-15.87-12.92-10.62,0-20.66,6.87v-19q11.15-5.61,26-5.61,16.23,0,25.27,7.31a23.23,23.23,0,0,1,9,19q0,20.75-21,26v.37q11.22,1.41,17.71,8.15a23,23,0,0,1,6.5,16.57q0,14.83-10.85,23.47t-30,8.64Q1249.26,402.42,1239,397.1Z"/><path class="cls-3" d="M1388,295.85v19.48a34.89,34.89,0,0,0-17.56-4.58,23.1,23.1,0,0,0-18.93,9q-7.2,9-7.49,24h.44q7.6-11.21,22.22-11.21,13.27,0,21.06,9t7.8,23.84q0,15.94-10.34,26.49t-26.27,10.56q-17.87,0-27.9-12.92t-10-36.23q0-27.47,12.92-43.88T1368.94,293Q1381.18,293,1388,295.85Zm-29.22,53.95a12.68,12.68,0,0,0-10.22,4.5,17.2,17.2,0,0,0-3.8,11.51,22.41,22.41,0,0,0,3.87,13.25,12.55,12.55,0,0,0,20.34.59q3.76-4.9,3.76-12.8Q1372.7,349.8,1358.75,349.8Z"/><path class="cls-3" d="M1411.11,397.84V377.92a43.59,43.59,0,0,0,23.1,6.64q9.22,0,14.43-4.39t5.2-11.92q0-15.72-22.21-15.72a138.57,138.57,0,0,0-17.49,1.33V294.74h58.6v19h-38.68V335q4.65-.43,8.79-.44,16.31,0,25.53,8.56t9.23,23q0,16-11,26.16t-29.81,10.15Q1421.52,402.42,1411.11,397.84Z"/><path class="cls-3" d="M734.43,544.69q-9,4.77-22.5,4.77-17.38,0-27.84-11.19t-10.46-29.38q0-19.54,11.76-31.59t29.83-12.05q11.6,0,19.21,3.36v10.17a38.93,38.93,0,0,0-19.32-4.89q-14,0-22.76,9.38t-8.72,25.05q0,14.9,8.15,23.73t21.4,8.83q12.26,0,21.25-5.46Z"/><path class="cls-3" d="M814,548.09H770.8V466.62h41.36v8.63H780.35v27.11h29.42v8.58H780.35v28.52H814Z"/><path class="cls-3" d="M907.85,548.09H896.49l-13.64-22.83a49,49,0,0,0-3.63-5.43,21,21,0,0,0-3.61-3.67,12.84,12.84,0,0,0-4-2.07,16.19,16.19,0,0,0-4.8-.66H859v34.66h-9.54V466.62h24.31a34.68,34.68,0,0,1,9.86,1.33,22,22,0,0,1,7.84,4.07,18.84,18.84,0,0,1,5.2,6.79,22.51,22.51,0,0,1,1.88,9.51,22.79,22.79,0,0,1-1.29,7.82,20.18,20.18,0,0,1-3.63,6.33,22.1,22.1,0,0,1-5.68,4.75,29,29,0,0,1-7.47,3v.24a17,17,0,0,1,3.55,2.07,19.93,19.93,0,0,1,2.87,2.75,36.84,36.84,0,0,1,2.69,3.61c.89,1.34,1.89,2.91,3,4.69ZM859,475.25V504.8h13a19.6,19.6,0,0,0,6.62-1.08,15.36,15.36,0,0,0,5.26-3.1,14,14,0,0,0,3.46-4.94,16.61,16.61,0,0,0,1.25-6.56q0-6.53-4.23-10.2c-2.83-2.44-6.9-3.67-12.24-3.67Z"/><path class="cls-3" d="M981.78,475.25H958.26v72.84h-9.55V475.25H925.25v-8.63h56.53Z"/><path class="cls-3" d="M1023.89,548.09h-9.54V466.62h9.54Z"/><path class="cls-3" d="M1106.46,475.25h-31.82v28.19h29.43V512h-29.43v36.07h-9.55V466.62h41.37Z"/><path class="cls-3" d="M1151.24,548.09h-9.55V466.62h9.55Z"/><path class="cls-3" d="M1235.62,548.09h-43.18V466.62h41.37v8.63H1202v27.11h29.43v8.58H1202v28.52h33.63Z"/><path class="cls-3" d="M1271.09,548.09V466.62h22.49q43.08,0,43.07,39.71,0,18.87-12,30.32t-32,11.44Zm9.54-72.84v64.21h12.16q16,0,25-8.58t8.91-24.32q0-31.31-33.29-31.31Z"/><path class="cls-4" d="M399.72,965.28q-9.21,1.08-18.41,2.21-4.21-34.63-8.44-69.26c-.69-5.67-1.18-12.66-1.42-21l-.32,0a74.76,74.76,0,0,1-1.86,10.45q-12.06,42.07-23.58,84.2l-12.78,1.66Q311,936.17,288.54,898.89a73.7,73.7,0,0,1-4.48-10.23l-.32,0q1.53,6.31,3.54,20.84l9.57,69q-8.57,1.18-17.12,2.4-7.59-53.37-15.19-106.73,13.31-1.9,26.63-3.72Q311,904,330.49,937.62a104.91,104.91,0,0,1,6,11.65l.38,0q1.8-8.81,3.08-13.14,10.5-37.4,21.4-74.77,12.86-1.57,25.73-3.1Q393.4,911.74,399.72,965.28Z"/><path class="cls-4" d="M476.78,958.58c-16.13,1.66-29.55-2-40.41-10.89s-17.22-21.4-19-37.43q-2.93-25.86,10.43-42.93t39.45-19.78c16.06-1.64,29.52,2.09,40.25,11.14s16.81,21.66,18.29,37.79q2.38,26.28-11,42.93T476.78,958.58Zm-8.91-95.3c-10.45,1.08-18.58,5.64-24.3,13.67s-7.94,18-6.64,30,5.48,21.14,12.57,27.75,15.62,9.37,25.76,8.33q16.11-1.66,24.44-13c5.54-7.54,7.75-17.54,6.55-30q-1.86-19.24-12-28.83T467.87,863.28Z"/><path class="cls-4" d="M554.58,949.38q-4.7-53.71-9.37-107.41,16.53-1.44,33.06-2.78c42.28-3.39,64.61,12.77,67,47.7,1.14,16.6-3.75,30.32-14.52,41.22s-25.81,17.09-45.07,18.65Q570.11,948,554.58,949.38Zm10.82-93.89q3.21,38.63,6.45,77.24l14.91-1.22c13.15-1.06,23.06-5.28,29.87-12.73s9.79-17.45,8.85-30c-1.79-25.14-16.55-36.76-44.23-34.54Q573.32,854.82,565.4,855.49Z"/><path class="cls-4" d="M735.76,936.81q-31.53,1.62-63,3.64l-6.87-107.6q30.9-2,61.81-3.58.39,7.59.79,15.17-21.33,1.11-42.66,2.39.9,15.24,1.83,30.47,19.53-1.17,39.09-2.2.39,7.54.79,15.09-19.49,1-39,2.2,1,15.9,1.92,31.82,22.26-1.35,44.54-2.49Q735.37,929.27,735.76,936.81Z"/><path class="cls-4" d="M845.77,932.34q-10.89.33-21.79.7-9.47-14.12-19-28.21a58.33,58.33,0,0,0-5-6.62,28.19,28.19,0,0,0-4.92-4.43,16,16,0,0,0-5.36-2.42,22.62,22.62,0,0,0-6.44-.56l-7.58.32q.93,21.86,1.88,43.72-9.28.39-18.56.83Q756.43,881.82,753.9,828q18.87-.88,37.76-1.64a57.25,57.25,0,0,1,15,1.24,35.17,35.17,0,0,1,12,5,25.79,25.79,0,0,1,8.18,8.83,27.28,27.28,0,0,1,3.24,12.65,29.78,29.78,0,0,1-1.45,10.54,26.81,26.81,0,0,1-4.8,8.66,31,31,0,0,1-7.7,6.62,41.11,41.11,0,0,1-10.27,4.44c0,.1,0,.2,0,.3a28.29,28.29,0,0,1,5.51,3.44q2.36,1.9,4.49,3.94a48.41,48.41,0,0,1,4.24,4.63c1.4,1.73,2.95,3.74,4.67,6.05Q835.33,917.51,845.77,932.34Zm-72.28-90.72q.75,17.5,1.51,35l15.69-.65a24.69,24.69,0,0,0,8-1.6,18.45,18.45,0,0,0,6.24-3.92,17,17,0,0,0,4-6,19.06,19.06,0,0,0,1.23-7.79c-.2-5.16-2-9.13-5.62-11.91s-8.58-4-15.09-3.78Z"/><path class="cls-4" d="M957.41,930.24q-10.18.09-20.39.2-27.33-39.3-55.47-78.3A35.15,35.15,0,0,1,878,846h-.49c.49,2.29.8,7.22,1,14.79q.82,35.33,1.63,70.66l-18,.45q-1.44-53.89-2.86-107.78c7.4-.2,14.78-.38,22.18-.54q27.36,38.07,53.93,76.44a77.26,77.26,0,0,1,4.34,6.57H940a91.53,91.53,0,0,1-1-14.5q-.39-34.73-.79-69.46l18.33-.18Q957,876.34,957.41,930.24Z"/><path class="cls-4" d="M1035.81,930.23l.81-107.81q16.58.12,33.15.35c42.37.62,63.08,18.82,62.11,53.81q-.66,24.95-18.34,39.67c-11.77,9.84-27.26,14.57-46.61,14.31Q1051.38,930.35,1035.81,930.23Zm19.62-92.45-.87,77.51,14.94.19c13.17.19,23.45-3.08,30.91-9.85s11.35-16.45,11.65-29.08c.6-25.19-13-38.16-40.75-38.57Z"/><path class="cls-4" d="M1217.27,934.83q-31.53-1.37-63.08-2.33,1.65-53.88,3.32-107.77,30.93,1,61.86,2.28-.33,7.57-.65,15.17-21.36-.91-42.69-1.65-.51,15.26-1,30.51,19.56.68,39.1,1.5c-.2,5-.42,10.06-.63,15.09q-19.5-.81-39-1.49-.56,15.93-1.1,31.86,22.29.76,44.57,1.73Z"/><path class="cls-4" d="M1235.49,931.36q.42-9.2.86-18.4a29.93,29.93,0,0,0,6,4.35,49.87,49.87,0,0,0,7.44,3.4,60.91,60.91,0,0,0,7.92,2.32,43.71,43.71,0,0,0,7.34,1.06c7.85.41,13.76-.51,17.76-2.8a12.18,12.18,0,0,0,6.4-10.56,11.29,11.29,0,0,0-1.56-6.75,19.12,19.12,0,0,0-5.11-5.45,57,57,0,0,0-7.93-4.91q-4.59-2.4-9.84-5c-3.74-2.16-7.24-4.32-10.46-6.48a46.55,46.55,0,0,1-8.34-7.08,28.1,28.1,0,0,1-5.41-8.49,25.94,25.94,0,0,1-1.6-10.84,24,24,0,0,1,4.25-13,29.78,29.78,0,0,1,10-8.77,45.46,45.46,0,0,1,13.82-4.72,67.79,67.79,0,0,1,15.62-.93c12,.65,20.68,2.45,26,5.33q-.54,8.82-1.06,17.64c-6.21-4.79-14.45-7.49-24.65-8a47,47,0,0,0-8.46.3,25.65,25.65,0,0,0-7.62,2.08,15.73,15.73,0,0,0-5.61,4.15,10.53,10.53,0,0,0-2.41,6.43,11.86,11.86,0,0,0,1.28,6.31,16.15,16.15,0,0,0,4.4,5,49.34,49.34,0,0,0,7.23,4.63c2.86,1.53,6.2,3.2,10,5,3.84,2.17,7.48,4.43,10.86,6.79a51.59,51.59,0,0,1,8.84,7.67,31,31,0,0,1,5.8,9,25,25,0,0,1,1.67,11,26.07,26.07,0,0,1-4.3,13.6,27.74,27.74,0,0,1-9.84,8.6,43.11,43.11,0,0,1-13.73,4.34,80.55,80.55,0,0,1-16.14.71c-1.89-.1-4.18-.36-6.9-.78s-5.52-1-8.36-1.63a80.07,80.07,0,0,1-8.06-2.3A27,27,0,0,1,1235.49,931.36Z"/><path class="cls-4" d="M1415.89,947.3q-12.12-1-24.25-1.94Q1374,919.26,1356,893.28a29,29,0,0,1-2.42-3.94l-.32,0q-1.83,26.48-3.67,52.95-9.31-.64-18.63-1.25,3.52-53.81,7.06-107.59l19,1.29q-1.74,25.28-3.5,50.55l.32,0a24.87,24.87,0,0,1,2.94-3.49q20.68-22.09,41.71-44,11.39.87,22.77,1.81-24.58,23.94-48.74,48.11Q1394.5,917.4,1415.89,947.3Z"/><path class="cls-4" d="M1513.18,863.16q-16.38-1.63-32.77-3.17-4.32,46.11-8.63,92.23-9.29-.87-18.6-1.71l8.28-92.26q-16.35-1.46-32.71-2.83c.41-5,.84-10.09,1.26-15.13q42.38,3.53,84.68,7.76Q1513.94,855.61,1513.18,863.16Z"/><path class="cls-4" d="M1562.88,963.38c-16.13-1.8-28.49-8.18-37.18-19.21s-12.29-24.57-10.65-40.62c1.74-17.26,8.13-30.52,19.29-39.74s25.41-12.9,42.75-11q24.08,2.7,37,19.42c8.58,11.13,11.83,24.73,9.86,40.81q-3.23,26.19-19.85,39.62C1593,961.68,1579.32,965.21,1562.88,963.38Zm11.5-95q-15.66-1.75-26.66,8.2t-12.83,27.9q-1.87,17.87,6.39,29.78t23.42,13.61q16.11,1.78,26.64-7.48t12.77-27.94q2.31-19.2-5.64-30.72T1574.38,868.36Z"/><path class="cls-4" d="M1664.46,934.51q-2.54,19.38-5.08,38.76-9.23-1.2-18.47-2.38l13.62-106.95q17.31,2.2,34.61,4.52,19.65,2.64,29.25,12.74c6.41,6.72,8.84,15.27,7.36,25.64s-6.43,18.32-14.78,23.88-18.86,7.47-31.52,5.78Q1672,935.5,1664.46,934.51Zm7-53.53-5.13,39.07,12.13,1.6c8,1.07,14.38.14,19.06-2.81s7.45-7.62,8.36-14c1.74-12.56-5.15-19.93-20.7-22Z"/><path class="cls-4" d="M451.51,1156q-9.78,1.1-19.58,2.23-6.42-13.07-12.9-26.11-21.27,2.5-42.53,5.21-2.94,14.2-5.83,28.42-9.74,1.24-19.47,2.55,13-56.11,26.9-112.17,10.26-1.29,20.53-2.52Q425.5,1104.71,451.51,1156Zm-39-37.8q-10.07-20.46-20.27-40.87a49.17,49.17,0,0,1-2.27-6.54l-.31,0a44.18,44.18,0,0,1-.7,6.9q-4.89,22.27-9.65,44.54Q395.94,1120.23,412.55,1118.24Z"/><path class="cls-4" d="M472.45,1153.74l-11.55-107.2q15.87-1.71,31.77-3.32c40.64-4.09,62.52,11.67,65.56,46.55,1.48,16.58-2.91,30.38-13,41.46s-24.43,17.51-42.94,19.38Q487.37,1152.13,472.45,1153.74Zm8.2-94q4,38.55,8,77.1,7.15-.75,14.32-1.47,18.88-1.9,28.44-13.22t7.83-30.18c-2.33-25.1-16.79-36.46-43.39-33.79Q488.26,1058.93,480.65,1059.72Z"/><path class="cls-4" d="M704.88,1134.26l-17.77,1.1q-2.21-34.81-4.42-69.63c-.38-5.7-.44-12.7-.25-21l-.31,0a72.47,72.47,0,0,1-2.34,10.32q-13.8,41.27-27.08,82.6l-12.34.88q-19.07-38.71-38.63-77.27a75.71,75.71,0,0,1-3.77-10.49l-.31,0q1.13,6.39,2.31,21,2.79,34.7,5.57,69.39L589,1142.58q-4.5-53.71-9-107.44,12.87-1.08,25.75-2.09,17.29,34.67,34.19,69.42a106.75,106.75,0,0,1,5.13,12l.38,0q2.22-8.68,3.64-12.92,12-36.69,24.5-73.33,12.42-.8,24.85-1.55Q701.67,1080.46,704.88,1134.26Z"/><path class="cls-4" d="M756,1131.47q-9.22.46-18.45,1-2.87-53.84-5.72-107.66,9.43-.51,18.86-1Z"/><path class="cls-4" d="M880.43,1126.92q-9.79.22-19.6.5-26.93-38.88-54.67-77.47a35.11,35.11,0,0,1-3.54-6.11l-.46,0q.75,3.44,1.19,14.78l2.76,70.62q-8.65.33-17.33.71l-4.59-107.72q10.66-.45,21.33-.86,27,37.67,53.17,75.63c2.22,3.14,3.64,5.32,4.28,6.5h.3a98.79,98.79,0,0,1-1.16-14.49q-.95-34.72-1.9-69.44,8.82-.24,17.64-.46Z"/><path class="cls-4" d="M931.77,1126q-9.24.12-18.48.28-.91-53.9-1.85-107.8l18.88-.29Q931,1072.06,931.77,1126Z"/><path class="cls-4" d="M959.55,1121.38q-.07-9.21-.14-18.42a29.28,29.28,0,0,0,6,4,46.14,46.14,0,0,0,7.33,3,58.6,58.6,0,0,0,7.72,1.88,40.44,40.44,0,0,0,7.11.66c7.57,0,13.18-1.26,16.9-3.76a12.37,12.37,0,0,0,5.59-10.89,11.63,11.63,0,0,0-1.85-6.66,18.73,18.73,0,0,0-5.19-5.16,54.07,54.07,0,0,0-7.86-4.48c-3-1.42-6.27-2.91-9.72-4.46-3.74-1.94-7.16-3.91-10.38-5.9a45.45,45.45,0,0,1-8.39-6.61,27.72,27.72,0,0,1-5.63-8.19,26.66,26.66,0,0,1-2.11-10.74,24.31,24.31,0,0,1,3.38-13.22,29.13,29.13,0,0,1,9.18-9.31,42.9,42.9,0,0,1,13-5.46,62.85,62.85,0,0,1,15-1.78q17.35,0,25.26,3.91,0,8.84-.1,17.67c-6.21-4.45-14.27-6.69-24.09-6.69a43.58,43.58,0,0,0-8.12.75,24.27,24.27,0,0,0-7.21,2.49,15.5,15.5,0,0,0-5.17,4.46,10.86,10.86,0,0,0-2,6.54,12.29,12.29,0,0,0,1.56,6.24,16.41,16.41,0,0,0,4.49,4.8,44.35,44.35,0,0,0,7.19,4.23q4.25,2.06,9.82,4.47c3.82,2,7.4,4,10.78,6.19a49.6,49.6,0,0,1,8.89,7.17,31.44,31.44,0,0,1,6,8.72,25.57,25.57,0,0,1,2.17,10.88,25.56,25.56,0,0,1-12.42,22.94,40.15,40.15,0,0,1-12.95,5.08,74.5,74.5,0,0,1-15.45,1.58,64.22,64.22,0,0,1-6.67-.4q-4-.39-8.11-1.17a73.45,73.45,0,0,1-7.85-1.87A25.47,25.47,0,0,1,959.55,1121.38Z"/><path class="cls-4" d="M1126.56,1034.56q-15.82-.4-31.65-.72-.9,46.31-1.81,92.61-9-.17-17.94-.31l1.47-92.62q-15.8-.26-31.57-.4c0-5.06.1-10.13.14-15.19q40.88.39,81.75,1.45Z"/><path class="cls-4" d="M1229.67,1131q-10.47-.51-21-1-8-14.8-16.11-29.57a60.87,60.87,0,0,0-4.32-7,28.3,28.3,0,0,0-4.38-4.79,15.43,15.43,0,0,0-5-2.82,21,21,0,0,0-6.13-1.05l-7.3-.25q-.75,21.87-1.49,43.73-8.92-.3-17.86-.57l3.27-107.77q18.18.56,36.36,1.24a52.76,52.76,0,0,1,14.25,2.36,33.24,33.24,0,0,1,11.16,5.92,25.59,25.59,0,0,1,7.17,9.42,28.27,28.27,0,0,1,2.16,12.85,30.61,30.61,0,0,1-2.2,10.4,27,27,0,0,1-5.26,8.27,29.76,29.76,0,0,1-7.89,6,38.88,38.88,0,0,1-10.17,3.64c0,.1,0,.2,0,.3a28.5,28.5,0,0,1,5,3.85c1.41,1.39,2.74,2.82,4,4.27a53.4,53.4,0,0,1,3.71,4.94c1.2,1.83,2.55,4,4,6.38Q1220.77,1115.44,1229.67,1131Zm-62.47-95.93q-.59,17.51-1.19,35l15.1.53a22.65,22.65,0,0,0,7.8-1,17.91,17.91,0,0,0,6.28-3.44,16.38,16.38,0,0,0,4.28-5.7,20.24,20.24,0,0,0,1.77-7.67q.32-7.75-4.49-12.3t-14.18-4.91Z"/><path class="cls-4" d="M1337.12,1137.31q-9.82-.69-19.65-1.33-4-14-8-28-21.36-1.35-42.71-2.53-5.44,13.45-10.84,26.9l-19.59-1q22.86-52.86,46.6-105.5,10.3.59,20.62,1.22Q1320.79,1082.14,1337.12,1137.31Zm-31.48-44.2q-6.21-21.93-12.57-43.85a50.29,50.29,0,0,1-1-6.84l-.31,0a43.4,43.4,0,0,1-1.93,6.67q-8.8,21-17.48,42.07Q1289,1092.07,1305.64,1093.11Z"/><path class="cls-4" d="M1424.32,1051.18q-15.77-1.37-31.57-2.61-3.66,46.17-7.33,92.34-9-.72-17.91-1.39,3.49-46.18,7-92.37-15.77-1.19-31.51-2.28c.34-5,.7-10.1,1-15.15q40.8,2.82,81.57,6.33Q1425,1043.61,1424.32,1051.18Z"/><path class="cls-4" d="M1476.2,1150.78c-15.55-1.52-27.46-7.68-35.93-18.57s-12.06-24.35-10.63-40.42c1.53-17.28,7.52-30.65,18.18-40s24.36-13.32,41-11.67c15.45,1.52,27.42,7.81,35.77,18.77s11.62,24.52,9.86,40.61q-2.88,26.23-18.76,40T1476.2,1150.78Zm10.2-95.17q-15.12-1.48-25.58,8.65c-7,6.75-11,16.13-12.08,28.11s1.07,21.8,6.42,29.66,12.92,12.24,22.64,13.2c10.36,1,18.83-1.62,25.56-7.93s10.74-15.7,12-28.15q2-19.23-5.7-30.61T1486.4,1055.61Z"/><path class="cls-4" d="M1637.45,1167.51q-10.41-1.38-20.83-2.7-6.75-15.42-13.61-30.81a59.59,59.59,0,0,0-3.73-7.32,27.07,27.07,0,0,0-4-5.14,15.76,15.76,0,0,0-4.71-3.23,21,21,0,0,0-6-1.55l-7.26-.87q-2.57,21.73-5.14,43.46-8.9-1-17.78-2.07,6.12-53.57,12.26-107.12,18.09,2.07,36.18,4.28a52.93,52.93,0,0,1,14,3.55,33.5,33.5,0,0,1,10.65,6.83,25.51,25.51,0,0,1,6.38,10,28.45,28.45,0,0,1,1.07,13,30.66,30.66,0,0,1-3.06,10.18,27.35,27.35,0,0,1-5.94,7.81,30,30,0,0,1-8.38,5.34,38.81,38.81,0,0,1-10.46,2.78l0,.3a27.89,27.89,0,0,1,4.7,4.26c1.3,1.5,2.51,3,3.65,4.59a48.46,48.46,0,0,1,3.29,5.22c1.06,1.93,2.21,4.16,3.48,6.7Q1629.88,1151.23,1637.45,1167.51Zm-54.34-100.82-4.11,34.79,15,1.8a22.72,22.72,0,0,0,7.86-.33,18.05,18.05,0,0,0,6.56-2.9,17.22,17.22,0,0,0,4.76-5.32,19.37,19.37,0,0,0,2.4-7.5c.64-5.12-.49-9.34-3.46-12.63s-7.54-5.33-13.75-6.08Q1590.76,1067.59,1583.11,1066.69Z"/></svg>