<svg id="Layer_1" data-name="Layer 1" xmlns="http://www.w3.org/2000/svg" viewBox="0 0 2000 2000"><defs><style>.cls-1{fill:#002050;}.cls-2{fill:#505050;}.cls-3{fill:#0064b5;}.cls-4{fill:#fff;}.cls-5{fill:#282828;}</style></defs><path class="cls-1" d="M1000,10a149.2,149.2,0,0,0-43.11,6.36L398.14,185A142.38,142.38,0,0,0,296.3,322.13v949.14c0,242.84,82.05,327.38,239.29,467.71,153.69,137.16,428.51,238,440.14,242.2L1000,1990l24.27-8.82c11.63-4.23,286.45-105,440.14-242.2,157.24-140.33,239.29-224.87,239.29-467.71V322.13A142.38,142.38,0,0,0,1601.86,185L1043.11,16.36A149.2,149.2,0,0,0,1000,10Z"/><path class="cls-2" d="M1581.33,253.07,1022.56,84.4a78.54,78.54,0,0,0-45.12,0L418.67,253.07a72.13,72.13,0,0,0-51.28,69.05V999.57H1632.61V322.12A72.13,72.13,0,0,0,1581.33,253.07Z"/><path class="cls-3" d="M367.39,1271.28c0,214,64.55,279.94,215.51,414.67,145.27,129.64,417.1,228.42,417.1,228.42s271.83-98.78,417.1-228.42c151-134.73,215.51-200.7,215.51-414.67V999.57H367.39Z"/><path class="cls-2" d="M1000,656.84c-300.5,0-593.32,25.46-870.34,75.68A102.73,102.73,0,0,0,47.27,854.08c25.46,125.27,54.59,278.35,74.23,390a113.27,113.27,0,0,0,111.74,93.78,114.58,114.58,0,0,0,23.46-2.44C354,1315,621.31,1267.58,1000,1267.58s646,47.43,743.31,67.82a114.42,114.42,0,0,0,23.45,2.44,113.27,113.27,0,0,0,111.74-93.78c19.64-111.64,48.77-264.72,74.23-390a102.73,102.73,0,0,0-82.39-121.56c-277-50.22-569.84-75.68-870.34-75.68Z"/><path class="cls-4" d="M1000,1230.27c315.15,0,582.57,33.34,751,68.61a76.19,76.19,0,0,0,90.8-61.28c20.68-117.62,50.24-272,74.41-390.95a65.42,65.42,0,0,0-52.49-77.42c-166.56-30.2-465-75.08-863.68-75.08h0c-398.71,0-697.12,44.88-863.68,75.08a65.42,65.42,0,0,0-52.49,77.42C108,965.58,137.56,1120,158.24,1237.6a76.19,76.19,0,0,0,90.8,61.28c168.39-35.27,435.81-68.61,751-68.61Z"/><path class="cls-4" d="M791.16,402.33H767.62V339q0-10.26.88-22.66h-.59a111.78,111.78,0,0,1-3.32,14l-24.8,72H720.31l-25.24-71.22q-1-2.88-3.32-14.76h-.67q1,15.66,1,27.46v58.52H670.57V296.5h34.9l21.63,62.73a87.82,87.82,0,0,1,3.76,15.13h.45a152.3,152.3,0,0,1,4.2-15.28l21.63-62.58h34Z"/><path class="cls-4" d="M823.23,314.8a13.6,13.6,0,0,1-9.67-3.5,11.31,11.31,0,0,1-3.77-8.6,10.89,10.89,0,0,1,3.77-8.56,15.79,15.79,0,0,1,19.37,0,10.92,10.92,0,0,1,3.73,8.56,11.24,11.24,0,0,1-3.73,8.71A13.85,13.85,0,0,1,823.23,314.8Zm11.51,87.53H811.42V326.76h23.32Z"/><path class="cls-4" d="M910.13,399.6q-7.9,4.57-22.8,4.57-17.43,0-28.2-10.55t-10.77-27.23q0-19.26,11.55-30.37t30.89-11.11q13.35,0,19.33,3.55v19.78a26.52,26.52,0,0,0-16.31-5.47q-10,0-15.9,5.87t-5.87,16.2q0,10,5.61,15.76t15.42,5.72a30.78,30.78,0,0,0,17-5.46Z"/><path class="cls-4" d="M973.19,347.79a20.25,20.25,0,0,0-9.81-2.29q-7.61,0-11.88,5.58t-4.29,15.16v36.09H923.9V326.76h23.31v14h.3q5.54-15.34,19.93-15.35a14.76,14.76,0,0,1,5.75.89Z"/><path class="cls-4" d="M1018.54,404.17q-18.88,0-29.7-10.58T978,364.84q0-18.75,11.22-29.34t30.33-10.59q18.81,0,29.52,10.59t10.7,28q0,18.83-11,29.75T1018.54,404.17Zm.6-61.4q-8.26,0-12.85,5.69t-4.57,16.09q0,21.76,17.56,21.77,16.76,0,16.76-22.36Q1036,342.77,1019.14,342.77Z"/><path class="cls-4" d="M1068.47,400.34V381.45a49.6,49.6,0,0,0,11.48,5.16,38.06,38.06,0,0,0,10.81,1.7,23.24,23.24,0,0,0,9.78-1.7c2.38-1.13,3.58-2.85,3.58-5.16a4.75,4.75,0,0,0-1.63-3.69,14.94,14.94,0,0,0-4.17-2.59,48.69,48.69,0,0,0-5.57-2c-2-.59-4-1.25-5.83-2a55.72,55.72,0,0,1-7.93-3.65,23.11,23.11,0,0,1-5.76-4.54,17.92,17.92,0,0,1-3.54-6,23.67,23.67,0,0,1-1.22-8,20.75,20.75,0,0,1,2.77-10.92,22.58,22.58,0,0,1,7.38-7.49,33.5,33.5,0,0,1,10.55-4.28,55,55,0,0,1,12.36-1.37,68.14,68.14,0,0,1,10.19.78,74.32,74.32,0,0,1,10.18,2.25v18a36.45,36.45,0,0,0-9.48-3.88,40.06,40.06,0,0,0-9.93-1.29,22.15,22.15,0,0,0-4.32.41,14,14,0,0,0-3.57,1.18,6.48,6.48,0,0,0-2.44,2,4.58,4.58,0,0,0-.89,2.77,5.14,5.14,0,0,0,1.33,3.54,11.54,11.54,0,0,0,3.47,2.55,35.73,35.73,0,0,0,4.76,1.92c1.75.56,3.49,1.14,5.2,1.73a67.31,67.31,0,0,1,8.42,3.54,27.06,27.06,0,0,1,6.46,4.5A17.7,17.7,0,0,1,1125,371a24.18,24.18,0,0,1-1.48,19.74,23.22,23.22,0,0,1-7.75,7.74,34.89,34.89,0,0,1-11.14,4.36,61.8,61.8,0,0,1-13.1,1.36A67.49,67.49,0,0,1,1068.47,400.34Z"/><path class="cls-4" d="M1174.42,404.17q-18.89,0-29.71-10.58t-10.81-28.75q0-18.75,11.22-29.34t30.33-10.59q18.83,0,29.52,10.59t10.71,28q0,18.83-11,29.75T1174.42,404.17Zm.59-61.4q-8.27,0-12.84,5.69t-4.58,16.09q0,21.76,17.57,21.77,16.74,0,16.75-22.36Q1191.91,342.77,1175,342.77Z"/><path class="cls-4" d="M1278.59,308.31a23.57,23.57,0,0,0-8.64-1.77q-11.22,0-11.21,12.17v8.05H1276V344h-17.27v58.38h-23.25V344h-12.7V326.76h12.7v-9.38q0-12.9,8.41-20.81t22.88-7.89a40.37,40.37,0,0,1,11.81,1.47Z"/><path class="cls-4" d="M1331.4,401.44q-5.18,2.74-15.57,2.73-24.66,0-24.66-25.6V344h-12.25V326.76h12.25V310.45l23.25-6.65v23h17V344h-17v30.56q0,11.81,9.38,11.81a15.91,15.91,0,0,0,7.6-2.14Z"/><path class="cls-4" d="M728.5,544.69q-9,4.77-22.49,4.77-17.38,0-27.85-11.19t-10.45-29.38q0-19.54,11.76-31.59t29.83-12.05q11.6,0,19.2,3.36v10.17a38.9,38.9,0,0,0-19.31-4.89q-14,0-22.76,9.38t-8.72,25.05q0,14.9,8.15,23.73t21.39,8.83q12.27,0,21.25-5.46Z"/><path class="cls-4" d="M808.06,548.1H764.88V466.62h41.36v8.63H774.42v27.11h29.43v8.58H774.42v28.52h33.64Z"/><path class="cls-4" d="M901.93,548.1H890.57l-13.64-22.84a49,49,0,0,0-3.63-5.43,21.34,21.34,0,0,0-3.61-3.67,12.84,12.84,0,0,0-4-2.07,16.2,16.2,0,0,0-4.8-.65h-7.84V548.1h-9.55V466.62h24.32A34.73,34.73,0,0,1,877.7,468a21.87,21.87,0,0,1,7.83,4.07,18.75,18.75,0,0,1,5.21,6.79,22.51,22.51,0,0,1,1.87,9.51,22.79,22.79,0,0,1-1.28,7.82,20.18,20.18,0,0,1-3.63,6.33,22.27,22.27,0,0,1-5.68,4.75,28.66,28.66,0,0,1-7.47,3v.24a17,17,0,0,1,3.55,2.07,19.93,19.93,0,0,1,2.87,2.75,38.52,38.52,0,0,1,2.69,3.61c.89,1.35,1.89,2.91,3,4.69Zm-48.86-72.85V504.8H866a19.68,19.68,0,0,0,6.62-1.08,15.22,15.22,0,0,0,5.25-3.1,13.93,13.93,0,0,0,3.47-4.94,16.61,16.61,0,0,0,1.25-6.56q0-6.53-4.24-10.2t-12.23-3.67Z"/><path class="cls-4" d="M975.86,475.25H952.33V548.1h-9.54V475.25H919.33v-8.63h56.53Z"/><path class="cls-4" d="M1018,548.1h-9.54V466.62H1018Z"/><path class="cls-4" d="M1100.53,475.25h-31.82v28.19h29.43V512h-29.43V548.1h-9.54V466.62h41.36Z"/><path class="cls-4" d="M1145.31,548.1h-9.54V466.62h9.54Z"/><path class="cls-4" d="M1229.7,548.1h-43.18V466.62h41.36v8.63h-31.82v27.11h29.44v8.58h-29.44v28.52h33.64Z"/><path class="cls-4" d="M1265.16,548.1V466.62h22.5q43.08,0,43.07,39.71,0,18.87-12,30.32t-32,11.45Zm9.55-72.85v64.21h12.16q16,0,24.94-8.58t8.92-24.32q0-31.31-33.29-31.31Z"/><polygon class="cls-4" points="858.58 1519.13 887.24 1607.31 979.96 1607.31 904.94 1661.81 933.6 1750 858.58 1695.49 783.57 1750 812.22 1661.81 737.21 1607.31 829.93 1607.31 858.58 1519.13"/><polygon class="cls-4" points="1140.51 1519.13 1169.16 1607.31 1261.88 1607.31 1186.87 1661.81 1215.52 1750 1140.51 1695.49 1065.49 1750 1094.14 1661.81 1019.13 1607.31 1111.85 1607.31 1140.51 1519.13"/><path class="cls-4" d="M697.32,1454.91q-11.19.67-22.38,1.4-3.91-9.91-7.83-19.82-16.27,1.08-32.55,2.26-2.49,10.35-4.95,20.71-11.13.82-22.24,1.7,13-46.77,26.62-93.49,12.4-.89,24.81-1.72Q678.36,1410.35,697.32,1454.91Zm-36-33.85q-6-15-12-29.92a39.07,39.07,0,0,1-2.12-8.08l-.51,0a34.14,34.14,0,0,1-1.06,8q-4,15.78-7.84,31.56Q649.58,1421.85,661.33,1421.06Z"/><path class="cls-4" d="M716,1450.31q-.57-10.17-1.15-20.33a39.77,39.77,0,0,0,25.73,7.92,29.18,29.18,0,0,0,6.75-1.05,16.42,16.42,0,0,0,4.76-2.17,8.69,8.69,0,0,0,2.77-3.07,7.55,7.55,0,0,0,.78-3.7,7.72,7.72,0,0,0-1.77-4.69,16.4,16.4,0,0,0-4.38-3.67,43.79,43.79,0,0,0-6.49-3.12c-2.5-1-5.16-2-8-3-7.36-2.58-12.89-5.91-16.67-10a23.52,23.52,0,0,1-6.18-15.2,23.42,23.42,0,0,1,9.67-21.25,35.87,35.87,0,0,1,11.37-5.48,60.45,60.45,0,0,1,13.92-2.27,85.12,85.12,0,0,1,12.9.25,51.34,51.34,0,0,1,10.46,2.16q.43,9.49.85,19a31.35,31.35,0,0,0-5.19-2.57,40.14,40.14,0,0,0-5.75-1.73,42.61,42.61,0,0,0-5.84-.91,40.59,40.59,0,0,0-5.47-.11,28.07,28.07,0,0,0-6.43,1,16.92,16.92,0,0,0-4.82,2.12,10,10,0,0,0-2.95,3,6.83,6.83,0,0,0-.89,3.84,7.07,7.07,0,0,0,1.44,4,13.69,13.69,0,0,0,3.65,3.26,38.06,38.06,0,0,0,5.63,2.89c2.2.93,4.69,1.88,7.43,2.85a81.69,81.69,0,0,1,10.17,4.39,34.8,34.8,0,0,1,7.81,5.47,22.93,22.93,0,0,1,5.14,7.19A29.37,29.37,0,0,1,775,1438a23.57,23.57,0,0,1-7.5,8.75,34.31,34.31,0,0,1-11.34,5.15,67.82,67.82,0,0,1-13.83,2.09,78.5,78.5,0,0,1-14.34-.52A43.3,43.3,0,0,1,716,1450.31Z"/><path class="cls-4" d="M800.88,1446.24q-.4-10.17-.8-20.34a39.63,39.63,0,0,0,25.58,8.35,29.66,29.66,0,0,0,6.77-.93,16,16,0,0,0,4.8-2.09,8.44,8.44,0,0,0,2.81-3,7.32,7.32,0,0,0,.85-3.69,8,8,0,0,0-1.69-4.72,16.45,16.45,0,0,0-4.32-3.74,45.62,45.62,0,0,0-6.42-3.23c-2.47-1-5.15-2-8-3.1q-10.94-4.07-16.49-10.28a23.71,23.71,0,0,1-5.92-15.3,23.41,23.41,0,0,1,10-21.08,36.59,36.59,0,0,1,11.46-5.28,60.4,60.4,0,0,1,14-2,85.37,85.37,0,0,1,12.91.47,50.88,50.88,0,0,1,10.41,2.34c.18,6.34.34,12.67.52,19a31.07,31.07,0,0,0-5.14-2.65,38.53,38.53,0,0,0-5.72-1.84,41.46,41.46,0,0,0-5.82-1,39.52,39.52,0,0,0-5.47-.21,28.47,28.47,0,0,0-6.45.88,16.4,16.4,0,0,0-4.85,2,9.43,9.43,0,0,0-3,3,6.78,6.78,0,0,0-1,3.82,7.19,7.19,0,0,0,1.36,4.06,14,14,0,0,0,3.6,3.31,36.06,36.06,0,0,0,5.58,3c2.17,1,4.62,2,7.38,3a80.69,80.69,0,0,1,10.08,4.56,35.15,35.15,0,0,1,7.72,5.6,22.81,22.81,0,0,1,5,7.28A29.38,29.38,0,0,1,860,1435a23.55,23.55,0,0,1-7.64,8.61,34.55,34.55,0,0,1-11.42,5,68.68,68.68,0,0,1-13.86,1.85,78.69,78.69,0,0,1-14.33-.76A43.66,43.66,0,0,1,800.88,1446.24Z"/><path class="cls-4" d="M928.65,1448q-19.59.27-32.22-12.21c-8.41-8.33-12.81-19.31-13.12-33q-.49-21.63,12-35.25t33.6-13.92c13.26-.18,24.08,4,32.3,12.46s12.36,19.69,12.41,33.65c.08,14.33-4.09,25.91-12.39,34.74S942,1447.77,928.65,1448Zm-.14-76.66q-11,.15-17.31,8.38c-4.2,5.48-6.24,12.67-6.07,21.57s2.46,16.14,6.79,21.33a20.55,20.55,0,0,0,16.87,7.63q10.66-.14,16.85-7.86c4.13-5.16,6.18-12.25,6.09-21.34-.09-9.46-2.18-16.8-6.33-22S935.62,1371.19,928.51,1371.29Z"/><path class="cls-4" d="M1066.19,1443.17c-6.7,3.13-15.44,4.62-26.17,4.53-14-.13-25-4.28-33-12.53s-12.07-19.2-12.06-32.9c0-14.59,4.55-26.42,13.75-35.48s21.14-13.54,35.81-13.4c9.1.09,16.72,1.32,22.92,3.65q-.15,9.89-.28,19.78a40.87,40.87,0,0,0-21.13-5.73c-8.72-.08-15.74,2.56-21.12,7.92s-8.06,12.64-8.1,21.84q-.06,13.23,7.39,21.13c5,5.27,11.65,7.92,20.09,8a43.57,43.57,0,0,0,22.19-5.59Z"/><path class="cls-4" d="M1114.37,1447.33q-10.29-.24-20.57-.45.92-45.6,1.81-91.21,10.47.21,21,.46Q1115.45,1401.73,1114.37,1447.33Z"/><path class="cls-4" d="M1227.13,1451.33q-11.2-.52-22.41-1-2.81-10.27-5.66-20.55-16.29-.66-32.6-1.23l-7.12,20.07q-11.14-.37-22.28-.69,17.91-45.12,36.45-90.11,12.4.45,24.83.94Q1213,1405,1227.13,1451.33Zm-32.17-37.5q-4.32-15.52-8.7-31a37.72,37.72,0,0,1-1.24-8.26l-.52,0a34.13,34.13,0,0,1-1.91,7.89q-5.61,15.25-11.16,30.53Q1183.21,1413.36,1195,1413.83Z"/><path class="cls-4" d="M1309.86,1381.25q-13.2-.82-26.41-1.58l-4.26,74.37-20.62-1.14,4-74.39q-13.14-.71-26.28-1.33.4-8.36.8-16.71,36.93,1.77,73.86,4.08Z"/><path class="cls-4" d="M1383.85,1461.16q-27.31-2.15-54.66-4,3.09-45.51,6.15-91,26.79,1.8,53.54,3.9-.64,8.34-1.31,16.68-16.24-1.27-32.51-2.44-.72,10.13-1.45,20.24,15.06,1.1,30.13,2.26l-1.29,16.61q-15-1.15-30-2.24-.73,10.41-1.49,20.81,17.11,1.23,34.24,2.58Q1384.5,1452.86,1383.85,1461.16Z"/><path class="cls-5" d="M256.82,983.74q-8.43,1.17-16.84,2.37l-13.44-94.42q8.57-1.23,17.14-2.42Z"/><path class="cls-5" d="M283.89,980q-6.33-47.26-12.66-94.53,14.49-1.93,29-3.8c37-4.74,57.4,8.57,61,39.32q2.58,21.93-11,37.06c-9.05,10.09-22,16.19-39,18.37Q297.53,978.21,283.89,980Zm5.67-83.4q4.45,34,8.9,68l13.09-1.69q17.32-2.22,25.82-12.51t6.52-26.92c-2.65-22.14-16.17-31.78-40.43-28.67Z"/><path class="cls-5" d="M443.28,961.12q-27.75,2.88-55.48,6Q382.4,919.78,377,872.4q27.11-3.09,54.22-5.91.69,6.68,1.39,13.36-18.72,1.95-37.43,4,1.49,13.43,3,26.84,17.16-1.9,34.32-3.7.69,6.66,1.39,13.3-17.13,1.8-34.24,3.69,1.56,14,3.11,28,19.57-2.17,39.17-4.2Z"/><path class="cls-5" d="M547.59,951.34l-18,1.54Q503,920,475.67,887.44a30.83,30.83,0,0,1-3.54-5.2l-.42,0q.85,3,1.82,13,3,31.11,6,62.23-7.92.76-15.85,1.56-4.74-47.46-9.46-94.91,9.7-1,19.44-1.9,26.5,31.83,52.45,63.91a67.38,67.38,0,0,1,4.25,5.51l.28,0a80.78,80.78,0,0,1-1.81-12.73l-5.31-61.22q8-.7,16.09-1.38Q543.6,903.82,547.59,951.34Z"/><path class="cls-5" d="M633,862.74q-14.46,1-28.9,2,2.94,40.86,5.89,81.72c-5.47.4-11,.8-16.43,1.22q-3.09-40.86-6.15-81.71-14.41,1.08-28.82,2.24c-.36-4.46-.71-8.92-1.08-13.39q37.29-3,74.59-5.5Z"/><path class="cls-5" d="M672.69,942.32q-8.48.51-16.93,1l-6.06-95.18q8.63-.56,17.24-1.07Q669.81,894.72,672.69,942.32Z"/><path class="cls-5" d="M760,855.74q-14.46.63-28.93,1.34l4,81.84q-8.24.41-16.46.83-2.13-40.92-4.24-81.83-14.43.74-28.85,1.57-.39-6.71-.77-13.42,37.34-2.13,74.68-3.75Q759.7,849,760,855.74Z"/><path class="cls-5" d="M849.82,839.15q-15.74,30.79-31.11,61.68l1.14,34.63-16.46.56-1.23-34.29q-17-29.94-34.45-59.76,9.54-.4,19.08-.77,10.71,20.06,21.28,40.15c.26.48,1,2.3,2.29,5.45h.21a38.22,38.22,0,0,1,2.11-5.6q9.63-20.79,19.39-41.54Q841,839.38,849.82,839.15Z"/><path class="cls-5" d="M991.21,932.56q-9,0-18.07.05-4.51-12.12-9.08-24.23-19.6.12-39.21.38-4.14,12.19-8.26,24.39l-18,.3q17.73-48,36.1-95.92l18.87-.18Q972.72,884.89,991.21,932.56ZM959.6,895.5q-7.07-19-14.23-37.93a42.35,42.35,0,0,1-1.39-6h-.28a37.24,37.24,0,0,1-1.35,6q-6.72,19.08-13.35,38.2Q944.3,895.61,959.6,895.5Z"/><path class="cls-5" d="M1091.84,933.41q-9-.17-18-.29-23.19-35.39-47-70.58a30.57,30.57,0,0,1-3-5.53h-.43q.55,3.06.5,13.1-.17,31.26-.32,62.52-8,0-15.92-.06l.21-95.37q9.75,0,19.51.07,23.13,34.35,45.66,68.9a69.23,69.23,0,0,1,3.67,5.91h.28a79.29,79.29,0,0,1-.51-12.85q.45-30.72.91-61.44,8.07.12,16.14.26Q1092.69,885.74,1091.84,933.41Z"/><path class="cls-5" d="M1119.25,934q1.08-47.69,2.18-95.35,14.57.33,29.15.74c37.26,1.07,55.28,17.38,54.05,48.32-.55,14.71-6.13,26.33-16.62,34.89s-24.23,12.58-41.3,12.1Q1133,934.28,1119.25,934Zm18.52-81.51q-.9,34.27-1.78,68.55l13.18.35c11.62.34,20.71-2.44,27.39-8.34s10.2-14.41,10.61-25.58c.79-22.29-11-33.9-35.42-34.6Q1144.76,852.63,1137.77,852.46Z"/><path class="cls-5" d="M1346.91,944l-18-1.15q-3.7-12.39-7.45-24.77-19.58-1.19-39.17-2.23-5,11.89-9.86,23.79l-18-.89q20.85-46.74,42.38-93.32l18.85,1.08Q1331.61,895.24,1346.91,944ZM1317.82,905q-5.79-19.4-11.69-38.79a44.35,44.35,0,0,1-1-6h-.28a37.55,37.55,0,0,1-1.75,5.89q-8,18.6-15.85,37.22Q1302.53,904,1317.82,905Z"/><path class="cls-5" d="M1430.75,946.17q-11.64,4.65-28.27,3.38c-14.38-1.09-25.55-6.26-33.62-15.58s-11.68-21-10.73-35.2c1-15.22,6.75-27.18,17.32-35.88s23.43-12.47,38.56-11.31c9.75.74,17.75,2.7,24,5.82q-.64,7.82-1.27,15.64a45,45,0,0,0-22-7.47c-10.88-.84-20,1.8-27.19,7.91s-11.2,14.67-12,25.69q-1.1,15.72,7.61,25.71T1407.06,936q14,1.08,24.88-4.44Q1431.34,938.87,1430.75,946.17Z"/><path class="cls-5" d="M1517.42,953.91q-11.73,4.46-28.34,2.92-21.51-2-33.38-16.12c-7.9-9.44-11.32-21.22-10.15-35.37,1.28-15.2,7.19-27.08,17.9-35.6s23.65-12.1,38.76-10.68q14.61,1.35,23.85,6.21c-.5,5.2-1,10.41-1.52,15.62a44.87,44.87,0,0,0-21.86-7.83q-16.35-1.53-27.33,7.47T1463,906q-1.35,15.69,7.19,25.83t23.74,11.53c9.37.87,17.65-.47,24.95-4Q1518.13,946.63,1517.42,953.91Z"/><path class="cls-5" d="M1594.1,966q-27.74-3.11-55.48-5.92l9.63-94.89q27.12,2.76,54.22,5.78-.73,6.68-1.49,13.35-18.7-2.09-37.43-4-1.41,13.42-2.81,26.86,17.16,1.8,34.32,3.7l-1.47,13.29q-17.13-1.91-34.24-3.69l-2.94,28q19.59,2.05,39.17,4.25Q1594.84,959.32,1594.1,966Z"/><path class="cls-5" d="M1610.36,964q.95-8.1,1.87-16.19a27.12,27.12,0,0,0,5,4.19,44,44,0,0,0,6.36,3.46,55.77,55.77,0,0,0,6.84,2.51,41,41,0,0,0,6.41,1.37c6.9.82,12.19.36,15.83-1.43a10.82,10.82,0,0,0,6.25-8.95,10.19,10.19,0,0,0-1-6.05,17.55,17.55,0,0,0-4.19-5.1,50.58,50.58,0,0,0-6.7-4.81c-2.59-1.58-5.37-3.26-8.38-5-3.16-2.12-6.09-4.23-8.82-6.34a41.44,41.44,0,0,1-6.92-6.73,24.28,24.28,0,0,1-4.24-7.83,22.75,22.75,0,0,1-.76-9.66,20.89,20.89,0,0,1,4.51-11.23,26.33,26.33,0,0,1,9.34-7.15,39.92,39.92,0,0,1,12.44-3.35,59.93,59.93,0,0,1,13.78.09q15.78,1.94,22.56,6.22-1,7.76-2,15.51c-5.18-4.59-12.27-7.45-21.21-8.54a42.16,42.16,0,0,0-7.46-.23,22.4,22.4,0,0,0-6.83,1.39,14.1,14.1,0,0,0-5.18,3.33,9.21,9.21,0,0,0-2.49,5.53,10.29,10.29,0,0,0,.74,5.65,15,15,0,0,0,3.57,4.71,43.74,43.74,0,0,0,6.1,4.52c2.42,1.52,5.23,3.19,8.46,5,3.26,2.14,6.33,4.35,9.16,6.63a45.59,45.59,0,0,1,7.34,7.28,27.9,27.9,0,0,1,4.58,8.32,21.64,21.64,0,0,1,.83,9.79,22.92,22.92,0,0,1-4.57,11.76,24.08,24.08,0,0,1-9.18,7,38,38,0,0,1-12.37,3,70.85,70.85,0,0,1-14.27-.33q-2.47-.3-6.06-1.09c-2.37-.52-4.79-1.17-7.27-1.93a68.16,68.16,0,0,1-7-2.52A23.31,23.31,0,0,1,1610.36,964Z"/><path class="cls-5" d="M1690,973.75l2.1-16.16a26.41,26.41,0,0,0,5,4.27,44.2,44.2,0,0,0,6.3,3.55,56.75,56.75,0,0,0,6.81,2.62,40.88,40.88,0,0,0,6.39,1.46c6.9.94,12.16.54,15.85-1.19a10.74,10.74,0,0,0,6.39-8.85,10.11,10.11,0,0,0-.87-6.07,17.37,17.37,0,0,0-4.12-5.16,49.29,49.29,0,0,0-6.62-4.91q-3.87-2.43-8.3-5.12c-3.14-2.16-6-4.32-8.74-6.47a41.13,41.13,0,0,1-6.82-6.83,24.66,24.66,0,0,1-4.13-7.89,22.94,22.94,0,0,1-.62-9.67,21.11,21.11,0,0,1,4.68-11.16,26.08,26.08,0,0,1,9.46-7A39.46,39.46,0,0,1,1725.2,886a58.89,58.89,0,0,1,13.78.29c10.5,1.44,18,3.64,22.47,6.55l-2.19,15.48q-7.68-7-21.08-8.85a44.46,44.46,0,0,0-7.47-.35,23,23,0,0,0-6.85,1.29,14,14,0,0,0-5.23,3.26,9.19,9.19,0,0,0-2.58,5.49,10.53,10.53,0,0,0,.66,5.66,14.93,14.93,0,0,0,3.51,4.76,40.94,40.94,0,0,0,6,4.61c2.39,1.56,5.22,3.28,8.39,5.14q4.81,3.28,9.07,6.76a47,47,0,0,1,7.23,7.39,27.69,27.69,0,0,1,4.46,8.4,21.88,21.88,0,0,1,.69,9.8,23,23,0,0,1-4.76,11.68,24,24,0,0,1-9.29,6.89,37.83,37.83,0,0,1-12.42,2.84,71.3,71.3,0,0,1-14.27-.54c-1.64-.22-3.66-.61-6-1.18s-4.79-1.24-7.25-2a67.57,67.57,0,0,1-6.92-2.63A23.16,23.16,0,0,1,1690,973.75Z"/><path class="cls-5" d="M513.83,1150.54q-8.67.81-17.34,1.66-5.48-11.67-11-23.32-18.84,1.86-37.65,3.86-2.86,12.49-5.67,25c-5.77.61-11.52,1.25-17.27,1.88q12.57-49.37,25.79-98.69,9.06-.95,18.13-1.86Q491.67,1104.72,513.83,1150.54ZM480,1116.45q-8.54-18.26-17.18-36.5a43.41,43.41,0,0,1-1.9-5.82l-.27,0a39.42,39.42,0,0,1-.73,6.09q-4.71,19.61-9.3,39.21Q465.36,1117.92,480,1116.45Z"/><path class="cls-5" d="M532.37,1148.84l-8.55-95q14-1.26,28-2.45c35.85-3,54.91,11.2,57.18,42.08,1.1,14.69-3,26.84-12,36.51s-21.84,15.15-38.22,16.54Q545.57,1147.66,532.37,1148.84Zm8.67-83,5.94,68.32,12.67-1.09c11.18-.94,19.57-4.7,25.32-11.29s8.19-15.44,7.31-26.59c-1.71-22.23-14.31-32.47-37.8-30.5Z"/><path class="cls-5" d="M738.14,1134.44l-15.72.81-3.27-61.64q-.4-7.56,0-18.58h-.27a61.84,61.84,0,0,1-2.16,9.11Q704.13,1100.53,692,1137l-10.92.66q-16.45-34.45-33.27-68.79a68.12,68.12,0,0,1-3.21-9.32l-.26,0c.61,3.78,1.22,10,1.79,18.61q2.05,30.73,4.12,61.45l-14.65,1q-3.33-47.57-6.65-95.14,11.36-.8,22.71-1.54,14.85,30.86,29.42,61.79a88.7,88.7,0,0,1,4.4,10.66l.35,0q2-7.65,3.35-11.39,11-32.34,22.32-64.62,10.95-.58,21.91-1.14Q735.77,1086.81,738.14,1134.44Z"/><path class="cls-5" d="M783.39,1132.37l-16.33.7-4.23-95.28,16.64-.71Q781.42,1084.73,783.39,1132.37Z"/><path class="cls-5" d="M893.46,1129c-5.78.12-11.55.24-17.34.38q-23.64-34.52-47.92-68.8a31.52,31.52,0,0,1-3.08-5.42h-.41a100.37,100.37,0,0,1,1,13.07l2,62.49-15.33.52L809,1036q9.4-.35,18.81-.64,23.57,33.48,46.56,67.18c1.94,2.78,3.18,4.72,3.75,5.76h.27a86.33,86.33,0,0,1-1-12.82q-.7-30.72-1.4-61.44,7.77-.18,15.56-.33Z"/><path class="cls-5" d="M938.87,1128.31q-8.18.09-16.34.21-.67-47.68-1.36-95.37,8.33-.12,16.64-.21Q938.34,1080.63,938.87,1128.31Z"/><path class="cls-5" d="M963.45,1124.31q-.06-8.16-.11-16.3a25.24,25.24,0,0,0,5.28,3.56,40.28,40.28,0,0,0,6.47,2.66,51.52,51.52,0,0,0,6.83,1.68,36.29,36.29,0,0,0,6.28.58q10,0,14.95-3.33a10.91,10.91,0,0,0,4.93-9.63,10.6,10.6,0,0,0-1.62-5.89,17.06,17.06,0,0,0-4.6-4.56,47.65,47.65,0,0,0-7-4q-4-1.89-8.58-3.94-4.87-2.6-9.16-5.23a40,40,0,0,1-7.4-5.85,24.72,24.72,0,0,1-5-7.26,22.83,22.83,0,0,1-1.85-9.5,21.58,21.58,0,0,1,3-11.69,25.8,25.8,0,0,1,8.09-8.22,37.68,37.68,0,0,1,11.5-4.83,55.31,55.31,0,0,1,13.17-1.57c10.19,0,17.63,1.17,22.27,3.45q0,7.82-.07,15.63-8.23-5.89-21.25-5.91a38.24,38.24,0,0,0-7.16.67,21.25,21.25,0,0,0-6.36,2.2,13.64,13.64,0,0,0-4.56,3.93,9.57,9.57,0,0,0-1.74,5.79,10.71,10.71,0,0,0,1.37,5.52,14.34,14.34,0,0,0,4,4.25,40,40,0,0,0,6.35,3.75c2.5,1.21,5.39,2.54,8.66,4q5.06,2.6,9.52,5.47a44.29,44.29,0,0,1,7.85,6.34,27.92,27.92,0,0,1,5.34,7.71,22.32,22.32,0,0,1,1.93,9.62,22.63,22.63,0,0,1-11,20.31,35.56,35.56,0,0,1-11.46,4.5,66.72,66.72,0,0,1-13.66,1.39,59.16,59.16,0,0,1-5.91-.35q-3.51-.36-7.17-1a64.3,64.3,0,0,1-6.95-1.67A21.92,21.92,0,0,1,963.45,1124.31Z"/><path class="cls-5" d="M1110.85,1047.3q-13.95-.3-27.91-.53l-1.35,81.92-15.88-.23q.55-41,1.1-81.94-13.92-.18-27.84-.3.06-6.71.11-13.43,36,.3,72.07,1.08Z"/><path class="cls-5" d="M1202.4,1132.1q-9.27-.37-18.53-.71-7.17-13-14.42-26.05a49.35,49.35,0,0,0-3.86-6.15,24.38,24.38,0,0,0-3.89-4.22,13.77,13.77,0,0,0-4.39-2.47,19.15,19.15,0,0,0-5.42-.89l-6.45-.19-1.11,38.69-15.8-.43q1.21-47.67,2.44-95.34,16,.4,32,.92a46.46,46.46,0,0,1,12.57,2,29.07,29.07,0,0,1,9.87,5.17,22.43,22.43,0,0,1,6.38,8.28,25,25,0,0,1,2,11.36,27.2,27.2,0,0,1-1.87,9.21,23.58,23.58,0,0,1-4.59,7.35,25.91,25.91,0,0,1-6.93,5.38,34.55,34.55,0,0,1-9,3.28v.27a25.07,25.07,0,0,1,4.46,3.38c1.28,1.22,2.43,2.47,3.57,3.75a45.93,45.93,0,0,1,3.3,4.34q1.62,2.43,3.59,5.62Q1194.44,1118.37,1202.4,1132.1Zm-55.7-84.49q-.45,15.48-.89,31l13.33.4a19.89,19.89,0,0,0,6.87-.91,16.06,16.06,0,0,0,5.53-3.07,14.35,14.35,0,0,0,3.75-5.07,17.32,17.32,0,0,0,1.52-6.8q.24-6.86-4-10.86t-12.54-4.26Z"/><path class="cls-5" d="M1297.48,1136.77q-8.68-.51-17.39-1-3.61-12.36-7.3-24.7-18.87-1-37.75-1.88-4.71,11.94-9.39,23.88-8.65-.39-17.32-.74,19.85-46.92,40.35-93.67,9.09.43,18.19.9Q1282.5,1088.13,1297.48,1136.77Zm-28.23-38.8q-5.68-19.35-11.46-38.68a44.43,44.43,0,0,1-1-6h-.27a37.76,37.76,0,0,1-1.65,5.9q-7.61,18.67-15.1,37.36Q1254.52,1097.19,1269.25,1098Z"/><path class="cls-5" d="M1373.55,1059.61q-14-1-27.87-1.93-2.73,40.88-5.45,81.76-7.92-.53-15.85-1l5.19-81.78q-13.89-.89-27.8-1.69l.78-13.41q36,2.1,72,4.68C1374.19,1050.68,1373.86,1055.15,1373.55,1059.61Z"/><path class="cls-5" d="M1420.63,1147q-20.62-1.71-32-15.94t-9.88-35.62c1.13-15.31,6.27-27.21,15.53-35.66s21.29-12.1,36-10.89q20.48,1.69,31.8,16.08c7.54,9.58,10.59,21.5,9.3,35.76q-2.13,23.27-15.95,35.63T1420.63,1147Zm7.69-84.32q-13.32-1.1-22.43,8t-10.3,25q-1.21,15.84,6.06,26.15a26.1,26.1,0,0,0,20.19,11.37q13.71,1.13,22.46-7.39t10.22-25.07q1.51-17-5.48-27C1444.4,1067.17,1437.47,1063.46,1428.32,1062.71Z"/><path class="cls-5" d="M1563.46,1159.18q-9.24-1-18.47-2-6.26-13.52-12.57-27a53.82,53.82,0,0,0-3.42-6.4,23.8,23.8,0,0,0-3.6-4.48,13.6,13.6,0,0,0-4.22-2.77,18.84,18.84,0,0,0-5.34-1.27l-6.43-.64-3.81,38.52-15.75-1.54q4.55-47.46,9.1-94.94,16,1.55,31.94,3.17a46.9,46.9,0,0,1,12.42,2.88,29.42,29.42,0,0,1,9.5,5.85,22.48,22.48,0,0,1,5.79,8.71,25.27,25.27,0,0,1,1.19,11.47,27.89,27.89,0,0,1-2.51,9.06,24.27,24.27,0,0,1-5.1,7,26.35,26.35,0,0,1-7.3,4.88,34.11,34.11,0,0,1-9.19,2.65l0,.26a24.85,24.85,0,0,1,4.22,3.69c1.16,1.3,2.27,2.63,3.3,4a44.5,44.5,0,0,1,3,4.56c1,1.69,2,3.64,3.19,5.86Q1556.47,1144.93,1563.46,1159.18ZM1513.73,1071q-1.53,15.42-3,30.84l13.28,1.33a19.8,19.8,0,0,0,6.93-.42,16.13,16.13,0,0,0,5.74-2.68,14.71,14.71,0,0,0,4.09-4.8,17.31,17.31,0,0,0,2-6.67q.73-6.83-3.27-11.12c-2.65-2.85-6.74-4.56-12.22-5.12Z"/></svg>