<svg id="Layer_1" data-name="Layer 1" xmlns="http://www.w3.org/2000/svg" viewBox="0 0 2000 2000"><defs><style>.cls-1{fill:#3a96dd;}.cls-2{fill:#505050;}.cls-3{fill:#0064b5;}.cls-4{fill:#fff;}.cls-5{fill:#282828;}</style></defs><path class="cls-1" d="M1000,10a149.2,149.2,0,0,0-43.11,6.36L398.14,185A142.38,142.38,0,0,0,296.3,322.13v949.14c0,242.84,82.05,327.38,239.29,467.71,153.69,137.16,428.51,238,440.14,242.2L1000,1990l24.27-8.82c11.63-4.23,286.45-105,440.14-242.2,157.24-140.33,239.29-224.87,239.29-467.71V322.13A142.38,142.38,0,0,0,1601.86,185L1043.11,16.36A149.2,149.2,0,0,0,1000,10Z"/><path class="cls-2" d="M1581.33,253.07,1022.56,84.4a78.54,78.54,0,0,0-45.12,0L418.67,253.07a72.13,72.13,0,0,0-51.28,69.05V999.57H1632.61V322.12A72.13,72.13,0,0,0,1581.33,253.07Z"/><path class="cls-3" d="M367.39,1271.28c0,214,64.55,279.94,215.51,414.67,145.27,129.64,417.1,228.42,417.1,228.42s271.83-98.78,417.1-228.42c151-134.73,215.51-200.7,215.51-414.67V999.57H367.39Z"/><path class="cls-2" d="M1000,656.84c-300.5,0-593.32,25.46-870.34,75.68A102.73,102.73,0,0,0,47.27,854.08c25.46,125.27,54.59,278.35,74.23,390a113.27,113.27,0,0,0,111.74,93.78,114.58,114.58,0,0,0,23.46-2.44C354,1315,621.31,1267.58,1000,1267.58s646,47.43,743.31,67.82a114.42,114.42,0,0,0,23.45,2.44,113.27,113.27,0,0,0,111.74-93.78c19.64-111.64,48.77-264.72,74.23-390a102.73,102.73,0,0,0-82.39-121.56c-277-50.22-569.84-75.68-870.34-75.68Z"/><path class="cls-4" d="M1000,1230.27c315.15,0,582.57,33.34,751,68.61a76.19,76.19,0,0,0,90.8-61.28c20.68-117.62,50.24-272,74.41-390.95a65.42,65.42,0,0,0-52.49-77.42c-166.56-30.2-465-75.08-863.68-75.08h0c-398.71,0-697.12,44.88-863.68,75.08a65.42,65.42,0,0,0-52.49,77.42C108,965.58,137.56,1120,158.24,1237.6a76.19,76.19,0,0,0,90.8,61.28c168.39-35.27,435.81-68.61,751-68.61Z"/><polygon class="cls-4" points="858.58 1519.13 887.24 1607.31 979.96 1607.31 904.94 1661.81 933.6 1750 858.58 1695.49 783.57 1750 812.22 1661.81 737.21 1607.31 829.93 1607.31 858.58 1519.13"/><polygon class="cls-4" points="1140.51 1519.13 1169.16 1607.31 1261.88 1607.31 1186.87 1661.81 1215.52 1750 1140.51 1695.49 1065.49 1750 1094.14 1661.81 1019.13 1607.31 1111.85 1607.31 1140.51 1519.13"/><path class="cls-4" d="M697.33,1454.91q-11.21.67-22.39,1.4-3.9-9.91-7.83-19.82-16.27,1.08-32.55,2.26-2.49,10.35-4.95,20.71-11.13.82-22.24,1.7,13-46.77,26.62-93.49,12.4-.89,24.81-1.72Q678.36,1410.35,697.33,1454.91Zm-36-33.85q-6-15-12-29.92a37.88,37.88,0,0,1-2.11-8.08l-.52,0a34.24,34.24,0,0,1-1.07,8.05q-3.95,15.76-7.83,31.55Q649.58,1421.85,661.33,1421.06Z"/><path class="cls-4" d="M716,1450.31q-.59-10.17-1.15-20.33a39.72,39.72,0,0,0,25.72,7.92,29.53,29.53,0,0,0,6.76-1.05,15.93,15.93,0,0,0,4.76-2.17,8.47,8.47,0,0,0,2.76-3.07,7.23,7.23,0,0,0,.79-3.7,7.84,7.84,0,0,0-1.77-4.69,16.4,16.4,0,0,0-4.38-3.67,43.79,43.79,0,0,0-6.49-3.12q-3.74-1.46-8.06-3-11-3.87-16.66-10a23.57,23.57,0,0,1-6.18-15.2,23.36,23.36,0,0,1,9.67-21.25,35.77,35.77,0,0,1,11.37-5.48,59.92,59.92,0,0,1,13.92-2.26,83.88,83.88,0,0,1,12.9.24,50.81,50.81,0,0,1,10.46,2.16q.43,9.49.85,19a31.35,31.35,0,0,0-5.19-2.57,40.93,40.93,0,0,0-5.75-1.73,43.09,43.09,0,0,0-5.84-.91,42.3,42.3,0,0,0-5.47-.11,27.9,27.9,0,0,0-6.43,1,16.34,16.34,0,0,0-4.81,2.12,9.37,9.37,0,0,0-3,3,6.75,6.75,0,0,0-.9,3.84,7.07,7.07,0,0,0,1.44,4,13.84,13.84,0,0,0,3.65,3.26,38.5,38.5,0,0,0,5.63,2.9q3.3,1.39,7.43,2.84a79.62,79.62,0,0,1,10.16,4.39,35,35,0,0,1,7.82,5.47,22.46,22.46,0,0,1,5.14,7.19A29.49,29.49,0,0,1,775,1438a23.76,23.76,0,0,1-7.5,8.75,34.6,34.6,0,0,1-11.34,5.15,68,68,0,0,1-13.83,2.09,78.5,78.5,0,0,1-14.34-.52A43.39,43.39,0,0,1,716,1450.31Z"/><path class="cls-4" d="M800.88,1446.24q-.4-10.17-.8-20.34a39.67,39.67,0,0,0,25.57,8.35,29.43,29.43,0,0,0,6.78-.93,15.72,15.72,0,0,0,4.79-2.09,8.47,8.47,0,0,0,2.82-3,7.32,7.32,0,0,0,.85-3.69,7.9,7.9,0,0,0-1.69-4.72,16.78,16.78,0,0,0-4.32-3.74,45.06,45.06,0,0,0-6.42-3.23q-3.72-1.53-8-3.1-11-4.07-16.49-10.28a23.55,23.55,0,0,1-5.91-15.3,23.32,23.32,0,0,1,10-21.07,35.57,35.57,0,0,1,11.45-5.28,59.87,59.87,0,0,1,14-2,85.29,85.29,0,0,1,12.9.47,50.83,50.83,0,0,1,10.42,2.34q.26,9.51.52,19a32.28,32.28,0,0,0-5.14-2.65,39.3,39.3,0,0,0-5.72-1.84,43,43,0,0,0-5.82-1,39.63,39.63,0,0,0-5.47-.21,29,29,0,0,0-6.45.88,16.82,16.82,0,0,0-4.85,2,9.53,9.53,0,0,0-3,3,6.85,6.85,0,0,0-1,3.82,7.2,7.2,0,0,0,1.37,4.06,14,14,0,0,0,3.6,3.31,36.13,36.13,0,0,0,5.58,3c2.18,1,4.65,2,7.38,3a79.39,79.39,0,0,1,10.08,4.56,35.15,35.15,0,0,1,7.72,5.6,22.6,22.6,0,0,1,5,7.28A29.38,29.38,0,0,1,860,1435a23.55,23.55,0,0,1-7.64,8.61,34.35,34.35,0,0,1-11.42,5,68.68,68.68,0,0,1-13.86,1.85,78.74,78.74,0,0,1-14.33-.76A43.66,43.66,0,0,1,800.88,1446.24Z"/><path class="cls-4" d="M928.65,1448q-19.6.27-32.22-12.21t-13.12-33q-.49-21.62,12-35.25t33.6-13.92q19.92-.27,32.3,12.46t12.41,33.65q.09,21.51-12.39,34.74T928.65,1448Zm-.14-76.66c-7.32.1-13.11,2.9-17.31,8.38s-6.23,12.67-6.07,21.57,2.44,16.14,6.79,21.33a20.59,20.59,0,0,0,16.87,7.63q10.68-.14,16.85-7.86t6.09-21.34q-.12-14.19-6.33-22T928.51,1371.29Z"/><path class="cls-4" d="M1066.19,1443.17c-6.72,3.13-15.45,4.62-26.17,4.53-14-.13-25-4.28-33-12.53s-12.06-19.2-12.06-32.9c0-14.59,4.55-26.42,13.75-35.48s21.15-13.54,35.81-13.4q13.63.13,22.92,3.65-.14,9.89-.28,19.78a40.8,40.8,0,0,0-21.13-5.73q-13.07-.12-21.12,7.92c-5.38,5.35-8.06,12.65-8.1,21.84q0,13.23,7.39,21.13c5,5.27,11.65,7.93,20.09,8a43.47,43.47,0,0,0,22.19-5.59Z"/><path class="cls-4" d="M1114.37,1447.33q-10.29-.24-20.57-.45.9-45.6,1.81-91.21,10.47.21,21,.46Z"/><path class="cls-4" d="M1227.13,1451.33q-11.2-.52-22.41-1-2.81-10.27-5.66-20.55-16.29-.66-32.59-1.23-3.59,10-7.13,20.07-11.14-.37-22.28-.69,17.91-45.12,36.45-90.11,12.42.45,24.83.94Q1213,1405,1227.13,1451.33Zm-32.17-37.5q-4.32-15.52-8.7-31a39.07,39.07,0,0,1-1.24-8.26l-.52,0a34.52,34.52,0,0,1-1.91,7.89q-5.61,15.25-11.16,30.53Q1183.21,1413.36,1195,1413.83Z"/><path class="cls-4" d="M1309.86,1381.25q-13.2-.82-26.41-1.58l-4.26,74.37q-10.31-.58-20.62-1.14,2-37.2,4-74.39-13.14-.71-26.28-1.33.4-8.36.8-16.71,36.95,1.77,73.86,4.09Z"/><path class="cls-4" d="M1383.85,1461.16q-27.31-2.15-54.66-4l6.15-91q26.78,1.8,53.54,3.9-.66,8.34-1.31,16.68-16.24-1.27-32.51-2.44-.72,10.13-1.45,20.24,15.06,1.08,30.13,2.26l-1.29,16.61q-15-1.15-30-2.24-.73,10.41-1.49,20.81,17.13,1.23,34.24,2.58Q1384.52,1452.86,1383.85,1461.16Z"/><path class="cls-4" d="M734.43,544.69q-9,4.77-22.5,4.77-17.38,0-27.84-11.19t-10.46-29.38q0-19.54,11.76-31.59t29.83-12.05q11.6,0,19.21,3.36v10.17a38.93,38.93,0,0,0-19.32-4.89q-14,0-22.76,9.38t-8.72,25.05q0,14.9,8.15,23.73t21.4,8.83q12.26,0,21.25-5.46Z"/><path class="cls-4" d="M814,548.1H770.8V466.62h41.36v8.63H780.35v27.11h29.42v8.58H780.35v28.52H814Z"/><path class="cls-4" d="M907.85,548.1H896.49l-13.64-22.84a49,49,0,0,0-3.63-5.43,21,21,0,0,0-3.61-3.67,12.84,12.84,0,0,0-4-2.07,16.2,16.2,0,0,0-4.8-.65H859V548.1h-9.54V466.62h24.31a34.68,34.68,0,0,1,9.86,1.33,22,22,0,0,1,7.84,4.07,18.84,18.84,0,0,1,5.2,6.79,22.51,22.51,0,0,1,1.88,9.51,22.79,22.79,0,0,1-1.29,7.82,20.18,20.18,0,0,1-3.63,6.33,22.1,22.1,0,0,1-5.68,4.75,28.66,28.66,0,0,1-7.47,3v.24a17,17,0,0,1,3.55,2.07,19.93,19.93,0,0,1,2.87,2.75,36.84,36.84,0,0,1,2.69,3.61q1.33,2,3,4.69ZM859,475.25V504.8h13a19.6,19.6,0,0,0,6.62-1.08,15.36,15.36,0,0,0,5.26-3.1,14,14,0,0,0,3.46-4.94,16.61,16.61,0,0,0,1.25-6.56q0-6.53-4.23-10.2c-2.83-2.44-6.9-3.67-12.24-3.67Z"/><path class="cls-4" d="M981.78,475.25H958.26V548.1h-9.55V475.25H925.25v-8.63h56.53Z"/><path class="cls-4" d="M1023.89,548.1h-9.54V466.62h9.54Z"/><path class="cls-4" d="M1106.46,475.25h-31.82v28.19h29.43V512h-29.43V548.1h-9.55V466.62h41.37Z"/><path class="cls-4" d="M1151.24,548.1h-9.55V466.62h9.55Z"/><path class="cls-4" d="M1235.62,548.1h-43.18V466.62h41.37v8.63H1202v27.11h29.43v8.58H1202v28.52h33.63Z"/><path class="cls-4" d="M1271.09,548.1V466.62h22.49q43.08,0,43.07,39.71,0,18.87-12,30.32t-32,11.45Zm9.54-72.85v64.21h12.16q16,0,25-8.58t8.91-24.32q0-31.31-33.29-31.31Z"/><path class="cls-4" d="M788.23,400.57H764.69V337.25q0-10.26.88-22.65H765a112.39,112.39,0,0,1-3.31,14l-24.8,72H717.38l-25.24-71.22q-1-2.88-3.32-14.75h-.66q.95,15.64,1,27.45v58.52H667.64V294.74h34.91l21.62,62.73a89,89,0,0,1,3.77,15.13h.44a152.86,152.86,0,0,1,4.21-15.28l21.62-62.58h34Z"/><path class="cls-4" d="M820.3,313.05a13.61,13.61,0,0,1-9.67-3.51,11.29,11.29,0,0,1-3.76-8.6,10.9,10.9,0,0,1,3.76-8.56,15.79,15.79,0,0,1,19.37,0,10.94,10.94,0,0,1,3.73,8.56,11.22,11.22,0,0,1-3.73,8.71A13.84,13.84,0,0,1,820.3,313.05Zm11.51,87.52H808.49V325h23.32Z"/><path class="cls-4" d="M907.2,397.84q-7.89,4.57-22.8,4.58-17.42,0-28.19-10.56t-10.78-27.23q0-19.26,11.55-30.37t30.89-11.11q13.35,0,19.33,3.55v19.78A26.6,26.6,0,0,0,890.89,341q-10,0-15.9,5.87t-5.87,16.2q0,10,5.61,15.76t15.43,5.72a30.78,30.78,0,0,0,17-5.46Z"/><path class="cls-4" d="M970.27,346a20.32,20.32,0,0,0-9.82-2.29,14.16,14.16,0,0,0-11.88,5.58q-4.27,5.56-4.28,15.16v36.09H921V325h23.33v14h.29q5.53-15.34,19.93-15.35a14.85,14.85,0,0,1,5.76.89Z"/><path class="cls-4" d="M1015.62,402.42q-18.9,0-29.71-10.59T975.1,363.08q0-18.74,11.22-29.34t30.33-10.59q18.81,0,29.52,10.59t10.7,28q0,18.83-11,29.75T1015.62,402.42Zm.59-61.41q-8.26,0-12.84,5.69t-4.58,16.09q0,21.76,17.57,21.77,16.74,0,16.75-22.36Q1033.11,341,1016.21,341Z"/><path class="cls-4" d="M1065.54,398.58V379.69a49.78,49.78,0,0,0,11.48,5.16,37.76,37.76,0,0,0,10.81,1.7c4.14,0,7.39-.56,9.78-1.7s3.58-2.85,3.58-5.16a4.77,4.77,0,0,0-1.62-3.69,15.08,15.08,0,0,0-4.17-2.59,49.38,49.38,0,0,0-5.57-2c-2-.59-4-1.25-5.84-2a56.24,56.24,0,0,1-7.93-3.65,23.11,23.11,0,0,1-5.76-4.54,17.82,17.82,0,0,1-3.54-6,23.92,23.92,0,0,1-1.22-8.05,20.77,20.77,0,0,1,2.77-10.92,22.67,22.67,0,0,1,7.38-7.49,33.79,33.79,0,0,1,10.56-4.28,55,55,0,0,1,12.36-1.37,69.36,69.36,0,0,1,10.18.78,76,76,0,0,1,10.19,2.25v18a37.23,37.23,0,0,0-9.49-3.88,40,40,0,0,0-9.92-1.29,22,22,0,0,0-4.32.41,13.93,13.93,0,0,0-3.58,1.18,6.64,6.64,0,0,0-2.44,2,4.57,4.57,0,0,0-.88,2.77,5.08,5.08,0,0,0,1.33,3.54,11.29,11.29,0,0,0,3.47,2.55,34.67,34.67,0,0,0,4.76,1.92c1.74.57,3.48,1.14,5.2,1.73a70.26,70.26,0,0,1,8.41,3.54,27.35,27.35,0,0,1,6.46,4.5,17.66,17.66,0,0,1,4.13,6.06,24.23,24.23,0,0,1-1.47,19.74,23.44,23.44,0,0,1-7.75,7.75,35.17,35.17,0,0,1-11.15,4.35,61.08,61.08,0,0,1-13.1,1.37A67.54,67.54,0,0,1,1065.54,398.58Z"/><path class="cls-4" d="M1171.49,402.42q-18.88,0-29.7-10.59T1131,363.08q0-18.74,11.21-29.34t30.34-10.59q18.81,0,29.51,10.59t10.71,28q0,18.83-11,29.75T1171.49,402.42Zm.6-61.41q-8.28,0-12.85,5.69t-4.57,16.09q0,21.76,17.56,21.77,16.76,0,16.75-22.36Q1189,341,1172.09,341Z"/><path class="cls-4" d="M1275.66,306.55a23.52,23.52,0,0,0-8.63-1.77q-11.22,0-11.22,12.17V325h17.27v17.19h-17.27v58.38h-23.25V342.19h-12.69V325h12.69v-9.38q0-12.9,8.42-20.8t22.88-7.9a39.93,39.93,0,0,1,11.8,1.48Z"/><path class="cls-4" d="M1328.47,399.69q-5.16,2.73-15.57,2.73-24.66,0-24.65-25.61V342.19H1276V325h12.25V308.69l23.25-6.64V325h17v17.19h-17v30.56q0,11.81,9.37,11.81a15.77,15.77,0,0,0,7.6-2.14Z"/><path class="cls-5" d="M298.53,939.42l5.37,38.72q-9.21,1.27-18.4,2.59Q277.91,927.36,270.31,874q17.24-2.46,34.49-4.79,19.59-2.66,31.48,4.55t13.85,22.79q2,15.57-7.89,26.93t-28.77,13.9ZM291.12,886q2.72,19.51,5.41,39l12.08-1.66q12-1.63,17.58-7.74t4.33-15.74c-1.64-12.57-10.22-17.86-25.72-15.76Q298,885,291.12,886Z"/><path class="cls-5" d="M427.8,964.36c-16.07,1.83-29.51-1.65-40.42-10.48S370,932.66,368,916.64c-2.13-17.2,1.14-31.56,9.93-43s21.86-18.21,39.14-20.17q24-2.72,40.26,10.73c10.81,8.94,17,21.49,18.64,37.6,1.79,17.5-1.75,31.84-10.5,43S444.19,962.5,427.8,964.36Zm-9.91-95.2c-10.41,1.17-18.45,5.83-24.09,13.91s-7.73,18.11-6.29,30.06,5.71,21.09,12.83,27.62S416,950,426.12,948.81q16.06-1.81,24.23-13.2c5.44-7.6,7.54-17.62,6.21-30.08q-2-19.21-12.29-28.7T417.89,869.16Z"/><path class="cls-5" d="M636.47,835.22Q624.56,890.09,613.31,945q-10.5.79-21,1.64-13.65-36.74-27.63-73.39a49,49,0,0,1-2.54-10.35l-.32,0a48.44,48.44,0,0,1-1,10.5q-7.64,38.57-15,77.15-10.71,1-21.43,2-20.66-52.2-42-104.25,10.36-1,20.75-2,14.12,38.31,27.92,76.67a55.82,55.82,0,0,1,2.51,10.19l.4,0a55,55,0,0,1,1.25-10.54q7.94-40.35,16.25-80.69,9.75-.86,19.5-1.65,14.1,38.74,27.87,77.56a58.31,58.31,0,0,1,2.4,9.47l.32,0a56.77,56.77,0,0,1,1-10q6.95-40.29,14.2-80.55Q626.67,835.9,636.47,835.22Z"/><path class="cls-5" d="M725.53,937.75q-31.42,1.68-62.84,3.75-3.54-53.79-7.09-107.58,30.79-2,61.63-3.69.4,7.57.82,15.16-21.27,1.15-42.54,2.47.94,15.24,1.9,30.47,19.47-1.22,39-2.28.4,7.56.82,15.09-19.43,1.07-38.84,2.27l2,31.82q22.18-1.38,44.39-2.57Z"/><path class="cls-5" d="M835.2,933.1q-10.86.35-21.72.73-9.47-14.1-19-28.17a58.6,58.6,0,0,0-5-6.62,28.48,28.48,0,0,0-4.91-4.42,16,16,0,0,0-5.35-2.41,22.49,22.49,0,0,0-6.42-.55l-7.56.33q1,21.85,2,43.71-9.25.42-18.51.87l-5.25-107.68q18.83-.93,37.66-1.7A56.7,56.7,0,0,1,796,828.4a35.32,35.32,0,0,1,12,5,25.64,25.64,0,0,1,8.17,8.82,27.18,27.18,0,0,1,3.26,12.64A29.75,29.75,0,0,1,818,865.4a27,27,0,0,1-4.77,8.67,30.72,30.72,0,0,1-7.67,6.63,41.09,41.09,0,0,1-10.22,4.46,2.81,2.81,0,0,1,0,.3,29.2,29.2,0,0,1,5.51,3.43c1.57,1.27,3.06,2.59,4.48,3.94a49.26,49.26,0,0,1,4.23,4.61c1.41,1.74,3,3.75,4.66,6Q824.77,918.27,835.2,933.1ZM763,842.5q.78,17.49,1.57,35,7.83-.36,15.65-.69a24.46,24.46,0,0,0,8-1.6,18.82,18.82,0,0,0,6.22-3.94,16.87,16.87,0,0,0,4-6,19.3,19.3,0,0,0,1.21-7.8q-.28-7.74-5.62-11.89t-15.06-3.76Q770.91,842.13,763,842.5Z"/><path class="cls-5" d="M916.58,892.1q.3,19.54.59,39.09-9.27.13-18.53.31-1-53.89-2-107.79,17.37-.33,34.73-.54,19.73-.24,30.63,8.37c7.27,5.71,10.9,13.83,10.94,24.3s-3.68,19.06-11.11,25.77-17.48,10.13-30.18,10.28Q924.09,892,916.58,892.1Zm-.82-54,.6,39.39,12.16-.17q12.08-.15,18.35-5.54t6.21-15.09c-.09-12.67-8-19-23.56-18.78Z"/><path class="cls-5" d="M1057.47,931q-31-.39-62.06-.41,0-53.91,0-107.81,9.49,0,19,0-.18,46.35-.38,92.7,21.79.09,43.59.37Q1057.57,923.46,1057.47,931Z"/><path class="cls-5" d="M1173,933.82q-10.2-.36-20.39-.68-4.61-13.87-9.27-27.74-22.16-.66-44.31-1.13-5.16,13.62-10.27,27.25-10.15-.19-20.32-.35,21.8-53.58,44.48-107,10.71.25,21.4.54Q1154.15,879.21,1173,933.82Zm-34.19-43.15q-7.21-21.72-14.58-43.42a48.66,48.66,0,0,1-1.33-6.8h-.32a42.55,42.55,0,0,1-1.76,6.73q-8.37,21.3-16.6,42.63Q1121.55,890.18,1138.85,890.67Z"/><path class="cls-5" d="M1256.94,844.78q-16.38-.84-32.77-1.59-2.1,46.27-4.18,92.54l-18.59-.81q1.92-46.27,3.83-92.55-16.34-.68-32.69-1.25.26-7.59.53-15.18,42.33,1.48,84.65,3.67Z"/><path class="cls-5" d="M1338.42,849.63q-21.3-1.44-42.61-2.7-.94,16.17-1.91,32.35,19.51,1.15,39,2.46-.51,7.54-1,15.08-19.46-1.3-38.91-2.45-1.34,22.51-2.66,45-9.28-.55-18.58-1.07l6-107.65q30.87,1.71,61.71,3.8Z"/><path class="cls-5" d="M1401.21,949c-16.1-1.32-28.62-7.31-37.59-18.08s-13-24.18-11.81-40.28c1.22-17.3,7.19-30.75,18-40.3s24.93-13.67,42.25-12.25q24.08,2,37.42,18.3c8.86,10.85,12.5,24.36,11,40.48q-2.44,26.28-18.61,40.21C1431.17,946.4,1417.64,950.34,1401.21,949Zm8.65-95.33q-15.64-1.27-26.31,9t-12,28.27q-1.33,17.91,7.25,29.58t23.71,12.88q16.1,1.32,26.31-8.27t11.9-28.32q1.71-19.25-6.52-30.53T1409.86,853.68Z"/><path class="cls-5" d="M1565.37,963.29q-10.8-1.24-21.62-2.44-7.34-15.33-14.77-30.64a59.46,59.46,0,0,0-4-7.27,28.05,28.05,0,0,0-4.22-5.09,16.43,16.43,0,0,0-5-3.16,22.52,22.52,0,0,0-6.28-1.48l-7.54-.77q-2.19,21.78-4.39,43.54-9.22-.93-18.46-1.83,5.2-53.65,10.42-107.31,18.78,1.83,37.55,3.79a57.25,57.25,0,0,1,14.59,3.36,35,35,0,0,1,11.17,6.7,25.84,25.84,0,0,1,6.81,9.9,27.23,27.23,0,0,1,1.39,13,29.65,29.65,0,0,1-2.94,10.22,26.91,26.91,0,0,1-6,7.88,31.15,31.15,0,0,1-8.56,5.46,41,41,0,0,1-10.78,2.91l0,.3a29.47,29.47,0,0,1,5,4.2c1.37,1.49,2.66,3,3.87,4.55a49.67,49.67,0,0,1,3.52,5.18c1.14,1.92,2.38,4.13,3.75,6.66Q1557.18,947.1,1565.37,963.29ZM1507,863.15,1503.44,898q7.8.78,15.59,1.59a24.23,24.23,0,0,0,8.13-.43,19,19,0,0,0,6.73-3,16.71,16.71,0,0,0,4.8-5.38,19,19,0,0,0,2.33-7.54q.84-7.69-3.84-12.59c-3.12-3.25-7.92-5.23-14.37-5.9Q1514.89,863.95,1507,863.15Z"/><path class="cls-5" d="M1701.17,980.73q-9.17-1.31-18.32-2.57,4.8-34.56,9.58-69.12,1.18-8.49,4-20.62l-.32,0a71,71,0,0,1-4.47,9.62q-22.39,37.59-44.26,75.37l-12.73-1.66q-11.57-41.82-23.66-83.58a70.89,70.89,0,0,1-1.71-11l-.31,0q-.17,6.5-1.91,21.05-4.2,34.56-8.39,69.11l-17.11-2q6.32-53.55,12.62-107.08,13.3,1.57,26.61,3.21,10.58,37.47,20.72,75a97.59,97.59,0,0,1,2.79,12.79l.39,0q4-8.05,6.33-11.91,19.66-33.48,39.74-66.81,12.81,1.76,25.61,3.58Q1708.77,927.36,1701.17,980.73Z"/><path class="cls-5" d="M570.53,1126.76q-4.69-53.7-9.4-107.41,15.9-1.4,31.82-2.68c40.7-3.27,62.25,12.94,64.6,47.86q1.71,24.9-13.86,41.18t-43.3,18.52Q585.47,1125.45,570.53,1126.76Zm10.09-93.83,6.48,77.24q7.15-.6,14.33-1.18c12.62-1,22.17-5.21,28.69-12.64s9.35-17.43,8.44-30c-1.81-25.14-16-36.8-42.69-34.66Q588.23,1032.28,580.62,1032.93Z"/><path class="cls-5" d="M747.85,1114.5q-30.32,1.53-60.63,3.46l-6.81-107.6q29.75-1.89,59.52-3.41.39,7.57.77,15.17-20.54,1.05-41.07,2.27.92,15.24,1.82,30.47,18.79-1.12,37.61-2.09l.78,15.09q-18.75,1-37.49,2.09l1.89,31.82q21.42-1.27,42.85-2.36Q747.47,1107,747.85,1114.5Z"/><path class="cls-5" d="M854.93,1002.4q-18.34,54.44-35.81,109-10,.36-20,.76-21.23-53.1-43.29-106,10-.48,20-.92,15.44,40.26,30.41,80.62a48.46,48.46,0,0,1,2.32,9h.3a48.34,48.34,0,0,1,1.85-9.32q12.2-41.31,24.83-82.56Q845.22,1002.67,854.93,1002.4Z"/><path class="cls-5" d="M939.13,1108.58q-30.35.35-60.7,1.06l-2.55-107.79q29.79-.69,59.58-1.05l.18,15.19q-20.57.24-41.12.65.32,15.25.61,30.52,18.82-.37,37.66-.61l.18,15.11q-18.76.22-37.53.61l.63,31.87q21.45-.44,42.89-.67Q939.05,1101,939.13,1108.58Z"/><path class="cls-5" d="M1024.4,1108.38q-29.93-.2-59.87,0-.31-53.91-.64-107.81,9.18-.06,18.35-.08l.21,92.71q21-.06,42,.08Q1024.46,1100.82,1024.4,1108.38Z"/><path class="cls-5" d="M1086.11,1111c-15.59-.3-28-5.5-37.25-15.68s-13.9-23.33-13.77-39.46q.23-26,15-41.36t40-14.87q23.28.45,37.1,15.91t13,39.7c-.53,17.6-5.74,31.35-15.53,41.31S1102,1111.27,1086.11,1111Zm2.67-95.68c-10.08-.19-18.37,3.37-24.79,10.64s-9.68,16.93-9.83,29,2.78,21.65,8.74,29.06,13.8,11.19,23.58,11.38q15.57.3,24.82-9.92t9.78-29q.51-19.32-8.07-30.06T1088.78,1015.29Z"/><path class="cls-5" d="M1183.84,1072.9l-1.53,39.06q-8.93-.35-17.86-.66l3.81-107.75q16.76.6,33.51,1.3,19,.81,29.08,10t9.24,24.84q-.79,15.69-12.1,25.15t-29.64,8.67Zm2.1-53.94-1.53,39.36,11.73.47c7.78.33,13.76-1.19,18-4.56s6.51-8.28,6.8-14.74c.59-12.66-6.64-19.37-21.7-20Z"/><path class="cls-5" d="M1321.42,1119.4q-30.3-2.06-60.61-3.74,3-53.82,6-107.65,29.76,1.65,59.5,3.65l-1,15.15q-20.52-1.36-41-2.59l-1.8,30.47q18.81,1.11,37.59,2.37-.49,7.53-1,15.08-18.74-1.26-37.48-2.36-.95,15.92-1.88,31.82,21.42,1.26,42.82,2.72Z"/><path class="cls-5" d="M1430.11,1128q-10.44-.95-20.9-1.85-7.37-15.12-14.84-30.22a60.68,60.68,0,0,0-4-7.16,27.8,27.8,0,0,0-4.18-5,15.61,15.61,0,0,0-4.84-3,20.94,20.94,0,0,0-6.08-1.31l-7.29-.57q-1.68,21.81-3.35,43.63-8.91-.69-17.83-1.34l7.86-107.52q18.16,1.32,36.3,2.78a53.19,53.19,0,0,1,14.15,3,33.36,33.36,0,0,1,10.91,6.39,25.47,25.47,0,0,1,6.77,9.71,28.16,28.16,0,0,1,1.6,12.94,30.6,30.6,0,0,1-2.63,10.29,27,27,0,0,1-5.62,8,29.65,29.65,0,0,1-8.15,5.68,38.76,38.76,0,0,1-10.33,3.21c0,.1,0,.2,0,.3a28,28,0,0,1,4.86,4.06c1.36,1.45,2.63,2.93,3.83,4.44a50.7,50.7,0,0,1,3.5,5.09c1.13,1.88,2.39,4.07,3.74,6.55Q1421.89,1112.05,1430.11,1128Zm-58.35-98.51q-1.35,17.48-2.69,34.93,7.54.58,15.08,1.19a23.12,23.12,0,0,0,7.83-.65,18.34,18.34,0,0,0,6.43-3.17,16.86,16.86,0,0,0,4.53-5.51,20.14,20.14,0,0,0,2.1-7.6c.43-5.14-.89-9.31-4-12.47s-7.74-5-14-5.52Z"/></svg>