<svg id="Layer_1" data-name="Layer 1" xmlns="http://www.w3.org/2000/svg" viewBox="0 0 2000 2000"><defs><style>.cls-1{fill:#002050;}.cls-2{fill:#0064b5;}.cls-3{fill:#505050;}.cls-4{fill:#fff;}.cls-5{fill:#282828;}</style></defs><path class="cls-1" d="M1000,10a149.2,149.2,0,0,0-43.11,6.36L398.14,185A142.38,142.38,0,0,0,296.3,322.13v949.14c0,242.84,82.05,327.38,239.29,467.71,153.69,137.16,428.51,238,440.14,242.2L1000,1990l24.27-8.82c11.63-4.23,286.45-105,440.14-242.2,157.24-140.33,239.29-224.87,239.29-467.71V322.13A142.38,142.38,0,0,0,1601.86,185L1043.11,16.36A149.2,149.2,0,0,0,1000,10Z"/><path class="cls-1" d="M1581.33,253.07,1022.56,84.4a78.54,78.54,0,0,0-45.12,0L418.67,253.07a72.13,72.13,0,0,0-51.28,69.05V999.57H1632.61V322.12A72.13,72.13,0,0,0,1581.33,253.07Z"/><path class="cls-2" d="M367.39,1271.28c0,214,64.55,279.94,215.51,414.67,145.27,129.64,417.1,228.42,417.1,228.42s271.83-98.78,417.1-228.42c151-134.73,215.51-200.7,215.51-414.67V999.57H367.39Z"/><path class="cls-3" d="M1000,656.84c-300.5,0-593.32,25.46-870.34,75.68A102.73,102.73,0,0,0,47.27,854.08c25.46,125.27,54.59,278.35,74.23,390a113.27,113.27,0,0,0,111.74,93.78,114.58,114.58,0,0,0,23.46-2.44C354,1315,621.31,1267.58,1000,1267.58s646,47.43,743.31,67.82a114.42,114.42,0,0,0,23.45,2.44,113.27,113.27,0,0,0,111.74-93.78c19.64-111.64,48.77-264.72,74.23-390a102.73,102.73,0,0,0-82.39-121.56c-277-50.22-569.84-75.68-870.34-75.68Z"/><path class="cls-4" d="M1000,1230.27c315.15,0,582.57,33.34,751,68.61a76.19,76.19,0,0,0,90.8-61.28c20.68-117.62,50.24-272,74.41-390.95a65.42,65.42,0,0,0-52.49-77.42c-166.56-30.2-465-75.08-863.68-75.08h0c-398.71,0-697.12,44.88-863.68,75.08a65.42,65.42,0,0,0-52.49,77.42C108,965.58,137.56,1120,158.24,1237.6a76.19,76.19,0,0,0,90.8,61.28c168.39-35.27,435.81-68.61,751-68.61Z"/><path class="cls-4" d="M788.23,400.57H764.69V337.25q0-10.26.88-22.66H765a112.47,112.47,0,0,1-3.31,14l-24.8,71.95H717.38l-25.24-71.21q-1-2.88-3.32-14.77h-.66q.95,15.66,1,27.46v58.52H667.64V294.74h34.91l21.62,62.73a89,89,0,0,1,3.77,15.13h.44a151.86,151.86,0,0,1,4.21-15.27l21.62-62.59h34Z"/><path class="cls-4" d="M820.3,313a13.6,13.6,0,0,1-9.67-3.5,11.29,11.29,0,0,1-3.76-8.6,10.9,10.9,0,0,1,3.76-8.56,15.79,15.79,0,0,1,19.37,0,10.94,10.94,0,0,1,3.73,8.56,11.24,11.24,0,0,1-3.73,8.71A13.84,13.84,0,0,1,820.3,313Zm11.51,87.53H808.49V325h23.32Z"/><path class="cls-4" d="M907.2,397.84q-7.89,4.57-22.8,4.58-17.42,0-28.19-10.56t-10.78-27.23q0-19.26,11.55-30.37t30.89-11.1q13.35,0,19.33,3.54v19.78A26.59,26.59,0,0,0,890.89,341q-10,0-15.9,5.86t-5.87,16.2q0,10,5.61,15.76t15.43,5.72a30.78,30.78,0,0,0,17-5.46Z"/><path class="cls-4" d="M970.27,346a20.32,20.32,0,0,0-9.82-2.28,14.15,14.15,0,0,0-11.88,5.57q-4.27,5.56-4.28,15.17v36.08H921V325h23.33v14h.29q5.53-15.34,19.93-15.35a15,15,0,0,1,5.76.89Z"/><path class="cls-4" d="M1015.62,402.42q-18.9,0-29.71-10.59T975.1,363.08q0-18.75,11.22-29.33t30.33-10.59q18.81,0,29.52,10.59t10.7,28q0,18.81-11,29.74T1015.62,402.42Zm.59-61.4q-8.26,0-12.84,5.68t-4.58,16.09q0,21.76,17.57,21.77,16.74,0,16.75-22.36Q1033.11,341,1016.21,341Z"/><path class="cls-4" d="M1065.54,398.58V379.69a49.78,49.78,0,0,0,11.48,5.16,38.11,38.11,0,0,0,10.81,1.7,23.21,23.21,0,0,0,9.78-1.7q3.59-1.69,3.58-5.16a4.77,4.77,0,0,0-1.62-3.69,15.08,15.08,0,0,0-4.17-2.59,49.38,49.38,0,0,0-5.57-2c-2-.59-4-1.25-5.84-2a56.24,56.24,0,0,1-7.93-3.65,23.11,23.11,0,0,1-5.76-4.54,17.82,17.82,0,0,1-3.54-6,23.86,23.86,0,0,1-1.22-8,20.79,20.79,0,0,1,2.77-10.93,22.67,22.67,0,0,1,7.38-7.49,33.79,33.79,0,0,1,10.56-4.28,55,55,0,0,1,12.36-1.36,68,68,0,0,1,10.18.77,77.55,77.55,0,0,1,10.19,2.25v18a36.49,36.49,0,0,0-9.49-3.87,39.54,39.54,0,0,0-9.92-1.3,22,22,0,0,0-4.32.41,13.93,13.93,0,0,0-3.58,1.18,6.74,6.74,0,0,0-2.44,2,4.59,4.59,0,0,0-.88,2.77,5.08,5.08,0,0,0,1.33,3.54,11.29,11.29,0,0,0,3.47,2.55,34.67,34.67,0,0,0,4.76,1.92c1.74.56,3.48,1.14,5.2,1.73a65.66,65.66,0,0,1,8.41,3.55,26.75,26.75,0,0,1,6.46,4.49,17.75,17.75,0,0,1,4.13,6.06,24.23,24.23,0,0,1-1.47,19.74,23.44,23.44,0,0,1-7.75,7.75,35.17,35.17,0,0,1-11.15,4.35,61.73,61.73,0,0,1-13.1,1.37A67.54,67.54,0,0,1,1065.54,398.58Z"/><path class="cls-4" d="M1171.49,402.42q-18.88,0-29.7-10.59T1131,363.08q0-18.75,11.21-29.33t30.34-10.59q18.81,0,29.51,10.59t10.71,28q0,18.81-11,29.74T1171.49,402.42Zm.6-61.4q-8.28,0-12.85,5.68t-4.57,16.09q0,21.76,17.56,21.77,16.76,0,16.75-22.36Q1189,341,1172.09,341Z"/><path class="cls-4" d="M1275.66,306.55a23.52,23.52,0,0,0-8.63-1.77q-11.22,0-11.22,12.18v8h17.27v17.2h-17.27v58.37h-23.25V342.2h-12.69V325h12.69v-9.37q0-12.92,8.42-20.81t22.88-7.9a39.93,39.93,0,0,1,11.8,1.48Z"/><path class="cls-4" d="M1328.47,399.69q-5.16,2.73-15.57,2.73-24.66,0-24.65-25.61V342.2H1276V325h12.25V308.69l23.25-6.64V325h17v17.2h-17v30.55q0,11.81,9.37,11.81a15.77,15.77,0,0,0,7.6-2.14Z"/><path class="cls-4" d="M728.5,544.69q-9,4.77-22.49,4.77-17.38,0-27.85-11.19t-10.45-29.38q0-19.54,11.76-31.59t29.83-12q11.6,0,19.2,3.35v10.17a38.9,38.9,0,0,0-19.31-4.89q-14,0-22.76,9.38t-8.72,25.05q0,14.9,8.15,23.73t21.39,8.83q12.27,0,21.25-5.45Z"/><path class="cls-4" d="M808.06,548.1H764.88V466.62h41.36v8.63H774.42v27.11h29.43v8.58H774.42v28.52h33.64Z"/><path class="cls-4" d="M901.93,548.1H890.57l-13.64-22.84a51,51,0,0,0-3.63-5.43,21.71,21.71,0,0,0-3.61-3.67,12.84,12.84,0,0,0-4-2.07,16.54,16.54,0,0,0-4.8-.65h-7.84V548.1h-9.55V466.62h24.32A34.72,34.72,0,0,1,877.7,468a21.85,21.85,0,0,1,7.83,4.06,18.75,18.75,0,0,1,5.21,6.79,24.85,24.85,0,0,1,.59,17.33,20.18,20.18,0,0,1-3.63,6.33,22.27,22.27,0,0,1-5.68,4.75,29.39,29.39,0,0,1-7.47,3v.22a17.47,17.47,0,0,1,3.55,2.08,19.93,19.93,0,0,1,2.87,2.75,38.52,38.52,0,0,1,2.69,3.61c.89,1.35,1.89,2.91,3,4.69Zm-48.86-72.85V504.8H866a19.68,19.68,0,0,0,6.62-1.08,15.36,15.36,0,0,0,5.25-3.09,14.06,14.06,0,0,0,3.47-4.95,16.61,16.61,0,0,0,1.25-6.56q0-6.53-4.24-10.2t-12.23-3.67Z"/><path class="cls-4" d="M975.86,475.25H952.33V548.1h-9.54V475.25H919.33v-8.63h56.53Z"/><path class="cls-4" d="M1018,548.1h-9.54V466.62H1018Z"/><path class="cls-4" d="M1100.53,475.25h-31.82v28.19h29.43V512h-29.43V548.1h-9.54V466.62h41.36Z"/><path class="cls-4" d="M1145.31,548.1h-9.54V466.62h9.54Z"/><path class="cls-4" d="M1229.7,548.1h-43.18V466.62h41.36v8.63h-31.82v27.11h29.44v8.58h-29.44v28.52h33.64Z"/><path class="cls-4" d="M1265.16,548.1V466.62h22.5q43.08,0,43.07,39.71,0,18.87-12,30.32t-32,11.45Zm9.55-72.85v64.21h12.16q16,0,24.94-8.58t8.92-24.32q0-31.31-33.29-31.31Z"/><polygon class="cls-4" points="1000 1591.76 1028.65 1679.94 1121.38 1679.94 1046.36 1734.44 1075.01 1822.62 1000 1768.12 924.99 1822.62 953.64 1734.44 878.63 1679.94 971.35 1679.94 1000 1591.76"/><polygon class="cls-4" points="754 1515.22 780.62 1597.14 866.75 1597.14 797.07 1647.77 823.68 1729.69 754 1679.06 684.32 1729.69 710.93 1647.77 641.25 1597.14 727.38 1597.14 754 1515.22"/><polygon class="cls-4" points="1246 1515.22 1219.38 1597.14 1133.25 1597.14 1202.93 1647.77 1176.32 1729.69 1246 1679.06 1315.68 1729.69 1289.07 1647.77 1358.75 1597.14 1272.62 1597.14 1246 1515.22"/><path class="cls-5" d="M375.33,967q-10.14,1.23-20.27,2.51-6.72-13-13.49-26-22,2.8-44,5.81-3,14.25-5.91,28.51-10.09,1.4-20.17,2.83,13.23-56.34,27.35-112.62,10.6-1.43,21.24-2.8Q348.12,916,375.33,967Zm-40.54-37.29q-10.53-20.32-21.18-40.61a49.11,49.11,0,0,1-2.39-6.51l-.31,0a42.14,42.14,0,0,1-.7,6.92q-4.95,22.35-9.77,44.7Q317.6,932,334.79,929.74Z"/><path class="cls-5" d="M463.08,856.62Q436.2,902,410.37,947.69q30.25-3.45,60.54-6.54l1.53,15q-43.14,4.41-86.23,9.54c-.32-2.71-.65-5.42-1-8.13q25.69-45.58,52.45-90.91-28.83,3.09-57.63,6.5-.88-7.54-1.78-15.09,42-5,84-9.25C462.55,851.44,462.82,854,463.08,856.62Z"/><path class="cls-5" d="M576.24,902.91C578.65,933.1,565,949.32,535.35,952c-28.4,2.56-44-10.48-46.92-39.48q-3.21-32.81-6.43-65.62,9.45-.93,18.92-1.82,2.93,31,5.85,62c2,21.06,11.52,30.76,28.59,29.23,16.44-1.46,23.81-12.3,22.11-32.63q-2.67-31.57-5.33-63.16l18.93-1.56Q573.67,870.91,576.24,902.91Z"/><path class="cls-5" d="M695.63,938.34q-10.85.63-21.69,1.3Q664.12,925.8,654.18,912A60.13,60.13,0,0,0,649,905.5a27.92,27.92,0,0,0-5-4.3,16.23,16.23,0,0,0-5.4-2.27,22.58,22.58,0,0,0-6.43-.38l-7.55.53q1.54,21.82,3.11,43.65-9.24.66-18.47,1.35-4-53.76-8.06-107.51,18.78-1.41,37.58-2.68a57.07,57.07,0,0,1,14.93.81,35.17,35.17,0,0,1,12.12,4.69,25.74,25.74,0,0,1,8.39,8.6,27.28,27.28,0,0,1,3.59,12.55,29.66,29.66,0,0,1-1.15,10.58,26.8,26.8,0,0,1-4.53,8.79,30.78,30.78,0,0,1-7.5,6.83,40.61,40.61,0,0,1-10.09,4.72c0,.1,0,.2,0,.3a30.28,30.28,0,0,1,5.59,3.29c1.6,1.23,3.12,2.5,4.58,3.81a49.56,49.56,0,0,1,4.35,4.51c1.45,1.69,3.05,3.67,4.82,5.92Q684.81,923.8,695.63,938.34Zm-74.58-88.68,2.49,35q7.82-.55,15.62-1.09a24.19,24.19,0,0,0,7.92-1.82,18.73,18.73,0,0,0,6.11-4.09,16.9,16.9,0,0,0,3.81-6.13,19.3,19.3,0,0,0,1-7.82c-.33-5.15-2.29-9.07-5.93-11.75s-8.67-3.8-15.14-3.36Q629,849.09,621.05,849.66Z"/><path class="cls-5" d="M774.68,934.38q-31.42,1.32-62.83,3Q708.91,883.6,706,829.77q30.79-1.68,61.61-3,.31,7.58.65,15.17-21.27.91-42.52,2l1.56,30.48q19.47-1,39-1.84.33,7.54.65,15.1-19.41.84-38.83,1.83l1.62,31.84q22.2-1.12,44.39-2.07Q774.37,926.83,774.68,934.38Z"/><path class="cls-5" d="M839.67,927.75q-.27-9.21-.55-18.41a30.34,30.34,0,0,0,6.28,3.88,49.23,49.23,0,0,0,7.64,2.83,60.32,60.32,0,0,0,8,1.71,45.58,45.58,0,0,0,7.38.5c7.84-.19,13.64-1.56,17.43-4.15a12.25,12.25,0,0,0,5.54-11,11.43,11.43,0,0,0-2.06-6.61,19.66,19.66,0,0,0-5.49-5,56.75,56.75,0,0,0-8.25-4.3c-3.15-1.35-6.53-2.77-10.15-4.23-3.89-1.86-7.5-3.75-10.87-5.67a45.19,45.19,0,0,1-8.83-6.42,27.87,27.87,0,0,1-6-8.06,25.58,25.58,0,0,1-2.41-10.68,23.77,23.77,0,0,1,3.23-13.3,29.81,29.81,0,0,1,9.3-9.51,44.75,44.75,0,0,1,13.36-5.76,67,67,0,0,1,15.44-2.12c12-.26,20.71.87,26.23,3.33q.15,8.84.29,17.67c-6.51-4.3-14.91-6.36-25.09-6.14a47.14,47.14,0,0,0-8.37.93,25.64,25.64,0,0,0-7.42,2.66,15.91,15.91,0,0,0-5.25,4.57,10.45,10.45,0,0,0-1.9,6.59,11.77,11.77,0,0,0,1.74,6.2,16.72,16.72,0,0,0,4.75,4.69A48.72,48.72,0,0,0,871.2,866q4.44,2,10.27,4.25c4,1.87,7.74,3.85,11.29,5.94a51.88,51.88,0,0,1,9.37,7,31.41,31.41,0,0,1,6.45,8.58,24.6,24.6,0,0,1,2.48,10.83,26.07,26.07,0,0,1-3.23,13.88,27.12,27.12,0,0,1-9.12,9.33,42.17,42.17,0,0,1-13.3,5.37,79.23,79.23,0,0,1-16,1.94c-1.88,0-4.17,0-6.92-.25s-5.56-.53-8.43-1a80.56,80.56,0,0,1-8.17-1.69A26.76,26.76,0,0,1,839.67,927.75Z"/><path class="cls-5" d="M981.41,931.62c-16.13,0-29.07-4.91-38.91-14.9s-14.91-23-15.1-39.16q-.31-26,14.61-41.66t41-15.71q24.12,0,38.74,15.12t14.33,39.43c-.15,17.6-5.26,31.45-15.18,41.62S997.86,931.59,981.41,931.62Zm.7-95.72q-15.68,0-25.42,11.16t-9.57,29.17q.17,18,9.67,28.87T981.46,916q16.14,0,25.49-10.44t9.49-29.2q.07-19.33-9-29.89T982.11,835.9Z"/><path class="cls-5" d="M1121.38,931.48q-31-.79-62-1.22.72-53.89,1.45-107.8,9.48.13,19,.29-.79,46.35-1.58,92.69,21.77.38,43.55.93Z"/><path class="cls-5" d="M1226.21,891.59c-1.42,30.25-17,44.63-46.72,43.51-28.5-1-42.33-15.94-41.53-45.07l1.89-65.91q9.48.27,19,.58l-2,62.22c-.66,21.15,7.54,32,24.66,32.61,16.48.61,25.17-9.21,26-29.6l2.67-63.32,19,.83Q1227.67,859.53,1226.21,891.59Z"/><path class="cls-5" d="M1331.56,848.37q-16.35-1.08-32.72-2-2.73,46.23-5.49,92.46l-18.57-1.07,5.16-92.48q-16.34-.91-32.66-1.72l.75-15.17q42.29,2.1,84.53,4.87Q1332.07,840.79,1331.56,848.37Z"/><path class="cls-5" d="M1364.08,943.48q-9.55-.71-19.1-1.37,3.75-53.77,7.48-107.55,9.76.68,19.51,1.39Z"/><path class="cls-5" d="M1440.68,951.49c-16.08-1.43-28.54-7.51-37.44-18.34s-12.76-24.27-11.52-40.36q2-25.93,18.3-40.18c10.89-9.48,25-13.49,42.32-12,16,1.42,28.48,7.63,37.26,18.55s12.34,24.45,10.74,40.56c-1.74,17.51-8.07,30.85-18.88,40.08S1457.09,952.94,1440.68,951.49Zm9.31-95.26q-15.63-1.4-26.35,8.82t-12.15,28.19c-1,11.94,1.39,21.81,7,29.63s13.51,12.15,23.61,13q16.09,1.43,26.35-8.1c6.85-6.35,10.92-15.76,12.09-28.23q1.85-19.25-6.3-30.58T1450,856.23Z"/><path class="cls-5" d="M1613.07,967.89q-10.11-1.25-20.2-2.44-21.94-42.51-44.74-84.83a35.4,35.4,0,0,1-2.73-6.57l-.47,0c.17,2.33-.13,7.27-1,14.79l-7.56,70.27q-8.94-1-17.89-1.89,5.57-53.62,11.15-107.24,11,1.14,22,2.33,22.13,41.31,43.45,82.79a77.26,77.26,0,0,1,3.44,7.07l.31,0a89.24,89.24,0,0,1,.94-14.5l8.22-69q9.09,1.08,18.17,2.2Z"/><path class="cls-5" d="M1639.24,966.85l2.34-18.27a29.59,29.59,0,0,0,5.6,4.81,50.1,50.1,0,0,0,7.12,4,62.23,62.23,0,0,0,7.69,2.94,45,45,0,0,0,7.23,1.65q11.67,1.56,17.9-1.37a12.24,12.24,0,0,0,7.21-10,11.34,11.34,0,0,0-1-6.86,19.5,19.5,0,0,0-4.64-5.83,57.52,57.52,0,0,0-7.5-5.54q-4.37-2.76-9.38-5.77c-3.56-2.45-6.84-4.88-9.88-7.3a46,46,0,0,1-7.74-7.72,28,28,0,0,1-4.69-8.91,25.48,25.48,0,0,1-.72-10.93,23.54,23.54,0,0,1,5.28-12.62,29.52,29.52,0,0,1,10.68-8,45.21,45.21,0,0,1,14.13-3.59,67.47,67.47,0,0,1,15.61.32q17.82,2.43,25.45,7.4-1.23,8.75-2.47,17.5c-5.8-5.28-13.78-8.62-23.88-10a47.6,47.6,0,0,0-8.44-.39,25.66,25.66,0,0,0-7.75,1.47,15.84,15.84,0,0,0-5.92,3.69,10.49,10.49,0,0,0-2.91,6.21,12,12,0,0,0,.76,6.39,16.47,16.47,0,0,0,4,5.39,47.74,47.74,0,0,0,6.83,5.19q4.08,2.64,9.49,5.81c3.65,2.47,7.08,5,10.26,7.63a51.88,51.88,0,0,1,8.18,8.36,31.24,31.24,0,0,1,5,9.48,24.6,24.6,0,0,1,.77,11.08,26.11,26.11,0,0,1-5.37,13.21,27.29,27.29,0,0,1-10.48,7.79,42.64,42.64,0,0,1-14,3.22,79.39,79.39,0,0,1-16.11-.59c-1.88-.25-4.13-.69-6.81-1.32s-5.42-1.4-8.19-2.29a82,82,0,0,1-7.83-3A26.67,26.67,0,0,1,1639.24,966.85Z"/><path class="cls-5" d="M671.61,1117.81,652,1119.13q-5.79-13.35-11.65-26.7-21.33,1.52-42.67,3.21-3.6,14.05-7.15,28.11-9.78.8-19.55,1.63Q586.54,1070,603,1014.6q10.31-.79,20.6-1.55Q648.05,1065.33,671.61,1117.81Zm-37.11-39.58q-9.09-20.91-18.31-41.78a50.26,50.26,0,0,1-2-6.64l-.3,0a46,46,0,0,1-1,6.87q-5.92,22-11.71,44Q617.84,1079.42,634.5,1078.23Z"/><path class="cls-5" d="M776.07,1112.15q-10.47.45-21,.95-9.32-14-18.73-28a61.34,61.34,0,0,0-4.94-6.56,27,27,0,0,0-4.8-4.38,15.4,15.4,0,0,0-5.19-2.35,20.8,20.8,0,0,0-6.2-.49l-7.29.41,2.49,43.69-17.85,1q-3.25-53.82-6.52-107.62,18.17-1.1,36.32-2.07a53.12,53.12,0,0,1,14.41,1.06,33.44,33.44,0,0,1,11.65,4.88,25.21,25.21,0,0,1,8,8.72,27.91,27.91,0,0,1,3.32,12.61,31.07,31.07,0,0,1-1.23,10.55,27.54,27.54,0,0,1-4.49,8.72,30.18,30.18,0,0,1-7.31,6.72,39.14,39.14,0,0,1-9.81,4.55c0,.1,0,.2,0,.3a27.44,27.44,0,0,1,5.36,3.38c1.53,1.26,3,2.55,4.38,3.89a49.67,49.67,0,0,1,4.14,4.57c1.37,1.72,2.92,3.72,4.59,6Q765.8,1097.43,776.07,1112.15Zm-70.92-89.86q1,17.49,2,35l15.09-.83a22.9,22.9,0,0,0,7.67-1.69,17.87,17.87,0,0,0,6-4,16.66,16.66,0,0,0,3.75-6.06,20.09,20.09,0,0,0,1.06-7.81c-.24-5.15-2.12-9.11-5.59-11.84s-8.35-3.93-14.57-3.6Z"/><path class="cls-5" d="M868.2,1104.48q-12.08,6.62-30.21,7.16-23.5.73-38.24-13.49t-15.82-38.26c-.71-17.23,4.07-31.38,14.51-42.42s23.95-16.83,40.56-17.33q16-.5,26.7,3.7.22,8.86.44,17.74a47.64,47.64,0,0,0-24.74-5.8q-17.91.54-28.6,12.15c-7.12,7.72-10.41,17.83-9.94,30.3q.67,17.82,11.29,28t27.21,9.67q15.33-.47,26.43-8Q868,1096.22,868.2,1104.48Z"/><path class="cls-5" d="M981.85,1107.48q-9,0-18,.06-.12-23.38-.26-46.76-25.68.13-51.37.54.36,23.39.74,46.76-9,.15-18,.32-1.05-53.89-2.09-107.8l18.33-.32.72,45.33q25.77-.4,51.54-.54-.12-22.68-.25-45.34,9.21,0,18.42-.07Q981.75,1053.57,981.85,1107.48Z"/><path class="cls-5" d="M1033.12,1107.65q-9.24-.08-18.48-.12.27-53.91.53-107.82,9.44,0,18.87.13Q1033.59,1053.75,1033.12,1107.65Z"/><path class="cls-5" d="M1138,1017q-15.81-.46-31.64-.83l-2.13,92.61q-9-.21-18-.38l1.8-92.61q-15.8-.31-31.57-.52.09-7.59.2-15.18,40.88.52,81.74,1.73Z"/><path class="cls-5" d="M1217.93,1112.71q-30.33-1.39-60.67-2.42,1.83-53.88,3.65-107.76,29.77,1,59.53,2.37-.35,7.59-.7,15.17-20.54-.93-41.07-1.71l-1.14,30.51q18.81.7,37.61,1.55-.33,7.55-.68,15.09-18.75-.84-37.5-1.54-.6,15.93-1.19,31.85,21.42.81,42.85,1.8Z"/><path class="cls-5" d="M1318.91,1113.89q-12.62,5.49-30.75,4.37c-15.66-.94-27.91-6.56-36.86-16.92s-13-23.53-12.26-39.55c.86-17.22,6.92-30.88,18.32-40.91s25.43-14.58,42-13.56q16,1,26.26,6.12-.58,8.87-1.18,17.71a47.61,47.61,0,0,0-24.12-8q-17.88-1.11-29.59,9.48T1258,1061.87q-1,17.79,8.7,28.9c6.42,7.41,15.13,11.44,26.21,12.12q15.33.94,27.06-5.5Q1319.47,1105.64,1318.91,1113.89Z"/><path class="cls-5" d="M1422.42,1033.44q-15.78-1.37-31.57-2.62l-7.38,92.33q-9-.72-17.91-1.4l7-92.36q-15.75-1.2-31.51-2.3.53-7.57,1.06-15.15,40.8,2.85,81.57,6.37Q1423.07,1025.89,1422.42,1033.44Z"/><path class="cls-4" d="M783.76,1456.06q-26.89.68-53.8,1.52l-2.82-89.67q26.15-.83,52.29-1.48.21,8.22.41,16.45-15.9.39-31.8.86.29,10,.58,20,14.76-.43,29.52-.81l.42,16.39q-14.73.38-29.47.8l.6,20.52q16.83-.48,33.66-.91Q783.56,1447.87,783.76,1456.06Z"/><path class="cls-4" d="M890.63,1454.07q-12,.15-24,.33-7.95-14.49-15.95-29a25.2,25.2,0,0,1-1.93-6h-.25a45.24,45.24,0,0,1-2,6.29q-7.53,14.63-15,29.25l-24.09.5q13.8-22.73,27.75-45.43-13.56-22.18-27.27-44.32l24.84-.51q6.74,13.34,13.44,26.67a47,47,0,0,1,2.84,7.52h.25c.47-1.76,1.37-4.39,2.7-7.87q7-13.45,14-26.88,11.38-.18,22.76-.31-13.32,22.41-26.49,44.86Q876.52,1431.63,890.63,1454.07Z"/><path class="cls-4" d="M938,1422.71l.21,30.91q-10.11.06-20.21.16-.4-44.87-.82-89.72,16-.15,32-.23c22.86-.12,34.3,9.43,34.31,28.48q0,13.51-9.74,21.89t-26.08,8.45Zm-.29-43.29q.09,14,.19,28l8-.05q16.23-.09,16.18-14.21,0-13.83-16.34-13.75Z"/><path class="cls-4" d="M1067.18,1453.74q-26.91-.23-53.82-.29.1-44.87.2-89.72,26.16.06,52.31.28-.07,8.22-.14,16.45-15.92-.14-31.82-.21l-.09,20q14.76.07,29.53.19-.06,8.19-.13,16.39-14.74-.12-29.48-.19l-.09,20.53q16.83.07,33.67.22Q1067.24,1445.55,1067.18,1453.74Z"/><path class="cls-4" d="M1173.49,1455.33q-11.6-.24-23.21-.46-6.77-11.67-13.56-23.33-1.53-2.65-2.94-4.74a24.37,24.37,0,0,0-2.86-3.58,11.61,11.61,0,0,0-3-2.31,8,8,0,0,0-3.47-.83l-5.47-.08-.51,34.34q-10.1-.15-20.2-.27.54-44.86,1.1-89.71,16.18.2,32.38.46c22,.36,32.85,8.73,32.52,25a25.27,25.27,0,0,1-1.63,8.63,24,24,0,0,1-4.23,7.09,25.91,25.91,0,0,1-6.49,5.38,33.06,33.06,0,0,1-8.39,3.47c0,.09,0,.17,0,.26a13,13,0,0,1,3.86,2.1,27.3,27.3,0,0,1,3.59,3.35,48.26,48.26,0,0,1,3.28,4.1c1,1.46,2,2.89,2.84,4.27Q1165.3,1441.89,1173.49,1455.33Zm-54-75.56q-.18,12.48-.37,25l8.82.13q6.54.11,10.57-3.58a12.48,12.48,0,0,0,4.2-9.37q.21-11.76-14-12Z"/><path class="cls-4" d="M1261.26,1384.35q-12.9-.4-25.81-.77-1,36.62-2.08,73.24-10.12-.28-20.27-.55,1-36.63,1.91-73.24-12.84-.33-25.69-.63.2-8.22.38-16.45,36,.83,72.08,2Q1261.51,1376.13,1261.26,1384.35Z"/></svg>