<svg id="Layer_1" data-name="Layer 1" xmlns="http://www.w3.org/2000/svg" viewBox="0 0 2000 2000"><defs><style>.cls-1{fill:#3a96dd;}.cls-2{fill:#505050;}.cls-3{fill:#0064b5;}.cls-4{fill:#fff;}.cls-5{fill:#282828;}</style></defs><path class="cls-1" d="M1000,10a149.2,149.2,0,0,0-43.11,6.36L398.14,185A142.38,142.38,0,0,0,296.3,322.13v949.14c0,242.84,82.05,327.38,239.29,467.71,153.69,137.16,428.51,238,440.14,242.2L1000,1990l24.27-8.82c11.63-4.23,286.45-105,440.14-242.2,157.24-140.33,239.29-224.87,239.29-467.71V322.13A142.38,142.38,0,0,0,1601.86,185L1043.11,16.36A149.2,149.2,0,0,0,1000,10Z"/><path class="cls-2" d="M1581.33,253.07,1022.56,84.4a78.54,78.54,0,0,0-45.12,0L418.67,253.07a72.13,72.13,0,0,0-51.28,69.05V999.57H1632.61V322.12A72.13,72.13,0,0,0,1581.33,253.07Z"/><path class="cls-3" d="M367.39,1271.28c0,214,64.55,279.94,215.51,414.67,145.27,129.64,417.1,228.42,417.1,228.42s271.83-98.78,417.1-228.42c151-134.73,215.51-200.7,215.51-414.67V999.57H367.39Z"/><path class="cls-2" d="M1000,656.84c-300.5,0-593.32,25.46-870.34,75.68A102.73,102.73,0,0,0,47.27,854.08c25.46,125.27,54.59,278.35,74.23,390a113.27,113.27,0,0,0,111.74,93.78,114.58,114.58,0,0,0,23.46-2.44C354,1315,621.31,1267.58,1000,1267.58s646,47.43,743.31,67.82a114.42,114.42,0,0,0,23.45,2.44,113.27,113.27,0,0,0,111.74-93.78c19.64-111.64,48.77-264.72,74.23-390a102.73,102.73,0,0,0-82.39-121.56c-277-50.22-569.84-75.68-870.34-75.68Z"/><path class="cls-4" d="M1000,1230.27c315.15,0,582.57,33.34,751,68.61a76.19,76.19,0,0,0,90.8-61.28c20.68-117.62,50.24-272,74.41-390.95a65.42,65.42,0,0,0-52.49-77.42c-166.56-30.2-465-75.08-863.68-75.08h0c-398.71,0-697.12,44.88-863.68,75.08a65.42,65.42,0,0,0-52.49,77.42C108,965.58,137.56,1120,158.24,1237.6a76.19,76.19,0,0,0,90.8,61.28c168.39-35.27,435.81-68.61,751-68.61Z"/><polygon class="cls-4" points="858.58 1519.13 887.24 1607.31 979.96 1607.31 904.94 1661.81 933.6 1750 858.58 1695.49 783.57 1750 812.22 1661.81 737.21 1607.31 829.93 1607.31 858.58 1519.13"/><polygon class="cls-4" points="1140.51 1519.13 1169.16 1607.31 1261.88 1607.31 1186.87 1661.81 1215.52 1750 1140.51 1695.49 1065.49 1750 1094.14 1661.81 1019.13 1607.31 1111.85 1607.31 1140.51 1519.13"/><path class="cls-4" d="M697.33,1454.91q-11.21.67-22.39,1.4-3.9-9.91-7.83-19.82-16.27,1.08-32.55,2.26-2.49,10.35-4.95,20.71-11.13.82-22.24,1.7,13-46.77,26.62-93.49,12.4-.89,24.81-1.72Q678.36,1410.35,697.33,1454.91Zm-36-33.85q-6-15-12-29.92a38.65,38.65,0,0,1-2.11-8.08l-.52,0a35.29,35.29,0,0,1-1.06,8q-4,15.78-7.84,31.56Q649.58,1421.85,661.33,1421.06Z"/><path class="cls-4" d="M716,1450.31q-.59-10.17-1.15-20.33a39.52,39.52,0,0,0,12.45,6.29,39,39,0,0,0,13.27,1.63,29.91,29.91,0,0,0,6.76-1.05,15.93,15.93,0,0,0,4.76-2.17,8.55,8.55,0,0,0,2.76-3.07,7.23,7.23,0,0,0,.79-3.7,7.88,7.88,0,0,0-1.77-4.69,16.4,16.4,0,0,0-4.38-3.67,44.28,44.28,0,0,0-6.49-3.12q-3.74-1.46-8-3-11-3.88-16.67-10a23.62,23.62,0,0,1-6.18-15.2,23.42,23.42,0,0,1,9.67-21.25,35.87,35.87,0,0,1,11.37-5.48,60.45,60.45,0,0,1,13.92-2.27,85.06,85.06,0,0,1,12.9.25,50,50,0,0,1,10.46,2.16q.43,9.49.85,19a31.35,31.35,0,0,0-5.19-2.57,40.53,40.53,0,0,0-5.75-1.73,42.85,42.85,0,0,0-5.84-.91,40.59,40.59,0,0,0-5.47-.11,28.63,28.63,0,0,0-6.43,1,16.6,16.6,0,0,0-4.81,2.12,9.28,9.28,0,0,0-3,3,6.67,6.67,0,0,0-.9,3.84,7.14,7.14,0,0,0,1.44,4,13.65,13.65,0,0,0,3.65,3.25,37.1,37.1,0,0,0,5.63,2.9c2.2.94,4.68,1.88,7.43,2.85a79.62,79.62,0,0,1,10.16,4.39,34.71,34.71,0,0,1,7.82,5.46,22.73,22.73,0,0,1,5.14,7.2A29.37,29.37,0,0,1,775,1438a23.67,23.67,0,0,1-7.5,8.75,34.5,34.5,0,0,1-11.34,5.15,68,68,0,0,1-13.83,2.09,78.53,78.53,0,0,1-14.34-.52A43.3,43.3,0,0,1,716,1450.31Z"/><path class="cls-4" d="M800.88,1446.24q-.4-10.17-.8-20.34a39.67,39.67,0,0,0,25.57,8.35,29.51,29.51,0,0,0,6.78-.93,15.61,15.61,0,0,0,4.79-2.09,8.56,8.56,0,0,0,2.82-3,7.32,7.32,0,0,0,.85-3.69,7.9,7.9,0,0,0-1.69-4.72,16.8,16.8,0,0,0-4.32-3.74,44,44,0,0,0-6.42-3.23c-2.48-1-5.15-2-8-3.1q-10.94-4.07-16.49-10.28a23.55,23.55,0,0,1-5.91-15.3,23.35,23.35,0,0,1,10-21.08,35.79,35.79,0,0,1,11.45-5.28,60,60,0,0,1,14-2,85.29,85.29,0,0,1,12.9.47,50.83,50.83,0,0,1,10.42,2.34q.26,9.5.52,19a32.31,32.31,0,0,0-5.14-2.66,40.51,40.51,0,0,0-5.72-1.83,43.2,43.2,0,0,0-11.29-1.21,28.55,28.55,0,0,0-6.45.88,16.82,16.82,0,0,0-4.85,2,9.66,9.66,0,0,0-3,3,6.93,6.93,0,0,0-1,3.82,7.22,7.22,0,0,0,1.37,4.06,13.85,13.85,0,0,0,3.6,3.31,37.51,37.51,0,0,0,5.58,3c2.18,1,4.64,2,7.38,3a80,80,0,0,1,10.08,4.56,35.39,35.39,0,0,1,7.72,5.6,22.54,22.54,0,0,1,5,7.28A29.38,29.38,0,0,1,860,1435a23.63,23.63,0,0,1-7.64,8.61,34.46,34.46,0,0,1-11.42,5,68.68,68.68,0,0,1-13.86,1.85,78.74,78.74,0,0,1-14.33-.76A43,43,0,0,1,800.88,1446.24Z"/><path class="cls-4" d="M928.65,1448c-13.08.18-23.79-3.88-32.22-12.21s-12.81-19.32-13.12-33q-.49-21.63,12-35.26t33.6-13.91q19.92-.27,32.3,12.46c8.24,8.47,12.35,19.7,12.41,33.65q.09,21.51-12.39,34.74T928.65,1448Zm-.14-76.66q-11,.15-17.31,8.37t-6.07,21.58q.25,13.54,6.79,21.33a20.62,20.62,0,0,0,16.87,7.63q10.66-.14,16.85-7.86t6.09-21.34q-.12-14.19-6.33-22T928.51,1371.29Z"/><path class="cls-4" d="M1066.19,1443.17c-6.72,3.13-15.44,4.62-26.17,4.53-14-.13-25-4.28-33-12.53s-12.06-19.2-12.06-32.9c0-14.59,4.54-26.42,13.75-35.48s21.14-13.54,35.81-13.4q13.63.13,22.92,3.65-.14,9.89-.28,19.78a40.8,40.8,0,0,0-21.13-5.73c-8.71-.08-15.77,2.56-21.12,7.92s-8.06,12.64-8.1,21.84q-.06,13.23,7.39,21.13c5,5.27,11.66,7.92,20.09,8a43.47,43.47,0,0,0,22.19-5.59Z"/><path class="cls-4" d="M1114.37,1447.33q-10.29-.24-20.57-.45.9-45.6,1.81-91.21,10.47.21,21,.46Z"/><path class="cls-4" d="M1227.13,1451.33q-11.2-.52-22.41-1-2.81-10.27-5.66-20.55-16.29-.66-32.59-1.23-3.59,10-7.13,20.07-11.14-.37-22.28-.69,17.91-45.12,36.45-90.11,12.42.43,24.83.94Q1213,1405,1227.13,1451.33Zm-32.17-37.5q-4.32-15.52-8.7-31a39.07,39.07,0,0,1-1.24-8.26l-.52,0a34.65,34.65,0,0,1-1.91,7.89q-5.61,15.25-11.16,30.53Q1183.21,1413.36,1195,1413.83Z"/><path class="cls-4" d="M1309.86,1381.25q-13.2-.82-26.41-1.58l-4.26,74.37q-10.31-.58-20.62-1.14l4-74.39q-13.14-.71-26.28-1.33.4-8.36.8-16.71,36.93,1.77,73.86,4.08Z"/><path class="cls-4" d="M1383.85,1461.16q-27.31-2.15-54.66-4l6.15-91q26.78,1.81,53.54,3.91-.66,8.34-1.31,16.68-16.24-1.27-32.51-2.44-.74,10.13-1.45,20.24,15.06,1.08,30.13,2.26l-1.29,16.61q-15-1.15-30-2.24-.73,10.41-1.49,20.81,17.13,1.23,34.24,2.58Q1384.52,1452.86,1383.85,1461.16Z"/><path class="cls-4" d="M734.43,544.69q-9,4.77-22.5,4.77-17.38,0-27.84-11.19t-10.46-29.38q0-19.54,11.76-31.59t29.83-12.05q11.6,0,19.21,3.36v10.17a38.93,38.93,0,0,0-19.32-4.89q-14,0-22.76,9.38t-8.72,25.05q0,14.9,8.15,23.73t21.4,8.83q12.26,0,21.25-5.46Z"/><path class="cls-4" d="M814,548.1H770.8V466.62h41.36v8.63H780.35v27.11h29.42v8.58H780.35v28.52H814Z"/><path class="cls-4" d="M907.85,548.1H896.49l-13.64-22.84a49,49,0,0,0-3.63-5.43,21,21,0,0,0-3.61-3.67,12.84,12.84,0,0,0-4-2.07,16.2,16.2,0,0,0-4.8-.65H859V548.1h-9.54V466.62h24.31a34.68,34.68,0,0,1,9.86,1.33,22,22,0,0,1,7.84,4.07,18.84,18.84,0,0,1,5.2,6.79,22.51,22.51,0,0,1,1.88,9.51,22.79,22.79,0,0,1-1.29,7.82,20.18,20.18,0,0,1-3.63,6.33,22.1,22.1,0,0,1-5.68,4.75,28.66,28.66,0,0,1-7.47,3v.24a17,17,0,0,1,3.55,2.07,19.93,19.93,0,0,1,2.87,2.75,36.84,36.84,0,0,1,2.69,3.61q1.33,2,3,4.69ZM859,475.25V504.8h13a19.6,19.6,0,0,0,6.62-1.08,15.36,15.36,0,0,0,5.26-3.1,14,14,0,0,0,3.46-4.94,16.61,16.61,0,0,0,1.25-6.56q0-6.53-4.23-10.2c-2.83-2.44-6.9-3.67-12.24-3.67Z"/><path class="cls-4" d="M981.78,475.25H958.26V548.1h-9.55V475.25H925.25v-8.63h56.53Z"/><path class="cls-4" d="M1023.89,548.1h-9.54V466.62h9.54Z"/><path class="cls-4" d="M1106.46,475.25h-31.82v28.19h29.43V512h-29.43V548.1h-9.55V466.62h41.37Z"/><path class="cls-4" d="M1151.24,548.1h-9.55V466.62h9.55Z"/><path class="cls-4" d="M1235.62,548.1h-43.18V466.62h41.37v8.63H1202v27.11h29.43v8.58H1202v28.52h33.63Z"/><path class="cls-4" d="M1271.09,548.1V466.62h22.49q43.08,0,43.07,39.71,0,18.87-12,30.32t-32,11.45Zm9.54-72.85v64.21h12.16q16,0,25-8.58t8.91-24.32q0-31.31-33.29-31.31Z"/><path class="cls-5" d="M575.42,870.49Q572.22,831.22,569,792q12.24-1,24.48-1.93C624.8,787.64,641.3,799.44,643,825q1.23,18.21-10.87,30.13c-8,8-19.23,12.45-33.59,13.56Q587,869.55,575.42,870.49Zm8.5-68.59,4.44,56.48,11.08-.86q14.65-1.11,22.25-9.25t6.66-22c-1.28-18.37-12.18-26.88-32.69-25.32Z"/><path class="cls-5" d="M716.24,782.08q-12.57,25.78-24.88,51.63.82,14.28,1.66,28.57l-13.88.83q-.85-14.15-1.72-28.3-15-24.34-30.17-48.62l16-1q9.4,16.33,18.71,32.71.33.58,2,4.44h.17a31.06,31.06,0,0,1,1.67-4.66q7.68-17.39,15.46-34.74Z"/><path class="cls-5" d="M803.22,857l-15.17.59q-21.13-28.14-42.72-56.09a25.19,25.19,0,0,1-2.75-4.43h-.36a74,74,0,0,1,1,10.79l2.49,51.58-13.41.67-4-78.69c5.46-.28,10.93-.54,16.39-.81q20.94,27.32,41.47,54.78c1.74,2.27,2.85,3.84,3.36,4.7h.23a65.42,65.42,0,0,1-1-10.57q-1-25.37-2-50.73l13.57-.52Q801.76,817.65,803.22,857Z"/><path class="cls-5" d="M893.87,854.45q-7.62.15-15.24.33-4-9.94-8-19.87-16.51.39-33,.89-3.33,10.14-6.63,20.27l-15.17.5q14.31-39.92,29.09-79.74,7.93-.24,15.87-.44Q877.54,815.38,893.87,854.45Zm-27.2-30.11q-6.23-15.57-12.52-31.12a32.85,32.85,0,0,1-1.26-4.91h-.24a30.33,30.33,0,0,1-1,5q-5.39,15.87-10.7,31.75Q853.79,824.65,866.67,824.34Z"/><path class="cls-5" d="M996.45,853.46q-6.88,0-13.78,0l-.12-51c0-4.18.25-9.28.78-15.33h-.24a50.05,50.05,0,0,1-2.28,7.42q-12.55,29.49-24.82,59l-9.57.08q-12.79-29.12-25.88-58.15a52.74,52.74,0,0,1-2.35-7.83H918c.36,3.15.6,8.28.7,15.43L919.4,854l-12.84.2-1.35-78.77q9.93-.18,19.85-.31,11.52,26.08,22.82,52.22a76.67,76.67,0,0,1,3.36,9h.29q2.12-6.23,3.44-9.26Q966,800.88,977.32,774.7q9.57,0,19.14,0Q996.46,814.06,996.45,853.46Z"/><path class="cls-5" d="M1032.49,853.59l-14.3-.08q.16-39.39.34-78.79l14.52.09Q1032.76,814.2,1032.49,853.59Z"/><path class="cls-5" d="M1112.73,851.49q-9.57,4.39-23.62,4.13c-12.14-.21-21.8-4-29-11.26s-10.82-16.81-10.7-28.53q.2-18.89,12.83-30.41T1094,774.27q12.33.24,20.38,3.67-.15,6.48-.29,13a38.27,38.27,0,0,0-18.82-5.11q-13.79-.27-22.45,7.8T1064,815.34q-.16,13,7.64,20.85c5.19,5.22,12.07,7.89,20.65,8.06q11.87.22,20.7-4.85Z"/><path class="cls-5" d="M1125.94,852q.18-6.74.34-13.46a22.52,22.52,0,0,0,4.52,3.08,37.27,37.27,0,0,0,5.59,2.38,47.58,47.58,0,0,0,5.93,1.56,33.65,33.65,0,0,0,5.48.66c5.84.16,10.23-.61,13.15-2.35a8.89,8.89,0,0,0,4.56-7.83,8.37,8.37,0,0,0-1.28-4.9,14.55,14.55,0,0,0-3.9-3.89,43.86,43.86,0,0,0-6-3.46q-3.45-1.66-7.39-3.49c-2.82-1.5-5.44-3-7.88-4.56a34.35,34.35,0,0,1-6.3-5,20.38,20.38,0,0,1-4.15-6.13,18.4,18.4,0,0,1-1.36-7.89,17.15,17.15,0,0,1,2.93-9.57,21.8,21.8,0,0,1,7.28-6.58,33.78,33.78,0,0,1,10.15-3.67,50.9,50.9,0,0,1,11.52-.94q13.35.42,19.34,3.44l-.45,12.9q-7-5.07-18.39-5.44a36.47,36.47,0,0,0-6.26.35,19.77,19.77,0,0,0-5.61,1.65,11.82,11.82,0,0,0-4.08,3.13,7.56,7.56,0,0,0-1.67,4.74,8.49,8.49,0,0,0,1,4.58,12.3,12.3,0,0,0,3.35,3.62,35.46,35.46,0,0,0,5.45,3.26c2.14,1.08,4.64,2.24,7.47,3.5,2.89,1.52,5.61,3.12,8.17,4.77a38.77,38.77,0,0,1,6.7,5.45,23,23,0,0,1,4.48,6.51,17.55,17.55,0,0,1,1.45,8,18.71,18.71,0,0,1-2.93,10,20.27,20.27,0,0,1-7.15,6.47,32.06,32.06,0,0,1-10.14,3.4,60.64,60.64,0,0,1-12,.79c-1.41,0-3.12-.19-5.16-.45s-4.12-.62-6.25-1.05-4.14-1-6-1.56A20.52,20.52,0,0,1,1125.94,852Z"/><path class="cls-5" d="M1227,855.71q.26-6,.53-12a30.37,30.37,0,0,0,18.19,6.94q8.36.4,13.53-2.9a11.29,11.29,0,0,0,5.5-9.4c.47-8.92-6.6-13.78-21.21-14.48l-6.52-.3.48-10.21,6.23.29c13,.62,19.68-3.24,20.12-11.66q.6-11.62-14.65-12.39a26,26,0,0,0-16.27,4.9l.51-11.3q8.83-4.11,20.63-3.54,11.31.56,17.84,6.19a16.32,16.32,0,0,1,6.07,13.86q-.84,15.53-18,19.08c0,.08,0,.15,0,.22q9.07,1.29,14.08,6.71a17,17,0,0,1,4.59,13.09,20.56,20.56,0,0,1-9.39,16.63c-5.88,4-13.4,5.83-22.62,5.38Q1234.2,860.26,1227,855.71Z"/><path class="cls-5" d="M1351,840.26a27.32,27.32,0,0,1-2.82,10.66,25.34,25.34,0,0,1-6.32,8,25.66,25.66,0,0,1-9.08,4.91,30.21,30.21,0,0,1-11,1.25,28.79,28.79,0,0,1-11.43-3,24.75,24.75,0,0,1-8.69-7.4,32.27,32.27,0,0,1-5.27-11.68,53.3,53.3,0,0,1-1.2-15.83A61.65,61.65,0,0,1,1299,808a41.24,41.24,0,0,1,8.53-13.7,32.64,32.64,0,0,1,12-8,34.57,34.57,0,0,1,14.51-2.06,57.62,57.62,0,0,1,8.69,1.18,25.65,25.65,0,0,1,6.18,2.06q-.39,5.73-.77,11.46a42.77,42.77,0,0,0-6.27-2.84,28.29,28.29,0,0,0-7.79-1.5,22.24,22.24,0,0,0-9.27,1.28,20.08,20.08,0,0,0-7.57,5,26.21,26.21,0,0,0-5.31,8.6,40.12,40.12,0,0,0-2.54,12.09l.36,0a18.61,18.61,0,0,1,7.69-5.69,24.67,24.67,0,0,1,11-1.57,28.11,28.11,0,0,1,9.87,2.32A20.63,20.63,0,0,1,1350,830,28.73,28.73,0,0,1,1351,840.26Zm-13.78.12a21.33,21.33,0,0,0-.44-6.24,12.88,12.88,0,0,0-2.27-5,11.49,11.49,0,0,0-4.14-3.38,16,16,0,0,0-6.07-1.49,15.2,15.2,0,0,0-6.26.8,13.51,13.51,0,0,0-4.69,2.82,12.79,12.79,0,0,0-3,4.22,14.32,14.32,0,0,0-1.21,5,20.22,20.22,0,0,0,.5,5.78,17,17,0,0,0,2.28,5.51,14,14,0,0,0,4.22,4.24,12.68,12.68,0,0,0,6.36,2,14.14,14.14,0,0,0,6-.77,12,12,0,0,0,4.5-2.9,14.16,14.16,0,0,0,2.94-4.63A19.1,19.1,0,0,0,1337.21,840.38Z"/><path class="cls-5" d="M1364.15,864.75l.87-12.22a31.16,31.16,0,0,0,16.33,6.42q8.51.64,14-3a13.17,13.17,0,0,0,6.05-10.47,12,12,0,0,0-4.5-10.82c-3.35-2.75-8.33-4.39-14.94-4.88q-3.4-.25-13.83-.34,3-20.55,6-41.11,20.88,1.51,41.75,3.18c-.29,3.61-.58,7.23-.86,10.84q-15.13-1.21-30.28-2.33-1.44,9.78-2.87,19.57,4.08.08,7.37.33c8.94.66,15.68,3.35,20.21,8s6.5,10.71,5.89,18.11q-.93,11.67-9.82,18t-23.35,5.28C1374,868.7,1368,867.2,1364.15,864.75Z"/><path class="cls-5" d="M441.9,1028.85l-1.47-13.38a21.92,21.92,0,0,0,4.76,2.46,37.12,37.12,0,0,0,5.7,1.62,45.21,45.21,0,0,0,5.93.77,32.59,32.59,0,0,0,5.37-.08q8.49-.9,12.36-4.06a8.94,8.94,0,0,0,3.35-8.36,8.48,8.48,0,0,0-1.89-4.69,14.38,14.38,0,0,0-4.28-3.34,42.29,42.29,0,0,0-6.22-2.64q-3.54-1.2-7.59-2.48c-2.92-1.13-5.66-2.29-8.2-3.48A34.19,34.19,0,0,1,443,987a20.28,20.28,0,0,1-4.81-5.53,18.83,18.83,0,0,1-2.38-7.64,17.53,17.53,0,0,1,1.55-9.87,21.45,21.45,0,0,1,6.13-7.47,32.47,32.47,0,0,1,9.29-5,48.72,48.72,0,0,1,11-2.46q12.92-1.33,19.11.87l1.29,12.84q-7.49-4.11-18.47-3a33.84,33.84,0,0,0-6,1.18,18.61,18.61,0,0,0-5.19,2.38A11.58,11.58,0,0,0,451,967a7.7,7.7,0,0,0-1,4.91,8.71,8.71,0,0,0,1.63,4.41,11.75,11.75,0,0,0,3.71,3.14A33.71,33.71,0,0,0,461,982c2.21.78,4.77,1.61,7.66,2.48q4.5,1.69,8.52,3.65a37.73,37.73,0,0,1,7.19,4.52,22.58,22.58,0,0,1,5.18,5.85,18.17,18.17,0,0,1,2.47,7.74,19.19,19.19,0,0,1-1.49,10.31,19.83,19.83,0,0,1-6,7.34,30.76,30.76,0,0,1-9.31,4.71,56.88,56.88,0,0,1-11.46,2.36c-1.35.15-3,.22-5,.24s-4.05-.07-6.16-.22a60,60,0,0,1-6-.75A18.81,18.81,0,0,1,441.9,1028.85Z"/><path class="cls-5" d="M579,1018.74,564.25,1020q-4.5-9.68-9-19.34-16,1.4-32,2.89-2.58,10.32-5.14,20.63-7.33.69-14.69,1.42,11.33-40.69,23.14-81.34,7.69-.71,15.39-1.39Q560.68,980.74,579,1018.74Zm-28.32-28.4q-7-15.15-14.14-30.29a34,34,0,0,1-1.53-4.83l-.23,0a31.43,31.43,0,0,1-.7,5q-4.22,16.17-8.36,32.33Q538.22,991.45,550.7,990.34Z"/><path class="cls-5" d="M638.56,1014.16q-22.47,1.61-44.92,3.39-3.15-39.27-6.28-78.53c4.55-.37,9.11-.72,13.67-1.08l5.22,67.55q15.76-1.22,31.53-2.34Z"/><path class="cls-5" d="M699.34,1010.22q-22.8,1.34-45.58,2.89l-5.34-78.61q22.22-1.5,44.45-2.82l.66,11.08q-15.36.9-30.71,1.91.73,11.13,1.46,22.26,14.07-.93,28.16-1.76l.66,11Q679,977,665,978q.75,11.63,1.51,23.24,16.1-1.05,32.18-2C698.91,1002.87,699.12,1006.55,699.34,1010.22Z"/><path class="cls-5" d="M713.34,1006.28l-.75-13.44a21.63,21.63,0,0,0,4.62,2.71,35.63,35.63,0,0,0,5.61,1.93,45,45,0,0,0,5.86,1.09,32.25,32.25,0,0,0,5.36.21q8.52-.43,12.55-3.38a9,9,0,0,0,3.79-8.17,8.53,8.53,0,0,0-1.63-4.79,14.44,14.44,0,0,0-4.09-3.56,40.29,40.29,0,0,0-6.06-3q-3.47-1.39-7.44-2.89-4.27-1.93-8-3.92a33.86,33.86,0,0,1-6.52-4.52,20.28,20.28,0,0,1-4.5-5.78,18.83,18.83,0,0,1-2-7.76,17.55,17.55,0,0,1,2.07-9.77,21.76,21.76,0,0,1,6.53-7.13,32.78,32.78,0,0,1,9.54-4.47,49.09,49.09,0,0,1,11.09-1.86q13-.63,19,1.9l.6,12.89c-4.81-3-10.91-4.33-18.26-4a33.3,33.3,0,0,0-6,.85,18.62,18.62,0,0,0-5.3,2.09,11.7,11.7,0,0,0-3.71,3.44,7.74,7.74,0,0,0-1.23,4.86,8.7,8.7,0,0,0,1.38,4.49,11.86,11.86,0,0,0,3.54,3.33,33.46,33.46,0,0,0,5.54,2.83c2.16.9,4.67,1.87,7.51,2.89q4.38,1.92,8.3,4.1a37.65,37.65,0,0,1,6.92,4.9,22.91,22.91,0,0,1,4.86,6.13,18.06,18.06,0,0,1,2.05,7.85,19.31,19.31,0,0,1-2,10.22,20.09,20.09,0,0,1-6.41,7,30.93,30.93,0,0,1-9.54,4.2,58.61,58.61,0,0,1-11.55,1.74c-1.36.07-3,.06-5,0s-4-.29-6.14-.56a56.78,56.78,0,0,1-6-1.07A19.26,19.26,0,0,1,713.34,1006.28Z"/><path class="cls-5" d="M861.4,935.59q-15.4.39-30.8.9.39,11.84.77,23.67,14.11-.46,28.25-.84c.1,3.68.19,7.36.29,11q-14.08.38-28.18.83.53,16.47,1.06,32.95l-13.49.45q-1.38-39.36-2.75-78.73,22.28-.78,44.56-1.37Q861.25,930,861.4,935.59Z"/><path class="cls-5" d="M943.33,969.92c.21,22.13-10.49,33.26-32.09,33.62-20.69.36-31.29-10-31.79-31.3q-.56-24.09-1.1-48.17l13.7-.3q.47,22.74.92,45.49.48,23.18,19.11,22.83,17.94-.29,17.66-22.62l-.6-46.31q6.86-.09,13.7-.16Q943.1,946.46,943.33,969.92Z"/><path class="cls-5" d="M1035.21,1001.67q-7.38-.06-14.75-.09-19.28-29.05-39-58a25,25,0,0,1-2.49-4.55h-.34a78.46,78.46,0,0,1,.49,10.82q.09,25.82.17,51.64l-13,.06q-.24-39.39-.46-78.79,8,0,16-.06,19.14,28.21,37.86,56.57c1.59,2.35,2.59,4,3,4.85h.22a68.72,68.72,0,0,1-.5-10.61l.27-50.77,13.19.09Q1035.51,962.28,1035.21,1001.67Z"/><path class="cls-5" d="M1115.6,999.65q-9.31,4.38-23,4.12-17.69-.33-28.19-11.29t-10.36-28.54q.23-18.9,12.51-30.39t31-11.12q12,.24,19.8,3.67-.16,6.48-.31,13a36.36,36.36,0,0,0-18.28-5.13q-13.4-.27-21.83,7.79t-8.61,21.74q-.18,13,7.39,20.85t20,8.08q11.52.23,20.12-4.84Q1115.74,993.61,1115.6,999.65Z"/><path class="cls-5" d="M1189.13,937.5q-11.84-.45-23.67-.85l-2.25,67.66q-6.75-.24-13.49-.44l2.07-67.65q-11.8-.36-23.61-.67.13-5.55.29-11.1,30.54.79,61.08,2Z"/><path class="cls-5" d="M1215.78,1006.33l-13.89-.59q1.6-39.36,3.22-78.72,7.07.29,14.11.6Q1217.49,967,1215.78,1006.33Z"/><path class="cls-5" d="M1272.66,1010.46q-17.55-1-27.57-12.5t-9.23-29.21q.9-19,12.34-29.77t30.26-9.75c11.59.64,20.71,4.86,27.32,12.59s9.53,17.54,8.79,29.34q-1.21,19.25-12.63,29.77T1272.66,1010.46Zm4.48-69.8q-11.31-.61-18.82,7.08t-8.15,20.88q-.66,13.13,5.76,21.47a22.42,22.42,0,0,0,17.42,9q11.69.65,18.89-6.57t8-20.94q.84-14.07-5.32-22.16T1277.14,940.66Z"/><path class="cls-5" d="M1399.22,1017.7l-14.7-1.16q-17.16-30.36-34.75-60.61a24.87,24.87,0,0,1-2.14-4.72l-.35,0A77.86,77.86,0,0,1,1347,962l-3.57,51.52-13-.88q2.61-39.3,5.23-78.61l15.93,1.08q17.06,29.53,33.69,59.17,2.12,3.68,2.7,5.06h.22a68.18,68.18,0,0,1,.26-10.62l3.93-50.61,13.16,1Q1402.38,978.44,1399.22,1017.7Z"/><path class="cls-5" d="M1489.36,1025.76l-14.74-1.43q-2.7-10.32-5.42-20.65-16-1.51-32-2.91-4.39,9.68-8.76,19.37-7.35-.64-14.7-1.25,18.45-38,37.37-75.86l15.39,1.4Q1478.16,985.08,1489.36,1025.76Zm-22.74-33q-4.2-16.17-8.48-32.34a36.69,36.69,0,0,1-.63-5l-.23,0a30.9,30.9,0,0,1-1.59,4.83q-7.07,15.14-14,30.29Q1454.14,991.57,1466.62,992.73Z"/><path class="cls-5" d="M1548.8,1032q-22.41-2.48-44.83-4.75,4-39.19,7.94-78.39l13.65,1.4q-3.51,33.71-7,67.39,15.73,1.64,31.46,3.37Q1549.4,1026.48,1548.8,1032Z"/><path class="cls-5" d="M673.82,1156.85Q665.23,1162,652,1163c-11.42.8-20.83-2.1-28.27-8.78s-11.65-15.83-12.56-27.52q-1.49-18.84,9.39-31.36t29-13.79q11.63-.81,19.48,1.93.43,6.48.85,12.94a34.53,34.53,0,0,0-18.14-3.51q-13,.9-20.42,9.67c-5,5.84-7.08,13.31-6.39,22.4q1,13,9,20.13t20.11,6.3a35.55,35.55,0,0,0,19-6.58Q673.42,1150.82,673.82,1156.85Z"/><path class="cls-5" d="M726.87,1158.27q-17,.93-28-9.45t-12.07-28q-1.2-19,8.7-30.93t28.14-12.95q16.88-.93,27.73,9.56t11.64,28.21q.91,19.26-9,31T726.87,1158.27Zm-3.22-69.87a22.35,22.35,0,0,0-17.4,9.07c-4.27,5.65-6.12,12.86-5.6,21.64s3.16,15.64,7.89,20.72a21.47,21.47,0,0,0,17.76,7q11.36-.61,17.52-8.57t5.49-21.68q-.69-14.1-7.51-21.46T723.65,1088.4Z"/><path class="cls-5" d="M853.08,1151.64l-14.3.44q-19.77-28.33-40-56.51a25,25,0,0,1-2.57-4.46l-.34,0a82,82,0,0,1,.88,10.79l2.07,51.6-12.64.53q-1.7-39.36-3.37-78.72l15.48-.64q19.62,27.52,38.82,55.18c1.62,2.29,2.67,3.88,3.14,4.74h.22a70.33,70.33,0,0,1-.89-10.58q-.8-25.37-1.61-50.74l12.81-.39Q851.93,1112.27,853.08,1151.64Z"/><path class="cls-5" d="M875.66,1147.91q-.15-6.73-.32-13.46a21.42,21.42,0,0,0,4.4,2.86,33.76,33.76,0,0,0,5.38,2.1,42.89,42.89,0,0,0,5.65,1.28,30.54,30.54,0,0,0,5.2.39c5.51-.12,9.6-1.1,12.27-3a9,9,0,0,0,3.92-8,8.68,8.68,0,0,0-1.43-4.84,14.25,14.25,0,0,0-3.86-3.69,40.69,40.69,0,0,0-5.79-3.17q-3.33-1.5-7.14-3.13c-2.73-1.37-5.26-2.76-7.63-4.17a33.12,33.12,0,0,1-6.19-4.73,20.47,20.47,0,0,1-4.19-5.91,19.29,19.29,0,0,1-1.67-7.82,17.85,17.85,0,0,1,2.3-9.7,21.28,21.28,0,0,1,6.54-6.92,31.07,31.07,0,0,1,9.39-4.16,45.68,45.68,0,0,1,10.82-1.5c8.4-.16,14.53.69,18.39,2.5q.1,6.45.19,12.9c-4.58-3.15-10.44-4.68-17.59-4.54a32.49,32.49,0,0,0-5.88.66,18,18,0,0,0-5.21,1.92,11.39,11.39,0,0,0-3.69,3.32,7.87,7.87,0,0,0-1.35,4.81,8.92,8.92,0,0,0,1.21,4.53,11.66,11.66,0,0,0,3.33,3.45,32.36,32.36,0,0,0,5.29,3q3.11,1.45,7.2,3.13c2.8,1.38,5.45,2.85,7.93,4.37a36.4,36.4,0,0,1,6.57,5.12,23.08,23.08,0,0,1,4.53,6.27,18.52,18.52,0,0,1,1.75,7.92,18.64,18.64,0,0,1-8.71,17,29.55,29.55,0,0,1-9.39,3.89,53.3,53.3,0,0,1-11.25,1.37,47.83,47.83,0,0,1-4.88-.2c-1.93-.17-3.91-.41-5.93-.75a57,57,0,0,1-5.76-1.27A18.41,18.41,0,0,1,875.66,1147.91Z"/><path class="cls-5" d="M1008.29,1117.72c-.07,22.14-10.59,33.13-31.56,33.2-20.09.09-30.24-10.41-30.47-31.7l-.48-48.19,13.31-.11.33,45.49c.12,15.46,6.21,23.13,18.26,23.08,11.61,0,17.43-7.48,17.43-22.39v-46.32l13.31,0Q1008.36,1094.26,1008.29,1117.72Z"/><path class="cls-5" d="M1077.22,1150.25q-21.85-.36-43.7-.53.32-39.39.62-78.79l13.3.12q-.36,33.89-.71,67.75,15.35.15,30.67.41Z"/><path class="cls-5" d="M1141.23,1084q-11.49-.33-23-.62-.83,33.84-1.67,67.67l-13.1-.31q.73-33.84,1.49-67.67-11.46-.25-22.93-.45.1-5.55.19-11.1,29.67.51,59.33,1.39C1141.44,1076.63,1141.34,1080.32,1141.23,1084Z"/><path class="cls-5" d="M1214.15,1154.46q-7.17-.33-14.35-.62-3.12-10.17-6.28-20.33-15.58-.63-31.16-1.16-3.77,9.92-7.5,19.82-7.15-.24-14.31-.45,15.95-38.94,32.36-77.77,7.48.27,15,.56Q1201.25,1114.44,1214.15,1154.46Zm-23.69-31.74q-4.89-15.92-9.85-31.83a37,37,0,0,1-.87-5h-.22a31.64,31.64,0,0,1-1.3,4.9q-6.08,15.51-12.07,31Q1178.3,1122.24,1190.46,1122.72Z"/><path class="cls-5" d="M1298.6,1159q-7.14-.45-14.29-.87-17.11-30-34.69-59.91a25.63,25.63,0,0,1-2.16-4.68l-.34,0a77.26,77.26,0,0,1-.11,10.83q-1.3,25.8-2.62,51.58l-12.64-.62q1.89-39.36,3.8-78.7l15.47.77q17,29.19,33.66,58.48a53.92,53.92,0,0,1,2.69,5h.23a70.65,70.65,0,0,1,.07-10.62q1.51-25.34,3-50.68c4.26.26,8.53.51,12.79.78Q1301,1119.65,1298.6,1159Z"/><path class="cls-5" d="M1380.65,1096.85q-11.46-.88-22.94-1.73-2.48,33.75-4.94,67.51l-13.08-.94q2.38-33.76,4.76-67.52-11.45-.81-22.89-1.56.36-5.55.73-11.08,29.63,2,59.22,4.26Q1381.09,1091.31,1380.65,1096.85Z"/><path class="cls-4" d="M788.23,400.57H764.69V337.25q0-10.26.88-22.65H765a112.39,112.39,0,0,1-3.31,14l-24.8,72H717.38l-25.24-71.22q-1-2.88-3.32-14.75h-.66q.95,15.64,1,27.45v58.52H667.64V294.74h34.91l21.62,62.73a89,89,0,0,1,3.77,15.13h.44a152.86,152.86,0,0,1,4.21-15.28l21.62-62.58h34Z"/><path class="cls-4" d="M820.3,313.05a13.61,13.61,0,0,1-9.67-3.51,11.29,11.29,0,0,1-3.76-8.6,10.9,10.9,0,0,1,3.76-8.56,15.79,15.79,0,0,1,19.37,0,10.94,10.94,0,0,1,3.73,8.56,11.22,11.22,0,0,1-3.73,8.71A13.84,13.84,0,0,1,820.3,313.05Zm11.51,87.52H808.49V325h23.32Z"/><path class="cls-4" d="M907.2,397.84q-7.89,4.57-22.8,4.58-17.42,0-28.19-10.56t-10.78-27.23q0-19.26,11.55-30.37t30.89-11.11q13.35,0,19.33,3.55v19.78A26.6,26.6,0,0,0,890.89,341q-10,0-15.9,5.87t-5.87,16.2q0,10,5.61,15.76t15.43,5.72a30.78,30.78,0,0,0,17-5.46Z"/><path class="cls-4" d="M970.27,346a20.32,20.32,0,0,0-9.82-2.29,14.16,14.16,0,0,0-11.88,5.58q-4.27,5.56-4.28,15.16v36.09H921V325h23.33v14h.29q5.53-15.34,19.93-15.35a14.85,14.85,0,0,1,5.76.89Z"/><path class="cls-4" d="M1015.62,402.42q-18.9,0-29.71-10.59T975.1,363.08q0-18.74,11.22-29.34t30.33-10.59q18.81,0,29.52,10.59t10.7,28q0,18.83-11,29.75T1015.62,402.42Zm.59-61.41q-8.26,0-12.84,5.69t-4.58,16.09q0,21.76,17.57,21.77,16.74,0,16.75-22.36Q1033.11,341,1016.21,341Z"/><path class="cls-4" d="M1065.54,398.58V379.69a49.78,49.78,0,0,0,11.48,5.16,37.76,37.76,0,0,0,10.81,1.7c4.14,0,7.39-.56,9.78-1.7s3.58-2.85,3.58-5.16a4.77,4.77,0,0,0-1.62-3.69,15.08,15.08,0,0,0-4.17-2.59,49.38,49.38,0,0,0-5.57-2c-2-.59-4-1.25-5.84-2a56.24,56.24,0,0,1-7.93-3.65,23.11,23.11,0,0,1-5.76-4.54,17.82,17.82,0,0,1-3.54-6,23.92,23.92,0,0,1-1.22-8.05,20.77,20.77,0,0,1,2.77-10.92,22.67,22.67,0,0,1,7.38-7.49,33.79,33.79,0,0,1,10.56-4.28,55,55,0,0,1,12.36-1.37,69.36,69.36,0,0,1,10.18.78,76,76,0,0,1,10.19,2.25v18a37.23,37.23,0,0,0-9.49-3.88,40,40,0,0,0-9.92-1.29,22,22,0,0,0-4.32.41,13.93,13.93,0,0,0-3.58,1.18,6.64,6.64,0,0,0-2.44,2,4.57,4.57,0,0,0-.88,2.77,5.08,5.08,0,0,0,1.33,3.54,11.29,11.29,0,0,0,3.47,2.55,34.67,34.67,0,0,0,4.76,1.92c1.74.57,3.48,1.14,5.2,1.73a70.26,70.26,0,0,1,8.41,3.54,27.35,27.35,0,0,1,6.46,4.5,17.66,17.66,0,0,1,4.13,6.06,24.23,24.23,0,0,1-1.47,19.74,23.44,23.44,0,0,1-7.75,7.75,35.17,35.17,0,0,1-11.15,4.35,61.08,61.08,0,0,1-13.1,1.37A67.54,67.54,0,0,1,1065.54,398.58Z"/><path class="cls-4" d="M1171.49,402.42q-18.88,0-29.7-10.59T1131,363.08q0-18.74,11.21-29.34t30.34-10.59q18.81,0,29.51,10.59t10.71,28q0,18.83-11,29.75T1171.49,402.42Zm.6-61.41q-8.28,0-12.85,5.69t-4.57,16.09q0,21.76,17.56,21.77,16.76,0,16.75-22.36Q1189,341,1172.09,341Z"/><path class="cls-4" d="M1275.66,306.55a23.52,23.52,0,0,0-8.63-1.77q-11.22,0-11.22,12.17V325h17.27v17.19h-17.27v58.38h-23.25V342.19h-12.69V325h12.69v-9.38q0-12.9,8.42-20.8t22.88-7.9a39.93,39.93,0,0,1,11.8,1.48Z"/><path class="cls-4" d="M1328.47,399.69q-5.16,2.73-15.57,2.73-24.66,0-24.65-25.61V342.19H1276V325h12.25V308.69l23.25-6.64V325h17v17.19h-17v30.56q0,11.81,9.37,11.81a15.77,15.77,0,0,0,7.6-2.14Z"/></svg>