<svg id="Layer_1" data-name="Layer 1" xmlns="http://www.w3.org/2000/svg" viewBox="0 0 2000 2000"><defs><style>.cls-1{fill:#002050;}.cls-2{fill:#fff;}.cls-3{fill:#0064b5;}.cls-4{fill:#505050;}.cls-5{fill:#16144b;}.cls-6{fill:#282828;}</style></defs><path class="cls-1" d="M1000,10a149.2,149.2,0,0,0-43.11,6.36L398.14,185A142.38,142.38,0,0,0,296.3,322.13v949.14c0,242.84,82.05,327.38,239.29,467.71,153.69,137.16,428.51,238,440.14,242.2L1000,1990l24.27-8.82c11.63-4.23,286.45-105,440.14-242.2,157.24-140.33,239.29-224.87,239.29-467.71V322.13A142.38,142.38,0,0,0,1601.86,185L1043.11,16.36A149.2,149.2,0,0,0,1000,10Z"/><path class="cls-2" d="M1581.33,253.07,1022.56,84.4a78.54,78.54,0,0,0-45.12,0L418.67,253.07a72.13,72.13,0,0,0-51.28,69.05V999.57H1632.61V322.12A72.13,72.13,0,0,0,1581.33,253.07Z"/><path class="cls-3" d="M367.39,1271.28c0,214,64.55,279.94,215.51,414.67,145.27,129.64,417.1,228.42,417.1,228.42s271.83-98.78,417.1-228.42c151-134.73,215.51-200.7,215.51-414.67V999.57H367.39Z"/><path class="cls-4" d="M1000,656.84c-300.5,0-593.32,25.46-870.34,75.68A102.73,102.73,0,0,0,47.27,854.08c25.46,125.27,54.59,278.35,74.23,390a113.27,113.27,0,0,0,111.74,93.78,114.58,114.58,0,0,0,23.46-2.44C354,1315,621.31,1267.58,1000,1267.58s646,47.43,743.31,67.82a114.42,114.42,0,0,0,23.45,2.44,113.27,113.27,0,0,0,111.74-93.78c19.64-111.64,48.77-264.72,74.23-390a102.73,102.73,0,0,0-82.39-121.56c-277-50.22-569.84-75.68-870.34-75.68Z"/><path class="cls-2" d="M1000,1230.27c315.15,0,582.57,33.34,751,68.61a76.19,76.19,0,0,0,90.8-61.28c20.68-117.62,50.24-272,74.41-390.95a65.42,65.42,0,0,0-52.49-77.42c-166.56-30.2-465-75.08-863.68-75.08h0c-398.71,0-697.12,44.88-863.68,75.08a65.42,65.42,0,0,0-52.49,77.42C108,965.58,137.56,1120,158.24,1237.6a76.19,76.19,0,0,0,90.8,61.28c168.39-35.27,435.81-68.61,751-68.61Z"/><path class="cls-5" d="M788.23,400.57H764.69V337.25q0-10.26.88-22.66H765a112.2,112.2,0,0,1-3.31,14l-24.8,72H717.38l-25.24-71.22q-1-2.88-3.32-14.76h-.66q.95,15.66,1,27.46v58.52H667.64V294.74h34.91l21.62,62.73a89,89,0,0,1,3.77,15.13h.44a152.11,152.11,0,0,1,4.21-15.28l21.62-62.58h34Z"/><path class="cls-5" d="M820.3,313a13.6,13.6,0,0,1-9.67-3.5,11.29,11.29,0,0,1-3.76-8.6,10.9,10.9,0,0,1,3.76-8.56,15.79,15.79,0,0,1,19.37,0,10.94,10.94,0,0,1,3.73,8.56,11.22,11.22,0,0,1-3.73,8.71A13.84,13.84,0,0,1,820.3,313Zm11.51,87.53H808.49V325h23.32Z"/><path class="cls-5" d="M907.2,397.84q-7.89,4.57-22.8,4.58-17.42,0-28.19-10.56t-10.78-27.23q0-19.26,11.55-30.37t30.89-11.11q13.35,0,19.33,3.55v19.78A26.6,26.6,0,0,0,890.89,341q-10,0-15.9,5.87t-5.87,16.2q0,10,5.61,15.76t15.43,5.72a30.78,30.78,0,0,0,17-5.46Z"/><path class="cls-5" d="M970.27,346a20.32,20.32,0,0,0-9.82-2.29,14.16,14.16,0,0,0-11.88,5.58q-4.27,5.56-4.28,15.16v36.09H921V325h23.33v14h.29q5.53-15.34,19.93-15.35a14.85,14.85,0,0,1,5.76.89Z"/><path class="cls-5" d="M1015.62,402.42q-18.9,0-29.71-10.59T975.1,363.08q0-18.74,11.22-29.34t30.33-10.59q18.81,0,29.52,10.59t10.7,28q0,18.83-11,29.75T1015.62,402.42Zm.59-61.41q-8.26,0-12.84,5.69t-4.58,16.09q0,21.76,17.57,21.77,16.74,0,16.75-22.36Q1033.11,341,1016.21,341Z"/><path class="cls-5" d="M1065.54,398.58V379.69a49.78,49.78,0,0,0,11.48,5.16,37.76,37.76,0,0,0,10.81,1.7c4.14,0,7.39-.56,9.78-1.7s3.58-2.85,3.58-5.16a4.77,4.77,0,0,0-1.62-3.69,15.08,15.08,0,0,0-4.17-2.59,49.38,49.38,0,0,0-5.57-2c-2-.59-4-1.25-5.84-2a56.24,56.24,0,0,1-7.93-3.65,23.11,23.11,0,0,1-5.76-4.54,17.92,17.92,0,0,1-3.54-6,23.92,23.92,0,0,1-1.22-8.05,20.77,20.77,0,0,1,2.77-10.92,22.67,22.67,0,0,1,7.38-7.49,33.79,33.79,0,0,1,10.56-4.28,55,55,0,0,1,12.36-1.37,68,68,0,0,1,10.18.78,76,76,0,0,1,10.19,2.25v18a37.23,37.23,0,0,0-9.49-3.88,40,40,0,0,0-9.92-1.29,22,22,0,0,0-4.32.41,13.93,13.93,0,0,0-3.58,1.18,6.64,6.64,0,0,0-2.44,2,4.57,4.57,0,0,0-.88,2.77,5.09,5.09,0,0,0,1.33,3.54,11.29,11.29,0,0,0,3.47,2.55,34.67,34.67,0,0,0,4.76,1.92c1.74.57,3.48,1.14,5.2,1.73a67.14,67.14,0,0,1,8.41,3.54,27.06,27.06,0,0,1,6.46,4.5,17.66,17.66,0,0,1,4.13,6.06,24.23,24.23,0,0,1-1.47,19.74,23.44,23.44,0,0,1-7.75,7.75,35.17,35.17,0,0,1-11.15,4.35,61.73,61.73,0,0,1-13.1,1.37A67.54,67.54,0,0,1,1065.54,398.58Z"/><path class="cls-5" d="M1171.49,402.42q-18.88,0-29.7-10.59T1131,363.08q0-18.74,11.21-29.34t30.34-10.59q18.81,0,29.51,10.59t10.71,28q0,18.83-11,29.75T1171.49,402.42Zm.6-61.41q-8.28,0-12.85,5.69t-4.57,16.09q0,21.76,17.56,21.77,16.76,0,16.75-22.36Q1189,341,1172.09,341Z"/><path class="cls-5" d="M1275.66,306.55a23.52,23.52,0,0,0-8.63-1.77q-11.22,0-11.22,12.17V325h17.27v17.19h-17.27v58.38h-23.25V342.19h-12.69V325h12.69v-9.38q0-12.9,8.42-20.8t22.88-7.9a39.93,39.93,0,0,1,11.8,1.48Z"/><path class="cls-5" d="M1328.47,399.69q-5.16,2.73-15.57,2.73-24.66,0-24.65-25.61V342.19H1276V325h12.25V308.69L1311.5,302v23h17v17.19h-17v30.56q0,11.81,9.37,11.81a15.77,15.77,0,0,0,7.6-2.14Z"/><path class="cls-5" d="M728.5,544.69q-9,4.77-22.49,4.77-17.38,0-27.85-11.19t-10.45-29.38q0-19.54,11.76-31.59t29.83-12.05q11.6,0,19.2,3.36v10.17a38.9,38.9,0,0,0-19.31-4.89q-14,0-22.76,9.38t-8.72,25.05q0,14.9,8.15,23.73t21.39,8.83q12.27,0,21.25-5.46Z"/><path class="cls-5" d="M808.06,548.09H764.88V466.62h41.36v8.63H774.42v27.11h29.43v8.58H774.42v28.52h33.64Z"/><path class="cls-5" d="M901.93,548.09H890.57l-13.64-22.83a49,49,0,0,0-3.63-5.43,21.34,21.34,0,0,0-3.61-3.67,12.84,12.84,0,0,0-4-2.07,16.19,16.19,0,0,0-4.8-.66h-7.84v34.66h-9.55V466.62h24.32A34.73,34.73,0,0,1,877.7,468a21.87,21.87,0,0,1,7.83,4.07,18.75,18.75,0,0,1,5.21,6.79,22.51,22.51,0,0,1,1.87,9.51,22.79,22.79,0,0,1-1.28,7.82,20.18,20.18,0,0,1-3.63,6.33,22.27,22.27,0,0,1-5.68,4.75,29,29,0,0,1-7.47,3v.24a17,17,0,0,1,3.55,2.07,19.93,19.93,0,0,1,2.87,2.75,38.52,38.52,0,0,1,2.69,3.61c.89,1.34,1.89,2.91,3,4.69Zm-48.86-72.84V504.8H866a19.68,19.68,0,0,0,6.62-1.08,15.22,15.22,0,0,0,5.25-3.1,13.93,13.93,0,0,0,3.47-4.94,16.61,16.61,0,0,0,1.25-6.56q0-6.53-4.24-10.2t-12.23-3.67Z"/><path class="cls-5" d="M975.86,475.25H952.33v72.84h-9.54V475.25H919.33v-8.63h56.53Z"/><path class="cls-5" d="M1018,548.09h-9.54V466.62H1018Z"/><path class="cls-5" d="M1100.53,475.25h-31.82v28.19h29.43V512h-29.43v36.07h-9.54V466.62h41.36Z"/><path class="cls-5" d="M1145.31,548.09h-9.54V466.62h9.54Z"/><path class="cls-5" d="M1229.7,548.09h-43.18V466.62h41.36v8.63h-31.82v27.11h29.44v8.58h-29.44v28.52h33.64Z"/><path class="cls-5" d="M1265.16,548.09V466.62h22.5q43.08,0,43.07,39.71,0,18.87-12,30.32t-32,11.44Zm9.55-72.84v64.21h12.16q16,0,24.94-8.58t8.92-24.32q0-31.31-33.29-31.31Z"/><polygon class="cls-2" points="1000 1436.83 1031.5 1533.78 1133.44 1533.78 1050.97 1593.7 1082.47 1690.64 1000 1630.73 917.53 1690.64 949.03 1593.7 866.56 1533.78 968.5 1533.78 1000 1436.83"/><path class="cls-6" d="M569.64,948q-11.68.75-23.36,1.55-6.85-15.4-13.75-30.79-25.35,1.77-50.69,3.74-4.35,16.21-8.64,32.44-11.62.91-23.25,1.88,18.87-64,38.66-127.85l24.42-1.8Q541.77,887.47,569.64,948Zm-44-45.63Q515,878.25,504.11,854.18a55.94,55.94,0,0,1-2.3-7.66l-.36,0a50.18,50.18,0,0,1-1.24,7.92q-7.11,25.41-14.09,50.83Q505.91,903.78,525.68,902.37Z"/><path class="cls-6" d="M675,826.52q-33.46,50.63-65.88,101.58,34.82-2,69.66-3.71.42,8.72.83,17.42-49.65,2.38-99.28,5.51l-.6-9.44Q612,887,645.38,836.51q-33.12,1.74-66.22,3.79-.55-8.74-1.09-17.49,48.23-3,96.5-5.3C674.71,820.51,674.86,823.51,675,826.52Z"/><path class="cls-6" d="M799.74,886.8c1,34.93-15.56,52.83-49.69,54.09-32.69,1.23-49.79-14.76-51.32-48.34q-1.69-38-3.4-76,10.86-.49,21.72-.94,1.49,35.88,3,71.77c1,24.39,11.34,36.15,31,35.42,18.9-.7,28-12.75,27.22-36.28l-2.4-73.09q10.86-.36,21.73-.68Z"/><path class="cls-6" d="M932.56,934.51q-12.46.12-24.92.29-10.49-16.51-21.08-33A69.26,69.26,0,0,0,881,894a32.05,32.05,0,0,0-5.5-5.23,18.27,18.27,0,0,0-6.06-2.92,25.53,25.53,0,0,0-7.34-.81l-8.67.18q.54,25.23,1.09,50.47-10.62.24-21.23.5-1.54-62.19-3.08-124.37,21.54-.52,43.09-.93a64.78,64.78,0,0,1,17,1.8,39.89,39.89,0,0,1,13.59,6.08A29.42,29.42,0,0,1,913,829.19a31.69,31.69,0,0,1,3.42,14.66,34.81,34.81,0,0,1-1.9,12.13,31,31,0,0,1-5.68,9.87,35.07,35.07,0,0,1-8.94,7.46,46.49,46.49,0,0,1-11.82,4.87c0,.12,0,.23,0,.35a33.27,33.27,0,0,1,6.21,4.1c1.77,1.51,3.44,3.06,5,4.66a55.81,55.81,0,0,1,4.73,5.44q2.34,3,5.18,7.09Q921,917.15,932.56,934.51ZM852.17,828.1l.87,40.42q9-.19,17.93-.36a27.67,27.67,0,0,0,9.16-1.65,21.39,21.39,0,0,0,7.22-4.37,19.4,19.4,0,0,0,4.7-6.84,22.31,22.31,0,0,0,1.58-9q-.14-8.94-6.12-13.87c-4-3.29-9.72-4.87-17.12-4.74Z"/><path class="cls-6" d="M1021.51,934.24q-36.07-.13-72.15.13l-.9-124.4q35.29-.26,70.59-.14l-.06,17.53q-24.36-.09-48.73,0l.15,35.22q22.32-.08,44.66,0,0,8.73-.05,17.44-22.28-.06-44.54,0,.06,18.39.14,36.78,25.49-.09,51,0Q1021.55,925.53,1021.51,934.24Z"/><path class="cls-6" d="M1098.5,935q.95-62.19,1.9-124.39,18.9.3,37.8.69c48.31,1,71.8,22.13,70.48,62.5q-.92,28.8-21.23,45.67t-53.37,16.17Q1116.29,935.24,1098.5,935Zm23.21-106.5-1.65,89.42,17.07.34q22.56.48,35.41-11.13c8.57-7.76,13.1-18.91,13.51-33.48.84-29.07-14.56-44.11-46.21-44.79Q1130.78,828.64,1121.71,828.47Z"/><path class="cls-6" d="M1334.62,942.79q-11.68-.6-23.38-1.15-5-16.1-10.11-32.17-25.37-1.17-50.76-2.13-6.18,15.61-12.31,31.23-11.64-.42-23.29-.8,26.1-61.38,53.09-122.55l24.46,1Q1313.92,879.45,1334.62,942.79Zm-38.4-50.39q-7.87-25.18-15.87-50.36a56.84,56.84,0,0,1-1.4-7.87l-.36,0a49.19,49.19,0,0,1-2.15,7.73q-10,24.4-19.83,48.86Q1276.41,891.51,1296.22,892.4Z"/><path class="cls-6" d="M1430.34,841.25q-18.73-1.2-37.47-2.31-3.13,53.35-6.28,106.7-10.65-.63-21.3-1.22,3-53.35,5.93-106.71-18.71-1.05-37.4-2,.45-8.75.88-17.5,48.39,2.41,96.76,5.54Q1430.9,832.52,1430.34,841.25Z"/><path class="cls-6" d="M1536.13,956.13l-23.34-1.86q-4.53-16.23-9.13-32.46-25.34-1.93-50.69-3.67-6.66,15.4-13.26,30.84-11.64-.78-23.27-1.52,28-60.56,56.82-120.87,12.21.85,24.42,1.77Q1517.36,892.19,1536.13,956.13Zm-36.86-51.53q-7.11-25.43-14.34-50.82a57,57,0,0,1-1.16-7.92l-.36,0a49,49,0,0,1-2.38,7.66q-10.72,24.09-21.32,48.23Q1479.5,903.11,1499.27,904.6Z"/><path class="cls-6" d="M348.07,1061q-23.6,2.35-47.17,4.88,2,18.59,4,37.18,21.6-2.31,43.23-4.49l1.74,17.35q-21.57,2.17-43.11,4.48,2.77,25.88,5.54,51.75-10.29,1.11-20.59,2.24L278,1050.73q34.13-3.76,68.29-7.18Z"/><path class="cls-6" d="M477.63,1106.1c2.77,34.84-12.36,53.51-45.36,56.41-31.62,2.81-49-12.34-52.26-45.8q-3.63-37.87-7.25-75.74,10.5-1,21-2,3.32,35.76,6.62,71.53,3.38,36.45,31.86,33.88c18.29-1.6,26.46-14.07,24.51-37.54q-3-36.43-6.1-72.88,10.51-.87,21-1.72Z"/><path class="cls-6" d="M621.73,1146.53q-11.29.66-22.57,1.36-32.55-43.79-65.94-87.24a40.69,40.69,0,0,1-4.3-6.91l-.53,0q1,3.95,1.93,17l5.85,81.34q-10,.72-19.95,1.46-4.65-62-9.31-124,12.26-.91,24.49-1.79,32.45,42.43,64.1,85.18,4,5.31,5.18,7.33l.35,0q-1.18-4.87-1.9-16.66-2.46-40-4.93-80,10.13-.63,20.26-1.22Q618.09,1084.44,621.73,1146.53Z"/><path class="cls-6" d="M657.88,1144.52l-6.57-124.23q18.33-1,36.65-1.84c46.84-2.18,71,17.29,72.42,57.66q1,28.79-17.48,47t-50.55,19.7Q675.12,1143.6,657.88,1144.52Zm15.28-107.81q2.22,44.67,4.43,89.33,8.28-.4,16.55-.79,21.86-1,33.5-13.48t10.83-34.3c-1.14-29.06-17.06-43-47.74-41.6Q681.94,1036.28,673.16,1036.71Z"/><path class="cls-6" d="M890.37,1136.44l-22.67.42q-5.93-15.72-11.91-31.42-24.63.54-49.25,1.26-4.93,16-9.84,32-11.28.36-22.58.75,21.17-63,43.24-125.81,11.86-.33,23.74-.61Q866.18,1074.63,890.37,1136.44Zm-40.46-47.71q-9.27-24.6-18.69-49.18a58.38,58.38,0,0,1-1.87-7.76H829a50.43,50.43,0,0,1-1.57,7.85q-8,25-16,50.07Q830.7,1089.18,849.91,1088.73Z"/><path class="cls-6" d="M1046.68,1135.74l-20.51-.12.36-80.51q0-9.88,1.34-24.19h-.35a84.57,84.57,0,0,1-3.49,11.7q-19.06,46.42-37.58,93l-14.26,0q-18.81-46.08-38.18-92a86.38,86.38,0,0,1-3.47-12.38h-.35q.78,7.45.95,24.37l.81,80.32q-9.56.11-19.11.23-.83-62.2-1.64-124.39,14.84-.19,29.68-.33,17.05,41.28,33.69,82.65a121.38,121.38,0,0,1,4.94,14.21h.43q3.21-9.81,5.21-14.59,16.73-41.28,33.87-82.47,14.31,0,28.61.16Q1047.15,1073.54,1046.68,1135.74Z"/><path class="cls-6" d="M1152.65,1137.43q-35-.84-70-1.31l1.65-124.39q34.23.45,68.47,1.27-.21,8.76-.41,17.52-23.64-.57-47.27-1-.29,17.61-.58,35.21,21.66.36,43.32.86-.2,8.71-.4,17.43-21.6-.49-43.21-.85l-.6,36.77q24.7.42,49.4,1Z"/><path class="cls-6" d="M1285.77,1142q-11.3-.51-22.58-1-27.86-46.92-56.57-93.58a40.5,40.5,0,0,1-3.56-7.32h-.53q.59,4,.17,17.1l-2.58,81.5q-10-.32-20-.59l3.54-124.36q12.27.36,24.53.75,27.88,45.56,55,91.34,3.43,5.7,4.39,7.82l.35,0q-.66-5-.17-16.77,1.68-40,3.35-80.09l20.27.88Z"/><path class="cls-6" d="M1408.52,1041.63q-18.16-1.16-36.35-2.19-3.08,53.34-6.13,106.7-10.33-.6-20.66-1.16,2.89-53.36,5.78-106.72-18.14-1-36.27-1.86.42-8.76.85-17.5,47,2.28,93.88,5.24Q1409.08,1032.89,1408.52,1041.63Z"/><path class="cls-6" d="M1514.6,1156.4q-11.32-.92-22.64-1.79-4.37-16.21-8.8-32.42-24.59-1.86-49.17-3.52-6.46,15.42-12.9,30.87-11.28-.75-22.56-1.45,27.18-60.63,55.26-121,11.85.83,23.7,1.7Q1496.5,1092.53,1514.6,1156.4ZM1478.92,1105q-6.86-25.4-13.84-50.77a58.36,58.36,0,0,1-1.11-7.9l-.35,0a50.68,50.68,0,0,1-2.32,7.66q-10.44,24.13-20.75,48.29Q1459.74,1103.56,1478.92,1105Z"/><path class="cls-6" d="M1605.8,1164.42q-34.38-3.27-68.8-6.17l10.44-124,21,1.8q-4.67,53.28-9.32,106.56,24.15,2.11,48.3,4.41Z"/><path class="cls-6" d="M1623.82,1161.19l2.07-21.16a32.78,32.78,0,0,0,6.36,5.34,54.16,54.16,0,0,0,8,4.33,68,68,0,0,0,8.63,3.09,47.23,47.23,0,0,0,8.08,1.61q13,1.35,19.84-2.28t7.72-11.83a13.68,13.68,0,0,0-1.31-7.87,22.64,22.64,0,0,0-5.34-6.54,63.66,63.66,0,0,0-8.49-6.08c-3.3-2-6.82-4.09-10.6-6.28q-6-4-11.19-8a52.27,52.27,0,0,1-8.82-8.6,32.06,32.06,0,0,1-5.45-10.08,30.3,30.3,0,0,1-1.12-12.57,28.27,28.27,0,0,1,5.48-14.77,33.69,33.69,0,0,1,11.63-9.57,49,49,0,0,1,15.58-4.7,72.83,72.83,0,0,1,17.34-.25q19.86,2.1,28.46,7.51l-2.22,20.26q-9.9-8.76-26.81-10.55a49.79,49.79,0,0,0-9.38-.11,28.26,28.26,0,0,0-8.56,2,18.07,18.07,0,0,0-6.46,4.49,12.36,12.36,0,0,0-3,7.28,14,14,0,0,0,1,7.34,18.54,18.54,0,0,0,4.57,6,52.61,52.61,0,0,0,7.73,5.73q4.61,2.86,10.71,6.31,6.21,4,11.62,8.39a57.76,57.76,0,0,1,9.33,9.29,36.16,36.16,0,0,1,5.88,10.73,28.9,28.9,0,0,1,1.2,12.74q-1,9.4-5.57,15.45a31.06,31.06,0,0,1-11.41,9.4,46.6,46.6,0,0,1-15.48,4.28,86,86,0,0,1-17.93,0c-2.08-.22-4.61-.64-7.61-1.27s-6.06-1.39-9.17-2.32a88.53,88.53,0,0,1-8.79-3.09A29.14,29.14,0,0,1,1623.82,1161.19Z"/></svg>