<svg id="Layer_1" data-name="Layer 1" xmlns="http://www.w3.org/2000/svg" viewBox="0 0 2000 2000"><defs><style>.cls-1{fill:#002050;}.cls-2{fill:#505050;}.cls-3{fill:#0064b5;}.cls-4{fill:#fff;}.cls-5{fill:#282828;}</style></defs><path class="cls-1" d="M1000,10a149.2,149.2,0,0,0-43.11,6.36L398.14,185A142.38,142.38,0,0,0,296.3,322.13v949.14c0,242.84,82.05,327.38,239.29,467.71,153.69,137.16,428.51,238,440.14,242.2L1000,1990l24.27-8.82c11.63-4.23,286.45-105,440.14-242.2,157.24-140.33,239.29-224.87,239.29-467.71V322.13A142.38,142.38,0,0,0,1601.86,185L1043.11,16.36A149.2,149.2,0,0,0,1000,10Z"/><path class="cls-2" d="M1581.33,253.07,1022.56,84.4a78.54,78.54,0,0,0-45.12,0L418.67,253.07a72.13,72.13,0,0,0-51.28,69.05V999.57H1632.61V322.12A72.13,72.13,0,0,0,1581.33,253.07Z"/><path class="cls-3" d="M367.39,1271.28c0,214,64.55,279.94,215.51,414.67,145.27,129.64,417.1,228.42,417.1,228.42s271.83-98.78,417.1-228.42c151-134.73,215.51-200.7,215.51-414.67V999.57H367.39Z"/><path class="cls-2" d="M1000,656.84c-300.5,0-593.32,25.46-870.34,75.68A102.73,102.73,0,0,0,47.27,854.08c25.46,125.27,54.59,278.35,74.23,390a113.27,113.27,0,0,0,111.74,93.78,114.58,114.58,0,0,0,23.46-2.44C354,1315,621.31,1267.58,1000,1267.58s646,47.43,743.31,67.82a114.42,114.42,0,0,0,23.45,2.44,113.27,113.27,0,0,0,111.74-93.78c19.64-111.64,48.77-264.72,74.23-390a102.73,102.73,0,0,0-82.39-121.56c-277-50.22-569.84-75.68-870.34-75.68Z"/><path class="cls-4" d="M1000,1230.27c315.15,0,582.57,33.34,751,68.61a76.19,76.19,0,0,0,90.8-61.28c20.68-117.62,50.24-272,74.41-390.95a65.42,65.42,0,0,0-52.49-77.42c-166.56-30.2-465-75.08-863.68-75.08h0c-398.71,0-697.12,44.88-863.68,75.08a65.42,65.42,0,0,0-52.49,77.42C108,965.58,137.56,1120,158.24,1237.6a76.19,76.19,0,0,0,90.8,61.28c168.39-35.27,435.81-68.61,751-68.61Z"/><path class="cls-4" d="M788.23,400.57H764.69V337.25q0-10.26.88-22.66H765a112.47,112.47,0,0,1-3.31,14l-24.8,71.95H717.38l-25.24-71.21q-1-2.88-3.32-14.77h-.66q.95,15.66,1,27.46v58.52H667.64V294.74h34.91l21.62,62.73a89,89,0,0,1,3.77,15.13h.44a151.86,151.86,0,0,1,4.21-15.27l21.62-62.59h34Z"/><path class="cls-4" d="M820.3,313a13.6,13.6,0,0,1-9.67-3.5,11.29,11.29,0,0,1-3.76-8.6,10.9,10.9,0,0,1,3.76-8.56,15.79,15.79,0,0,1,19.37,0,10.94,10.94,0,0,1,3.73,8.56,11.24,11.24,0,0,1-3.73,8.71A13.84,13.84,0,0,1,820.3,313Zm11.51,87.53H808.49V325h23.32Z"/><path class="cls-4" d="M907.2,397.84q-7.89,4.57-22.8,4.58-17.42,0-28.19-10.56t-10.78-27.23q0-19.26,11.55-30.37t30.89-11.1q13.35,0,19.33,3.54v19.78A26.59,26.59,0,0,0,890.89,341q-10,0-15.9,5.86t-5.87,16.2q0,10,5.61,15.76t15.43,5.72a30.78,30.78,0,0,0,17-5.46Z"/><path class="cls-4" d="M970.27,346a20.32,20.32,0,0,0-9.82-2.28,14.15,14.15,0,0,0-11.88,5.57q-4.27,5.56-4.28,15.17v36.08H921V325h23.33v14h.29q5.53-15.34,19.93-15.35a15,15,0,0,1,5.76.89Z"/><path class="cls-4" d="M1015.62,402.42q-18.9,0-29.71-10.59T975.1,363.08q0-18.75,11.22-29.33t30.33-10.59q18.81,0,29.52,10.59t10.7,28q0,18.81-11,29.74T1015.62,402.42Zm.59-61.4q-8.26,0-12.84,5.68t-4.58,16.09q0,21.76,17.57,21.77,16.74,0,16.75-22.36Q1033.11,341,1016.21,341Z"/><path class="cls-4" d="M1065.54,398.58V379.69a49.78,49.78,0,0,0,11.48,5.16,38.11,38.11,0,0,0,10.81,1.7,23.21,23.21,0,0,0,9.78-1.7q3.59-1.69,3.58-5.16a4.77,4.77,0,0,0-1.62-3.69,15.08,15.08,0,0,0-4.17-2.59,49.38,49.38,0,0,0-5.57-2c-2-.59-4-1.25-5.84-2a56.24,56.24,0,0,1-7.93-3.65,23.11,23.11,0,0,1-5.76-4.54,17.82,17.82,0,0,1-3.54-6,23.86,23.86,0,0,1-1.22-8,20.79,20.79,0,0,1,2.77-10.93,22.67,22.67,0,0,1,7.38-7.49,33.79,33.79,0,0,1,10.56-4.28,55,55,0,0,1,12.36-1.36,68,68,0,0,1,10.18.77,77.55,77.55,0,0,1,10.19,2.25v18a36.49,36.49,0,0,0-9.49-3.87,39.54,39.54,0,0,0-9.92-1.3,22,22,0,0,0-4.32.41,13.93,13.93,0,0,0-3.58,1.18,6.74,6.74,0,0,0-2.44,2,4.59,4.59,0,0,0-.88,2.77,5.08,5.08,0,0,0,1.33,3.54,11.29,11.29,0,0,0,3.47,2.55,34.67,34.67,0,0,0,4.76,1.92c1.74.56,3.48,1.14,5.2,1.73a65.66,65.66,0,0,1,8.41,3.55,26.75,26.75,0,0,1,6.46,4.49,17.75,17.75,0,0,1,4.13,6.06,24.23,24.23,0,0,1-1.47,19.74,23.44,23.44,0,0,1-7.75,7.75,35.17,35.17,0,0,1-11.15,4.35,61.73,61.73,0,0,1-13.1,1.37A67.54,67.54,0,0,1,1065.54,398.58Z"/><path class="cls-4" d="M1171.49,402.42q-18.88,0-29.7-10.59T1131,363.08q0-18.75,11.21-29.33t30.34-10.59q18.81,0,29.51,10.59t10.71,28q0,18.81-11,29.74T1171.49,402.42Zm.6-61.4q-8.28,0-12.85,5.68t-4.57,16.09q0,21.76,17.56,21.77,16.76,0,16.75-22.36Q1189,341,1172.09,341Z"/><path class="cls-4" d="M1275.66,306.55a23.52,23.52,0,0,0-8.63-1.77q-11.22,0-11.22,12.18v8h17.27v17.2h-17.27v58.37h-23.25V342.2h-12.69V325h12.69v-9.37q0-12.92,8.42-20.81t22.88-7.9a39.93,39.93,0,0,1,11.8,1.48Z"/><path class="cls-4" d="M1328.47,399.69q-5.16,2.73-15.57,2.73-24.66,0-24.65-25.61V342.2H1276V325h12.25V308.69l23.25-6.64V325h17v17.2h-17v30.55q0,11.81,9.37,11.81a15.77,15.77,0,0,0,7.6-2.14Z"/><path class="cls-4" d="M728.5,544.69q-9,4.77-22.49,4.77-17.38,0-27.85-11.19t-10.45-29.38q0-19.54,11.76-31.59t29.83-12q11.6,0,19.2,3.35v10.17a38.9,38.9,0,0,0-19.31-4.89q-14,0-22.76,9.38t-8.72,25.05q0,14.9,8.15,23.73t21.39,8.83q12.29,0,21.25-5.45Z"/><path class="cls-4" d="M808.06,548.1H764.88V466.62h41.36v8.63H774.42v27.11h29.44v8.58H774.42v28.52h33.64Z"/><path class="cls-4" d="M901.93,548.1H890.57l-13.64-22.84a51,51,0,0,0-3.63-5.43,21.34,21.34,0,0,0-3.61-3.67,12.73,12.73,0,0,0-4-2.07,16.54,16.54,0,0,0-4.8-.65h-7.84V548.1h-9.55V466.62h24.32A34.72,34.72,0,0,1,877.7,468a22,22,0,0,1,7.84,4.06,18.84,18.84,0,0,1,5.2,6.79,22.52,22.52,0,0,1,1.87,9.52,23,23,0,0,1-1.27,7.81,20.4,20.4,0,0,1-3.64,6.33,22.27,22.27,0,0,1-5.68,4.75,29.39,29.39,0,0,1-7.47,3v.22a17.47,17.47,0,0,1,3.55,2.08,19.42,19.42,0,0,1,2.87,2.75,38.53,38.53,0,0,1,2.7,3.61c.88,1.35,1.88,2.91,3,4.69Zm-48.86-72.85V504.8H866a19.64,19.64,0,0,0,6.62-1.08,15.26,15.26,0,0,0,5.25-3.09,13.93,13.93,0,0,0,3.47-4.95,16.43,16.43,0,0,0,1.25-6.56q0-6.53-4.23-10.2t-12.24-3.67Z"/><path class="cls-4" d="M975.86,475.25H952.34V548.1h-9.55V475.25H919.33v-8.63h56.53Z"/><path class="cls-4" d="M1018,548.1h-9.54V466.62H1018Z"/><path class="cls-4" d="M1100.53,475.25h-31.82v28.19h29.43V512h-29.43V548.1h-9.54V466.62h41.36Z"/><path class="cls-4" d="M1145.31,548.1h-9.54V466.62h9.54Z"/><path class="cls-4" d="M1229.7,548.1h-43.18V466.62h41.36v8.63h-31.82v27.11h29.44v8.58h-29.44v28.52h33.64Z"/><path class="cls-4" d="M1265.16,548.1V466.62h22.5q43.08,0,43.07,39.71,0,18.87-12,30.32t-32,11.45Zm9.55-72.85v64.21h12.16q16,0,24.94-8.58t8.92-24.32q0-31.31-33.29-31.31Z"/><path class="cls-4" d="M697.33,1454.91q-11.21.67-22.39,1.41-3.9-9.91-7.83-19.83-16.27,1.08-32.55,2.27-2.49,10.35-4.95,20.71-11.13.83-22.24,1.7,13-46.79,26.62-93.49,12.4-.9,24.81-1.73Q678.36,1410.36,697.33,1454.91Zm-36-33.85q-6-15-12-29.91a38.21,38.21,0,0,1-2.11-8.08l-.52,0a34.84,34.84,0,0,1-1.07,8.05q-3.95,15.76-7.83,31.55Q649.58,1421.86,661.33,1421.06Z"/><path class="cls-4" d="M716,1450.31q-.59-10.15-1.15-20.32a39.6,39.6,0,0,0,12.45,6.28,39,39,0,0,0,13.27,1.63,29.57,29.57,0,0,0,6.76-1,16.44,16.44,0,0,0,4.76-2.18,8.39,8.39,0,0,0,2.76-3.07,7.23,7.23,0,0,0,.79-3.7,7.84,7.84,0,0,0-1.77-4.69,16.4,16.4,0,0,0-4.38-3.67,44.84,44.84,0,0,0-6.49-3.11q-3.74-1.47-8.06-3-11-3.88-16.66-10a23.6,23.6,0,0,1-6.18-15.2,23.33,23.33,0,0,1,9.67-21.24,35.57,35.57,0,0,1,11.37-5.49,60.46,60.46,0,0,1,13.92-2.26,83.91,83.91,0,0,1,12.9.24,50.81,50.81,0,0,1,10.46,2.16q.43,9.51.85,19a31.35,31.35,0,0,0-5.19-2.57,40.57,40.57,0,0,0-5.75-1.74,43,43,0,0,0-5.84-.9,40.65,40.65,0,0,0-5.47-.12,28.63,28.63,0,0,0-6.43,1,16.6,16.6,0,0,0-4.81,2.12,9.38,9.38,0,0,0-3,3,6.77,6.77,0,0,0-.9,3.84,7,7,0,0,0,1.44,4,13.81,13.81,0,0,0,3.65,3.25,35.76,35.76,0,0,0,5.63,2.9c2.21.94,4.67,1.88,7.43,2.86a78.85,78.85,0,0,1,10.16,4.38,35.19,35.19,0,0,1,7.82,5.47,22.57,22.57,0,0,1,5.14,7.19A29.5,29.5,0,0,1,775,1438a23.67,23.67,0,0,1-7.5,8.75,34.11,34.11,0,0,1-11.34,5.15,67.34,67.34,0,0,1-13.83,2.09,78.5,78.5,0,0,1-14.34-.52A43.3,43.3,0,0,1,716,1450.31Z"/><path class="cls-4" d="M800.88,1446.25q-.4-10.17-.8-20.35a39.76,39.76,0,0,0,25.57,8.36,29.43,29.43,0,0,0,6.78-.93,16,16,0,0,0,4.79-2.1,8.56,8.56,0,0,0,2.82-3,7.31,7.31,0,0,0,.85-3.68,7.87,7.87,0,0,0-1.69-4.72,16.45,16.45,0,0,0-4.32-3.75,45.09,45.09,0,0,0-6.42-3.22q-3.72-1.54-8-3.1-11-4.07-16.49-10.28a23.57,23.57,0,0,1-5.91-15.31,23.32,23.32,0,0,1,10-21.07,35.7,35.7,0,0,1,11.45-5.29,60.41,60.41,0,0,1,14-2,84.2,84.2,0,0,1,12.9.45,51.65,51.65,0,0,1,10.42,2.35q.26,9.51.52,19a30.74,30.74,0,0,0-5.14-2.66,40.55,40.55,0,0,0-5.72-1.84,44.58,44.58,0,0,0-5.82-1,41.26,41.26,0,0,0-5.47-.21,29,29,0,0,0-6.45.88,16.82,16.82,0,0,0-4.85,2,9.43,9.43,0,0,0-3,3,7,7,0,0,0-1,3.82,7.2,7.2,0,0,0,1.37,4.06,13.86,13.86,0,0,0,3.6,3.31,37.51,37.51,0,0,0,5.58,3q3.27,1.46,7.38,3a79.39,79.39,0,0,1,10.08,4.56,34.55,34.55,0,0,1,7.72,5.61,22.66,22.66,0,0,1,5,7.27A29.38,29.38,0,0,1,860,1435a23.55,23.55,0,0,1-7.64,8.61,34.26,34.26,0,0,1-11.42,5,68,68,0,0,1-13.86,1.86,78.72,78.72,0,0,1-14.33-.77A43.77,43.77,0,0,1,800.88,1446.25Z"/><path class="cls-4" d="M928.65,1448c-13.08.18-23.79-3.88-32.22-12.22s-12.82-19.32-13.12-33q-.49-21.62,12-35.25t33.6-13.92q19.92-.25,32.3,12.46t12.41,33.65q.09,21.51-12.39,34.75T928.65,1448Zm-.14-76.67c-7.32.1-13.11,2.89-17.32,8.37s-6.22,12.68-6.06,21.59,2.44,16.14,6.79,21.32a20.56,20.56,0,0,0,16.87,7.63q10.66-.14,16.85-7.86t6.09-21.34q-.12-14.18-6.33-22T928.51,1371.29Z"/><path class="cls-4" d="M1066.19,1443.17q-10.07,4.69-26.17,4.53-21-.18-33-12.52t-12.06-32.91c0-14.59,4.55-26.43,13.75-35.48s21.15-13.53,35.81-13.39q13.63.12,22.92,3.64-.14,9.9-.28,19.79a40.68,40.68,0,0,0-21.13-5.73q-13.07-.13-21.12,7.91c-5.38,5.35-8.06,12.64-8.1,21.84q0,13.23,7.39,21.13c5,5.27,11.65,7.93,20.09,8a43.56,43.56,0,0,0,22.19-5.58Z"/><path class="cls-4" d="M1114.37,1447.34q-10.29-.25-20.57-.45.9-45.6,1.81-91.21,10.47.21,21,.46Z"/><path class="cls-4" d="M1227.13,1451.33q-11.2-.52-22.41-1-2.81-10.27-5.66-20.54-16.29-.68-32.59-1.23-3.59,10-7.13,20.06-11.14-.36-22.28-.68,17.91-45.12,36.45-90.11,12.42.43,24.83.94Q1213,1405,1227.13,1451.33Zm-32.17-37.5q-4.32-15.51-8.7-31a38.87,38.87,0,0,1-1.24-8.26h-.52a34.57,34.57,0,0,1-1.91,7.88q-5.61,15.27-11.16,30.53Q1183.21,1413.36,1195,1413.83Z"/><path class="cls-4" d="M1309.86,1381.26q-13.2-.83-26.41-1.59l-4.26,74.38q-10.31-.6-20.62-1.14,2-37.2,4-74.39-13.14-.7-26.28-1.33.4-8.37.8-16.72,36.95,1.77,73.86,4.09Z"/><path class="cls-4" d="M1383.85,1461.17q-27.31-2.14-54.66-4l6.15-91q26.78,1.81,53.54,3.9-.66,8.34-1.31,16.68-16.24-1.26-32.51-2.43-.72,10.11-1.45,20.24,15.06,1.08,30.13,2.25l-1.29,16.62q-15-1.17-30-2.25-.73,10.41-1.49,20.82,17.13,1.23,34.24,2.57Q1384.52,1452.86,1383.85,1461.17Z"/><polygon class="cls-4" points="858.58 1519.13 887.24 1607.31 979.96 1607.31 904.94 1661.81 933.6 1750 858.58 1695.49 783.57 1750 812.22 1661.81 737.21 1607.31 829.93 1607.31 858.58 1519.13"/><polygon class="cls-4" points="1140.51 1519.13 1169.16 1607.31 1261.88 1607.31 1186.87 1661.81 1215.52 1750 1140.51 1695.49 1065.49 1750 1094.14 1661.81 1019.13 1607.31 1111.85 1607.31 1140.51 1519.13"/><path class="cls-5" d="M821.82,931.87q-11.85.45-23.7,1-6.55-15.55-13.18-31.1-25.77,1.2-51.54,2.67-4.75,16.14-9.44,32.27-11.79.71-23.59,1.47,20.34-63.64,42-127.12,12.48-.67,25-1.29Q795.21,870.64,821.82,931.87ZM778.39,885.2q-10.3-24.35-20.81-48.65a56.69,56.69,0,0,1-2.16-7.71l-.37,0a48.5,48.5,0,0,1-1.45,7.89q-7.83,25.26-15.48,50.54Q758.25,886.15,778.39,885.2Z"/><path class="cls-5" d="M932.65,813.52Q896.76,863,862.39,913q35.37-1,70.76-1.57.12,8.71.25,17.44-50.37.74-100.73,2.56c-.12-3.15-.23-6.3-.35-9.45q34.14-50,69.78-99.45-33.83.71-67.65,1.89-.3-8.76-.61-17.51,49.33-1.74,98.68-2.45Z"/><path class="cls-5" d="M1057.34,878.42c-.47,35-18,52.11-52.58,52.06-33.13,0-49.9-16.55-50.27-50.17q-.37-38-.76-76.08,11.12-.11,22.21-.17.18,35.93.38,71.83c.15,24.42,10.18,36.53,30.1,36.55,19.19,0,28.88-11.64,29.07-35.19q.26-36.56.53-73.13,11.1.09,22.2.21Q1057.77,841.38,1057.34,878.42Z"/><path class="cls-5" d="M1189.86,932.22q-12.63-.51-25.25-1-9.81-17-19.78-34a70,70,0,0,0-5.3-8,32.21,32.21,0,0,0-5.35-5.49,19,19,0,0,0-6-3.21,26.85,26.85,0,0,0-7.41-1.15l-8.81-.21q-.6,25.23-1.19,50.47-10.77-.24-21.53-.45,1.17-62.19,2.35-124.38,22,.42,44,1a67.63,67.63,0,0,1,17.28,2.6,41.25,41.25,0,0,1,13.58,6.75,29.74,29.74,0,0,1,8.78,10.81,31.23,31.23,0,0,1,2.75,14.82,34.46,34.46,0,0,1-2.52,12,31.69,31.69,0,0,1-6.26,9.58,36.15,36.15,0,0,1-9.46,7,48.53,48.53,0,0,1-12.25,4.29c0,.11,0,.23,0,.34a34.1,34.1,0,0,1,6.12,4.41q2.58,2.38,4.89,4.89a57,57,0,0,1,4.54,5.66q2.24,3.16,4.92,7.34Q1179,914.28,1189.86,932.22Zm-76.58-110.16q-.48,20.21-1,40.41,9.12.21,18.25.46a28.75,28.75,0,0,0,9.39-1.2,21.56,21.56,0,0,0,7.55-4,19.33,19.33,0,0,0,5.11-6.61,21.78,21.78,0,0,0,2-8.87q.3-8.94-5.58-14.15t-17.22-5.54Q1122.57,822.28,1113.28,822.06Z"/><path class="cls-5" d="M1279.94,936.75q-36.51-2.19-73.06-3.81l5.49-124.28q36,1.59,72,3.73-.51,8.75-1,17.5-24.82-1.49-49.67-2.69-.85,17.58-1.72,35.18,22.73,1.11,45.44,2.44l-1,17.4q-22.64-1.32-45.27-2.43-.9,18.38-1.79,36.74,25.82,1.26,51.65,2.81Z"/><path class="cls-5" d="M513.31,1156.61,499.66,1033q18.41-2,36.84-3.91c47.13-4.78,72.44,13.51,75.85,53.75,1.65,19.13-3.46,35-15.15,47.8S569,1150.77,547.67,1153Q530.5,1154.72,513.31,1156.61Zm9.28-108.5q4.7,44.48,9.4,89,8.25-.87,16.51-1.72c14.54-1.48,25.47-6.53,32.84-15.25s10.4-20.3,9.08-34.82c-2.61-29-19.36-42.1-50.19-39Z"/><path class="cls-5" d="M715.72,1138.94q-34.94,2.25-69.83,5-5-62-9.94-124,34.44-2.76,68.92-5l1.14,17.48q-23.78,1.55-47.53,3.34,1.34,17.57,2.66,35.12,21.72-1.64,43.45-3.07.57,8.7,1.15,17.4-21.66,1.43-43.29,3.06,1.38,18.35,2.77,36.68,24.67-1.86,49.38-3.45Q715.16,1130.24,715.72,1138.94Z"/><path class="cls-5" d="M836.32,1008.33q-20.76,63-40.25,126.17-11.55.52-23.1,1.12-25.17-61-51.55-121.69,11.6-.7,23.21-1.36,18.43,46.23,36.24,92.6a57.92,57.92,0,0,1,2.79,10.37H784a54.57,54.57,0,0,1,2-10.78q13.56-47.82,27.79-95.55Q825.06,1008.73,836.32,1008.33Z"/><path class="cls-5" d="M932.62,1130.29q-35,.54-70,1.63-1.95-62.18-3.88-124.34,34.51-1.08,69.05-1.64.15,8.76.28,17.53-23.8.38-47.61,1,.46,17.61.94,35.21,21.76-.59,43.53-1l.3,17.44q-21.69.36-43.37.94.5,18.39,1,36.77,24.74-.66,49.47-1Z"/><path class="cls-5" d="M1029.13,1129.84q-34.5-.21-69,.11-.58-62.21-1.16-124.4,10.63-.1,21.27-.15.24,53.49.49,107,24.27-.1,48.52,0Q1029.2,1121.13,1029.13,1129.84Z"/><path class="cls-5" d="M1098.49,1132.9c-18-.4-32.22-6.42-42.93-18.17s-16-26.92-15.87-45.54c.17-20,5.89-35.93,17.32-47.71s26.91-17.51,46.34-17.07c18,.4,32.35,6.6,42.93,18.51s15.49,27.23,14.82,45.9c-.73,20.29-6.85,36.12-18.19,47.56S1116.79,1133.3,1098.49,1132.9Zm3.39-110.39c-11.69-.26-21.3,3.83-28.73,12.21s-11.23,19.53-11.42,33.41,3.19,25,10,33.55,15.9,12.93,27.19,13.18q18,.39,28.68-11.35c7.16-7.84,11-19,11.44-33.42q.69-22.29-9.2-34.73C1123.29,1027.08,1113.92,1022.77,1101.88,1022.51Z"/><path class="cls-5" d="M1209.71,1089.47l-2.1,45.07q-10.29-.48-20.58-.91l5.19-124.29q19.42.81,38.84,1.78c14.69.74,25.92,4.71,33.61,11.81s11.15,16.71,10.41,28.77-5.51,21.68-14.28,28.88-20.19,10.41-34.34,9.7Q1218.09,1089.86,1209.71,1089.47Zm2.88-62.22-2.1,45.41,13.56.65q13.46.68,20.84-5.09c4.92-3.84,7.61-9.49,8-16.93.81-14.61-7.49-22.42-24.93-23.3Z"/><path class="cls-5" d="M1366.12,1144.73q-34.9-2.87-69.83-5.19l8.25-124.13q34.47,2.3,68.93,5.1-.72,8.74-1.43,17.47-23.74-1.93-47.52-3.63l-2.5,35.13q21.74,1.55,43.45,3.3-.71,8.7-1.4,17.38-21.64-1.74-43.28-3.28l-2.61,36.69q24.69,1.76,49.37,3.78Q1366.83,1136.05,1366.12,1144.73Z"/><path class="cls-5" d="M1489.51,1156.61q-12-1.32-24.06-2.59-8.19-17.6-16.5-35.18a69.8,69.8,0,0,0-4.51-8.34,31.25,31.25,0,0,0-4.73-5.82,17.74,17.74,0,0,0-5.52-3.59,24.46,24.46,0,0,0-7-1.63l-8.41-.79-4.68,50.27q-10.27-1-20.54-1.87,5.49-62,11-123.91,21,1.86,42,3.91a62.13,62.13,0,0,1,16.34,3.72,38.84,38.84,0,0,1,12.52,7.61,29.3,29.3,0,0,1,7.63,11.36,32.17,32.17,0,0,1,1.59,15,35.67,35.67,0,0,1-3.27,11.82,31.72,31.72,0,0,1-6.67,9.15,34.86,34.86,0,0,1-9.54,6.38,44.94,44.94,0,0,1-12,3.48l0,.35a32.52,32.52,0,0,1,5.54,4.78c1.53,1.7,3,3.44,4.33,5.2a55.8,55.8,0,0,1,3.93,5.95c1.29,2.2,2.66,4.74,4.19,7.64Q1480.39,1138,1489.51,1156.61Zm-65.43-114.87-3.75,40.26,17.41,1.65a26.31,26.31,0,0,0,9.07-.59,20.67,20.67,0,0,0,7.5-3.52,19.15,19.15,0,0,0,5.35-6.26,22.8,22.8,0,0,0,2.58-8.72q.91-8.89-4.33-14.48c-3.52-3.72-8.86-5.95-16.09-6.65Z"/></svg>