<svg id="Layer_1" data-name="Layer 1" xmlns="http://www.w3.org/2000/svg" viewBox="0 0 2000 2000"><defs><style>.cls-1{fill:#002050;}.cls-2{fill:#505050;}.cls-3{fill:#0064b5;}.cls-4{fill:#fff;}.cls-5{fill:#282828;}</style></defs><path class="cls-1" d="M1000,10a149.2,149.2,0,0,0-43.11,6.36L398.14,185A142.38,142.38,0,0,0,296.3,322.13v949.14c0,242.84,82.05,327.38,239.29,467.71,153.69,137.16,428.51,238,440.14,242.2L1000,1990l24.27-8.82c11.63-4.23,286.45-105,440.14-242.2,157.24-140.33,239.29-224.87,239.29-467.71V322.13A142.38,142.38,0,0,0,1601.86,185L1043.11,16.36A149.2,149.2,0,0,0,1000,10Z"/><path class="cls-2" d="M1581.33,253.07,1022.56,84.4a78.54,78.54,0,0,0-45.12,0L418.67,253.07a72.13,72.13,0,0,0-51.28,69.05V999.57H1632.61V322.12A72.13,72.13,0,0,0,1581.33,253.07Z"/><path class="cls-3" d="M367.39,1271.28c0,214,64.55,279.94,215.51,414.67,145.27,129.64,417.1,228.42,417.1,228.42s271.83-98.78,417.1-228.42c151-134.73,215.51-200.7,215.51-414.67V999.57H367.39Z"/><path class="cls-2" d="M1000,656.84c-300.5,0-593.32,25.46-870.34,75.68A102.73,102.73,0,0,0,47.27,854.08c25.46,125.27,54.59,278.35,74.23,390a113.27,113.27,0,0,0,111.74,93.78,114.58,114.58,0,0,0,23.46-2.44C354,1315,621.31,1267.58,1000,1267.58s646,47.43,743.31,67.82a114.42,114.42,0,0,0,23.45,2.44,113.27,113.27,0,0,0,111.74-93.78c19.64-111.64,48.77-264.72,74.23-390a102.73,102.73,0,0,0-82.39-121.56c-277-50.22-569.84-75.68-870.34-75.68Z"/><path class="cls-4" d="M1000,1230.27c315.15,0,582.57,33.34,751,68.61a76.19,76.19,0,0,0,90.8-61.28c20.68-117.62,50.24-272,74.41-390.95a65.42,65.42,0,0,0-52.49-77.42c-166.56-30.2-465-75.08-863.68-75.08h0c-398.71,0-697.12,44.88-863.68,75.08a65.42,65.42,0,0,0-52.49,77.42C108,965.58,137.56,1120,158.24,1237.6a76.19,76.19,0,0,0,90.8,61.28c168.39-35.27,435.81-68.61,751-68.61Z"/><path class="cls-4" d="M788.23,400.57H764.69V337.25q0-10.26.88-22.66H765a112.47,112.47,0,0,1-3.31,14l-24.8,71.95H717.38l-25.24-71.21q-1-2.88-3.32-14.77h-.66q.95,15.66,1,27.46v58.52H667.64V294.74h34.91l21.62,62.73a89,89,0,0,1,3.77,15.13h.44a151.86,151.86,0,0,1,4.21-15.27l21.62-62.59h34Z"/><path class="cls-4" d="M820.3,313a13.6,13.6,0,0,1-9.67-3.5,11.29,11.29,0,0,1-3.76-8.6,10.9,10.9,0,0,1,3.76-8.56,15.79,15.79,0,0,1,19.37,0,10.94,10.94,0,0,1,3.73,8.56,11.24,11.24,0,0,1-3.73,8.71A13.84,13.84,0,0,1,820.3,313Zm11.51,87.53H808.49V325h23.32Z"/><path class="cls-4" d="M907.2,397.84q-7.89,4.57-22.8,4.58-17.42,0-28.19-10.56t-10.78-27.23q0-19.26,11.55-30.37t30.89-11.1q13.35,0,19.33,3.54v19.78A26.59,26.59,0,0,0,890.89,341q-10,0-15.9,5.86t-5.87,16.2q0,10,5.61,15.76t15.43,5.72a30.78,30.78,0,0,0,17-5.46Z"/><path class="cls-4" d="M970.27,346a20.32,20.32,0,0,0-9.82-2.28,14.15,14.15,0,0,0-11.88,5.57q-4.27,5.56-4.28,15.17v36.08H921V325h23.33v14h.29q5.53-15.34,19.93-15.35a15,15,0,0,1,5.76.89Z"/><path class="cls-4" d="M1015.62,402.42q-18.9,0-29.71-10.59T975.1,363.08q0-18.75,11.22-29.33t30.33-10.59q18.81,0,29.52,10.59t10.7,28q0,18.81-11,29.74T1015.62,402.42Zm.59-61.4q-8.26,0-12.84,5.68t-4.58,16.09q0,21.76,17.57,21.77,16.74,0,16.75-22.36Q1033.11,341,1016.21,341Z"/><path class="cls-4" d="M1065.54,398.58V379.69a49.78,49.78,0,0,0,11.48,5.16,38.11,38.11,0,0,0,10.81,1.7,23.21,23.21,0,0,0,9.78-1.7q3.59-1.69,3.58-5.16a4.77,4.77,0,0,0-1.62-3.69,15.08,15.08,0,0,0-4.17-2.59,49.38,49.38,0,0,0-5.57-2c-2-.59-4-1.25-5.84-2a56.24,56.24,0,0,1-7.93-3.65,23.11,23.11,0,0,1-5.76-4.54,17.82,17.82,0,0,1-3.54-6,23.86,23.86,0,0,1-1.22-8,20.79,20.79,0,0,1,2.77-10.93,22.67,22.67,0,0,1,7.38-7.49,33.79,33.79,0,0,1,10.56-4.28,55,55,0,0,1,12.36-1.36,68,68,0,0,1,10.18.77,77.55,77.55,0,0,1,10.19,2.25v18a36.49,36.49,0,0,0-9.49-3.87,39.54,39.54,0,0,0-9.92-1.3,22,22,0,0,0-4.32.41,13.93,13.93,0,0,0-3.58,1.18,6.74,6.74,0,0,0-2.44,2,4.59,4.59,0,0,0-.88,2.77,5.08,5.08,0,0,0,1.33,3.54,11.29,11.29,0,0,0,3.47,2.55,34.67,34.67,0,0,0,4.76,1.92c1.74.56,3.48,1.14,5.2,1.73a65.66,65.66,0,0,1,8.41,3.55,26.75,26.75,0,0,1,6.46,4.49,17.75,17.75,0,0,1,4.13,6.06,24.23,24.23,0,0,1-1.47,19.74,23.44,23.44,0,0,1-7.75,7.75,35.17,35.17,0,0,1-11.15,4.35,61.73,61.73,0,0,1-13.1,1.37A67.54,67.54,0,0,1,1065.54,398.58Z"/><path class="cls-4" d="M1171.49,402.42q-18.88,0-29.7-10.59T1131,363.08q0-18.75,11.21-29.33t30.34-10.59q18.81,0,29.51,10.59t10.71,28q0,18.81-11,29.74T1171.49,402.42Zm.6-61.4q-8.28,0-12.85,5.68t-4.57,16.09q0,21.76,17.56,21.77,16.76,0,16.75-22.36Q1189,341,1172.09,341Z"/><path class="cls-4" d="M1275.66,306.55a23.52,23.52,0,0,0-8.63-1.77q-11.22,0-11.22,12.18v8h17.27v17.2h-17.27v58.37h-23.25V342.2h-12.69V325h12.69v-9.37q0-12.92,8.42-20.81t22.88-7.9a39.93,39.93,0,0,1,11.8,1.48Z"/><path class="cls-4" d="M1328.47,399.69q-5.16,2.73-15.57,2.73-24.66,0-24.65-25.61V342.2H1276V325h12.25V308.69l23.25-6.64V325h17v17.2h-17v30.55q0,11.81,9.37,11.81a15.77,15.77,0,0,0,7.6-2.14Z"/><path class="cls-4" d="M728.5,544.69q-9,4.77-22.49,4.77-17.38,0-27.85-11.19t-10.45-29.38q0-19.54,11.76-31.59t29.83-12q11.6,0,19.2,3.35v10.17a38.9,38.9,0,0,0-19.31-4.89q-14,0-22.76,9.38t-8.72,25.05q0,14.9,8.15,23.73t21.39,8.83q12.27,0,21.25-5.45Z"/><path class="cls-4" d="M808.06,548.1H764.88V466.62h41.36v8.63H774.42v27.11h29.43v8.58H774.42v28.52h33.64Z"/><path class="cls-4" d="M901.93,548.1H890.57l-13.64-22.84a51,51,0,0,0-3.63-5.43,21.71,21.71,0,0,0-3.61-3.67,12.84,12.84,0,0,0-4-2.07,16.54,16.54,0,0,0-4.8-.65h-7.84V548.1h-9.55V466.62h24.32A34.72,34.72,0,0,1,877.7,468a21.85,21.85,0,0,1,7.83,4.06,18.75,18.75,0,0,1,5.21,6.79,24.85,24.85,0,0,1,.59,17.33,20.18,20.18,0,0,1-3.63,6.33,22.27,22.27,0,0,1-5.68,4.75,29.39,29.39,0,0,1-7.47,3v.22a17.47,17.47,0,0,1,3.55,2.08,19.93,19.93,0,0,1,2.87,2.75,38.52,38.52,0,0,1,2.69,3.61c.89,1.35,1.89,2.91,3,4.69Zm-48.86-72.85V504.8H866a19.68,19.68,0,0,0,6.62-1.08,15.36,15.36,0,0,0,5.25-3.09,14.06,14.06,0,0,0,3.47-4.95,16.61,16.61,0,0,0,1.25-6.56q0-6.53-4.24-10.2t-12.23-3.67Z"/><path class="cls-4" d="M975.86,475.25H952.33V548.1h-9.54V475.25H919.33v-8.63h56.53Z"/><path class="cls-4" d="M1018,548.1h-9.54V466.62H1018Z"/><path class="cls-4" d="M1100.53,475.25h-31.82v28.19h29.43V512h-29.43V548.1h-9.54V466.62h41.36Z"/><path class="cls-4" d="M1145.31,548.1h-9.54V466.62h9.54Z"/><path class="cls-4" d="M1229.7,548.1h-43.18V466.62h41.36v8.63h-31.82v27.11h29.44v8.58h-29.44v28.52h33.64Z"/><path class="cls-4" d="M1265.16,548.1V466.62h22.5q43.08,0,43.07,39.71,0,18.87-12,30.32t-32,11.45Zm9.55-72.85v64.21h12.16q16,0,24.94-8.58t8.92-24.32q0-31.31-33.29-31.31Z"/><path class="cls-4" d="M694.72,1451.78q-11.19.67-22.39,1.41-3.9-9.92-7.83-19.83-16.29,1.08-32.55,2.27-2.48,10.35-5,20.71-11.12.83-22.24,1.7,13-46.79,26.63-93.49,12.4-.9,24.8-1.72Q675.75,1407.23,694.72,1451.78Zm-36-33.84q-6-15-12-29.92a40.11,40.11,0,0,1-2.11-8.08l-.52,0a36.36,36.36,0,0,1-1.06,8q-3.94,15.78-7.83,31.55Q647,1418.73,658.73,1417.94Z"/><path class="cls-4" d="M713.43,1447.18q-.57-10.15-1.15-20.32a39.69,39.69,0,0,0,25.73,7.91,29.39,29.39,0,0,0,6.76-1,16.41,16.41,0,0,0,4.76-2.18,8.44,8.44,0,0,0,2.76-3.06,7.35,7.35,0,0,0,.78-3.7,8,8,0,0,0-1.76-4.7,16.64,16.64,0,0,0-4.39-3.67,44.19,44.19,0,0,0-6.48-3.11c-2.5-1-5.17-2-8.06-3-7.33-2.59-12.9-5.91-16.66-10a23.52,23.52,0,0,1-6.18-15.2,23.33,23.33,0,0,1,9.67-21.24,35.92,35.92,0,0,1,11.36-5.48,60.1,60.1,0,0,1,13.92-2.27,85.27,85.27,0,0,1,12.91.24,51.62,51.62,0,0,1,10.46,2.16c.29,6.34.56,12.67.85,19a30.69,30.69,0,0,0-5.2-2.57,40.44,40.44,0,0,0-5.74-1.74,43.29,43.29,0,0,0-5.84-.9,42.49,42.49,0,0,0-5.48-.12,28.93,28.93,0,0,0-6.42,1,16.8,16.8,0,0,0-4.82,2.13,9.18,9.18,0,0,0-3,3.05,6.9,6.9,0,0,0-.9,3.83,7.22,7.22,0,0,0,1.44,4,13.7,13.7,0,0,0,3.66,3.25,37.54,37.54,0,0,0,5.63,2.9c2.19.93,4.68,1.88,7.43,2.85a78.23,78.23,0,0,1,10.16,4.39,35.26,35.26,0,0,1,7.82,5.46,22.84,22.84,0,0,1,5.14,7.19,29.47,29.47,0,0,1-.25,22.56,23.7,23.7,0,0,1-7.49,8.74,34.3,34.3,0,0,1-11.34,5.15,67.55,67.55,0,0,1-13.83,2.09,78.63,78.63,0,0,1-14.35-.51A42.85,42.85,0,0,1,713.43,1447.18Z"/><path class="cls-4" d="M798.27,1443.12q-.4-10.17-.8-20.34a39.67,39.67,0,0,0,25.58,8.35,29.67,29.67,0,0,0,6.78-.93,16.46,16.46,0,0,0,4.79-2.09,8.46,8.46,0,0,0,2.82-3,7.31,7.31,0,0,0,.84-3.69,7.89,7.89,0,0,0-1.68-4.72,17,17,0,0,0-4.32-3.75,44.19,44.19,0,0,0-6.43-3.22c-2.48-1-5.15-2.06-8-3.1q-10.94-4.06-16.48-10.28a23.66,23.66,0,0,1-5.92-15.3,24.07,24.07,0,0,1,2.43-12.35,24.42,24.42,0,0,1,7.6-8.73,35.83,35.83,0,0,1,11.46-5.28,60,60,0,0,1,14-2,84.2,84.2,0,0,1,12.9.46,50.94,50.94,0,0,1,10.41,2.34c.19,6.34.35,12.68.53,19a31.21,31.21,0,0,0-5.15-2.66,40.39,40.39,0,0,0-5.71-1.83,42.69,42.69,0,0,0-11.3-1.22,29,29,0,0,0-6.44.88,16.94,16.94,0,0,0-4.85,2,9.64,9.64,0,0,0-3,3,6.71,6.71,0,0,0-1,3.82,7.2,7.2,0,0,0,1.37,4.06,14.33,14.33,0,0,0,3.59,3.32,37.53,37.53,0,0,0,5.58,3q3.28,1.46,7.38,3a80.2,80.2,0,0,1,10.09,4.56A34.68,34.68,0,0,1,853,1402a22.39,22.39,0,0,1,5,7.28,25.3,25.3,0,0,1,1.93,9.65,25.82,25.82,0,0,1-2.56,12.89,23.66,23.66,0,0,1-7.64,8.62,34.15,34.15,0,0,1-11.42,5,68,68,0,0,1-13.86,1.86,77.94,77.94,0,0,1-14.34-.77A43.52,43.52,0,0,1,798.27,1443.12Z"/><path class="cls-4" d="M926,1444.83q-19.59.27-32.21-12.21c-8.4-8.34-12.82-19.32-13.13-33q-.5-21.62,12-35.25t33.6-13.92c13.26-.17,24.08,4,32.3,12.47s12.35,19.7,12.41,33.64q.09,21.51-12.39,34.75T926,1444.83Zm-.13-76.67q-11,.15-17.32,8.38t-6.06,21.58q.24,13.55,6.79,21.32a20.6,20.6,0,0,0,16.87,7.64c7.12-.1,12.72-2.71,16.85-7.87s6.15-12.26,6.08-21.34c-.08-9.45-2.17-16.79-6.32-22S933,1368.07,925.91,1368.16Z"/><path class="cls-4" d="M1063.59,1440c-6.71,3.14-15.45,4.63-26.17,4.53q-21-.18-33-12.52c-8-8.24-12.08-19.21-12.07-32.91,0-14.58,4.55-26.42,13.75-35.48s21.15-13.53,35.82-13.39q13.62.13,22.91,3.64-.13,9.9-.28,19.79a40.79,40.79,0,0,0-21.12-5.73q-13.07-.13-21.13,7.91t-8.1,21.85c0,8.82,2.45,15.86,7.4,21.12s11.66,7.93,20.09,8a43.48,43.48,0,0,0,22.18-5.59Q1063.73,1430.66,1063.59,1440Z"/><path class="cls-4" d="M1111.76,1444.21q-10.27-.24-20.56-.45.9-45.6,1.81-91.21,10.47.21,20.94.46Z"/><path class="cls-4" d="M1224.52,1448.2q-11.19-.53-22.4-1-2.8-10.28-5.66-20.55-16.31-.67-32.6-1.23-3.57,10-7.12,20.06-11.15-.36-22.29-.68,17.92-45.12,36.45-90.11,12.42.43,24.83.94Q1210.43,1401.89,1224.52,1448.2Zm-32.16-37.5q-4.32-15.51-8.7-31a39.07,39.07,0,0,1-1.24-8.26l-.52,0a35,35,0,0,1-1.91,7.88q-5.61,15.27-11.16,30.54Q1180.61,1410.23,1192.36,1410.7Z"/><path class="cls-4" d="M1307.26,1378.13q-13.2-.83-26.41-1.59-2.13,37.18-4.27,74.38-10.3-.6-20.61-1.14l4-74.39q-13.14-.71-26.29-1.33c.28-5.57.54-11.14.81-16.72q36.93,1.79,73.85,4.09C1308,1367,1307.6,1372.56,1307.26,1378.13Z"/><path class="cls-4" d="M1381.25,1458q-27.33-2.14-54.66-4l6.15-91q26.79,1.82,53.54,3.91-.66,8.34-1.31,16.68-16.24-1.27-32.51-2.44c-.48,6.74-1,13.49-1.46,20.24q15.07,1.08,30.14,2.25-.65,8.31-1.3,16.62-15-1.17-30-2.25-.75,10.41-1.49,20.82,17.12,1.23,34.24,2.57Q1381.9,1449.73,1381.25,1458Z"/><path class="cls-5" d="M312.74,962.08q-11.62,1.09-23.25,2.22-7.28-15.19-14.6-30.39-25.23,2.49-50.44,5.15-3.87,16.34-7.71,32.67-11.56,1.23-23.13,2.51,17.05-64.46,35-128.85,12.13-1.26,24.27-2.48Q283.19,902.39,312.74,962.08ZM267.6,917.72q-11.39-23.81-22.87-47.57a57,57,0,0,1-2.51-7.59l-.36,0a49.19,49.19,0,0,1-1,7.95q-6.37,25.59-12.61,51.19Q247.92,919.69,267.6,917.72Z"/><path class="cls-5" d="M414.13,837.56q-31.78,51.62-62.6,103.49,34.67-3.06,69.35-5.78.67,8.7,1.36,17.39-49.44,3.87-98.85,8.43l-.87-9.41q30.72-51.75,62.41-103.25-32.94,2.72-65.84,5.73-.81-8.73-1.6-17.45,47.94-4.38,95.93-8.15Q413.77,833.06,414.13,837.56Z"/><path class="cls-5" d="M540.27,894c2.14,34.88-13.84,53.3-47.81,55.62-32.55,2.25-50.12-13.21-52.67-46.73L434.06,827q10.8-.83,21.6-1.6,2.59,35.82,5.2,71.64c1.78,24.34,12.44,35.78,32,34.44q28.23-1.92,26-37.11l-4.71-73q10.8-.71,21.6-1.37Z"/><path class="cls-5" d="M674.23,937.28q-12.42.54-24.83,1.13-11-16.15-22.12-32.28a66.6,66.6,0,0,0-5.82-7.57,32,32,0,0,0-5.66-5.06,18.49,18.49,0,0,0-6.13-2.72,26,26,0,0,0-7.34-.57l-8.63.47q1.37,25.2,2.74,50.41-10.58.57-21.16,1.18l-7.11-124.2q21.44-1.23,42.87-2.33A64.81,64.81,0,0,1,628,817a40.06,40.06,0,0,1,13.73,5.64,29.39,29.39,0,0,1,9.42,10.07,31.82,31.82,0,0,1,3.89,14.54,34.86,34.86,0,0,1-1.48,12.18,31.83,31.83,0,0,1-5.32,10.06,35,35,0,0,1-8.67,7.75A46.71,46.71,0,0,1,628,882.47c0,.11,0,.23,0,.34a34.69,34.69,0,0,1,6.33,3.9q2.71,2.17,5.16,4.49a57.78,57.78,0,0,1,4.9,5.28c1.63,2,3.41,4.28,5.4,6.91Q662.08,920.31,674.23,937.28ZM590.59,833.59q1.11,20.19,2.2,40.37,8.93-.5,17.84-1a27.48,27.48,0,0,0,9.08-1.94,21.35,21.35,0,0,0,7-4.61,19.13,19.13,0,0,0,4.46-7,22.42,22.42,0,0,0,1.27-9q-.43-8.93-6.56-13.67c-4.08-3.15-9.84-4.54-17.2-4.16C602.67,832.94,596.64,833.26,590.59,833.59Z"/><path class="cls-5" d="M762.89,934q-36,1.13-71.92,2.61-2.57-62.15-5.13-124.29,35.13-1.46,70.25-2.57.28,8.76.56,17.52-24.27.76-48.51,1.7l1.35,35.19q22.25-.84,44.48-1.57.28,8.72.56,17.43-22.17.72-44.37,1.57.71,18.38,1.41,36.75,25.38-1,50.78-1.76Z"/><path class="cls-5" d="M833.65,927.15q-.23-10.64-.46-21.25a34.29,34.29,0,0,0,7.13,4.53,56.3,56.3,0,0,0,8.73,3.34,68.71,68.71,0,0,0,9.18,2,50.44,50.44,0,0,0,8.43.64q13.41-.24,20-4.65A14.17,14.17,0,0,0,893,899.13a13.5,13.5,0,0,0-2.3-7.65,23.09,23.09,0,0,0-6.24-5.86,66.69,66.69,0,0,0-9.39-5q-5.4-2.39-11.57-5-6.63-3.27-12.38-6.63a53.57,53.57,0,0,1-10-7.48,32.11,32.11,0,0,1-6.78-9.36,29.53,29.53,0,0,1-2.66-12.35,27.63,27.63,0,0,1,3.79-15.31,34,34,0,0,1,10.68-10.89,50.88,50.88,0,0,1,15.29-6.53,75.78,75.78,0,0,1,17.6-2.32q20.46-.32,29.88,4,.11,10.2.22,20.39-11.14-7.51-28.57-7.27a53.34,53.34,0,0,0-9.56,1,29.42,29.42,0,0,0-8.48,3,18.27,18.27,0,0,0-6,5.23,12.27,12.27,0,0,0-2.22,7.59,13.57,13.57,0,0,0,1.94,7.17,19.07,19.07,0,0,0,5.39,5.45,54.54,54.54,0,0,0,8.58,4.76c3.35,1.53,7.26,3.19,11.68,5,4.53,2.19,8.83,4.5,12.86,6.94a59.39,59.39,0,0,1,10.64,8.11,35.9,35.9,0,0,1,7.31,9.94,28.48,28.48,0,0,1,2.78,12.5c.08,6.31-1.2,11.64-3.77,16a31.29,31.29,0,0,1-10.49,10.7,48.12,48.12,0,0,1-15.26,6.1,90,90,0,0,1-18.29,2.11c-2.12,0-4.78-.08-7.92-.34s-6.33-.66-9.63-1.21a92.78,92.78,0,0,1-9.34-2A30.22,30.22,0,0,1,833.65,927.15Z"/><path class="cls-5" d="M1023.87,823.6q-18.68-.08-37.37-.07l.06,106.88q-10.65,0-21.28,0-.18-53.44-.37-106.88-18.63.06-37.28.22l-.15-17.52q48.24-.4,96.47-.19Q1023.92,814.84,1023.87,823.6Z"/><path class="cls-5" d="M1136,931.87q-11.67-.24-23.33-.43-5.51-15.93-11-31.85-25.32-.39-50.64-.6-5.7,15.79-11.35,31.58-11.61-.08-23.23-.12,24.21-62.12,49.27-124.06,12.18.12,24.36.29Q1113.38,869.2,1136,931.87Zm-39.78-49.19q-8.61-24.95-17.31-49.86a56.76,56.76,0,0,1-1.63-7.82h-.37a48.46,48.46,0,0,1-1.9,7.79q-9.21,24.71-18.3,49.43Q1076.42,882.39,1096.18,882.68Z"/><path class="cls-5" d="M1242.34,929.58q-14.71,6.78-36.25,6.12c-18.59-.55-33.31-6.62-44.27-18.28s-16.27-26.71-15.88-45.22q.63-29.82,20.21-47.79t49-17.06q18.91.57,31.19,6.14-.36,10.23-.71,20.46a57.36,57.36,0,0,0-28.77-8.41q-21.14-.64-34.57,12t-13.92,34.19q-.5,20.55,11.31,33t31.48,13.08q18.15.56,31.8-7.3Z"/><path class="cls-5" d="M1365.2,940.1q-13.83-.72-27.68-1.38-20.93-29.49-42.2-58.86a29.69,29.69,0,0,1-2.88-4.46h-.36q-1.26,30.58-2.53,61.19l-21.26-.85,4.77-124.31,21.63.87q-1.21,29.21-2.42,58.42h.36a27.89,27.89,0,0,1,3.25-4.12q22.81-26.18,46-52.22,12.95.61,25.88,1.28-27.09,28.5-53.78,57.19Q1339.82,906.38,1365.2,940.1Z"/><path class="cls-5" d="M1536.74,951q-10.66-.81-21.32-1.58l3.9-53.82q-30.33-2.19-60.68-4.14l-3.45,53.84L1433.94,944q3.81-62.09,7.61-124.17,10.8.66,21.61,1.36-1.68,26.1-3.35,52.2,30.4,1.95,60.83,4.16l3.78-52.17q10.85.78,21.69,1.6Q1541.42,889,1536.74,951Z"/><path class="cls-5" d="M1673.16,912.07c-3.29,34.79-21.9,50.52-55.86,47.56-32.52-2.8-47.48-20.8-44.83-54.31q3-37.92,6.07-75.84,10.79.87,21.59,1.76-3,35.79-5.94,71.58c-2,24.33,6.76,37.28,26.28,39q28.2,2.46,31.42-32.66,3.3-36.4,6.62-72.83,10.79,1,21.57,2Q1676.62,875.18,1673.16,912.07Z"/><path class="cls-5" d="M1700.3,965.22q6.09-61.9,12.17-123.8,20.61,2,41.21,4.17,18.84,1.95,29,11t8.75,21.63a28.6,28.6,0,0,1-8.21,17.6q-7,7.09-18.35,9.2c0,.11,0,.23,0,.34q13.13,2.88,20.2,11.74t5.65,21.61q-1.76,15.87-15.75,24.28c-9.34,5.62-20.53,7.73-33.65,6.37Q1720.79,967.24,1700.3,965.22Zm32-105.18-3.57,35.22,13.85,1.41c7.43.77,13.42-.3,18-3.22s7.2-7.45,7.86-13.6q1.69-15.87-20.54-18.21Zm-5.24,51.7-4,39.19,18.11,1.86q11.86,1.23,18.9-3.38t8-13.93c1.38-12.82-7.17-20.24-25.66-22.16Z"/><path class="cls-5" d="M599.35,1144.68q-26.85,1.48-44.16-14.89c-11.51-10.93-17.93-25.67-19.11-44.26q-1.89-30,13.69-48.84c10.43-12.58,25.3-19.44,44.49-20.5q26.7-1.47,43.85,15.09c11.43,11,17.51,25.88,18.39,44.54q1.43,30.42-14.19,48.88T599.35,1144.68Zm-5.14-110.32q-17.37,1-27.5,14.35t-8.82,34.16q1.29,20.7,12.48,32.71t28.07,11.07q17.92-1,27.65-13.55c6.49-8.38,9.42-19.79,8.7-34.23q-1.11-22.27-11.89-33.88T594.21,1034.36Z"/><path class="cls-5" d="M706.45,1092.32q.88,22.53,1.8,45.07c-6.87.28-13.72.56-20.59.86Q685,1076.11,682.33,1014q19.23-.83,38.45-1.55,21.84-.81,34.19,8.78t12.87,27.71q.57,18.13-11.51,30.06t-33.19,12.71ZM704,1030.08q.9,22.71,1.81,45.42l13.5-.52c8.94-.34,15.65-2.64,20.2-6.91s6.67-10.12,6.42-17.58c-.49-14.62-9.38-21.65-26.68-21Z"/><path class="cls-5" d="M866.92,1132.84q-35,.6-69.94,1.57-1.69-62.19-3.4-124.36,34.17-.93,68.34-1.55l.32,17.53q-23.6.42-47.19,1,.44,17.61.86,35.21,21.63-.52,43.27-.92.17,8.71.32,17.43-21.59.4-43.16.93l.9,36.77q24.69-.6,49.38-1C866.72,1121.21,866.83,1127,866.92,1132.84Z"/><path class="cls-5" d="M990.72,1131.76q-12.08,0-24.15,0-10-16.62-20.12-33.22a69.74,69.74,0,0,0-5.33-7.82,31.81,31.81,0,0,0-5.29-5.29,17.89,17.89,0,0,0-5.84-3,24.43,24.43,0,0,0-7.1-.89l-8.41.08.54,50.49q-10.29.1-20.59.25L892.75,1008q20.87-.28,41.74-.44a60.81,60.81,0,0,1,16.46,2,38,38,0,0,1,13.1,6.23,29.34,29.34,0,0,1,8.73,10.47,32.65,32.65,0,0,1,3.16,14.7,35.59,35.59,0,0,1-2,12.1,31.76,31.76,0,0,1-5.6,9.82,33.92,33.92,0,0,1-8.74,7.36,44.61,44.61,0,0,1-11.5,4.75v.34a32.23,32.23,0,0,1,6,4.17c1.7,1.53,3.3,3.1,4.83,4.71a58.4,58.4,0,0,1,4.53,5.49q2.24,3.07,5,7.14Q979.64,1114.28,990.72,1131.76Zm-76.84-107.25q.21,20.21.43,40.42l17.37-.16a26.34,26.34,0,0,0,8.9-1.54,20.77,20.77,0,0,0,7-4.3,19.31,19.31,0,0,0,4.62-6.79,22.73,22.73,0,0,0,1.62-9c-.05-6-2-10.6-5.79-13.93s-9.36-5-16.54-4.92Z"/><path class="cls-5" d="M1113,1132.83l-22.68-.36q-5.38-15.92-10.81-31.81-24.62-.32-49.24-.45-5.51,15.8-11,31.61l-22.59-.06q23.39-62.17,47.6-124.2,11.87.09,23.71.22Q1090.87,1070.24,1113,1132.83Zm-38.79-49.07q-8.43-24.9-17-49.8a59.42,59.42,0,0,1-1.61-7.82h-.35a51.59,51.59,0,0,1-1.83,7.79q-8.91,24.74-17.68,49.49Q1055,1083.53,1074.16,1083.76Z"/><path class="cls-5" d="M1206,1028.13q-18.18-.54-36.34-1-1.33,53.43-2.68,106.84-10.34-.26-20.68-.48l2.37-106.85q-18.14-.41-36.26-.71l.3-17.53q46.92.81,93.82,2.22Q1206.22,1019.38,1206,1028.13Z"/><path class="cls-5" d="M1270.19,1139.4c-18-.71-32.09-7-42.53-19s-15.41-27.26-14.82-45.87q.93-30,18.26-47.32t46.23-16.18q26.68,1.07,42.21,19.18t14.08,46.09q-1.51,30.4-18.77,47.31T1270.19,1139.4Zm5.36-110.31q-17.4-.69-28.72,11.68t-12,33.17c-.48,13.81,2.65,25.06,9.31,33.74s15.62,13.25,26.89,13.7q17.94.7,28.82-10.87t11.89-33.25q1-22.27-8.61-34.86C1296.7,1034,1287.49,1029.57,1275.55,1029.09Z"/><path class="cls-5" d="M1454.88,1147.08q-12.06-.8-24.12-1.55-8.9-17.25-17.88-34.47a69.13,69.13,0,0,0-4.82-8.16,32.49,32.49,0,0,0-4.93-5.63,17.52,17.52,0,0,0-5.63-3.36,24.32,24.32,0,0,0-7-1.36l-8.39-.47-2.79,50.42q-10.27-.57-20.57-1.11,3.24-62.12,6.49-124.23,20.85,1.08,41.7,2.3a61.05,61.05,0,0,1,16.3,3,38.47,38.47,0,0,1,12.68,7.08,29.31,29.31,0,0,1,8,11,32.55,32.55,0,0,1,2.19,14.88,35.3,35.3,0,0,1-2.74,11.94,31.41,31.41,0,0,1-6.23,9.43,34.56,34.56,0,0,1-9.21,6.78,44.42,44.42,0,0,1-11.8,4c0,.12,0,.23,0,.35a34,34,0,0,1,5.69,4.56c1.61,1.63,3.09,3.3,4.52,5a51.19,51.19,0,0,1,4.15,5.78q2,3.21,4.49,7.45Q1445,1128.91,1454.88,1147.08ZM1385.23,1035q-1.11,20.19-2.23,40.37,8.67.48,17.35,1a26.26,26.26,0,0,0,9-1,20.5,20.5,0,0,0,7.31-3.82,19.26,19.26,0,0,0,5.06-6.48,23,23,0,0,0,2.21-8.81c.37-6-1.27-10.71-4.88-14.29s-9-5.58-16.17-6Z"/><polygon class="cls-4" points="858.58 1519.13 887.24 1607.31 979.96 1607.31 904.94 1661.81 933.6 1750 858.58 1695.49 783.57 1750 812.22 1661.81 737.21 1607.31 829.93 1607.31 858.58 1519.13"/><polygon class="cls-4" points="1140.51 1519.13 1169.16 1607.31 1261.88 1607.31 1186.87 1661.81 1215.52 1750 1140.51 1695.49 1065.49 1750 1094.14 1661.81 1019.13 1607.31 1111.85 1607.31 1140.51 1519.13"/></svg>