<svg id="Layer_1" data-name="Layer 1" xmlns="http://www.w3.org/2000/svg" viewBox="0 0 2000 2000"><defs><style>.cls-1{fill:#002050;}.cls-2{fill:#0064b5;}.cls-3{fill:#505050;}.cls-4{fill:#fff;}.cls-5{fill:#282828;}</style></defs><path class="cls-1" d="M1000,10a149.2,149.2,0,0,0-43.11,6.36L398.14,185A142.38,142.38,0,0,0,296.3,322.13v949.14c0,242.84,82.05,327.38,239.29,467.71,153.69,137.16,428.51,238,440.14,242.2L1000,1990l24.27-8.82c11.63-4.23,286.45-105,440.14-242.2,157.24-140.33,239.29-224.87,239.29-467.71V322.13A142.38,142.38,0,0,0,1601.86,185L1043.11,16.36A149.2,149.2,0,0,0,1000,10Z"/><path class="cls-1" d="M1581.33,253.07,1022.56,84.4a78.54,78.54,0,0,0-45.12,0L418.67,253.07a72.13,72.13,0,0,0-51.28,69.05V999.57H1632.61V322.12A72.13,72.13,0,0,0,1581.33,253.07Z"/><path class="cls-2" d="M367.39,1271.28c0,214,64.55,279.94,215.51,414.67,145.27,129.64,417.1,228.42,417.1,228.42s271.83-98.78,417.1-228.42c151-134.73,215.51-200.7,215.51-414.67V999.57H367.39Z"/><path class="cls-3" d="M1000,656.84c-300.5,0-593.32,25.46-870.34,75.68A102.73,102.73,0,0,0,47.27,854.08c25.46,125.27,54.59,278.35,74.23,390a113.27,113.27,0,0,0,111.74,93.78,114.58,114.58,0,0,0,23.46-2.44C354,1315,621.31,1267.58,1000,1267.58s646,47.43,743.31,67.82a114.42,114.42,0,0,0,23.45,2.44,113.27,113.27,0,0,0,111.74-93.78c19.64-111.64,48.77-264.72,74.23-390a102.73,102.73,0,0,0-82.39-121.56c-277-50.22-569.84-75.68-870.34-75.68Z"/><path class="cls-4" d="M1000,1230.27c315.15,0,582.57,33.34,751,68.61a76.19,76.19,0,0,0,90.8-61.28c20.68-117.62,50.24-272,74.41-390.95a65.42,65.42,0,0,0-52.49-77.42c-166.56-30.2-465-75.08-863.68-75.08h0c-398.71,0-697.12,44.88-863.68,75.08a65.42,65.42,0,0,0-52.49,77.42C108,965.58,137.56,1120,158.24,1237.6a76.19,76.19,0,0,0,90.8,61.28c168.39-35.27,435.81-68.61,751-68.61Z"/><path class="cls-4" d="M788.23,400.57H764.69V337.25q0-10.26.88-22.66H765a112.47,112.47,0,0,1-3.31,14l-24.8,71.95H717.38l-25.24-71.21q-1-2.88-3.32-14.77h-.66q.95,15.66,1,27.46v58.52H667.64V294.74h34.91l21.62,62.73a89,89,0,0,1,3.77,15.13h.44a151.86,151.86,0,0,1,4.21-15.27l21.62-62.59h34Z"/><path class="cls-4" d="M820.3,313a13.6,13.6,0,0,1-9.67-3.5,11.29,11.29,0,0,1-3.76-8.6,10.9,10.9,0,0,1,3.76-8.56,15.79,15.79,0,0,1,19.37,0,10.94,10.94,0,0,1,3.73,8.56,11.24,11.24,0,0,1-3.73,8.71A13.84,13.84,0,0,1,820.3,313Zm11.51,87.53H808.49V325h23.32Z"/><path class="cls-4" d="M907.2,397.84q-7.89,4.57-22.8,4.58-17.42,0-28.19-10.56t-10.78-27.23q0-19.26,11.55-30.37t30.89-11.1q13.35,0,19.33,3.54v19.78A26.59,26.59,0,0,0,890.89,341q-10,0-15.9,5.86t-5.87,16.2q0,10,5.61,15.76t15.43,5.72a30.78,30.78,0,0,0,17-5.46Z"/><path class="cls-4" d="M970.27,346a20.32,20.32,0,0,0-9.82-2.28,14.15,14.15,0,0,0-11.88,5.57q-4.27,5.56-4.28,15.17v36.08H921V325h23.33v14h.29q5.53-15.34,19.93-15.35a15,15,0,0,1,5.76.89Z"/><path class="cls-4" d="M1015.62,402.42q-18.9,0-29.71-10.59T975.1,363.08q0-18.75,11.22-29.33t30.33-10.59q18.81,0,29.52,10.59t10.7,28q0,18.81-11,29.74T1015.62,402.42Zm.59-61.4q-8.26,0-12.84,5.68t-4.58,16.09q0,21.76,17.57,21.77,16.74,0,16.75-22.36Q1033.11,341,1016.21,341Z"/><path class="cls-4" d="M1065.54,398.58V379.69a49.78,49.78,0,0,0,11.48,5.16,38.11,38.11,0,0,0,10.81,1.7,23.21,23.21,0,0,0,9.78-1.7q3.59-1.69,3.58-5.16a4.77,4.77,0,0,0-1.62-3.69,15.08,15.08,0,0,0-4.17-2.59,49.38,49.38,0,0,0-5.57-2c-2-.59-4-1.25-5.84-2a56.24,56.24,0,0,1-7.93-3.65,23.11,23.11,0,0,1-5.76-4.54,17.82,17.82,0,0,1-3.54-6,23.86,23.86,0,0,1-1.22-8,20.79,20.79,0,0,1,2.77-10.93,22.67,22.67,0,0,1,7.38-7.49,33.79,33.79,0,0,1,10.56-4.28,55,55,0,0,1,12.36-1.36,68,68,0,0,1,10.18.77,77.55,77.55,0,0,1,10.19,2.25v18a36.49,36.49,0,0,0-9.49-3.87,39.54,39.54,0,0,0-9.92-1.3,22,22,0,0,0-4.32.41,13.93,13.93,0,0,0-3.58,1.18,6.74,6.74,0,0,0-2.44,2,4.59,4.59,0,0,0-.88,2.77,5.08,5.08,0,0,0,1.33,3.54,11.29,11.29,0,0,0,3.47,2.55,34.67,34.67,0,0,0,4.76,1.92c1.74.56,3.48,1.14,5.2,1.73a65.66,65.66,0,0,1,8.41,3.55,26.75,26.75,0,0,1,6.46,4.49,17.75,17.75,0,0,1,4.13,6.06,24.23,24.23,0,0,1-1.47,19.74,23.44,23.44,0,0,1-7.75,7.75,35.17,35.17,0,0,1-11.15,4.35,61.73,61.73,0,0,1-13.1,1.37A67.54,67.54,0,0,1,1065.54,398.58Z"/><path class="cls-4" d="M1171.49,402.42q-18.88,0-29.7-10.59T1131,363.08q0-18.75,11.21-29.33t30.34-10.59q18.81,0,29.51,10.59t10.71,28q0,18.81-11,29.74T1171.49,402.42Zm.6-61.4q-8.28,0-12.85,5.68t-4.57,16.09q0,21.76,17.56,21.77,16.76,0,16.75-22.36Q1189,341,1172.09,341Z"/><path class="cls-4" d="M1275.66,306.55a23.52,23.52,0,0,0-8.63-1.77q-11.22,0-11.22,12.18v8h17.27v17.2h-17.27v58.37h-23.25V342.2h-12.69V325h12.69v-9.37q0-12.92,8.42-20.81t22.88-7.9a39.93,39.93,0,0,1,11.8,1.48Z"/><path class="cls-4" d="M1328.47,399.69q-5.16,2.73-15.57,2.73-24.66,0-24.65-25.61V342.2H1276V325h12.25V308.69l23.25-6.64V325h17v17.2h-17v30.55q0,11.81,9.37,11.81a15.77,15.77,0,0,0,7.6-2.14Z"/><path class="cls-4" d="M728.5,544.69q-9,4.77-22.49,4.77-17.38,0-27.85-11.19t-10.45-29.38q0-19.54,11.76-31.59t29.83-12q11.6,0,19.2,3.35v10.17a38.9,38.9,0,0,0-19.31-4.89q-14,0-22.76,9.38t-8.72,25.05q0,14.9,8.15,23.73t21.39,8.83q12.27,0,21.25-5.45Z"/><path class="cls-4" d="M808.06,548.1H764.88V466.62h41.36v8.63H774.42v27.11h29.43v8.58H774.42v28.52h33.64Z"/><path class="cls-4" d="M901.93,548.1H890.57l-13.64-22.84a51,51,0,0,0-3.63-5.43,21.71,21.71,0,0,0-3.61-3.67,12.84,12.84,0,0,0-4-2.07,16.54,16.54,0,0,0-4.8-.65h-7.84V548.1h-9.55V466.62h24.32A34.72,34.72,0,0,1,877.7,468a21.85,21.85,0,0,1,7.83,4.06,18.75,18.75,0,0,1,5.21,6.79,24.85,24.85,0,0,1,.59,17.33,20.18,20.18,0,0,1-3.63,6.33,22.27,22.27,0,0,1-5.68,4.75,29.39,29.39,0,0,1-7.47,3v.22a17.47,17.47,0,0,1,3.55,2.08,19.93,19.93,0,0,1,2.87,2.75,38.52,38.52,0,0,1,2.69,3.61c.89,1.35,1.89,2.91,3,4.69Zm-48.86-72.85V504.8H866a19.68,19.68,0,0,0,6.62-1.08,15.36,15.36,0,0,0,5.25-3.09,14.06,14.06,0,0,0,3.47-4.95,16.61,16.61,0,0,0,1.25-6.56q0-6.53-4.24-10.2t-12.23-3.67Z"/><path class="cls-4" d="M975.86,475.25H952.33V548.1h-9.54V475.25H919.33v-8.63h56.53Z"/><path class="cls-4" d="M1018,548.1h-9.54V466.62H1018Z"/><path class="cls-4" d="M1100.53,475.25h-31.82v28.19h29.43V512h-29.43V548.1h-9.54V466.62h41.36Z"/><path class="cls-4" d="M1145.31,548.1h-9.54V466.62h9.54Z"/><path class="cls-4" d="M1229.7,548.1h-43.18V466.62h41.36v8.63h-31.82v27.11h29.44v8.58h-29.44v28.52h33.64Z"/><path class="cls-4" d="M1265.16,548.1V466.62h22.5q43.08,0,43.07,39.71,0,18.87-12,30.32t-32,11.45Zm9.55-72.85v64.21h12.16q16,0,24.94-8.58t8.92-24.32q0-31.31-33.29-31.31Z"/><path class="cls-4" d="M783.76,1456.06q-26.89.68-53.8,1.52l-2.82-89.67q26.15-.83,52.29-1.48.21,8.22.41,16.45-15.9.39-31.8.86.29,10,.58,20,14.76-.43,29.52-.81l.42,16.39q-14.73.38-29.47.8l.6,20.52q16.83-.49,33.66-.91Q783.56,1447.87,783.76,1456.06Z"/><path class="cls-4" d="M890.63,1454.07q-12,.15-24,.33-7.95-14.49-15.95-29a25.2,25.2,0,0,1-1.93-6h-.25a45.24,45.24,0,0,1-2,6.29q-7.53,14.63-15,29.25l-24.09.5q13.8-22.74,27.75-45.43-13.58-22.18-27.27-44.32,12.42-.27,24.84-.5,6.74,13.32,13.44,26.66a46.68,46.68,0,0,1,2.84,7.52h.25c.48-1.77,1.37-4.39,2.7-7.87q7-13.45,14-26.88,11.38-.18,22.76-.31-13.32,22.41-26.49,44.86Q876.52,1431.63,890.63,1454.07Z"/><path class="cls-4" d="M938,1422.71l.21,30.91q-10.11.06-20.21.15-.4-44.85-.82-89.71,16-.15,32-.23c22.86-.12,34.3,9.42,34.31,28.48q0,13.51-9.74,21.89t-26.08,8.45Zm-.29-43.29q.09,14,.19,28l8-.05q16.23-.09,16.18-14.21-.06-13.83-16.34-13.75Z"/><path class="cls-4" d="M1067.18,1453.74q-26.91-.23-53.82-.29.1-44.87.2-89.72,26.16.06,52.3.28-.06,8.22-.13,16.45-15.92-.14-31.82-.21l-.09,20q14.76.07,29.53.19-.06,8.2-.13,16.39-14.74-.12-29.48-.19l-.09,20.53q16.83.07,33.67.22Q1067.24,1445.55,1067.18,1453.74Z"/><path class="cls-4" d="M1173.49,1455.33q-11.6-.24-23.21-.46-6.77-11.67-13.56-23.33-1.53-2.65-2.94-4.74a25.62,25.62,0,0,0-2.86-3.58,11.61,11.61,0,0,0-3-2.31,8,8,0,0,0-3.47-.83l-5.47-.08-.51,34.34q-10.1-.15-20.2-.27.54-44.86,1.1-89.71,16.18.2,32.38.46c22,.36,32.85,8.73,32.52,25a25.23,25.23,0,0,1-1.63,8.63,24.09,24.09,0,0,1-4.23,7.09,26.09,26.09,0,0,1-6.49,5.38,32.91,32.91,0,0,1-8.39,3.47c0,.09,0,.17,0,.26a13,13,0,0,1,3.86,2.1,27.94,27.94,0,0,1,3.59,3.35,46.36,46.36,0,0,1,3.28,4.1q1.56,2.19,2.84,4.27Q1165.3,1441.89,1173.49,1455.33Zm-54-75.56q-.18,12.48-.37,25l8.82.13q6.54.11,10.57-3.58a12.49,12.49,0,0,0,4.2-9.37q.2-11.76-14-12Z"/><path class="cls-4" d="M1261.26,1384.35q-12.9-.4-25.81-.77-1,36.62-2.08,73.24-10.12-.28-20.27-.55,1-36.63,1.91-73.24-12.84-.33-25.69-.63.2-8.22.38-16.45,36,.83,72.08,2Q1261.51,1376.13,1261.26,1384.35Z"/><polygon class="cls-4" points="1000 1591.76 1028.65 1679.94 1121.38 1679.94 1046.36 1734.44 1075.01 1822.62 1000 1768.12 924.99 1822.62 953.64 1734.44 878.63 1679.94 971.35 1679.94 1000 1591.76"/><polygon class="cls-4" points="754 1515.22 780.62 1597.14 866.75 1597.14 797.07 1647.77 823.68 1729.69 754 1679.06 684.32 1729.69 710.93 1647.77 641.25 1597.14 727.38 1597.14 754 1515.22"/><polygon class="cls-4" points="1246 1515.22 1219.38 1597.14 1133.25 1597.14 1202.93 1647.77 1176.32 1729.69 1246 1679.06 1315.68 1729.69 1289.07 1647.77 1358.75 1597.14 1272.62 1597.14 1246 1515.22"/><path class="cls-5" d="M207.57,1067.79q-8.48-59.54-16.94-119.06,17.64-2.51,35.29-4.91c45.16-6.11,70.12,10.61,74.9,49.37,2.29,18.42-2.07,34-12.94,46.72s-26.58,20.45-47.17,23.26Q224.15,1065.44,207.57,1067.79Zm5.59-105.12L225,1048.31q8-1.11,15.91-2.18c14-1.91,24.42-7.16,31.23-15.83s9.35-20,7.58-33.95c-3.56-27.88-20.11-40-49.68-36Z"/><path class="cls-5" d="M405.75,1043.13q-33.71,3.6-67.38,7.59Q331.29,991,324.2,931.31q33-3.93,66.07-7.46.9,8.42,1.81,16.84-22.81,2.44-45.61,5.07,1.95,16.9,3.89,33.82,20.88-2.4,41.78-4.65l1.8,16.75q-20.83,2.25-41.65,4.64,2,17.67,4.06,35.33,23.81-2.75,47.61-5.28Q404.86,1034.76,405.75,1043.13Z"/><path class="cls-5" d="M519.28,911.5q-17,61.77-33.07,123.64-11.15,1-22.3,2.1Q437,979.43,409.11,921.86q11.11-1.15,22.24-2.26,19.68,43.88,38.89,87.89a57.46,57.46,0,0,1,3.14,9.89l.33,0a55,55,0,0,1,1.48-10.5q11-46.76,22.51-93.49Q508.49,912.4,519.28,911.5Z"/><path class="cls-5" d="M602.48,1027.64q-26,1.86-43-13.67t-19.26-42.45q-2.36-28.92,12.46-47.44t42.89-20.54c17.26-1.23,31.56,3.43,42.79,13.92s17.36,24.76,18.46,42.78q1.78,29.38-13.08,47.46T602.48,1027.64ZM595.8,921.09q-16.84,1.21-26.45,14.32t-8,33.16c1,13.33,5.28,23.78,12.63,31.41s16.48,11,27.36,10.26q17.32-1.25,26.58-13.53t7.93-33.21q-1.38-21.5-12-32.57T595.8,921.09Z"/><path class="cls-5" d="M708.41,975.38l2.28,43.55q-10,.51-19.91,1.07-3.36-60-6.7-120.06,18.66-1.05,37.32-2c14.12-.69,25.24,2,33.28,8.11s12.31,15,12.79,26.65-3.14,21.39-10.86,29.17-18.36,12-32,12.66Q716.5,975,708.41,975.38Zm-3.14-60.13q1.14,21.94,2.29,43.88l13.08-.67q13-.65,19.51-6.9c4.33-4.17,6.36-9.86,6-17.07-.63-14.12-9.34-20.82-26.11-20Q712.66,914.86,705.27,915.25Z"/><path class="cls-5" d="M793.73,1010.41,793,989.88a32.1,32.1,0,0,0,6.8,4.28,52.13,52.13,0,0,0,8.25,3.1,64.64,64.64,0,0,0,8.68,1.85,47.9,47.9,0,0,0,7.94.49c8.42-.27,14.65-1.85,18.73-4.77s6-7,5.86-12.32a13.16,13.16,0,0,0-2.28-7.36,21.62,21.62,0,0,0-6-5.58,60.36,60.36,0,0,0-8.92-4.73q-5.12-2.24-11-4.64c-4.22-2.05-8.13-4.13-11.78-6.24a49.45,49.45,0,0,1-9.56-7.09,31.57,31.57,0,0,1-6.56-8.94,29.33,29.33,0,0,1-2.71-11.9,27.09,27.09,0,0,1,3.35-14.86,32.24,32.24,0,0,1,9.91-10.67A47.3,47.3,0,0,1,818.06,894a70.05,70.05,0,0,1,16.59-2.49q19.32-.57,28.28,3.51.24,9.84.49,19.7c-7.06-4.75-16.11-7-27.07-6.65a49,49,0,0,0-9,1.11,26.94,26.94,0,0,0-8,3,17.28,17.28,0,0,0-5.61,5.14,12,12,0,0,0-2,7.37,13.46,13.46,0,0,0,1.94,6.9,18,18,0,0,0,5.16,5.19,50.79,50.79,0,0,0,8.15,4.48q4.82,2.16,11.1,4.66c4.32,2.05,8.38,4.23,12.22,6.53a56.15,56.15,0,0,1,10.15,7.7,35.29,35.29,0,0,1,7,9.51,28.1,28.1,0,0,1,2.79,12.06q.23,9.13-3.34,15.51a29.74,29.74,0,0,1-9.72,10.48,45.24,45.24,0,0,1-14.26,6.1,82.64,82.64,0,0,1-17.19,2.29,72.78,72.78,0,0,1-7.44-.22c-3-.21-6-.55-9.09-1a84.65,84.65,0,0,1-8.82-1.83A28.08,28.08,0,0,1,793.73,1010.41Z"/><path class="cls-5" d="M1024.43,1011.21q-33.87-.11-67.7.2-.54-60.13-1.07-120.25,33.2-.3,66.39-.21,0,8.46,0,16.94-22.9-.06-45.81.06.09,17,.18,34,21-.12,42-.07l0,16.85q-20.92,0-41.85.07.1,17.77.19,35.56,23.91-.13,47.83-.06Q1024.45,1002.78,1024.43,1011.21Z"/><path class="cls-5" d="M1156.22,1013.14q-10.93-.28-21.86-.53-27.81-44.83-56.52-89.38a39.93,39.93,0,0,1-3.59-7h-.51c.43,2.58.61,8.09.5,16.53l-.93,78.82q-9.68-.12-19.34-.19l1-120.25q11.89.09,23.79.24,27.88,43.5,54.93,87.25c2.28,3.63,3.76,6.12,4.4,7.48h.34q-.75-4.8-.47-16.2l1.77-77.46q9.83.22,19.66.48Q1157.79,953,1156.22,1013.14Z"/><path class="cls-5" d="M1288.61,1009.94q-19.35,9.28-42.43,8.3-26.72-1.12-42.69-18.26c-10.68-11.44-15.8-26.25-15.22-44.47q.86-27.9,19.9-45.19c12.7-11.5,28.63-16.88,47.63-16.07q20.54.88,34.23,7.45-.51,10.26-1,20.52-13.65-9.9-33.18-10.76t-32.62,11.36q-13,12.2-13.67,32.31c-.49,13.8,2.7,24.78,9.48,33s16.23,12.49,28.39,13q12.48.52,21.79-3.82l1.32-28.57q-12.81-.59-25.61-1.12.36-8.37.7-16.75,22.92.95,45.82,2.09Q1290,981.43,1288.61,1009.94Z"/><path class="cls-5" d="M1342.74,1021.12c-6.85-.41-13.72-.8-20.57-1.18q3.33-60,6.68-120.07,10.5.58,21,1.21Q1346.31,961.1,1342.74,1021.12Z"/><path class="cls-5" d="M1482.52,1031.14q-10.9-.92-21.81-1.79-25.2-46.36-51.32-92.49a39.19,39.19,0,0,1-3.18-7.2l-.51,0q.42,3.9-.46,16.53l-5.46,78.64q-9.65-.68-19.31-1.31,4-60,7.91-120,11.86.78,23.75,1.61,25.35,45,49.86,90.27c2.08,3.76,3.38,6.33,4,7.73l.34,0a105.5,105.5,0,0,1,.46-16.19q3.11-38.62,6.23-77.24l19.62,1.62Z"/><path class="cls-5" d="M1587.82,1041q-33.72-3.46-67.46-6.53,5.45-59.88,10.88-119.76,33.09,3,66.16,6.39-.87,8.43-1.73,16.85-22.82-2.34-45.64-4.49-1.6,16.95-3.2,33.89,20.91,2,41.81,4.11l-1.71,16.76q-20.84-2.12-41.69-4.09-1.66,17.7-3.34,35.4,23.85,2.25,47.65,4.7Q1588.68,1032.59,1587.82,1041Z"/><path class="cls-5" d="M1684.61,1051.78q-33.66-4-67.37-7.69l12.93-119.56q33,3.57,66.07,7.53l-2,16.82q-22.79-2.73-45.58-5.28-1.9,16.92-3.78,33.84,20.87,2.32,41.75,4.82-1,8.37-2,16.73-20.81-2.47-41.64-4.8-2,17.67-4,35.33,23.81,2.67,47.59,5.52Q1685.61,1043.41,1684.61,1051.78Z"/><path class="cls-5" d="M1806.54,1067.79q-11.6-1.65-23.2-3.25-7.36-17.28-14.83-34.53a72,72,0,0,0-4.07-8.2,31.93,31.93,0,0,0-4.37-5.79,17.78,17.78,0,0,0-5.22-3.65,23.74,23.74,0,0,0-6.71-1.81l-8.09-1q-3.12,24.21-6.25,48.41-9.91-1.29-19.82-2.53,7.5-59.66,15-119.32,20.15,2.53,40.28,5.21a59.59,59.59,0,0,1,15.61,4.12,37.17,37.17,0,0,1,11.78,7.74,28.31,28.31,0,0,1,7,11.22,31.36,31.36,0,0,1,1,14.5,34.7,34.7,0,0,1-3.53,11.31,30.23,30.23,0,0,1-6.71,8.64,33.1,33.1,0,0,1-9.41,5.86,43.76,43.76,0,0,1-11.7,3c0,.11,0,.22,0,.33a30.94,30.94,0,0,1,5.19,4.8c1.42,1.69,2.76,3.42,4,5.16a54.31,54.31,0,0,1,3.61,5.87q1.76,3.26,3.8,7.51Q1798.28,1049.55,1806.54,1067.79ZM1747.13,954.7l-5,38.76q8.37,1.08,16.74,2.19a25.27,25.27,0,0,0,8.76-.28,19.94,19.94,0,0,0,7.36-3.16,19.06,19.06,0,0,0,5.36-5.87,21.86,21.86,0,0,0,2.77-8.34q1.17-8.57-3.71-14.13t-15.25-6.94Z"/></svg>