<svg id="Layer_1" data-name="Layer 1" xmlns="http://www.w3.org/2000/svg" viewBox="0 0 2000 2000"><defs><style>.cls-1{fill:#002050;}.cls-2{fill:#fff;}.cls-3{fill:#0064b5;}.cls-4{fill:#505050;}.cls-5{fill:#16144b;}.cls-6{fill:#282828;}</style></defs><path class="cls-1" d="M1000,10a149.2,149.2,0,0,0-43.11,6.36L398.14,185A142.38,142.38,0,0,0,296.3,322.13v949.14c0,242.84,82.05,327.38,239.29,467.71,153.69,137.16,428.51,238,440.14,242.2L1000,1990l24.27-8.82c11.63-4.23,286.45-105,440.14-242.2,157.24-140.33,239.29-224.87,239.29-467.71V322.13A142.38,142.38,0,0,0,1601.86,185L1043.11,16.36A149.2,149.2,0,0,0,1000,10Z"/><path class="cls-2" d="M1581.33,253.07,1022.56,84.4a78.54,78.54,0,0,0-45.12,0L418.67,253.07a72.13,72.13,0,0,0-51.28,69.05V999.57H1632.61V322.12A72.13,72.13,0,0,0,1581.33,253.07Z"/><path class="cls-3" d="M367.39,1271.28c0,214,64.55,279.94,215.51,414.67,145.27,129.64,417.1,228.42,417.1,228.42s271.83-98.78,417.1-228.42c151-134.73,215.51-200.7,215.51-414.67V999.57H367.39Z"/><path class="cls-4" d="M1000,656.84c-300.5,0-593.32,25.46-870.34,75.68A102.73,102.73,0,0,0,47.27,854.08c25.46,125.27,54.59,278.35,74.23,390a113.27,113.27,0,0,0,111.74,93.78,114.58,114.58,0,0,0,23.46-2.44C354,1315,621.31,1267.58,1000,1267.58s646,47.43,743.31,67.82a114.42,114.42,0,0,0,23.45,2.44,113.27,113.27,0,0,0,111.74-93.78c19.64-111.64,48.77-264.72,74.23-390a102.73,102.73,0,0,0-82.39-121.56c-277-50.22-569.84-75.68-870.34-75.68Z"/><path class="cls-2" d="M1000,1230.27c315.15,0,582.57,33.34,751,68.61a76.19,76.19,0,0,0,90.8-61.28c20.68-117.62,50.24-272,74.41-390.95a65.42,65.42,0,0,0-52.49-77.42c-166.56-30.2-465-75.08-863.68-75.08h0c-398.71,0-697.12,44.88-863.68,75.08a65.42,65.42,0,0,0-52.49,77.42C108,965.58,137.56,1120,158.24,1237.6a76.19,76.19,0,0,0,90.8,61.28c168.39-35.27,435.81-68.61,751-68.61Z"/><path class="cls-5" d="M788.23,400.57H764.69V337.25q0-10.26.88-22.66H765a112.47,112.47,0,0,1-3.31,14l-24.8,71.95H717.38l-25.24-71.21q-1-2.88-3.32-14.77h-.66q.95,15.66,1,27.46v58.52H667.64V294.74h34.91l21.62,62.73a89,89,0,0,1,3.77,15.13h.44a151.86,151.86,0,0,1,4.21-15.27l21.62-62.59h34Z"/><path class="cls-5" d="M820.3,313a13.6,13.6,0,0,1-9.67-3.5,11.29,11.29,0,0,1-3.76-8.6,10.9,10.9,0,0,1,3.76-8.56,15.79,15.79,0,0,1,19.37,0,10.94,10.94,0,0,1,3.73,8.56,11.24,11.24,0,0,1-3.73,8.71A13.84,13.84,0,0,1,820.3,313Zm11.51,87.53H808.49V325h23.32Z"/><path class="cls-5" d="M907.2,397.84q-7.89,4.57-22.8,4.58-17.42,0-28.19-10.56t-10.78-27.23q0-19.26,11.55-30.37t30.89-11.1q13.35,0,19.33,3.54v19.78A26.59,26.59,0,0,0,890.89,341q-10,0-15.9,5.86t-5.87,16.2q0,10,5.61,15.76t15.43,5.72a30.78,30.78,0,0,0,17-5.46Z"/><path class="cls-5" d="M970.27,346a20.32,20.32,0,0,0-9.82-2.28,14.15,14.15,0,0,0-11.88,5.57q-4.27,5.56-4.28,15.17v36.08H921V325h23.33v14h.29q5.53-15.34,19.93-15.35a15,15,0,0,1,5.76.89Z"/><path class="cls-5" d="M1015.62,402.42q-18.9,0-29.71-10.59T975.1,363.08q0-18.75,11.22-29.33t30.33-10.59q18.81,0,29.52,10.59t10.7,28q0,18.81-11,29.74T1015.62,402.42Zm.59-61.4q-8.26,0-12.84,5.68t-4.58,16.09q0,21.76,17.57,21.77,16.74,0,16.75-22.36Q1033.11,341,1016.21,341Z"/><path class="cls-5" d="M1065.54,398.58V379.69a49.78,49.78,0,0,0,11.48,5.16,38.11,38.11,0,0,0,10.81,1.7,23.21,23.21,0,0,0,9.78-1.7q3.59-1.69,3.58-5.16a4.77,4.77,0,0,0-1.62-3.69,15.08,15.08,0,0,0-4.17-2.59,49.38,49.38,0,0,0-5.57-2c-2-.59-4-1.25-5.84-2a56.24,56.24,0,0,1-7.93-3.65,23.11,23.11,0,0,1-5.76-4.54,17.82,17.82,0,0,1-3.54-6,23.86,23.86,0,0,1-1.22-8,20.79,20.79,0,0,1,2.77-10.93,22.67,22.67,0,0,1,7.38-7.49,33.79,33.79,0,0,1,10.56-4.28,55,55,0,0,1,12.36-1.36,68,68,0,0,1,10.18.77,77.55,77.55,0,0,1,10.19,2.25v18a36.49,36.49,0,0,0-9.49-3.87,39.54,39.54,0,0,0-9.92-1.3,22,22,0,0,0-4.32.41,13.93,13.93,0,0,0-3.58,1.18,6.74,6.74,0,0,0-2.44,2,4.59,4.59,0,0,0-.88,2.77,5.08,5.08,0,0,0,1.33,3.54,11.29,11.29,0,0,0,3.47,2.55,34.67,34.67,0,0,0,4.76,1.92c1.74.56,3.48,1.14,5.2,1.73a65.66,65.66,0,0,1,8.41,3.55,26.75,26.75,0,0,1,6.46,4.49,17.75,17.75,0,0,1,4.13,6.06,24.23,24.23,0,0,1-1.47,19.74,23.44,23.44,0,0,1-7.75,7.75,35.17,35.17,0,0,1-11.15,4.35,61.73,61.73,0,0,1-13.1,1.37A67.54,67.54,0,0,1,1065.54,398.58Z"/><path class="cls-5" d="M1171.49,402.42q-18.88,0-29.7-10.59T1131,363.08q0-18.75,11.21-29.33t30.34-10.59q18.81,0,29.51,10.59t10.71,28q0,18.81-11,29.74T1171.49,402.42Zm.6-61.4q-8.28,0-12.85,5.68t-4.57,16.09q0,21.76,17.56,21.77,16.76,0,16.75-22.36Q1189,341,1172.09,341Z"/><path class="cls-5" d="M1275.66,306.55a23.52,23.52,0,0,0-8.63-1.77q-11.22,0-11.22,12.18v8h17.27v17.2h-17.27v58.37h-23.25V342.2h-12.69V325h12.69v-9.37q0-12.92,8.42-20.81t22.88-7.9a39.93,39.93,0,0,1,11.8,1.48Z"/><path class="cls-5" d="M1328.47,399.69q-5.16,2.73-15.57,2.73-24.66,0-24.65-25.61V342.2H1276V325h12.25V308.69l23.25-6.64V325h17v17.2h-17v30.55q0,11.81,9.37,11.81a15.77,15.77,0,0,0,7.6-2.14Z"/><path class="cls-5" d="M728.5,544.69q-9,4.77-22.49,4.77-17.38,0-27.85-11.19t-10.45-29.38q0-19.54,11.76-31.59t29.83-12q11.6,0,19.2,3.35v10.17a38.9,38.9,0,0,0-19.31-4.89q-14,0-22.76,9.38t-8.72,25.05q0,14.9,8.15,23.73t21.39,8.83q12.27,0,21.25-5.45Z"/><path class="cls-5" d="M808.06,548.1H764.88V466.62h41.36v8.63H774.42v27.11h29.43v8.58H774.42v28.52h33.64Z"/><path class="cls-5" d="M901.93,548.1H890.57l-13.64-22.84a51,51,0,0,0-3.63-5.43,21.71,21.71,0,0,0-3.61-3.67,12.84,12.84,0,0,0-4-2.07,16.54,16.54,0,0,0-4.8-.65h-7.84V548.1h-9.55V466.62h24.32A34.72,34.72,0,0,1,877.7,468a21.85,21.85,0,0,1,7.83,4.06,18.75,18.75,0,0,1,5.21,6.79,24.85,24.85,0,0,1,.59,17.33,20.18,20.18,0,0,1-3.63,6.33,22.27,22.27,0,0,1-5.68,4.75,29.39,29.39,0,0,1-7.47,3v.22a17.47,17.47,0,0,1,3.55,2.08,19.93,19.93,0,0,1,2.87,2.75,38.52,38.52,0,0,1,2.69,3.61c.89,1.35,1.89,2.91,3,4.69Zm-48.86-72.85V504.8H866a19.68,19.68,0,0,0,6.62-1.08,15.36,15.36,0,0,0,5.25-3.09,14.06,14.06,0,0,0,3.47-4.95,16.61,16.61,0,0,0,1.25-6.56q0-6.53-4.24-10.2t-12.23-3.67Z"/><path class="cls-5" d="M975.86,475.25H952.33V548.1h-9.54V475.25H919.33v-8.63h56.53Z"/><path class="cls-5" d="M1018,548.1h-9.54V466.62H1018Z"/><path class="cls-5" d="M1100.53,475.25h-31.82v28.19h29.43V512h-29.43V548.1h-9.54V466.62h41.36Z"/><path class="cls-5" d="M1145.31,548.1h-9.54V466.62h9.54Z"/><path class="cls-5" d="M1229.7,548.1h-43.18V466.62h41.36v8.63h-31.82v27.11h29.44v8.58h-29.44v28.52h33.64Z"/><path class="cls-5" d="M1265.16,548.1V466.62h22.5q43.08,0,43.07,39.71,0,18.87-12,30.32t-32,11.45Zm9.55-72.85v64.21h12.16q16,0,24.94-8.58t8.92-24.32q0-31.31-33.29-31.31Z"/><polygon class="cls-2" points="1000 1436.83 1031.5 1533.78 1133.44 1533.78 1050.97 1593.7 1082.47 1690.64 1000 1630.73 917.53 1690.64 949.03 1593.7 866.56 1533.78 968.5 1533.78 1000 1436.83"/><path class="cls-6" d="M824.36,936.45q-11.7.3-23.39.65-6.24-15.65-12.55-31.29-25.38.8-50.77,1.78-5,16-9.87,32.08-11.64.48-23.29,1,21.3-63.2,43.51-126.26,12.24-.46,24.46-.86Q798.86,874.89,824.36,936.45Zm-42.15-47.28q-9.78-24.51-19.69-49a53.61,53.61,0,0,1-2-7.75l-.37,0a48.81,48.81,0,0,1-1.54,7.86q-8.07,25.13-16,50.25Q762.41,889.81,782.21,889.17Z"/><path class="cls-6" d="M934.28,819.11q-35.38,49.3-69.72,99,34.86-.69,69.73-1,.09,8.72.17,17.43-49.71.48-99.39,1.69-.12-4.73-.23-9.45Q869,877.17,904.3,828q-33.15.46-66.29,1.24l-.42-17.52q48.3-1.14,96.6-1.59Z"/><path class="cls-6" d="M1056.58,884.15c-.34,34.94-17.58,52.19-51.72,52.13-32.71,0-49.18-16.66-49.42-50.27L955,809.93q10.88-.07,21.74-.1l.21,71.83c.09,24.41,10,36.56,29.58,36.58,18.92,0,28.45-11.66,28.6-35.21q.21-36.56.41-73.13l21.73.16Q1056.92,847.11,1056.58,884.15Z"/><path class="cls-6" d="M1187.47,936.93q-12.45-.36-24.91-.67-9.86-16.9-19.8-33.79a67.79,67.79,0,0,0-5.28-8,31.74,31.74,0,0,0-5.31-5.45,18.58,18.58,0,0,0-5.94-3.15,25.73,25.73,0,0,0-7.29-1.09l-8.67-.16q-.43,25.25-.85,50.49c-7.09-.12-14.16-.23-21.25-.33l1.71-124.39q21.55.3,43.1.73a64.79,64.79,0,0,1,16.93,2.44,40,40,0,0,1,13.35,6.61,29.6,29.6,0,0,1,8.71,10.72,31.78,31.78,0,0,1,2.85,14.78,35.1,35.1,0,0,1-2.36,12,31.56,31.56,0,0,1-6,9.65,35.43,35.43,0,0,1-9.23,7.11,47.28,47.28,0,0,1-12,4.41c0,.11,0,.23,0,.34a32.83,32.83,0,0,1,6,4.35q2.57,2.36,4.85,4.84a56.17,56.17,0,0,1,4.51,5.62c1.5,2.09,3.12,4.52,4.92,7.28Q1176.55,919.12,1187.47,936.93ZM1111.24,827.5l-.69,40.42,17.93.33a27.35,27.35,0,0,0,9.21-1.29,21,21,0,0,0,7.39-4.09,19.08,19.08,0,0,0,5-6.66,22.38,22.38,0,0,0,1.94-8.89q.21-8.94-5.6-14.1t-16.92-5.38Z"/><path class="cls-6" d="M1276.39,940.08q-36.06-1.53-72.12-2.65,1.93-62.17,3.88-124.34,35.28,1.1,70.55,2.57-.36,8.76-.73,17.51-24.35-1-48.7-1.85-.6,17.59-1.21,35.2,22.32.76,44.64,1.68-.36,8.71-.71,17.43-22.26-.92-44.53-1.69-.63,18.39-1.27,36.76,25.47.88,50.93,1.95Q1276.74,931.37,1276.39,940.08Z"/><path class="cls-6" d="M348.07,1061q-23.6,2.35-47.17,4.88,2,18.59,4,37.18,21.6-2.31,43.23-4.49l1.74,17.35q-21.57,2.17-43.11,4.48,2.77,25.88,5.54,51.75-10.29,1.11-20.59,2.24L278,1050.73q34.13-3.76,68.29-7.18Z"/><path class="cls-6" d="M477.63,1106.1c2.78,34.84-12.35,53.52-45.36,56.41-31.62,2.81-49-12.35-52.26-45.81q-3.63-37.86-7.25-75.73,10.5-1,21-2,3.32,35.76,6.62,71.53,3.39,36.45,31.86,33.88c18.29-1.61,26.45-14.08,24.51-37.54q-3-36.43-6.1-72.88,10.51-.87,21-1.72Z"/><path class="cls-6" d="M621.73,1146.53q-11.28.66-22.57,1.36-32.56-43.79-65.94-87.24a40.07,40.07,0,0,1-4.3-6.91l-.53,0c.67,2.62,1.3,8.29,1.93,17l5.85,81.34q-10,.71-19.95,1.46-4.65-62-9.31-124,12.26-.91,24.49-1.79,32.45,42.43,64.1,85.18,4,5.33,5.18,7.33l.35,0c-.79-3.25-1.41-8.81-1.9-16.66q-2.46-40-4.93-80,10.13-.63,20.26-1.22Q618.09,1084.44,621.73,1146.53Z"/><path class="cls-6" d="M657.88,1144.51l-6.57-124.22q18.33-1,36.65-1.84c46.84-2.18,71,17.29,72.42,57.66.7,19.19-5.17,34.83-17.48,47s-29.14,18.68-50.55,19.7Q675.12,1143.6,657.88,1144.51Zm15.28-107.8q2.22,44.67,4.43,89.33l16.55-.8q21.86-1,33.5-13.47t10.83-34.3c-1.14-29.06-17.06-43-47.74-41.6Q681.94,1036.28,673.16,1036.71Z"/><path class="cls-6" d="M890.37,1136.44l-22.67.42q-5.93-15.72-11.91-31.42-24.63.54-49.25,1.26-4.93,16-9.84,32-11.28.36-22.58.75,21.17-63,43.24-125.81,11.88-.33,23.74-.61Q866.18,1074.63,890.37,1136.44Zm-40.46-47.71q-9.28-24.6-18.69-49.18a58.38,58.38,0,0,1-1.87-7.76H829a49.28,49.28,0,0,1-1.57,7.85q-8,25-16,50.07Q830.7,1089.18,849.91,1088.73Z"/><path class="cls-6" d="M1046.68,1135.74l-20.52-.12q.19-40.26.37-80.51,0-9.88,1.34-24.19h-.35a83.18,83.18,0,0,1-3.49,11.7q-19.06,46.42-37.58,93l-14.26,0q-18.81-46.08-38.18-92a86.77,86.77,0,0,1-3.47-12.38h-.36q.8,7.45,1,24.37l.81,80.32q-9.56.11-19.11.23-.83-62.2-1.64-124.39,14.85-.19,29.68-.33,17.05,41.28,33.69,82.65a121.38,121.38,0,0,1,4.94,14.21h.43q3.19-9.81,5.21-14.59,16.73-41.28,33.87-82.47,14.31,0,28.61.16Q1047.15,1073.54,1046.68,1135.74Z"/><path class="cls-6" d="M1152.65,1137.43q-35-.84-70-1.31l1.65-124.39q34.25.45,68.47,1.27-.21,8.76-.41,17.52-23.64-.57-47.27-1-.29,17.6-.58,35.21,21.66.36,43.32.86-.21,8.71-.4,17.43-21.6-.49-43.2-.85-.32,18.39-.61,36.77,24.69.42,49.4,1Z"/><path class="cls-6" d="M1285.77,1142q-11.3-.51-22.58-1-27.86-46.92-56.57-93.58a41.18,41.18,0,0,1-3.56-7.32h-.53q.59,4,.17,17.1l-2.58,81.5q-10-.32-20-.6l3.54-124.35q12.27.36,24.53.75,27.88,45.56,55,91.34,3.43,5.7,4.4,7.82l.34,0q-.66-5-.17-16.77,1.68-40,3.35-80.09l20.27.88Z"/><path class="cls-6" d="M1408.52,1041.63q-18.18-1.16-36.35-2.19-3.06,53.34-6.13,106.7-10.33-.6-20.66-1.16,2.88-53.36,5.78-106.72-18.14-1-36.27-1.86.42-8.76.85-17.51,47,2.29,93.88,5.25Q1409.08,1032.89,1408.52,1041.63Z"/><path class="cls-6" d="M1514.6,1156.4q-11.32-.92-22.63-1.79-4.38-16.21-8.81-32.42-24.59-1.86-49.17-3.52-6.46,15.42-12.9,30.87-11.27-.75-22.56-1.45,27.18-60.63,55.26-121,11.85.83,23.7,1.7Q1496.5,1092.53,1514.6,1156.4ZM1478.92,1105q-6.86-25.4-13.84-50.77a60,60,0,0,1-1.11-7.9l-.36,0a48.94,48.94,0,0,1-2.31,7.66q-10.44,24.13-20.75,48.29Q1459.74,1103.56,1478.92,1105Z"/><path class="cls-6" d="M1605.8,1164.42q-34.38-3.27-68.8-6.17,5.22-62,10.45-124,10.52.89,21,1.8-4.67,53.28-9.32,106.56,24.16,2.11,48.3,4.41Z"/><path class="cls-6" d="M1623.82,1161.19l2.07-21.16a33.45,33.45,0,0,0,6.36,5.34,53.7,53.7,0,0,0,8,4.32,67.1,67.1,0,0,0,8.63,3.1,47,47,0,0,0,8.08,1.61q13,1.35,19.84-2.29c4.57-2.42,7.12-6.36,7.72-11.82a13.6,13.6,0,0,0-1.31-7.87,22.34,22.34,0,0,0-5.34-6.54,63.66,63.66,0,0,0-8.49-6.08q-5-3-10.6-6.28-6-4-11.19-8a51.9,51.9,0,0,1-8.82-8.6,32.47,32.47,0,0,1-5.45-10.08,30.33,30.33,0,0,1-1.12-12.58,28.23,28.23,0,0,1,5.48-14.76,33.6,33.6,0,0,1,11.63-9.57,49,49,0,0,1,15.58-4.7,72.32,72.32,0,0,1,17.34-.25q19.86,2.1,28.46,7.51l-2.22,20.26q-9.88-8.76-26.81-10.55a49.79,49.79,0,0,0-9.38-.11,28.26,28.26,0,0,0-8.56,2,17.94,17.94,0,0,0-6.46,4.49,12.36,12.36,0,0,0-3,7.28,14,14,0,0,0,1,7.34,18.58,18.58,0,0,0,4.57,6,52.08,52.08,0,0,0,7.73,5.73q4.62,2.86,10.71,6.31,6.2,4,11.62,8.39a57.76,57.76,0,0,1,9.33,9.29,36.11,36.11,0,0,1,5.88,10.72,29.12,29.12,0,0,1,1.2,12.75c-.71,6.27-2.54,11.41-5.57,15.45a31.06,31.06,0,0,1-11.41,9.4,46.78,46.78,0,0,1-15.48,4.28,85.34,85.34,0,0,1-17.93,0,74.93,74.93,0,0,1-7.61-1.26c-3-.62-6.06-1.4-9.17-2.32a85.71,85.71,0,0,1-8.78-3.09A29,29,0,0,1,1623.82,1161.19Z"/></svg>