<svg id="Layer_1" data-name="Layer 1" xmlns="http://www.w3.org/2000/svg" viewBox="0 0 2000 2000"><defs><style>.cls-1{fill:#002050;}.cls-2{fill:#505050;}.cls-3{fill:#0064b5;}.cls-4{fill:#fff;}.cls-5{fill:#282828;}</style></defs><path class="cls-1" d="M1000,10a149.2,149.2,0,0,0-43.11,6.36L398.14,185A142.38,142.38,0,0,0,296.3,322.13v949.14c0,242.84,82.05,327.38,239.29,467.71,153.69,137.16,428.51,238,440.14,242.2L1000,1990l24.27-8.82c11.63-4.23,286.45-105,440.14-242.2,157.24-140.33,239.29-224.87,239.29-467.71V322.13A142.38,142.38,0,0,0,1601.86,185L1043.11,16.36A149.2,149.2,0,0,0,1000,10Z"/><path class="cls-2" d="M1581.33,253.07,1022.56,84.4a78.54,78.54,0,0,0-45.12,0L418.67,253.07a72.13,72.13,0,0,0-51.28,69.05V999.57H1632.61V322.12A72.13,72.13,0,0,0,1581.33,253.07Z"/><path class="cls-3" d="M367.39,1271.28c0,214,64.55,279.94,215.51,414.67,145.27,129.64,417.1,228.42,417.1,228.42s271.83-98.78,417.1-228.42c151-134.73,215.51-200.7,215.51-414.67V999.57H367.39Z"/><path class="cls-2" d="M1000,656.84c-300.5,0-593.32,25.46-870.34,75.68A102.73,102.73,0,0,0,47.27,854.08c25.46,125.27,54.59,278.35,74.23,390a113.27,113.27,0,0,0,111.74,93.78,114.58,114.58,0,0,0,23.46-2.44C354,1315,621.31,1267.58,1000,1267.58s646,47.43,743.31,67.82a114.42,114.42,0,0,0,23.45,2.44,113.27,113.27,0,0,0,111.74-93.78c19.64-111.64,48.77-264.72,74.23-390a102.73,102.73,0,0,0-82.39-121.56c-277-50.22-569.84-75.68-870.34-75.68Z"/><path class="cls-4" d="M1000,1230.27c315.15,0,582.57,33.34,751,68.61a76.19,76.19,0,0,0,90.8-61.28c20.68-117.62,50.24-272,74.41-390.95a65.42,65.42,0,0,0-52.49-77.42c-166.56-30.2-465-75.08-863.68-75.08h0c-398.71,0-697.12,44.88-863.68,75.08a65.42,65.42,0,0,0-52.49,77.42C108,965.58,137.56,1120,158.24,1237.6a76.19,76.19,0,0,0,90.8,61.28c168.39-35.27,435.81-68.61,751-68.61Z"/><path class="cls-4" d="M788.23,400.57H764.69V337.25q0-10.26.88-22.66H765a112.47,112.47,0,0,1-3.31,14l-24.8,71.95H717.38l-25.24-71.21q-1-2.88-3.32-14.77h-.66q.95,15.66,1,27.46v58.52H667.64V294.74h34.91l21.62,62.73a89,89,0,0,1,3.77,15.13h.44a151.86,151.86,0,0,1,4.21-15.27l21.62-62.59h34Z"/><path class="cls-4" d="M820.3,313a13.6,13.6,0,0,1-9.67-3.5,11.29,11.29,0,0,1-3.76-8.6,10.9,10.9,0,0,1,3.76-8.56,15.79,15.79,0,0,1,19.37,0,10.94,10.94,0,0,1,3.73,8.56,11.24,11.24,0,0,1-3.73,8.71A13.84,13.84,0,0,1,820.3,313Zm11.51,87.53H808.49V325h23.32Z"/><path class="cls-4" d="M907.2,397.84q-7.89,4.57-22.8,4.58-17.42,0-28.19-10.56t-10.78-27.23q0-19.26,11.55-30.37t30.89-11.1q13.35,0,19.33,3.54v19.78A26.59,26.59,0,0,0,890.89,341q-10,0-15.9,5.86t-5.87,16.2q0,10,5.61,15.76t15.43,5.72a30.78,30.78,0,0,0,17-5.46Z"/><path class="cls-4" d="M970.27,346a20.32,20.32,0,0,0-9.82-2.28,14.15,14.15,0,0,0-11.88,5.57q-4.27,5.56-4.28,15.17v36.08H921V325h23.33v14h.29q5.53-15.34,19.93-15.35a15,15,0,0,1,5.76.89Z"/><path class="cls-4" d="M1015.62,402.42q-18.9,0-29.71-10.59T975.1,363.08q0-18.75,11.22-29.33t30.33-10.59q18.81,0,29.52,10.59t10.7,28q0,18.81-11,29.74T1015.62,402.42Zm.59-61.4q-8.26,0-12.84,5.68t-4.58,16.09q0,21.76,17.57,21.77,16.74,0,16.75-22.36Q1033.11,341,1016.21,341Z"/><path class="cls-4" d="M1065.54,398.58V379.69a49.78,49.78,0,0,0,11.48,5.16,38.11,38.11,0,0,0,10.81,1.7,23.21,23.21,0,0,0,9.78-1.7q3.59-1.69,3.58-5.16a4.77,4.77,0,0,0-1.62-3.69,15.08,15.08,0,0,0-4.17-2.59,49.38,49.38,0,0,0-5.57-2c-2-.59-4-1.25-5.84-2a56.24,56.24,0,0,1-7.93-3.65,23.11,23.11,0,0,1-5.76-4.54,17.82,17.82,0,0,1-3.54-6,23.86,23.86,0,0,1-1.22-8,20.79,20.79,0,0,1,2.77-10.93,22.67,22.67,0,0,1,7.38-7.49,33.79,33.79,0,0,1,10.56-4.28,55,55,0,0,1,12.36-1.36,68,68,0,0,1,10.18.77,77.55,77.55,0,0,1,10.19,2.25v18a36.49,36.49,0,0,0-9.49-3.87,39.54,39.54,0,0,0-9.92-1.3,22,22,0,0,0-4.32.41,13.93,13.93,0,0,0-3.58,1.18,6.74,6.74,0,0,0-2.44,2,4.59,4.59,0,0,0-.88,2.77,5.08,5.08,0,0,0,1.33,3.54,11.29,11.29,0,0,0,3.47,2.55,34.67,34.67,0,0,0,4.76,1.92c1.74.56,3.48,1.14,5.2,1.73a65.66,65.66,0,0,1,8.41,3.55,26.75,26.75,0,0,1,6.46,4.49,17.75,17.75,0,0,1,4.13,6.06,24.23,24.23,0,0,1-1.47,19.74,23.44,23.44,0,0,1-7.75,7.75,35.17,35.17,0,0,1-11.15,4.35,61.73,61.73,0,0,1-13.1,1.37A67.54,67.54,0,0,1,1065.54,398.58Z"/><path class="cls-4" d="M1171.49,402.42q-18.88,0-29.7-10.59T1131,363.08q0-18.75,11.21-29.33t30.34-10.59q18.81,0,29.51,10.59t10.71,28q0,18.81-11,29.74T1171.49,402.42Zm.6-61.4q-8.28,0-12.85,5.68t-4.57,16.09q0,21.76,17.56,21.77,16.76,0,16.75-22.36Q1189,341,1172.09,341Z"/><path class="cls-4" d="M1275.66,306.55a23.52,23.52,0,0,0-8.63-1.77q-11.22,0-11.22,12.18v8h17.27v17.2h-17.27v58.37h-23.25V342.2h-12.69V325h12.69v-9.37q0-12.92,8.42-20.81t22.88-7.9a39.93,39.93,0,0,1,11.8,1.48Z"/><path class="cls-4" d="M1328.47,399.69q-5.16,2.73-15.57,2.73-24.66,0-24.65-25.61V342.2H1276V325h12.25V308.69l23.25-6.64V325h17v17.2h-17v30.55q0,11.81,9.37,11.81a15.77,15.77,0,0,0,7.6-2.14Z"/><path class="cls-4" d="M728.5,544.69q-9,4.77-22.49,4.77-17.38,0-27.85-11.19t-10.45-29.38q0-19.54,11.76-31.59t29.83-12q11.6,0,19.2,3.35v10.17a38.9,38.9,0,0,0-19.31-4.89q-14,0-22.76,9.38t-8.72,25.05q0,14.9,8.15,23.73t21.39,8.83q12.29,0,21.25-5.45Z"/><path class="cls-4" d="M808.06,548.1H764.88V466.62h41.36v8.63H774.42v27.11h29.44v8.58H774.42v28.52h33.64Z"/><path class="cls-4" d="M901.93,548.1H890.57l-13.64-22.84a51,51,0,0,0-3.63-5.43,21.34,21.34,0,0,0-3.61-3.67,12.73,12.73,0,0,0-4-2.07,16.54,16.54,0,0,0-4.8-.65h-7.84V548.1h-9.55V466.62h24.32A34.72,34.72,0,0,1,877.7,468a22,22,0,0,1,7.84,4.06,18.84,18.84,0,0,1,5.2,6.79,22.52,22.52,0,0,1,1.87,9.52,23,23,0,0,1-1.27,7.81,20.4,20.4,0,0,1-3.64,6.33,22.27,22.27,0,0,1-5.68,4.75,29.39,29.39,0,0,1-7.47,3v.22a17.47,17.47,0,0,1,3.55,2.08,19.42,19.42,0,0,1,2.87,2.75,38.53,38.53,0,0,1,2.7,3.61c.88,1.35,1.88,2.91,3,4.69Zm-48.86-72.85V504.8H866a19.64,19.64,0,0,0,6.62-1.08,15.26,15.26,0,0,0,5.25-3.09,13.93,13.93,0,0,0,3.47-4.95,16.43,16.43,0,0,0,1.25-6.56q0-6.53-4.23-10.2t-12.24-3.67Z"/><path class="cls-4" d="M975.86,475.25H952.34V548.1h-9.55V475.25H919.33v-8.63h56.53Z"/><path class="cls-4" d="M1018,548.1h-9.54V466.62H1018Z"/><path class="cls-4" d="M1100.53,475.25h-31.82v28.19h29.43V512h-29.43V548.1h-9.54V466.62h41.36Z"/><path class="cls-4" d="M1145.31,548.1h-9.54V466.62h9.54Z"/><path class="cls-4" d="M1229.7,548.1h-43.18V466.62h41.36v8.63h-31.82v27.11h29.44v8.58h-29.44v28.52h33.64Z"/><path class="cls-4" d="M1265.16,548.1V466.62h22.5q43.08,0,43.07,39.71,0,18.87-12,30.32t-32,11.45Zm9.55-72.85v64.21h12.16q16,0,24.94-8.58t8.92-24.32q0-31.31-33.29-31.31Z"/><path class="cls-4" d="M697.33,1454.91q-11.21.67-22.39,1.41-3.9-9.91-7.83-19.83-16.27,1.08-32.55,2.27-2.49,10.35-4.95,20.71-11.13.83-22.24,1.7,13-46.79,26.62-93.49,12.4-.9,24.81-1.73Q678.36,1410.36,697.33,1454.91Zm-36-33.85q-6-15-12-29.91a38.21,38.21,0,0,1-2.11-8.08l-.52,0a34.29,34.29,0,0,1-1.06,8.05q-4,15.76-7.84,31.55Q649.58,1421.86,661.33,1421.06Z"/><path class="cls-4" d="M716,1450.31q-.59-10.15-1.15-20.32a39.49,39.49,0,0,0,12.45,6.28,39.07,39.07,0,0,0,13.27,1.63,29.48,29.48,0,0,0,6.76-1,16.44,16.44,0,0,0,4.76-2.18,8.39,8.39,0,0,0,2.76-3.07,7.26,7.26,0,0,0,.79-3.7,7.91,7.91,0,0,0-1.77-4.69,16.4,16.4,0,0,0-4.38-3.67,44.33,44.33,0,0,0-6.49-3.11q-3.74-1.47-8.06-3c-7.33-2.59-12.9-5.92-16.66-10a23.6,23.6,0,0,1-6.18-15.2,23.39,23.39,0,0,1,9.67-21.24,35.57,35.57,0,0,1,11.37-5.49,60.46,60.46,0,0,1,13.92-2.26,85.3,85.3,0,0,1,12.9.23,51.33,51.33,0,0,1,10.46,2.17q.43,9.51.85,19a31.72,31.72,0,0,0-5.19-2.56,42,42,0,0,0-5.75-1.75,44.38,44.38,0,0,0-5.84-.89,42.37,42.37,0,0,0-5.47-.12,28.54,28.54,0,0,0-6.43,1,16.6,16.6,0,0,0-4.81,2.12,9.28,9.28,0,0,0-3,3,6.69,6.69,0,0,0-.9,3.84,7.12,7.12,0,0,0,1.44,4,13.81,13.81,0,0,0,3.65,3.25,36.21,36.21,0,0,0,5.63,2.9c2.2.94,4.68,1.88,7.43,2.86a78.25,78.25,0,0,1,10.16,4.38,35.06,35.06,0,0,1,7.82,5.47,22.57,22.57,0,0,1,5.14,7.19A29.5,29.5,0,0,1,775,1438a23.84,23.84,0,0,1-7.5,8.75,34.3,34.3,0,0,1-11.34,5.15,67.34,67.34,0,0,1-13.83,2.09,78.53,78.53,0,0,1-14.34-.52A43.39,43.39,0,0,1,716,1450.31Z"/><path class="cls-4" d="M800.88,1446.25q-.4-10.17-.8-20.35a39.76,39.76,0,0,0,25.57,8.36,29.51,29.51,0,0,0,6.78-.93,15.86,15.86,0,0,0,4.79-2.1,8.47,8.47,0,0,0,2.82-3,7.31,7.31,0,0,0,.85-3.68,7.87,7.87,0,0,0-1.69-4.72,16.45,16.45,0,0,0-4.32-3.75,44.56,44.56,0,0,0-6.42-3.22q-3.72-1.54-8-3.1-11-4.07-16.49-10.28a23.52,23.52,0,0,1-5.91-15.31,23.32,23.32,0,0,1,10-21.07,35.8,35.8,0,0,1,11.45-5.29,60.41,60.41,0,0,1,14-2,84.25,84.25,0,0,1,12.9.45,51.49,51.49,0,0,1,10.42,2.35q.26,9.51.52,19a31.14,31.14,0,0,0-5.14-2.66,40.55,40.55,0,0,0-5.72-1.84,43.2,43.2,0,0,0-11.29-1.21,29,29,0,0,0-6.45.88,16.67,16.67,0,0,0-4.85,2,9.53,9.53,0,0,0-3,3,6.7,6.7,0,0,0-1,3.82,7.11,7.11,0,0,0,1.36,4.06,14.19,14.19,0,0,0,3.6,3.31,36.63,36.63,0,0,0,5.58,3c2.18,1,4.64,2,7.38,3a80,80,0,0,1,10.08,4.56,34.78,34.78,0,0,1,7.72,5.61,22.5,22.5,0,0,1,5,7.27A29.38,29.38,0,0,1,860,1435a23.46,23.46,0,0,1-7.64,8.61,34.17,34.17,0,0,1-11.42,5,68,68,0,0,1-13.86,1.86,78.77,78.77,0,0,1-14.33-.77A43.77,43.77,0,0,1,800.88,1446.25Z"/><path class="cls-4" d="M928.65,1448c-13.08.18-23.79-3.88-32.22-12.22s-12.82-19.32-13.12-33q-.49-21.62,12-35.25t33.6-13.92q19.92-.25,32.3,12.46t12.41,33.65q.1,21.51-12.39,34.75T928.65,1448Zm-.14-76.67q-11,.15-17.32,8.37t-6.06,21.59q.24,13.55,6.79,21.32a20.56,20.56,0,0,0,16.87,7.63q10.66-.14,16.85-7.86t6.09-21.34q-.13-14.18-6.33-22T928.51,1371.29Z"/><path class="cls-4" d="M1066.19,1443.17q-10.07,4.69-26.17,4.53-21-.18-33-12.52t-12.06-32.91c0-14.59,4.54-26.43,13.75-35.48s21.14-13.53,35.81-13.39c9.08.08,16.72,1.31,22.92,3.64q-.15,9.9-.28,19.79a40.68,40.68,0,0,0-21.13-5.73c-8.71-.09-15.77,2.56-21.12,7.91s-8.06,12.64-8.1,21.84q0,13.23,7.39,21.13c5,5.27,11.65,7.93,20.09,8a43.53,43.53,0,0,0,22.19-5.58Z"/><path class="cls-4" d="M1114.37,1447.34q-10.29-.25-20.57-.45.9-45.6,1.81-91.21,10.47.21,21,.46Z"/><path class="cls-4" d="M1227.13,1451.33q-11.2-.52-22.41-1-2.81-10.27-5.66-20.54-16.29-.68-32.59-1.23-3.59,10-7.13,20.06-11.14-.36-22.28-.68,17.91-45.12,36.45-90.11,12.42.43,24.83.94Q1213,1405,1227.13,1451.33Zm-32.17-37.5q-4.32-15.51-8.7-31a39,39,0,0,1-1.24-8.26l-.52,0a34.52,34.52,0,0,1-1.91,7.89q-5.61,15.25-11.16,30.53Q1183.21,1413.36,1195,1413.83Z"/><path class="cls-4" d="M1309.86,1381.26q-13.2-.83-26.41-1.59l-4.26,74.38q-10.31-.6-20.62-1.14l4-74.39q-13.14-.7-26.28-1.33.39-8.37.8-16.72,36.95,1.77,73.86,4.09Z"/><path class="cls-4" d="M1383.86,1461.17q-27.33-2.14-54.67-4l6.15-91q26.78,1.81,53.54,3.9-.66,8.34-1.31,16.68-16.24-1.26-32.51-2.43-.74,10.11-1.45,20.24,15.06,1.08,30.13,2.25l-1.29,16.62q-15-1.17-30-2.25-.75,10.41-1.49,20.82,17.11,1.23,34.24,2.57Q1384.52,1452.86,1383.86,1461.17Z"/><polygon class="cls-4" points="858.58 1519.13 887.24 1607.31 979.96 1607.31 904.94 1661.81 933.6 1750 858.58 1695.49 783.57 1750 812.22 1661.81 737.21 1607.31 829.93 1607.31 858.58 1519.13"/><polygon class="cls-4" points="1140.51 1519.13 1169.16 1607.31 1261.88 1607.31 1186.87 1661.81 1215.52 1750 1140.51 1695.49 1065.49 1750 1094.14 1661.81 1019.13 1607.31 1111.85 1607.31 1140.51 1519.13"/><path class="cls-5" d="M824.63,934.89q-11.67.29-23.36.62-6.22-15.66-12.49-31.32-25.35.76-50.71,1.7-5,16-9.92,32.07-11.62.45-23.26.94,21.39-63.17,43.67-126.18,12.21-.44,24.42-.82Q799.25,873.3,824.63,934.89Zm-42-47.35q-9.74-24.52-19.59-49a55.77,55.77,0,0,1-2-7.74h-.37a48.65,48.65,0,0,1-1.55,7.86Q751,863.76,743,888.87,762.82,888.15,782.6,887.54Z"/><path class="cls-5" d="M934.52,817.67q-35.35,49.27-69.71,98.91,34.83-.66,69.65-1l.15,17.43q-49.64.44-99.28,1.59-.12-4.74-.22-9.46,34.23-49.51,69.48-98.69-33.11.43-66.19,1.17-.2-8.76-.4-17.52,48.22-1.08,96.44-1.49C934.47,811.65,934.49,814.66,934.52,817.67Z"/><path class="cls-5" d="M1056.61,882.75c-.35,35-17.57,52.2-51.67,52.13-32.67,0-49.12-16.69-49.34-50.3q-.21-38-.43-76.08l21.7-.09.18,71.83c.08,24.41,9.92,36.57,29.53,36.6q28.33.06,28.57-35.2.21-36.57.43-73.13,10.85.06,21.69.16Z"/><path class="cls-5" d="M1187.36,935.5q-12.45-.35-24.89-.65-9.84-16.9-19.78-33.78a67.77,67.77,0,0,0-5.29-8,32,32,0,0,0-5.29-5.45,18.69,18.69,0,0,0-5.94-3.15,25.72,25.72,0,0,0-7.28-1.09l-8.66-.15q-.42,25.25-.85,50.48-10.61-.18-21.21-.32.84-62.19,1.69-124.39,21.53.3,43,.72a64.56,64.56,0,0,1,16.9,2.44,39.87,39.87,0,0,1,13.34,6.6,29.51,29.51,0,0,1,8.69,10.71,31.79,31.79,0,0,1,2.85,14.79,34.58,34.58,0,0,1-2.35,12,31.46,31.46,0,0,1-6,9.66,35.38,35.38,0,0,1-9.21,7.11,46.52,46.52,0,0,1-12,4.41c0,.12,0,.23,0,.35a33.05,33.05,0,0,1,6,4.34c1.71,1.57,3.33,3.19,4.85,4.84a56.17,56.17,0,0,1,4.51,5.62c1.5,2.09,3.13,4.51,4.92,7.28Q1176.44,917.71,1187.36,935.5Zm-76.17-109.39q-.35,20.21-.68,40.42l17.9.32a27.32,27.32,0,0,0,9.2-1.29,21.23,21.23,0,0,0,7.38-4.09,19.4,19.4,0,0,0,4.94-6.66,22.26,22.26,0,0,0,1.93-8.9c.13-5.95-1.72-10.65-5.59-14.09s-9.5-5.24-16.9-5.38Z"/><path class="cls-5" d="M1276.18,938.57q-36-1.47-72-2.58,1.9-62.16,3.8-124.34,35.23,1.08,70.44,2.51l-.72,17.51q-24.3-1-48.62-1.81-.58,17.6-1.18,35.2,22.29.75,44.58,1.65-.36,8.7-.7,17.42-22.23-.9-44.47-1.64-.62,18.38-1.24,36.76,25.44.86,50.87,1.9Q1276.53,929.87,1276.18,938.57Z"/><path class="cls-5" d="M379.18,1162.62q-11.3,1.05-22.6,2.13-7.11-15.23-14.26-30.43-24.54,2.4-49.06,5-3.74,16.31-7.42,32.63-11.25,1.2-22.49,2.44Q279.74,1110,297,1045.67q11.82-1.22,23.64-2.4Q350.35,1102.82,379.18,1162.62Zm-44-44.51q-11.12-23.83-22.37-47.63a62,62,0,0,1-2.45-7.6l-.35,0a50.76,50.76,0,0,1-1,7.94q-6.14,25.58-12.15,51.14Q316,1120,335.19,1118.11Z"/><path class="cls-5" d="M401.58,1160.58l-11.07-123.91q18.27-1.64,36.55-3.17c46.72-3.89,71.57,14.68,74.48,55q2.11,28.72-15.74,47.59T436,1157.59Q418.78,1159,401.58,1160.58Zm11.35-108.29q3.84,44.57,7.69,89.11l16.51-1.4q21.81-1.83,33-14.69t9.55-34.68c-2.2-29-18.62-42.37-49.23-39.83Z"/><path class="cls-5" d="M667.94,1142.15q-10.25.51-20.49,1-2.1-40.2-4.19-80.4-.53-9.87,0-24.23l-.35,0a83,83,0,0,1-2.84,11.87q-16.39,47.43-32.27,94.93-7.12.4-14.23.84-21.4-44.94-43.3-89.75a87.15,87.15,0,0,1-4.16-12.16l-.36,0q1.2,7.39,2.32,24.28,2.67,40.08,5.32,80.15l-19.09,1.3Q530,1088,525.68,1026q14.8-1,29.6-2,19.35,40.26,38.29,80.62a119.56,119.56,0,0,1,5.73,13.91l.43,0q2.65-10,4.38-14.86,14.37-42.16,29.16-84.26,14.28-.75,28.57-1.46Q664.89,1080,667.94,1142.15Z"/><path class="cls-5" d="M725.12,1139.59l-21.28.9q-2.7-62.15-5.42-124.29l21.67-.91Q722.6,1077.45,725.12,1139.59Z"/><path class="cls-5" d="M866.77,1135.37q-11.29.21-22.59.47-30.79-45-62.4-89.78a40.85,40.85,0,0,1-4-7.08l-.52,0q.82,4,1.25,17.06l2.61,81.5-20,.67q-2.18-62.16-4.36-124.32,12.25-.43,24.52-.82,30.69,43.7,60.62,87.66c2.53,3.65,4.16,6.15,4.89,7.53h.35q-1-4.92-1.25-16.72l-1.77-80.14q10.13-.23,20.27-.42Q865.58,1073.18,866.77,1135.37Z"/><path class="cls-5" d="M924.17,1134.52q-10.65.11-21.3.26l-1.71-124.39,21.69-.27Z"/><path class="cls-5" d="M954.42,1129.32q-.07-10.62-.13-21.25a33.57,33.57,0,0,0,6.87,4.65,53.42,53.42,0,0,0,8.43,3.47,69,69,0,0,0,8.89,2.19,47.61,47.61,0,0,0,8.19.76c8.71,0,15.2-1.44,19.47-4.33s6.43-7.07,6.45-12.56a13.74,13.74,0,0,0-2.12-7.69,22.54,22.54,0,0,0-6-6,62.34,62.34,0,0,0-9.06-5.17c-3.46-1.65-7.2-3.37-11.17-5.15q-6.4-3.37-11.94-6.83a51.27,51.27,0,0,1-9.64-7.64,32,32,0,0,1-6.47-9.46A30.68,30.68,0,0,1,953.8,1042a28.35,28.35,0,0,1,3.93-15.26A33.43,33.43,0,0,1,968.29,1016a48.49,48.49,0,0,1,15-6.29,71.59,71.59,0,0,1,17.18-2q19.92,0,29,4.51,0,10.19-.1,20.38-10.72-7.68-27.7-7.72a50.36,50.36,0,0,0-9.32.87,27.67,27.67,0,0,0-8.3,2.87,17.7,17.7,0,0,0-5.95,5.13,12.38,12.38,0,0,0-2.27,7.55,14.13,14.13,0,0,0,1.78,7.2,18.85,18.85,0,0,0,5.16,5.54,53.14,53.14,0,0,0,8.27,4.89q4.88,2.38,11.29,5.17,6.58,3.39,12.41,7.14a58,58,0,0,1,10.22,8.28,35.93,35.93,0,0,1,7,10,29.17,29.17,0,0,1,2.51,12.55q-.06,9.47-3.93,15.94a31,31,0,0,1-10.36,10.54,46.54,46.54,0,0,1-14.93,5.86,85.21,85.21,0,0,1-17.81,1.81,72.45,72.45,0,0,1-7.69-.47q-4.56-.46-9.35-1.36a84.48,84.48,0,0,1-9.05-2.17A28.69,28.69,0,0,1,954.42,1129.32Z"/><path class="cls-5" d="M1144.75,1028.94q-18.2-.4-36.38-.71l-1.8,106.86q-10.33-.18-20.68-.32l1.47-106.86q-18.15-.26-36.29-.4.08-8.78.14-17.53,47,.39,93.93,1.44Z"/><path class="cls-5" d="M1262.21,1139.53q-12.06-.49-24.14-.93-9.35-17-18.78-34a69.43,69.43,0,0,0-5-8,32.17,32.17,0,0,0-5.08-5.5,17.61,17.61,0,0,0-5.72-3.21,23.81,23.81,0,0,0-7.06-1.17l-8.4-.25q-.73,25.23-1.46,50.47-10.29-.3-20.59-.57,1.61-62.17,3.2-124.36,20.89.54,41.78,1.21a60.92,60.92,0,0,1,16.38,2.62,38.29,38.29,0,0,1,12.87,6.75,29.43,29.43,0,0,1,8.31,10.81,32.48,32.48,0,0,1,2.57,14.81,35.56,35.56,0,0,1-2.43,12,32,32,0,0,1-6,9.59,34.7,34.7,0,0,1-9,7,44.94,44.94,0,0,1-11.69,4.28c0,.11,0,.23,0,.35a31.68,31.68,0,0,1,5.82,4.4c1.64,1.59,3.18,3.23,4.64,4.9a56.18,56.18,0,0,1,4.31,5.66q2.13,3.16,4.67,7.34Q1251.85,1121.62,1262.21,1139.53Zm-72.56-110.23q-.59,20.21-1.16,40.41,8.68.26,17.38.53a26.25,26.25,0,0,0,9-1.19,20.43,20.43,0,0,0,7.21-4,19.36,19.36,0,0,0,4.89-6.6,23,23,0,0,0,2-8.87q.3-8.94-5.25-14.16t-16.34-5.57Z"/><path class="cls-5" d="M1384.34,1145.56l-22.66-1.29q-4.73-16.11-9.51-32.22-24.59-1.32-49.2-2.46-6.13,15.57-12.23,31.15-11.28-.51-22.58-1,25.88-61.18,52.62-122.18,11.85.57,23.7,1.19Q1364.85,1082.11,1384.34,1145.56ZM1347.57,1095q-7.41-25.25-14.93-50.46a57.87,57.87,0,0,1-1.28-7.88l-.36,0a49.64,49.64,0,0,1-2.15,7.71q-9.9,24.36-19.68,48.73Q1328.37,1093.95,1347.57,1095Z"/><path class="cls-5" d="M1481.7,1044.83q-18.15-1.32-36.31-2.53-3.56,53.33-7.12,106.64-10.32-.69-20.65-1.34,3.39-53.34,6.79-106.66-18.14-1.15-36.25-2.21l1-17.5q46.9,2.73,93.79,6.12Q1482.32,1036.08,1481.7,1044.83Z"/><path class="cls-5" d="M1541.25,1158.71c-17.91-1.47-31.78-8.38-41.72-20.79s-14.25-27.89-12.88-46.46q2.19-29.94,20.25-46.51c12-11,27.74-15.79,46.94-14.2q26.67,2.2,41.42,21t12.12,46.65q-2.78,30.32-20.8,46.46T1541.25,1158.71Zm10-110c-11.57-1-21.34,2.53-29.23,10.44s-12.37,18.79-13.44,32.63,1.59,25.15,7.9,34.11,15.06,13.9,26.3,14.82q17.9,1.49,29.28-9.62t13.32-32.71q2-22.22-7.13-35.2T1551.29,1048.73Z"/><path class="cls-5" d="M1725.59,1174.38l-24-2.61q-8.14-17.62-16.39-35.22a69.78,69.78,0,0,0-4.46-8.36,32.42,32.42,0,0,0-4.69-5.84,17.81,17.81,0,0,0-5.48-3.61,24.92,24.92,0,0,0-7-1.66l-8.38-.83q-2.49,25.13-5,50.24-10.26-1-20.52-2,5.92-61.92,11.86-123.84,20.82,2,41.63,4.12a61.08,61.08,0,0,1,16.19,3.76,38.41,38.41,0,0,1,12.38,7.63,29.31,29.31,0,0,1,7.54,11.36,32.6,32.6,0,0,1,1.54,15,35.9,35.9,0,0,1-3.26,11.82,31.8,31.8,0,0,1-6.65,9.14,34.73,34.73,0,0,1-9.52,6.37,44.56,44.56,0,0,1-12,3.45c0,.12,0,.23,0,.35a32.26,32.26,0,0,1,5.5,4.8c1.52,1.7,3,3.44,4.3,5.21a55.74,55.74,0,0,1,3.9,5.95c1.28,2.2,2.66,4.75,4.17,7.64Q1716.48,1155.79,1725.59,1174.38Zm-64.79-115q-2,20.12-4,40.23l17.32,1.73a26.05,26.05,0,0,0,9-.56,20.38,20.38,0,0,0,7.48-3.5A19.17,19.17,0,0,0,1696,1091a22.82,22.82,0,0,0,2.6-8.72q.93-8.88-4.26-14.48t-15.93-6.7Z"/></svg>