<svg id="Layer_1" data-name="Layer 1" xmlns="http://www.w3.org/2000/svg" viewBox="0 0 2000 2000"><defs><style>.cls-1{fill:#002050;}.cls-2{fill:#505050;}.cls-3{fill:#0064b5;}.cls-4{fill:#fff;}.cls-5{fill:#282828;}</style></defs><path class="cls-1" d="M1000,10a149.2,149.2,0,0,0-43.11,6.36L398.14,185A142.38,142.38,0,0,0,296.3,322.13v949.14c0,242.84,82.05,327.38,239.29,467.71,153.69,137.16,428.51,238,440.14,242.2L1000,1990l24.27-8.82c11.63-4.23,286.45-105,440.14-242.2,157.24-140.33,239.29-224.87,239.29-467.71V322.13A142.38,142.38,0,0,0,1601.86,185L1043.11,16.36A149.2,149.2,0,0,0,1000,10Z"/><path class="cls-2" d="M1581.33,253.07,1022.56,84.4a78.54,78.54,0,0,0-45.12,0L418.67,253.07a72.13,72.13,0,0,0-51.28,69.05V999.57H1632.61V322.12A72.13,72.13,0,0,0,1581.33,253.07Z"/><path class="cls-3" d="M367.39,1271.28c0,214,64.55,279.94,215.51,414.67,145.27,129.64,417.1,228.42,417.1,228.42s271.83-98.78,417.1-228.42c151-134.73,215.51-200.7,215.51-414.67V999.57H367.39Z"/><path class="cls-2" d="M1000,656.84c-300.5,0-593.32,25.46-870.34,75.68A102.73,102.73,0,0,0,47.27,854.08c25.46,125.27,54.59,278.35,74.23,390a113.27,113.27,0,0,0,111.74,93.78,114.58,114.58,0,0,0,23.46-2.44C354,1315,621.31,1267.58,1000,1267.58s646,47.43,743.31,67.82a114.42,114.42,0,0,0,23.45,2.44,113.27,113.27,0,0,0,111.74-93.78c19.64-111.64,48.77-264.72,74.23-390a102.73,102.73,0,0,0-82.39-121.56c-277-50.22-569.84-75.68-870.34-75.68Z"/><path class="cls-4" d="M1000,1230.27c315.15,0,582.57,33.34,751,68.61a76.19,76.19,0,0,0,90.8-61.28c20.68-117.62,50.24-272,74.41-390.95a65.42,65.42,0,0,0-52.49-77.42c-166.56-30.2-465-75.08-863.68-75.08h0c-398.71,0-697.12,44.88-863.68,75.08a65.42,65.42,0,0,0-52.49,77.42C108,965.58,137.56,1120,158.24,1237.6a76.19,76.19,0,0,0,90.8,61.28c168.39-35.27,435.81-68.61,751-68.61Z"/><path class="cls-4" d="M788.23,400.57H764.69V337.25q0-10.26.88-22.66H765a112.47,112.47,0,0,1-3.31,14l-24.8,71.95H717.38l-25.24-71.21q-1-2.88-3.32-14.77h-.66q.95,15.66,1,27.46v58.52H667.64V294.74h34.91l21.62,62.73a89,89,0,0,1,3.77,15.13h.44a151.86,151.86,0,0,1,4.21-15.27l21.62-62.59h34Z"/><path class="cls-4" d="M820.3,313a13.6,13.6,0,0,1-9.67-3.5,11.29,11.29,0,0,1-3.76-8.6,10.9,10.9,0,0,1,3.76-8.56,15.79,15.79,0,0,1,19.37,0,10.94,10.94,0,0,1,3.73,8.56,11.24,11.24,0,0,1-3.73,8.71A13.84,13.84,0,0,1,820.3,313Zm11.51,87.53H808.49V325h23.32Z"/><path class="cls-4" d="M907.2,397.84q-7.89,4.57-22.8,4.58-17.42,0-28.19-10.56t-10.78-27.23q0-19.26,11.55-30.37t30.89-11.1q13.35,0,19.33,3.54v19.78A26.59,26.59,0,0,0,890.89,341q-10,0-15.9,5.86t-5.87,16.2q0,10,5.61,15.76t15.43,5.72a30.78,30.78,0,0,0,17-5.46Z"/><path class="cls-4" d="M970.27,346a20.32,20.32,0,0,0-9.82-2.28,14.15,14.15,0,0,0-11.88,5.57q-4.27,5.56-4.28,15.17v36.08H921V325h23.33v14h.29q5.53-15.34,19.93-15.35a15,15,0,0,1,5.76.89Z"/><path class="cls-4" d="M1015.62,402.42q-18.9,0-29.71-10.59T975.1,363.08q0-18.75,11.22-29.33t30.33-10.59q18.81,0,29.52,10.59t10.7,28q0,18.81-11,29.74T1015.62,402.42Zm.59-61.4q-8.26,0-12.84,5.68t-4.58,16.09q0,21.76,17.57,21.77,16.74,0,16.75-22.36Q1033.11,341,1016.21,341Z"/><path class="cls-4" d="M1065.54,398.58V379.69a49.78,49.78,0,0,0,11.48,5.16,38.11,38.11,0,0,0,10.81,1.7,23.21,23.21,0,0,0,9.78-1.7q3.59-1.69,3.58-5.16a4.77,4.77,0,0,0-1.62-3.69,15.08,15.08,0,0,0-4.17-2.59,49.38,49.38,0,0,0-5.57-2c-2-.59-4-1.25-5.84-2a56.24,56.24,0,0,1-7.93-3.65,23.11,23.11,0,0,1-5.76-4.54,17.82,17.82,0,0,1-3.54-6,23.86,23.86,0,0,1-1.22-8,20.79,20.79,0,0,1,2.77-10.93,22.67,22.67,0,0,1,7.38-7.49,33.79,33.79,0,0,1,10.56-4.28,55,55,0,0,1,12.36-1.36,68,68,0,0,1,10.18.77,77.55,77.55,0,0,1,10.19,2.25v18a36.49,36.49,0,0,0-9.49-3.87,39.54,39.54,0,0,0-9.92-1.3,22,22,0,0,0-4.32.41,13.93,13.93,0,0,0-3.58,1.18,6.74,6.74,0,0,0-2.44,2,4.59,4.59,0,0,0-.88,2.77,5.08,5.08,0,0,0,1.33,3.54,11.29,11.29,0,0,0,3.47,2.55,34.67,34.67,0,0,0,4.76,1.92c1.74.56,3.48,1.14,5.2,1.73a65.66,65.66,0,0,1,8.41,3.55,26.75,26.75,0,0,1,6.46,4.49,17.75,17.75,0,0,1,4.13,6.06,24.23,24.23,0,0,1-1.47,19.74,23.44,23.44,0,0,1-7.75,7.75,35.17,35.17,0,0,1-11.15,4.35,61.73,61.73,0,0,1-13.1,1.37A67.54,67.54,0,0,1,1065.54,398.58Z"/><path class="cls-4" d="M1171.49,402.42q-18.88,0-29.7-10.59T1131,363.08q0-18.75,11.21-29.33t30.34-10.59q18.81,0,29.51,10.59t10.71,28q0,18.81-11,29.74T1171.49,402.42Zm.6-61.4q-8.28,0-12.85,5.68t-4.57,16.09q0,21.76,17.56,21.77,16.76,0,16.75-22.36Q1189,341,1172.09,341Z"/><path class="cls-4" d="M1275.66,306.55a23.52,23.52,0,0,0-8.63-1.77q-11.22,0-11.22,12.18v8h17.27v17.2h-17.27v58.37h-23.25V342.2h-12.69V325h12.69v-9.37q0-12.92,8.42-20.81t22.88-7.9a39.93,39.93,0,0,1,11.8,1.48Z"/><path class="cls-4" d="M1328.47,399.69q-5.16,2.73-15.57,2.73-24.66,0-24.65-25.61V342.2H1276V325h12.25V308.69l23.25-6.64V325h17v17.2h-17v30.55q0,11.81,9.37,11.81a15.77,15.77,0,0,0,7.6-2.14Z"/><path class="cls-4" d="M728.5,544.69q-9,4.77-22.49,4.77-17.38,0-27.85-11.19t-10.45-29.38q0-19.54,11.76-31.59t29.83-12q11.6,0,19.2,3.35v10.17a38.9,38.9,0,0,0-19.31-4.89q-14,0-22.76,9.38t-8.72,25.05q0,14.9,8.15,23.73t21.39,8.83q12.27,0,21.25-5.45Z"/><path class="cls-4" d="M808.06,548.1H764.88V466.62h41.36v8.63H774.42v27.11h29.43v8.58H774.42v28.52h33.64Z"/><path class="cls-4" d="M901.93,548.1H890.57l-13.64-22.84a51,51,0,0,0-3.63-5.43,21.71,21.71,0,0,0-3.61-3.67,12.84,12.84,0,0,0-4-2.07,16.54,16.54,0,0,0-4.8-.65h-7.84V548.1h-9.55V466.62h24.32A34.72,34.72,0,0,1,877.7,468a21.85,21.85,0,0,1,7.83,4.06,18.75,18.75,0,0,1,5.21,6.79,24.85,24.85,0,0,1,.59,17.33,20.18,20.18,0,0,1-3.63,6.33,22.27,22.27,0,0,1-5.68,4.75,29.39,29.39,0,0,1-7.47,3v.22a17.47,17.47,0,0,1,3.55,2.08,19.93,19.93,0,0,1,2.87,2.75,38.52,38.52,0,0,1,2.69,3.61c.89,1.35,1.89,2.91,3,4.69Zm-48.86-72.85V504.8H866a19.68,19.68,0,0,0,6.62-1.08,15.36,15.36,0,0,0,5.25-3.09,14.06,14.06,0,0,0,3.47-4.95,16.61,16.61,0,0,0,1.25-6.56q0-6.53-4.24-10.2t-12.23-3.67Z"/><path class="cls-4" d="M975.86,475.25H952.33V548.1h-9.54V475.25H919.33v-8.63h56.53Z"/><path class="cls-4" d="M1018,548.1h-9.54V466.62H1018Z"/><path class="cls-4" d="M1100.53,475.25h-31.82v28.19h29.43V512h-29.43V548.1h-9.54V466.62h41.36Z"/><path class="cls-4" d="M1145.31,548.1h-9.54V466.62h9.54Z"/><path class="cls-4" d="M1229.7,548.1h-43.18V466.62h41.36v8.63h-31.82v27.11h29.44v8.58h-29.44v28.52h33.64Z"/><path class="cls-4" d="M1265.16,548.1V466.62h22.5q43.08,0,43.07,39.71,0,18.87-12,30.32t-32,11.45Zm9.55-72.85v64.21h12.16q16,0,24.94-8.58t8.92-24.32q0-31.31-33.29-31.31Z"/><path class="cls-4" d="M694.72,1451.78q-11.21.67-22.39,1.41-3.9-9.92-7.83-19.83-16.28,1.08-32.55,2.27-2.49,10.35-4.94,20.71-11.13.83-22.25,1.7,13-46.79,26.63-93.49,12.4-.9,24.8-1.72Q675.75,1407.23,694.72,1451.78Zm-36-33.84q-6-15-12-29.92a38.82,38.82,0,0,1-2.11-8.08l-.52,0a34.67,34.67,0,0,1-1.06,8q-3.94,15.78-7.83,31.55Q647,1418.73,658.72,1417.94Z"/><path class="cls-4" d="M713.43,1447.18q-.57-10.15-1.15-20.32a39.78,39.78,0,0,0,12.46,6.29,39.22,39.22,0,0,0,13.27,1.62,29.3,29.3,0,0,0,6.76-1,15.87,15.87,0,0,0,4.75-2.18,8.48,8.48,0,0,0,2.77-3.06,7.25,7.25,0,0,0,.78-3.7,7.84,7.84,0,0,0-1.76-4.7,16.81,16.81,0,0,0-4.39-3.67,44.69,44.69,0,0,0-6.48-3.11c-2.49-1-5.16-2-8.06-3q-11-3.88-16.67-10a23.57,23.57,0,0,1-6.17-15.2,23.33,23.33,0,0,1,9.67-21.24,35.66,35.66,0,0,1,11.37-5.48,59.92,59.92,0,0,1,13.91-2.27,85.33,85.33,0,0,1,12.91.24,51.62,51.62,0,0,1,10.46,2.16q.42,9.51.85,19a30.69,30.69,0,0,0-5.2-2.57,40.83,40.83,0,0,0-5.74-1.74,43,43,0,0,0-5.84-.9,42.53,42.53,0,0,0-5.48-.12,29,29,0,0,0-6.42,1,16.8,16.8,0,0,0-4.82,2.13,9.38,9.38,0,0,0-3,3.05,6.74,6.74,0,0,0-.9,3.83,7.15,7.15,0,0,0,1.44,4,13.7,13.7,0,0,0,3.66,3.25,37.06,37.06,0,0,0,5.63,2.9c2.19.93,4.68,1.88,7.43,2.85a78.83,78.83,0,0,1,10.16,4.39,35.74,35.74,0,0,1,7.82,5.46,22.53,22.53,0,0,1,5.14,7.19,25.62,25.62,0,0,1,2.09,9.62,25.91,25.91,0,0,1-2.34,12.94,23.7,23.7,0,0,1-7.49,8.74,34.3,34.3,0,0,1-11.34,5.15,67.44,67.44,0,0,1-13.83,2.09,78.67,78.67,0,0,1-14.35-.51A43,43,0,0,1,713.43,1447.18Z"/><path class="cls-4" d="M798.27,1443.12q-.4-10.17-.8-20.34a39.67,39.67,0,0,0,25.58,8.35,29.59,29.59,0,0,0,6.78-.93,16.22,16.22,0,0,0,4.79-2.09,8.43,8.43,0,0,0,2.81-3,7.22,7.22,0,0,0,.85-3.69,7.71,7.71,0,0,0-1.69-4.72,16.26,16.26,0,0,0-4.31-3.75,45.24,45.24,0,0,0-6.43-3.22c-2.46-1-5.14-2.06-8-3.1q-10.92-4.06-16.48-10.28a23.66,23.66,0,0,1-5.92-15.3,23.35,23.35,0,0,1,10-21.08,35.43,35.43,0,0,1,11.46-5.28,59.79,59.79,0,0,1,14-2,84.15,84.15,0,0,1,12.9.46,51.5,51.5,0,0,1,10.42,2.34q.25,9.51.52,19a31.21,31.21,0,0,0-5.15-2.66,40,40,0,0,0-5.71-1.83,42.69,42.69,0,0,0-11.3-1.22,29,29,0,0,0-6.44.88,16.82,16.82,0,0,0-4.85,2,9.74,9.74,0,0,0-3,3,6.79,6.79,0,0,0-1,3.82,7.21,7.21,0,0,0,1.38,4.06,13.67,13.67,0,0,0,3.59,3.32,38,38,0,0,0,5.58,3q3.28,1.46,7.38,3a79.56,79.56,0,0,1,10.09,4.56A35,35,0,0,1,853,1402a22.36,22.36,0,0,1,5,7.28,25.49,25.49,0,0,1,1.93,9.65,25.92,25.92,0,0,1-2.56,12.89,23.75,23.75,0,0,1-7.64,8.62,34.24,34.24,0,0,1-11.42,5,68.07,68.07,0,0,1-13.87,1.86,78,78,0,0,1-14.33-.77A43.32,43.32,0,0,1,798.27,1443.12Z"/><path class="cls-4" d="M926,1444.83q-19.59.27-32.21-12.21t-13.13-33q-.5-21.62,12-35.25c8.31-9.07,19.54-13.73,33.6-13.92q19.92-.26,32.3,12.47c8.23,8.47,12.33,19.7,12.41,33.64q.07,21.51-12.39,34.75T926,1444.83Zm-.13-76.67q-11,.15-17.32,8.38t-6.06,21.58q.26,13.55,6.78,21.32a20.62,20.62,0,0,0,16.88,7.64q10.65-.15,16.85-7.87c4.12-5.15,6.17-12.26,6.08-21.34q-.12-14.17-6.32-22T925.91,1368.16Z"/><path class="cls-4" d="M1063.59,1440c-6.71,3.14-15.44,4.63-26.17,4.53q-21-.18-33-12.52t-12.07-32.91q0-21.87,13.75-35.48c9.18-9.05,21.15-13.53,35.82-13.39q13.63.13,22.92,3.64-.15,9.9-.29,19.79a40.77,40.77,0,0,0-21.12-5.73c-8.71-.09-15.77,2.56-21.13,7.91s-8.06,12.64-8.09,21.85q-.06,13.23,7.39,21.12t20.09,8a43.59,43.59,0,0,0,22.19-5.59Z"/><path class="cls-4" d="M1111.76,1444.21q-10.27-.24-20.56-.45.9-45.6,1.81-91.21,10.47.21,21,.46Q1112.85,1398.61,1111.76,1444.21Z"/><path class="cls-4" d="M1224.52,1448.2q-11.19-.53-22.4-1-2.82-10.28-5.66-20.55-16.29-.67-32.59-1.23-3.58,10-7.13,20.06-11.15-.36-22.29-.68,17.92-45.12,36.46-90.11,12.4.43,24.83.94Q1210.43,1401.89,1224.52,1448.2Zm-32.16-37.5q-4.32-15.51-8.7-31a39.07,39.07,0,0,1-1.24-8.26l-.52,0a34.44,34.44,0,0,1-1.91,7.88q-5.61,15.27-11.16,30.54Q1180.59,1410.23,1192.36,1410.7Z"/><path class="cls-4" d="M1307.26,1378.13q-13.21-.83-26.41-1.59-2.13,37.18-4.27,74.38-10.3-.6-20.61-1.14l4-74.39q-13.14-.71-26.28-1.33.39-8.36.8-16.72,36.93,1.79,73.85,4.09Q1307.79,1369.79,1307.26,1378.13Z"/><path class="cls-4" d="M1381.25,1458q-27.32-2.14-54.66-4l6.15-91q26.77,1.82,53.54,3.91-.66,8.34-1.31,16.68-16.24-1.27-32.51-2.44-.74,10.11-1.46,20.24,15.07,1.08,30.14,2.25c-.44,5.54-.86,11.08-1.3,16.62q-15-1.17-30-2.25-.75,10.41-1.49,20.82,17.13,1.23,34.24,2.57Q1381.92,1449.73,1381.25,1458Z"/><path class="cls-5" d="M383.61,962.14l-23.31,2.19q-7.28-15.2-14.6-30.4-25.31,2.48-50.59,5.13-3.92,16.34-7.76,32.66l-23.2,2.52q17.13-64.47,35.18-128.86,12.18-1.26,24.37-2.47Q354.09,902.4,383.61,962.14Zm-45.2-44.4q-11.39-23.82-22.9-47.59a58.82,58.82,0,0,1-2.5-7.59l-.36,0a48.71,48.71,0,0,1-1,7.95q-6.42,25.61-12.71,51.2Q318.66,919.67,338.41,917.74Z"/><path class="cls-5" d="M485.65,837.82q-32.07,51.52-63.1,103.35,34.77-3,69.57-5.62.64,8.7,1.31,17.39-49.6,3.75-99.15,8.23-.42-4.71-.85-9.42Q424.35,900,456.31,848.62q-33.07,2.64-66.12,5.61l-1.56-17.46q48.15-4.32,96.35-7.95C485.2,831.82,485.43,834.82,485.65,837.82Z"/><path class="cls-5" d="M612,894.66c2,34.89-14.12,53.24-48.19,55.43-32.65,2.13-50.21-13.39-52.64-46.91l-5.49-75.89,21.69-1.53,5,71.66c1.7,24.36,12.33,35.83,31.94,34.56,18.89-1.22,27.63-13.51,26.22-37q-2.21-36.51-4.4-73,10.85-.66,21.7-1.28Q609.92,857.68,612,894.66Z"/><path class="cls-5" d="M746.12,938.7q-12.45.46-24.9,1-10.94-16.23-22-32.41a70.9,70.9,0,0,0-5.79-7.6,32.41,32.41,0,0,0-5.65-5.08,18.49,18.49,0,0,0-6.15-2.76,26,26,0,0,0-7.35-.61l-8.66.42q1.25,25.22,2.47,50.43-10.61.52-21.22,1.07Q643.65,881,640.4,818.91q21.52-1.12,43.06-2.11a65,65,0,0,1,17.06,1.32,40.15,40.15,0,0,1,13.76,5.72,29.67,29.67,0,0,1,9.4,10.12,32.07,32.07,0,0,1,3.8,14.56,34.58,34.58,0,0,1-1.56,12.18,31.32,31.32,0,0,1-5.4,10,35.17,35.17,0,0,1-8.74,7.7,46.42,46.42,0,0,1-11.68,5.19c0,.12,0,.23,0,.35a33.27,33.27,0,0,1,6.33,3.94c1.8,1.45,3.53,3,5.16,4.51a59.69,59.69,0,0,1,4.88,5.31q2.4,3,5.38,6.94Q734.06,921.66,746.12,938.7ZM662.84,834.54l2,40.38,17.91-.86a27.67,27.67,0,0,0,9.12-1.89,21.38,21.38,0,0,0,7.09-4.57,19.38,19.38,0,0,0,4.51-7,22.42,22.42,0,0,0,1.34-9q-.39-8.93-6.51-13.7T681,833.67Q671.94,834.09,662.84,834.54Z"/><path class="cls-5" d="M835.05,936q-36.07.87-72.14,2.12l-4.32-124.33q35.29-1.23,70.56-2.08.23,8.76.43,17.52-24.36.59-48.71,1.36l1.11,35.2q22.32-.71,44.65-1.26.23,8.72.44,17.43-22.27.55-44.54,1.26.57,18.38,1.16,36.76,25.47-.8,50.94-1.41Z"/><path class="cls-5" d="M906,929.72q-.15-10.62-.28-21.25a34.17,34.17,0,0,0,7.11,4.6,56.89,56.89,0,0,0,8.71,3.41,72,72,0,0,0,9.19,2.12,50.14,50.14,0,0,0,8.45.7q13.49-.1,20.06-4.47a14.16,14.16,0,0,0,6.56-12.61,13.38,13.38,0,0,0-2.25-7.66,22.81,22.81,0,0,0-6.21-5.92,65.21,65.21,0,0,0-9.37-5.1c-3.59-1.62-7.44-3.32-11.56-5.07q-6.6-3.33-12.36-6.74a52.68,52.68,0,0,1-10-7.57,32.11,32.11,0,0,1-6.73-9.41,30,30,0,0,1-2.57-12.38,27.57,27.57,0,0,1,3.94-15.27,33.72,33.72,0,0,1,10.82-10.8,51.06,51.06,0,0,1,15.4-6.4,76.51,76.51,0,0,1,17.7-2.17c13.72-.08,23.69,1.37,30,4.31l0,20.39q-11.1-7.62-28.62-7.53a53.55,53.55,0,0,0-9.6.93,29.46,29.46,0,0,0-8.54,2.93,18.19,18.19,0,0,0-6.1,5.17,12.05,12.05,0,0,0-2.29,7.57,13.83,13.83,0,0,0,1.88,7.19,19.11,19.11,0,0,0,5.37,5.5,54.16,54.16,0,0,0,8.56,4.83q5,2.36,11.68,5.09,6.81,3.35,12.84,7a59.39,59.39,0,0,1,10.61,8.21,35.76,35.76,0,0,1,7.23,10,28.25,28.25,0,0,1,2.68,12.54q0,9.45-3.94,16a31.61,31.61,0,0,1-10.62,10.61,48.53,48.53,0,0,1-15.35,6,90.16,90.16,0,0,1-18.36,1.95q-3.24,0-7.93-.41t-9.65-1.29a92,92,0,0,1-9.35-2.11A30.17,30.17,0,0,1,906,929.72Z"/><path class="cls-5" d="M1085.93,934.73q-36.08-.51-72.15-.61.19-62.21.38-124.4,35.28.1,70.57.58-.12,8.76-.23,17.52-24.36-.33-48.72-.48-.1,17.61-.22,35.22,22.32.15,44.66.43-.12,8.71-.23,17.43-22.26-.28-44.54-.42-.12,18.39-.23,36.78,25.48.16,51,.51Z"/><path class="cls-5" d="M1200.38,932.09q-14.76,6.84-36.32,6.26-27.94-.71-44.47-18.08t-16.15-45.14c.32-19.89,7-35.87,20-47.89s29.5-17.79,49.17-17.27q19,.49,31.34,6-.33,10.23-.64,20.46a57.81,57.81,0,0,0-28.91-8.3q-21.21-.57-34.65,12.09T1126,874.49q-.42,20.57,11.51,33t31.62,12.94q18.24.48,31.87-7.41Q1200.69,922.55,1200.38,932.09Z"/><path class="cls-5" d="M1327.72,892.1c-1.78,34.9-19.7,51.43-53.82,50-32.69-1.37-48.47-18.67-47.32-52.26l2.64-76q10.86.38,21.72.79-1.37,35.89-2.73,71.78c-.91,24.39,8.45,36.94,28.06,37.77,18.9.8,28.91-10.49,30-34q1.7-36.52,3.41-73.05,10.86.51,21.71,1.05Z"/><path class="cls-5" d="M1456.37,950.2q-12.43-.87-24.87-1.69-9.15-17.29-18.4-34.56a68.19,68.19,0,0,0-5-8.18,32.37,32.37,0,0,0-5.08-5.66,18.38,18.38,0,0,0-5.8-3.39,25.79,25.79,0,0,0-7.25-1.39l-8.66-.51q-1.45,25.2-2.92,50.41-10.61-.62-21.22-1.2,3.4-62.12,6.8-124.22,21.52,1.19,43,2.5a64.76,64.76,0,0,1,16.83,3.13,40,40,0,0,1,13.07,7.15,29.45,29.45,0,0,1,8.27,11.07,31.45,31.45,0,0,1,2.24,14.89,34.88,34.88,0,0,1-2.85,11.94,31.57,31.57,0,0,1-6.44,9.39,35.35,35.35,0,0,1-9.52,6.72,46.69,46.69,0,0,1-12.17,3.92l0,.34a33.4,33.4,0,0,1,5.87,4.59q2.48,2.46,4.66,5a55.55,55.55,0,0,1,4.27,5.8q2.12,3.23,4.62,7.48Q1446.19,932,1456.37,950.2Zm-71.71-112.45-2.34,40.36q9,.51,17.9,1.06a27.92,27.92,0,0,0,9.26-.91,21.14,21.14,0,0,0,7.55-3.79,19.23,19.23,0,0,0,5.23-6.45,22.6,22.6,0,0,0,2.29-8.81q.57-8.91-5-14.31c-3.72-3.6-9.3-5.63-16.69-6.07Q1393.76,838.28,1384.66,837.75Z"/><path class="cls-5" d="M1495,953q-11-.84-21.91-1.62l9-124.08,22.32,1.65Q1499.67,891,1495,953Z"/><path class="cls-5" d="M1620.51,856.35q-18.71-1.76-37.41-3.39-4.66,53.24-9.32,106.48-10.63-.95-21.27-1.83,4.48-53.25,9-106.5-18.67-1.58-37.34-3.05l1.38-17.47q48.33,3.81,96.6,8.31Z"/><path class="cls-5" d="M1737,850.59q-25.69,37-50.92,74.2-2.34,22.49-4.67,45-10.62-1.11-21.25-2.18,2.23-22.26,4.49-44.54-16.59-41.68-33.69-83.3,12.33,1.17,24.66,2.37,10.21,27.81,20.23,55.65c.25.66.89,3.14,2,7.44l.27,0a46.84,46.84,0,0,1,3.71-6.86q16-25.17,32.29-50.26Q1725.59,849.33,1737,850.59Z"/><path class="cls-5" d="M642,1145.05q-34.94,1.9-69.86,4.2L564,1025.11q34.18-2.23,68.37-4.12.49,8.74,1,17.5-23.61,1.29-47.2,2.77l2.19,35.15q21.63-1.35,43.26-2.55.48,8.7,1,17.41-21.59,1.2-43.15,2.54,1.15,18.36,2.29,36.72,24.68-1.54,49.34-2.89Q641.48,1136.34,642,1145.05Z"/><path class="cls-5" d="M775,1139.16q-11.28.38-22.58.8Q721,1095.4,688.7,1051.13a41.28,41.28,0,0,1-4.13-7l-.53,0c.6,2.64,1.09,8.31,1.51,17q1.92,40.72,3.85,81.45-10,.48-20,1-3.12-62.13-6.26-124.25,12.27-.61,24.52-1.19,31.38,43.23,62,86.74c2.6,3.61,4.24,6.09,5,7.45H755q-1.05-4.9-1.49-16.7-1.49-40.05-3-80.1,10.13-.37,20.27-.72Q772.94,1077,775,1139.16Z"/><path class="cls-5" d="M908.34,1127.51q-19.35,10.85-43.2,11.3c-18.43.37-33.45-5-45.21-16.12s-17.93-26.11-18.49-45q-.86-28.86,17.63-47.92t48-19.63q21.17-.4,35.7,5.48.15,10.64.29,21.26-14.69-9.35-34.85-9t-32.87,13.81q-12.58,13.41-12,34.24.55,21.42,11.88,33.41T865.31,1121q12.88-.26,22.22-5.35-.25-14.79-.49-29.58-13.21.23-26.45.49-.18-8.67-.35-17.35,23.65-.48,47.32-.79Z"/><path class="cls-5" d="M961.86,1135.52l-21.29.14q-.52-62.19-1-124.39,10.86-.09,21.71-.15Q961.55,1073.32,961.86,1135.52Z"/><path class="cls-5" d="M1103.56,1136.38q-11.3-.2-22.6-.35-29.13-46.11-59.13-92a39.45,39.45,0,0,1-3.77-7.22h-.53q.71,4,.64,17.09l-.3,81.55q-10,0-20,0,0-62.21.08-124.41,12.27,0,24.54.07,29.13,44.76,57.45,89.77,3.6,5.61,4.62,7.7h.34a111.05,111.05,0,0,1-.63-16.76l1.11-80.15q10.15.15,20.29.32Q1104.62,1074.19,1103.56,1136.38Z"/><path class="cls-5" d="M1209.69,1139.06q-35-1.17-69.94-2l2.82-124.37q34.23.76,68.45,1.91-.29,8.75-.58,17.51-23.61-.78-47.25-1.39-.45,17.6-.91,35.21,21.66.55,43.31,1.26l-.57,17.43q-21.58-.71-43.19-1.26-.46,18.38-.95,36.77,24.7.63,49.4,1.46Q1210,1130.35,1209.69,1139.06Z"/><path class="cls-5" d="M1307.09,1143.06q-35-1.69-69.91-3,2.34-62.16,4.69-124.31,34.23,1.29,68.43,2.94l-.84,17.5q-23.61-1.14-47.23-2.1-.72,17.6-1.45,35.19,21.66.88,43.29,1.92-.4,8.7-.83,17.41-21.57-1-43.17-1.91-.75,18.38-1.51,36.75,24.69,1,49.38,2.22Q1307.51,1134.35,1307.09,1143.06Z"/><path class="cls-5" d="M1430.73,1150.27q-12.06-.82-24.12-1.59-8.86-17.27-17.84-34.5A69.17,69.17,0,0,0,1384,1106a31.8,31.8,0,0,0-4.93-5.64,17.62,17.62,0,0,0-5.63-3.37,24.32,24.32,0,0,0-7-1.36l-8.4-.48q-1.41,25.2-2.83,50.41-10.28-.58-20.57-1.12l6.57-124.23q20.89,1.11,41.77,2.34a61.27,61.27,0,0,1,16.32,3.08,38.08,38.08,0,0,1,12.69,7.1,29.35,29.35,0,0,1,8,11,32.55,32.55,0,0,1,2.17,14.88,36.29,36.29,0,0,1-2.77,11.95,31.81,31.81,0,0,1-6.25,9.41,34.59,34.59,0,0,1-9.23,6.76,44.48,44.48,0,0,1-11.81,4l0,.35a32.56,32.56,0,0,1,5.7,4.56c1.58,1.64,3.1,3.31,4.51,5a57.46,57.46,0,0,1,4.15,5.78q2,3.22,4.48,7.47Q1420.85,1132.07,1430.73,1150.27Zm-69.55-112.18q-1.14,20.17-2.27,40.36l17.37,1a26.05,26.05,0,0,0,9-.94,20.43,20.43,0,0,0,7.33-3.82,19.33,19.33,0,0,0,5.07-6.46,23,23,0,0,0,2.22-8.82c.36-5.94-1.24-10.71-4.86-14.29s-9-5.59-16.19-6Z"/><polygon class="cls-4" points="858.58 1519.13 887.24 1607.31 979.96 1607.31 904.94 1661.81 933.6 1750 858.58 1695.49 783.57 1750 812.22 1661.81 737.21 1607.31 829.93 1607.31 858.58 1519.13"/><polygon class="cls-4" points="1140.51 1519.13 1169.16 1607.31 1261.88 1607.31 1186.87 1661.81 1215.52 1750 1140.51 1695.49 1065.49 1750 1094.14 1661.81 1019.13 1607.31 1111.85 1607.31 1140.51 1519.13"/></svg>