<svg id="Layer_1" data-name="Layer 1" xmlns="http://www.w3.org/2000/svg" viewBox="0 0 2000 2000"><defs><style>.cls-1{fill:#40a6e2;}.cls-2{fill:#002c61;}.cls-3{fill:#0078c0;}.cls-4{fill:#505050;}.cls-5{fill:#fff;}.cls-6{fill:#282828;}</style></defs><path class="cls-1" d="M1000,10a149.2,149.2,0,0,0-43.11,6.36L398.14,185A142.38,142.38,0,0,0,296.3,322.13v949.14c0,242.84,82.05,327.38,239.29,467.71,153.69,137.16,428.51,238,440.14,242.2L1000,1990l24.27-8.82c11.63-4.23,286.45-105,440.14-242.2,157.24-140.33,239.29-224.87,239.29-467.71V322.13A142.38,142.38,0,0,0,1601.86,185L1043.11,16.36A149.2,149.2,0,0,0,1000,10Z"/><path class="cls-2" d="M1581.33,253.07,1022.56,84.4a78.54,78.54,0,0,0-45.12,0L418.67,253.07a72.13,72.13,0,0,0-51.28,69.05V999.57H1632.61V322.12A72.13,72.13,0,0,0,1581.33,253.07Z"/><path class="cls-3" d="M367.39,1271.28c0,214,64.55,279.94,215.51,414.67,145.27,129.64,417.1,228.42,417.1,228.42s271.83-98.78,417.1-228.42c151-134.73,215.51-200.7,215.51-414.67V999.57H367.39Z"/><path class="cls-4" d="M1000,656.84c-300.5,0-593.32,25.46-870.34,75.68A102.73,102.73,0,0,0,47.27,854.08c25.46,125.27,54.59,278.35,74.23,390a113.27,113.27,0,0,0,111.74,93.78,114.58,114.58,0,0,0,23.46-2.44C354,1315,621.31,1267.58,1000,1267.58s646,47.43,743.31,67.82a114.42,114.42,0,0,0,23.45,2.44,113.27,113.27,0,0,0,111.74-93.78c19.64-111.64,48.77-264.72,74.23-390a102.73,102.73,0,0,0-82.39-121.56c-277-50.22-569.84-75.68-870.34-75.68Z"/><path class="cls-5" d="M1000,1230.27c315.15,0,582.57,33.34,751,68.61a76.19,76.19,0,0,0,90.8-61.28c20.68-117.62,50.24-272,74.41-390.95a65.42,65.42,0,0,0-52.49-77.42c-166.56-30.2-465-75.08-863.68-75.08h0c-398.71,0-697.12,44.88-863.68,75.08a65.42,65.42,0,0,0-52.49,77.42C108,965.58,137.56,1120,158.24,1237.6a76.19,76.19,0,0,0,90.8,61.28c168.39-35.27,435.81-68.61,751-68.61Z"/><path class="cls-5" d="M791.16,393H767.62V329.64q0-10.26.88-22.66h-.59a112.24,112.24,0,0,1-3.32,14l-24.8,72H720.31l-25.24-71.22q-1-2.88-3.32-14.76h-.67q1,15.64,1,27.45V393H670.57V287.13h34.9l21.63,62.73A87.82,87.82,0,0,1,730.86,365h.45a151.55,151.55,0,0,1,4.2-15.28l21.63-62.58h34Z"/><path class="cls-5" d="M823.23,305.43a13.61,13.61,0,0,1-9.67-3.51,11.28,11.28,0,0,1-3.77-8.59,10.93,10.93,0,0,1,3.77-8.57,15.79,15.79,0,0,1,19.37,0,11,11,0,0,1,3.73,8.57,11.22,11.22,0,0,1-3.73,8.7A13.81,13.81,0,0,1,823.23,305.43ZM834.74,393H811.42V317.39h23.32Z"/><path class="cls-5" d="M910.13,390.23q-7.9,4.57-22.8,4.58-17.43,0-28.2-10.56T848.36,357q0-19.26,11.55-30.37t30.89-11.11q13.35,0,19.33,3.54v19.78a26.57,26.57,0,0,0-16.31-5.46q-10,0-15.9,5.87t-5.87,16.2q0,10,5.61,15.76T893.08,377a30.8,30.8,0,0,0,17-5.47Z"/><path class="cls-5" d="M973.19,338.42a20.25,20.25,0,0,0-9.81-2.29q-7.61,0-11.88,5.57t-4.29,15.17V393H923.9V317.39h23.31v14h.3q5.54-15.35,19.93-15.35a15,15,0,0,1,5.75.88Z"/><path class="cls-5" d="M1018.54,394.81q-18.88,0-29.7-10.59T978,355.47q0-18.75,11.22-29.34t30.33-10.59q18.81,0,29.52,10.59t10.7,28q0,18.83-11,29.74T1018.54,394.81Zm.6-61.41q-8.26,0-12.85,5.68t-4.57,16.09q0,21.78,17.56,21.78,16.76,0,16.76-22.37Q1036,333.4,1019.14,333.4Z"/><path class="cls-5" d="M1068.47,391v-18.9a49.64,49.64,0,0,0,11.48,5.17,38.06,38.06,0,0,0,10.81,1.7,23.24,23.24,0,0,0,9.78-1.7c2.38-1.13,3.58-2.86,3.58-5.17a4.78,4.78,0,0,0-1.63-3.69,15.16,15.16,0,0,0-4.17-2.58,46.85,46.85,0,0,0-5.57-2c-2-.59-4-1.26-5.83-2a55.7,55.7,0,0,1-7.93-3.66,22.66,22.66,0,0,1-5.76-4.54,17.78,17.78,0,0,1-3.54-6,23.71,23.71,0,0,1-1.22-8,20.75,20.75,0,0,1,2.77-10.92,22.58,22.58,0,0,1,7.38-7.49,33.73,33.73,0,0,1,10.55-4.28,54.45,54.45,0,0,1,12.36-1.37,68.14,68.14,0,0,1,10.19.78,75.83,75.83,0,0,1,10.18,2.25v18a36.78,36.78,0,0,0-9.48-3.87,40.06,40.06,0,0,0-9.93-1.29,23,23,0,0,0-4.32.4,14,14,0,0,0-3.57,1.19,6.48,6.48,0,0,0-2.44,2,4.58,4.58,0,0,0-.89,2.77,5.16,5.16,0,0,0,1.33,3.54,11.68,11.68,0,0,0,3.47,2.54,33.23,33.23,0,0,0,4.76,1.92c1.75.57,3.49,1.15,5.2,1.74a67.31,67.31,0,0,1,8.42,3.54,27.06,27.06,0,0,1,6.46,4.5,17.86,17.86,0,0,1,4.13,6,24.21,24.21,0,0,1-1.48,19.75,23.44,23.44,0,0,1-7.75,7.75,35.12,35.12,0,0,1-11.14,4.35,61.79,61.79,0,0,1-13.1,1.37A67.74,67.74,0,0,1,1068.47,391Z"/><path class="cls-5" d="M1174.42,394.81q-18.89,0-29.71-10.59t-10.81-28.75q0-18.75,11.22-29.34t30.33-10.59q18.83,0,29.52,10.59t10.71,28q0,18.83-11,29.74T1174.42,394.81Zm.59-61.41q-8.27,0-12.84,5.68t-4.58,16.09q0,21.78,17.57,21.78,16.74,0,16.75-22.37Q1191.91,333.4,1175,333.4Z"/><path class="cls-5" d="M1278.59,298.93a23.57,23.57,0,0,0-8.64-1.77q-11.22,0-11.21,12.18v8.05H1276v17.19h-17.27V393h-23.25V334.58h-12.7V317.39h12.7V308q0-12.92,8.41-20.81t22.88-7.9a40.33,40.33,0,0,1,11.81,1.48Z"/><path class="cls-5" d="M1331.4,392.08q-5.18,2.71-15.57,2.73-24.66,0-24.66-25.61V334.58h-12.25V317.39h12.25V301.07l23.25-6.64v23h17v17.19h-17v30.56q0,11.81,9.38,11.81a15.91,15.91,0,0,0,7.6-2.14Z"/><path class="cls-5" d="M728.5,535.32q-9,4.77-22.49,4.77-17.38,0-27.85-11.19t-10.45-29.38q0-19.54,11.76-31.59t29.83-12.05q11.6,0,19.2,3.36v10.17a38.9,38.9,0,0,0-19.31-4.89q-14,0-22.76,9.38T677.71,499q0,14.9,8.15,23.73t21.39,8.83q12.27,0,21.25-5.46Z"/><path class="cls-5" d="M808.06,538.73H764.88V457.25h41.36v8.63H774.42V493h29.43v8.59H774.42v28.52h33.64Z"/><path class="cls-5" d="M901.93,538.73H890.57l-13.64-22.84a49,49,0,0,0-3.63-5.43,20.91,20.91,0,0,0-3.61-3.66,12.45,12.45,0,0,0-4-2.08,16.54,16.54,0,0,0-4.8-.65h-7.84v34.66h-9.55V457.25h24.32a34.37,34.37,0,0,1,9.86,1.34,21.85,21.85,0,0,1,7.83,4.06,18.72,18.72,0,0,1,5.21,6.78,24.85,24.85,0,0,1,.59,17.33,20.11,20.11,0,0,1-3.63,6.34,22,22,0,0,1-5.68,4.74,29,29,0,0,1-7.47,3.05v.23a17,17,0,0,1,3.55,2.07,19.93,19.93,0,0,1,2.87,2.75,38.52,38.52,0,0,1,2.69,3.61c.89,1.35,1.89,2.91,3,4.68Zm-48.86-72.85v29.55H866a19.68,19.68,0,0,0,6.62-1.08,15.36,15.36,0,0,0,5.25-3.09,14,14,0,0,0,3.47-4.95,16.61,16.61,0,0,0,1.25-6.56q0-6.54-4.24-10.2t-12.23-3.67Z"/><path class="cls-5" d="M975.86,465.88H952.33v72.85h-9.54V465.88H919.33v-8.63h56.53Z"/><path class="cls-5" d="M1018,538.73h-9.54V457.25H1018Z"/><path class="cls-5" d="M1100.53,465.88h-31.82v28.19h29.43v8.57h-29.43v36.09h-9.54V457.25h41.36Z"/><path class="cls-5" d="M1145.31,538.73h-9.54V457.25h9.54Z"/><path class="cls-5" d="M1229.7,538.73h-43.18V457.25h41.36v8.63h-31.82V493h29.44v8.59h-29.44v28.52h33.64Z"/><path class="cls-5" d="M1265.16,538.73V457.25h22.5q43.08,0,43.07,39.71,0,18.87-12,30.32t-32,11.45Zm9.55-72.85v64.21h12.16q16,0,24.94-8.58t8.92-24.31q0-31.32-33.29-31.32Z"/><polygon class="cls-5" points="1002.34 1577.57 1031 1665.75 1123.72 1665.75 1048.7 1720.25 1077.36 1808.44 1002.34 1753.94 927.33 1808.44 955.98 1720.25 880.97 1665.75 973.69 1665.75 1002.34 1577.57"/><polygon class="cls-5" points="756.34 1501.04 782.96 1582.95 869.1 1582.95 799.41 1633.58 826.03 1715.5 756.34 1664.87 686.66 1715.5 713.27 1633.58 643.59 1582.95 729.73 1582.95 756.34 1501.04"/><polygon class="cls-5" points="1248.34 1501.04 1221.73 1582.95 1135.59 1582.95 1205.28 1633.58 1178.66 1715.5 1248.34 1664.87 1318.03 1715.5 1291.41 1633.58 1361.1 1582.95 1274.96 1582.95 1248.34 1501.04"/><path class="cls-5" d="M786.1,1441.88q-26.9.67-53.8,1.52l-2.82-89.68q26.14-.81,52.29-1.48l.42,16.45q-15.91.4-31.81.86.29,10,.58,20,14.76-.42,29.53-.8.19,8.19.41,16.38-14.73.38-29.47.81l.6,20.51q16.83-.48,33.66-.91Q785.9,1433.7,786.1,1441.88Z"/><path class="cls-5" d="M893,1439.88l-24,.33q-7.95-14.49-16-29a25.81,25.81,0,0,1-1.93-6h-.25a44.86,44.86,0,0,1-2,6.3q-7.53,14.61-15,29.25-12,.23-24.09.5,13.8-22.74,27.75-45.44-13.56-22.17-27.27-44.31l24.84-.51q6.75,13.32,13.44,26.66a46.82,46.82,0,0,1,2.84,7.53h.25q.71-2.64,2.7-7.87,7-13.44,14-26.88,11.38-.16,22.77-.31-13.32,22.41-26.5,44.86Q878.86,1417.44,893,1439.88Z"/><path class="cls-5" d="M940.33,1408.52l.21,30.91-20.21.16-.81-89.72q16-.13,32-.23c22.86-.11,34.3,9.43,34.32,28.48q0,13.53-9.75,21.89T950,1408.46Zm-.29-43.29q.11,14,.19,28l8,0q16.23-.09,16.18-14.22,0-13.83-16.34-13.75Z"/><path class="cls-5" d="M1069.52,1439.56q-26.91-.24-53.82-.3l.21-89.72q26.14.06,52.3.28-.07,8.23-.14,16.46-15.91-.13-31.82-.21l-.09,20q14.77.06,29.54.19l-.14,16.39q-14.73-.12-29.47-.19-.06,10.26-.1,20.52,16.83.07,33.67.23Z"/><path class="cls-5" d="M1175.83,1441.15q-11.6-.26-23.2-.47-6.77-11.67-13.57-23.33c-1-1.77-2-3.34-2.93-4.74a26.24,26.24,0,0,0-2.87-3.58,11.56,11.56,0,0,0-3-2.3,7.79,7.79,0,0,0-3.47-.84l-5.47-.08q-.26,17.18-.5,34.34l-20.21-.27q.56-44.85,1.1-89.71,16.2.19,32.38.46c22,.36,32.85,8.73,32.52,25a25.28,25.28,0,0,1-1.62,8.64,24.07,24.07,0,0,1-4.24,7.08,25.7,25.7,0,0,1-6.49,5.38,32.93,32.93,0,0,1-8.39,3.48v.25a13,13,0,0,1,3.86,2.1,28,28,0,0,1,3.59,3.35,46.36,46.36,0,0,1,3.28,4.1q1.56,2.19,2.84,4.28Q1167.64,1427.71,1175.83,1441.15Zm-54-75.56-.36,25,8.81.14q6.54.1,10.57-3.58a12.52,12.52,0,0,0,4.2-9.38q.21-11.76-14-12Z"/><path class="cls-5" d="M1263.6,1370.17q-12.9-.4-25.81-.77-1,36.61-2.08,73.23l-20.26-.55q.94-36.61,1.9-73.24l-25.68-.63q.18-8.22.37-16.45,36,.83,72.08,2Q1263.87,1362,1263.6,1370.17Z"/><path class="cls-6" d="M520.11,867.68l-6.27-78.54q12.12-1,24.24-1.88c31-2.34,47.33,9.44,49,35,.84,12.14-2.77,22.17-10.75,30.13s-19.08,12.45-33.32,13.53Q531.58,866.76,520.11,867.68Zm8.46-68.56L533,855.59l11-.84q14.53-1.1,22.07-9.23t6.58-21.95c-1.28-18.38-12.09-26.87-32.4-25.34Q534.38,798.67,528.57,799.12Z"/><path class="cls-6" d="M659.6,779.27q-12.37,25.82-24.53,51.67.85,14.29,1.72,28.57l-13.77.85q-.87-14.15-1.76-28.3-14.88-24.33-30-48.6,7.94-.54,15.87-1,9.35,16.32,18.61,32.69c.21.39.9,1.86,2,4.44H628a33.59,33.59,0,0,1,1.64-4.67q7.57-17.39,15.24-34.76Z"/><path class="cls-6" d="M746.1,853.94l-15.05.65q-21.1-28.05-42.58-56a24.76,24.76,0,0,1-2.75-4.42l-.35,0a73.29,73.29,0,0,1,1,10.78q1.32,25.79,2.65,51.58l-13.31.7q-2.12-39.34-4.22-78.68l16.24-.84Q708.6,805,729.08,832.41c1.72,2.26,2.84,3.83,3.35,4.69h.23a67.34,67.34,0,0,1-1-10.57q-1.11-25.37-2.23-50.72l13.43-.58Q744.45,814.58,746.1,853.94Z"/><path class="cls-6" d="M836,850.86l-15.12.43q-4-9.91-8.07-19.82-16.38.49-32.76,1.09-3.24,10.14-6.45,20.3c-5,.18-10,.38-15,.57q14-40,28.36-79.89l15.72-.52Q819.54,811.9,836,850.86Zm-27.18-29.93q-6.29-15.52-12.62-31A36.74,36.74,0,0,1,795,785h-.23a32.25,32.25,0,0,1-1,5q-5.24,15.9-10.41,31.8Q796.07,821.34,808.84,820.93Z"/><path class="cls-6" d="M937.78,849l-13.67.15q-.3-25.49-.61-51c0-4.17.15-9.29.64-15.34h-.23a48.58,48.58,0,0,1-2.2,7.44q-12.15,29.6-24.06,59.25l-9.5.16q-12.93-29-26.13-58a53.45,53.45,0,0,1-2.4-7.8h-.23c.37,3.14.67,8.28.81,15.42q.59,25.43,1.15,50.86l-12.74.3q-1-39.37-1.94-78.76l19.65-.45q11.63,26,23,52a76.71,76.71,0,0,1,3.41,8.95h.29q2-6.25,3.33-9.29,10.74-26.31,21.67-52.58,9.48-.12,18.95-.21Q937.4,809.62,937.78,849Z"/><path class="cls-6" d="M973.54,848.78q-7.1,0-14.19.07-.24-39.4-.47-78.79l14.37-.07Q973.39,809.38,973.54,848.78Z"/><path class="cls-6" d="M1053.11,845.72c-6.28,3-14.09,4.49-23.38,4.43-12.05-.07-21.67-3.69-28.94-10.91s-10.92-16.69-10.93-28.41c0-12.6,4.09-22.79,12.36-30.55s18.75-11.61,31.38-11.53c8.14,0,14.89,1.2,20.22,3.41l-.12,13a37.69,37.69,0,0,0-18.7-4.87q-13.65-.09-22.14,8.07c-5.66,5.45-8.46,12.74-8.49,21.85,0,8.69,2.61,15.6,7.81,20.76s12.06,7.76,20.58,7.81q11.77.07,20.47-5.11Z"/><path class="cls-6" d="M1066.22,846q.08-6.74.16-13.47a22,22,0,0,0,4.52,3,37.83,37.83,0,0,0,5.57,2.3,49.43,49.43,0,0,0,5.9,1.48,35.06,35.06,0,0,0,5.45.58q8.68.13,13-2.53a9,9,0,0,0,4.41-7.9,8.37,8.37,0,0,0-1.34-4.89,14.18,14.18,0,0,0-3.92-3.82,42.18,42.18,0,0,0-6-3.38c-2.31-1.08-4.75-2.21-7.38-3.38-2.8-1.47-5.43-3-7.86-4.46a34.44,34.44,0,0,1-6.32-4.94,20.28,20.28,0,0,1-4.18-6.07,18.64,18.64,0,0,1-1.46-7.88,17.24,17.24,0,0,1,2.78-9.61,21.71,21.71,0,0,1,7.12-6.67,33.37,33.37,0,0,1,10-3.81,50.46,50.46,0,0,1,11.4-1.11c8.81.15,15.19,1.21,19.19,3.16q-.13,6.45-.26,12.91c-4.69-3.32-10.79-5.06-18.29-5.18a35.61,35.61,0,0,0-6.19.45,19.34,19.34,0,0,0-5.54,1.73,11.6,11.6,0,0,0-4,3.18,7.52,7.52,0,0,0-1.59,4.76,8.45,8.45,0,0,0,1.1,4.57,11.76,11.76,0,0,0,3.37,3.57,35.76,35.76,0,0,0,5.43,3.19q3.23,1.56,7.45,3.39,4.32,2.22,8.17,4.65a38.78,38.78,0,0,1,6.71,5.36,22.92,22.92,0,0,1,4.53,6.43,17.74,17.74,0,0,1,1.56,8A18.91,18.91,0,0,1,1117,839.7a20.29,20.29,0,0,1-7,6.57,32,32,0,0,1-10,3.55,59.45,59.45,0,0,1-11.89.95c-1.39,0-3.09-.15-5.12-.37s-4.09-.56-6.21-1-4.13-.91-6-1.48A19.94,19.94,0,0,1,1066.22,846Z"/><path class="cls-6" d="M1166.49,848.28q.18-6,.35-12A29.87,29.87,0,0,0,1185,843c5.51.18,10-.86,13.36-3.13a11.27,11.27,0,0,0,5.3-9.5c.32-8.92-6.78-13.65-21.25-14.11l-6.46-.2.3-10.21,6.18.19c12.89.4,19.44-3.58,19.74-12,.26-7.76-4.62-11.82-14.71-12.14a25.61,25.61,0,0,0-16,5.17l.33-11.31q8.68-4.26,20.37-3.88c7.46.24,13.4,2.21,17.76,5.88a16.39,16.39,0,0,1,6.24,13.75q-.57,15.54-17.52,19.39v.22c6,.76,10.7,2.91,14.06,6.46a17.21,17.21,0,0,1,4.77,13,20.61,20.61,0,0,1-9,16.8c-5.77,4.14-13.19,6-22.35,5.76Q1173.73,852.71,1166.49,848.28Z"/><path class="cls-6" d="M1289.17,830.61a27.63,27.63,0,0,1-2.6,10.71,24.92,24.92,0,0,1-6.11,8.14,25.57,25.57,0,0,1-8.91,5.08,30,30,0,0,1-10.94,1.47,28.37,28.37,0,0,1-11.39-2.81,24.54,24.54,0,0,1-8.74-7.24,32.28,32.28,0,0,1-5.43-11.58,53.22,53.22,0,0,1-1.47-15.81,62.11,62.11,0,0,1,3.54-19.27,41.74,41.74,0,0,1,8.21-13.85,32.25,32.25,0,0,1,11.79-8.19,33.82,33.82,0,0,1,14.33-2.33,54.89,54.89,0,0,1,8.61,1,24.64,24.64,0,0,1,6.16,1.94q-.27,5.73-.55,11.47a40.46,40.46,0,0,0-6.26-2.72,27.33,27.33,0,0,0-7.73-1.35,21.91,21.91,0,0,0-9.16,1.46,20,20,0,0,0-7.41,5.14,26.25,26.25,0,0,0-5.11,8.69,40.52,40.52,0,0,0-2.29,12.14l.35,0a18.48,18.48,0,0,1,7.52-5.84,24,24,0,0,1,10.85-1.77,27.63,27.63,0,0,1,9.82,2.12,20.87,20.87,0,0,1,7.29,5.19,21.37,21.37,0,0,1,4.44,7.91A29.32,29.32,0,0,1,1289.17,830.61Zm-13.65.39a22.2,22.2,0,0,0-.55-6.24,13.18,13.18,0,0,0-2.34-4.93,11.52,11.52,0,0,0-4.17-3.29,15.61,15.61,0,0,0-6-1.37,14.84,14.84,0,0,0-6.2.91,13.65,13.65,0,0,0-4.59,2.91,12.76,12.76,0,0,0-2.89,4.27,15.06,15.06,0,0,0-1.12,5,20.6,20.6,0,0,0,.61,5.76,17.23,17.23,0,0,0,2.35,5.47,13.83,13.83,0,0,0,4.27,4.17,12.6,12.6,0,0,0,6.33,1.84,14,14,0,0,0,5.91-.88,12.06,12.06,0,0,0,4.41-3,14.2,14.2,0,0,0,2.83-4.69A19.42,19.42,0,0,0,1275.52,831Z"/><path class="cls-6" d="M1302.68,854.83l.63-12.24a30.7,30.7,0,0,0,16.31,6.1c5.64.3,10.23-.8,13.84-3.34a13.22,13.22,0,0,0,5.79-10.59,12.06,12.06,0,0,0-4.67-10.72c-3.37-2.68-8.35-4.22-14.9-4.57-2.26-.12-6.82-.15-13.71-.07q2.55-20.61,5.12-41.21,20.7,1.08,41.38,2.3-.32,5.43-.64,10.86-15-.89-30-1.7-1.23,9.81-2.46,19.63c2.69,0,5.1.05,7.3.17,8.85.49,15.62,3,20.17,7.59s6.65,10.56,6.21,18q-.72,11.67-9.37,18.24T1320.62,859Q1308.49,858.36,1302.68,854.83Z"/><path class="cls-6" d="M1465.28,839.14q-11.46-.9-22.93-1.76L1440.73,859l-9.55-.71,1.59-21.65q-11.48-.82-22.94-1.63c.21-3,.41-6,.62-9q11.5.79,23,1.64.79-10.86,1.58-21.7l9.63.71-1.62,21.7q11.49.85,23,1.76C1465.75,833.12,1465.52,836.13,1465.28,839.14Z"/><path class="cls-6" d="M484.44,990.57q1.26,14.23,2.5,28.46l-13.35,1.18q-3.52-39.23-7.06-78.47,12.42-1.11,24.83-2.18,14.1-1.2,22.38,4.47c5.5,3.77,8.58,9.48,9.19,17.11s-1.57,14.09-6.54,19.39-12,8.32-21.14,9.1ZM481,951.27q1.26,14.34,2.51,28.68l8.73-.76q8.68-.74,12.89-5t3.63-11.34q-1.15-13.85-17.91-12.43Z"/><path class="cls-6" d="M577.88,1013.1q-17.48,1.26-28.83-8.93t-12.77-27.83q-1.5-18.95,8.45-31.08t28.62-13.47c11.5-.82,21,2.2,28.54,9s11.62,16.18,12.38,28q1.25,19.23-8.68,31.13T577.88,1013.1Zm-4.39-69.8q-11.24.81-17.67,9.39t-5.43,21.73q1,13.1,8.39,20.58a22.3,22.3,0,0,0,18.33,6.7c7.77-.56,13.68-3.53,17.82-8.91s5.93-12.64,5.3-21.79c-.65-9.38-3.3-16.49-8.05-21.31S581.2,942.74,573.49,943.3Z"/><path class="cls-6" d="M732.05,923.88q-9.48,39.86-18.67,79.74l-15.18.76q-9.11-27.12-18.35-54.22a36.91,36.91,0,0,1-1.61-7.61H678a36,36,0,0,1-1,7.64q-6.31,28-12.47,56l-15.51.91q-13.65-38.65-27.61-77.24l14.92-.93q9.2,28.34,18.23,56.71a40.87,40.87,0,0,1,1.57,7.5l.29,0a43.4,43.4,0,0,1,1.14-7.66q6.66-29.28,13.47-58.54l14-.75q9.31,28.61,18.46,57.25a45.2,45.2,0,0,1,1.54,7h.23a41.22,41.22,0,0,1,.93-7.31Q712,953.79,718,924.53Z"/><path class="cls-6" d="M795.69,1000.22Q773,1001,750.26,1002q-1.66-39.36-3.32-78.71,22.11-.93,44.22-1.7c.13,3.7.25,7.39.38,11.09q-15.27.52-30.55,1.14.45,11.15.89,22.29,14-.57,28-1l.39,11q-14,.48-28,1l.93,23.28q16-.63,32.06-1.19C795.44,992.86,795.56,996.54,795.69,1000.22Z"/><path class="cls-6" d="M876.11,998q-7.85.16-15.7.35-6.7-10.4-13.47-20.78a43.44,43.44,0,0,0-3.55-4.88,20.33,20.33,0,0,0-3.49-3.29,11.64,11.64,0,0,0-3.83-1.82,15.94,15.94,0,0,0-4.61-.48l-5.45.16q.45,16,.92,32l-13.38.4q-1.23-39.37-2.46-78.75,13.51-.42,27-.78a40.83,40.83,0,0,1,10.68,1,25.36,25.36,0,0,1,8.56,3.78,18.77,18.77,0,0,1,5.78,6.52,20.3,20.3,0,0,1,2.23,9.27,22.17,22.17,0,0,1-1.1,7.69,20.14,20.14,0,0,1-3.51,6.28,21.9,21.9,0,0,1-5.57,4.78,29.13,29.13,0,0,1-7.41,3.15,1.62,1.62,0,0,1,0,.22,20.86,20.86,0,0,1,3.93,2.57c1.12.94,2.18,1.92,3.19,2.92a36.1,36.1,0,0,1,3,3.42c1,1.27,2.09,2.76,3.3,4.45Q868.69,987.1,876.11,998ZM825,931.08q.38,12.79.74,25.59l11.27-.32a16.79,16.79,0,0,0,5.74-1.09,13.32,13.32,0,0,0,4.51-2.8,12.32,12.32,0,0,0,2.91-4.36,14.31,14.31,0,0,0,.94-5.69,11,11,0,0,0-3.92-8.75c-2.53-2-6.12-3-10.77-2.9Z"/><path class="cls-6" d="M937.37,968.51q.15,14.28.29,28.57-6.69.06-13.39.15-.46-39.39-1-78.79,12.45-.15,24.9-.25c9.43-.07,16.74,2,21.94,6.19s7.8,10.11,7.83,17.77-2.65,13.93-8,18.82-12.62,7.37-21.76,7.44ZM937,929.06q.15,14.4.29,28.79l8.75-.08c5.8,0,10.2-1.38,13.23-4s4.53-6.29,4.49-11c0-9.26-5.69-13.88-16.88-13.79Z"/><path class="cls-6" d="M1040.18,997q-22.41-.16-44.84-.17V918l13.62,0-.15,67.75q15.72,0,31.46.15Z"/><path class="cls-6" d="M1124.85,998.23l-14.74-.31q-3.43-10.09-6.9-20.19-16-.29-32-.5-3.64,10-7.27,20L1049.3,997q15.53-39.25,31.46-78.42l15.34.24Q1110.68,958.5,1124.85,998.23Zm-25-31.22q-5.37-15.81-10.8-31.61a38.32,38.32,0,0,1-1-5h-.23a32.62,32.62,0,0,1-1.22,4.93q-5.86,15.63-11.67,31.26Q1087.37,966.79,1099.82,967Z"/><path class="cls-6" d="M1185.39,932.17q-11.78-.39-23.53-.72l-1.92,67.67-13.44-.37q.88-33.82,1.76-67.66-11.73-.32-23.48-.57c.09-3.7.17-7.39.25-11.09q30.36.66,60.71,1.64C1185.62,924.77,1185.51,928.47,1185.39,932.17Z"/><path class="cls-6" d="M1245.07,934.39q-15.3-.64-30.6-1.21-.43,11.84-.88,23.66,14,.52,28.1,1.12c-.16,3.67-.31,7.35-.47,11q-14-.6-28-1.11l-1.23,32.94-13.43-.49q1.38-39.36,2.75-78.74,22.14.78,44.27,1.72C1245.38,927,1245.23,930.7,1245.07,934.39Z"/><path class="cls-6" d="M1293.34,1005.74q-17.47-.9-27.49-12.4c-6.68-7.68-9.8-17.4-9.26-29.19q.86-19,12.19-29.8t30-9.86q17.27.88,27.21,12.46t8.87,29.3q-1.14,19.25-12.44,29.83C1314.91,1003.14,1305.23,1006.34,1293.34,1005.74Zm4.21-69.82a23.13,23.13,0,0,0-18.69,7.16c-5,5.15-7.62,12.12-8,20.9s1.51,15.89,5.8,21.45,10.06,8.52,17.37,8.9q11.63.58,18.77-6.66c4.79-4.84,7.41-11.82,7.93-21q.78-14.09-5.38-22.14C1311.21,939.21,1305.27,936.32,1297.55,935.92Z"/><path class="cls-6" d="M1413.33,1011.8l-15.68-1.1q-5.72-11-11.49-21.93a42.07,42.07,0,0,0-3.1-5.19,20,20,0,0,0-3.17-3.6,11.78,11.78,0,0,0-3.65-2.16,16.18,16.18,0,0,0-4.55-.9l-5.44-.35q-1,15.95-2,31.91l-13.36-.83q2.4-39.33,4.81-78.64,13.49.82,27,1.71a40.5,40.5,0,0,1,10.53,2,25.29,25.29,0,0,1,8.18,4.55,18.75,18.75,0,0,1,5.16,7,20.19,20.19,0,0,1,1.38,9.44,22.32,22.32,0,0,1-1.82,7.55,20,20,0,0,1-4.07,5.94,22.09,22.09,0,0,1-6,4.24,28.79,28.79,0,0,1-7.66,2.46,1.5,1.5,0,0,0,0,.22,20.14,20.14,0,0,1,3.68,2.92q1.54,1.56,2.92,3.2a36.09,36.09,0,0,1,2.67,3.68q1.31,2,2.89,4.74Q1406.94,1000.25,1413.33,1011.8Zm-44.79-71.36L1366.92,966l11.25.72a17,17,0,0,0,5.82-.55,13.49,13.49,0,0,0,4.76-2.38,12.06,12.06,0,0,0,3.29-4.07,13.94,13.94,0,0,0,1.47-5.58,11,11,0,0,0-3.1-9.07q-3.51-3.42-10.46-3.89Z"/><path class="cls-6" d="M1513,1019.83l-13.29-1.17,4.41-50.79q.54-6.25,2.12-15.2l-.23,0a51.44,51.44,0,0,1-2.86,7.19q-14.71,28.29-29.18,56.64l-9.24-.75Q1455,985.61,1445,955.54a52.54,52.54,0,0,1-1.56-8l-.23,0c.07,3.17-.17,8.3-.71,15.43q-1.95,25.37-3.88,50.73-6.19-.48-12.4-.93,2.92-39.3,5.83-78.58l19.13,1.45q8.74,27,17.29,54a79.19,79.19,0,0,1,2.44,9.24l.28,0c1.73-4,3.1-7,4.14-8.92q13-25.14,26.21-50.23,9.23.79,18.44,1.62Q1516.45,980.59,1513,1019.83Z"/><path class="cls-6" d="M372.24,1176q-.74-6.69-1.48-13.38a20.35,20.35,0,0,0,4.64,2.47,35.19,35.19,0,0,0,5.54,1.64,42.42,42.42,0,0,0,5.75.78,30.87,30.87,0,0,0,5.21,0c5.5-.6,9.49-1.93,12-4a9.05,9.05,0,0,0,3.22-8.35,8.74,8.74,0,0,0-1.86-4.7,13.89,13.89,0,0,0-4.16-3.34,39.12,39.12,0,0,0-6-2.66q-3.44-1.2-7.37-2.5c-2.83-1.13-5.5-2.3-8-3.51a32.32,32.32,0,0,1-6.57-4.17,20.55,20.55,0,0,1-4.69-5.54,19.61,19.61,0,0,1-2.33-7.65,18,18,0,0,1,1.46-9.86,21.14,21.14,0,0,1,5.93-7.45,30.81,30.81,0,0,1,9-5,45.76,45.76,0,0,1,10.65-2.43q12.5-1.3,18.52.91.64,6.42,1.31,12.84-7.28-4.12-17.92-3a31.39,31.39,0,0,0-5.8,1.17,17.37,17.37,0,0,0-5,2.36,11.43,11.43,0,0,0-3.39,3.62,7.87,7.87,0,0,0-.93,4.91,8.82,8.82,0,0,0,1.6,4.41,11.58,11.58,0,0,0,3.61,3.15,31.27,31.27,0,0,0,5.53,2.53c2.14.79,4.61,1.62,7.44,2.5,2.89,1.14,5.68,2.36,8.28,3.67a36.7,36.7,0,0,1,7,4.53,22.28,22.28,0,0,1,5.05,5.86,18.37,18.37,0,0,1,2.43,7.74,18.65,18.65,0,0,1-7.22,17.63,29.17,29.17,0,0,1-9,4.7,54.5,54.5,0,0,1-11.12,2.33c-1.31.13-2.95.21-4.88.22s-3.94-.08-6-.24a54,54,0,0,1-5.86-.77A18.79,18.79,0,0,1,372.24,1176Z"/><path class="cls-6" d="M475.47,1170q-17,1.56-28.29-8.41T434.11,1134q-1.87-18.91,7.57-31.21c6.3-8.19,15.53-12.87,27.61-14q16.81-1.53,28,8.53T510,1125.11c1.11,12.81-1.52,23.23-7.8,31.28S487,1169,475.47,1170Zm-5.8-69.7a22.31,22.31,0,0,0-17,9.7q-6.07,8.7-4.81,21.83c.83,8.71,3.73,15.51,8.63,20.42a21.49,21.49,0,0,0,18,6.37c7.56-.7,13.27-3.76,17.19-9.22s5.49-12.74,4.69-21.87c-.84-9.38-3.59-16.43-8.32-21.16S477.17,1099.65,469.67,1100.33Z"/><path class="cls-6" d="M577.1,1160.28q-21.81,1.62-43.61,3.39-3.19-39.26-6.41-78.52l13.26-1.07q2.67,33.76,5.35,67.53,15.3-1.2,30.6-2.34Z"/><path class="cls-6" d="M650.91,1123.39c1.32,22.09-8.49,33.74-29.43,35.11-20.06,1.33-30.83-8.54-32.37-29.77q-1.71-24-3.43-48.07l13.26-.93q1.57,22.69,3.14,45.39,1.6,23.13,19.65,21.91,17.38-1.14,16-23.43-1.44-23.11-2.9-46.23l13.26-.82Q649.49,1100,650.91,1123.39Z"/><path class="cls-6" d="M724.37,1083.56q-11.46.54-22.92,1.13,1.72,33.8,3.46,67.6l-13.08.68q-1.82-33.79-3.62-67.59-11.43.61-22.87,1.27l-.63-11.08q29.56-1.71,59.14-3.1C724,1076.17,724.2,1079.86,724.37,1083.56Z"/><path class="cls-6" d="M758.17,1149.81l-13.47.58-3.48-78.71q6.82-.32,13.66-.59Q756.53,1110.45,758.17,1149.81Z"/><path class="cls-6" d="M815.78,1149q-17.06.54-27.72-10.1t-11.37-28.34q-.75-19,9.42-30.7c6.78-7.79,16.24-11.91,28.37-12.28,11.23-.35,20.41,3.06,27.44,10.19s10.69,16.64,11,28.46q.47,19.27-9.65,30.75C836.51,1144.65,827.36,1148.63,815.78,1149Zm-1.6-69.92a22.25,22.25,0,0,0-17.57,8.66c-4.39,5.53-6.42,12.71-6.1,21.49s2.77,15.72,7.38,20.9a21.4,21.4,0,0,0,17.58,7.44q11.35-.35,17.69-8.16t6-21.56c-.26-9.4-2.58-16.61-7-21.62S821.71,1078.85,814.18,1079.09Z"/><path class="cls-6" d="M941,1145.11l-14.31.15q-19.2-28.73-38.79-57.31a25.81,25.81,0,0,1-2.47-4.51H885a80.74,80.74,0,0,1,.65,10.81l1,51.64-12.65.25q-.84-39.37-1.69-78.76,7.74-.18,15.46-.31,19,27.92,37.63,56a56.7,56.7,0,0,1,3,4.8h.22a68.8,68.8,0,0,1-.68-10.6l-.6-50.76,12.78-.14Q940.58,1105.72,941,1145.11Z"/><path class="cls-6" d="M1067.57,1145.3l-14.36-.16q-3.43-10.07-6.92-20.12-15.57-.13-31.15-.19-3.45,10-6.89,20H993.94q14.76-39.4,29.95-78.72l14.95.09Q1053.41,1105.73,1067.57,1145.3Zm-24.67-31q-5.39-15.75-10.82-31.5a40.94,40.94,0,0,1-1-4.95h-.22a31.31,31.31,0,0,1-1.15,4.94q-5.57,15.69-11.09,31.37Z"/><path class="cls-6" d="M1145,1146.82l-15.3-.38q-6.06-10.7-12.15-21.38a43.46,43.46,0,0,0-3.24-5,19.4,19.4,0,0,0-3.25-3.45,11.19,11.19,0,0,0-3.64-2,15,15,0,0,0-4.47-.7l-5.31-.09-.57,32-13-.22,1.23-78.78q13.17.21,26.33.47a38.6,38.6,0,0,1,10.35,1.54,24,24,0,0,1,8.16,4.17,18.63,18.63,0,0,1,5.33,6.78,20.83,20.83,0,0,1,1.75,9.36,22.9,22.9,0,0,1-1.44,7.63,19.68,19.68,0,0,1-3.7,6.12,21.85,21.85,0,0,1-5.65,4.51,27.71,27.71,0,0,1-7.36,2.8v.22a19.77,19.77,0,0,1,3.7,2.75c1,1,2,2,3,3.06a37.34,37.34,0,0,1,2.77,3.56c.91,1.32,1.92,2.86,3,4.6Q1138.3,1135.57,1145,1146.82Zm-46.71-69.23q-.22,12.79-.46,25.6l11,.2a16.12,16.12,0,0,0,5.64-.82A12.92,12.92,0,0,0,1119,1100a12.13,12.13,0,0,0,3-4.22,14.48,14.48,0,0,0,1.18-5.64q.12-5.65-3.41-8.92c-2.37-2.17-5.83-3.32-10.35-3.4Z"/><path class="cls-6" d="M1213.62,1145.74c-6.07,2.85-13.52,4.1-22.34,3.81-11.45-.4-20.49-4.28-27.19-11.7s-9.89-17-9.56-28.7c.35-12.59,4.53-22.66,12.62-30.19s18.14-11.1,30.17-10.68c7.75.28,14.1,1.6,19.13,4q-.26,6.48-.5,13a34.47,34.47,0,0,0-17.64-5.38q-13-.45-21.28,7.48t-8.7,21.6c-.26,8.68,2,15.67,6.83,21s11.24,8.09,19.32,8.37a35.43,35.43,0,0,0,19.6-4.55Q1213.86,1139.7,1213.62,1145.74Z"/><path class="cls-6" d="M1297.44,1152.89c-4.38-.24-8.76-.46-13.15-.69l1.74-34.13q-18.66-.94-37.34-1.78-.76,17.07-1.52,34.14l-13.08-.56,3.31-78.72,13.27.57-1.47,33.1q18.71.84,37.42,1.79l1.68-33.09q6.67.33,13.33.69Q1299.53,1113.56,1297.44,1152.89Z"/><path class="cls-6" d="M1335.94,1155.07l-13.47-.79q2.27-39.33,4.54-78.66l13.65.8Q1338.3,1115.75,1335.94,1155.07Z"/><path class="cls-6" d="M1416.48,1092.61q-11.46-.84-22.91-1.64-2.34,33.77-4.69,67.53l-13.08-.89q2.27-33.78,4.54-67.54-11.43-.77-22.86-1.49.36-5.53.7-11.08,29.57,1.88,59.11,4Z"/><path class="cls-6" d="M1472.86,1165q-22.09-1.86-44.19-3.55,3-39.29,6-78.56,21.52,1.65,43,3.45l-.93,11.06q-14.87-1.24-29.73-2.42-.87,11.11-1.75,22.24,13.65,1.08,27.29,2.22-.46,5.5-.92,11-13.62-1.14-27.24-2.21l-1.83,23.22q15.6,1.23,31.19,2.55Z"/><path class="cls-6" d="M1547.67,1168.46c-6.22,2.49-13.75,3.3-22.56,2.48-11.41-1.07-20.21-5.48-26.47-13.28s-8.89-17.53-7.87-29.21q1.62-18.83,14.4-29.4t30.77-8.87q11.57,1.08,18.88,5.07l-1.26,12.9a34.55,34.55,0,0,0-17.31-6.41c-8.62-.81-15.88,1.26-21.7,6.21s-9.15,12-10,21c-.76,8.66,1.08,15.76,5.59,21.33s10.77,8.74,18.82,9.5a35.52,35.52,0,0,0,19.85-3.4Z"/><path class="cls-6" d="M1625.73,1111.85q-11.43-1.26-22.85-2.48-3.59,33.66-7.16,67.31l-13-1.37q3.51-33.68,7-67.33-11.39-1.18-22.79-2.32c.36-3.69.74-7.37,1.1-11.05q29.49,3,59,6.2Q1626.34,1106.33,1625.73,1111.85Z"/></svg>