<svg id="Layer_1" data-name="Layer 1" xmlns="http://www.w3.org/2000/svg" viewBox="0 0 2000 2000"><defs><style>.cls-1{fill:#002050;}.cls-2{fill:#505050;}.cls-3{fill:#0064b5;}.cls-4{fill:#fff;}.cls-5{fill:#282828;}</style></defs><path class="cls-1" d="M1000,10a149.2,149.2,0,0,0-43.11,6.36L398.14,185A142.38,142.38,0,0,0,296.3,322.13v949.14c0,242.84,82.05,327.38,239.29,467.71,153.69,137.16,428.51,238,440.14,242.2L1000,1990l24.27-8.82c11.63-4.23,286.45-105,440.14-242.2,157.24-140.33,239.29-224.87,239.29-467.71V322.13A142.38,142.38,0,0,0,1601.86,185L1043.11,16.36A149.2,149.2,0,0,0,1000,10Z"/><path class="cls-2" d="M1581.33,253.07,1022.56,84.4a78.54,78.54,0,0,0-45.12,0L418.67,253.07a72.13,72.13,0,0,0-51.28,69.05V999.57H1632.61V322.12A72.13,72.13,0,0,0,1581.33,253.07Z"/><path class="cls-3" d="M367.39,1271.28c0,214,64.55,279.94,215.51,414.67,145.27,129.64,417.1,228.42,417.1,228.42s271.83-98.78,417.1-228.42c151-134.73,215.51-200.7,215.51-414.67V999.57H367.39Z"/><path class="cls-2" d="M1000,656.84c-300.5,0-593.32,25.46-870.34,75.68A102.73,102.73,0,0,0,47.27,854.08c25.46,125.27,54.59,278.35,74.23,390a113.27,113.27,0,0,0,111.74,93.78,114.58,114.58,0,0,0,23.46-2.44C354,1315,621.31,1267.58,1000,1267.58s646,47.43,743.31,67.82a114.42,114.42,0,0,0,23.45,2.44,113.27,113.27,0,0,0,111.74-93.78c19.64-111.64,48.77-264.72,74.23-390a102.73,102.73,0,0,0-82.39-121.56c-277-50.22-569.84-75.68-870.34-75.68Z"/><path class="cls-4" d="M1000,1230.27c315.15,0,582.57,33.34,751,68.61a76.19,76.19,0,0,0,90.8-61.28c20.68-117.62,50.24-272,74.41-390.95a65.42,65.42,0,0,0-52.49-77.42c-166.56-30.2-465-75.08-863.68-75.08h0c-398.71,0-697.12,44.88-863.68,75.08a65.42,65.42,0,0,0-52.49,77.42C108,965.58,137.56,1120,158.24,1237.6a76.19,76.19,0,0,0,90.8,61.28c168.39-35.27,435.81-68.61,751-68.61Z"/><path class="cls-4" d="M788.23,400.57H764.69V337.25q0-10.26.88-22.66H765a112.47,112.47,0,0,1-3.31,14l-24.8,71.95H717.38l-25.24-71.21q-1-2.88-3.32-14.77h-.66q.95,15.66,1,27.46v58.52H667.64V294.74h34.91l21.62,62.73a89,89,0,0,1,3.77,15.13h.44a151.86,151.86,0,0,1,4.21-15.27l21.62-62.59h34Z"/><path class="cls-4" d="M820.3,313a13.6,13.6,0,0,1-9.67-3.5,11.29,11.29,0,0,1-3.76-8.6,10.9,10.9,0,0,1,3.76-8.56,15.79,15.79,0,0,1,19.37,0,10.94,10.94,0,0,1,3.73,8.56,11.24,11.24,0,0,1-3.73,8.71A13.84,13.84,0,0,1,820.3,313Zm11.51,87.53H808.49V325h23.32Z"/><path class="cls-4" d="M907.2,397.84q-7.89,4.57-22.8,4.58-17.42,0-28.19-10.56t-10.78-27.23q0-19.26,11.55-30.37t30.89-11.1q13.35,0,19.33,3.54v19.78A26.59,26.59,0,0,0,890.89,341q-10,0-15.9,5.86t-5.87,16.2q0,10,5.61,15.76t15.43,5.72a30.78,30.78,0,0,0,17-5.46Z"/><path class="cls-4" d="M970.27,346a20.32,20.32,0,0,0-9.82-2.28,14.15,14.15,0,0,0-11.88,5.57q-4.27,5.56-4.28,15.17v36.08H921V325h23.33v14h.29q5.53-15.34,19.93-15.35a15,15,0,0,1,5.76.89Z"/><path class="cls-4" d="M1015.62,402.42q-18.9,0-29.71-10.59T975.1,363.08q0-18.75,11.22-29.33t30.33-10.59q18.81,0,29.52,10.59t10.7,28q0,18.81-11,29.74T1015.62,402.42Zm.59-61.4q-8.26,0-12.84,5.68t-4.58,16.09q0,21.76,17.57,21.77,16.74,0,16.75-22.36Q1033.11,341,1016.21,341Z"/><path class="cls-4" d="M1065.54,398.58V379.69a49.78,49.78,0,0,0,11.48,5.16,38.11,38.11,0,0,0,10.81,1.7,23.21,23.21,0,0,0,9.78-1.7q3.59-1.69,3.58-5.16a4.77,4.77,0,0,0-1.62-3.69,15.08,15.08,0,0,0-4.17-2.59,49.38,49.38,0,0,0-5.57-2c-2-.59-4-1.25-5.84-2a56.24,56.24,0,0,1-7.93-3.65,23.11,23.11,0,0,1-5.76-4.54,17.82,17.82,0,0,1-3.54-6,23.86,23.86,0,0,1-1.22-8,20.79,20.79,0,0,1,2.77-10.93,22.67,22.67,0,0,1,7.38-7.49,33.79,33.79,0,0,1,10.56-4.28,55,55,0,0,1,12.36-1.36,68,68,0,0,1,10.18.77,77.55,77.55,0,0,1,10.19,2.25v18a36.49,36.49,0,0,0-9.49-3.87,39.54,39.54,0,0,0-9.92-1.3,22,22,0,0,0-4.32.41,13.93,13.93,0,0,0-3.58,1.18,6.74,6.74,0,0,0-2.44,2,4.59,4.59,0,0,0-.88,2.77,5.08,5.08,0,0,0,1.33,3.54,11.29,11.29,0,0,0,3.47,2.55,34.67,34.67,0,0,0,4.76,1.92c1.74.56,3.48,1.14,5.2,1.73a65.66,65.66,0,0,1,8.41,3.55,26.75,26.75,0,0,1,6.46,4.49,17.75,17.75,0,0,1,4.13,6.06,24.23,24.23,0,0,1-1.47,19.74,23.44,23.44,0,0,1-7.75,7.75,35.17,35.17,0,0,1-11.15,4.35,61.73,61.73,0,0,1-13.1,1.37A67.54,67.54,0,0,1,1065.54,398.58Z"/><path class="cls-4" d="M1171.49,402.42q-18.88,0-29.7-10.59T1131,363.08q0-18.75,11.21-29.33t30.34-10.59q18.81,0,29.51,10.59t10.71,28q0,18.81-11,29.74T1171.49,402.42Zm.6-61.4q-8.28,0-12.85,5.68t-4.57,16.09q0,21.76,17.56,21.77,16.76,0,16.75-22.36Q1189,341,1172.09,341Z"/><path class="cls-4" d="M1275.66,306.55a23.52,23.52,0,0,0-8.63-1.77q-11.22,0-11.22,12.18v8h17.27v17.2h-17.27v58.37h-23.25V342.2h-12.69V325h12.69v-9.37q0-12.92,8.42-20.81t22.88-7.9a39.93,39.93,0,0,1,11.8,1.48Z"/><path class="cls-4" d="M1328.47,399.69q-5.16,2.73-15.57,2.73-24.66,0-24.65-25.61V342.2H1276V325h12.25V308.69l23.25-6.64V325h17v17.2h-17v30.55q0,11.81,9.37,11.81a15.77,15.77,0,0,0,7.6-2.14Z"/><path class="cls-4" d="M728.5,544.69q-9,4.77-22.49,4.77-17.38,0-27.85-11.19t-10.45-29.38q0-19.54,11.76-31.59t29.83-12q11.6,0,19.2,3.35v10.17a38.9,38.9,0,0,0-19.31-4.89q-14,0-22.76,9.38t-8.72,25.05q0,14.9,8.15,23.73t21.39,8.83q12.27,0,21.25-5.45Z"/><path class="cls-4" d="M808.06,548.1H764.88V466.62h41.36v8.63H774.42v27.11h29.43v8.58H774.42v28.52h33.64Z"/><path class="cls-4" d="M901.93,548.1H890.57l-13.64-22.84a51,51,0,0,0-3.63-5.43,21.71,21.71,0,0,0-3.61-3.67,12.84,12.84,0,0,0-4-2.07,16.54,16.54,0,0,0-4.8-.65h-7.84V548.1h-9.55V466.62h24.32A34.72,34.72,0,0,1,877.7,468a21.85,21.85,0,0,1,7.83,4.06,18.75,18.75,0,0,1,5.21,6.79,24.85,24.85,0,0,1,.59,17.33,20.18,20.18,0,0,1-3.63,6.33,22.27,22.27,0,0,1-5.68,4.75,29.39,29.39,0,0,1-7.47,3v.22a17.47,17.47,0,0,1,3.55,2.08,19.93,19.93,0,0,1,2.87,2.75,38.52,38.52,0,0,1,2.69,3.61c.89,1.35,1.89,2.91,3,4.69Zm-48.86-72.85V504.8H866a19.68,19.68,0,0,0,6.62-1.08,15.36,15.36,0,0,0,5.25-3.09,14.06,14.06,0,0,0,3.47-4.95,16.61,16.61,0,0,0,1.25-6.56q0-6.53-4.24-10.2t-12.23-3.67Z"/><path class="cls-4" d="M975.86,475.25H952.33V548.1h-9.54V475.25H919.33v-8.63h56.53Z"/><path class="cls-4" d="M1018,548.1h-9.54V466.62H1018Z"/><path class="cls-4" d="M1100.53,475.25h-31.82v28.19h29.43V512h-29.43V548.1h-9.54V466.62h41.36Z"/><path class="cls-4" d="M1145.31,548.1h-9.54V466.62h9.54Z"/><path class="cls-4" d="M1229.7,548.1h-43.18V466.62h41.36v8.63h-31.82v27.11h29.44v8.58h-29.44v28.52h33.64Z"/><path class="cls-4" d="M1265.16,548.1V466.62h22.5q43.08,0,43.07,39.71,0,18.87-12,30.32t-32,11.45Zm9.55-72.85v64.21h12.16q16,0,24.94-8.58t8.92-24.32q0-31.31-33.29-31.31Z"/><path class="cls-4" d="M694.72,1451.78q-11.19.67-22.38,1.41-3.92-9.92-7.83-19.83-16.28,1.08-32.56,2.27-2.49,10.35-5,20.71-11.12.83-22.24,1.7,13-46.79,26.63-93.49,12.4-.9,24.81-1.72Q675.76,1407.23,694.72,1451.78Zm-36-33.84q-6-15-12-29.92a39.42,39.42,0,0,1-2.12-8.08l-.51,0a35.24,35.24,0,0,1-1.07,8q-3.94,15.78-7.83,31.55Q647,1418.73,658.73,1417.94Z"/><path class="cls-4" d="M713.43,1447.18q-.57-10.15-1.15-20.32a39.78,39.78,0,0,0,12.46,6.29,39.25,39.25,0,0,0,13.27,1.62,29.57,29.57,0,0,0,6.76-1,16.05,16.05,0,0,0,4.76-2.18,8.72,8.72,0,0,0,2.76-3.06,7.25,7.25,0,0,0,.78-3.7,7.9,7.9,0,0,0-1.76-4.7,16.92,16.92,0,0,0-4.38-3.67,46.41,46.41,0,0,0-6.49-3.11c-2.48-1-5.17-2-8.06-3-7.31-2.59-12.9-5.91-16.66-10a23.65,23.65,0,0,1-6.18-15.2,24.32,24.32,0,0,1,2.21-12.39,24.07,24.07,0,0,1,7.46-8.85,35.71,35.71,0,0,1,11.36-5.48,60.18,60.18,0,0,1,13.92-2.27,85.36,85.36,0,0,1,12.91.24,51.34,51.34,0,0,1,10.46,2.16c.29,6.34.56,12.67.85,19a31.75,31.75,0,0,0-5.19-2.57,40.17,40.17,0,0,0-5.75-1.74,43.5,43.5,0,0,0-11.32-1,29.21,29.21,0,0,0-6.42,1,16.67,16.67,0,0,0-4.82,2.13,9.38,9.38,0,0,0-3,3.05,6.9,6.9,0,0,0-.9,3.83,7.25,7.25,0,0,0,1.44,4,14,14,0,0,0,3.66,3.25,37.06,37.06,0,0,0,5.63,2.9c2.2.93,4.69,1.88,7.43,2.85a78.23,78.23,0,0,1,10.16,4.39,35.17,35.17,0,0,1,7.82,5.46,22.68,22.68,0,0,1,5.14,7.19,29.52,29.52,0,0,1-.24,22.56,23.54,23.54,0,0,1-7.5,8.74,34.48,34.48,0,0,1-11.34,5.15,67.92,67.92,0,0,1-13.83,2.09,78.52,78.52,0,0,1-14.34-.51A43.11,43.11,0,0,1,713.43,1447.18Z"/><path class="cls-4" d="M798.27,1443.12q-.39-10.17-.8-20.35a39.61,39.61,0,0,0,25.58,8.36,29.43,29.43,0,0,0,6.78-.93,15.88,15.88,0,0,0,4.79-2.09,8.83,8.83,0,0,0,2.82-3,7.22,7.22,0,0,0,.85-3.69,7.9,7.9,0,0,0-1.69-4.72,16.47,16.47,0,0,0-4.32-3.75,44.71,44.71,0,0,0-6.43-3.22c-2.46-1-5.17-2.06-8-3.1q-10.92-4.06-16.48-10.28a23.5,23.5,0,0,1-5.92-15.3,23.41,23.41,0,0,1,10-21.08,35.53,35.53,0,0,1,11.46-5.28,59.79,59.79,0,0,1,14-2,84,84,0,0,1,12.9.46,51.55,51.55,0,0,1,10.41,2.34c.19,6.34.35,12.68.53,19a30.82,30.82,0,0,0-5.15-2.66,39.57,39.57,0,0,0-5.71-1.83,42.69,42.69,0,0,0-11.3-1.22,28.87,28.87,0,0,0-6.44.88,16.94,16.94,0,0,0-4.85,2,9.74,9.74,0,0,0-3,3,6.87,6.87,0,0,0-1,3.82,7.2,7.2,0,0,0,1.37,4.06,14.16,14.16,0,0,0,3.59,3.32,38.19,38.19,0,0,0,5.59,3c2.19,1,4.63,2,7.37,3a79.56,79.56,0,0,1,10.09,4.56A34.45,34.45,0,0,1,853,1402a22.57,22.57,0,0,1,5,7.28,26.08,26.08,0,0,1,1.93,9.65,25.81,25.81,0,0,1-2.57,12.89,23.66,23.66,0,0,1-7.64,8.62,34.51,34.51,0,0,1-11.42,5,68,68,0,0,1-13.86,1.86,77.94,77.94,0,0,1-14.34-.77A43.17,43.17,0,0,1,798.27,1443.12Z"/><path class="cls-4" d="M926,1444.83q-19.57.27-32.21-12.21c-8.41-8.34-12.82-19.32-13.13-33-.32-14.41,3.63-26.17,12-35.25s19.52-13.73,33.6-13.92c13.28-.17,24.09,4,32.3,12.47s12.33,19.7,12.41,33.64q.07,21.51-12.39,34.75C950.27,1440.16,939.45,1444.65,926,1444.83Zm-.13-76.67q-11,.15-17.32,8.38t-6.06,21.58c.15,9,2.44,16.14,6.79,21.32a20.6,20.6,0,0,0,16.87,7.64q10.63-.15,16.85-7.87c4.12-5.15,6.18-12.26,6.08-21.34q-.12-14.17-6.32-22T925.91,1368.16Z"/><path class="cls-4" d="M1063.59,1440c-6.74,3.14-15.41,4.63-26.17,4.53-14-.12-25-4.27-33-12.52s-12.07-19.21-12.06-32.91q0-21.87,13.74-35.48c9.18-9.05,21.15-13.53,35.82-13.39,9.1.09,16.72,1.31,22.91,3.64q-.13,9.9-.28,19.79a40.82,40.82,0,0,0-21.12-5.73q-13.11-.13-21.13,7.91t-8.1,21.85q0,13.23,7.4,21.12t20.09,8a43.51,43.51,0,0,0,22.18-5.59C1063.77,1427.53,1063.67,1433.79,1063.59,1440Z"/><path class="cls-4" d="M1111.76,1444.21q-10.27-.24-20.56-.45.9-45.6,1.81-91.21,10.47.21,20.94.46Z"/><path class="cls-4" d="M1224.52,1448.2q-11.2-.53-22.4-1-2.8-10.28-5.66-20.55-16.31-.67-32.6-1.23-3.57,10-7.12,20.06-11.15-.36-22.29-.68,17.92-45.12,36.45-90.11,12.42.43,24.83.94Q1210.43,1401.89,1224.52,1448.2Zm-32.16-37.5q-4.32-15.51-8.7-31a40.41,40.41,0,0,1-1.24-8.26l-.52,0a33.43,33.43,0,0,1-1.91,7.88q-5.61,15.27-11.16,30.54Q1180.61,1410.23,1192.36,1410.7Z"/><path class="cls-4" d="M1307.26,1378.13q-13.2-.83-26.41-1.59-2.13,37.18-4.27,74.38-10.3-.6-20.61-1.14l4-74.39q-13.14-.71-26.29-1.33l.81-16.72q36.93,1.79,73.85,4.09C1308,1367,1307.6,1372.56,1307.26,1378.13Z"/><path class="cls-4" d="M1381.25,1458q-27.32-2.14-54.66-4l6.15-91q26.79,1.82,53.54,3.91-.66,8.34-1.31,16.68-16.26-1.27-32.51-2.44c-.48,6.74-1,13.49-1.46,20.24q15.07,1.08,30.14,2.25-.65,8.31-1.3,16.62-15-1.17-30-2.25c-.49,6.94-1,13.88-1.49,20.82q17.12,1.23,34.24,2.57Q1381.9,1449.73,1381.25,1458Z"/><polygon class="cls-4" points="858.58 1519.13 887.24 1607.31 979.96 1607.31 904.94 1661.81 933.6 1750 858.58 1695.49 783.57 1750 812.22 1661.81 737.21 1607.31 829.93 1607.31 858.58 1519.13"/><polygon class="cls-4" points="1140.51 1519.13 1169.16 1607.31 1261.88 1607.31 1186.87 1661.81 1215.52 1750 1140.51 1695.49 1065.49 1750 1094.14 1661.81 1019.13 1607.31 1111.85 1607.31 1140.51 1519.13"/><path class="cls-5" d="M352.89,962.12q-11.64,1.08-23.28,2.2-7.28-15.21-14.6-30.4-25.27,2.48-50.53,5.14-3.89,16.34-7.73,32.66-11.59,1.24-23.17,2.52,17.1-64.47,35.08-128.86,12.15-1.25,24.33-2.47Q323.37,902.39,352.89,962.12Zm-45.18-44.39q-11.37-23.81-22.88-47.58a61.79,61.79,0,0,1-2.51-7.59l-.36,0a50.16,50.16,0,0,1-1,8q-6.39,25.59-12.65,51.19Q288,919.67,307.71,917.73Z"/><path class="cls-5" d="M454.65,837.71q-31.95,51.56-62.88,103.41,34.73-3,69.47-5.69.66,8.7,1.33,17.39-49.53,3.79-99,8.32c-.28-3.14-.57-6.28-.85-9.42Q393.51,900,425.37,848.54q-33,2.67-66,5.66-.78-8.73-1.58-17.45,48.06-4.35,96.17-8Z"/><path class="cls-5" d="M580.92,894.35c2,34.89-14,53.27-48,55.52-32.61,2.18-50.15-13.32-52.65-46.84q-2.81-37.93-5.59-75.87,10.82-.81,21.65-1.56,2.52,35.82,5.05,71.65c1.73,24.35,12.39,35.81,32,34.51,18.88-1.25,27.56-13.56,26.12-37.06q-2.26-36.5-4.54-73l21.66-1.32Q578.74,857.38,580.92,894.35Z"/><path class="cls-5" d="M715,938.09q-12.45.49-24.88,1-11-16.2-22-32.36a68,68,0,0,0-5.82-7.58,31.63,31.63,0,0,0-5.65-5.07,18.13,18.13,0,0,0-6.14-2.74,26,26,0,0,0-7.34-.6l-8.65.44q1.29,25.21,2.59,50.42-10.6.55-21.2,1.13-3.37-62.12-6.76-124.22,21.48-1.17,43-2.21a65,65,0,0,1,17,1.28,40,40,0,0,1,13.75,5.68,29.63,29.63,0,0,1,9.41,10.1A31.92,31.92,0,0,1,696.1,848a35.24,35.24,0,0,1-1.52,12.17,31.79,31.79,0,0,1-5.37,10,35.3,35.3,0,0,1-8.71,7.72,46.81,46.81,0,0,1-11.66,5.22c0,.11,0,.23,0,.34a34.07,34.07,0,0,1,6.33,3.92c1.81,1.46,3.54,3,5.17,4.5a56.55,56.55,0,0,1,4.88,5.3c1.61,2,3.42,4.29,5.4,6.93Q702.85,921.08,715,938.09Zm-83.43-104,2.07,40.37,17.89-.89a27.45,27.45,0,0,0,9.09-1.92,21.25,21.25,0,0,0,7.08-4.58,19.24,19.24,0,0,0,4.47-7,22.32,22.32,0,0,0,1.32-9q-.37-8.93-6.54-13.68t-17.21-4.22Q640.61,833.66,631.53,834.13Z"/><path class="cls-5" d="M803.77,935.11q-36,1-72,2.33-2.34-62.16-4.67-124.32,35.2-1.32,70.42-2.29l.48,17.52q-24.3.67-48.62,1.51.6,17.6,1.21,35.2,22.29-.78,44.58-1.4.24,8.72.49,17.43-22.23.63-44.46,1.39l1.26,36.76q25.43-.87,50.87-1.56Q803.54,926.4,803.77,935.11Z"/><path class="cls-5" d="M880.65,933.45l-2-124.38q18.86-.3,37.73-.5c48.19-.48,72.33,19.85,72.28,60.25,0,19.2-6.6,34.62-19.73,46.31S938.27,932.74,916.19,933Q898.42,933.18,880.65,933.45Zm19.84-107.17q.59,44.72,1.15,89.43l17.05-.2q22.51-.22,35-12.24t12.43-33.89c-.07-29.08-15.92-43.62-47.52-43.31Z"/><path class="cls-5" d="M1116.58,933.73q-11.68-.22-23.36-.39-5.54-15.92-11.14-31.82-25.35-.35-50.72-.49-5.67,15.81-11.28,31.61l-23.28-.06q24.11-62.18,49.06-124.19l24.42.24Q1093.86,871.11,1116.58,933.73Zm-39.95-49.11q-8.66-24.93-17.45-49.82a54.85,54.85,0,0,1-1.65-7.83h-.36a49.71,49.71,0,0,1-1.89,7.79q-9.18,24.72-18.23,49.48Q1056.84,884.38,1076.63,884.62Z"/><path class="cls-5" d="M1208.74,829.09q-18.73-.57-37.45-1.06-1.36,53.41-2.75,106.84l-21.31-.52,2.43-106.85q-18.67-.42-37.36-.74.15-8.76.31-17.53,48.35.84,96.67,2.35Z"/><path class="cls-5" d="M1318.09,940.35q-11.67-.55-23.34-1.07-5.07-16.06-10.2-32.13-25.35-1.08-50.69-2-6.13,15.63-12.21,31.27-11.64-.39-23.27-.74,25.9-61.46,52.67-122.71,12.2.46,24.41,1Q1297.2,877.08,1318.09,940.35Zm-38.5-50.26q-7.93-25.15-16-50.3a53.06,53.06,0,0,1-1.42-7.87l-.36,0a45.69,45.69,0,0,1-2.12,7.74q-9.89,24.43-19.65,48.92Q1259.81,889.27,1279.59,890.09Z"/><path class="cls-5" d="M1337.54,941.3q3.14-62.12,6.26-124.24,20.71,1.05,41.42,2.21,18.93,1.07,29.51,9.63c7,5.7,10.28,12.77,9.78,21.2a28.75,28.75,0,0,1-7.38,18q-6.7,7.41-17.92,10c0,.11,0,.23,0,.34,8.84,1.51,15.79,5.11,20.75,10.77s7.18,12.78,6.67,21.32q-1,15.94-14.6,25c-9.08,6.05-20.14,8.69-33.33,8Q1358.12,942.35,1337.54,941.3Zm27-106.57q-.93,17.67-1.88,35.34l13.91.76c7.45.41,13.42-.94,17.87-4.07s6.87-7.79,7.21-14c.64-10.62-6.49-16.39-21.4-17.22Q1372.36,835.15,1364.49,834.73Zm-2.77,51.89-2.1,39.32,18.2,1c7.93.45,14.19-1,18.73-4.27s7-8.06,7.37-14.29c.8-12.87-8.15-19.88-26.69-20.92Q1369.48,887,1361.72,886.62Z"/><path class="cls-5" d="M1555.21,955.71q-11.65-.94-23.31-1.87-4.51-16.23-9.09-32.47-25.3-1.95-50.62-3.71-6.66,15.4-13.28,30.83-11.62-.79-23.24-1.55,28-60.51,56.88-120.81,12.2.87,24.38,1.79Q1536.51,891.78,1555.21,955.71Zm-36.78-51.55q-7-25.42-14.25-50.83a56.51,56.51,0,0,1-1.16-7.91l-.36,0a46.48,46.48,0,0,1-2.38,7.65q-10.72,24.11-21.34,48.22Q1498.69,902.66,1518.43,904.16Z"/><path class="cls-5" d="M1569.15,951.91q.88-10.59,1.78-21.18a35.15,35.15,0,0,0,6.63,5.26,57.9,57.9,0,0,0,8.35,4.25,69.34,69.34,0,0,0,8.93,3,50.06,50.06,0,0,0,8.34,1.52c9,.8,15.74,0,20.39-2.51a14.13,14.13,0,0,0,7.74-11.91,13.09,13.09,0,0,0-1.49-7.85,22.72,22.72,0,0,0-5.6-6.49,64.54,64.54,0,0,0-8.84-6c-3.42-2-7.1-4-11-6.17q-6.25-3.95-11.64-7.9a54.08,54.08,0,0,1-9.22-8.5,32.06,32.06,0,0,1-5.77-10,29.6,29.6,0,0,1-1.36-12.57,27.21,27.21,0,0,1,5.4-14.82,34.23,34.23,0,0,1,11.79-9.7,51,51,0,0,1,16-4.88,76.8,76.8,0,0,1,17.81-.45q20.43,1.86,29.38,7.18-1,10.16-1.93,20.3-10.32-8.65-27.74-10.26a53.52,53.52,0,0,0-9.64,0,29.44,29.44,0,0,0-8.78,2.09,18.48,18.48,0,0,0-6.56,4.56,12.13,12.13,0,0,0-3,7.32,13.9,13.9,0,0,0,1.18,7.33,18.79,18.79,0,0,0,4.8,6,53.34,53.34,0,0,0,8,5.64c3.19,1.88,6.93,4,11.12,6.19,4.31,2.66,8.32,5.41,12.1,8.26a59.65,59.65,0,0,1,9.75,9.19,36.28,36.28,0,0,1,6.24,10.66,28.36,28.36,0,0,1,1.46,12.73c-.59,6.28-2.43,11.45-5.47,15.52a31.57,31.57,0,0,1-11.58,9.53,48.7,48.7,0,0,1-15.86,4.45,90.73,90.73,0,0,1-18.46.16c-2.17-.19-4.74-.58-7.86-1.17s-6.24-1.34-9.47-2.22-6.23-1.89-9.09-3A29.86,29.86,0,0,1,1569.15,951.91Z"/><path class="cls-5" d="M1747.73,974.24q-35.87-4-71.77-7.54,6.18-61.89,12.35-123.79,35.09,3.51,70.16,7.36-1,8.72-1.91,17.42-24.21-2.66-48.43-5.16-1.8,17.52-3.61,35,22.21,2.28,44.41,4.72-1,8.65-1.9,17.33-22.14-2.43-44.29-4.7-1.87,18.29-3.77,36.58,25.33,2.61,50.67,5.41Q1748.68,965.58,1747.73,974.24Z"/><path class="cls-5" d="M379.17,1161.9q-11.31,1-22.6,2.11-7.11-15.23-14.23-30.44-24.55,2.37-49.06,4.93-3.76,16.3-7.46,32.62-11.25,1.19-22.49,2.42,16.47-64.36,33.83-128.67,11.82-1.2,23.64-2.37Q350.4,1102.08,379.17,1161.9Zm-43.94-44.55q-11.09-23.85-22.31-47.65a57.37,57.37,0,0,1-2.45-7.61l-.35,0a49.4,49.4,0,0,1-1,7.94q-6.17,25.56-12.2,51.13Q316.08,1119.22,335.23,1117.35Z"/><path class="cls-5" d="M401.57,1159.89q-5.47-62-10.94-123.92,18.27-1.62,36.54-3.13c46.72-3.85,71.55,14.74,74.43,55,1.4,19.15-3.91,35-15.78,47.57s-28.46,19.71-49.85,21.49Q418.78,1158.37,401.57,1159.89ZM413,1051.62q3.81,44.55,7.6,89.11,8.25-.7,16.51-1.38c14.54-1.21,25.52-6.07,33-14.66s10.68-20.13,9.59-34.67c-2.18-29-18.58-42.39-49.19-39.88Z"/><path class="cls-5" d="M667.94,1141.71l-20.49,1q-2.07-40.2-4.13-80.4-.48-9.87,0-24.23l-.35,0a83,83,0,0,1-2.84,11.87q-16.44,47.4-32.36,94.9-7.12.4-14.23.83-21.36-45-43.22-89.8a85.61,85.61,0,0,1-4.15-12.16l-.35,0q1.17,7.41,2.3,24.28,2.61,40.08,5.24,80.16-9.54.63-19.09,1.28-4.23-62.05-8.47-124.11,14.79-1,29.6-2,19.3,40.27,38.21,80.65a121.61,121.61,0,0,1,5.72,13.92l.43,0c1.78-6.65,3.23-11.6,4.39-14.86q14.42-42.13,29.23-84.23,14.28-.75,28.57-1.44Q665,1079.58,667.94,1141.71Z"/><path class="cls-5" d="M725.12,1139.2q-10.64.42-21.27.88-2.65-62.14-5.33-124.29c7.23-.31,14.44-.61,21.67-.9Q722.65,1077.05,725.12,1139.2Z"/><path class="cls-5" d="M866.78,1135.08c-7.54.14-15.06.29-22.6.45q-30.75-45-62.32-89.82a40.29,40.29,0,0,1-4-7.08l-.52,0c.56,2.64.95,8.33,1.23,17.06l2.55,81.5-20,.66-4.26-124.33q12.25-.42,24.51-.8,30.66,43.71,60.56,87.7,3.78,5.47,4.88,7.53h.35q-1-4.92-1.23-16.72-.87-40.07-1.72-80.14,10.13-.21,20.27-.4Q865.62,1072.89,866.78,1135.08Z"/><path class="cls-5" d="M924.18,1134.26q-10.66.1-21.3.25-.82-62.21-1.63-124.39,10.85-.15,21.69-.25Q923.56,1072.06,924.18,1134.26Z"/><path class="cls-5" d="M954.43,1129.09l-.12-21.26a32.52,32.52,0,0,0,6.87,4.65,52.9,52.9,0,0,0,8.43,3.48,66.29,66.29,0,0,0,8.89,2.2,48.52,48.52,0,0,0,8.19.77c8.72,0,15.18-1.44,19.47-4.32a14.24,14.24,0,0,0,6.45-12.57,13.48,13.48,0,0,0-2.11-7.68,22.57,22.57,0,0,0-6-6,63.28,63.28,0,0,0-9.06-5.17c-3.47-1.65-7.17-3.37-11.16-5.16-4.26-2.25-8.28-4.53-11.94-6.83a51.63,51.63,0,0,1-9.63-7.65,31.89,31.89,0,0,1-6.47-9.47,30.35,30.35,0,0,1-2.39-12.39,28.14,28.14,0,0,1,3.93-15.25,33.16,33.16,0,0,1,10.57-10.71,48.51,48.51,0,0,1,15-6.28,71.56,71.56,0,0,1,17.17-2q19.93,0,29,4.52-.06,10.2-.11,20.39c-7.14-5.13-16.39-7.72-27.69-7.73a50.26,50.26,0,0,0-9.32.85,27.85,27.85,0,0,0-8.3,2.87,17.7,17.7,0,0,0-6,5.13,12.26,12.26,0,0,0-2.28,7.55,14.15,14.15,0,0,0,1.78,7.2,18.8,18.8,0,0,0,5.15,5.54,53.14,53.14,0,0,0,8.27,4.89c3.26,1.59,7,3.32,11.28,5.18,4.39,2.26,8.51,4.64,12.41,7.14a58.11,58.11,0,0,1,10.22,8.29,36.21,36.21,0,0,1,6.94,10.06,28.87,28.87,0,0,1,2.5,12.55c0,6.31-1.34,11.62-3.93,15.94a31.36,31.36,0,0,1-10.37,10.53,46.39,46.39,0,0,1-14.93,5.85,85.85,85.85,0,0,1-17.82,1.81,75.09,75.09,0,0,1-7.68-.48c-3.05-.31-6.15-.76-9.35-1.36a86.31,86.31,0,0,1-9.05-2.18A28.52,28.52,0,0,1,954.43,1129.09Z"/><path class="cls-5" d="M1144.81,1028.8q-18.19-.4-36.38-.73-.93,53.45-1.85,106.87-10.33-.18-20.68-.33.76-53.43,1.52-106.87-18.15-.26-36.29-.42c.06-5.84.1-11.68.16-17.52q47,.42,93.91,1.48Z"/><path class="cls-5" d="M1262.22,1139.44q-12.08-.5-24.15-.94-9.33-17-18.76-34a70.46,70.46,0,0,0-5-8,31.8,31.8,0,0,0-5.07-5.5,17.76,17.76,0,0,0-5.72-3.22,24.58,24.58,0,0,0-7.06-1.18l-8.41-.25-1.47,50.47q-10.3-.3-20.6-.57,1.63-62.18,3.26-124.36,20.88.54,41.77,1.22a61,61,0,0,1,16.39,2.63,38.43,38.43,0,0,1,12.86,6.75,29.23,29.23,0,0,1,8.3,10.82,32.35,32.35,0,0,1,2.57,14.81,36.1,36.1,0,0,1-2.44,12,31.78,31.78,0,0,1-6,9.58,34.26,34.26,0,0,1-9,7A44.15,44.15,0,0,1,1222,1081c0,.11,0,.23,0,.34a32.08,32.08,0,0,1,5.81,4.41c1.63,1.59,3.18,3.23,4.65,4.9a54.7,54.7,0,0,1,4.3,5.66c1.41,2.11,3,4.56,4.67,7.34Q1251.86,1121.52,1262.22,1139.44Zm-72.52-110.25q-.59,20.2-1.18,40.41,8.68.24,17.38.53a26.22,26.22,0,0,0,8.95-1.19,20.59,20.59,0,0,0,7.21-4,19.1,19.1,0,0,0,4.89-6.6,23.33,23.33,0,0,0,2-8.87q.32-8.94-5.24-14.16c-3.71-3.48-9.15-5.35-16.34-5.57Q1198.54,1029.45,1189.7,1029.19Z"/><path class="cls-5" d="M1384.34,1145.51l-22.65-1.29q-4.74-16.12-9.5-32.23-24.6-1.32-49.2-2.47-6.15,15.57-12.24,31.14-11.3-.51-22.58-1,25.89-61.17,52.65-122.15,11.85.57,23.7,1.19Q1364.86,1082.05,1384.34,1145.51Zm-36.76-50.62q-7.38-25.25-14.9-50.46a56.32,56.32,0,0,1-1.28-7.88l-.36,0a50.78,50.78,0,0,1-2.15,7.71q-9.92,24.35-19.7,48.72Q1328.39,1093.88,1347.58,1094.89Z"/><path class="cls-5" d="M1481.73,1044.8q-18.17-1.32-36.31-2.53-3.59,53.31-7.15,106.64-10.32-.69-20.65-1.35l6.81-106.66q-18.12-1.17-36.24-2.22.52-8.75,1-17.5,46.9,2.75,93.77,6.14Z"/><path class="cls-5" d="M1541.26,1158.69c-17.92-1.47-31.78-8.38-41.72-20.8s-14.25-27.88-12.88-46.46q2.21-29.92,20.26-46.5t46.94-14.2q26.69,2.2,41.41,21t12.12,46.65c-1.85,20.21-8.83,35.68-20.81,46.46S1559.49,1160.2,1541.26,1158.69Zm10-110q-17.35-1.43-29.22,10.44t-13.44,32.63q-1.58,20.67,7.89,34.11t26.3,14.83q17.89,1.47,29.27-9.63t13.33-32.71q2-22.2-7.13-35.19C1572.25,1054.53,1563.21,1049.7,1551.3,1048.71Z"/><path class="cls-5" d="M1725.59,1174.38q-12-1.34-24.06-2.61-8.13-17.62-16.38-35.23a70.25,70.25,0,0,0-4.46-8.35,31.71,31.71,0,0,0-4.68-5.84,17.91,17.91,0,0,0-5.49-3.61,24.32,24.32,0,0,0-7-1.66l-8.38-.84q-2.48,25.13-5,50.25-10.25-1-20.52-2,5.92-61.92,11.87-123.84,20.82,2,41.63,4.12a61,61,0,0,1,16.18,3.77,38.5,38.5,0,0,1,12.38,7.62,29.57,29.57,0,0,1,7.54,11.37,32.72,32.72,0,0,1,1.54,15,35.37,35.37,0,0,1-3.27,11.81,31.63,31.63,0,0,1-6.64,9.15,34.4,34.4,0,0,1-9.52,6.36,44.56,44.56,0,0,1-12,3.45l0,.35a31.43,31.43,0,0,1,5.49,4.8c1.53,1.7,3,3.44,4.3,5.21a57.32,57.32,0,0,1,3.9,6c1.29,2.2,2.64,4.75,4.17,7.65Q1716.48,1155.77,1725.59,1174.38Zm-64.79-115q-2,20.12-4,40.23c5.78.57,11.54,1.15,17.32,1.74a26.27,26.27,0,0,0,9-.56,20.62,20.62,0,0,0,7.48-3.5A19.6,19.6,0,0,0,1696,1091a23.48,23.48,0,0,0,2.59-8.71q.92-8.9-4.25-14.49c-3.48-3.73-8.77-6-15.93-6.7Z"/></svg>