<svg id="Layer_1" data-name="Layer 1" xmlns="http://www.w3.org/2000/svg" viewBox="0 0 2000 2000"><defs><style>.cls-1{fill:#002050;}.cls-2{fill:#505050;}.cls-3{fill:#0064b5;}.cls-4{fill:#fff;}.cls-5{fill:#282828;}</style></defs><path class="cls-1" d="M1000,10a149.2,149.2,0,0,0-43.11,6.36L398.14,185A142.38,142.38,0,0,0,296.3,322.13v949.14c0,242.84,82.05,327.38,239.29,467.71,153.69,137.16,428.51,238,440.14,242.2L1000,1990l24.27-8.82c11.63-4.23,286.45-105,440.14-242.2,157.24-140.33,239.29-224.87,239.29-467.71V322.13A142.38,142.38,0,0,0,1601.86,185L1043.11,16.36A149.2,149.2,0,0,0,1000,10Z"/><path class="cls-2" d="M1581.33,253.07,1022.56,84.4a78.54,78.54,0,0,0-45.12,0L418.67,253.07a72.13,72.13,0,0,0-51.28,69.05V999.57H1632.61V322.12A72.13,72.13,0,0,0,1581.33,253.07Z"/><path class="cls-3" d="M367.39,1271.28c0,214,64.55,279.94,215.51,414.67,145.27,129.64,417.1,228.42,417.1,228.42s271.83-98.78,417.1-228.42c151-134.73,215.51-200.7,215.51-414.67V999.57H367.39Z"/><path class="cls-2" d="M1000,656.84c-300.5,0-593.32,25.46-870.34,75.68A102.73,102.73,0,0,0,47.27,854.08c25.46,125.27,54.59,278.35,74.23,390a113.27,113.27,0,0,0,111.74,93.78,114.58,114.58,0,0,0,23.46-2.44C354,1315,621.31,1267.58,1000,1267.58s646,47.43,743.31,67.82a114.42,114.42,0,0,0,23.45,2.44,113.27,113.27,0,0,0,111.74-93.78c19.64-111.64,48.77-264.72,74.23-390a102.73,102.73,0,0,0-82.39-121.56c-277-50.22-569.84-75.68-870.34-75.68Z"/><path class="cls-4" d="M1000,1230.27c315.15,0,582.57,33.34,751,68.61a76.19,76.19,0,0,0,90.8-61.28c20.68-117.62,50.24-272,74.41-390.95a65.42,65.42,0,0,0-52.49-77.42c-166.56-30.2-465-75.08-863.68-75.08h0c-398.71,0-697.12,44.88-863.68,75.08a65.42,65.42,0,0,0-52.49,77.42C108,965.58,137.56,1120,158.24,1237.6a76.19,76.19,0,0,0,90.8,61.28c168.39-35.27,435.81-68.61,751-68.61Z"/><path class="cls-4" d="M788.23,400.57H764.69V337.25q0-10.26.88-22.66H765a112.2,112.2,0,0,1-3.31,14l-24.8,72H717.38l-25.24-71.22q-1-2.88-3.32-14.76h-.66q.95,15.66,1,27.46v58.52H667.64V294.74h34.91l21.62,62.73a89,89,0,0,1,3.77,15.13h.44a152.11,152.11,0,0,1,4.21-15.28l21.62-62.58h34Z"/><path class="cls-4" d="M820.3,313a13.6,13.6,0,0,1-9.67-3.5,11.29,11.29,0,0,1-3.76-8.6,10.9,10.9,0,0,1,3.76-8.56,15.79,15.79,0,0,1,19.37,0,10.94,10.94,0,0,1,3.73,8.56,11.22,11.22,0,0,1-3.73,8.71A13.84,13.84,0,0,1,820.3,313Zm11.51,87.53H808.49V325h23.32Z"/><path class="cls-4" d="M907.2,397.84q-7.89,4.57-22.8,4.58-17.42,0-28.19-10.56t-10.78-27.23q0-19.26,11.55-30.37t30.89-11.11q13.35,0,19.33,3.55v19.78A26.6,26.6,0,0,0,890.89,341q-10,0-15.9,5.87t-5.87,16.2q0,10,5.61,15.76t15.43,5.72a30.78,30.78,0,0,0,17-5.46Z"/><path class="cls-4" d="M970.27,346a20.32,20.32,0,0,0-9.82-2.29,14.16,14.16,0,0,0-11.88,5.58q-4.27,5.56-4.28,15.16v36.09H921V325h23.33v14h.29q5.53-15.34,19.93-15.35a14.85,14.85,0,0,1,5.76.89Z"/><path class="cls-4" d="M1015.62,402.42q-18.9,0-29.71-10.59T975.1,363.08q0-18.74,11.22-29.34t30.33-10.59q18.81,0,29.52,10.59t10.7,28q0,18.83-11,29.75T1015.62,402.42Zm.59-61.41q-8.26,0-12.84,5.69t-4.58,16.09q0,21.76,17.57,21.77,16.74,0,16.75-22.36Q1033.11,341,1016.21,341Z"/><path class="cls-4" d="M1065.54,398.58V379.69a49.78,49.78,0,0,0,11.48,5.16,37.76,37.76,0,0,0,10.81,1.7c4.14,0,7.39-.56,9.78-1.7s3.58-2.85,3.58-5.16a4.77,4.77,0,0,0-1.62-3.69,15.08,15.08,0,0,0-4.17-2.59,49.38,49.38,0,0,0-5.57-2c-2-.59-4-1.25-5.84-2a56.24,56.24,0,0,1-7.93-3.65,23.11,23.11,0,0,1-5.76-4.54,17.92,17.92,0,0,1-3.54-6,23.92,23.92,0,0,1-1.22-8.05,20.77,20.77,0,0,1,2.77-10.92,22.67,22.67,0,0,1,7.38-7.49,33.79,33.79,0,0,1,10.56-4.28,55,55,0,0,1,12.36-1.37,68,68,0,0,1,10.18.78,76,76,0,0,1,10.19,2.25v18a37.23,37.23,0,0,0-9.49-3.88,40,40,0,0,0-9.92-1.29,22,22,0,0,0-4.32.41,13.93,13.93,0,0,0-3.58,1.18,6.64,6.64,0,0,0-2.44,2,4.57,4.57,0,0,0-.88,2.77,5.09,5.09,0,0,0,1.33,3.54,11.29,11.29,0,0,0,3.47,2.55,34.67,34.67,0,0,0,4.76,1.92c1.74.57,3.48,1.14,5.2,1.73a67.14,67.14,0,0,1,8.41,3.54,27.06,27.06,0,0,1,6.46,4.5,17.66,17.66,0,0,1,4.13,6.06,24.23,24.23,0,0,1-1.47,19.74,23.44,23.44,0,0,1-7.75,7.75,35.17,35.17,0,0,1-11.15,4.35,61.73,61.73,0,0,1-13.1,1.37A67.54,67.54,0,0,1,1065.54,398.58Z"/><path class="cls-4" d="M1171.49,402.42q-18.88,0-29.7-10.59T1131,363.08q0-18.74,11.21-29.34t30.34-10.59q18.81,0,29.51,10.59t10.71,28q0,18.83-11,29.75T1171.49,402.42Zm.6-61.41q-8.28,0-12.85,5.69t-4.57,16.09q0,21.76,17.56,21.77,16.76,0,16.75-22.36Q1189,341,1172.09,341Z"/><path class="cls-4" d="M1275.66,306.55a23.52,23.52,0,0,0-8.63-1.77q-11.22,0-11.22,12.17V325h17.27v17.19h-17.27v58.38h-23.25V342.19h-12.69V325h12.69v-9.38q0-12.9,8.42-20.8t22.88-7.9a39.93,39.93,0,0,1,11.8,1.48Z"/><path class="cls-4" d="M1328.47,399.69q-5.16,2.73-15.57,2.73-24.66,0-24.65-25.61V342.19H1276V325h12.25V308.69L1311.5,302v23h17v17.19h-17v30.56q0,11.81,9.37,11.81a15.77,15.77,0,0,0,7.6-2.14Z"/><path class="cls-4" d="M728.5,544.69q-9,4.77-22.49,4.77-17.38,0-27.85-11.19t-10.45-29.38q0-19.54,11.76-31.59t29.83-12.05q11.6,0,19.2,3.36v10.17a38.9,38.9,0,0,0-19.31-4.89q-14,0-22.76,9.38t-8.72,25.05q0,14.9,8.15,23.73t21.39,8.83q12.29,0,21.25-5.46Z"/><path class="cls-4" d="M808.06,548.09H764.88V466.62h41.36v8.63H774.42v27.11h29.44v8.58H774.42v28.52h33.64Z"/><path class="cls-4" d="M901.93,548.09H890.57l-13.64-22.83a49,49,0,0,0-3.63-5.43,21,21,0,0,0-3.61-3.67,12.73,12.73,0,0,0-4-2.07,16.19,16.19,0,0,0-4.8-.66h-7.84v34.66h-9.55V466.62h24.32A34.73,34.73,0,0,1,877.7,468a22,22,0,0,1,7.84,4.07,18.84,18.84,0,0,1,5.2,6.79,22.51,22.51,0,0,1,1.87,9.51,23,23,0,0,1-1.27,7.82,20.4,20.4,0,0,1-3.64,6.33,22.27,22.27,0,0,1-5.68,4.75,29,29,0,0,1-7.47,3v.24a17,17,0,0,1,3.55,2.07,19.42,19.42,0,0,1,2.87,2.75,38.53,38.53,0,0,1,2.7,3.61c.88,1.34,1.88,2.91,3,4.69Zm-48.86-72.84V504.8H866a19.64,19.64,0,0,0,6.62-1.08,15.13,15.13,0,0,0,5.25-3.1,13.8,13.8,0,0,0,3.47-4.94,16.43,16.43,0,0,0,1.25-6.56q0-6.53-4.23-10.2t-12.24-3.67Z"/><path class="cls-4" d="M975.86,475.25H952.34v72.84h-9.55V475.25H919.33v-8.63h56.53Z"/><path class="cls-4" d="M1018,548.09h-9.54V466.62H1018Z"/><path class="cls-4" d="M1100.53,475.25h-31.82v28.19h29.43V512h-29.43v36.07h-9.54V466.62h41.36Z"/><path class="cls-4" d="M1145.31,548.09h-9.54V466.62h9.54Z"/><path class="cls-4" d="M1229.7,548.09h-43.18V466.62h41.36v8.63h-31.82v27.11h29.44v8.58h-29.44v28.52h33.64Z"/><path class="cls-4" d="M1265.16,548.09V466.62h22.5q43.08,0,43.07,39.71,0,18.87-12,30.32t-32,11.44Zm9.55-72.84v64.21h12.16q16,0,24.94-8.58t8.92-24.32q0-31.31-33.29-31.31Z"/><path class="cls-4" d="M697.33,1454.91q-11.21.67-22.39,1.4-3.9-9.91-7.83-19.82-16.27,1.08-32.55,2.26-2.49,10.35-4.95,20.71-11.13.82-22.24,1.7,13-46.77,26.62-93.49,12.4-.89,24.81-1.72Q678.36,1410.35,697.33,1454.91Zm-36-33.85q-6-15-12-29.92a38,38,0,0,1-2.11-8.08l-.52,0a34.07,34.07,0,0,1-1.06,8q-4,15.78-7.84,31.56Q649.58,1421.85,661.33,1421.06Z"/><path class="cls-4" d="M716,1450.31q-.59-10.17-1.15-20.33a39.72,39.72,0,0,0,25.72,7.92,29.44,29.44,0,0,0,6.76-1.05,16.18,16.18,0,0,0,4.76-2.17,8.47,8.47,0,0,0,2.76-3.07,7.16,7.16,0,0,0,.79-3.7,7.88,7.88,0,0,0-1.77-4.69,16.4,16.4,0,0,0-4.38-3.67,43.31,43.31,0,0,0-6.49-3.12c-2.49-1-5.18-2-8.06-3-7.33-2.59-12.9-5.91-16.66-10a23.62,23.62,0,0,1-6.18-15.21,23.41,23.41,0,0,1,9.67-21.24,35.87,35.87,0,0,1,11.37-5.48,60,60,0,0,1,13.92-2.27,83.78,83.78,0,0,1,12.9.25,50,50,0,0,1,10.46,2.16q.43,9.49.85,19a32.16,32.16,0,0,0-5.19-2.57,41.88,41.88,0,0,0-5.75-1.73,42.85,42.85,0,0,0-5.84-.91,40.59,40.59,0,0,0-5.47-.11,28.07,28.07,0,0,0-6.43,1,16.72,16.72,0,0,0-4.81,2.12,9.28,9.28,0,0,0-3,3,6.67,6.67,0,0,0-.9,3.84,7.14,7.14,0,0,0,1.44,4,13.81,13.81,0,0,0,3.65,3.25,38.54,38.54,0,0,0,5.63,2.9c2.2.93,4.68,1.89,7.43,2.85a79.62,79.62,0,0,1,10.16,4.39,34.71,34.71,0,0,1,7.82,5.46,22.61,22.61,0,0,1,5.14,7.2A29.49,29.49,0,0,1,775,1438a23.84,23.84,0,0,1-7.5,8.75,34.5,34.5,0,0,1-11.34,5.15,68,68,0,0,1-13.83,2.09,79.44,79.44,0,0,1-14.34-.52A43,43,0,0,1,716,1450.31Z"/><path class="cls-4" d="M800.88,1446.24q-.4-10.17-.8-20.34a39.67,39.67,0,0,0,25.57,8.35,29.51,29.51,0,0,0,6.78-.93,15.85,15.85,0,0,0,4.79-2.09,8.47,8.47,0,0,0,2.82-3,7.32,7.32,0,0,0,.85-3.69,7.92,7.92,0,0,0-1.69-4.72,16.45,16.45,0,0,0-4.32-3.74,43.53,43.53,0,0,0-6.42-3.23c-2.48-1-5.15-2-8-3.1q-11-4.07-16.49-10.28a23.5,23.5,0,0,1-5.91-15.3,23.35,23.35,0,0,1,10-21.08,36,36,0,0,1,11.45-5.28,60.4,60.4,0,0,1,14-2,84.05,84.05,0,0,1,12.9.47,50.83,50.83,0,0,1,10.42,2.34q.26,9.5.52,19a32.75,32.75,0,0,0-5.14-2.66,40.51,40.51,0,0,0-5.72-1.83,41.21,41.21,0,0,0-5.82-1,39.63,39.63,0,0,0-5.47-.21,28.47,28.47,0,0,0-6.45.88,16.82,16.82,0,0,0-4.85,2,9.66,9.66,0,0,0-3,3,6.76,6.76,0,0,0-1,3.82,7.14,7.14,0,0,0,1.36,4.06,14,14,0,0,0,3.6,3.31,37.51,37.51,0,0,0,5.58,3c2.18,1,4.64,2,7.38,3a80,80,0,0,1,10.08,4.56,35.07,35.07,0,0,1,7.72,5.6,22.65,22.65,0,0,1,5,7.28A29.38,29.38,0,0,1,860,1435a23.55,23.55,0,0,1-7.64,8.61,34.26,34.26,0,0,1-11.42,5,68,68,0,0,1-13.86,1.85,78.69,78.69,0,0,1-14.33-.76A43.31,43.31,0,0,1,800.88,1446.24Z"/><path class="cls-4" d="M928.65,1448c-13.08.18-23.79-3.87-32.22-12.21s-12.82-19.32-13.12-33q-.49-21.62,12-35.25t33.6-13.92q19.92-.27,32.3,12.46t12.41,33.65q.1,21.49-12.39,34.74T928.65,1448Zm-.14-76.66c-7.33.09-13.11,2.9-17.31,8.37s-6.23,12.68-6.07,21.58,2.43,16.14,6.79,21.33a20.59,20.59,0,0,0,16.87,7.63q10.66-.14,16.85-7.86t6.09-21.34q-.13-14.19-6.33-22T928.51,1371.29Z"/><path class="cls-4" d="M1066.19,1443.17c-6.71,3.13-15.44,4.62-26.17,4.53-14-.13-25-4.28-33-12.53s-12.06-19.2-12.06-32.9c0-14.59,4.54-26.43,13.75-35.48s21.14-13.54,35.81-13.4q13.62.13,22.92,3.65-.15,9.89-.28,19.78a40.78,40.78,0,0,0-21.13-5.73c-8.71-.09-15.77,2.56-21.12,7.91s-8.06,12.65-8.1,21.85q0,13.23,7.39,21.13c5,5.27,11.65,7.93,20.09,8a43.44,43.44,0,0,0,22.19-5.59Z"/><path class="cls-4" d="M1114.37,1447.33q-10.29-.24-20.57-.45.9-45.6,1.81-91.21,10.47.21,21,.46Z"/><path class="cls-4" d="M1227.13,1451.33q-11.2-.52-22.41-1-2.81-10.27-5.66-20.55-16.29-.66-32.59-1.23-3.59,10-7.13,20.07-11.14-.37-22.28-.69,17.91-45.12,36.45-90.11,12.42.43,24.83.94Q1213,1405,1227.13,1451.33Zm-32.17-37.5q-4.32-15.52-8.7-31a39.07,39.07,0,0,1-1.24-8.26l-.52,0a34.65,34.65,0,0,1-1.91,7.89q-5.61,15.25-11.16,30.53Q1183.21,1413.36,1195,1413.83Z"/><path class="cls-4" d="M1309.86,1381.25q-13.2-.82-26.41-1.58l-4.26,74.37q-10.31-.58-20.62-1.14l4-74.39q-13.14-.71-26.28-1.33.39-8.36.8-16.71,36.95,1.77,73.86,4.08Z"/><path class="cls-4" d="M1383.86,1461.16q-27.33-2.15-54.67-4l6.15-91q26.78,1.81,53.54,3.91-.66,8.34-1.31,16.68-16.24-1.27-32.51-2.44-.74,10.13-1.45,20.24,15.06,1.08,30.13,2.26l-1.29,16.61q-15-1.15-30-2.24-.75,10.39-1.49,20.81,17.11,1.23,34.24,2.58Q1384.52,1452.86,1383.86,1461.16Z"/><polygon class="cls-4" points="858.58 1519.13 887.24 1607.31 979.96 1607.31 904.94 1661.81 933.6 1750 858.58 1695.49 783.57 1750 812.22 1661.81 737.21 1607.31 829.93 1607.31 858.58 1519.13"/><polygon class="cls-4" points="1140.51 1519.13 1169.16 1607.31 1261.88 1607.31 1186.87 1661.81 1215.52 1750 1140.51 1695.49 1065.49 1750 1094.14 1661.81 1019.13 1607.31 1111.85 1607.31 1140.51 1519.13"/><path class="cls-5" d="M824.12,920q-11.72.33-23.41.69-6.29-15.65-12.61-31.28-25.41.83-50.82,1.86-4.95,16.05-9.84,32.1-11.66.5-23.31,1,21.21-63.24,43.37-126.34,12.24-.48,24.5-.9Q798.52,858.49,824.12,920Zm-42.26-47.23Q772,848.3,762.07,823.83a57.8,57.8,0,0,1-2-7.74h-.37a48.25,48.25,0,0,1-1.53,7.87q-8.05,25.13-16,50.27Q762,873.45,781.86,872.78Z"/><path class="cls-5" d="M934.06,802.57q-35.4,49.33-69.72,99,34.89-.72,69.8-1.08l.18,17.43q-49.76.51-99.49,1.78l-.24-9.45q34.18-49.6,69.46-98.84-33.19.49-66.39,1.31-.23-8.76-.44-17.52Q885.6,794,934,793.55Z"/><path class="cls-5" d="M1056.55,867.56c-.34,35-17.59,52.19-51.76,52.15-32.74,0-49.24-16.64-49.5-50.26q-.25-38-.52-76.08l21.77-.11q.12,35.91.25,71.83c.1,24.41,10,36.56,29.63,36.57,18.94,0,28.48-11.67,28.62-35.21q.2-36.57.4-73.13,10.88.06,21.76.16Q1056.87,830.51,1056.55,867.56Z"/><path class="cls-5" d="M1187.58,920.37q-12.48-.36-24.94-.68-9.84-16.91-19.8-33.79a69.67,69.67,0,0,0-5.29-8,32.11,32.11,0,0,0-5.31-5.45,18.43,18.43,0,0,0-6-3.15,25.79,25.79,0,0,0-7.3-1.1l-8.68-.15q-.43,25.24-.86,50.48l-21.27-.33q.87-62.19,1.72-124.39,21.57.3,43.16.74a65,65,0,0,1,17,2.45,40.23,40.23,0,0,1,13.37,6.61,29.68,29.68,0,0,1,8.71,10.72,31.7,31.7,0,0,1,2.85,14.79,34.54,34.54,0,0,1-2.37,12,31.47,31.47,0,0,1-6.06,9.65,35.65,35.65,0,0,1-9.24,7.11,47.18,47.18,0,0,1-12,4.4c0,.12,0,.23,0,.35a33.23,33.23,0,0,1,6.06,4.34c1.71,1.58,3.33,3.19,4.86,4.85a56.45,56.45,0,0,1,4.51,5.62q2.23,3.13,4.92,7.28Q1176.66,902.57,1187.58,920.37Zm-76.3-109.45-.69,40.42q9,.15,18,.33a27.72,27.72,0,0,0,9.23-1.28,21.44,21.44,0,0,0,7.4-4.1,19.31,19.31,0,0,0,5-6.65,22.38,22.38,0,0,0,1.94-8.89c.13-6-1.72-10.66-5.6-14.1s-9.53-5.25-16.94-5.39C1123.44,811.14,1117.37,811,1111.28,810.92Z"/><path class="cls-5" d="M1276.58,923.59q-36.09-1.56-72.19-2.71l4-124.33q35.34,1.13,70.66,2.63l-.75,17.51q-24.39-1.05-48.77-1.9-.62,17.6-1.24,35.2,22.35.78,44.7,1.72-.36,8.71-.73,17.43-22.29-.95-44.58-1.73l-1.29,36.76q25.49.9,51,2Z"/><path class="cls-5" d="M315.64,1156.62,302,1033q18.27-2,36.54-3.93c46.73-4.86,72,13.22,75.68,53.44q2.67,28.68-14.81,47.9c-11.62,12.83-28.06,20.3-49.41,22.54Q332.82,1154.72,315.64,1156.62Zm9.13-108.5q4.75,44.46,9.52,88.93l16.49-1.75Q372.56,1133,383.5,1120t8.88-34.87c-2.78-28.94-19.49-42-50.09-38.82Z"/><path class="cls-5" d="M547.51,1135.39q-11.31.83-22.63,1.69-6.79-15.36-13.66-30.7-24.57,1.92-49.14,4-4.05,16.24-8,32.49-11.26,1-22.53,2,17.6-64.08,36.13-128.05l23.7-2Q519.88,1075,547.51,1135.39ZM504.41,1090Q493.76,1066,483,1042a58.12,58.12,0,0,1-2.31-7.64l-.35,0a50.28,50.28,0,0,1-1.12,7.93q-6.65,25.44-13.14,50.89Q485.22,1091.54,504.41,1090Z"/><path class="cls-5" d="M631,1022.82q-18.18,1.06-36.37,2.23,3.42,53.33,6.83,106.66-10.32.66-20.65,1.35-3.59-53.31-7.18-106.63-18.14,1.21-36.27,2.54-.63-8.73-1.28-17.47,46.94-3.43,93.91-6.17Q630.47,1014.08,631,1022.82Z"/><path class="cls-5" d="M750.11,1124q-11.34.45-22.67,1-6.29-15.57-12.64-31.13-24.62,1.13-49.22,2.43-4.58,16.11-9.08,32.21-11.28.61-22.57,1.28,19.65-63.46,40.25-126.8,11.87-.61,23.74-1.17Q724.47,1062.75,750.11,1124Zm-41.59-46.74q-9.85-24.37-19.85-48.73a57.18,57.18,0,0,1-2.06-7.72l-.36,0a51,51,0,0,1-1.37,7.89q-7.46,25.21-14.78,50.44Q689.32,1078.13,708.52,1077.23Z"/><path class="cls-5" d="M820.93,1116.59q-.3-10.62-.61-21.24a33.51,33.51,0,0,0,7,4.49,54.17,54.17,0,0,0,8.51,3.28,66.69,66.69,0,0,0,8.94,2,47.53,47.53,0,0,0,8.21.58q13.06-.3,19.38-4.76t6.16-12.71a13.59,13.59,0,0,0-2.29-7.63,22.35,22.35,0,0,0-6.11-5.82,61.77,61.77,0,0,0-9.18-5q-5.25-2.37-11.29-4.9-6.46-3.23-12.1-6.56a51.61,51.61,0,0,1-9.81-7.42,32.33,32.33,0,0,1-6.69-9.31,30.73,30.73,0,0,1-2.69-12.34,28.15,28.15,0,0,1,3.59-15.33,33.15,33.15,0,0,1,10.33-11,48.64,48.64,0,0,1,14.85-6.62,72.5,72.5,0,0,1,17.15-2.43q19.95-.42,29.16,3.88.17,10.19.34,20.38-10.9-7.46-27.9-7.11a51.18,51.18,0,0,0-9.3,1.07,27.72,27.72,0,0,0-8.24,3.06,17.58,17.58,0,0,0-5.84,5.26,12.33,12.33,0,0,0-2.11,7.6,14.11,14.11,0,0,0,1.94,7.15,18.72,18.72,0,0,0,5.29,5.43,53.73,53.73,0,0,0,8.38,4.7q4.95,2.28,11.41,4.92,6.66,3.24,12.57,6.86a57.87,57.87,0,0,1,10.42,8.06,36.22,36.22,0,0,1,7.18,9.89,29.3,29.3,0,0,1,2.77,12.5q.15,9.45-3.58,16a31,31,0,0,1-10.13,10.76,46.2,46.2,0,0,1-14.8,6.19,85.54,85.54,0,0,1-17.77,2.21,74.72,74.72,0,0,1-7.69-.3c-3.06-.24-6.17-.62-9.38-1.15a86.65,86.65,0,0,1-9.1-2A28.82,28.82,0,0,1,820.93,1116.59Z"/><path class="cls-5" d="M1016,1113.79q-14.12,7.26-35,7.3-27.09.08-43.61-16.81t-16.94-44.66c-.25-19.9,5.74-36.06,18.09-48.44s28.13-18.63,47.22-18.67q18.45,0,30.58,5.13l-.06,20.47a54.68,54.68,0,0,0-28.27-7.47q-20.61,0-33.29,13.07t-12.44,34.63q.19,20.57,12.09,32.65t31,12q17.67,0,30.69-8.32Q1016,1104.25,1016,1113.79Z"/><path class="cls-5" d="M1066.13,1119.33q-10.65-.11-21.29-.19.45-62.19.91-124.4,10.85.09,21.71.2Q1066.8,1057.15,1066.13,1119.33Z"/><path class="cls-5" d="M1172.1,1121.37q-35-1-69.95-1.55,1-62.19,2-124.38,34.26.55,68.51,1.5-.24,8.76-.47,17.51-23.65-.65-47.29-1.11-.35,17.61-.7,35.22,21.68.42,43.33,1-.22,8.71-.46,17.43-21.6-.57-43.21-1-.36,18.39-.73,36.77,24.71.49,49.41,1.18Q1172.35,1112.66,1172.1,1121.37Z"/><path class="cls-5" d="M1305.21,1126.48q-11.28-.56-22.58-1.07-27.66-47-56.21-93.8a40.15,40.15,0,0,1-3.54-7.33l-.53,0c.37,2.68.42,8.38.1,17.11l-2.88,81.49q-10-.34-20-.67,2-62.18,4-124.34,12.27.4,24.54.84,27.72,45.66,54.61,91.56,3.42,5.7,4.37,7.84h.35q-.64-5-.11-16.76,1.85-40,3.68-80.08,10.14.47,20.28,1Q1308.26,1064.35,1305.21,1126.48Z"/><path class="cls-5" d="M1428.45,1026.63q-18.18-1.23-36.37-2.36-3.3,53.32-6.61,106.67-10.34-.64-20.66-1.25,3.14-53.34,6.26-106.69-18.13-1.07-36.29-2l.93-17.5q47,2.49,93.92,5.67Q1429,1017.89,1428.45,1026.63Z"/><path class="cls-5" d="M1465.93,1136.45q-10.62-.79-21.25-1.55,4.44-62.06,8.89-124.09,10.83.78,21.67,1.59Q1470.59,1074.43,1465.93,1136.45Z"/><path class="cls-5" d="M1496.54,1133.87q.84-10.61,1.69-21.19a33.68,33.68,0,0,0,6.45,5.22,53.43,53.43,0,0,0,8.11,4.18,67.94,67.94,0,0,0,8.69,3,49.48,49.48,0,0,0,8.1,1.47q13,1.11,19.79-2.64t7.51-12a13.65,13.65,0,0,0-1.44-7.84,22.32,22.32,0,0,0-5.46-6.45,63.15,63.15,0,0,0-8.59-5.93c-3.33-2-6.89-4-10.71-6.1q-6.09-3.91-11.32-7.82a52.33,52.33,0,0,1-9-8.45,32.18,32.18,0,0,1-5.64-10,30.49,30.49,0,0,1-1.34-12.55,28.16,28.16,0,0,1,5.22-14.86,33.48,33.48,0,0,1,11.46-9.77,49.14,49.14,0,0,1,15.5-5,72.19,72.19,0,0,1,17.33-.55q19.89,1.74,28.59,7l-1.86,20.3q-10.05-8.6-27-10.09a50.69,50.69,0,0,0-9.38.06,28,28,0,0,0-8.53,2.14,18,18,0,0,0-6.38,4.6,12.35,12.35,0,0,0-2.91,7.33,14.14,14.14,0,0,0,1.15,7.32,18.92,18.92,0,0,0,4.68,6,52.47,52.47,0,0,0,7.83,5.58q4.68,2.79,10.82,6.12,6.29,3.94,11.77,8.19a58.09,58.09,0,0,1,9.48,9.13,35.85,35.85,0,0,1,6.07,10.62,29.16,29.16,0,0,1,1.42,12.72q-.87,9.42-5.3,15.54a31.07,31.07,0,0,1-11.24,9.6,46.44,46.44,0,0,1-15.4,4.55,86,86,0,0,1-17.92.27,75.4,75.4,0,0,1-7.63-1.12c-3-.58-6.06-1.3-9.2-2.16a89.76,89.76,0,0,1-8.84-2.94A29.28,29.28,0,0,1,1496.54,1133.87Z"/><path class="cls-5" d="M1695.18,1050.38q-18.14-2-36.27-3.89-5.57,53.15-11.12,106.29-10.29-1.08-20.6-2.12,5.38-53.16,10.76-106.33-18.09-1.83-36.2-3.56.84-8.73,1.67-17.45,46.86,4.48,93.68,9.65Z"/></svg>