<svg id="Layer_1" data-name="Layer 1" xmlns="http://www.w3.org/2000/svg" viewBox="0 0 2000 2000"><defs><style>.cls-1{fill:#002050;}.cls-2{fill:#505050;}.cls-3{fill:#0064b5;}.cls-4{fill:#fff;}.cls-5{fill:#282828;}</style></defs><path class="cls-1" d="M1000,10a149.2,149.2,0,0,0-43.11,6.36L398.14,185A142.38,142.38,0,0,0,296.3,322.13v949.14c0,242.84,82.05,327.38,239.29,467.71,153.69,137.16,428.51,238,440.14,242.2L1000,1990l24.27-8.82c11.63-4.23,286.45-105,440.14-242.2,157.24-140.33,239.29-224.87,239.29-467.71V322.13A142.38,142.38,0,0,0,1601.86,185L1043.11,16.36A149.2,149.2,0,0,0,1000,10Z"/><path class="cls-2" d="M1581.33,253.07,1022.56,84.4a78.54,78.54,0,0,0-45.12,0L418.67,253.07a72.13,72.13,0,0,0-51.28,69.05V999.57H1632.61V322.12A72.13,72.13,0,0,0,1581.33,253.07Z"/><path class="cls-3" d="M367.39,1271.28c0,214,64.55,279.94,215.51,414.67,145.27,129.64,417.1,228.42,417.1,228.42s271.83-98.78,417.1-228.42c151-134.73,215.51-200.7,215.51-414.67V999.57H367.39Z"/><path class="cls-2" d="M1000,656.84c-300.5,0-593.32,25.46-870.34,75.68A102.73,102.73,0,0,0,47.27,854.08c25.46,125.27,54.59,278.35,74.23,390a113.27,113.27,0,0,0,111.74,93.78,114.58,114.58,0,0,0,23.46-2.44C354,1315,621.31,1267.58,1000,1267.58s646,47.43,743.31,67.82a114.42,114.42,0,0,0,23.45,2.44,113.27,113.27,0,0,0,111.74-93.78c19.64-111.64,48.77-264.72,74.23-390a102.73,102.73,0,0,0-82.39-121.56c-277-50.22-569.84-75.68-870.34-75.68Z"/><path class="cls-4" d="M1000,1230.27c315.15,0,582.57,33.34,751,68.61a76.19,76.19,0,0,0,90.8-61.28c20.68-117.62,50.24-272,74.41-390.95a65.42,65.42,0,0,0-52.49-77.42c-166.56-30.2-465-75.08-863.68-75.08h0c-398.71,0-697.12,44.88-863.68,75.08a65.42,65.42,0,0,0-52.49,77.42C108,965.58,137.56,1120,158.24,1237.6a76.19,76.19,0,0,0,90.8,61.28c168.39-35.27,435.81-68.61,751-68.61Z"/><path class="cls-4" d="M788.23,400.57H764.69V337.25q0-10.26.88-22.66H765a110,110,0,0,1-3.32,14l-24.79,72H717.38l-25.24-71.22q-1-2.88-3.32-14.76h-.66q1,15.66,1,27.46v58.52H667.64V294.74h34.91l21.62,62.73a89,89,0,0,1,3.77,15.13h.44a152.11,152.11,0,0,1,4.21-15.28l21.62-62.58h34Z"/><path class="cls-4" d="M820.3,313a13.6,13.6,0,0,1-9.67-3.5,11.29,11.29,0,0,1-3.76-8.6,10.9,10.9,0,0,1,3.76-8.56,15.8,15.8,0,0,1,19.38,0,11,11,0,0,1,3.72,8.56,11.25,11.25,0,0,1-3.72,8.71A13.88,13.88,0,0,1,820.3,313Zm11.51,87.53H808.49V325h23.32Z"/><path class="cls-4" d="M907.2,397.84q-7.89,4.57-22.8,4.58-17.43,0-28.19-10.56t-10.78-27.23q0-19.26,11.55-30.37t30.89-11.11q13.35,0,19.33,3.55v19.78A26.58,26.58,0,0,0,890.89,341q-10,0-15.9,5.87t-5.87,16.2q0,10,5.61,15.76t15.43,5.72a30.78,30.78,0,0,0,17-5.46Z"/><path class="cls-4" d="M970.27,346a20.32,20.32,0,0,0-9.82-2.29,14.15,14.15,0,0,0-11.88,5.58q-4.27,5.56-4.28,15.16v36.09H921V325h23.32v14h.29q5.53-15.34,19.93-15.35a14.85,14.85,0,0,1,5.76.89Z"/><path class="cls-4" d="M1015.62,402.42q-18.9,0-29.71-10.59T975.1,363.08q0-18.74,11.22-29.34t30.33-10.59q18.81,0,29.52,10.59t10.7,28q0,18.83-11,29.75T1015.62,402.42Zm.59-61.41q-8.26,0-12.84,5.69t-4.58,16.09q0,21.76,17.57,21.77,16.74,0,16.75-22.36Q1033.11,341,1016.21,341Z"/><path class="cls-4" d="M1065.54,398.58V379.69a49.78,49.78,0,0,0,11.48,5.16,37.76,37.76,0,0,0,10.81,1.7c4.14,0,7.39-.56,9.78-1.7s3.58-2.85,3.58-5.16a4.77,4.77,0,0,0-1.62-3.69,15.08,15.08,0,0,0-4.17-2.59,49.38,49.38,0,0,0-5.57-2c-2-.59-4-1.25-5.84-2a56.24,56.24,0,0,1-7.93-3.65,23.11,23.11,0,0,1-5.76-4.54,17.92,17.92,0,0,1-3.54-6,23.92,23.92,0,0,1-1.22-8.05,20.77,20.77,0,0,1,2.77-10.92,22.67,22.67,0,0,1,7.38-7.49,33.79,33.79,0,0,1,10.56-4.28,55,55,0,0,1,12.36-1.37,68,68,0,0,1,10.18.78,76,76,0,0,1,10.19,2.25v18a37.23,37.23,0,0,0-9.49-3.88,40,40,0,0,0-9.92-1.29,22,22,0,0,0-4.32.41,13.93,13.93,0,0,0-3.58,1.18,6.64,6.64,0,0,0-2.44,2,4.57,4.57,0,0,0-.88,2.77,5.09,5.09,0,0,0,1.33,3.54,11.29,11.29,0,0,0,3.47,2.55,34.67,34.67,0,0,0,4.76,1.92c1.74.57,3.48,1.14,5.2,1.73a67.14,67.14,0,0,1,8.41,3.54,27.06,27.06,0,0,1,6.46,4.5,17.66,17.66,0,0,1,4.13,6.06,24.23,24.23,0,0,1-1.47,19.74,23.44,23.44,0,0,1-7.75,7.75,35.17,35.17,0,0,1-11.15,4.35,61.73,61.73,0,0,1-13.1,1.37A67.54,67.54,0,0,1,1065.54,398.58Z"/><path class="cls-4" d="M1171.49,402.42q-18.88,0-29.7-10.59T1131,363.08q0-18.74,11.21-29.34t30.34-10.59q18.81,0,29.51,10.59t10.71,28q0,18.83-11,29.75T1171.49,402.42Zm.6-61.41q-8.28,0-12.85,5.69t-4.57,16.09q0,21.76,17.56,21.77,16.76,0,16.75-22.36Q1189,341,1172.09,341Z"/><path class="cls-4" d="M1275.66,306.55a23.52,23.52,0,0,0-8.63-1.77q-11.22,0-11.22,12.17V325h17.27v17.19h-17.27v58.38h-23.25V342.19h-12.69V325h12.69v-9.38q0-12.9,8.42-20.8t22.88-7.9a39.93,39.93,0,0,1,11.8,1.48Z"/><path class="cls-4" d="M1328.47,399.69q-5.16,2.73-15.57,2.73-24.66,0-24.65-25.61V342.19H1276V325h12.25V308.69L1311.5,302v23h17v17.19h-17v30.56q0,11.81,9.37,11.81a15.77,15.77,0,0,0,7.6-2.14Z"/><path class="cls-4" d="M728.5,544.69q-9,4.77-22.5,4.77-17.38,0-27.84-11.19t-10.45-29.38q0-19.54,11.76-31.59t29.83-12.05q11.6,0,19.2,3.36v10.17a38.91,38.91,0,0,0-19.32-4.89q-14,0-22.75,9.38t-8.72,25.05q0,14.9,8.15,23.73t21.39,8.83q12.29,0,21.25-5.46Z"/><path class="cls-4" d="M808.06,548.09H764.88V466.62h41.36v8.63H774.42v27.11h29.43v8.58H774.42v28.52h33.64Z"/><path class="cls-4" d="M901.93,548.09H890.57l-13.64-22.83a47.62,47.62,0,0,0-3.64-5.43,20.61,20.61,0,0,0-3.6-3.67,12.84,12.84,0,0,0-4-2.07,16.19,16.19,0,0,0-4.8-.66h-7.84v34.66h-9.55V466.62h24.32A34.73,34.73,0,0,1,877.7,468a22.08,22.08,0,0,1,7.84,4.07,19,19,0,0,1,5.2,6.79,22.51,22.51,0,0,1,1.87,9.51,22.79,22.79,0,0,1-1.28,7.82,20.37,20.37,0,0,1-3.63,6.33,22.27,22.27,0,0,1-5.68,4.75,28.94,28.94,0,0,1-7.48,3v.24a16.5,16.5,0,0,1,3.55,2.07,19,19,0,0,1,2.87,2.75,36.86,36.86,0,0,1,2.7,3.61c.89,1.34,1.89,2.91,3,4.69Zm-48.86-72.84V504.8H866a19.64,19.64,0,0,0,6.62-1.08,15.22,15.22,0,0,0,5.25-3.1,13.93,13.93,0,0,0,3.47-4.94,16.61,16.61,0,0,0,1.25-6.56q0-6.53-4.23-10.2t-12.25-3.67Z"/><path class="cls-4" d="M975.86,475.25H952.34v72.84h-9.55V475.25H919.33v-8.63h56.53Z"/><path class="cls-4" d="M1018,548.09h-9.54V466.62H1018Z"/><path class="cls-4" d="M1100.53,475.25h-31.82v28.19h29.43V512h-29.43v36.07h-9.54V466.62h41.36Z"/><path class="cls-4" d="M1145.31,548.09h-9.54V466.62h9.54Z"/><path class="cls-4" d="M1229.7,548.09h-43.18V466.62h41.36v8.63h-31.82v27.11h29.44v8.58h-29.44v28.52h33.64Z"/><path class="cls-4" d="M1265.16,548.09V466.62h22.5q43.08,0,43.07,39.71,0,18.87-12,30.32t-32,11.44Zm9.55-72.84v64.21h12.16q16,0,24.94-8.58t8.92-24.32q0-31.31-33.29-31.31Z"/><path class="cls-4" d="M694.72,1451.79q-11.19.68-22.39,1.4-3.9-9.92-7.82-19.83-16.29,1.08-32.56,2.27-2.48,10.35-4.94,20.71-11.13.83-22.24,1.7,13-46.79,26.62-93.49,12.4-.9,24.8-1.72Q675.75,1407.23,694.72,1451.79Zm-36-33.85q-6-15-12-29.92a39.42,39.42,0,0,1-2.12-8.08l-.52,0a34.65,34.65,0,0,1-1.05,8q-4,15.78-7.84,31.55Q647,1418.73,658.73,1417.94Z"/><path class="cls-4" d="M713.43,1447.19q-.57-10.17-1.15-20.33a39.89,39.89,0,0,0,12.46,6.29,39.28,39.28,0,0,0,13.27,1.62,28.94,28.94,0,0,0,6.76-1,16.05,16.05,0,0,0,4.76-2.18,8.44,8.44,0,0,0,2.76-3.06,7.15,7.15,0,0,0,.78-3.7,7.86,7.86,0,0,0-1.76-4.7,17,17,0,0,0-4.39-3.67,44.69,44.69,0,0,0-6.48-3.11c-2.49-1-5.18-2-8.06-3q-11-3.88-16.66-10a23.58,23.58,0,0,1-6.18-15.2,23.33,23.33,0,0,1,9.67-21.24,35.77,35.77,0,0,1,11.37-5.48,60.46,60.46,0,0,1,13.91-2.27,85.3,85.3,0,0,1,12.91.24,51.62,51.62,0,0,1,10.46,2.16q.42,9.51.85,19a31.35,31.35,0,0,0-5.19-2.57,41,41,0,0,0-5.75-1.74,43.5,43.5,0,0,0-11.32-1,29,29,0,0,0-6.42,1,16.67,16.67,0,0,0-4.82,2.13,9.48,9.48,0,0,0-3,3.05,6.82,6.82,0,0,0-.9,3.83,7.15,7.15,0,0,0,1.44,4,13.86,13.86,0,0,0,3.66,3.25,36.63,36.63,0,0,0,5.63,2.9c2.2.94,4.67,1.88,7.43,2.85a79.6,79.6,0,0,1,10.17,4.39,35.43,35.43,0,0,1,7.81,5.46,22.68,22.68,0,0,1,5.14,7.19,29.47,29.47,0,0,1-.25,22.56,23.61,23.61,0,0,1-7.49,8.74,34.3,34.3,0,0,1-11.34,5.15,66.66,66.66,0,0,1-13.83,2.09,78.7,78.7,0,0,1-14.35-.51A43.84,43.84,0,0,1,713.43,1447.19Z"/><path class="cls-4" d="M798.27,1443.12q-.4-10.17-.8-20.34a39.75,39.75,0,0,0,12.35,6.5,39.21,39.21,0,0,0,13.23,1.85,29.51,29.51,0,0,0,6.78-.93,15.72,15.72,0,0,0,4.79-2.09,8.64,8.64,0,0,0,2.82-3,7.31,7.31,0,0,0,.84-3.69,7.82,7.82,0,0,0-1.68-4.72,16.43,16.43,0,0,0-4.32-3.74,43.2,43.2,0,0,0-6.43-3.23c-2.47-1-5.14-2.06-8-3.1q-11-4.06-16.49-10.28a23.61,23.61,0,0,1-5.92-15.3,23.41,23.41,0,0,1,10-21.08,35.94,35.94,0,0,1,11.46-5.28,59.87,59.87,0,0,1,14-2,82.9,82.9,0,0,1,12.9.46,51.5,51.5,0,0,1,10.42,2.34q.25,9.51.52,19a31.21,31.21,0,0,0-5.15-2.66,40,40,0,0,0-5.71-1.83,41.5,41.5,0,0,0-5.82-1,43.1,43.1,0,0,0-5.47-.21,29,29,0,0,0-6.45.88,16.82,16.82,0,0,0-4.85,2,9.74,9.74,0,0,0-3,3,6.79,6.79,0,0,0-1,3.82,7.12,7.12,0,0,0,1.37,4.06,13.89,13.89,0,0,0,3.6,3.32,37.53,37.53,0,0,0,5.58,3c2.18,1,4.64,2,7.38,3a80.69,80.69,0,0,1,10.08,4.56A35.07,35.07,0,0,1,853,1402a22.54,22.54,0,0,1,5,7.28,29.48,29.48,0,0,1-.64,22.54,23.66,23.66,0,0,1-7.64,8.62,34.33,34.33,0,0,1-11.42,5,68,68,0,0,1-13.86,1.86,78,78,0,0,1-14.34-.77A43.07,43.07,0,0,1,798.27,1443.12Z"/><path class="cls-4" d="M926,1444.83c-13.07.18-23.78-3.88-32.21-12.21s-12.82-19.32-13.13-33q-.48-21.62,12-35.25t33.6-13.92q19.92-.26,32.3,12.47T971,1396.58q.09,21.51-12.39,34.75T926,1444.83Zm-.13-76.66q-11,.13-17.32,8.37t-6.06,21.58q.24,13.55,6.78,21.32a20.63,20.63,0,0,0,16.88,7.64q10.66-.15,16.85-7.86c4.13-5.16,6.16-12.26,6.09-21.35q-.14-14.17-6.33-22T925.91,1368.17Z"/><path class="cls-4" d="M1063.59,1440c-6.72,3.14-15.44,4.63-26.17,4.54-14-.13-25-4.28-33-12.53s-12.06-19.2-12.07-32.91q0-21.87,13.75-35.48t35.82-13.39c9.08.08,16.73,1.31,22.92,3.64q-.15,9.9-.29,19.79a40.74,40.74,0,0,0-21.12-5.73c-8.71-.09-15.77,2.56-21.13,7.91s-8,12.64-8.09,21.85q-.06,13.23,7.39,21.13t20.09,8a43.57,43.57,0,0,0,22.19-5.59Z"/><path class="cls-4" d="M1111.76,1444.21q-10.27-.24-20.56-.45.9-45.6,1.81-91.21,10.47.21,20.94.46Z"/><path class="cls-4" d="M1224.52,1448.21q-11.19-.53-22.4-1-2.82-10.28-5.66-20.55-16.29-.67-32.6-1.23-3.57,10-7.12,20.07-11.15-.37-22.29-.69,17.92-45.12,36.46-90.11,12.4.43,24.82.94Q1210.43,1401.89,1224.52,1448.21Zm-32.16-37.51q-4.32-15.51-8.71-31a39.77,39.77,0,0,1-1.23-8.26l-.52,0a34.31,34.31,0,0,1-1.91,7.88q-5.61,15.27-11.16,30.54Q1180.61,1410.23,1192.36,1410.7Z"/><path class="cls-4" d="M1307.26,1378.13q-13.2-.83-26.41-1.59-2.13,37.2-4.27,74.38-10.3-.6-20.61-1.14l4-74.39q-13.14-.71-26.28-1.33.39-8.36.8-16.72,36.93,1.79,73.85,4.09Q1307.78,1369.79,1307.26,1378.13Z"/><path class="cls-4" d="M1381.25,1458q-27.32-2.14-54.66-4l6.15-91q26.77,1.82,53.53,3.91-.64,8.34-1.3,16.68-16.26-1.27-32.51-2.44-.74,10.13-1.46,20.24,15.07,1.08,30.14,2.25-.65,8.31-1.3,16.62-15-1.17-30-2.25-.75,10.41-1.49,20.82,17.12,1.23,34.24,2.57Q1381.9,1449.73,1381.25,1458Z"/><polygon class="cls-4" points="858.58 1519.13 887.24 1607.31 979.96 1607.31 904.94 1661.81 933.6 1750 858.58 1695.49 783.57 1750 812.22 1661.81 737.21 1607.31 829.93 1607.31 858.58 1519.13"/><polygon class="cls-4" points="1140.51 1519.13 1169.16 1607.31 1261.88 1607.31 1186.87 1661.81 1215.52 1750 1140.51 1695.49 1065.49 1750 1094.14 1661.81 1019.13 1607.31 1111.85 1607.31 1140.51 1519.13"/><path class="cls-5" d="M824.06,937.79q-11.7.33-23.41.69Q794.37,922.83,788,907.2q-25.42.84-50.83,1.88-4.94,16-9.82,32.1-11.65.5-23.31,1,21.2-63.26,43.33-126.36,12.26-.47,24.5-.9Q798.45,876.28,824.06,937.79Zm-42.27-47.22q-9.82-24.5-19.8-49a56.28,56.28,0,0,1-2-7.74h-.37a48.67,48.67,0,0,1-1.53,7.87q-8,25.13-16,50.28Q762,891.25,781.79,890.57Z"/><path class="cls-5" d="M934,820.32q-35.38,49.33-69.7,99,34.9-.75,69.8-1.11.09,8.73.19,17.44-49.75.52-99.49,1.81l-.24-9.46Q868.7,878.45,904,829.2q-33.19.49-66.39,1.32-.23-8.76-.44-17.52,48.38-1.2,96.74-1.7C933.9,814.3,933.94,817.31,934,820.32Z"/><path class="cls-5" d="M1056.47,885.27c-.33,34.94-17.58,52.2-51.75,52.16-32.73,0-49.23-16.62-49.5-50.24l-.54-76.08q10.88-.08,21.76-.11.13,35.91.28,71.83c.1,24.41,10,36.55,29.63,36.56,18.94,0,28.47-11.68,28.6-35.22q.19-36.57.38-73.13,10.89,0,21.77.14Z"/><path class="cls-5" d="M1187.51,938q-12.48-.36-24.94-.67-9.85-16.92-19.81-33.79a69.21,69.21,0,0,0-5.3-8,32,32,0,0,0-5.3-5.44,18.24,18.24,0,0,0-6-3.15,25.87,25.87,0,0,0-7.31-1.1l-8.68-.15-.84,50.49-21.26-.33q.84-62.19,1.67-124.39,21.59.3,43.16.73a64.61,64.61,0,0,1,17,2.44,40.13,40.13,0,0,1,13.37,6.61A29.53,29.53,0,0,1,1172,832a31.6,31.6,0,0,1,2.85,14.78,34.87,34.87,0,0,1-2.36,12,31.23,31.23,0,0,1-6.06,9.64,35.65,35.65,0,0,1-9.24,7.11,46.82,46.82,0,0,1-12,4.41v.35a33.14,33.14,0,0,1,6,4.34c1.71,1.57,3.34,3.19,4.86,4.85a56,56,0,0,1,4.52,5.61c1.49,2.1,3.13,4.52,4.92,7.29Q1176.58,920.23,1187.51,938Zm-76.33-109.43q-.33,20.22-.67,40.42l17.94.33a28,28,0,0,0,9.23-1.29,21.49,21.49,0,0,0,7.4-4.09,19.45,19.45,0,0,0,5-6.66,22.38,22.38,0,0,0,1.93-8.89q.21-8.94-5.6-14.1t-16.95-5.39Z"/><path class="cls-5" d="M1276.5,941.23q-36.07-1.54-72.18-2.68,2-62.17,3.92-124.34,35.33,1.11,70.65,2.61-.36,8.74-.74,17.5-24.37-1-48.77-1.88-.6,17.61-1.22,35.2,22.35.78,44.7,1.71-.37,8.71-.73,17.42-22.29-.93-44.58-1.7-.65,18.38-1.28,36.76,25.49.88,51,2Z"/><path class="cls-5" d="M316.79,1174.38l-13.65-123.65q18.25-2,36.54-3.93c46.72-4.85,72,13.22,75.67,53.45,1.79,19.12-3.19,35.07-14.8,47.89s-28.06,20.31-49.41,22.55Q334,1172.49,316.79,1174.38Zm9.13-108.5q4.75,44.47,9.52,88.93l16.49-1.74q21.78-2.28,32.72-15.36t8.88-34.86c-2.78-28.95-19.49-42-50.09-38.82Z"/><path class="cls-5" d="M548.66,1153.15q-11.31.82-22.63,1.69-6.81-15.36-13.66-30.7-24.57,1.92-49.14,4-4.05,16.23-8,32.48-11.26,1-22.53,2,17.59-64.07,36.12-128,11.85-1,23.7-1.94Q521,1092.8,548.66,1153.15Zm-43.11-45.36q-10.65-24-21.44-48a57.89,57.89,0,0,1-2.31-7.65l-.35,0a50.1,50.1,0,0,1-1.12,7.93q-6.63,25.44-13.13,50.9Q486.37,1109.31,505.55,1107.79Z"/><path class="cls-5" d="M632.12,1040.58q-18.2,1.07-36.37,2.23,3.4,53.32,6.83,106.66-10.33.66-20.65,1.35-3.6-53.31-7.19-106.63-18.13,1.21-36.27,2.55-.63-8.74-1.27-17.48,46.92-3.43,93.9-6.17Z"/><path class="cls-5" d="M751.26,1141.72q-11.34.46-22.67,1-6.3-15.57-12.65-31.13-24.62,1.13-49.22,2.44-4.56,16.1-9.07,32.2-11.29.63-22.57,1.29,19.65-63.46,40.24-126.81,11.86-.6,23.74-1.17Q725.61,1080.5,751.26,1141.72ZM709.66,1095q-9.85-24.37-19.85-48.72a56.75,56.75,0,0,1-2.06-7.72l-.36,0a49.65,49.65,0,0,1-1.37,7.88q-7.46,25.21-14.77,50.45Q690.45,1095.87,709.66,1095Z"/><path class="cls-5" d="M897.91,1137.56q-35,.59-69.95,1.56-1.74-62.17-3.46-124.36,34.25-.94,68.51-1.53.15,8.76.29,17.52-23.64.4-47.28,1,.43,17.61.86,35.21,21.66-.53,43.33-.91.15,8.71.31,17.43-21.62.39-43.21.91l.9,36.77q24.7-.6,49.41-1Q897.76,1128.85,897.91,1137.56Z"/><path class="cls-5" d="M1031.09,1136.78q-11.29-.06-22.6-.07-29.72-45.75-60.3-91.22a41.06,41.06,0,0,1-3.86-7.16h-.53q.75,4,.86,17.08.38,40.78.73,81.55-10,.09-20,.21-.76-62.19-1.52-124.39,12.27-.15,24.55-.26,29.71,44.4,58.61,89,3.66,5.57,4.7,7.64h.35c-.57-3.29-.86-8.88-.84-16.74l.12-80.16q10.15,0,20.3.07Q1031.38,1074.57,1031.09,1136.78Z"/><path class="cls-5" d="M1164.75,1130.34q-19.77,10.07-43.63,9.6-27.61-.54-44.53-17.88t-16.74-45.64c.17-19.25,6.63-35,19.5-47.2s29.14-18.13,48.76-17.74q21.2.42,35.49,6.88l-.54,21.25q-14.32-9.91-34.5-10.33c-13.5-.27-24.66,3.92-33.4,12.52s-13.18,19.86-13.36,33.74q-.27,21.42,10.57,33.85t29.62,12.78q12.88.24,22.41-4.48.35-14.79.68-29.57-13.23-.3-26.46-.55l.33-17.35q23.67.45,47.34,1.06Q1165.53,1100.82,1164.75,1130.34Z"/><path class="cls-5" d="M1217.9,1140.46q-10.64-.36-21.28-.7,2-62.17,3.89-124.34,10.86.35,21.71.72Z"/><path class="cls-5" d="M1359.5,1147l-22.57-1.26q-27.29-47.25-55.44-94.26a41,41,0,0,1-3.47-7.36l-.53,0q.52,4,0,17.1-1.77,40.74-3.56,81.47-10-.44-20-.84,2.52-62.16,5-124.3,12.27.5,24.54,1,27.35,45.89,53.85,92,3.38,5.75,4.3,7.88l.35,0q-.6-5,0-16.77l4.35-80,20.28,1.13Z"/><path class="cls-5" d="M1465.48,1154q-34.92-2.61-69.84-4.82L1403.5,1025q34.2,2.16,68.4,4.7-.64,8.74-1.3,17.48-23.6-1.76-47.2-3.33-1.17,17.58-2.35,35.15,21.65,1.44,43.26,3-.63,8.7-1.28,17.39-21.55-1.59-43.14-3-1.22,18.35-2.44,36.7,24.66,1.64,49.32,3.48Z"/><path class="cls-5" d="M1562.7,1162q-34.87-3.15-69.78-5.9,4.9-62,9.8-124,34.18,2.7,68.34,5.77-.78,8.73-1.57,17.46-23.58-2.13-47.16-4.07-1.45,17.55-2.89,35.11,21.61,1.77,43.22,3.71-.78,8.68-1.55,17.36-21.55-1.92-43.11-3.69-1.5,18.32-3,36.65,24.65,2,49.27,4.26Z"/><path class="cls-5" d="M1686,1174.38q-12-1.32-24-2.61-8.14-17.61-16.4-35.21a71.19,71.19,0,0,0-4.47-8.36,31.57,31.57,0,0,0-4.69-5.83,17.54,17.54,0,0,0-5.5-3.61,24.16,24.16,0,0,0-7-1.66l-8.38-.83q-2.46,25.13-4.93,50.25-10.26-1-20.53-2,5.88-61.92,11.74-123.84,20.85,2,41.69,4.09a61.23,61.23,0,0,1,16.21,3.75,38.62,38.62,0,0,1,12.4,7.63,29.33,29.33,0,0,1,7.55,11.36,32.46,32.46,0,0,1,1.55,15,35.67,35.67,0,0,1-3.27,11.82,31.61,31.61,0,0,1-6.65,9.14,34.73,34.73,0,0,1-9.52,6.37,44.9,44.9,0,0,1-12,3.46l0,.34a32.26,32.26,0,0,1,5.5,4.8c1.53,1.7,3,3.44,4.31,5.21a55.74,55.74,0,0,1,3.9,5.95q1.9,3.3,4.17,7.64Q1676.92,1155.79,1686,1174.38Zm-64.88-115q-2,20.11-4,40.23,8.67.86,17.33,1.73a26.33,26.33,0,0,0,9-.57,20.5,20.5,0,0,0,7.49-3.5,19.21,19.21,0,0,0,5.34-6.25,22.94,22.94,0,0,0,2.6-8.71q.93-8.89-4.27-14.49t-16-6.69Q1630,1060.24,1621.15,1059.38Z"/></svg>