<svg id="Layer_1" data-name="Layer 1" xmlns="http://www.w3.org/2000/svg" viewBox="0 0 2000 2000"><defs><style>.cls-1{fill:#002050;}.cls-2{fill:#505050;}.cls-3{fill:#0064b5;}.cls-4{fill:#fff;}.cls-5{fill:#282828;}</style></defs><path class="cls-1" d="M1000,10a149.2,149.2,0,0,0-43.11,6.36L398.14,185A142.38,142.38,0,0,0,296.3,322.13v949.14c0,242.84,82.05,327.38,239.29,467.71,153.69,137.16,428.51,238,440.14,242.2L1000,1990l24.27-8.82c11.63-4.23,286.45-105,440.14-242.2,157.24-140.33,239.29-224.87,239.29-467.71V322.13A142.38,142.38,0,0,0,1601.86,185L1043.11,16.36A149.2,149.2,0,0,0,1000,10Z"/><path class="cls-2" d="M1581.33,253.07,1022.56,84.4a78.54,78.54,0,0,0-45.12,0L418.67,253.07a72.13,72.13,0,0,0-51.28,69.05V999.57H1632.61V322.12A72.13,72.13,0,0,0,1581.33,253.07Z"/><path class="cls-3" d="M367.39,1271.28c0,214,64.55,279.94,215.51,414.67,145.27,129.64,417.1,228.42,417.1,228.42s271.83-98.78,417.1-228.42c151-134.73,215.51-200.7,215.51-414.67V999.57H367.39Z"/><path class="cls-2" d="M1000,656.84c-300.5,0-593.32,25.46-870.34,75.68A102.73,102.73,0,0,0,47.27,854.08c25.46,125.27,54.59,278.35,74.23,390a113.27,113.27,0,0,0,111.74,93.78,114.58,114.58,0,0,0,23.46-2.44C354,1315,621.31,1267.58,1000,1267.58s646,47.43,743.31,67.82a114.42,114.42,0,0,0,23.45,2.44,113.27,113.27,0,0,0,111.74-93.78c19.64-111.64,48.77-264.72,74.23-390a102.73,102.73,0,0,0-82.39-121.56c-277-50.22-569.84-75.68-870.34-75.68Z"/><path class="cls-4" d="M1000,1230.27c315.15,0,582.57,33.34,751,68.61a76.19,76.19,0,0,0,90.8-61.28c20.68-117.62,50.24-272,74.41-390.95a65.42,65.42,0,0,0-52.49-77.42c-166.56-30.2-465-75.08-863.68-75.08h0c-398.71,0-697.12,44.88-863.68,75.08a65.42,65.42,0,0,0-52.49,77.42C108,965.58,137.56,1120,158.24,1237.6a76.19,76.19,0,0,0,90.8,61.28c168.39-35.27,435.81-68.61,751-68.61Z"/><path class="cls-4" d="M697.33,1454.91q-11.21.67-22.39,1.4-3.9-9.91-7.83-19.82-16.27,1.07-32.55,2.26-2.49,10.35-4.95,20.71-11.13.82-22.24,1.7,13-46.77,26.62-93.49,12.4-.89,24.81-1.72Q678.36,1410.35,697.33,1454.91Zm-36-33.85q-6-15-12-29.92a37.88,37.88,0,0,1-2.11-8.08l-.52,0a34.15,34.15,0,0,1-1.07,8q-3.95,15.78-7.83,31.56Q649.58,1421.85,661.33,1421.06Z"/><path class="cls-4" d="M716,1450.31q-.59-10.17-1.15-20.33a39.72,39.72,0,0,0,25.72,7.92,29.53,29.53,0,0,0,6.76-1.05,15.93,15.93,0,0,0,4.76-2.17,8.55,8.55,0,0,0,2.76-3.07,7.23,7.23,0,0,0,.79-3.7,7.82,7.82,0,0,0-1.77-4.69,16.4,16.4,0,0,0-4.38-3.67,43.79,43.79,0,0,0-6.49-3.12q-3.74-1.46-8.06-3-11-3.88-16.66-10a23.57,23.57,0,0,1-6.18-15.2,23.36,23.36,0,0,1,9.67-21.25,35.77,35.77,0,0,1,11.37-5.48,60.45,60.45,0,0,1,13.92-2.27,85.06,85.06,0,0,1,12.9.25,50.16,50.16,0,0,1,10.46,2.16q.43,9.49.85,19a31.35,31.35,0,0,0-5.19-2.57,39.64,39.64,0,0,0-5.75-1.73,43.09,43.09,0,0,0-5.84-.91,40.59,40.59,0,0,0-5.47-.11,27.9,27.9,0,0,0-6.43,1,16.6,16.6,0,0,0-4.81,2.12,9.47,9.47,0,0,0-3,3,6.75,6.75,0,0,0-.9,3.84,7.07,7.07,0,0,0,1.44,4,13.84,13.84,0,0,0,3.65,3.26,37.57,37.57,0,0,0,5.63,2.89c2.2.94,4.68,1.88,7.43,2.85a79.62,79.62,0,0,1,10.16,4.39,35,35,0,0,1,7.82,5.47,22.46,22.46,0,0,1,5.14,7.19A29.49,29.49,0,0,1,775,1438a23.84,23.84,0,0,1-7.5,8.75,34.6,34.6,0,0,1-11.34,5.15,68,68,0,0,1-13.83,2.09,79.4,79.4,0,0,1-14.34-.52A43.39,43.39,0,0,1,716,1450.31Z"/><path class="cls-4" d="M800.88,1446.24q-.4-10.17-.8-20.34a39.67,39.67,0,0,0,25.57,8.35,29.43,29.43,0,0,0,6.78-.93,15.72,15.72,0,0,0,4.79-2.09,8.47,8.47,0,0,0,2.82-3,7.32,7.32,0,0,0,.85-3.69,7.9,7.9,0,0,0-1.69-4.72,16.78,16.78,0,0,0-4.32-3.74,45.06,45.06,0,0,0-6.42-3.23c-2.48-1-5.15-2-8-3.1q-11-4.05-16.49-10.28a23.55,23.55,0,0,1-5.91-15.3,23.35,23.35,0,0,1,10-21.08,36,36,0,0,1,11.45-5.28,60.4,60.4,0,0,1,14-2,85.29,85.29,0,0,1,12.9.47,50.18,50.18,0,0,1,10.42,2.34q.26,9.5.52,19a31.48,31.48,0,0,0-5.14-2.65,40.55,40.55,0,0,0-5.72-1.84,43,43,0,0,0-5.82-1,39.63,39.63,0,0,0-5.47-.21,29,29,0,0,0-6.45.88,16.82,16.82,0,0,0-4.85,2,9.53,9.53,0,0,0-3,3,6.85,6.85,0,0,0-1,3.82,7.22,7.22,0,0,0,1.37,4.06,14,14,0,0,0,3.6,3.31,37,37,0,0,0,5.58,3c2.18,1,4.65,2,7.38,3a79.39,79.39,0,0,1,10.08,4.56,34.83,34.83,0,0,1,7.72,5.6,22.5,22.5,0,0,1,5,7.28A29.38,29.38,0,0,1,860,1435a23.55,23.55,0,0,1-7.64,8.61,34.35,34.35,0,0,1-11.42,5,68,68,0,0,1-13.86,1.85,78.74,78.74,0,0,1-14.33-.76A43.31,43.31,0,0,1,800.88,1446.24Z"/><path class="cls-4" d="M928.65,1448q-19.6.27-32.22-12.21t-13.12-33q-.49-21.63,12-35.25c8.32-9.07,19.54-13.74,33.6-13.92q19.92-.27,32.3,12.46t12.41,33.65q.09,21.49-12.39,34.74T928.65,1448Zm-.14-76.66c-7.32.1-13.11,2.9-17.31,8.37s-6.23,12.68-6.07,21.58,2.44,16.14,6.79,21.33a20.59,20.59,0,0,0,16.87,7.63q10.68-.15,16.85-7.86t6.09-21.34q-.12-14.19-6.33-22T928.51,1371.29Z"/><path class="cls-4" d="M1066.19,1443.17c-6.72,3.13-15.45,4.62-26.17,4.53-14-.13-25-4.28-33-12.53s-12.06-19.2-12.06-32.9c0-14.59,4.55-26.43,13.75-35.48s21.15-13.54,35.81-13.4q13.63.13,22.92,3.65-.14,9.89-.28,19.78a40.8,40.8,0,0,0-21.13-5.73q-13.07-.13-21.12,7.92c-5.38,5.35-8.06,12.64-8.1,21.84q0,13.25,7.39,21.13c5,5.27,11.65,7.92,20.09,8a43.47,43.47,0,0,0,22.19-5.59Z"/><path class="cls-4" d="M1114.37,1447.33q-10.29-.24-20.57-.45.9-45.6,1.81-91.21,10.47.21,21,.46Z"/><path class="cls-4" d="M1227.13,1451.33q-11.2-.52-22.41-1-2.81-10.27-5.66-20.55-16.29-.66-32.59-1.23-3.59,10-7.13,20.07-11.14-.37-22.28-.69,17.91-45.12,36.45-90.11,12.42.43,24.83.94Q1213,1405,1227.13,1451.33Zm-32.17-37.5q-4.32-15.52-8.7-31a39.07,39.07,0,0,1-1.24-8.26l-.52,0a34.65,34.65,0,0,1-1.91,7.89q-5.61,15.25-11.16,30.53Q1183.21,1413.36,1195,1413.83Z"/><path class="cls-4" d="M1309.86,1381.25q-13.2-.82-26.41-1.58l-4.26,74.37q-10.31-.58-20.62-1.14,2-37.2,4-74.39-13.14-.71-26.28-1.33.4-8.36.8-16.71,36.95,1.77,73.86,4.08Z"/><path class="cls-4" d="M1383.85,1461.16q-27.31-2.15-54.66-4l6.15-91q26.78,1.8,53.54,3.9-.66,8.34-1.31,16.68-16.24-1.27-32.51-2.44-.72,10.13-1.45,20.24,15.06,1.08,30.13,2.26l-1.29,16.61q-15-1.17-30-2.24-.73,10.41-1.49,20.81,17.13,1.23,34.24,2.58Q1384.52,1452.86,1383.85,1461.16Z"/><polygon class="cls-4" points="858.58 1519.13 887.24 1607.31 979.96 1607.31 904.94 1661.81 933.6 1750 858.58 1695.49 783.57 1750 812.22 1661.81 737.21 1607.31 829.93 1607.31 858.58 1519.13"/><polygon class="cls-4" points="1140.51 1519.13 1169.16 1607.31 1261.88 1607.31 1186.87 1661.81 1215.52 1750 1140.51 1695.49 1065.49 1750 1094.14 1661.81 1019.13 1607.31 1111.85 1607.31 1140.51 1519.13"/><path class="cls-4" d="M788.23,400.57H764.69V337.25q0-10.26.88-22.66H765a112.2,112.2,0,0,1-3.31,14l-24.8,72H717.38l-25.24-71.22q-1-2.88-3.32-14.76h-.66q.95,15.66,1,27.46v58.52H667.64V294.74h34.91l21.62,62.73a89,89,0,0,1,3.77,15.13h.44a152.11,152.11,0,0,1,4.21-15.28l21.62-62.58h34Z"/><path class="cls-4" d="M820.3,313a13.6,13.6,0,0,1-9.67-3.5,11.29,11.29,0,0,1-3.76-8.6,10.9,10.9,0,0,1,3.76-8.56,15.79,15.79,0,0,1,19.37,0,10.94,10.94,0,0,1,3.73,8.56,11.22,11.22,0,0,1-3.73,8.71A13.84,13.84,0,0,1,820.3,313Zm11.51,87.53H808.49V325h23.32Z"/><path class="cls-4" d="M907.2,397.84q-7.89,4.57-22.8,4.58-17.42,0-28.19-10.56t-10.78-27.23q0-19.26,11.55-30.37t30.89-11.11q13.35,0,19.33,3.55v19.78A26.6,26.6,0,0,0,890.89,341q-10,0-15.9,5.87t-5.87,16.2q0,10,5.61,15.76t15.43,5.72a30.78,30.78,0,0,0,17-5.46Z"/><path class="cls-4" d="M970.27,346a20.32,20.32,0,0,0-9.82-2.29,14.16,14.16,0,0,0-11.88,5.58q-4.27,5.56-4.28,15.16v36.09H921V325h23.33v14h.29q5.53-15.34,19.93-15.35a14.85,14.85,0,0,1,5.76.89Z"/><path class="cls-4" d="M1015.62,402.42q-18.9,0-29.71-10.59T975.1,363.08q0-18.74,11.22-29.34t30.33-10.59q18.81,0,29.52,10.59t10.7,28q0,18.83-11,29.75T1015.62,402.42Zm.59-61.41q-8.26,0-12.84,5.69t-4.58,16.09q0,21.76,17.57,21.77,16.74,0,16.75-22.36Q1033.11,341,1016.21,341Z"/><path class="cls-4" d="M1065.54,398.58V379.69a49.78,49.78,0,0,0,11.48,5.16,37.76,37.76,0,0,0,10.81,1.7c4.14,0,7.39-.56,9.78-1.7s3.58-2.85,3.58-5.16a4.77,4.77,0,0,0-1.62-3.69,15.08,15.08,0,0,0-4.17-2.59,49.38,49.38,0,0,0-5.57-2c-2-.59-4-1.25-5.84-2a56.24,56.24,0,0,1-7.93-3.65,23.11,23.11,0,0,1-5.76-4.54,17.92,17.92,0,0,1-3.54-6,23.92,23.92,0,0,1-1.22-8.05,20.77,20.77,0,0,1,2.77-10.92,22.67,22.67,0,0,1,7.38-7.49,33.79,33.79,0,0,1,10.56-4.28,55,55,0,0,1,12.36-1.37,68,68,0,0,1,10.18.78,76,76,0,0,1,10.19,2.25v18a37.23,37.23,0,0,0-9.49-3.88,40,40,0,0,0-9.92-1.29,22,22,0,0,0-4.32.41,13.93,13.93,0,0,0-3.58,1.18,6.64,6.64,0,0,0-2.44,2,4.57,4.57,0,0,0-.88,2.77,5.09,5.09,0,0,0,1.33,3.54,11.29,11.29,0,0,0,3.47,2.55,34.67,34.67,0,0,0,4.76,1.92c1.74.57,3.48,1.14,5.2,1.73a67.14,67.14,0,0,1,8.41,3.54,27.06,27.06,0,0,1,6.46,4.5,17.66,17.66,0,0,1,4.13,6.06,24.23,24.23,0,0,1-1.47,19.74,23.44,23.44,0,0,1-7.75,7.75,35.17,35.17,0,0,1-11.15,4.35,61.73,61.73,0,0,1-13.1,1.37A67.54,67.54,0,0,1,1065.54,398.58Z"/><path class="cls-4" d="M1171.49,402.42q-18.88,0-29.7-10.59T1131,363.08q0-18.74,11.21-29.34t30.34-10.59q18.81,0,29.51,10.59t10.71,28q0,18.83-11,29.75T1171.49,402.42Zm.6-61.41q-8.28,0-12.85,5.69t-4.57,16.09q0,21.76,17.56,21.77,16.76,0,16.75-22.36Q1189,341,1172.09,341Z"/><path class="cls-4" d="M1275.66,306.55a23.52,23.52,0,0,0-8.63-1.77q-11.22,0-11.22,12.17V325h17.27v17.19h-17.27v58.38h-23.25V342.19h-12.69V325h12.69v-9.38q0-12.9,8.42-20.8t22.88-7.9a39.93,39.93,0,0,1,11.8,1.48Z"/><path class="cls-4" d="M1328.47,399.69q-5.16,2.73-15.57,2.73-24.66,0-24.65-25.61V342.19H1276V325h12.25V308.69L1311.5,302v23h17v17.19h-17v30.56q0,11.81,9.37,11.81a15.77,15.77,0,0,0,7.6-2.14Z"/><path class="cls-4" d="M728.5,544.69q-9,4.77-22.49,4.77-17.38,0-27.85-11.19t-10.45-29.38q0-19.54,11.76-31.59t29.83-12.05q11.6,0,19.2,3.36v10.17a38.9,38.9,0,0,0-19.31-4.89q-14,0-22.76,9.38t-8.72,25.05q0,14.9,8.15,23.73t21.39,8.83q12.29,0,21.25-5.46Z"/><path class="cls-4" d="M808.06,548.09H764.88V466.62h41.36v8.63H774.42v27.11h29.44v8.58H774.42v28.52h33.64Z"/><path class="cls-4" d="M901.93,548.09H890.57l-13.64-22.83a49,49,0,0,0-3.63-5.43,21,21,0,0,0-3.61-3.67,12.73,12.73,0,0,0-4-2.07,16.19,16.19,0,0,0-4.8-.66h-7.84v34.66h-9.55V466.62h24.32A34.73,34.73,0,0,1,877.7,468a22,22,0,0,1,7.84,4.07,18.84,18.84,0,0,1,5.2,6.79,22.51,22.51,0,0,1,1.87,9.51,23,23,0,0,1-1.27,7.82,20.4,20.4,0,0,1-3.64,6.33,22.27,22.27,0,0,1-5.68,4.75,29,29,0,0,1-7.47,3v.24a17,17,0,0,1,3.55,2.07,19.42,19.42,0,0,1,2.87,2.75,38.53,38.53,0,0,1,2.7,3.61c.88,1.34,1.88,2.91,3,4.69Zm-48.86-72.84V504.8H866a19.64,19.64,0,0,0,6.62-1.08,15.13,15.13,0,0,0,5.25-3.1,13.8,13.8,0,0,0,3.47-4.94,16.43,16.43,0,0,0,1.25-6.56q0-6.53-4.23-10.2t-12.24-3.67Z"/><path class="cls-4" d="M975.86,475.25H952.34v72.84h-9.55V475.25H919.33v-8.63h56.53Z"/><path class="cls-4" d="M1018,548.09h-9.54V466.62H1018Z"/><path class="cls-4" d="M1100.53,475.25h-31.82v28.19h29.43V512h-29.43v36.07h-9.54V466.62h41.36Z"/><path class="cls-4" d="M1145.31,548.09h-9.54V466.62h9.54Z"/><path class="cls-4" d="M1229.7,548.09h-43.18V466.62h41.36v8.63h-31.82v27.11h29.44v8.58h-29.44v28.52h33.64Z"/><path class="cls-4" d="M1265.16,548.09V466.62h22.5q43.08,0,43.07,39.71,0,18.87-12,30.32t-32,11.44Zm9.55-72.84v64.21h12.16q16,0,24.94-8.58t8.92-24.32q0-31.31-33.29-31.31Z"/><path class="cls-5" d="M375,1050,358.08,931q17.75-2.54,35.51-4.92c45.42-6.06,70.46,10.8,75,49.58,2.19,18.44-2.26,34-13.18,46.66s-26.64,20.37-47.25,23.14Q391.61,1047.67,375,1050Zm5.69-105.12q5.89,42.83,11.8,85.65l15.93-2.17q21-2.81,31.3-15.75t7.72-33.93c-3.42-27.89-20-40.07-49.75-36.11Q389.22,943.73,380.72,944.9Z"/><path class="cls-5" d="M601.9,1023.62q-10.95,1-21.88,2-6.87-14.72-13.8-29.42-23.81,2.32-47.57,4.92-3.57,15.78-7.08,31.57-10.87,1.2-21.76,2.47,15.54-62.34,32.31-124.57,11.53-1.23,23.06-2.38Q574.13,965.76,601.9,1023.62Zm-42.6-43q-10.78-23-21.76-46a53.1,53.1,0,0,1-2.4-7.34l-.34,0a49.37,49.37,0,0,1-.94,7.68q-6,24.73-11.72,49.47Q540.71,982.42,559.3,980.57Z"/><path class="cls-5" d="M684.29,913.36q-17.7,1.23-35.38,2.62l8,103q-10,.78-20,1.61-4.26-51.48-8.51-103-17.64,1.46-35.26,3l-1.53-16.87q45.68-4.12,91.42-7.34Q683.69,904.91,684.29,913.36Z"/><path class="cls-5" d="M803.69,1009.94q-11,.49-21.93,1-6.18-15-12.44-30-23.87,1.26-47.7,2.76-4.29,15.6-8.49,31.22-10.92.72-21.83,1.48,18.32-61.56,37.86-123,11.57-.69,23.12-1.33Q778.59,950.89,803.69,1009.94ZM763.11,965q-9.74-23.49-19.64-47a56,56,0,0,1-2.06-7.44l-.35,0a48.09,48.09,0,0,1-1.28,7.63q-7,24.43-13.93,48.89Q744.48,966,763.11,965Z"/><path class="cls-5" d="M982.83,1005.46c-7.31,0-14.64.09-22,.16q-5.58-15.25-11.23-30.49-23.86.3-47.75.84-4.9,15.43-9.73,30.86-10.93.27-21.86.61,20.76-60.8,42.74-121.37,11.57-.23,23.14-.41Q960.12,945.44,982.83,1005.46ZM944.1,958.93q-8.79-23.86-17.74-47.7a52.57,52.57,0,0,1-1.76-7.51h-.35a49.18,49.18,0,0,1-1.58,7.58q-8,24.13-15.88,48.29Q925.45,959.19,944.1,958.93Z"/><path class="cls-5" d="M1109.76,1006.62q-10.92-.25-21.86-.46-28-44.71-57.11-89.08a39.78,39.78,0,0,1-3.66-7h-.51q.68,3.85.61,16.53-.2,39.4-.38,78.82-9.67,0-19.35-.05l.06-120.25q12,0,23.92.07,28.35,43.31,55.61,87a85.36,85.36,0,0,1,4.43,7.46h.34q-.75-4.8-.54-16.2.75-38.73,1.48-77.47l19.77.42Q1111.18,946.51,1109.76,1006.62Z"/><path class="cls-5" d="M1246.72,1011.92q-11-.58-21.93-1.13-4.68-15.56-9.42-31.1-23.86-1.11-47.73-2-5.81,15.1-11.53,30.22-10.92-.36-21.86-.68,24.32-59.44,49.83-118.63,11.58.45,23.14,1Q1227.57,950.67,1246.72,1011.92Zm-35.94-48.73q-7.35-24.33-14.89-48.66a52.36,52.36,0,0,1-1.32-7.61h-.35a48.13,48.13,0,0,1-2,7.47q-9.43,23.61-18.69,47.27Q1192.15,962.36,1210.78,963.19Z"/><path class="cls-5" d="M1338,1017.8q-33.32-2.49-66.67-4.48,3.57-60,7.15-120,10.27.62,20.54,1.27-3.32,51.6-6.62,103.18,23.43,1.51,46.86,3.25Z"/><path class="cls-5" d="M1447.42,906.48q-23.93,36.15-47.16,72.53-1.92,21.76-3.82,43.53-10-.88-20-1.71,1.8-21.55,3.59-43.12-16.2-40-33.07-79.83,11.67.87,23.35,1.8,10.1,26.67,19.93,53.39.35,1,2,7.15l.26,0a46.92,46.92,0,0,1,3.4-6.69q14.77-24.62,29.84-49.12C1433,905.1,1440.18,905.78,1447.42,906.48Z"/><path class="cls-5" d="M1452.18,1023q1-10.23,2-20.44a31.67,31.67,0,0,0,6.16,5.17,51.17,51.17,0,0,0,7.77,4.21,64.46,64.46,0,0,0,8.35,3,47.21,47.21,0,0,0,7.82,1.59c8.4.9,14.81.21,19.24-2.12s6.94-6.1,7.55-11.38a13.18,13.18,0,0,0-1.24-7.61,21.67,21.67,0,0,0-5.15-6.36,61.69,61.69,0,0,0-8.21-5.92q-4.79-2.94-10.26-6.13-5.85-3.9-10.84-7.81a49.87,49.87,0,0,1-8.55-8.34,31.36,31.36,0,0,1-5.29-9.77,29.36,29.36,0,0,1-1.06-12.15,27.14,27.14,0,0,1,5.37-14.26,32.33,32.33,0,0,1,11.35-9.2,47.81,47.81,0,0,1,15.2-4.48,70.74,70.74,0,0,1,16.9-.14c12.9,1.42,22.14,3.92,27.71,7.44l-2.28,19.58q-9.57-8.55-26.06-10.39a48.82,48.82,0,0,0-9.13-.15,26.82,26.82,0,0,0-8.34,1.88,17.26,17.26,0,0,0-6.31,4.3,11.91,11.91,0,0,0-3,7,13.72,13.72,0,0,0,1,7.11,18.45,18.45,0,0,0,4.42,5.86,52.19,52.19,0,0,0,7.5,5.57c3,1.88,6.45,3.92,10.39,6.16,4,2.64,7.76,5.36,11.25,8.18a56.21,56.21,0,0,1,9,9.05,35,35,0,0,1,5.65,10.41,28.21,28.21,0,0,1,1.06,12.33q-1.07,9.07-5.49,14.89a29.93,29.93,0,0,1-11.12,9,44.89,44.89,0,0,1-15,4,83.45,83.45,0,0,1-17.36-.12q-3-.33-7.35-1.25c-2.91-.62-5.86-1.37-8.87-2.28a82.55,82.55,0,0,1-8.49-3A27.93,27.93,0,0,1,1452.18,1023Z"/><path class="cls-5" d="M1650,947.74q-17.6-2.5-35.2-4.87-6.88,51.2-13.76,102.39-9.94-1.34-19.89-2.63,6.66-51.23,13.31-102.45-17.58-2.28-35.16-4.43,1-8.4,2.05-16.81,45.55,5.55,91,12Q1651.23,939.35,1650,947.74Z"/></svg>