<svg id="Layer_1" data-name="Layer 1" xmlns="http://www.w3.org/2000/svg" viewBox="0 0 2000 2000"><defs><style>.cls-1{fill:#636363;}.cls-2{fill:#0078c0;}.cls-3{fill:#fff;}.cls-4{fill:#282828;}</style></defs><path class="cls-1" d="M1000,10a149.2,149.2,0,0,0-43.11,6.36L398.14,185A142.38,142.38,0,0,0,296.3,322.13v949.14c0,242.84,82.05,327.38,239.29,467.71,153.69,137.16,428.51,238,440.14,242.2L1000,1990l24.27-8.82c11.63-4.23,286.45-105,440.14-242.2,157.24-140.33,239.29-224.87,239.29-467.71V322.13A142.38,142.38,0,0,0,1601.86,185L1043.11,16.36A149.2,149.2,0,0,0,1000,10Z"/><path class="cls-1" d="M1581.33,253.07,1022.56,84.4a78.54,78.54,0,0,0-45.12,0L418.67,253.07a72.13,72.13,0,0,0-51.28,69.05V999.57H1632.61V322.12A72.13,72.13,0,0,0,1581.33,253.07Z"/><path class="cls-2" d="M367.39,1271.28c0,214,64.55,279.94,215.51,414.67,145.27,129.64,417.1,228.42,417.1,228.42s271.83-98.78,417.1-228.42c151-134.73,215.51-200.7,215.51-414.67V999.57H367.39Z"/><path class="cls-1" d="M1000,656.84c-300.5,0-593.32,25.46-870.34,75.68A102.73,102.73,0,0,0,47.27,854.08c25.46,125.27,54.59,278.35,74.23,390a113.27,113.27,0,0,0,111.74,93.78,114.58,114.58,0,0,0,23.46-2.44C354,1315,621.31,1267.58,1000,1267.58s646,47.43,743.31,67.82a114.42,114.42,0,0,0,23.45,2.44,113.27,113.27,0,0,0,111.74-93.78c19.64-111.64,48.77-264.72,74.23-390a102.73,102.73,0,0,0-82.39-121.56c-277-50.22-569.84-75.68-870.34-75.68Z"/><path class="cls-3" d="M1000,1230.27c315.15,0,582.57,33.34,751,68.61a76.19,76.19,0,0,0,90.8-61.28c20.68-117.62,50.24-272,74.41-390.95a65.42,65.42,0,0,0-52.49-77.42c-166.56-30.2-465-75.08-863.68-75.08h0c-398.71,0-697.12,44.88-863.68,75.08a65.42,65.42,0,0,0-52.49,77.42C108,965.58,137.56,1120,158.24,1237.6a76.19,76.19,0,0,0,90.8,61.28c168.39-35.27,435.81-68.61,751-68.61Z"/><path class="cls-3" d="M645.92,400.57H622.38V337.25q0-10.26.89-22.66h-.59a111.37,111.37,0,0,1-3.33,14l-24.79,72H575.07l-25.24-71.22q-1-2.88-3.32-14.76h-.66q1,15.66,1,27.46v58.52H525.33V294.74h34.91l21.62,62.73a89,89,0,0,1,3.77,15.13h.44a152.11,152.11,0,0,1,4.21-15.28l21.62-62.58h34Z"/><path class="cls-3" d="M678,313a13.6,13.6,0,0,1-9.67-3.5,11.29,11.29,0,0,1-3.76-8.6,10.9,10.9,0,0,1,3.76-8.56,15.8,15.8,0,0,1,19.38,0,11,11,0,0,1,3.72,8.56,11.25,11.25,0,0,1-3.72,8.71A13.88,13.88,0,0,1,678,313Zm11.51,87.53H666.18V325H689.5Z"/><path class="cls-3" d="M764.89,397.84q-7.89,4.57-22.8,4.58-17.42,0-28.2-10.56t-10.76-27.23q0-19.26,11.54-30.37t30.89-11.11q13.35,0,19.33,3.55v19.78A26.58,26.58,0,0,0,748.58,341q-10,0-15.9,5.87t-5.87,16.2q0,10,5.61,15.76t15.42,5.72a30.78,30.78,0,0,0,17-5.46Z"/><path class="cls-3" d="M828,346a20.21,20.21,0,0,0-9.8-2.29,14.15,14.15,0,0,0-11.89,5.58Q802,354.89,802,364.48v36.09H778.66V325H802v14h.3q5.54-15.34,19.92-15.35a14.76,14.76,0,0,1,5.75.89Z"/><path class="cls-3" d="M873.31,402.42q-18.9,0-29.71-10.59t-10.81-28.75q0-18.74,11.22-29.34t30.33-10.59q18.82,0,29.52,10.59t10.71,28q0,18.83-11,29.75T873.31,402.42ZM873.9,341q-8.26,0-12.84,5.69t-4.58,16.09q0,21.76,17.57,21.77,16.74,0,16.75-22.36Q890.8,341,873.9,341Z"/><path class="cls-3" d="M923.24,398.58V379.69a49.6,49.6,0,0,0,11.48,5.16,37.66,37.66,0,0,0,10.81,1.7c4.13,0,7.39-.56,9.78-1.7s3.57-2.85,3.57-5.16a4.77,4.77,0,0,0-1.62-3.69,14.94,14.94,0,0,0-4.17-2.59,48.69,48.69,0,0,0-5.57-2c-2-.59-4-1.25-5.83-2a55.21,55.21,0,0,1-7.93-3.65,23.11,23.11,0,0,1-5.76-4.54,17.92,17.92,0,0,1-3.54-6,23.92,23.92,0,0,1-1.22-8.05A20.68,20.68,0,0,1,926,336.29a22.48,22.48,0,0,1,7.38-7.49,33.73,33.73,0,0,1,10.55-4.28,55,55,0,0,1,12.36-1.37,68.34,68.34,0,0,1,10.19.78,75.49,75.49,0,0,1,10.18,2.25v18a37.08,37.08,0,0,0-9.49-3.88,39.92,39.92,0,0,0-9.92-1.29,21.9,21.9,0,0,0-4.31.41,14.14,14.14,0,0,0-3.59,1.18,6.52,6.52,0,0,0-2.43,2,4.58,4.58,0,0,0-.89,2.77,5.14,5.14,0,0,0,1.33,3.54,11.41,11.41,0,0,0,3.47,2.55,34.67,34.67,0,0,0,4.76,1.92c1.74.57,3.48,1.14,5.2,1.73a66.51,66.51,0,0,1,8.41,3.54,26.86,26.86,0,0,1,6.46,4.5,17.66,17.66,0,0,1,4.13,6.06A24.12,24.12,0,0,1,978.33,389a23.41,23.41,0,0,1-7.74,7.75,35.27,35.27,0,0,1-11.15,4.35,61.86,61.86,0,0,1-13.1,1.37A67.45,67.45,0,0,1,923.24,398.58Z"/><path class="cls-3" d="M1029.18,402.42q-18.88,0-29.71-10.59t-10.81-28.75q0-18.74,11.22-29.34t30.33-10.59q18.82,0,29.52,10.59t10.71,28q0,18.83-11,29.75T1029.18,402.42Zm.59-61.41q-8.26,0-12.84,5.69t-4.58,16.09q0,21.76,17.57,21.77,16.75,0,16.75-22.36Q1046.67,341,1029.77,341Z"/><path class="cls-3" d="M1133.35,306.55a23.57,23.57,0,0,0-8.64-1.77q-11.2,0-11.21,12.17V325h17.27v17.19H1113.5v58.38h-23.25V342.19h-12.69V325h12.69v-9.38q0-12.9,8.42-20.8t22.87-7.9a40,40,0,0,1,11.81,1.48Z"/><path class="cls-3" d="M1186.16,399.69q-5.16,2.73-15.57,2.73-24.66,0-24.66-25.61V342.19h-12.25V325h12.25V308.69l23.25-6.65v23h17v17.19h-17v30.56q0,11.81,9.38,11.81a15.77,15.77,0,0,0,7.6-2.14Z"/><path class="cls-3" d="M1239,397.1V376.81a40.9,40.9,0,0,0,24.79,7.75q8.94,0,13.91-3.84a12.75,12.75,0,0,0,5-10.7,12.15,12.15,0,0,0-6.16-10.92q-6.16-3.84-16.94-3.84h-9.51V337.4h8.78q20.66,0,20.66-13.73,0-12.92-15.87-12.92-10.62,0-20.66,6.87v-19q11.15-5.61,26-5.61,16.23,0,25.27,7.31a23.23,23.23,0,0,1,9,19q0,20.75-21,26v.37q11.22,1.41,17.71,8.15a23,23,0,0,1,6.5,16.57q0,14.83-10.85,23.47t-30,8.64Q1249.26,402.42,1239,397.1Z"/><path class="cls-3" d="M1388,295.85v19.48a34.89,34.89,0,0,0-17.56-4.58,23.1,23.1,0,0,0-18.93,9q-7.2,9-7.49,24h.44q7.6-11.21,22.22-11.21,13.27,0,21.06,9t7.8,23.84q0,15.94-10.34,26.49t-26.27,10.56q-17.87,0-27.9-12.92t-10-36.23q0-27.47,12.92-43.88T1368.94,293Q1381.18,293,1388,295.85Zm-29.22,53.95a12.68,12.68,0,0,0-10.22,4.5,17.2,17.2,0,0,0-3.8,11.51,22.41,22.41,0,0,0,3.87,13.25,12.55,12.55,0,0,0,20.34.59q3.76-4.9,3.76-12.8Q1372.7,349.8,1358.75,349.8Z"/><path class="cls-3" d="M1411.11,397.84V377.92a43.59,43.59,0,0,0,23.1,6.64q9.22,0,14.43-4.39t5.2-11.92q0-15.72-22.21-15.72a138.57,138.57,0,0,0-17.49,1.33V294.74h58.6v19h-38.68V335q4.65-.43,8.79-.44,16.31,0,25.53,8.56t9.23,23q0,16-11,26.16t-29.81,10.15Q1421.52,402.42,1411.11,397.84Z"/><path class="cls-3" d="M734.43,544.69q-9,4.77-22.5,4.77-17.38,0-27.84-11.19t-10.46-29.38q0-19.54,11.76-31.59t29.83-12.05q11.6,0,19.21,3.36v10.17a38.93,38.93,0,0,0-19.32-4.89q-14,0-22.76,9.38t-8.72,25.05q0,14.9,8.15,23.73t21.4,8.83q12.26,0,21.25-5.46Z"/><path class="cls-3" d="M814,548.09H770.8V466.62h41.36v8.63H780.35v27.11h29.42v8.58H780.35v28.52H814Z"/><path class="cls-3" d="M907.85,548.09H896.49l-13.64-22.83a49,49,0,0,0-3.63-5.43,21,21,0,0,0-3.61-3.67,12.84,12.84,0,0,0-4-2.07,16.19,16.19,0,0,0-4.8-.66H859v34.66h-9.54V466.62h24.31a34.68,34.68,0,0,1,9.86,1.33,22,22,0,0,1,7.84,4.07,18.84,18.84,0,0,1,5.2,6.79,22.51,22.51,0,0,1,1.88,9.51,22.79,22.79,0,0,1-1.29,7.82,20.18,20.18,0,0,1-3.63,6.33,22.1,22.1,0,0,1-5.68,4.75,29,29,0,0,1-7.47,3v.24a17,17,0,0,1,3.55,2.07,19.93,19.93,0,0,1,2.87,2.75,36.84,36.84,0,0,1,2.69,3.61c.89,1.34,1.89,2.91,3,4.69ZM859,475.25V504.8h13a19.6,19.6,0,0,0,6.62-1.08,15.36,15.36,0,0,0,5.26-3.1,14,14,0,0,0,3.46-4.94,16.61,16.61,0,0,0,1.25-6.56q0-6.53-4.23-10.2c-2.83-2.44-6.9-3.67-12.24-3.67Z"/><path class="cls-3" d="M981.78,475.25H958.26v72.84h-9.55V475.25H925.25v-8.63h56.53Z"/><path class="cls-3" d="M1023.89,548.09h-9.54V466.62h9.54Z"/><path class="cls-3" d="M1106.46,475.25h-31.82v28.19h29.43V512h-29.43v36.07h-9.55V466.62h41.37Z"/><path class="cls-3" d="M1151.24,548.09h-9.55V466.62h9.55Z"/><path class="cls-3" d="M1235.62,548.09h-43.18V466.62h41.37v8.63H1202v27.11h29.43v8.58H1202v28.52h33.63Z"/><path class="cls-3" d="M1271.09,548.09V466.62h22.49q43.08,0,43.07,39.71,0,18.87-12,30.32t-32,11.44Zm9.54-72.84v64.21h12.16q16,0,25-8.58t8.91-24.32q0-31.31-33.29-31.31Z"/><polygon class="cls-3" points="858.58 1519.13 887.24 1607.31 979.96 1607.31 904.94 1661.81 933.6 1750 858.58 1695.49 783.57 1750 812.22 1661.81 737.21 1607.31 829.93 1607.31 858.58 1519.13"/><polygon class="cls-3" points="1140.51 1519.13 1169.16 1607.31 1261.88 1607.31 1186.87 1661.81 1215.52 1750 1140.51 1695.49 1065.49 1750 1094.14 1661.81 1019.13 1607.31 1111.85 1607.31 1140.51 1519.13"/><path class="cls-4" d="M810.42,844.29q-16.51.63-33,1.37l4.14,92.53-18.7.87-4.5-92.51q-16.47.8-32.92,1.71l-.84-15.16q42.61-2.37,85.25-4Q810.13,836.7,810.42,844.29Z"/><path class="cls-4" d="M896.93,934.43q-31.65.65-63.27,1.71-1.83-53.86-3.64-107.75,31.07-1,62.13-1.7.17,7.59.32,15.18Q871,842.32,849.6,843q.45,15.25.91,30.51,19.63-.59,39.26-1c.1,5,.22,10.08.32,15.11q-19.56.43-39.13,1,.48,15.93.95,31.86,22.35-.66,44.71-1.12Q896.79,926.88,896.93,934.43Z"/><path class="cls-4" d="M1014.32,933.47q-10.26,0-20.52,0-5.07-13.71-10.2-27.43-22.3,0-44.61.31-4.74,13.77-9.43,27.56-10.21.15-20.44.32,20.14-54.27,41.25-108.37,10.77-.11,21.55-.15Q993.6,879.47,1014.32,933.47Zm-35.75-42q-8-21.48-16.07-42.93a46.1,46.1,0,0,1-1.57-6.75h-.32a42.45,42.45,0,0,1-1.55,6.78q-7.74,21.56-15.32,43.14Q961.16,891.49,978.57,891.43Z"/><path class="cls-4" d="M1154.1,936.12q-9.27-.32-18.55-.59l2.07-69.74q.26-8.56,1.75-20.94h-.32a70.24,70.24,0,0,1-3.42,10.06q-18.29,39.78-36,79.7-6.45-.15-12.9-.27Q1070.65,894,1054,853.8a73.15,73.15,0,0,1-2.91-10.78h-.32q.56,6.48.39,21.14-.4,34.8-.82,69.61-8.65-.1-17.3-.17.45-53.91.88-107.81,13.47.11,26.94.29,14.67,36.1,28.88,72.3a101.81,101.81,0,0,1,4.18,12.42h.39q3.1-8.43,5-12.52,16-35.41,32.44-70.71,13,.36,26,.8Q1155.92,882.24,1154.1,936.12Z"/><path class="cls-4" d="M1180.05,932.77l.72-18.41a29.92,29.92,0,0,0,6,4.31,49.26,49.26,0,0,0,7.48,3.35,63.55,63.55,0,0,0,8,2.26,46.19,46.19,0,0,0,7.38,1c7.89.35,13.81-.61,17.8-2.93a12.21,12.21,0,0,0,6.33-10.6,11.42,11.42,0,0,0-1.6-6.75,19.86,19.86,0,0,0-5.17-5.41,59,59,0,0,0-8-4.86q-4.61-2.36-9.9-4.93-5.67-3.18-10.55-6.4a47,47,0,0,1-8.43-7,28,28,0,0,1-5.49-8.46,25.62,25.62,0,0,1-1.69-10.83,23.7,23.7,0,0,1,4.16-13,29.75,29.75,0,0,1,10-8.85,45.41,45.41,0,0,1,13.84-4.82,68.28,68.28,0,0,1,15.67-1c12.07.57,20.76,2.32,26.16,5.16q-.46,8.82-.94,17.64c-6.26-4.75-14.55-7.39-24.81-7.88a47.22,47.22,0,0,0-8.48.35,25.68,25.68,0,0,0-7.64,2.14,16,16,0,0,0-5.61,4.19,10.37,10.37,0,0,0-2.36,6.45,11.72,11.72,0,0,0,1.33,6.3,16.51,16.51,0,0,0,4.45,5,49,49,0,0,0,7.3,4.58q4.34,2.28,10,5c3.87,2.14,7.53,4.37,10.94,6.71a51.73,51.73,0,0,1,8.93,7.61,31.37,31.37,0,0,1,5.88,9,24.29,24.29,0,0,1,1.75,11,25.94,25.94,0,0,1-4.22,13.63,27.41,27.41,0,0,1-9.81,8.67,43.1,43.1,0,0,1-13.73,4.43,80.76,80.76,0,0,1-16.18.82c-1.88-.09-4.2-.33-6.93-.73s-5.54-.91-8.4-1.56a83.62,83.62,0,0,1-8.09-2.25A26.26,26.26,0,0,1,1180.05,932.77Z"/><path class="cls-4" d="M451.62,1161.25q-9.78,1.17-19.57,2.39-6.53-13-13.11-26-21.27,2.7-42.51,5.58-2.82,14.22-5.59,28.46-9.73,1.35-19.46,2.73,12.5-56.23,26-112.41,10.28-1.38,20.56-2.69Q425.23,1110.11,451.62,1161.25Zm-39.27-37.49q-10.25-20.37-20.63-40.7a51.88,51.88,0,0,1-2.33-6.52l-.3,0a44.05,44.05,0,0,1-.65,6.91q-4.71,22.3-9.29,44.62Q395.76,1125.88,412.35,1123.76Z"/><path class="cls-4" d="M472.54,1158.79q-6.17-53.55-12.32-107.1,15.9-1.83,31.8-3.55c40.69-4.37,62.68,11.27,65.94,46.13q2.34,24.84-12.8,41.53c-10,11.15-24.31,17.66-42.82,19.66Q487.45,1157.08,472.54,1158.79Zm7.56-94.07q4.29,38.52,8.56,77L503,1140.2q18.9-2,28.38-13.41t7.64-30.23c-2.46-25.08-17-36.36-43.65-33.51Z"/><path class="cls-4" d="M704.9,1138.05q-8.89.57-17.77,1.17-2.36-34.82-4.7-69.62c-.37-5.7-.5-12.7-.33-21l-.31,0a73,73,0,0,1-2.31,10.33q-13.65,41.33-26.74,82.72l-12.34.94q-19.24-38.62-39-77.08a76.47,76.47,0,0,1-3.83-10.47l-.3,0q1.17,6.38,2.41,21,3,34.68,5.93,69.36L589,1146.9l-9.57-107.39q12.88-1.15,25.78-2.23,17.5,34.58,34.56,69.26a103.63,103.63,0,0,1,5.19,12l.38,0c1.43-5.79,2.64-10.1,3.59-12.93q11.88-36.75,24.21-73.44,12.44-.86,24.89-1.64Z"/><path class="cls-4" d="M756,1135.09q-9.22.48-18.45,1-3-53.82-6.07-107.64,9.45-.53,18.89-1Q753.21,1081.25,756,1135.09Z"/><path class="cls-4" d="M880.44,1130.29q-9.81.24-19.6.53-27-38.85-54.84-77.38a35.52,35.52,0,0,1-3.56-6.1l-.46,0q.75,3.42,1.23,14.77l2.91,70.62q-8.67.36-17.33.75l-4.86-107.71q10.7-.48,21.37-.91,27.11,37.61,53.36,75.54c2.23,3.14,3.63,5.31,4.28,6.49h.31a96.52,96.52,0,0,1-1.18-14.49q-1-34.71-2-69.44,8.83-.26,17.67-.47Q879.09,1076.39,880.44,1130.29Z"/><path class="cls-4" d="M931.77,1129.29l-18.47.29q-1-53.89-1.91-107.79l18.9-.3Q931,1075.39,931.77,1129.29Z"/><path class="cls-4" d="M959.56,1124.71q-.07-9.21-.14-18.42a28.43,28.43,0,0,0,6,4,45.65,45.65,0,0,0,7.32,3,57.48,57.48,0,0,0,7.72,1.89,40.44,40.44,0,0,0,7.11.66q11.36,0,16.91-3.75a12.33,12.33,0,0,0,5.6-10.89,11.75,11.75,0,0,0-1.84-6.66,19.14,19.14,0,0,0-5.19-5.16,53.68,53.68,0,0,0-7.87-4.48q-4.53-2.14-9.72-4.46c-3.7-2-7.17-3.93-10.38-5.91a45,45,0,0,1-8.4-6.62,27.91,27.91,0,0,1-5.63-8.19A26.33,26.33,0,0,1,958.9,1049a24.5,24.5,0,0,1,3.4-13.22,29.24,29.24,0,0,1,9.19-9.3,42.56,42.56,0,0,1,13.06-5.46,63.07,63.07,0,0,1,15-1.77q17.38,0,25.31,3.93l-.12,17.67q-9.35-6.67-24.12-6.71a42.78,42.78,0,0,0-8.13.75,24.11,24.11,0,0,0-7.23,2.48,15.57,15.57,0,0,0-5.17,4.45,10.81,10.81,0,0,0-2,6.55,12.31,12.31,0,0,0,1.56,6.24,16.27,16.27,0,0,0,4.49,4.8,46.77,46.77,0,0,0,7.2,4.23q4.24,2.07,9.82,4.48,5.73,2.94,10.79,6.2a50,50,0,0,1,8.89,7.18,31.33,31.33,0,0,1,6,8.72,25.3,25.3,0,0,1,2.16,10.88,25.55,25.55,0,0,1-12.44,22.93,40,40,0,0,1-13,5.07,73.24,73.24,0,0,1-15.45,1.57,64.7,64.7,0,0,1-6.68-.4c-2.63-.26-5.33-.66-8.1-1.17a73.45,73.45,0,0,1-7.85-1.87A25.08,25.08,0,0,1,959.56,1124.71Z"/><path class="cls-4" d="M1126.81,1038.12q-15.84-.45-31.69-.79-1,46.31-2,92.61-9-.2-17.95-.36.82-46.3,1.64-92.61-15.8-.29-31.61-.45.08-7.61.16-15.19,41,.45,81.88,1.61Q1127,1030.53,1126.81,1038.12Z"/><path class="cls-4" d="M1229.67,1134.94q-10.47-.54-20.94-1-8-14.84-16-29.63a61.15,61.15,0,0,0-4.3-7,26.9,26.9,0,0,0-4.37-4.81,15.25,15.25,0,0,0-5-2.84,21.14,21.14,0,0,0-6.13-1.07l-7.3-.27q-.81,21.85-1.63,43.72-8.93-.33-17.86-.63,1.78-53.87,3.59-107.75,18.21.6,36.41,1.35a53.39,53.39,0,0,1,14.26,2.42,33.12,33.12,0,0,1,11.16,6,25.56,25.56,0,0,1,7.15,9.44,28,28,0,0,1,2.1,12.87,30.86,30.86,0,0,1-2.23,10.39,27.14,27.14,0,0,1-5.3,8.25,30.11,30.11,0,0,1-7.92,6,38.7,38.7,0,0,1-10.2,3.61c0,.1,0,.2,0,.3a27.76,27.76,0,0,1,5,3.87c1.4,1.39,2.75,2.82,4,4.29a48.86,48.86,0,0,1,3.7,4.94c1.2,1.85,2.54,4,4,6.4Q1220.84,1119.32,1229.67,1134.94Zm-62.16-96.16q-.65,17.51-1.3,35,7.56.27,15.11.58a23,23,0,0,0,7.8-1,17.88,17.88,0,0,0,6.3-3.42,16.73,16.73,0,0,0,4.31-5.68,19.7,19.7,0,0,0,1.8-7.67c.23-5.16-1.24-9.27-4.45-12.32s-7.93-4.7-14.19-5Q1175.2,1039.07,1167.51,1038.78Z"/><path class="cls-4" d="M1337.1,1141.76l-19.65-1.44q-3.87-14-7.82-28-21.35-1.47-42.72-2.75-5.51,13.43-11,26.85l-19.59-1.08q23.09-52.76,47.12-105.28,10.33.65,20.65,1.33Q1321.1,1086.49,1337.1,1141.76Zm-31.25-44.37q-6.11-22-12.35-43.92a51,51,0,0,1-1-6.85l-.3,0a44.93,44.93,0,0,1-2,6.66q-8.92,21-17.71,42Q1289.17,1096.26,1305.85,1097.39Z"/><path class="cls-4" d="M1424.92,1056.2q-15.8-1.47-31.6-2.83-4,46.14-7.94,92.28-9-.76-17.9-1.5,3.8-46.15,7.58-92.32-15.78-1.29-31.55-2.48l1.14-15.14q40.86,3.07,81.68,6.86Z"/><path class="cls-4" d="M1476.11,1156.19c-15.52-1.65-27.42-7.9-35.8-18.85s-11.87-24.43-10.35-40.5c1.63-17.26,7.76-30.59,18.49-39.91s24.48-13.13,41.19-11.35q23.22,2.48,35.69,19.07c8.27,11,11.41,24.62,9.52,40.7-2.07,17.47-8.47,30.71-19.1,39.78S1491.91,1157.87,1476.11,1156.19Zm11-95.09q-15.09-1.61-25.68,8.45t-12.31,28q-1.74,17.88,6.21,29.71t22.55,13.37q15.51,1.66,25.64-7.72t12.28-28q2.2-19.22-5.45-30.66T1487.06,1061.1Z"/><path class="cls-4" d="M1637.25,1174.39q-10.41-1.48-20.81-2.91-6.6-15.49-13.33-31a59.84,59.84,0,0,0-3.66-7.35,27.71,27.71,0,0,0-3.92-5.18,15.51,15.51,0,0,0-4.69-3.27,21.13,21.13,0,0,0-6-1.62l-7.27-.93q-2.76,21.71-5.54,43.4-8.88-1.12-17.76-2.23l13.23-107q18.11,2.24,36.21,4.62a53.64,53.64,0,0,1,14,3.69,33.45,33.45,0,0,1,10.6,6.94,25.3,25.3,0,0,1,6.29,10.05,28.16,28.16,0,0,1,1,13,31,31,0,0,1-3.16,10.15,27.22,27.22,0,0,1-6,7.74,30,30,0,0,1-8.44,5.26,39.07,39.07,0,0,1-10.5,2.68,2.54,2.54,0,0,0,0,.29,27.34,27.34,0,0,1,4.65,4.31c1.29,1.51,2.49,3.06,3.61,4.62a51.22,51.22,0,0,1,3.25,5.26c1,1.94,2.17,4.18,3.41,6.74Q1629.83,1158,1637.25,1174.39ZM1583.83,1073l-4.44,34.75,15,2a23.14,23.14,0,0,0,7.87-.25,18,18,0,0,0,6.59-2.84,16.71,16.71,0,0,0,4.81-5.27,19.79,19.79,0,0,0,2.49-7.48q1-7.68-3.34-12.66t-13.72-6.22Z"/><path class="cls-3" d="M697.33,1454.91q-11.21.67-22.39,1.4-3.9-9.91-7.83-19.82-16.27,1.07-32.55,2.26-2.49,10.35-4.95,20.71-11.13.82-22.24,1.7,13-46.77,26.62-93.49,12.4-.89,24.81-1.72Q678.36,1410.35,697.33,1454.91Zm-36-33.85q-6-15-12-29.92a37.88,37.88,0,0,1-2.11-8.08l-.52,0a34.15,34.15,0,0,1-1.07,8q-3.95,15.78-7.83,31.56Q649.58,1421.85,661.33,1421.06Z"/><path class="cls-3" d="M716,1450.31q-.59-10.17-1.15-20.33a39.72,39.72,0,0,0,25.72,7.92,29.36,29.36,0,0,0,6.76-1.05,16.3,16.3,0,0,0,4.76-2.17,8.47,8.47,0,0,0,2.76-3.07,7.26,7.26,0,0,0,.79-3.7,7.84,7.84,0,0,0-1.77-4.69,16.4,16.4,0,0,0-4.38-3.67,44.28,44.28,0,0,0-6.49-3.12q-3.74-1.46-8.06-3-11-3.88-16.66-10a23.57,23.57,0,0,1-6.18-15.2,23.42,23.42,0,0,1,9.67-21.25,36.19,36.19,0,0,1,11.37-5.48,60.45,60.45,0,0,1,13.92-2.27,83.81,83.81,0,0,1,12.9.25,50.29,50.29,0,0,1,10.46,2.16l.85,19a31.35,31.35,0,0,0-5.19-2.57,42.68,42.68,0,0,0-17.06-2.75,28,28,0,0,0-6.43,1,16.72,16.72,0,0,0-4.81,2.12,9.52,9.52,0,0,0-3,3,6.75,6.75,0,0,0-.89,3.84,7.13,7.13,0,0,0,1.43,4,14,14,0,0,0,3.66,3.25,37.1,37.1,0,0,0,5.63,2.9c2.2.94,4.67,1.88,7.43,2.85a79.62,79.62,0,0,1,10.16,4.39,35,35,0,0,1,7.82,5.46,22.61,22.61,0,0,1,5.14,7.2A29.37,29.37,0,0,1,775,1438a23.67,23.67,0,0,1-7.5,8.75,34.41,34.41,0,0,1-11.34,5.15,68,68,0,0,1-13.83,2.09,79.44,79.44,0,0,1-14.34-.52A43,43,0,0,1,716,1450.31Z"/><path class="cls-3" d="M800.88,1446.24q-.4-10.17-.8-20.34a39.59,39.59,0,0,0,12.34,6.5,39.18,39.18,0,0,0,13.23,1.85,29.43,29.43,0,0,0,6.78-.93,16,16,0,0,0,4.79-2.09,8.47,8.47,0,0,0,2.82-3,7.32,7.32,0,0,0,.85-3.69,7.86,7.86,0,0,0-1.69-4.72,16.61,16.61,0,0,0-4.32-3.74,44,44,0,0,0-6.42-3.23c-2.48-1-5.14-2-8-3.1-7.3-2.71-12.78-6.13-16.49-10.28a23.6,23.6,0,0,1-5.91-15.3,23.35,23.35,0,0,1,10-21.08,36,36,0,0,1,11.45-5.28,60.4,60.4,0,0,1,14-2,82.88,82.88,0,0,1,12.91.47,50.88,50.88,0,0,1,10.41,2.34q.26,9.5.52,19a31.48,31.48,0,0,0-5.14-2.65,39.69,39.69,0,0,0-5.72-1.84,43,43,0,0,0-5.82-1,39.63,39.63,0,0,0-5.47-.21,28.47,28.47,0,0,0-6.45.88,16.55,16.55,0,0,0-4.85,2,9.53,9.53,0,0,0-3,3,6.77,6.77,0,0,0-1,3.82,7.22,7.22,0,0,0,1.37,4.06,13.86,13.86,0,0,0,3.6,3.31,38.45,38.45,0,0,0,5.58,3q3.27,1.46,7.38,3a80,80,0,0,1,10.08,4.56,35.31,35.31,0,0,1,7.72,5.6,22.65,22.65,0,0,1,5,7.28,25.88,25.88,0,0,1,1.93,9.65A26.18,26.18,0,0,1,860,1435a23.67,23.67,0,0,1-7.65,8.61,34.35,34.35,0,0,1-11.42,5,68,68,0,0,1-13.86,1.85,78.74,78.74,0,0,1-14.33-.76A43.41,43.41,0,0,1,800.88,1446.24Z"/><path class="cls-3" d="M928.65,1448q-19.62.27-32.22-12.21t-13.12-33q-.49-21.63,12-35.25c8.31-9.08,19.54-13.74,33.6-13.92q19.92-.27,32.3,12.46t12.41,33.65q.09,21.51-12.39,34.74T928.65,1448Zm-.14-76.66c-7.32.1-13.12,2.9-17.32,8.37s-6.23,12.68-6.06,21.58,2.44,16.15,6.79,21.33a20.58,20.58,0,0,0,16.87,7.63c7.12-.1,12.72-2.71,16.85-7.86s6.17-12.26,6.09-21.34c-.09-9.46-2.18-16.8-6.33-22S935.62,1371.2,928.51,1371.29Z"/><path class="cls-3" d="M1066.19,1443.17c-6.72,3.13-15.44,4.62-26.17,4.53-14-.13-25-4.28-33-12.53s-12.06-19.2-12.06-32.9q0-21.88,13.75-35.48t35.81-13.4q13.63.13,22.92,3.65-.15,9.89-.28,19.78a40.78,40.78,0,0,0-21.13-5.73q-13.07-.12-21.12,7.91t-8.1,21.85q-.06,13.25,7.39,21.13t20.09,8a43.44,43.44,0,0,0,22.19-5.59Z"/><path class="cls-3" d="M1114.37,1447.33l-20.57-.45q.9-45.6,1.81-91.21,10.47.21,21,.46Z"/><path class="cls-3" d="M1227.13,1451.33q-11.2-.52-22.41-1-2.81-10.27-5.66-20.55-16.29-.66-32.59-1.23-3.59,10-7.13,20.07-11.14-.37-22.28-.69,17.93-45.12,36.45-90.11,12.4.43,24.83.94Q1213,1405,1227.13,1451.33Zm-32.17-37.5q-4.32-15.52-8.7-31a39.07,39.07,0,0,1-1.24-8.26l-.52,0a34.13,34.13,0,0,1-1.91,7.89q-5.61,15.25-11.16,30.53Q1183.21,1413.36,1195,1413.83Z"/><path class="cls-3" d="M1309.86,1381.25q-13.2-.82-26.41-1.58l-4.26,74.37q-10.31-.58-20.62-1.14,2-37.2,4-74.39-13.14-.71-26.28-1.33.4-8.36.8-16.71,36.95,1.77,73.86,4.08Z"/><path class="cls-3" d="M1383.85,1461.16q-27.31-2.15-54.66-4,3.09-45.51,6.15-91,26.78,1.8,53.54,3.9-.66,8.34-1.31,16.68-16.24-1.27-32.51-2.44-.72,10.13-1.45,20.24,15.06,1.08,30.13,2.26l-1.29,16.61q-15-1.15-30-2.24-.73,10.41-1.49,20.81,17.13,1.23,34.24,2.58Q1384.52,1452.86,1383.85,1461.16Z"/></svg>