<svg id="Layer_1" data-name="Layer 1" xmlns="http://www.w3.org/2000/svg" viewBox="0 0 2000 2000"><defs><style>.cls-1{fill:#3a96dd;}.cls-2{fill:#505050;}.cls-3{fill:#0064b5;}.cls-4{fill:#fff;}.cls-5{fill:#282828;}</style></defs><path class="cls-1" d="M1000,10a149.2,149.2,0,0,0-43.11,6.36L398.14,185A142.38,142.38,0,0,0,296.3,322.13v949.14c0,242.84,82.05,327.38,239.29,467.71,153.69,137.16,428.51,238,440.14,242.2L1000,1990l24.27-8.82c11.63-4.23,286.45-105,440.14-242.2,157.24-140.33,239.29-224.87,239.29-467.71V322.13A142.38,142.38,0,0,0,1601.86,185L1043.11,16.36A149.2,149.2,0,0,0,1000,10Z"/><path class="cls-2" d="M1581.33,253.07,1022.56,84.4a78.54,78.54,0,0,0-45.12,0L418.67,253.07a72.13,72.13,0,0,0-51.28,69.05V999.57H1632.61V322.12A72.13,72.13,0,0,0,1581.33,253.07Z"/><path class="cls-3" d="M367.39,1271.28c0,214,64.55,279.94,215.51,414.67,145.27,129.64,417.1,228.42,417.1,228.42s271.83-98.78,417.1-228.42c151-134.73,215.51-200.7,215.51-414.67V999.57H367.39Z"/><path class="cls-2" d="M1000,656.84c-300.5,0-593.32,25.46-870.34,75.68A102.73,102.73,0,0,0,47.27,854.08c25.46,125.27,54.59,278.35,74.23,390a113.27,113.27,0,0,0,111.74,93.78,114.58,114.58,0,0,0,23.46-2.44C354,1315,621.31,1267.58,1000,1267.58s646,47.43,743.31,67.82a114.42,114.42,0,0,0,23.45,2.44,113.27,113.27,0,0,0,111.74-93.78c19.64-111.64,48.77-264.72,74.23-390a102.73,102.73,0,0,0-82.39-121.56c-277-50.22-569.84-75.68-870.34-75.68Z"/><path class="cls-4" d="M1000,1230.27c315.15,0,582.57,33.34,751,68.61a76.19,76.19,0,0,0,90.8-61.28c20.68-117.62,50.24-272,74.41-390.95a65.42,65.42,0,0,0-52.49-77.42c-166.56-30.2-465-75.08-863.68-75.08h0c-398.71,0-697.12,44.88-863.68,75.08a65.42,65.42,0,0,0-52.49,77.42C108,965.58,137.56,1120,158.24,1237.6a76.19,76.19,0,0,0,90.8,61.28c168.39-35.27,435.81-68.61,751-68.61Z"/><polygon class="cls-4" points="858.58 1519.13 887.24 1607.31 979.96 1607.31 904.94 1661.81 933.6 1750 858.58 1695.49 783.57 1750 812.22 1661.81 737.21 1607.31 829.93 1607.31 858.58 1519.13"/><polygon class="cls-4" points="1140.51 1519.13 1169.16 1607.31 1261.88 1607.31 1186.87 1661.81 1215.52 1750 1140.51 1695.49 1065.49 1750 1094.14 1661.81 1019.13 1607.31 1111.85 1607.31 1140.51 1519.13"/><path class="cls-4" d="M697.33,1454.91q-11.21.67-22.39,1.4-3.9-9.91-7.83-19.82-16.27,1.08-32.55,2.26-2.49,10.35-4.95,20.71-11.13.82-22.24,1.7,13-46.77,26.62-93.49,12.4-.89,24.81-1.72Q678.36,1410.35,697.33,1454.91Zm-36-33.85q-6-15-12-29.92a38,38,0,0,1-2.11-8.08l-.52,0a34.2,34.2,0,0,1-1.06,8q-4,15.78-7.84,31.56Q649.58,1421.85,661.33,1421.06Z"/><path class="cls-4" d="M716,1450.31q-.59-10.17-1.15-20.33a39.52,39.52,0,0,0,12.45,6.29,39.07,39.07,0,0,0,13.27,1.63,30,30,0,0,0,6.76-1.05,15.93,15.93,0,0,0,4.76-2.17,8.55,8.55,0,0,0,2.76-3.07,7.13,7.13,0,0,0,.79-3.7,7.88,7.88,0,0,0-1.77-4.69,16.4,16.4,0,0,0-4.38-3.67,43.31,43.31,0,0,0-6.49-3.12q-3.74-1.46-8.06-3c-7.33-2.59-12.9-5.91-16.66-10a23.62,23.62,0,0,1-6.18-15.2,23.42,23.42,0,0,1,9.67-21.25,35.87,35.87,0,0,1,11.37-5.48,60.54,60.54,0,0,1,13.92-2.27,85.06,85.06,0,0,1,12.9.25,50,50,0,0,1,10.46,2.16q.43,9.49.85,19a31.35,31.35,0,0,0-5.19-2.57,40.53,40.53,0,0,0-5.75-1.73,42.85,42.85,0,0,0-5.84-.91,40.59,40.59,0,0,0-5.47-.11,28.63,28.63,0,0,0-6.43,1,16.72,16.72,0,0,0-4.81,2.12,9.28,9.28,0,0,0-3,3,6.67,6.67,0,0,0-.9,3.84,7.14,7.14,0,0,0,1.44,4,13.81,13.81,0,0,0,3.65,3.25,37.58,37.58,0,0,0,5.63,2.9c2.2.94,4.68,1.88,7.43,2.85a79.62,79.62,0,0,1,10.16,4.39,34.71,34.71,0,0,1,7.82,5.46,22.73,22.73,0,0,1,5.14,7.2A29.49,29.49,0,0,1,775,1438a23.76,23.76,0,0,1-7.5,8.75,34.5,34.5,0,0,1-11.34,5.15,68,68,0,0,1-13.83,2.09,78.53,78.53,0,0,1-14.34-.52A43.39,43.39,0,0,1,716,1450.31Z"/><path class="cls-4" d="M800.88,1446.24q-.4-10.17-.8-20.34a39.67,39.67,0,0,0,25.57,8.35,29.51,29.51,0,0,0,6.78-.93,15.61,15.61,0,0,0,4.79-2.09,8.47,8.47,0,0,0,2.82-3,7.32,7.32,0,0,0,.85-3.69,7.9,7.9,0,0,0-1.69-4.72,16.63,16.63,0,0,0-4.32-3.74,43.53,43.53,0,0,0-6.42-3.23c-2.48-1-5.15-2-8-3.1q-11-4.07-16.49-10.28a23.5,23.5,0,0,1-5.91-15.3,23.35,23.35,0,0,1,10-21.08,35.79,35.79,0,0,1,11.45-5.28,59.87,59.87,0,0,1,14-2,85.34,85.34,0,0,1,12.9.47,50.83,50.83,0,0,1,10.42,2.34q.26,9.5.52,19a32.75,32.75,0,0,0-5.14-2.66,40.51,40.51,0,0,0-5.72-1.83,43.2,43.2,0,0,0-11.29-1.21,28.47,28.47,0,0,0-6.45.88,16.82,16.82,0,0,0-4.85,2,9.66,9.66,0,0,0-3,3,6.76,6.76,0,0,0-1,3.82,7.14,7.14,0,0,0,1.36,4.06,13.85,13.85,0,0,0,3.6,3.31,37.51,37.51,0,0,0,5.58,3c2.18,1,4.64,2,7.38,3a80,80,0,0,1,10.08,4.56,35.39,35.39,0,0,1,7.72,5.6,22.54,22.54,0,0,1,5,7.28A29.38,29.38,0,0,1,860,1435a23.63,23.63,0,0,1-7.64,8.61,34.46,34.46,0,0,1-11.42,5,68.68,68.68,0,0,1-13.86,1.85,78.69,78.69,0,0,1-14.33-.76A43,43,0,0,1,800.88,1446.24Z"/><path class="cls-4" d="M928.65,1448c-13.08.18-23.79-3.88-32.22-12.21s-12.82-19.32-13.12-33q-.49-21.63,12-35.26t33.6-13.91q19.92-.27,32.3,12.46t12.41,33.65q.1,21.51-12.39,34.74T928.65,1448Zm-.14-76.66q-11,.15-17.31,8.37t-6.07,21.58q.24,13.54,6.79,21.33a20.62,20.62,0,0,0,16.87,7.63q10.66-.14,16.85-7.86t6.09-21.34q-.13-14.19-6.33-22T928.51,1371.29Z"/><path class="cls-4" d="M1066.19,1443.17c-6.71,3.13-15.44,4.62-26.17,4.53-14-.13-25-4.28-33-12.53s-12.06-19.2-12.06-32.9c0-14.59,4.54-26.42,13.75-35.48s21.14-13.54,35.81-13.4q13.62.13,22.92,3.65-.15,9.89-.28,19.78a40.78,40.78,0,0,0-21.13-5.73c-8.71-.08-15.77,2.56-21.12,7.92s-8.06,12.64-8.1,21.84q0,13.23,7.39,21.13c5,5.27,11.65,7.92,20.09,8a43.44,43.44,0,0,0,22.19-5.59Z"/><path class="cls-4" d="M1114.37,1447.33q-10.29-.24-20.57-.45.9-45.6,1.81-91.21,10.47.21,21,.46Z"/><path class="cls-4" d="M1227.13,1451.33q-11.2-.52-22.41-1-2.81-10.27-5.66-20.55-16.29-.66-32.59-1.23-3.59,10-7.13,20.07-11.14-.37-22.28-.69,17.91-45.12,36.45-90.11,12.42.43,24.83.94Q1213,1405,1227.13,1451.33Zm-32.17-37.5q-4.32-15.52-8.7-31a39.07,39.07,0,0,1-1.24-8.26l-.52,0a34.65,34.65,0,0,1-1.91,7.89q-5.61,15.25-11.16,30.53Q1183.21,1413.36,1195,1413.83Z"/><path class="cls-4" d="M1309.86,1381.25q-13.2-.82-26.41-1.58l-4.26,74.37q-10.31-.58-20.62-1.14l4-74.39q-13.14-.71-26.28-1.33.39-8.36.8-16.71,36.95,1.77,73.86,4.08Z"/><path class="cls-4" d="M1383.86,1461.16q-27.33-2.15-54.67-4l6.15-91q26.78,1.81,53.54,3.91-.66,8.34-1.31,16.68-16.24-1.27-32.51-2.44-.74,10.13-1.45,20.24,15.06,1.08,30.13,2.26l-1.29,16.61q-15-1.15-30-2.24-.75,10.41-1.49,20.81,17.11,1.23,34.24,2.58Q1384.52,1452.86,1383.86,1461.16Z"/><path class="cls-4" d="M734.43,544.69q-9,4.77-22.5,4.77-17.38,0-27.84-11.19t-10.46-29.38q0-19.54,11.76-31.59t29.83-12.05q11.6,0,19.21,3.36v10.17a38.93,38.93,0,0,0-19.32-4.89q-14,0-22.76,9.38t-8.72,25.05q0,14.9,8.15,23.73t21.4,8.83q12.26,0,21.25-5.46Z"/><path class="cls-4" d="M814,548.1H770.8V466.62h41.36v8.63H780.35v27.11h29.42v8.58H780.35v28.52H814Z"/><path class="cls-4" d="M907.85,548.1H896.49l-13.64-22.84a49,49,0,0,0-3.63-5.43,21,21,0,0,0-3.61-3.67,12.84,12.84,0,0,0-4-2.07,16.2,16.2,0,0,0-4.8-.65H859V548.1h-9.54V466.62h24.31a34.68,34.68,0,0,1,9.86,1.33,22,22,0,0,1,7.84,4.07,18.84,18.84,0,0,1,5.2,6.79,22.51,22.51,0,0,1,1.88,9.51,22.79,22.79,0,0,1-1.29,7.82,20.18,20.18,0,0,1-3.63,6.33,22.1,22.1,0,0,1-5.68,4.75,28.66,28.66,0,0,1-7.47,3v.24a17,17,0,0,1,3.55,2.07,19.93,19.93,0,0,1,2.87,2.75,36.84,36.84,0,0,1,2.69,3.61q1.33,2,3,4.69ZM859,475.25V504.8h13a19.6,19.6,0,0,0,6.62-1.08,15.36,15.36,0,0,0,5.26-3.1,14,14,0,0,0,3.46-4.94,16.61,16.61,0,0,0,1.25-6.56q0-6.53-4.23-10.2c-2.83-2.44-6.9-3.67-12.24-3.67Z"/><path class="cls-4" d="M981.78,475.25H958.26V548.1h-9.55V475.25H925.25v-8.63h56.53Z"/><path class="cls-4" d="M1023.89,548.1h-9.54V466.62h9.54Z"/><path class="cls-4" d="M1106.46,475.25h-31.82v28.19h29.43V512h-29.43V548.1h-9.55V466.62h41.37Z"/><path class="cls-4" d="M1151.24,548.1h-9.55V466.62h9.55Z"/><path class="cls-4" d="M1235.62,548.1h-43.18V466.62h41.37v8.63H1202v27.11h29.43v8.58H1202v28.52h33.63Z"/><path class="cls-4" d="M1271.09,548.1V466.62h22.49q43.08,0,43.07,39.71,0,18.87-12,30.32t-32,11.45Zm9.54-72.85v64.21h12.16q16,0,25-8.58t8.91-24.32q0-31.31-33.29-31.31Z"/><path class="cls-4" d="M788.23,400.57H764.69V337.25q0-10.26.88-22.65H765a112.39,112.39,0,0,1-3.31,14l-24.8,72H717.38l-25.24-71.22q-1-2.88-3.32-14.75h-.66q.95,15.64,1,27.45v58.52H667.64V294.74h34.91l21.62,62.73a89,89,0,0,1,3.77,15.13h.44a152.86,152.86,0,0,1,4.21-15.28l21.62-62.58h34Z"/><path class="cls-4" d="M820.3,313.05a13.61,13.61,0,0,1-9.67-3.51,11.29,11.29,0,0,1-3.76-8.6,10.9,10.9,0,0,1,3.76-8.56,15.79,15.79,0,0,1,19.37,0,10.94,10.94,0,0,1,3.73,8.56,11.22,11.22,0,0,1-3.73,8.71A13.84,13.84,0,0,1,820.3,313.05Zm11.51,87.52H808.49V325h23.32Z"/><path class="cls-4" d="M907.2,397.84q-7.89,4.57-22.8,4.58-17.42,0-28.19-10.56t-10.78-27.23q0-19.26,11.55-30.37t30.89-11.11q13.35,0,19.33,3.55v19.78A26.6,26.6,0,0,0,890.89,341q-10,0-15.9,5.87t-5.87,16.2q0,10,5.61,15.76t15.43,5.72a30.78,30.78,0,0,0,17-5.46Z"/><path class="cls-4" d="M970.27,346a20.32,20.32,0,0,0-9.82-2.29,14.16,14.16,0,0,0-11.88,5.58q-4.27,5.56-4.28,15.16v36.09H921V325h23.33v14h.29q5.53-15.34,19.93-15.35a14.85,14.85,0,0,1,5.76.89Z"/><path class="cls-4" d="M1015.62,402.42q-18.9,0-29.71-10.59T975.1,363.08q0-18.74,11.22-29.34t30.33-10.59q18.81,0,29.52,10.59t10.7,28q0,18.83-11,29.75T1015.62,402.42Zm.59-61.41q-8.26,0-12.84,5.69t-4.58,16.09q0,21.76,17.57,21.77,16.74,0,16.75-22.36Q1033.11,341,1016.21,341Z"/><path class="cls-4" d="M1065.54,398.58V379.69a49.78,49.78,0,0,0,11.48,5.16,37.76,37.76,0,0,0,10.81,1.7c4.14,0,7.39-.56,9.78-1.7s3.58-2.85,3.58-5.16a4.77,4.77,0,0,0-1.62-3.69,15.08,15.08,0,0,0-4.17-2.59,49.38,49.38,0,0,0-5.57-2c-2-.59-4-1.25-5.84-2a56.24,56.24,0,0,1-7.93-3.65,23.11,23.11,0,0,1-5.76-4.54,17.82,17.82,0,0,1-3.54-6,23.92,23.92,0,0,1-1.22-8.05,20.77,20.77,0,0,1,2.77-10.92,22.67,22.67,0,0,1,7.38-7.49,33.79,33.79,0,0,1,10.56-4.28,55,55,0,0,1,12.36-1.37,69.36,69.36,0,0,1,10.18.78,76,76,0,0,1,10.19,2.25v18a37.23,37.23,0,0,0-9.49-3.88,40,40,0,0,0-9.92-1.29,22,22,0,0,0-4.32.41,13.93,13.93,0,0,0-3.58,1.18,6.64,6.64,0,0,0-2.44,2,4.57,4.57,0,0,0-.88,2.77,5.08,5.08,0,0,0,1.33,3.54,11.29,11.29,0,0,0,3.47,2.55,34.67,34.67,0,0,0,4.76,1.92c1.74.57,3.48,1.14,5.2,1.73a70.26,70.26,0,0,1,8.41,3.54,27.35,27.35,0,0,1,6.46,4.5,17.66,17.66,0,0,1,4.13,6.06,24.23,24.23,0,0,1-1.47,19.74,23.44,23.44,0,0,1-7.75,7.75,35.17,35.17,0,0,1-11.15,4.35,61.08,61.08,0,0,1-13.1,1.37A67.54,67.54,0,0,1,1065.54,398.58Z"/><path class="cls-4" d="M1171.49,402.42q-18.88,0-29.7-10.59T1131,363.08q0-18.74,11.21-29.34t30.34-10.59q18.81,0,29.51,10.59t10.71,28q0,18.83-11,29.75T1171.49,402.42Zm.6-61.41q-8.28,0-12.85,5.69t-4.57,16.09q0,21.76,17.56,21.77,16.76,0,16.75-22.36Q1189,341,1172.09,341Z"/><path class="cls-4" d="M1275.66,306.55a23.52,23.52,0,0,0-8.63-1.77q-11.22,0-11.22,12.17V325h17.27v17.19h-17.27v58.38h-23.25V342.19h-12.69V325h12.69v-9.38q0-12.9,8.42-20.8t22.88-7.9a39.93,39.93,0,0,1,11.8,1.48Z"/><path class="cls-4" d="M1328.47,399.69q-5.16,2.73-15.57,2.73-24.66,0-24.65-25.61V342.19H1276V325h12.25V308.69l23.25-6.64V325h17v17.19h-17v30.56q0,11.81,9.37,11.81a15.77,15.77,0,0,0,7.6-2.14Z"/><path class="cls-5" d="M298.78,939.4l5.37,38.73q-9.21,1.27-18.39,2.58Q278.15,927.34,270.57,874q17.22-2.46,34.47-4.79,19.57-2.65,31.48,4.56t13.84,22.78q2,15.6-7.89,26.94t-28.76,13.89Zm-7.41-53.47q2.7,19.52,5.41,39l12.07-1.66c8-1.08,13.85-3.66,17.58-7.74s5.17-9.32,4.32-15.74C329.12,887.24,320.54,882,305,884.05Z"/><path class="cls-5" d="M428,964.35c-16.07,1.82-29.49-1.65-40.4-10.48s-17.38-21.23-19.37-37.24q-3.21-25.82,9.93-43c8.78-11.46,21.84-18.22,39.12-20.17,16-1.81,29.45,1.79,40.24,10.73s17,21.49,18.64,37.6q2.68,26.26-10.5,43C456.9,956,444.38,962.49,428,964.35Zm-9.9-95.2q-15.62,1.77-24.09,13.91t-6.29,30.05q2.16,17.85,12.83,27.63t25.77,8.06q16.06-1.81,24.22-13.2t6.21-30.08q-2-19.21-12.29-28.7T418.1,869.15Z"/><path class="cls-5" d="M636.6,835.21Q624.69,890.08,613.44,945q-10.49.79-21,1.64-13.65-36.74-27.63-73.4a49.31,49.31,0,0,1-2.54-10.35l-.32,0a49,49,0,0,1-1,10.5Q553.34,912,546,950.57q-10.71,1-21.42,2-20.66-52.2-42-104.25,10.38-1,20.76-2,14.1,38.29,27.9,76.67a54.13,54.13,0,0,1,2.51,10.18l.4,0a55.72,55.72,0,0,1,1.25-10.53q7.93-40.37,16.24-80.7l19.49-1.65q14.12,38.74,27.87,77.56a58.31,58.31,0,0,1,2.4,9.47l.32,0a55.92,55.92,0,0,1,1-10q6.95-40.27,14.19-80.54Q626.79,835.9,636.6,835.21Z"/><path class="cls-5" d="M725.63,937.75q-31.43,1.68-62.82,3.75l-7.1-107.58q30.81-2,61.62-3.69l.81,15.16q-21.25,1.15-42.52,2.47,1,15.23,1.9,30.47,19.47-1.22,39-2.28.4,7.55.82,15.09-19.42,1.07-38.83,2.27l2,31.82q22.18-1.4,44.38-2.57Z"/><path class="cls-5" d="M835.26,933.1q-10.86.35-21.72.73-9.46-14.1-19-28.18a59.32,59.32,0,0,0-5-6.61,28.12,28.12,0,0,0-4.91-4.42,16,16,0,0,0-5.34-2.41,22.51,22.51,0,0,0-6.42-.56l-7.56.34q1,21.85,2,43.71-9.26.42-18.5.87l-5.25-107.69q18.82-.92,37.64-1.69A57.05,57.05,0,0,1,796,828.4a35,35,0,0,1,12,5,25.76,25.76,0,0,1,8.16,8.81,27.5,27.5,0,0,1,3.26,12.65A29.75,29.75,0,0,1,818,865.4a27.33,27.33,0,0,1-4.76,8.67,30.87,30.87,0,0,1-7.67,6.63,40.35,40.35,0,0,1-10.22,4.45c0,.1,0,.2,0,.31a28.89,28.89,0,0,1,5.51,3.43q2.36,1.9,4.48,3.93a49.43,49.43,0,0,1,4.23,4.62c1.4,1.74,3,3.74,4.66,6Q824.82,918.27,835.26,933.1ZM763,842.49q.78,17.5,1.58,35l15.64-.68a24.6,24.6,0,0,0,8-1.6,18.82,18.82,0,0,0,6.22-3.94,16.87,16.87,0,0,0,4-6,19.48,19.48,0,0,0,1.21-7.8q-.3-7.74-5.62-11.89t-15-3.76Q771,842.13,763,842.49Z"/><path class="cls-5" d="M916.61,892.1q.28,19.54.59,39.09-9.27.13-18.52.31l-2-107.79q17.37-.33,34.73-.54,19.71-.24,30.61,8.37c7.27,5.71,10.9,13.83,10.93,24.3s-3.67,19.06-11.1,25.77-17.46,10.12-30.17,10.28Zm-.82-54q.29,19.7.59,39.39l12.17-.17q12.08-.15,18.34-5.54t6.21-15.09c-.1-12.68-8-19-23.55-18.78Z"/><path class="cls-5" d="M1057.45,931q-31-.39-62-.41,0-53.91,0-107.81,9.49,0,19,0l-.39,92.7q21.8.09,43.58.37Q1057.53,923.46,1057.45,931Z"/><path class="cls-5" d="M1173,933.82q-10.2-.36-20.39-.68-4.6-13.87-9.26-27.74-22.14-.66-44.3-1.13-5.16,13.62-10.26,27.25-10.15-.19-20.31-.35,21.78-53.58,44.46-107,10.69.25,21.39.54Q1154.1,879.21,1173,933.82Zm-34.18-43.15q-7.21-21.72-14.57-43.42a47.19,47.19,0,0,1-1.34-6.8h-.32a41.48,41.48,0,0,1-1.76,6.73q-8.36,21.3-16.59,42.63Q1121.51,890.18,1138.8,890.67Z"/><path class="cls-5" d="M1256.84,844.78q-16.36-.85-32.75-1.59-2.1,46.26-4.18,92.53-9.3-.42-18.59-.8l3.84-92.55q-16.34-.68-32.69-1.25.27-7.59.53-15.18,42.33,1.48,84.63,3.67Q1257.22,837.2,1256.84,844.78Z"/><path class="cls-5" d="M1338.3,849.63q-21.3-1.44-42.59-2.7l-1.92,32.35q19.51,1.15,39,2.46-.51,7.53-1,15.08-19.44-1.3-38.89-2.46l-2.67,45q-9.29-.54-18.57-1.06l6-107.65q30.86,1.71,61.69,3.8Z"/><path class="cls-5" d="M1401.07,949c-16.11-1.31-28.6-7.3-37.58-18.07s-13-24.18-11.81-40.28c1.22-17.3,7.19-30.75,18-40.31s24.94-13.66,42.25-12.25c16,1.32,28.53,7.43,37.4,18.3s12.51,24.37,11,40.49q-2.43,26.28-18.6,40.2T1401.07,949Zm8.64-95.32c-10.42-.86-19.21,2.16-26.3,9s-11.05,16.29-12,28.28,1.54,21.8,7.25,29.57,13.6,12.07,23.7,12.89q16.1,1.32,26.3-8.28t11.9-28.31q1.71-19.26-6.52-30.54C1428.6,858.77,1420.45,854.56,1409.71,853.68Z"/><path class="cls-5" d="M1565.17,963.27q-10.82-1.23-21.62-2.43-7.32-15.33-14.76-30.64a59.46,59.46,0,0,0-4-7.27,27.65,27.65,0,0,0-4.22-5.09,16.23,16.23,0,0,0-5-3.16,22.89,22.89,0,0,0-6.27-1.48l-7.54-.76q-2.21,21.76-4.39,43.53-9.23-.93-18.45-1.82,5.2-53.65,10.42-107.31,18.76,1.81,37.53,3.78A57.15,57.15,0,0,1,1541.5,854a35.26,35.26,0,0,1,11.16,6.7,25.66,25.66,0,0,1,6.81,9.9,27.2,27.2,0,0,1,1.39,13,29.36,29.36,0,0,1-2.94,10.23,27,27,0,0,1-6,7.88,30.89,30.89,0,0,1-8.56,5.45,40.94,40.94,0,0,1-10.77,2.92l0,.3a29.52,29.52,0,0,1,5,4.2c1.37,1.48,2.67,3,3.88,4.54a50.93,50.93,0,0,1,3.52,5.19q1.69,2.87,3.74,6.65Q1557,947.09,1565.17,963.27Zm-58.4-100.13q-1.76,17.43-3.52,34.86,7.8.78,15.59,1.6a24.75,24.75,0,0,0,8.13-.44,18.78,18.78,0,0,0,6.73-3,16.61,16.61,0,0,0,4.8-5.38,19.07,19.07,0,0,0,2.33-7.54c.56-5.13-.73-9.34-3.85-12.59s-7.9-5.22-14.35-5.9C1517.34,864.22,1512.06,863.67,1506.77,863.14Z"/><path class="cls-5" d="M1700.91,980.71q-9.15-1.31-18.3-2.57l9.57-69.11q1.18-8.49,4-20.63l-.32,0a70.61,70.61,0,0,1-4.47,9.63q-22.38,37.59-44.24,75.36l-12.73-1.65q-11.55-41.82-23.65-83.59a72.17,72.17,0,0,1-1.7-11l-.32,0q-.13,6.48-1.91,21.05-4.2,34.54-8.39,69.11l-17.1-2.05q6.32-53.53,12.62-107.07,13.3,1.57,26.6,3.21,10.56,37.47,20.71,75a101.45,101.45,0,0,1,2.79,12.79l.39.06c2.66-5.38,4.78-9.34,6.32-11.92q19.67-33.48,39.74-66.81,12.79,1.75,25.59,3.58Q1708.51,927.34,1700.91,980.71Z"/><path class="cls-5" d="M649.38,1120.5l-19.63,1.44q-5.88-13.32-11.81-26.62-21.33,1.65-42.65,3.48-3.51,14.09-7,28.16-9.78.86-19.54,1.76,15.23-55.54,31.36-111,10.3-.86,20.6-1.68Q625.5,1068.16,649.38,1120.5ZM612,1081.15q-9.22-20.85-18.58-41.66a49,49,0,0,1-2-6.63l-.31,0a43.43,43.43,0,0,1-1,6.87q-5.77,22-11.42,44.11Q595.39,1082.45,612,1081.15Z"/><path class="cls-5" d="M685.74,1078.88q1.23,19.5,2.47,39-8.93.55-17.84,1.16-3.6-53.79-7.19-107.58,16.73-1.12,33.47-2.12,19-1.14,29.94,6.95t11.71,23.77q.83,15.7-9.46,26.25T700.23,1078Q693,1078.43,685.74,1078.88Zm-3.4-53.88q1.24,19.66,2.48,39.32l11.72-.72q11.65-.7,17.43-6.38t5.26-15.36c-.7-12.66-8.58-18.58-23.62-17.68Z"/><path class="cls-5" d="M782.81,1073.72q.84,19.53,1.69,39.06-8.93.39-17.85.8-2.52-53.83-5-107.69,16.75-.79,33.5-1.46c12.67-.51,22.62,2,29.79,7.55s10.89,13.53,11.23,24-3,19.15-10,26.06-16.58,10.59-28.82,11.08Q790.06,1073.41,782.81,1073.72Zm-2.32-53.93q.84,19.68,1.69,39.36l11.73-.49q11.65-.48,17.55-6t5.56-15.25c-.44-12.67-8.2-18.75-23.25-18.15Z"/><path class="cls-5" d="M1027.67,1108.4l-17.79-.1.24-69.77q0-8.57,1.14-21h-.3a71.77,71.77,0,0,1-3,10.14q-16.51,40.24-32.5,80.61l-12.36.06q-16.41-39.9-33.37-79.68a74.77,74.77,0,0,1-3.05-10.71h-.31q.7,6.46.9,21.12.46,34.8.94,69.61-8.29.12-16.58.26-.92-53.91-1.82-107.8,12.9-.23,25.81-.37,14.94,35.73,29.46,71.55a103.31,103.31,0,0,1,4.31,12.3h.38q2.76-8.51,4.5-12.65,14.43-35.8,29.3-71.53,12.45,0,24.89.12Q1028.06,1054.48,1027.67,1108.4Z"/><path class="cls-5" d="M1149.22,1110.79q-9.84-.32-19.67-.6-4.47-13.85-9-27.69-21.37-.57-42.75-.93-4.93,13.64-9.82,27.28-9.8-.15-19.59-.26,20.85-53.67,42.6-107.16,10.32.2,20.64.45Q1130.88,1056.26,1149.22,1110.79Zm-33.08-43q-7-21.69-14.18-43.35a53,53,0,0,1-1.31-6.8h-.3a44,44,0,0,1-1.69,6.73q-8,21.33-15.89,42.7Q1099.47,1067.37,1116.14,1067.79Z"/><path class="cls-5" d="M1252,1115.18q-11.67-.62-23.34-1.19-17.59-25.54-35.57-51a27.34,27.34,0,0,1-2.44-3.86h-.31l-2.13,53q-9-.36-17.93-.69,2-53.88,3.94-107.74,9.16.33,18.33.7l-2,50.63h.3a24.13,24.13,0,0,1,2.74-3.57q19.3-22.72,39-45.3,11,.53,21.93,1.11-23,24.67-45.61,49.58Q1230.63,1086,1252,1115.18Z"/><path class="cls-5" d="M1331.2,1120.07q-30.29-2.11-60.59-3.85,3.09-53.82,6.17-107.64,29.74,1.71,59.48,3.77-.52,7.57-1.06,15.15-20.51-1.43-41-2.68l-1.86,30.47q18.8,1.15,37.58,2.44-.53,7.55-1,15.08-18.72-1.29-37.46-2.43-1,15.9-1.94,31.82,21.4,1.3,42.8,2.8Z"/><path class="cls-5" d="M1439.83,1128.9q-10.44-1-20.89-1.89-7.34-15.13-14.77-30.26a60.73,60.73,0,0,0-4-7.16,27.42,27.42,0,0,0-4.16-5,15.42,15.42,0,0,0-4.83-3,21.07,21.07,0,0,0-6.08-1.33l-7.28-.58q-1.72,21.81-3.44,43.63l-17.83-1.38q4.05-53.75,8.09-107.51,18.13,1.36,36.28,2.86a53.59,53.59,0,0,1,14.14,3,33.48,33.48,0,0,1,10.89,6.41,25.53,25.53,0,0,1,6.75,9.74,28.13,28.13,0,0,1,1.57,12.93,30.32,30.32,0,0,1-2.66,10.29,27,27,0,0,1-5.62,8,30,30,0,0,1-8.16,5.67,38.92,38.92,0,0,1-10.34,3.18c0,.1,0,.2,0,.3a28.43,28.43,0,0,1,4.85,4.07c1.35,1.45,2.63,2.93,3.82,4.45a49.07,49.07,0,0,1,3.49,5.09q1.7,2.83,3.73,6.56Q1431.65,1112.92,1439.83,1128.9Zm-58.13-98.63q-1.38,17.46-2.75,34.93,7.53.58,15.06,1.21a22.91,22.91,0,0,0,7.84-.63,18.07,18.07,0,0,0,6.43-3.16,16.63,16.63,0,0,0,4.54-5.5,19.73,19.73,0,0,0,2.11-7.59q.66-7.72-3.94-12.48t-14-5.55Z"/></svg>