<svg id="Layer_1" data-name="Layer 1" xmlns="http://www.w3.org/2000/svg" viewBox="0 0 2000 2000"><defs><style>.cls-1{fill:#3a96dd;}.cls-2{fill:#505050;}.cls-3{fill:#0064b5;}.cls-4{fill:#fff;}.cls-5{fill:#282828;}</style></defs><path class="cls-1" d="M1000,10a149.2,149.2,0,0,0-43.11,6.36L398.14,185A142.38,142.38,0,0,0,296.3,322.13v949.14c0,242.84,82.05,327.38,239.29,467.71,153.69,137.16,428.51,238,440.14,242.2L1000,1990l24.27-8.82c11.63-4.23,286.45-105,440.14-242.2,157.24-140.33,239.29-224.87,239.29-467.71V322.13A142.38,142.38,0,0,0,1601.86,185L1043.11,16.36A149.2,149.2,0,0,0,1000,10Z"/><path class="cls-2" d="M1581.33,253.07,1022.56,84.4a78.54,78.54,0,0,0-45.12,0L418.67,253.07a72.13,72.13,0,0,0-51.28,69.05V999.57H1632.61V322.12A72.13,72.13,0,0,0,1581.33,253.07Z"/><path class="cls-3" d="M367.39,1271.28c0,214,64.55,279.94,215.51,414.67,145.27,129.64,417.1,228.42,417.1,228.42s271.83-98.78,417.1-228.42c151-134.73,215.51-200.7,215.51-414.67V999.57H367.39Z"/><path class="cls-2" d="M1000,656.84c-300.5,0-593.32,25.46-870.34,75.68A102.73,102.73,0,0,0,47.27,854.08c25.46,125.27,54.59,278.35,74.23,390a113.27,113.27,0,0,0,111.74,93.78,114.58,114.58,0,0,0,23.46-2.44C354,1315,621.31,1267.58,1000,1267.58s646,47.43,743.31,67.82a114.42,114.42,0,0,0,23.45,2.44,113.27,113.27,0,0,0,111.74-93.78c19.64-111.64,48.77-264.72,74.23-390a102.73,102.73,0,0,0-82.39-121.56c-277-50.22-569.84-75.68-870.34-75.68Z"/><path class="cls-4" d="M1000,1230.27c315.15,0,582.57,33.34,751,68.61a76.19,76.19,0,0,0,90.8-61.28c20.68-117.62,50.24-272,74.41-390.95a65.42,65.42,0,0,0-52.49-77.42c-166.56-30.2-465-75.08-863.68-75.08h0c-398.71,0-697.12,44.88-863.68,75.08a65.42,65.42,0,0,0-52.49,77.42C108,965.58,137.56,1120,158.24,1237.6a76.19,76.19,0,0,0,90.8,61.28c168.39-35.27,435.81-68.61,751-68.61Z"/><polygon class="cls-4" points="858.58 1519.13 887.24 1607.31 979.96 1607.31 904.94 1661.81 933.6 1750 858.58 1695.49 783.57 1750 812.22 1661.81 737.21 1607.31 829.93 1607.31 858.58 1519.13"/><polygon class="cls-4" points="1140.51 1519.13 1169.16 1607.31 1261.88 1607.31 1186.87 1661.81 1215.52 1750 1140.51 1695.49 1065.49 1750 1094.14 1661.81 1019.13 1607.31 1111.85 1607.31 1140.51 1519.13"/><path class="cls-4" d="M697.33,1454.91q-11.21.67-22.39,1.4-3.9-9.91-7.83-19.82-16.27,1.08-32.55,2.26-2.49,10.35-4.95,20.71-11.13.82-22.24,1.7,13-46.77,26.62-93.49,12.4-.89,24.81-1.72Q678.36,1410.35,697.33,1454.91Zm-36-33.85q-6-15-12-29.92a37.88,37.88,0,0,1-2.11-8.08l-.52,0a34.15,34.15,0,0,1-1.07,8q-3.95,15.78-7.83,31.56Q649.58,1421.85,661.33,1421.06Z"/><path class="cls-4" d="M716,1450.31q-.59-10.17-1.15-20.33a39.72,39.72,0,0,0,25.72,7.92,29.36,29.36,0,0,0,6.76-1.05,16.3,16.3,0,0,0,4.76-2.17,8.47,8.47,0,0,0,2.76-3.07,7.23,7.23,0,0,0,.79-3.7,7.84,7.84,0,0,0-1.77-4.69,16.4,16.4,0,0,0-4.38-3.67,44.28,44.28,0,0,0-6.49-3.12q-3.74-1.46-8.06-3-11-3.87-16.66-10a23.57,23.57,0,0,1-6.18-15.2,23.42,23.42,0,0,1,9.67-21.25,36.19,36.19,0,0,1,11.37-5.48,60.45,60.45,0,0,1,13.92-2.27,85.09,85.09,0,0,1,12.9.25,51.62,51.62,0,0,1,10.46,2.16q.43,9.49.85,19a31.35,31.35,0,0,0-5.19-2.57,40.93,40.93,0,0,0-5.75-1.73,42.61,42.61,0,0,0-5.84-.91,40.59,40.59,0,0,0-5.47-.11,28,28,0,0,0-6.43,1,16.72,16.72,0,0,0-4.81,2.12,9.62,9.62,0,0,0-3,3,6.75,6.75,0,0,0-.89,3.84,7.13,7.13,0,0,0,1.43,4,14.23,14.23,0,0,0,3.66,3.26,38.06,38.06,0,0,0,5.63,2.89c2.2.93,4.67,1.88,7.43,2.85a79.62,79.62,0,0,1,10.16,4.39,34.42,34.42,0,0,1,7.82,5.47,22.46,22.46,0,0,1,5.14,7.19A29.37,29.37,0,0,1,775,1438a23.67,23.67,0,0,1-7.5,8.75,34.41,34.41,0,0,1-11.34,5.15,68,68,0,0,1-13.83,2.09,78.53,78.53,0,0,1-14.34-.52A43.39,43.39,0,0,1,716,1450.31Z"/><path class="cls-4" d="M800.88,1446.24q-.4-10.17-.8-20.34a39.38,39.38,0,0,0,12.34,6.5,38.93,38.93,0,0,0,13.23,1.85,29.43,29.43,0,0,0,6.78-.93,15.72,15.72,0,0,0,4.79-2.09,8.47,8.47,0,0,0,2.82-3,7.32,7.32,0,0,0,.85-3.69,7.83,7.83,0,0,0-1.69-4.72,16.61,16.61,0,0,0-4.32-3.74,44,44,0,0,0-6.42-3.23c-2.48-1-5.14-2-8-3.1-7.3-2.71-12.78-6.13-16.49-10.28a23.6,23.6,0,0,1-5.91-15.3,23.35,23.35,0,0,1,10-21.08,36.22,36.22,0,0,1,11.45-5.28,60.4,60.4,0,0,1,14-2,85.42,85.42,0,0,1,12.91.47,50.88,50.88,0,0,1,10.41,2.34q.26,9.51.52,19a31.48,31.48,0,0,0-5.14-2.65,39.69,39.69,0,0,0-5.72-1.84,41.46,41.46,0,0,0-5.82-1,39.63,39.63,0,0,0-5.47-.21,28.47,28.47,0,0,0-6.45.88,16.28,16.28,0,0,0-4.85,2,9.53,9.53,0,0,0-3,3,6.79,6.79,0,0,0-1,3.82,7.2,7.2,0,0,0,1.37,4.06,13.86,13.86,0,0,0,3.6,3.31,37.51,37.51,0,0,0,5.58,3c2.18,1,4.64,2,7.38,3a80,80,0,0,1,10.08,4.56,35.64,35.64,0,0,1,7.72,5.6,22.65,22.65,0,0,1,5,7.28,25.88,25.88,0,0,1,1.93,9.65A26.16,26.16,0,0,1,860,1435a23.67,23.67,0,0,1-7.65,8.61,34.55,34.55,0,0,1-11.42,5,68.68,68.68,0,0,1-13.86,1.85,78.74,78.74,0,0,1-14.33-.76A43.77,43.77,0,0,1,800.88,1446.24Z"/><path class="cls-4" d="M928.65,1448q-19.62.27-32.22-12.21t-13.12-33q-.49-21.63,12-35.25c8.31-9.08,19.54-13.74,33.6-13.92q19.92-.27,32.3,12.46t12.41,33.65q.09,21.49-12.39,34.74T928.65,1448Zm-.14-76.66c-7.32.1-13.12,2.9-17.32,8.38s-6.23,12.67-6.06,21.57,2.44,16.14,6.79,21.33a20.58,20.58,0,0,0,16.87,7.63c7.12-.09,12.72-2.71,16.85-7.86s6.17-12.25,6.09-21.34c-.09-9.46-2.18-16.8-6.33-22S935.62,1371.19,928.51,1371.29Z"/><path class="cls-4" d="M1066.19,1443.17c-6.72,3.13-15.44,4.62-26.17,4.53-14-.13-25-4.28-33-12.53s-12.06-19.2-12.06-32.9q0-21.88,13.75-35.48t35.81-13.4q13.63.13,22.92,3.65-.15,9.89-.28,19.78a40.87,40.87,0,0,0-21.13-5.73q-13.07-.12-21.12,7.92t-8.1,21.84q-.06,13.23,7.39,21.13c5,5.27,11.66,7.92,20.09,8a43.54,43.54,0,0,0,22.19-5.59Z"/><path class="cls-4" d="M1114.37,1447.33l-20.57-.45q.9-45.6,1.81-91.21,10.47.21,21,.46Z"/><path class="cls-4" d="M1227.13,1451.33q-11.2-.52-22.41-1-2.81-10.27-5.66-20.55-16.29-.66-32.59-1.23-3.59,10-7.13,20.07-11.14-.37-22.28-.69,17.93-45.12,36.45-90.11,12.4.45,24.83.94Q1213,1405,1227.13,1451.33Zm-32.17-37.5q-4.32-15.52-8.7-31a39,39,0,0,1-1.24-8.26l-.52,0a34.13,34.13,0,0,1-1.91,7.89q-5.61,15.25-11.16,30.53Q1183.21,1413.36,1195,1413.83Z"/><path class="cls-4" d="M1309.86,1381.25q-13.2-.82-26.41-1.58l-4.26,74.37q-10.31-.58-20.62-1.14,2-37.2,4-74.39-13.14-.71-26.28-1.33.4-8.36.8-16.71,36.95,1.77,73.86,4.08Z"/><path class="cls-4" d="M1383.85,1461.16q-27.31-2.15-54.66-4,3.09-45.51,6.15-91,26.78,1.8,53.54,3.9-.66,8.34-1.31,16.68-16.24-1.27-32.51-2.44-.72,10.13-1.45,20.24,15.06,1.1,30.13,2.26l-1.29,16.61q-15-1.15-30-2.24-.73,10.41-1.49,20.81,17.13,1.23,34.24,2.58Q1384.52,1452.86,1383.85,1461.16Z"/><path class="cls-4" d="M734.43,544.69q-9,4.77-22.5,4.77-17.38,0-27.84-11.19t-10.46-29.38q0-19.54,11.76-31.59t29.83-12.05q11.6,0,19.21,3.36v10.17a38.93,38.93,0,0,0-19.32-4.89q-14,0-22.76,9.38t-8.72,25.05q0,14.9,8.15,23.73t21.4,8.83q12.26,0,21.25-5.46Z"/><path class="cls-4" d="M814,548.1H770.8V466.62h41.36v8.63H780.35v27.11h29.42v8.58H780.35v28.52H814Z"/><path class="cls-4" d="M907.85,548.1H896.49l-13.64-22.84a49,49,0,0,0-3.63-5.43,21,21,0,0,0-3.61-3.67,12.84,12.84,0,0,0-4-2.07,16.2,16.2,0,0,0-4.8-.65H859V548.1h-9.54V466.62h24.31a34.68,34.68,0,0,1,9.86,1.33,22,22,0,0,1,7.84,4.07,18.84,18.84,0,0,1,5.2,6.79,22.51,22.51,0,0,1,1.88,9.51,22.79,22.79,0,0,1-1.29,7.82,20.18,20.18,0,0,1-3.63,6.33,22.1,22.1,0,0,1-5.68,4.75,28.66,28.66,0,0,1-7.47,3v.24a17,17,0,0,1,3.55,2.07,19.93,19.93,0,0,1,2.87,2.75,36.84,36.84,0,0,1,2.69,3.61q1.33,2,3,4.69ZM859,475.25V504.8h13a19.6,19.6,0,0,0,6.62-1.08,15.36,15.36,0,0,0,5.26-3.1,14,14,0,0,0,3.46-4.94,16.61,16.61,0,0,0,1.25-6.56q0-6.53-4.23-10.2c-2.83-2.44-6.9-3.67-12.24-3.67Z"/><path class="cls-4" d="M981.78,475.25H958.26V548.1h-9.55V475.25H925.25v-8.63h56.53Z"/><path class="cls-4" d="M1023.89,548.1h-9.54V466.62h9.54Z"/><path class="cls-4" d="M1106.46,475.25h-31.82v28.19h29.43V512h-29.43V548.1h-9.55V466.62h41.37Z"/><path class="cls-4" d="M1151.24,548.1h-9.55V466.62h9.55Z"/><path class="cls-4" d="M1235.62,548.1h-43.18V466.62h41.37v8.63H1202v27.11h29.43v8.58H1202v28.52h33.63Z"/><path class="cls-4" d="M1271.09,548.1V466.62h22.49q43.08,0,43.07,39.71,0,18.87-12,30.32t-32,11.45Zm9.54-72.85v64.21h12.16q16,0,25-8.58t8.91-24.32q0-31.31-33.29-31.31Z"/><path class="cls-4" d="M788.23,400.57H764.69V337.25q0-10.26.88-22.65H765a112.39,112.39,0,0,1-3.31,14l-24.8,72H717.38l-25.24-71.22q-1-2.88-3.32-14.75h-.66q.95,15.64,1,27.45v58.52H667.64V294.74h34.91l21.62,62.73a89,89,0,0,1,3.77,15.13h.44a152.86,152.86,0,0,1,4.21-15.28l21.62-62.58h34Z"/><path class="cls-4" d="M820.3,313.05a13.61,13.61,0,0,1-9.67-3.51,11.29,11.29,0,0,1-3.76-8.6,10.9,10.9,0,0,1,3.76-8.56,15.79,15.79,0,0,1,19.37,0,10.94,10.94,0,0,1,3.73,8.56,11.22,11.22,0,0,1-3.73,8.71A13.84,13.84,0,0,1,820.3,313.05Zm11.51,87.52H808.49V325h23.32Z"/><path class="cls-4" d="M907.2,397.84q-7.89,4.57-22.8,4.58-17.42,0-28.19-10.56t-10.78-27.23q0-19.26,11.55-30.37t30.89-11.11q13.35,0,19.33,3.55v19.78A26.6,26.6,0,0,0,890.89,341q-10,0-15.9,5.87t-5.87,16.2q0,10,5.61,15.76t15.43,5.72a30.78,30.78,0,0,0,17-5.46Z"/><path class="cls-4" d="M970.27,346a20.32,20.32,0,0,0-9.82-2.29,14.16,14.16,0,0,0-11.88,5.58q-4.27,5.56-4.28,15.16v36.09H921V325h23.33v14h.29q5.53-15.34,19.93-15.35a14.85,14.85,0,0,1,5.76.89Z"/><path class="cls-4" d="M1015.62,402.42q-18.9,0-29.71-10.59T975.1,363.08q0-18.74,11.22-29.34t30.33-10.59q18.81,0,29.52,10.59t10.7,28q0,18.83-11,29.75T1015.62,402.42Zm.59-61.41q-8.26,0-12.84,5.69t-4.58,16.09q0,21.76,17.57,21.77,16.74,0,16.75-22.36Q1033.11,341,1016.21,341Z"/><path class="cls-4" d="M1065.54,398.58V379.69a49.78,49.78,0,0,0,11.48,5.16,37.76,37.76,0,0,0,10.81,1.7c4.14,0,7.39-.56,9.78-1.7s3.58-2.85,3.58-5.16a4.77,4.77,0,0,0-1.62-3.69,15.08,15.08,0,0,0-4.17-2.59,49.38,49.38,0,0,0-5.57-2c-2-.59-4-1.25-5.84-2a56.24,56.24,0,0,1-7.93-3.65,23.11,23.11,0,0,1-5.76-4.54,17.82,17.82,0,0,1-3.54-6,23.92,23.92,0,0,1-1.22-8.05,20.77,20.77,0,0,1,2.77-10.92,22.67,22.67,0,0,1,7.38-7.49,33.79,33.79,0,0,1,10.56-4.28,55,55,0,0,1,12.36-1.37,69.36,69.36,0,0,1,10.18.78,76,76,0,0,1,10.19,2.25v18a37.23,37.23,0,0,0-9.49-3.88,40,40,0,0,0-9.92-1.29,22,22,0,0,0-4.32.41,13.93,13.93,0,0,0-3.58,1.18,6.64,6.64,0,0,0-2.44,2,4.57,4.57,0,0,0-.88,2.77,5.08,5.08,0,0,0,1.33,3.54,11.29,11.29,0,0,0,3.47,2.55,34.67,34.67,0,0,0,4.76,1.92c1.74.57,3.48,1.14,5.2,1.73a70.26,70.26,0,0,1,8.41,3.54,27.35,27.35,0,0,1,6.46,4.5,17.66,17.66,0,0,1,4.13,6.06,24.23,24.23,0,0,1-1.47,19.74,23.44,23.44,0,0,1-7.75,7.75,35.17,35.17,0,0,1-11.15,4.35,61.08,61.08,0,0,1-13.1,1.37A67.54,67.54,0,0,1,1065.54,398.58Z"/><path class="cls-4" d="M1171.49,402.42q-18.88,0-29.7-10.59T1131,363.08q0-18.74,11.21-29.34t30.34-10.59q18.81,0,29.51,10.59t10.71,28q0,18.83-11,29.75T1171.49,402.42Zm.6-61.41q-8.28,0-12.85,5.69t-4.57,16.09q0,21.76,17.56,21.77,16.76,0,16.75-22.36Q1189,341,1172.09,341Z"/><path class="cls-4" d="M1275.66,306.55a23.52,23.52,0,0,0-8.63-1.77q-11.22,0-11.22,12.17V325h17.27v17.19h-17.27v58.38h-23.25V342.19h-12.69V325h12.69v-9.38q0-12.9,8.42-20.8t22.88-7.9a39.93,39.93,0,0,1,11.8,1.48Z"/><path class="cls-4" d="M1328.47,399.69q-5.16,2.73-15.57,2.73-24.66,0-24.65-25.61V342.19H1276V325h12.25V308.69l23.25-6.64V325h17v17.19h-17v30.56q0,11.81,9.37,11.81a15.77,15.77,0,0,0,7.6-2.14Z"/><path class="cls-5" d="M475.73,914.29l2.64,28.45L465,944q-3.75-39.21-7.49-78.43,12.44-1.18,24.89-2.32c9.4-.85,16.91.6,22.45,4.34s8.65,9.44,9.3,17.07a24.23,24.23,0,0,1-6.46,19.42q-7.44,8-21.14,9.22ZM472.07,875l2.67,28.67c2.91-.28,5.83-.54,8.75-.81q8.68-.79,12.89-5.09T500,886.43c-.82-9.23-6.81-13.36-18-12.33Z"/><path class="cls-5" d="M570.63,936.24c-11.66.89-21.27-2-28.92-8.8s-12-16-12.94-27.76q-1.57-18.95,8.35-31.12T565.75,855c11.52-.88,21.09,2.1,28.64,8.91s11.73,16.12,12.54,27.92Q608.27,911,598.35,923T570.63,936.24Zm-4.7-69.79c-7.5.57-13.41,3.74-17.67,9.48s-6,13-5.34,21.76,3.55,15.58,8.5,20.54,11.08,7.17,18.39,6.61q11.66-.89,17.84-9t5.2-21.81q-1-14.09-8.15-21.28T565.93,866.45Z"/><path class="cls-5" d="M726,846.34q-9.37,39.88-18.45,79.8c-5.07.26-10.15.53-15.21.81q-9.23-27.09-18.59-54.16a36.11,36.11,0,0,1-1.63-7.61l-.23,0a37.49,37.49,0,0,1-.94,7.65q-6.23,28-12.3,56l-15.54,1q-13.82-38.6-28-77.12,7.49-.51,15-1,9.32,28.29,18.47,56.63a41.37,41.37,0,0,1,1.61,7.5l.28,0a42.31,42.31,0,0,1,1.12-7.67q6.57-29.29,13.3-58.59l14-.81q9.44,28.59,18.7,57.2a45.79,45.79,0,0,1,1.56,7l.23,0a41,41,0,0,1,.92-7.31Q706,876.32,711.89,847Z"/><path class="cls-5" d="M791.18,922.44q-22.77.84-45.53,1.86l-3.54-78.71q22.15-1,44.33-1.82c.14,3.7.28,7.39.41,11.09q-15.32.57-30.62,1.22.46,11.14.94,22.29,14.05-.6,28.11-1.13l.42,11q-14,.53-28.06,1.13.51,11.64,1,23.27,16.07-.67,32.14-1.27C790.91,915.08,791,918.76,791.18,922.44Z"/><path class="cls-5" d="M872.91,920l-15.72.37q-6.75-10.38-13.54-20.75a40.87,40.87,0,0,0-3.57-4.87,20.32,20.32,0,0,0-3.51-3.28,11.64,11.64,0,0,0-3.83-1.82,16.43,16.43,0,0,0-4.63-.46l-5.46.16q.5,16,1,32l-13.41.44Q808.91,882.4,807.6,843q13.53-.45,27.07-.84a40.73,40.73,0,0,1,10.72,1A25,25,0,0,1,854,847a18.76,18.76,0,0,1,5.8,6.5,20.26,20.26,0,0,1,2.25,9.26,22,22,0,0,1-1.09,7.7,19.88,19.88,0,0,1-3.5,6.29,22.44,22.44,0,0,1-5.59,4.79,28.84,28.84,0,0,1-7.41,3.16c0,.08,0,.15,0,.22a20.6,20.6,0,0,1,3.94,2.56q1.68,1.41,3.21,2.91a37.22,37.22,0,0,1,3,3.42c1,1.27,2.12,2.76,3.33,4.44Q865.46,909.11,872.91,920Zm-51.39-66.84q.4,12.8.8,25.59l11.28-.34a17.4,17.4,0,0,0,5.76-1.09,13.47,13.47,0,0,0,4.52-2.82,12.23,12.23,0,0,0,2.91-4.37,14.05,14.05,0,0,0,.93-5.68,11.06,11.06,0,0,0-4-8.75c-2.54-2.05-6.14-3-10.79-2.88Z"/><path class="cls-5" d="M936.6,890.4q.15,14.28.31,28.57-6.72.06-13.42.16-.51-39.39-1-78.78,12.48-.17,25-.28,14.18-.12,22,6.17T977.28,864a24.17,24.17,0,0,1-8,18.82q-8.06,7.35-21.8,7.46ZM936.17,851q.17,14.4.31,28.79l8.77-.09c5.83,0,10.23-1.38,13.26-4s4.51-6.29,4.49-11c0-9.26-5.7-13.87-16.92-13.76Z"/><path class="cls-5" d="M1040.79,918.81q-22.46-.16-44.93-.17,0-39.39,0-78.78,6.84,0,13.66,0l-.15,67.74q15.76,0,31.53.16Z"/><path class="cls-5" d="M1126.79,920.14l-14.76-.32q-3.43-10.11-6.91-20.2-16-.3-32-.52-3.66,10-7.29,20l-14.71-.16q15.57-39.24,31.57-78.4,7.68.11,15.38.25Q1112.62,880.41,1126.79,920.14Zm-25.06-31.24q-5.37-15.82-10.8-31.63a34.83,34.83,0,0,1-1-5h-.23a31.13,31.13,0,0,1-1.23,4.92q-5.88,15.63-11.71,31.26Q1089.24,888.67,1101.73,888.9Z"/><path class="cls-5" d="M1188.71,854.19q-11.79-.41-23.58-.75l-2,67.66-13.47-.38q.91-33.84,1.84-67.67-11.76-.31-23.53-.59c.09-3.7.17-7.4.26-11.09q30.43.69,60.87,1.73C1189,846.79,1188.84,850.49,1188.71,854.19Z"/><path class="cls-5" d="M1249.72,856.58q-15.35-.69-30.68-1.28l-.93,23.65q14.09.56,28.17,1.18c-.17,3.68-.33,7.35-.49,11q-14.05-.61-28.11-1.17l-1.29,32.94-13.45-.51q1.44-39.36,2.89-78.73,22.2.81,44.38,1.8C1250.05,849.19,1249.88,852.88,1249.72,856.58Z"/><path class="cls-5" d="M1299.1,928.1q-17.52-.95-27.52-12.47t-9.21-29.21q.89-19,12.29-29.77t30.15-9.78c11.53.62,20.64,4.82,27.24,12.55s9.53,17.51,8.81,29.31q-1.17,19.24-12.56,29.8T1299.1,928.1Zm4.4-69.8q-11.28-.62-18.75,7.1c-5,5.14-7.67,12.11-8.11,20.88s1.49,15.9,5.75,21.47a22.38,22.38,0,0,0,17.39,9q11.65.63,18.83-6.61t8-20.94q.83-14.1-5.33-22.16C1317.18,861.63,1311.24,858.71,1303.5,858.3Z"/><path class="cls-5" d="M1420.47,934.66q-7.85-.6-15.7-1.17-5.7-11-11.45-22a42,42,0,0,0-3.08-5.21,20,20,0,0,0-3.17-3.6,11.54,11.54,0,0,0-3.65-2.18,16.16,16.16,0,0,0-4.56-.92l-5.45-.37q-1.07,16-2.14,31.91-6.69-.45-13.38-.88l5.07-78.63q13.53.89,27,1.81a41.47,41.47,0,0,1,10.56,2.07,24.7,24.7,0,0,1,8.18,4.58,18.55,18.55,0,0,1,5.15,7,20.07,20.07,0,0,1,1.35,9.44,22.1,22.1,0,0,1-1.85,7.55,20,20,0,0,1-4.1,5.92,22.5,22.5,0,0,1-6,4.22,29,29,0,0,1-7.69,2.42c0,.08,0,.15,0,.22a20,20,0,0,1,3.68,2.94c1,1,2,2.11,2.91,3.21a34.79,34.79,0,0,1,2.67,3.69c.87,1.36,1.83,3,2.88,4.75Q1414.11,923.08,1420.47,934.66Zm-44.64-71.55-1.71,25.55,11.27.77a17.46,17.46,0,0,0,5.84-.53,13.27,13.27,0,0,0,4.77-2.37,11.92,11.92,0,0,0,3.32-4.06,14.07,14.07,0,0,0,1.49-5.56,11,11,0,0,0-3.08-9.09c-2.32-2.29-5.81-3.61-10.46-3.93Z"/><path class="cls-5" d="M1521.43,943.23c-4.43-.41-8.87-.83-13.31-1.23q2.33-25.39,4.66-50.78c.39-4.16,1.1-9.22,2.19-15.19l-.23,0a51.4,51.4,0,0,1-2.9,7.18q-14.88,28.21-29.5,56.5l-9.26-.79q-9.61-30.17-19.5-60.28a52.2,52.2,0,0,1-1.53-8l-.23,0c0,3.17-.21,8.31-.78,15.43q-2.05,25.35-4.09,50.71l-12.42-1,6.15-78.54q9.6.75,19.18,1.53,8.66,27,17.1,54.08a78.14,78.14,0,0,1,2.41,9.25l.28,0q2.63-6,4.19-8.91,13.14-25.08,26.49-50.1l18.48,1.71Q1525.12,904,1521.43,943.23Z"/><path class="cls-5" d="M262.47,1048.14q-14.85,2-29.69,4.07,1.65,11.73,3.28,23.45,13.62-1.9,27.24-3.74.75,5.47,1.48,10.95-13.59,1.83-27.19,3.73,2.29,16.32,4.57,32.65l-13,1.83-11.1-78q21.47-3,43-5.94Q261.74,1042.65,262.47,1048.14Z"/><path class="cls-5" d="M348.13,1073.39c2.61,22-6.53,34.17-27.4,36.78-20,2.51-31.36-6.71-34.14-27.82l-6.24-47.78,13.22-1.71q2.9,22.56,5.78,45.13,3,23,20.95,20.71,17.34-2.15,14.64-24.33-2.79-23-5.59-46,6.61-.81,13.23-1.59Z"/><path class="cls-5" d="M443.14,1094.93l-14.27,1.48q-21.81-26.84-44-53.48a24.92,24.92,0,0,1-2.9-4.27l-.33,0a85.44,85.44,0,0,1,1.65,10.71l5.76,51.32-12.61,1.43-9-78.27,15.4-1.75q21.57,26,42.75,52.23c1.79,2.18,2.94,3.67,3.47,4.5l.22,0a70.35,70.35,0,0,1-1.65-10.49q-2.62-25.24-5.27-50.49l12.74-1.32Z"/><path class="cls-5" d="M523.33,1084c-5.68,3.58-12.9,5.76-21.73,6.57q-17.12,1.56-28.49-8.2T460,1055.14q-1.85-18.81,8.77-31.54t28.67-14.38q11.58-1.05,19.51,1.52.55,6.45,1.12,12.91a34.7,34.7,0,0,0-18.21-3.12q-12.94,1.17-20.22,10.09t-5.93,22.53q1.26,13,9.41,19.94t20.25,5.88a35.57,35.57,0,0,0,18.92-7Z"/><path class="cls-5" d="M590.21,1014q-11.46.84-22.93,1.74l5.28,67.49-13.08,1q-2.73-33.73-5.44-67.47-11.44.93-22.86,1.89-.48-5.52-.94-11.06,29.57-2.5,59.15-4.69Q589.81,1008.5,590.21,1014Z"/><path class="cls-5" d="M626.25,1079.34l-13.47.93q-2.78-39.29-5.56-78.59l13.67-.95Q623.57,1040,626.25,1079.34Z"/><path class="cls-5" d="M684.34,1077c-11.37.65-20.68-2.47-28-9.39s-11.37-16.25-12.13-28q-1.22-19,8.64-30.94c6.58-8,16-12.32,28.1-13q16.86-1,27.74,9.49t11.73,28.16q1,19.28-8.89,31T684.34,1077Zm-3.4-69.87a22.33,22.33,0,0,0-17.37,9.12c-4.26,5.65-6.09,12.87-5.55,21.64s3.19,15.64,7.93,20.71a21.51,21.51,0,0,0,17.79,7q11.35-.64,17.5-8.62t5.44-21.7q-.73-14.1-7.58-21.44C694.55,1009,688.48,1006.71,680.94,1007.14Z"/><path class="cls-5" d="M810,1069.92q-7.15.24-14.32.51-19.92-28.25-40.26-56.33a26.29,26.29,0,0,1-2.59-4.45h-.34a81.06,81.06,0,0,1,.93,10.8q1.14,25.8,2.29,51.59l-12.66.58q-1.85-39.35-3.68-78.7,7.74-.36,15.47-.7,19.73,27.42,39.07,55c1.65,2.29,2.69,3.86,3.17,4.72h.22a70.05,70.05,0,0,1-.94-10.58l-1.86-50.73,12.79-.46Q808.64,1030.55,810,1069.92Z"/><path class="cls-5" d="M900.51,1067.56q-7.2.12-14.38.27-3.76-10-7.55-19.9-15.58.33-31.18.76-3.15,10.13-6.28,20.24l-14.32.43q13.56-39.83,27.55-79.6l15-.37Q885.13,1028.44,900.51,1067.56Zm-25.65-30.21q-5.85-15.58-11.78-31.16a34,34,0,0,1-1.18-4.92h-.22a33.79,33.79,0,0,1-1,5q-5.08,15.84-10.13,31.7Q862.7,1037.62,874.86,1037.35Z"/><path class="cls-5" d="M961.19,1066.82q-21.87.14-43.74.46-.59-39.39-1.15-78.78l13.29-.18q.42,33.87.83,67.74,15.35-.19,30.69-.29C961.14,1059.45,961.16,1063.13,961.19,1066.82Z"/><path class="cls-5" d="M1070.94,1063.9q-9,4.49-22.27,4.36-17.18-.16-27.49-11t-10.3-28.44q0-18.88,11.87-30.5c7.9-7.73,17.9-11.56,29.93-11.43,7.75.08,14.18,1.24,19.25,3.47l-.18,13a34.53,34.53,0,0,0-17.78-4.94q-13-.12-21.12,8t-8.16,21.82c0,8.68,2.43,15.6,7.36,20.78s11.46,7.8,19.55,7.88a35.46,35.46,0,0,0,19.5-5Q1071,1057.86,1070.94,1063.9Z"/><path class="cls-5" d="M1123.06,1069.47q-17.07-.39-27.14-11.61t-9.83-28.9c.22-12.67,3.88-22.73,11.08-30.15s16.9-11,29-10.71c11.25.26,20.24,4.16,26.88,11.68s9.78,17.2,9.43,29q-.6,19.28-11.34,30.18T1123.06,1069.47Zm2.22-69.91a22.27,22.27,0,0,0-18,7.69c-4.7,5.29-7.11,12.33-7.28,21.12s1.91,15.85,6.24,21.28a21.46,21.46,0,0,0,17.17,8.39q11.36.27,18.13-7.19t7.17-21.18c.26-9.42-1.69-16.73-5.83-22S1132.83,999.73,1125.28,999.56Z"/><path class="cls-5" d="M1248.85,1072.51l-14.32-.65q-17.6-29.74-35.59-59.38a24.48,24.48,0,0,1-2.23-4.65h-.34a78,78,0,0,1,.05,10.84q-.93,25.8-1.87,51.61l-12.66-.44,2.67-78.75,15.47.55q17.46,28.92,34.53,58a56.17,56.17,0,0,1,2.77,5h.22a70.55,70.55,0,0,1-.08-10.62l2.22-50.71,12.79.57Z"/><path class="cls-5" d="M1271,1070.44q.33-6.72.67-13.44a21.45,21.45,0,0,0,4.18,3.18,35.25,35.25,0,0,0,5.21,2.5,42.53,42.53,0,0,0,5.55,1.69,30.75,30.75,0,0,0,5.16.77c5.52.29,9.67-.38,12.47-2.07a9,9,0,0,0,4.51-7.72,8.58,8.58,0,0,0-1.07-4.93,14.19,14.19,0,0,0-3.58-4,40.42,40.42,0,0,0-5.55-3.58c-2.15-1.16-4.41-2.38-6.88-3.65-2.62-1.57-5-3.15-7.31-4.74a32.19,32.19,0,0,1-5.82-5.16,20.64,20.64,0,0,1-3.74-6.22,19.4,19.4,0,0,1-1.08-7.92,17.82,17.82,0,0,1,3-9.5,21,21,0,0,1,7-6.41,30.91,30.91,0,0,1,9.68-3.45,45.55,45.55,0,0,1,10.89-.7q12.59.71,18.15,3.84-.37,6.45-.76,12.9c-4.32-3.48-10.08-5.43-17.21-5.83a32.54,32.54,0,0,0-5.91.22,17.81,17.81,0,0,0-5.33,1.53,11.36,11.36,0,0,0-3.94,3,7.9,7.9,0,0,0-1.69,4.7,8.79,8.79,0,0,0,.87,4.61,11.57,11.57,0,0,0,3.06,3.69,33.47,33.47,0,0,0,5.05,3.38q3,1.68,7,3.66c2.69,1.58,5.21,3.23,7.59,4.94a36.62,36.62,0,0,1,6.17,5.58,23,23,0,0,1,4.06,6.6,18.44,18.44,0,0,1,1.16,8,18.62,18.62,0,0,1-10,16.26,29.33,29.33,0,0,1-9.65,3.19,53.49,53.49,0,0,1-11.34.53c-1.32-.07-2.94-.26-4.86-.56s-3.87-.7-5.87-1.19a56.07,56.07,0,0,1-5.65-1.7A18.08,18.08,0,0,1,1271,1070.44Z"/><path class="cls-5" d="M1404.94,1050c-1.66,22.06-13,32.29-33.91,30.84-20.08-1.37-29.46-12.6-28.13-33.85q1.53-24,3-48.09l13.28.86-3,45.39q-1.51,23.14,16.55,24.36,17.4,1.2,19-21.08l3.33-46.2,13.28,1Q1406.69,1026.62,1404.94,1050Z"/><path class="cls-5" d="M1470.8,1087.3q-21.81-1.89-43.62-3.62l6.21-78.55,13.26,1.07q-2.75,33.77-5.5,67.52,15.3,1.24,30.61,2.58Z"/><path class="cls-5" d="M1538.66,1025.63q-11.46-1.12-22.9-2.21-3.18,33.69-6.36,67.39l-13.08-1.22q3.09-33.71,6.2-67.4-11.43-1.07-22.85-2.06.48-5.52,1-11,29.55,2.59,59.1,5.5Z"/><path class="cls-5" d="M1606.05,1100.8c-4.76-.54-9.54-1.07-14.31-1.59q-2.45-10.35-4.91-20.71-15.52-1.68-31-3.28-4.44,9.63-8.86,19.26l-14.27-1.43q18.6-37.74,37.64-75.37l14.91,1.57Q1595.85,1060,1606.05,1100.8Zm-21.55-33.27q-3.81-16.21-7.67-32.43a35.64,35.64,0,0,1-.54-5l-.22,0a30.89,30.89,0,0,1-1.63,4.8q-7.11,15-14.16,30.12Q1572.4,1066.23,1584.5,1067.53Z"/><path class="cls-5" d="M1689.55,1110.84l-14.24-1.81q-15.16-31.08-30.73-62.08a25.91,25.91,0,0,1-1.85-4.81l-.33,0a81.24,81.24,0,0,1-.83,10.8q-3,25.65-6,51.29l-12.6-1.47q4.52-39.13,9-78.27l15.4,1.81q15.08,30.24,29.77,60.57c1.26,2.52,2,4.24,2.37,5.17l.22,0a68.94,68.94,0,0,1,.77-10.59l6.33-50.37,12.72,1.62Q1694.56,1071.76,1689.55,1110.84Z"/><path class="cls-5" d="M1774.9,1054.07q-11.4-1.62-22.81-3.2-4.62,33.53-9.26,67.05l-13-1.78,9.09-67.07q-11.37-1.54-22.77-3,.72-5.51,1.45-11,29.46,3.87,58.89,8.06Q1775.69,1048.59,1774.9,1054.07Z"/></svg>