<svg id="Layer_1" data-name="Layer 1" xmlns="http://www.w3.org/2000/svg" viewBox="0 0 2000 2000"><defs><style>.cls-1{fill:#40a6e2;}.cls-2{fill:#fff;}.cls-3{fill:#0078c0;}.cls-4{fill:#505050;}.cls-5{fill:#002050;}.cls-6{fill:#282828;}</style></defs><path class="cls-1" d="M1000,10a149.2,149.2,0,0,0-43.11,6.36L398.14,185A142.38,142.38,0,0,0,296.3,322.13v949.14c0,242.84,82.05,327.38,239.29,467.71,153.69,137.16,428.51,238,440.14,242.2L1000,1990l24.27-8.82c11.63-4.23,286.45-105,440.14-242.2,157.24-140.33,239.29-224.87,239.29-467.71V322.13A142.38,142.38,0,0,0,1601.86,185L1043.11,16.36A149.2,149.2,0,0,0,1000,10Z"/><path class="cls-2" d="M1581.33,253.07,1022.56,84.4a78.54,78.54,0,0,0-45.12,0L418.67,253.07a72.13,72.13,0,0,0-51.28,69.05V999.57H1632.61V322.12A72.13,72.13,0,0,0,1581.33,253.07Z"/><path class="cls-3" d="M367.39,1271.28c0,214,64.55,279.94,215.51,414.67,145.27,129.64,417.1,228.42,417.1,228.42s271.83-98.78,417.1-228.42c151-134.73,215.51-200.7,215.51-414.67V999.57H367.39Z"/><path class="cls-4" d="M1000,656.84c-300.5,0-593.32,25.46-870.34,75.68A102.73,102.73,0,0,0,47.27,854.08c25.46,125.27,54.59,278.35,74.23,390a113.27,113.27,0,0,0,111.74,93.78,114.58,114.58,0,0,0,23.46-2.44C354,1315,621.31,1267.58,1000,1267.58s646,47.43,743.31,67.82a114.42,114.42,0,0,0,23.45,2.44,113.27,113.27,0,0,0,111.74-93.78c19.64-111.64,48.77-264.72,74.23-390a102.73,102.73,0,0,0-82.39-121.56c-277-50.22-569.84-75.68-870.34-75.68Z"/><path class="cls-2" d="M1000,1230.27c315.15,0,582.57,33.34,751,68.61a76.19,76.19,0,0,0,90.8-61.28c20.68-117.62,50.24-272,74.41-390.95a65.42,65.42,0,0,0-52.49-77.42c-166.56-30.2-465-75.08-863.68-75.08h0c-398.71,0-697.12,44.88-863.68,75.08a65.42,65.42,0,0,0-52.49,77.42C108,965.58,137.56,1120,158.24,1237.6a76.19,76.19,0,0,0,90.8,61.28c168.39-35.27,435.81-68.61,751-68.61Z"/><path class="cls-5" d="M734.43,544.69q-9,4.77-22.5,4.77-17.38,0-27.84-11.19t-10.46-29.38q0-19.54,11.76-31.59t29.83-12.05q11.6,0,19.21,3.36v10.17a38.93,38.93,0,0,0-19.32-4.89q-14,0-22.76,9.38t-8.72,25.05q0,14.9,8.15,23.73t21.4,8.83q12.26,0,21.25-5.46Z"/><path class="cls-5" d="M814,548.1H770.8V466.62h41.36v8.63H780.35v27.11h29.42v8.58H780.35v28.52H814Z"/><path class="cls-5" d="M907.85,548.1H896.49l-13.64-22.84a49,49,0,0,0-3.63-5.43,21,21,0,0,0-3.61-3.67,12.84,12.84,0,0,0-4-2.07,16.2,16.2,0,0,0-4.8-.65H859V548.1h-9.54V466.62h24.31a34.68,34.68,0,0,1,9.86,1.33,22,22,0,0,1,7.84,4.07,18.84,18.84,0,0,1,5.2,6.79,22.51,22.51,0,0,1,1.88,9.51,22.79,22.79,0,0,1-1.29,7.82,20.18,20.18,0,0,1-3.63,6.33,22.1,22.1,0,0,1-5.68,4.75,28.66,28.66,0,0,1-7.47,3v.24a17,17,0,0,1,3.55,2.07,19.93,19.93,0,0,1,2.87,2.75,36.84,36.84,0,0,1,2.69,3.61q1.33,2,3,4.69ZM859,475.25V504.8h13a19.6,19.6,0,0,0,6.62-1.08,15.36,15.36,0,0,0,5.26-3.1,14,14,0,0,0,3.46-4.94,16.61,16.61,0,0,0,1.25-6.56q0-6.53-4.23-10.2c-2.83-2.44-6.9-3.67-12.24-3.67Z"/><path class="cls-5" d="M981.78,475.25H958.26V548.1h-9.55V475.25H925.25v-8.63h56.53Z"/><path class="cls-5" d="M1023.89,548.1h-9.54V466.62h9.54Z"/><path class="cls-5" d="M1106.46,475.25h-31.82v28.19h29.43V512h-29.43V548.1h-9.55V466.62h41.37Z"/><path class="cls-5" d="M1151.24,548.1h-9.55V466.62h9.55Z"/><path class="cls-5" d="M1235.62,548.1h-43.18V466.62h41.37v8.63H1202v27.11h29.43v8.58H1202v28.52h33.63Z"/><path class="cls-5" d="M1271.09,548.1V466.62h22.49q43.08,0,43.07,39.71,0,18.87-12,30.32t-32,11.45Zm9.54-72.85v64.21h12.16q16,0,25-8.58t8.91-24.32q0-31.31-33.29-31.31Z"/><path class="cls-5" d="M788.23,400.57H764.69V337.25q0-10.26.88-22.65H765a112.39,112.39,0,0,1-3.31,14l-24.8,72H717.38l-25.24-71.22q-1-2.88-3.32-14.75h-.66q.95,15.64,1,27.45v58.52H667.64V294.74h34.91l21.62,62.73a89,89,0,0,1,3.77,15.13h.44a152.86,152.86,0,0,1,4.21-15.28l21.62-62.58h34Z"/><path class="cls-5" d="M820.3,313.05a13.61,13.61,0,0,1-9.67-3.51,11.29,11.29,0,0,1-3.76-8.6,10.9,10.9,0,0,1,3.76-8.56,15.79,15.79,0,0,1,19.37,0,10.94,10.94,0,0,1,3.73,8.56,11.22,11.22,0,0,1-3.73,8.71A13.84,13.84,0,0,1,820.3,313.05Zm11.51,87.52H808.49V325h23.32Z"/><path class="cls-5" d="M907.2,397.84q-7.89,4.57-22.8,4.58-17.42,0-28.19-10.56t-10.78-27.23q0-19.26,11.55-30.37t30.89-11.11q13.35,0,19.33,3.55v19.78A26.6,26.6,0,0,0,890.89,341q-10,0-15.9,5.87t-5.87,16.2q0,10,5.61,15.76t15.43,5.72a30.78,30.78,0,0,0,17-5.46Z"/><path class="cls-5" d="M970.27,346a20.32,20.32,0,0,0-9.82-2.29,14.16,14.16,0,0,0-11.88,5.58q-4.27,5.56-4.28,15.16v36.09H921V325h23.33v14h.29q5.53-15.34,19.93-15.35a14.85,14.85,0,0,1,5.76.89Z"/><path class="cls-5" d="M1015.62,402.42q-18.9,0-29.71-10.59T975.1,363.08q0-18.74,11.22-29.34t30.33-10.59q18.81,0,29.52,10.59t10.7,28q0,18.83-11,29.75T1015.62,402.42Zm.59-61.41q-8.26,0-12.84,5.69t-4.58,16.09q0,21.76,17.57,21.77,16.74,0,16.75-22.36Q1033.11,341,1016.21,341Z"/><path class="cls-5" d="M1065.54,398.58V379.69a49.78,49.78,0,0,0,11.48,5.16,37.76,37.76,0,0,0,10.81,1.7c4.14,0,7.39-.56,9.78-1.7s3.58-2.85,3.58-5.16a4.77,4.77,0,0,0-1.62-3.69,15.08,15.08,0,0,0-4.17-2.59,49.38,49.38,0,0,0-5.57-2c-2-.59-4-1.25-5.84-2a56.24,56.24,0,0,1-7.93-3.65,23.11,23.11,0,0,1-5.76-4.54,17.82,17.82,0,0,1-3.54-6,23.92,23.92,0,0,1-1.22-8.05,20.77,20.77,0,0,1,2.77-10.92,22.67,22.67,0,0,1,7.38-7.49,33.79,33.79,0,0,1,10.56-4.28,55,55,0,0,1,12.36-1.37,69.36,69.36,0,0,1,10.18.78,76,76,0,0,1,10.19,2.25v18a37.23,37.23,0,0,0-9.49-3.88,40,40,0,0,0-9.92-1.29,22,22,0,0,0-4.32.41,13.93,13.93,0,0,0-3.58,1.18,6.64,6.64,0,0,0-2.44,2,4.57,4.57,0,0,0-.88,2.77,5.08,5.08,0,0,0,1.33,3.54,11.29,11.29,0,0,0,3.47,2.55,34.67,34.67,0,0,0,4.76,1.92c1.74.57,3.48,1.14,5.2,1.73a70.26,70.26,0,0,1,8.41,3.54,27.35,27.35,0,0,1,6.46,4.5,17.66,17.66,0,0,1,4.13,6.06,24.23,24.23,0,0,1-1.47,19.74,23.44,23.44,0,0,1-7.75,7.75,35.17,35.17,0,0,1-11.15,4.35,61.08,61.08,0,0,1-13.1,1.37A67.54,67.54,0,0,1,1065.54,398.58Z"/><path class="cls-5" d="M1171.49,402.42q-18.88,0-29.7-10.59T1131,363.08q0-18.74,11.21-29.34t30.34-10.59q18.81,0,29.51,10.59t10.71,28q0,18.83-11,29.75T1171.49,402.42Zm.6-61.41q-8.28,0-12.85,5.69t-4.57,16.09q0,21.76,17.56,21.77,16.76,0,16.75-22.36Q1189,341,1172.09,341Z"/><path class="cls-5" d="M1275.66,306.55a23.52,23.52,0,0,0-8.63-1.77q-11.22,0-11.22,12.17V325h17.27v17.19h-17.27v58.38h-23.25V342.19h-12.69V325h12.69v-9.38q0-12.9,8.42-20.8t22.88-7.9a39.93,39.93,0,0,1,11.8,1.48Z"/><path class="cls-5" d="M1328.47,399.69q-5.16,2.73-15.57,2.73-24.66,0-24.65-25.61V342.19H1276V325h12.25V308.69l23.25-6.64V325h17v17.19h-17v30.56q0,11.81,9.37,11.81a15.77,15.77,0,0,0,7.6-2.14Z"/><polygon class="cls-2" points="1000 1436.83 1031.5 1533.78 1133.44 1533.78 1050.97 1593.7 1082.47 1690.64 1000 1630.73 917.53 1690.64 949.03 1593.7 866.56 1533.78 968.5 1533.78 1000 1436.83"/><path class="cls-6" d="M296.09,939.59l5.37,38.72q-9.22,1.28-18.46,2.59-7.61-53.35-15.19-106.73,17.29-2.48,34.61-4.81c13.1-1.77,23.65-.25,31.58,4.54s12.56,12.38,13.89,22.78S346.56,916,340,923.62s-16.2,12.19-28.87,13.91Zm-7.4-53.48,5.4,39,12.13-1.67q12-1.63,17.64-7.75T328.21,900c-1.64-12.57-10.25-17.85-25.81-15.75Z"/><path class="cls-6" d="M425.8,964.47q-24.19,2.76-40.56-10.46c-10.92-8.82-17.43-21.22-19.42-37.23q-3.21-25.81,10-43t39.29-20.19q24.09-2.71,40.38,10.72t18.7,37.59q2.67,26.26-10.56,43C454.81,956.11,442.24,962.61,425.8,964.47Zm-9.91-95.2q-15.66,1.79-24.18,13.93t-6.32,30q2.14,17.85,12.86,27.62t25.86,8.06q16.14-1.83,24.33-13.21c5.46-7.6,7.57-17.63,6.25-30.09q-2-19.21-12.33-28.69T415.89,869.27Z"/><path class="cls-6" d="M635.24,835.26q-12,54.88-23.28,109.8-10.53.8-21,1.64Q577.21,910,563.21,873.31A48.84,48.84,0,0,1,560.66,863l-.32,0a49,49,0,0,1-1,10.5q-7.66,38.57-15,77.16-10.75,1-21.51,2-20.71-52.2-42.07-104.24,10.41-1.05,20.83-2,14.15,38.29,28,76.66A54.05,54.05,0,0,1,532,933.19l.4,0a56.66,56.66,0,0,1,1.25-10.53q8-40.36,16.33-80.71,9.79-.84,19.58-1.65,14.13,38.75,27.95,77.55a60.74,60.74,0,0,1,2.4,9.47l.32,0a56.08,56.08,0,0,1,1-10q7-40.28,14.27-80.55Q625.4,836,635.24,835.26Z"/><path class="cls-6" d="M724.58,937.78q-31.53,1.68-63.06,3.76Q658,887.75,654.43,834q30.92-2,61.84-3.71.42,7.59.82,15.17-21.35,1.16-42.68,2.48l1.89,30.47q19.55-1.23,39.1-2.29.42,7.54.83,15.09-19.5,1.07-39,2.28l2,31.81q22.28-1.38,44.56-2.57Q724.19,930.24,724.58,937.78Z"/><path class="cls-6" d="M834.64,933.11q-10.9.35-21.8.73-9.5-14.1-19.09-28.17a57.5,57.5,0,0,0-5-6.61,28.56,28.56,0,0,0-4.92-4.43,16.34,16.34,0,0,0-5.37-2.41,23,23,0,0,0-6.44-.55l-7.59.34q1,21.86,2,43.71-9.29.42-18.57.87l-5.25-107.68q18.88-.93,37.78-1.71a57.52,57.52,0,0,1,15,1.21,35.25,35.25,0,0,1,12,5,25.61,25.61,0,0,1,8.19,8.82,27.22,27.22,0,0,1,3.27,12.64,29.33,29.33,0,0,1-1.43,10.54,27.19,27.19,0,0,1-4.78,8.67,31.24,31.24,0,0,1-7.7,6.64,41.37,41.37,0,0,1-10.26,4.45c0,.1,0,.2,0,.3a29,29,0,0,1,5.52,3.43q2.37,1.9,4.5,3.94a49.64,49.64,0,0,1,4.25,4.62q2.1,2.6,4.68,6Q824.16,918.28,834.64,933.11Zm-72.49-90.6q.78,17.5,1.57,35l15.7-.68a24.59,24.59,0,0,0,8-1.61,18.73,18.73,0,0,0,6.24-3.93,16.61,16.61,0,0,0,4-6,18.73,18.73,0,0,0,1.21-7.79c-.2-5.16-2.07-9.13-5.64-11.9s-8.61-4-15.11-3.75Q770.13,842.15,762.15,842.51Z"/><path class="cls-6" d="M916.31,892.1q.3,19.54.59,39.09-9.3.13-18.59.32l-2-107.8q17.43-.33,34.86-.54,19.79-.24,30.73,8.37t11,24.3q.06,15.7-11.15,25.77T931.4,891.89Zm-.82-54q.3,19.7.6,39.39l12.21-.17q12.12-.14,18.41-5.54c4.19-3.6,6.28-8.62,6.23-15.09-.1-12.68-8-19-23.64-18.78Z"/><path class="cls-6" d="M1057.7,931q-31.14-.39-62.29-.41,0-53.91.05-107.81,9.52,0,19.07,0l-.39,92.7q21.89.09,43.75.37Q1057.78,923.47,1057.7,931Z"/><path class="cls-6" d="M1173.68,933.84q-10.23-.37-20.47-.69-4.62-13.87-9.3-27.74-22.23-.66-44.47-1.13-5.18,13.62-10.3,27.24-10.2-.19-20.39-.35,21.87-53.58,44.63-107,10.74.25,21.47.55Q1154.71,879.22,1173.68,933.84Zm-34.32-43.16q-7.24-21.72-14.63-43.42a49.84,49.84,0,0,1-1.34-6.8h-.32a42.23,42.23,0,0,1-1.77,6.72q-8.38,21.32-16.65,42.63Q1122,890.19,1139.36,890.68Z"/><path class="cls-6" d="M1257.85,844.8q-16.44-.84-32.88-1.59-2.09,46.27-4.18,92.53-9.33-.42-18.66-.8l3.84-92.55q-16.41-.67-32.81-1.26.25-7.59.53-15.17,42.48,1.49,85,3.67Q1258.25,837.22,1257.85,844.8Z"/><path class="cls-6" d="M1339.62,849.67q-21.37-1.44-42.76-2.71-.94,16.18-1.91,32.35,19.58,1.17,39.15,2.47-.49,7.54-1,15.08-19.52-1.3-39-2.46l-2.67,45q-9.33-.55-18.65-1.07,3-53.82,6-107.65,31,1.72,61.92,3.81Z"/><path class="cls-6" d="M1402.66,949.07q-24.24-2-37.73-18.09t-11.87-40.28q1.83-26,18.08-40.3t42.4-12.24q24.15,2,37.55,18.31c8.91,10.86,12.57,24.36,11.08,40.49-1.61,17.51-7.87,30.9-18.66,40.2S1419.13,950.41,1402.66,949.07Zm8.65-95.33c-10.46-.86-19.29,2.16-26.4,9s-11.09,16.28-12,28.27,1.55,21.8,7.28,29.58,13.67,12.07,23.81,12.89q16.15,1.34,26.39-8.26c6.83-6.41,10.84-15.84,11.93-28.32q1.73-19.26-6.55-30.53T1411.31,853.74Z"/><path class="cls-6" d="M1567.4,963.4q-10.86-1.24-21.71-2.44-7.35-15.33-14.82-30.65a61.49,61.49,0,0,0-4-7.27,28.14,28.14,0,0,0-4.23-5.09,16.39,16.39,0,0,0-5-3.16,22.58,22.58,0,0,0-6.3-1.49l-7.57-.76q-2.19,21.76-4.39,43.53l-18.52-1.83q5.2-53.65,10.42-107.31,18.84,1.83,37.68,3.8a57,57,0,0,1,14.64,3.37,35.31,35.31,0,0,1,11.21,6.69,26,26,0,0,1,6.84,9.91,27.35,27.35,0,0,1,1.4,13,29.44,29.44,0,0,1-3,10.22,26.59,26.59,0,0,1-6,7.88,31.06,31.06,0,0,1-8.59,5.45,41.63,41.63,0,0,1-10.81,2.92l0,.29a29.16,29.16,0,0,1,5,4.2c1.39,1.49,2.67,3,3.89,4.55a48.37,48.37,0,0,1,3.54,5.19c1.13,1.91,2.4,4.13,3.76,6.65Q1559.18,947.21,1567.4,963.4Zm-58.66-100.16q-1.77,17.43-3.52,34.86,7.83.78,15.65,1.6a24.44,24.44,0,0,0,8.16-.43,18.88,18.88,0,0,0,6.75-3,17,17,0,0,0,4.82-5.38,19.35,19.35,0,0,0,2.33-7.53q.84-7.71-3.86-12.59c-3.14-3.26-8-5.23-14.42-5.91Q1516.69,864,1508.74,863.24Z"/><path class="cls-6" d="M1703.67,980.9q-9.2-1.3-18.38-2.58,4.79-34.55,9.58-69.11,1.19-8.49,4-20.62l-.32-.05a70.41,70.41,0,0,1-4.48,9.63q-22.44,37.59-44.37,75.35-6.39-.84-12.79-1.66-11.61-41.82-23.77-83.6a73.37,73.37,0,0,1-1.72-11l-.31,0q-.16,6.5-1.91,21.05-4.2,34.56-8.39,69.11-8.6-1-17.17-2.05l12.63-107.07q13.35,1.56,26.69,3.21,10.63,37.49,20.83,75a100.19,100.19,0,0,1,2.8,12.8l.4,0q4-8,6.34-11.91,19.71-33.48,39.85-66.79,12.86,1.75,25.69,3.59Q1711.27,927.54,1703.67,980.9Z"/><path class="cls-6" d="M423.8,1066.37q-20.49,2.37-41,4.93,2,16.07,4,32.15,18.75-2.34,37.51-4.52.87,7.5,1.75,15-18.71,2.18-37.39,4.51l5.58,44.76q-8.93,1.11-17.84,2.26-6.87-53.48-13.73-106.94,29.65-3.81,59.33-7.25Q422.93,1058.82,423.8,1066.37Z"/><path class="cls-6" d="M538.56,1103.63c2.79,30.15-10.13,46.5-38.73,49.42-27.4,2.83-42.71-10.07-45.95-39q-3.64-32.77-7.28-65.54,9.12-1,18.26-2,3.33,30.95,6.64,61.9c2.26,21,11.63,30.64,28.09,29,15.86-1.62,22.79-12.52,20.85-32.83q-3.08-31.54-6.13-63.09,9.13-.89,18.28-1.74Z"/><path class="cls-6" d="M665.59,1137.14q-9.78.66-19.57,1.37-28.62-37.68-58.06-75a35.2,35.2,0,0,1-3.8-6l-.46,0q.88,3.39,1.84,14.71,2.93,35.22,5.86,70.43-8.64.72-17.29,1.47l-9.33-107.41q10.65-.93,21.29-1.8,28.62,36.45,56.48,73.23c2.34,3,3.87,5.15,4.56,6.3l.3,0a94.08,94.08,0,0,1-1.79-14.42l-5-69.29q8.82-.63,17.63-1.23Z"/><path class="cls-6" d="M698.48,1135q-3.27-53.8-6.56-107.61,15.93-1,31.87-1.84c40.76-2.19,61.86,14.58,63.28,49.56.7,16.62-4.32,30.21-14.94,40.8s-25.18,16.35-43.76,17.36Q713.43,1134.11,698.48,1135ZM711,1041.49q2.21,38.7,4.43,77.39l14.35-.8c12.67-.69,22.29-4.63,29-11.88s9.79-17.16,9.22-29.78c-1.13-25.18-15-37.21-41.73-35.78Z"/><path class="cls-6" d="M901.7,1126.91q-9.84.18-19.68.41-5.17-13.6-10.41-27.2-21.37.54-42.75,1.26-4.23,13.88-8.42,27.75-9.8.34-19.59.74,18.09-54.67,37.08-109.2,10.32-.33,20.65-.61Q880.59,1073.38,901.7,1126.91Zm-35.24-41.25q-8.13-21.3-16.38-42.57a49.79,49.79,0,0,1-1.66-6.72h-.31a44.25,44.25,0,0,1-1.33,6.81q-6.93,21.72-13.7,43.45Q849.76,1086.1,866.46,1085.66Z"/><path class="cls-6" d="M1038.84,1126.26q-8.89-.09-17.79-.14.19-34.87.4-69.77,0-8.56,1.19-21h-.3a71.08,71.08,0,0,1-3.06,10.13q-16.6,40.21-32.69,80.54c-4.13,0-8.25,0-12.37,0q-16.32-39.93-33.19-79.75a75.89,75.89,0,0,1-3-10.72h-.31q.69,6.47.85,21.12l.78,69.61-16.59.22q-.78-53.91-1.57-107.8,12.9-.19,25.81-.31,14.87,35.76,29.32,71.61a104.29,104.29,0,0,1,4.28,12.32H981q2.77-8.51,4.52-12.64Q1000,1054,1015,1018.28q12.45,0,24.9.17Z"/><path class="cls-6" d="M1132.32,1128q-30.35-.87-60.69-1.36l1.74-107.8q29.79.48,59.57,1.32l-.42,15.18q-20.55-.59-41.11-1l-.6,30.52q18.81.38,37.64.89l-.42,15.11q-18.77-.53-37.52-.89-.32,15.93-.64,31.87,21.45.42,42.88,1Q1132.52,1120.49,1132.32,1128Z"/><path class="cls-6" d="M1249.33,1132.81q-9.78-.51-19.58-1-23.88-40.83-48.59-81.43a35,35,0,0,1-3.06-6.36l-.46,0c.32,2.32.35,7.26.06,14.83q-1.34,35.31-2.65,70.62c-5.79-.22-11.56-.42-17.34-.62l3.66-107.75q10.67.36,21.34.77,24,39.63,47.23,79.49a76.59,76.59,0,0,1,3.77,6.81h.3a97.8,97.8,0,0,1,0-14.53q1.71-34.7,3.42-69.39,8.82.43,17.64.91Z"/><path class="cls-6" d="M1358.34,1046.92q-15.81-1.17-31.6-2.24-3.13,46.21-6.26,92.42-9-.61-17.91-1.18l5.91-92.44q-15.78-1-31.54-1.91l.87-15.17q40.85,2.36,81.65,5.38Q1358.89,1039.36,1358.34,1046.92Z"/><path class="cls-6" d="M1450.82,1147.69q-9.81-.93-19.61-1.82-3.62-14.11-7.28-28.21-21.32-1.89-42.65-3.59-5.79,13.29-11.51,26.62-9.78-.76-19.56-1.49,24.16-52.26,49.23-104.3,10.3.86,20.6,1.74Q1435.88,1092.13,1450.82,1147.69Zm-30.38-45q-5.65-22.08-11.46-44.15a52,52,0,0,1-.89-6.87l-.31,0a43.67,43.67,0,0,1-2.09,6.61q-9.35,20.79-18.55,41.63Q1403.8,1101.24,1420.44,1102.71Z"/><path class="cls-6" d="M1531.4,1156q-29.79-3.33-59.62-6.29,5.33-53.64,10.64-107.29,9.15.91,18.28,1.85-4.76,46.11-9.5,92.21,21,2.16,41.88,4.5Z"/><path class="cls-6" d="M1548.62,1153.65q1.05-9.15,2.11-18.3a28.07,28.07,0,0,0,5.45,4.72,46.13,46.13,0,0,0,6.9,3.87,58.78,58.78,0,0,0,7.45,2.82,41.94,41.94,0,0,0,7,1.52c7.51.92,13.28.36,17.27-1.66a12.39,12.39,0,0,0,6.89-10.13,11.75,11.75,0,0,0-1-6.83,19.35,19.35,0,0,0-4.53-5.76,54.66,54.66,0,0,0-7.28-5.41c-2.82-1.79-5.87-3.65-9.11-5.61-3.43-2.38-6.66-4.76-9.6-7.13a45,45,0,0,1-7.53-7.59,27.59,27.59,0,0,1-4.61-8.82,26.47,26.47,0,0,1-.78-10.91,24.35,24.35,0,0,1,5-12.71,29.1,29.1,0,0,1,10.26-8.11,42.62,42.62,0,0,1,13.63-3.83,63.41,63.41,0,0,1,15.08.06q17.25,2.15,24.66,7-1.14,8.76-2.26,17.52-8.46-7.77-23.15-9.59a43.49,43.49,0,0,0-8.15-.24,23.74,23.74,0,0,0-7.49,1.59,15.77,15.77,0,0,0-5.69,3.78,10.66,10.66,0,0,0-2.76,6.26,12.12,12.12,0,0,0,.79,6.38,16.44,16.44,0,0,0,3.88,5.31,47.65,47.65,0,0,0,6.63,5.08q4,2.56,9.22,5.64,5.33,3.62,10,7.46a50.34,50.34,0,0,1,8,8.21,31.14,31.14,0,0,1,4.94,9.39,25.39,25.39,0,0,1,.83,11.07,25.55,25.55,0,0,1-15.16,21.25,40.32,40.32,0,0,1-13.49,3.45,74.82,74.82,0,0,1-15.56-.32,66.42,66.42,0,0,1-6.58-1.21c-2.6-.58-5.22-1.31-7.93-2.16a75.3,75.3,0,0,1-7.58-2.81A25.49,25.49,0,0,1,1548.62,1153.65Z"/></svg>