<svg id="Layer_1" data-name="Layer 1" xmlns="http://www.w3.org/2000/svg" viewBox="0 0 2000 2000"><defs><style>.cls-1{fill:#002050;}.cls-2{fill:#505050;}.cls-3{fill:#0064b5;}.cls-4{fill:#fff;}.cls-5{fill:#282828;}</style></defs><path class="cls-1" d="M1000,10a149.2,149.2,0,0,0-43.11,6.36L398.14,185A142.38,142.38,0,0,0,296.3,322.13v949.14c0,242.84,82.05,327.38,239.29,467.71,153.69,137.16,428.51,238,440.14,242.2L1000,1990l24.27-8.82c11.63-4.23,286.45-105,440.14-242.2,157.24-140.33,239.29-224.87,239.29-467.71V322.13A142.38,142.38,0,0,0,1601.86,185L1043.11,16.36A149.2,149.2,0,0,0,1000,10Z"/><path class="cls-2" d="M1581.33,253.07,1022.56,84.4a78.54,78.54,0,0,0-45.12,0L418.67,253.07a72.13,72.13,0,0,0-51.28,69.05V999.57H1632.61V322.12A72.13,72.13,0,0,0,1581.33,253.07Z"/><path class="cls-3" d="M367.39,1271.28c0,214,64.55,279.94,215.51,414.67,145.27,129.64,417.1,228.42,417.1,228.42s271.83-98.78,417.1-228.42c151-134.73,215.51-200.7,215.51-414.67V999.57H367.39Z"/><path class="cls-2" d="M1000,656.84c-300.5,0-593.32,25.46-870.34,75.68A102.73,102.73,0,0,0,47.27,854.08c25.46,125.27,54.59,278.35,74.23,390a113.27,113.27,0,0,0,111.74,93.78,114.58,114.58,0,0,0,23.46-2.44C354,1315,621.31,1267.58,1000,1267.58s646,47.43,743.31,67.82a114.42,114.42,0,0,0,23.45,2.44,113.27,113.27,0,0,0,111.74-93.78c19.64-111.64,48.77-264.72,74.23-390a102.73,102.73,0,0,0-82.39-121.56c-277-50.22-569.84-75.68-870.34-75.68Z"/><path class="cls-4" d="M1000,1230.27c315.15,0,582.57,33.34,751,68.61a76.19,76.19,0,0,0,90.8-61.28c20.68-117.62,50.24-272,74.41-390.95a65.42,65.42,0,0,0-52.49-77.42c-166.56-30.2-465-75.08-863.68-75.08h0c-398.71,0-697.12,44.88-863.68,75.08a65.42,65.42,0,0,0-52.49,77.42C108,965.58,137.56,1120,158.24,1237.6a76.19,76.19,0,0,0,90.8,61.28c168.39-35.27,435.81-68.61,751-68.61Z"/><path class="cls-4" d="M788.23,400.57H764.69V337.25q0-10.26.88-22.66H765a110.26,110.26,0,0,1-3.32,14l-24.79,71.95H717.38l-25.24-71.21q-1-2.88-3.32-14.77h-.66q1,15.66,1,27.46v58.52H667.64V294.74h34.91l21.62,62.73a89,89,0,0,1,3.77,15.13h.44a151.86,151.86,0,0,1,4.21-15.27l21.62-62.59h34Z"/><path class="cls-4" d="M820.3,313a13.6,13.6,0,0,1-9.67-3.5,11.29,11.29,0,0,1-3.76-8.6,10.9,10.9,0,0,1,3.76-8.56,15.8,15.8,0,0,1,19.38,0,11,11,0,0,1,3.72,8.56,11.26,11.26,0,0,1-3.72,8.71A13.88,13.88,0,0,1,820.3,313Zm11.51,87.53H808.49V325h23.32Z"/><path class="cls-4" d="M907.2,397.84q-7.89,4.57-22.8,4.58-17.43,0-28.19-10.56t-10.78-27.23q0-19.26,11.55-30.37t30.89-11.1q13.35,0,19.33,3.54v19.78A26.57,26.57,0,0,0,890.89,341q-10,0-15.9,5.86t-5.87,16.2q0,10,5.61,15.76t15.43,5.72a30.78,30.78,0,0,0,17-5.46Z"/><path class="cls-4" d="M970.27,346a20.32,20.32,0,0,0-9.82-2.28q-7.61,0-11.88,5.57t-4.28,15.17v36.08H921V325h23.32v14h.29q5.53-15.34,19.93-15.35a15,15,0,0,1,5.76.89Z"/><path class="cls-4" d="M1015.62,402.42q-18.9,0-29.71-10.59T975.1,363.08q0-18.75,11.22-29.33t30.33-10.59q18.81,0,29.52,10.59t10.7,28q0,18.81-11,29.74T1015.62,402.42Zm.59-61.4q-8.26,0-12.84,5.68t-4.58,16.09q0,21.76,17.57,21.77,16.74,0,16.75-22.36Q1033.11,341,1016.21,341Z"/><path class="cls-4" d="M1065.54,398.58V379.69a49.78,49.78,0,0,0,11.48,5.16,38.11,38.11,0,0,0,10.81,1.7,23.21,23.21,0,0,0,9.78-1.7q3.59-1.69,3.58-5.16a4.77,4.77,0,0,0-1.62-3.69,15.08,15.08,0,0,0-4.17-2.59,49.38,49.38,0,0,0-5.57-2c-2-.59-4-1.25-5.84-2a56.24,56.24,0,0,1-7.93-3.65,23.11,23.11,0,0,1-5.76-4.54,17.82,17.82,0,0,1-3.54-6,23.86,23.86,0,0,1-1.22-8,20.79,20.79,0,0,1,2.77-10.93,22.67,22.67,0,0,1,7.38-7.49,33.79,33.79,0,0,1,10.56-4.28,55,55,0,0,1,12.36-1.36,68,68,0,0,1,10.18.77,77.55,77.55,0,0,1,10.19,2.25v18a36.49,36.49,0,0,0-9.49-3.87,39.54,39.54,0,0,0-9.92-1.3,22,22,0,0,0-4.32.41,13.93,13.93,0,0,0-3.58,1.18,6.74,6.74,0,0,0-2.44,2,4.59,4.59,0,0,0-.88,2.77,5.08,5.08,0,0,0,1.33,3.54,11.29,11.29,0,0,0,3.47,2.55,34.67,34.67,0,0,0,4.76,1.92c1.74.56,3.48,1.14,5.2,1.73a65.66,65.66,0,0,1,8.41,3.55,26.75,26.75,0,0,1,6.46,4.49,17.75,17.75,0,0,1,4.13,6.06,24.23,24.23,0,0,1-1.47,19.74,23.44,23.44,0,0,1-7.75,7.75,35.17,35.17,0,0,1-11.15,4.35,61.73,61.73,0,0,1-13.1,1.37A67.54,67.54,0,0,1,1065.54,398.58Z"/><path class="cls-4" d="M1171.49,402.42q-18.88,0-29.7-10.59T1131,363.08q0-18.75,11.21-29.33t30.34-10.59q18.81,0,29.51,10.59t10.71,28q0,18.81-11,29.74T1171.49,402.42Zm.6-61.4q-8.28,0-12.85,5.68t-4.57,16.09q0,21.76,17.56,21.77,16.76,0,16.75-22.36Q1189,341,1172.09,341Z"/><path class="cls-4" d="M1275.66,306.55a23.52,23.52,0,0,0-8.63-1.77q-11.22,0-11.22,12.18v8h17.27v17.2h-17.27v58.37h-23.25V342.2h-12.69V325h12.69v-9.37q0-12.92,8.42-20.81t22.88-7.9a39.93,39.93,0,0,1,11.8,1.48Z"/><path class="cls-4" d="M1328.47,399.69q-5.16,2.73-15.57,2.73-24.66,0-24.65-25.61V342.2H1276V325h12.25V308.69l23.25-6.64V325h17v17.2h-17v30.55q0,11.81,9.37,11.81a15.77,15.77,0,0,0,7.6-2.14Z"/><path class="cls-4" d="M728.5,544.69q-9,4.77-22.5,4.77-17.38,0-27.84-11.19t-10.45-29.38q0-19.54,11.76-31.59t29.83-12q11.6,0,19.2,3.35v10.17a38.91,38.91,0,0,0-19.32-4.89q-14,0-22.75,9.38t-8.72,25.05q0,14.9,8.15,23.73t21.39,8.83q12.29,0,21.25-5.45Z"/><path class="cls-4" d="M808.06,548.1H764.88V466.62h41.36v8.63H774.42v27.11h29.43v8.58H774.42v28.52h33.64Z"/><path class="cls-4" d="M901.93,548.1H890.57l-13.64-22.84a49.47,49.47,0,0,0-3.64-5.43,21,21,0,0,0-3.6-3.67,12.84,12.84,0,0,0-4-2.07,16.54,16.54,0,0,0-4.8-.65h-7.84V548.1h-9.55V466.62h24.32A34.72,34.72,0,0,1,877.7,468a22.06,22.06,0,0,1,7.84,4.06,19,19,0,0,1,5.2,6.79,24.85,24.85,0,0,1,.59,17.33,20.37,20.37,0,0,1-3.63,6.33,22.27,22.27,0,0,1-5.68,4.75,29.31,29.31,0,0,1-7.48,3v.22a16.94,16.94,0,0,1,3.55,2.08,19,19,0,0,1,2.87,2.75,36.86,36.86,0,0,1,2.7,3.61c.89,1.35,1.89,2.91,3,4.69Zm-48.86-72.85V504.8H866a19.64,19.64,0,0,0,6.62-1.08,15.36,15.36,0,0,0,5.25-3.09,14.06,14.06,0,0,0,3.47-4.95,16.61,16.61,0,0,0,1.25-6.56q0-6.53-4.23-10.2t-12.25-3.67Z"/><path class="cls-4" d="M975.86,475.25H952.34V548.1h-9.55V475.25H919.33v-8.63h56.53Z"/><path class="cls-4" d="M1018,548.1h-9.54V466.62H1018Z"/><path class="cls-4" d="M1100.53,475.25h-31.82v28.19h29.43V512h-29.43V548.1h-9.54V466.62h41.36Z"/><path class="cls-4" d="M1145.31,548.1h-9.54V466.62h9.54Z"/><path class="cls-4" d="M1229.7,548.1h-43.18V466.62h41.36v8.63h-31.82v27.11h29.44v8.58h-29.44v28.52h33.64Z"/><path class="cls-4" d="M1265.16,548.1V466.62h22.5q43.08,0,43.07,39.71,0,18.87-12,30.32t-32,11.45Zm9.55-72.85v64.21h12.16q16,0,24.94-8.58t8.92-24.32q0-31.31-33.29-31.31Z"/><path class="cls-4" d="M694.72,1451.78q-11.19.67-22.39,1.41-3.9-9.92-7.82-19.83-16.29,1.08-32.56,2.27-2.48,10.35-4.94,20.71-11.13.83-22.24,1.7,13-46.79,26.62-93.49,12.4-.9,24.8-1.72Q675.75,1407.23,694.72,1451.78Zm-36-33.84q-6-15-12-29.92a39.42,39.42,0,0,1-2.12-8.08l-.52,0a34.73,34.73,0,0,1-1.05,8q-4,15.78-7.84,31.55Q647,1418.73,658.73,1417.94Z"/><path class="cls-4" d="M713.43,1447.19q-.57-10.17-1.15-20.33a39.69,39.69,0,0,0,25.73,7.91,29.48,29.48,0,0,0,6.76-1,16.05,16.05,0,0,0,4.76-2.18,8.44,8.44,0,0,0,2.76-3.06,7.15,7.15,0,0,0,.78-3.7,7.86,7.86,0,0,0-1.76-4.7,17,17,0,0,0-4.39-3.67,44.69,44.69,0,0,0-6.48-3.11c-2.49-1-5.18-2-8.06-3q-11-3.88-16.66-10a23.58,23.58,0,0,1-6.18-15.2,23.33,23.33,0,0,1,9.67-21.24,35.56,35.56,0,0,1,11.37-5.48,59.92,59.92,0,0,1,13.91-2.27,85.3,85.3,0,0,1,12.91.24,51.62,51.62,0,0,1,10.46,2.16q.42,9.51.85,19a31.35,31.35,0,0,0-5.19-2.57,41,41,0,0,0-5.75-1.74,43.5,43.5,0,0,0-11.32-1,29,29,0,0,0-6.42,1,16.67,16.67,0,0,0-4.82,2.13,9.48,9.48,0,0,0-3,3.05,6.8,6.8,0,0,0-.9,3.83,7.15,7.15,0,0,0,1.44,4,14,14,0,0,0,3.66,3.25,37.54,37.54,0,0,0,5.63,2.9c2.2.93,4.67,1.88,7.43,2.85a79.6,79.6,0,0,1,10.17,4.39,35.1,35.1,0,0,1,7.81,5.46,22.68,22.68,0,0,1,5.14,7.19,29.47,29.47,0,0,1-.25,22.56,23.61,23.61,0,0,1-7.49,8.74,34.3,34.3,0,0,1-11.34,5.15,66.66,66.66,0,0,1-13.83,2.09,78.7,78.7,0,0,1-14.35-.51A43.49,43.49,0,0,1,713.43,1447.19Z"/><path class="cls-4" d="M798.27,1443.12q-.4-10.17-.8-20.34a39.75,39.75,0,0,0,12.35,6.5,39.21,39.21,0,0,0,13.23,1.85,29.51,29.51,0,0,0,6.78-.93,16,16,0,0,0,4.79-2.09,8.64,8.64,0,0,0,2.82-3,7.31,7.31,0,0,0,.84-3.69,7.82,7.82,0,0,0-1.68-4.72,16.64,16.64,0,0,0-4.32-3.75,45.24,45.24,0,0,0-6.43-3.22q-3.71-1.53-8-3.1-11-4.06-16.49-10.28a23.61,23.61,0,0,1-5.92-15.3,23.41,23.41,0,0,1,10-21.08,35.73,35.73,0,0,1,11.46-5.28,59.87,59.87,0,0,1,14-2,84.15,84.15,0,0,1,12.9.46,51.5,51.5,0,0,1,10.42,2.34q.25,9.51.52,19a31.21,31.21,0,0,0-5.15-2.66,40,40,0,0,0-5.71-1.83,42.67,42.67,0,0,0-11.29-1.22,29,29,0,0,0-6.45.88,16.82,16.82,0,0,0-4.85,2,9.74,9.74,0,0,0-3,3,6.79,6.79,0,0,0-1,3.82,7.12,7.12,0,0,0,1.37,4.06,13.89,13.89,0,0,0,3.6,3.32,37.53,37.53,0,0,0,5.58,3q3.27,1.46,7.38,3a79.27,79.27,0,0,1,10.08,4.56A34.75,34.75,0,0,1,853,1402a22.54,22.54,0,0,1,5,7.28,29.48,29.48,0,0,1-.64,22.54,23.66,23.66,0,0,1-7.64,8.62,34.33,34.33,0,0,1-11.42,5,68,68,0,0,1-13.86,1.86,78,78,0,0,1-14.34-.77A43.42,43.42,0,0,1,798.27,1443.12Z"/><path class="cls-4" d="M926,1444.83c-13.07.18-23.78-3.88-32.21-12.21s-12.82-19.32-13.13-33q-.48-21.62,12-35.25t33.6-13.92q19.92-.26,32.3,12.47T971,1396.58q.09,21.51-12.39,34.75T926,1444.83Zm-.13-76.67q-11,.15-17.32,8.38t-6.06,21.58q.24,13.55,6.78,21.32a20.63,20.63,0,0,0,16.88,7.64q10.66-.15,16.85-7.87t6.09-21.34q-.14-14.17-6.33-22T925.91,1368.16Z"/><path class="cls-4" d="M1063.59,1440c-6.72,3.14-15.44,4.63-26.17,4.54-14-.13-25-4.28-33-12.53s-12.06-19.2-12.07-32.91q0-21.87,13.75-35.48t35.82-13.39c9.08.08,16.73,1.31,22.92,3.64q-.15,9.9-.29,19.79a40.74,40.74,0,0,0-21.12-5.73c-8.71-.09-15.77,2.56-21.13,7.91s-8,12.64-8.09,21.85q-.06,13.23,7.39,21.12t20.09,8a43.47,43.47,0,0,0,22.19-5.59Z"/><path class="cls-4" d="M1111.76,1444.21q-10.27-.24-20.56-.45.9-45.6,1.81-91.21,10.47.21,20.94.46Z"/><path class="cls-4" d="M1224.52,1448.2q-11.19-.53-22.4-1-2.82-10.28-5.66-20.55-16.29-.67-32.6-1.23-3.57,10-7.12,20.07-11.15-.37-22.29-.69,17.92-45.12,36.46-90.11,12.4.43,24.82.94Q1210.43,1401.89,1224.52,1448.2Zm-32.16-37.5q-4.32-15.51-8.71-31a39.88,39.88,0,0,1-1.23-8.26l-.52,0a34.44,34.44,0,0,1-1.91,7.88q-5.61,15.27-11.16,30.54Q1180.61,1410.23,1192.36,1410.7Z"/><path class="cls-4" d="M1307.26,1378.13q-13.2-.83-26.41-1.59-2.13,37.2-4.27,74.38-10.3-.6-20.61-1.14l4-74.39q-13.14-.71-26.28-1.33.39-8.36.8-16.72,36.93,1.79,73.85,4.09Q1307.78,1369.79,1307.26,1378.13Z"/><path class="cls-4" d="M1381.25,1458q-27.32-2.14-54.66-4l6.15-91q26.77,1.82,53.53,3.91-.64,8.34-1.3,16.68-16.26-1.27-32.51-2.44-.74,10.11-1.46,20.24,15.07,1.08,30.14,2.25-.65,8.31-1.3,16.62-15-1.17-30-2.25-.75,10.41-1.49,20.82,17.12,1.23,34.24,2.57Q1381.9,1449.73,1381.25,1458Z"/><polygon class="cls-4" points="858.58 1519.13 887.24 1607.31 979.96 1607.31 904.94 1661.81 933.6 1750 858.58 1695.49 783.57 1750 812.22 1661.81 737.21 1607.31 829.93 1607.31 858.58 1519.13"/><polygon class="cls-4" points="1140.51 1519.13 1169.16 1607.31 1261.88 1607.31 1186.87 1661.81 1215.52 1750 1140.51 1695.49 1065.49 1750 1094.14 1661.81 1019.13 1607.31 1111.85 1607.31 1140.51 1519.13"/><path class="cls-5" d="M823,933.5q-11.79.39-23.58.82-6.41-15.6-12.9-31.19-25.62,1-51.25,2.27-4.84,16.1-9.64,32.19-11.73.6-23.47,1.25Q723,875.39,744.9,812.1q12.39-.58,24.78-1.1Q796.92,872.13,823,933.5Zm-42.88-47q-10.08-24.42-20.32-48.81a55.48,55.48,0,0,1-2.1-7.72l-.36,0a48.65,48.65,0,0,1-1.5,7.88q-7.95,25.19-15.74,50.4Q760.14,887.35,780.15,886.54Z"/><path class="cls-5" d="M933.64,815.67Q897.9,865,863.48,914.89q35.17-.87,70.37-1.28.09,8.71.2,17.44-50.12.57-100.22,2.11-.15-4.73-.29-9.45,34.22-49.79,69.77-99.11-33.57.57-67.13,1.56-.25-8.76-.52-17.51,48.93-1.46,97.88-2C933.57,809.65,933.61,812.66,933.64,815.67Z"/><path class="cls-5" d="M1057.34,880.76c-.46,34.94-17.89,52.12-52.3,52-33,0-49.6-16.65-49.89-50.27q-.27-38-.56-76.07,11-.09,22-.12l.24,71.83c.1,24.41,10,36.55,29.85,36.59,19.09,0,28.73-11.62,28.93-35.16q.28-36.57.56-73.13,11,.09,22,.22Q1057.77,843.72,1057.34,880.76Z"/><path class="cls-5" d="M1189.17,934.31q-12.56-.46-25.12-.87-9.79-17-19.74-33.93a69.38,69.38,0,0,0-5.29-8,32.06,32.06,0,0,0-5.33-5.48,18.48,18.48,0,0,0-6-3.19,26.19,26.19,0,0,0-7.36-1.13l-8.76-.21q-.55,25.25-1.12,50.48-10.71-.24-21.42-.43,1.13-62.19,2.24-124.38,21.84.39,43.67,1a66.63,66.63,0,0,1,17.14,2.56,40.91,40.91,0,0,1,13.49,6.71,29.58,29.58,0,0,1,8.74,10.79,31.39,31.39,0,0,1,2.77,14.8,34.46,34.46,0,0,1-2.47,12,31.59,31.59,0,0,1-6.19,9.6,35.82,35.82,0,0,1-9.39,7A47.68,47.68,0,0,1,1146.9,876c0,.12,0,.23,0,.35a34,34,0,0,1,6.08,4.38q2.58,2.38,4.87,4.88a54.41,54.41,0,0,1,4.52,5.66c1.49,2.1,3.12,4.54,4.92,7.32Q1178.31,916.42,1189.17,934.31Zm-76.32-110q-.45,20.21-.89,40.42,9.06.19,18.12.43a28.64,28.64,0,0,0,9.33-1.23,21.5,21.5,0,0,0,7.49-4.05,19.21,19.21,0,0,0,5-6.62,21.78,21.78,0,0,0,2-8.88q.27-8.92-5.57-14.13t-17.1-5.5Q1122.08,824.55,1112.85,824.35Z"/><path class="cls-5" d="M1278.8,938.41q-36.33-2-72.69-3.44l5-124.3q35.75,1.44,71.47,3.36-.48,8.75-.94,17.5-24.64-1.34-49.3-2.42l-1.56,35.18q22.56,1,45.12,2.2-.45,8.71-.92,17.41-22.48-1.18-45-2.19-.81,18.38-1.63,36.75,25.68,1.14,51.37,2.53Q1279.27,929.71,1278.8,938.41Z"/><path class="cls-5" d="M556.45,1151.1q-11.31,1-22.62,2-7-15.25-14.14-30.49-24.59,2.31-49.15,4.85-3.77,16.32-7.46,32.62-11.26,1.2-22.5,2.44,16.4-64.39,34-128.69,11.9-1.2,23.78-2.34Q528,1091.14,556.45,1151.1Zm-43.84-44.71q-11.06-23.87-22.26-47.7a57.11,57.11,0,0,1-2.45-7.6l-.35,0a50.36,50.36,0,0,1-1,8q-6.24,25.54-12.32,51.12Q493.42,1108.21,512.61,1106.39Z"/><path class="cls-5" d="M600,1147.49q-10.63.84-21.25,1.71-5.12-62-10.24-124,10.88-.9,21.76-1.75Q595.16,1085.48,600,1147.49Z"/><path class="cls-5" d="M760,1137.5q-35,1.63-69.9,3.74l-7.5-124.18q34.38-2.07,68.77-3.69.42,8.75.83,17.5-23.73,1.13-47.44,2.45l2,35.17q21.71-1.23,43.41-2.26.42,8.71.83,17.42-21.63,1-43.26,2.25,1,18.36,2.06,36.72,24.7-1.38,49.41-2.54Z"/><path class="cls-5" d="M893.18,1133.07q-11.31.23-22.6.51-30.89-45-62.84-89.57a40.6,40.6,0,0,1-4.07-7l-.53,0q.86,4,1.34,17,1.51,40.74,3,81.49l-20,.78-5.1-124.3q12.33-.51,24.66-1,31.08,43.53,61.15,87.44,3.81,5.46,4.91,7.52h.35q-1-4.93-1.28-16.72l-1.92-80.14q10.19-.24,20.39-.45Q891.93,1070.88,893.18,1133.07Z"/><path class="cls-5" d="M1026.68,1123.66q-19.56,10.46-43.42,10.49c-18.42,0-33.36-5.55-44.93-16.88s-17.56-26.38-17.84-45.23c-.28-19.26,5.82-35.16,18.45-47.65s28.86-18.79,48.58-18.81q21.3,0,35.78,6.14-.06,10.63-.11,21.26-14.58-9.63-34.85-9.62c-13.55,0-24.66,4.45-33.24,13.25s-12.77,20.15-12.63,34q.22,21.42,11.36,33.6t29.91,12.12q12.91,0,22.33-4.94,0-14.79.07-29.58-13.26,0-26.51,0,0-8.68,0-17.35,23.74-.07,47.48.08Q1026.88,1094.12,1026.68,1123.66Z"/><path class="cls-5" d="M1080,1132.78q-10.65-.18-21.29-.32.79-62.19,1.58-124.39,10.9.15,21.82.33Q1081.09,1070.59,1080,1132.78Z"/><path class="cls-5" d="M1221.69,1137.17q-11.28-.51-22.58-1-27.9-46.87-56.88-93.46a40.59,40.59,0,0,1-3.61-7.3l-.53,0q.6,4,.23,17.11L1136,1134q-10-.29-20-.52l3-124.37q12.33.3,24.66.66,28.18,45.46,55.34,91.23,3.45,5.7,4.41,7.82h.35q-.68-5-.19-16.76,1.65-40,3.29-80.09,10.2.42,20.38.88Q1224.5,1075,1221.69,1137.17Z"/><path class="cls-5" d="M1327.73,1143.07q-34.92-2.31-69.88-4.14,3.26-62.12,6.5-124.23,34.38,1.8,68.75,4-.57,8.74-1.15,17.49-23.7-1.56-47.42-2.89l-2,35.16q21.71,1.23,43.4,2.63-.57,8.7-1.13,17.4-21.61-1.39-43.25-2.62l-2.07,36.72q24.69,1.39,49.38,3Q1328.31,1134.37,1327.73,1143.07Z"/><path class="cls-5" d="M1425,1150.45q-34.89-3-69.81-5.49,4.44-62,8.89-124.08,34.35,2.46,68.69,5.38-.75,8.73-1.49,17.46-23.68-2-47.37-3.81-1.34,17.56-2.66,35.12,21.68,1.65,43.35,3.47-.74,8.68-1.46,17.38-21.6-1.83-43.21-3.46-1.4,18.33-2.78,36.67,24.67,1.88,49.33,4Q1425.75,1141.76,1425,1150.45Z"/><path class="cls-5" d="M1548.36,1162.54q-12-1.33-24-2.6-8.18-17.61-16.46-35.2a68.49,68.49,0,0,0-4.49-8.34,31.69,31.69,0,0,0-4.71-5.83,17.77,17.77,0,0,0-5.52-3.6,24.23,24.23,0,0,0-7-1.64l-8.4-.81q-2.38,25.14-4.78,50.26-10.28-1-20.54-1.91,5.65-61.93,11.29-123.89,21,1.92,41.89,4a61.75,61.75,0,0,1,16.29,3.74,38.53,38.53,0,0,1,12.47,7.61,29.19,29.19,0,0,1,7.6,11.37,32.28,32.28,0,0,1,1.57,15,35.37,35.37,0,0,1-3.27,11.82,31.66,31.66,0,0,1-6.65,9.15,34.76,34.76,0,0,1-9.54,6.37,44.8,44.8,0,0,1-12,3.48c0,.11,0,.23,0,.34a32.47,32.47,0,0,1,5.53,4.79q2.3,2.55,4.32,5.21a56.63,56.63,0,0,1,3.92,5.94c1.28,2.2,2.66,4.75,4.18,7.64Q1539.25,1143.95,1548.36,1162.54Zm-65.2-114.93q-1.92,20.13-3.83,40.25,8.68.83,17.38,1.68a26.43,26.43,0,0,0,9-.58,20.58,20.58,0,0,0,7.5-3.52,19.1,19.1,0,0,0,5.34-6.25,22.81,22.81,0,0,0,2.59-8.72q.91-8.88-4.31-14.48t-16-6.66Q1492,1048.45,1483.16,1047.61Z"/></svg>