<svg id="Layer_1" data-name="Layer 1" xmlns="http://www.w3.org/2000/svg" viewBox="0 0 2000 2000"><defs><style>.cls-1{fill:#002050;}.cls-2{fill:#fff;}.cls-3{fill:#0064b5;}.cls-4{fill:#505050;}.cls-5{fill:#16144b;}.cls-6{fill:#282828;}</style></defs><path class="cls-1" d="M1000,10a149.2,149.2,0,0,0-43.11,6.36L398.14,185A142.38,142.38,0,0,0,296.3,322.13v949.14c0,242.84,82.05,327.38,239.29,467.71,153.69,137.16,428.51,238,440.14,242.2L1000,1990l24.27-8.82c11.63-4.23,286.45-105,440.14-242.2,157.24-140.33,239.29-224.87,239.29-467.71V322.13A142.38,142.38,0,0,0,1601.86,185L1043.11,16.36A149.2,149.2,0,0,0,1000,10Z"/><path class="cls-2" d="M1581.33,253.07,1022.56,84.4a78.54,78.54,0,0,0-45.12,0L418.67,253.07a72.13,72.13,0,0,0-51.28,69.05V999.57H1632.61V322.12A72.13,72.13,0,0,0,1581.33,253.07Z"/><path class="cls-3" d="M367.39,1271.28c0,214,64.55,279.94,215.51,414.67,145.27,129.64,417.1,228.42,417.1,228.42s271.83-98.78,417.1-228.42c151-134.73,215.51-200.7,215.51-414.67V999.57H367.39Z"/><path class="cls-4" d="M1000,656.84c-300.5,0-593.32,25.46-870.34,75.68A102.73,102.73,0,0,0,47.27,854.08c25.46,125.27,54.59,278.35,74.23,390a113.27,113.27,0,0,0,111.74,93.78,114.58,114.58,0,0,0,23.46-2.44C354,1315,621.31,1267.58,1000,1267.58s646,47.43,743.31,67.82a114.42,114.42,0,0,0,23.45,2.44,113.27,113.27,0,0,0,111.74-93.78c19.64-111.64,48.77-264.72,74.23-390a102.73,102.73,0,0,0-82.39-121.56c-277-50.22-569.84-75.68-870.34-75.68Z"/><path class="cls-2" d="M1000,1230.27c315.15,0,582.57,33.34,751,68.61a76.19,76.19,0,0,0,90.8-61.28c20.68-117.62,50.24-272,74.41-390.95a65.42,65.42,0,0,0-52.49-77.42c-166.56-30.2-465-75.08-863.68-75.08h0c-398.71,0-697.12,44.88-863.68,75.08a65.42,65.42,0,0,0-52.49,77.42C108,965.58,137.56,1120,158.24,1237.6a76.19,76.19,0,0,0,90.8,61.28c168.39-35.27,435.81-68.61,751-68.61Z"/><path class="cls-5" d="M788.23,400.57H764.69V337.25q0-10.26.88-22.66H765a112.47,112.47,0,0,1-3.31,14l-24.8,71.95H717.38l-25.24-71.21q-1-2.88-3.32-14.77h-.66q.95,15.66,1,27.46v58.52H667.64V294.74h34.91l21.62,62.73a89,89,0,0,1,3.77,15.13h.44a151.86,151.86,0,0,1,4.21-15.27l21.62-62.59h34Z"/><path class="cls-5" d="M820.3,313a13.6,13.6,0,0,1-9.67-3.5,11.29,11.29,0,0,1-3.76-8.6,10.9,10.9,0,0,1,3.76-8.56,15.79,15.79,0,0,1,19.37,0,10.94,10.94,0,0,1,3.73,8.56,11.24,11.24,0,0,1-3.73,8.71A13.84,13.84,0,0,1,820.3,313Zm11.51,87.53H808.49V325h23.32Z"/><path class="cls-5" d="M907.2,397.84q-7.89,4.57-22.8,4.58-17.42,0-28.19-10.56t-10.78-27.23q0-19.26,11.55-30.37t30.89-11.1q13.35,0,19.33,3.54v19.78A26.59,26.59,0,0,0,890.89,341q-10,0-15.9,5.86t-5.87,16.2q0,10,5.61,15.76t15.43,5.72a30.78,30.78,0,0,0,17-5.46Z"/><path class="cls-5" d="M970.27,346a20.32,20.32,0,0,0-9.82-2.28,14.15,14.15,0,0,0-11.88,5.57q-4.27,5.56-4.28,15.17v36.08H921V325h23.33v14h.29q5.53-15.34,19.93-15.35a15,15,0,0,1,5.76.89Z"/><path class="cls-5" d="M1015.62,402.42q-18.9,0-29.71-10.59T975.1,363.08q0-18.75,11.22-29.33t30.33-10.59q18.81,0,29.52,10.59t10.7,28q0,18.81-11,29.74T1015.62,402.42Zm.59-61.4q-8.26,0-12.84,5.68t-4.58,16.09q0,21.76,17.57,21.77,16.74,0,16.75-22.36Q1033.11,341,1016.21,341Z"/><path class="cls-5" d="M1065.54,398.58V379.69a49.78,49.78,0,0,0,11.48,5.16,38.11,38.11,0,0,0,10.81,1.7,23.21,23.21,0,0,0,9.78-1.7q3.59-1.69,3.58-5.16a4.77,4.77,0,0,0-1.62-3.69,15.08,15.08,0,0,0-4.17-2.59,49.38,49.38,0,0,0-5.57-2c-2-.59-4-1.25-5.84-2a56.24,56.24,0,0,1-7.93-3.65,23.11,23.11,0,0,1-5.76-4.54,17.82,17.82,0,0,1-3.54-6,23.86,23.86,0,0,1-1.22-8,20.79,20.79,0,0,1,2.77-10.93,22.67,22.67,0,0,1,7.38-7.49,33.79,33.79,0,0,1,10.56-4.28,55,55,0,0,1,12.36-1.36,68,68,0,0,1,10.18.77,77.55,77.55,0,0,1,10.19,2.25v18a36.49,36.49,0,0,0-9.49-3.87,39.54,39.54,0,0,0-9.92-1.3,22,22,0,0,0-4.32.41,13.93,13.93,0,0,0-3.58,1.18,6.74,6.74,0,0,0-2.44,2,4.59,4.59,0,0,0-.88,2.77,5.08,5.08,0,0,0,1.33,3.54,11.29,11.29,0,0,0,3.47,2.55,34.67,34.67,0,0,0,4.76,1.92c1.74.56,3.48,1.14,5.2,1.73a65.66,65.66,0,0,1,8.41,3.55,26.75,26.75,0,0,1,6.46,4.49,17.75,17.75,0,0,1,4.13,6.06,24.23,24.23,0,0,1-1.47,19.74,23.44,23.44,0,0,1-7.75,7.75,35.17,35.17,0,0,1-11.15,4.35,61.73,61.73,0,0,1-13.1,1.37A67.54,67.54,0,0,1,1065.54,398.58Z"/><path class="cls-5" d="M1171.49,402.42q-18.88,0-29.7-10.59T1131,363.08q0-18.75,11.21-29.33t30.34-10.59q18.81,0,29.51,10.59t10.71,28q0,18.81-11,29.74T1171.49,402.42Zm.6-61.4q-8.28,0-12.85,5.68t-4.57,16.09q0,21.76,17.56,21.77,16.76,0,16.75-22.36Q1189,341,1172.09,341Z"/><path class="cls-5" d="M1275.66,306.55a23.52,23.52,0,0,0-8.63-1.77q-11.22,0-11.22,12.18v8h17.27v17.2h-17.27v58.37h-23.25V342.2h-12.69V325h12.69v-9.37q0-12.92,8.42-20.81t22.88-7.9a39.93,39.93,0,0,1,11.8,1.48Z"/><path class="cls-5" d="M1328.47,399.69q-5.16,2.73-15.57,2.73-24.66,0-24.65-25.61V342.2H1276V325h12.25V308.69l23.25-6.64V325h17v17.2h-17v30.55q0,11.81,9.37,11.81a15.77,15.77,0,0,0,7.6-2.14Z"/><path class="cls-5" d="M728.5,544.69q-9,4.77-22.49,4.77-17.38,0-27.85-11.19t-10.45-29.38q0-19.54,11.76-31.59t29.83-12q11.6,0,19.2,3.35v10.17a38.9,38.9,0,0,0-19.31-4.89q-14,0-22.76,9.38t-8.72,25.05q0,14.9,8.15,23.73t21.39,8.83q12.29,0,21.25-5.45Z"/><path class="cls-5" d="M808.06,548.1H764.88V466.62h41.36v8.63H774.42v27.11h29.44v8.58H774.42v28.52h33.64Z"/><path class="cls-5" d="M901.93,548.1H890.57l-13.64-22.84a51,51,0,0,0-3.63-5.43,21.34,21.34,0,0,0-3.61-3.67,12.73,12.73,0,0,0-4-2.07,16.54,16.54,0,0,0-4.8-.65h-7.84V548.1h-9.55V466.62h24.32A34.72,34.72,0,0,1,877.7,468a22,22,0,0,1,7.84,4.06,18.84,18.84,0,0,1,5.2,6.79,22.52,22.52,0,0,1,1.87,9.52,23,23,0,0,1-1.27,7.81,20.4,20.4,0,0,1-3.64,6.33,22.27,22.27,0,0,1-5.68,4.75,29.39,29.39,0,0,1-7.47,3v.22a17.47,17.47,0,0,1,3.55,2.08,19.42,19.42,0,0,1,2.87,2.75,38.53,38.53,0,0,1,2.7,3.61c.88,1.35,1.88,2.91,3,4.69Zm-48.86-72.85V504.8H866a19.64,19.64,0,0,0,6.62-1.08,15.26,15.26,0,0,0,5.25-3.09,13.93,13.93,0,0,0,3.47-4.95,16.43,16.43,0,0,0,1.25-6.56q0-6.53-4.23-10.2t-12.24-3.67Z"/><path class="cls-5" d="M975.86,475.25H952.34V548.1h-9.55V475.25H919.33v-8.63h56.53Z"/><path class="cls-5" d="M1018,548.1h-9.54V466.62H1018Z"/><path class="cls-5" d="M1100.53,475.25h-31.82v28.19h29.43V512h-29.43V548.1h-9.54V466.62h41.36Z"/><path class="cls-5" d="M1145.31,548.1h-9.54V466.62h9.54Z"/><path class="cls-5" d="M1229.7,548.1h-43.18V466.62h41.36v8.63h-31.82v27.11h29.44v8.58h-29.44v28.52h33.64Z"/><path class="cls-5" d="M1265.16,548.1V466.62h22.5q43.08,0,43.07,39.71,0,18.87-12,30.32t-32,11.45Zm9.55-72.85v64.21h12.16q16,0,24.94-8.58t8.92-24.32q0-31.31-33.29-31.31Z"/><polygon class="cls-2" points="1000 1436.83 1031.5 1533.78 1133.44 1533.78 1050.97 1593.7 1082.47 1690.64 1000 1630.73 917.53 1690.64 949.03 1593.7 866.56 1533.78 968.5 1533.78 1000 1436.83"/><path class="cls-6" d="M708.05,940.51q-11.68.51-23.37,1.06-6.52-15.54-13.1-31.07-25.38,1.23-50.74,2.67-4.68,16.13-9.32,32.25-11.62.69-23.27,1.4,20.21-63.57,41.3-127L654,818.52Q681.46,879.41,708.05,940.51Zm-43-46.54q-10.2-24.33-20.55-48.64a57.54,57.54,0,0,1-2.14-7.7l-.36,0a48,48,0,0,1-1.41,7.89q-7.64,25.25-15.13,50.52Q645.26,895,665.07,894Z"/><path class="cls-6" d="M815.91,821.26q-34.51,49.9-68,100.18,34.85-1.32,69.71-2.25.24,8.71.47,17.43-49.68,1.33-99.36,3.43l-.39-9.45q33.33-50.16,67.73-100-33.14,1-66.27,2.4l-.72-17.51q48.27-2,96.56-3.28C815.74,815.24,815.83,818.25,815.91,821.26Z"/><path class="cls-6" d="M939.34,884.13c.27,35-16.66,52.49-50.8,53-32.7.55-49.47-15.79-50.29-49.4q-.91-38-1.81-76.06,10.86-.26,21.73-.48L859.64,883c.52,24.41,10.59,36.38,30.22,36.06,18.92-.3,28.24-12.16,28-35.7q-.44-36.57-.86-73.13,10.86-.12,21.73-.22Q939,847.09,939.34,884.13Z"/><path class="cls-6" d="M1071.13,934.61q-12.47-.14-24.92-.23-10.14-16.74-20.39-33.43a67.23,67.23,0,0,0-5.42-7.88,32,32,0,0,0-5.4-5.35,18.46,18.46,0,0,0-6-3.05,25.86,25.86,0,0,0-7.32-1H993l0,50.49q-10.62,0-21.23,0l-.48-124.4q21.55-.09,43.1,0a64.66,64.66,0,0,1,17,2.14,40,40,0,0,1,13.47,6.38,29.4,29.4,0,0,1,8.88,10.56,31.71,31.71,0,0,1,3.12,14.73,34.93,34.93,0,0,1-2.16,12.09,31.13,31.13,0,0,1-5.88,9.75,35.55,35.55,0,0,1-9.1,7.27,46.87,46.87,0,0,1-11.91,4.62v.35a33.3,33.3,0,0,1,6.12,4.23c1.74,1.55,3.38,3.13,4.93,4.76a55.24,55.24,0,0,1,4.61,5.54c1.53,2.06,3.2,4.46,5,7.19Q1059.9,917,1071.13,934.61ZM993,826.54,993,867q9,0,17.93,0a27.72,27.72,0,0,0,9.19-1.45,21.16,21.16,0,0,0,7.31-4.22,19.39,19.39,0,0,0,4.85-6.75,22.39,22.39,0,0,0,1.76-8.92c0-6-1.9-10.63-5.83-14s-9.61-5.07-17-5.09Z"/><path class="cls-6" d="M1160.07,936.2q-36.06-.88-72.14-1.38.85-62.21,1.7-124.39,35.3.48,70.58,1.33-.21,8.76-.43,17.52-24.35-.59-48.71-1l-.6,35.22q22.33.38,44.66.9-.21,8.72-.41,17.43-22.28-.52-44.54-.9l-.63,36.78q25.48.43,51,1Q1160.29,927.49,1160.07,936.2Z"/><path class="cls-6" d="M1342.54,943.19q-11.68-.6-23.37-1.17-5-16.1-10.07-32.18-25.38-1.2-50.76-2.19-6.19,15.6-12.35,31.21-11.64-.43-23.29-.83,26.17-61.35,53.24-122.48,12.22.5,24.45,1.05Q1321.92,879.83,1342.54,943.19Zm-38.33-50.43q-7.85-25.2-15.81-50.38a55.39,55.39,0,0,1-1.39-7.87l-.37,0a48.71,48.71,0,0,1-2.15,7.72q-10,24.42-19.89,48.85Q1284.4,891.86,1304.21,892.76Z"/><path class="cls-6" d="M1383.86,945.48q-11-.65-21.93-1.25L1368.77,820q11.18.62,22.34,1.27Q1387.48,883.38,1383.86,945.48Z"/><path class="cls-6" d="M348.07,1061q-23.6,2.35-47.17,4.88,2,18.59,4,37.18,21.6-2.31,43.23-4.49l1.74,17.35q-21.57,2.17-43.11,4.48,2.77,25.88,5.54,51.75-10.29,1.11-20.59,2.24L278,1050.73q34.13-3.76,68.29-7.18Z"/><path class="cls-6" d="M477.63,1106.1c2.77,34.84-12.36,53.52-45.36,56.41-31.62,2.81-49-12.35-52.26-45.81q-3.63-37.86-7.25-75.73,10.5-1,21-2,3.32,35.76,6.62,71.53,3.38,36.45,31.86,33.88,27.44-2.4,24.51-37.54-3-36.43-6.1-72.88,10.51-.87,21-1.72Z"/><path class="cls-6" d="M621.73,1146.53q-11.29.66-22.57,1.36-32.55-43.79-65.94-87.24a41.09,41.09,0,0,1-4.3-6.91l-.53,0q1,3.93,1.93,17l5.85,81.34q-10,.71-19.95,1.46-4.65-62-9.31-124,12.26-.91,24.49-1.79,32.45,42.43,64.1,85.18,4,5.31,5.18,7.33l.35,0q-1.18-4.89-1.9-16.66-2.46-40-4.93-80,10.13-.63,20.26-1.22Q618.09,1084.43,621.73,1146.53Z"/><path class="cls-6" d="M657.88,1144.51l-6.57-124.22q18.33-1,36.65-1.84c46.84-2.18,71,17.29,72.42,57.66q1,28.79-17.48,47t-50.55,19.7Q675.12,1143.6,657.88,1144.51Zm15.28-107.8q2.22,44.67,4.43,89.33l16.55-.8q21.86-1,33.5-13.47t10.83-34.3c-1.14-29.06-17.06-43-47.74-41.6Q681.94,1036.28,673.16,1036.71Z"/><path class="cls-6" d="M890.37,1136.44l-22.67.42q-5.93-15.72-11.91-31.42-24.63.54-49.25,1.26-4.93,16-9.84,32-11.28.36-22.58.75,21.17-63,43.24-125.81,11.86-.33,23.74-.61Q866.18,1074.63,890.37,1136.44Zm-40.46-47.71q-9.27-24.6-18.69-49.18a58.79,58.79,0,0,1-1.87-7.76H829a50.68,50.68,0,0,1-1.57,7.85q-8,25-16,50.07Q830.7,1089.18,849.91,1088.73Z"/><path class="cls-6" d="M1046.68,1135.74l-20.51-.12.36-80.51q0-9.88,1.34-24.19h-.35a84.57,84.57,0,0,1-3.49,11.7q-19.06,46.42-37.58,93l-14.26,0q-18.81-46.08-38.18-92a86.77,86.77,0,0,1-3.47-12.38h-.35q.78,7.45.95,24.37l.81,80.32q-9.56.11-19.11.23-.83-62.2-1.64-124.39,14.84-.19,29.68-.33,17.05,41.28,33.69,82.65a121.38,121.38,0,0,1,4.94,14.21h.43q3.21-9.81,5.21-14.59,16.73-41.28,33.87-82.47,14.31,0,28.61.16Q1047.15,1073.54,1046.68,1135.74Z"/><path class="cls-6" d="M1152.65,1137.43q-35-.84-70-1.31l1.65-124.39q34.23.45,68.47,1.27-.21,8.76-.41,17.52-23.64-.57-47.27-1-.29,17.6-.58,35.21,21.66.36,43.32.86-.2,8.71-.4,17.43-21.6-.49-43.21-.85l-.6,36.77q24.7.42,49.4,1Z"/><path class="cls-6" d="M1285.77,1142q-11.3-.51-22.58-1-27.86-46.92-56.57-93.58a40.5,40.5,0,0,1-3.56-7.32l-.53,0q.59,4,.17,17.11l-2.58,81.5q-10-.32-20-.6l3.54-124.35q12.27.36,24.53.75,27.88,45.56,55,91.34,3.43,5.7,4.39,7.82l.35,0q-.66-5-.17-16.77,1.68-40,3.35-80.09l20.27.88Z"/><path class="cls-6" d="M1408.52,1041.63q-18.16-1.16-36.35-2.19-3.08,53.34-6.13,106.7-10.33-.6-20.66-1.16,2.89-53.36,5.78-106.72-18.14-1-36.27-1.86.42-8.76.85-17.51,47,2.29,93.88,5.25Q1409.08,1032.89,1408.52,1041.63Z"/><path class="cls-6" d="M1514.6,1156.4q-11.32-.92-22.64-1.79-4.37-16.21-8.8-32.42-24.59-1.86-49.17-3.52-6.46,15.42-12.9,30.87-11.28-.75-22.56-1.45,27.18-60.63,55.26-121,11.85.83,23.7,1.7Q1496.5,1092.53,1514.6,1156.4ZM1478.92,1105q-6.86-25.4-13.84-50.77a58.36,58.36,0,0,1-1.11-7.9l-.35,0a50.68,50.68,0,0,1-2.32,7.66q-10.44,24.13-20.75,48.29Q1459.74,1103.56,1478.92,1105Z"/><path class="cls-6" d="M1605.8,1164.42q-34.38-3.27-68.8-6.17l10.44-124,21,1.8q-4.67,53.28-9.32,106.56,24.15,2.11,48.3,4.41Z"/><path class="cls-6" d="M1623.82,1161.19l2.07-21.16a33.14,33.14,0,0,0,6.36,5.34,53.21,53.21,0,0,0,8,4.32,66.56,66.56,0,0,0,8.63,3.1,47.23,47.23,0,0,0,8.08,1.61q13,1.35,19.84-2.29t7.72-11.82a13.68,13.68,0,0,0-1.31-7.87,22.51,22.51,0,0,0-5.34-6.54,63.66,63.66,0,0,0-8.49-6.08c-3.3-2-6.82-4.1-10.6-6.28q-6-4-11.19-8a52.27,52.27,0,0,1-8.82-8.6,32.06,32.06,0,0,1-5.45-10.08,30.31,30.31,0,0,1-1.12-12.58,28.23,28.23,0,0,1,5.48-14.76,33.69,33.69,0,0,1,11.63-9.57,49,49,0,0,1,15.58-4.7,72.31,72.31,0,0,1,17.34-.25q19.86,2.1,28.46,7.51l-2.22,20.26q-9.9-8.76-26.81-10.55a49.79,49.79,0,0,0-9.38-.11,28,28,0,0,0-8.56,2,17.94,17.94,0,0,0-6.46,4.49,12.36,12.36,0,0,0-3,7.28,14,14,0,0,0,1,7.34,18.44,18.44,0,0,0,4.57,6,52.61,52.61,0,0,0,7.73,5.73q4.61,2.86,10.71,6.31,6.21,4,11.62,8.39a57.76,57.76,0,0,1,9.33,9.29,36,36,0,0,1,5.88,10.72,29,29,0,0,1,1.2,12.75q-1,9.4-5.57,15.45a31.06,31.06,0,0,1-11.41,9.4,46.84,46.84,0,0,1-15.48,4.28,85.34,85.34,0,0,1-17.93,0,74.48,74.48,0,0,1-7.61-1.26c-3-.62-6.06-1.4-9.17-2.32a88.53,88.53,0,0,1-8.79-3.09A29.14,29.14,0,0,1,1623.82,1161.19Z"/></svg>