<svg id="Layer_1" data-name="Layer 1" xmlns="http://www.w3.org/2000/svg" viewBox="0 0 2000 2000"><defs><style>.cls-1{fill:#505050;}.cls-2{fill:#0064b5;}.cls-3{fill:#fff;}.cls-4{fill:#282828;}</style></defs><path class="cls-1" d="M1000,10a149.2,149.2,0,0,0-43.11,6.36L398.14,185A142.38,142.38,0,0,0,296.3,322.13v949.14c0,242.84,82.05,327.38,239.29,467.71,153.69,137.16,428.51,238,440.14,242.2L1000,1990l24.27-8.82c11.63-4.23,286.45-105,440.14-242.2,157.24-140.33,239.29-224.87,239.29-467.71V322.13A142.38,142.38,0,0,0,1601.86,185L1043.11,16.36A149.2,149.2,0,0,0,1000,10Z"/><path class="cls-1" d="M1581.33,253.07,1022.56,84.4a78.54,78.54,0,0,0-45.12,0L418.67,253.07a72.13,72.13,0,0,0-51.28,69.05V999.57H1632.61V322.12A72.13,72.13,0,0,0,1581.33,253.07Z"/><path class="cls-2" d="M367.39,1271.28c0,214,64.55,279.94,215.51,414.67,145.27,129.64,417.1,228.42,417.1,228.42s271.83-98.78,417.1-228.42c151-134.73,215.51-200.7,215.51-414.67V999.57H367.39Z"/><path class="cls-1" d="M1000,656.84c-300.5,0-593.32,25.46-870.34,75.68A102.73,102.73,0,0,0,47.27,854.08c25.46,125.27,54.59,278.35,74.23,390a113.27,113.27,0,0,0,111.74,93.78,114.58,114.58,0,0,0,23.46-2.44C354,1315,621.31,1267.58,1000,1267.58s646,47.43,743.31,67.82a114.42,114.42,0,0,0,23.45,2.44,113.27,113.27,0,0,0,111.74-93.78c19.64-111.64,48.77-264.72,74.23-390a102.73,102.73,0,0,0-82.39-121.56c-277-50.22-569.84-75.68-870.34-75.68Z"/><path class="cls-3" d="M1000,1230.27c315.15,0,582.57,33.34,751,68.61a76.19,76.19,0,0,0,90.8-61.28c20.68-117.62,50.24-272,74.41-390.95a65.42,65.42,0,0,0-52.49-77.42c-166.56-30.2-465-75.08-863.68-75.08h0c-398.71,0-697.12,44.88-863.68,75.08a65.42,65.42,0,0,0-52.49,77.42C108,965.58,137.56,1120,158.24,1237.6a76.19,76.19,0,0,0,90.8,61.28c168.39-35.27,435.81-68.61,751-68.61Z"/><polygon class="cls-3" points="858.58 1519.13 887.24 1607.31 979.96 1607.31 904.94 1661.81 933.6 1750 858.58 1695.49 783.57 1750 812.22 1661.81 737.21 1607.31 829.93 1607.31 858.58 1519.13"/><polygon class="cls-3" points="1140.51 1519.13 1169.16 1607.31 1261.88 1607.31 1186.87 1661.81 1215.52 1750 1140.51 1695.49 1065.49 1750 1094.14 1661.81 1019.13 1607.31 1111.85 1607.31 1140.51 1519.13"/><path class="cls-3" d="M697.32,1454.91q-11.19.67-22.38,1.4-3.9-9.91-7.83-19.82c-10.84.71-21.71,1.47-32.55,2.26q-2.49,10.35-4.95,20.71-11.11.82-22.24,1.7,13-46.77,26.62-93.49,12.4-.89,24.81-1.72Q678.36,1410.35,697.32,1454.91Zm-36-33.85q-6-15-12-29.92a39.07,39.07,0,0,1-2.12-8.08l-.51,0a34.67,34.67,0,0,1-1.06,8q-4,15.78-7.84,31.56Q649.58,1421.85,661.33,1421.06Z"/><path class="cls-3" d="M716,1450.31q-.57-10.17-1.15-20.33a39.77,39.77,0,0,0,25.73,7.92,29.44,29.44,0,0,0,6.75-1.05,16.3,16.3,0,0,0,4.76-2.17,8.59,8.59,0,0,0,2.77-3.07,7.35,7.35,0,0,0,.78-3.7,7.91,7.91,0,0,0-1.77-4.69,16.09,16.09,0,0,0-4.38-3.67,42.84,42.84,0,0,0-6.49-3.12q-3.74-1.46-8-3c-7.33-2.59-12.92-5.91-16.67-10a23.62,23.62,0,0,1-6.18-15.2,23.42,23.42,0,0,1,9.67-21.25,36.08,36.08,0,0,1,11.37-5.48,60.81,60.81,0,0,1,13.92-2.27,83.78,83.78,0,0,1,12.9.25,50,50,0,0,1,10.46,2.16q.43,9.49.85,19a31.75,31.75,0,0,0-5.19-2.57,39.76,39.76,0,0,0-5.75-1.73,41.13,41.13,0,0,0-5.84-.91,40.59,40.59,0,0,0-5.47-.11,28.16,28.16,0,0,0-6.43,1,16.79,16.79,0,0,0-4.82,2.12,9.48,9.48,0,0,0-2.95,3,6.83,6.83,0,0,0-.89,3.84,7.14,7.14,0,0,0,1.44,4,13.35,13.35,0,0,0,3.65,3.25,36.63,36.63,0,0,0,5.63,2.9c2.2.94,4.69,1.88,7.43,2.85a79.79,79.79,0,0,1,10.17,4.39,35.91,35.91,0,0,1,7.81,5.46,22.77,22.77,0,0,1,5.14,7.2,26.36,26.36,0,0,1,2.1,9.61A25.89,25.89,0,0,1,775,1438a23.57,23.57,0,0,1-7.5,8.75,34.41,34.41,0,0,1-11.34,5.15,67.6,67.6,0,0,1-13.83,2.09,79.47,79.47,0,0,1-14.34-.52A43.14,43.14,0,0,1,716,1450.31Z"/><path class="cls-3" d="M800.88,1446.24q-.4-10.17-.8-20.34a39.63,39.63,0,0,0,25.58,8.35,29.5,29.5,0,0,0,6.77-.93,16.26,16.26,0,0,0,4.8-2.09,8.62,8.62,0,0,0,2.81-3,7.32,7.32,0,0,0,.85-3.69,7.92,7.92,0,0,0-1.69-4.72,16.61,16.61,0,0,0-4.32-3.74,43.53,43.53,0,0,0-6.42-3.23c-2.47-1-5.17-2-8-3.1q-10.94-4.07-16.49-10.28a23.61,23.61,0,0,1-5.92-15.3,23.41,23.41,0,0,1,10-21.08,36.06,36.06,0,0,1,11.46-5.28,60.4,60.4,0,0,1,14-2,82.83,82.83,0,0,1,12.91.47,50.58,50.58,0,0,1,10.41,2.34c.18,6.33.34,12.67.52,19a31.07,31.07,0,0,0-5.14-2.65,38.53,38.53,0,0,0-5.72-1.84,43,43,0,0,0-5.82-1,39.57,39.57,0,0,0-5.47-.21,28.63,28.63,0,0,0-6.45.88,16.43,16.43,0,0,0-4.85,2,9.75,9.75,0,0,0-3,3,6.76,6.76,0,0,0-1,3.82,7,7,0,0,0,1.36,4.06,14,14,0,0,0,3.6,3.31,36.45,36.45,0,0,0,5.58,3q3.24,1.46,7.38,3a78.13,78.13,0,0,1,10.08,4.56,34.83,34.83,0,0,1,7.72,5.6,22.81,22.81,0,0,1,5,7.28A29.38,29.38,0,0,1,860,1435a23.37,23.37,0,0,1-7.64,8.61,34.44,34.44,0,0,1-11.42,5,68,68,0,0,1-13.86,1.85,78.69,78.69,0,0,1-14.33-.76A43.41,43.41,0,0,1,800.88,1446.24Z"/><path class="cls-3" d="M928.65,1448q-19.59.27-32.22-12.21c-8.41-8.33-12.81-19.32-13.12-33q-.49-21.63,12-35.25t33.6-13.92c13.27-.18,24.07,4,32.3,12.46s12.37,19.7,12.41,33.65q.06,21.51-12.39,34.74T928.65,1448Zm-.14-76.66c-7.31.1-13.12,2.9-17.31,8.37s-6.22,12.68-6.07,21.58,2.44,16.15,6.79,21.33a20.59,20.59,0,0,0,16.87,7.63c7.1-.1,12.74-2.71,16.85-7.86s6.15-12.26,6.09-21.34c-.07-9.46-2.2-16.8-6.33-22S935.62,1371.2,928.51,1371.29Z"/><path class="cls-3" d="M1066.19,1443.17c-6.72,3.13-15.43,4.62-26.17,4.53-14-.13-25-4.28-33-12.53s-12-19.2-12.06-32.9q0-21.88,13.75-35.48c9.16-9,21.17-13.54,35.81-13.4,9.08.09,16.75,1.31,22.92,3.65q-.15,9.89-.28,19.78a40.78,40.78,0,0,0-21.13-5.73q-13.08-.12-21.12,7.91t-8.1,21.85c0,8.83,2.44,15.86,7.39,21.13s11.66,7.93,20.09,8a43.47,43.47,0,0,0,22.19-5.59Z"/><path class="cls-3" d="M1114.37,1447.33l-20.57-.45q.92-45.6,1.81-91.21,10.47.21,21,.46Q1115.45,1401.73,1114.37,1447.33Z"/><path class="cls-3" d="M1227.13,1451.33q-11.2-.52-22.41-1-2.81-10.27-5.66-20.55-16.29-.66-32.6-1.23c-2.37,6.69-4.76,13.38-7.12,20.07q-11.14-.37-22.28-.69,17.91-45.12,36.45-90.11,12.4.43,24.83.94Q1213,1405,1227.13,1451.33Zm-32.17-37.5q-4.31-15.52-8.7-31a39.73,39.73,0,0,1-1.24-8.26l-.52,0a35.18,35.18,0,0,1-1.91,7.89q-5.61,15.25-11.16,30.53Q1183.21,1413.36,1195,1413.83Z"/><path class="cls-3" d="M1309.86,1381.25q-13.2-.82-26.41-1.58l-4.26,74.37-20.62-1.14,4-74.39q-13.14-.71-26.28-1.33.4-8.36.8-16.71,36.93,1.77,73.86,4.08Z"/><path class="cls-3" d="M1383.85,1461.16q-27.31-2.15-54.66-4,3.09-45.51,6.15-91,26.79,1.8,53.54,3.9-.66,8.34-1.31,16.68-16.24-1.27-32.51-2.44-.72,10.13-1.45,20.24,15.06,1.08,30.13,2.26l-1.29,16.61q-15-1.15-30-2.24-.73,10.41-1.49,20.81,17.11,1.23,34.24,2.58Q1384.5,1452.86,1383.85,1461.16Z"/><path class="cls-3" d="M645.92,400.57H622.38V337.25q0-10.26.89-22.66h-.59a111.37,111.37,0,0,1-3.33,14l-24.79,72H575.07l-25.24-71.22q-1-2.88-3.32-14.76h-.66q1,15.66,1,27.46v58.52H525.33V294.74h34.91l21.62,62.73a89,89,0,0,1,3.77,15.13h.44a152.11,152.11,0,0,1,4.21-15.28l21.62-62.58h34Z"/><path class="cls-3" d="M678,313a13.6,13.6,0,0,1-9.67-3.5,11.29,11.29,0,0,1-3.76-8.6,10.9,10.9,0,0,1,3.76-8.56,15.8,15.8,0,0,1,19.38,0,11,11,0,0,1,3.72,8.56,11.25,11.25,0,0,1-3.72,8.71A13.88,13.88,0,0,1,678,313Zm11.51,87.53H666.18V325H689.5Z"/><path class="cls-3" d="M764.89,397.84q-7.89,4.57-22.8,4.58-17.42,0-28.2-10.56t-10.76-27.23q0-19.26,11.54-30.37t30.89-11.11q13.35,0,19.33,3.55v19.78A26.58,26.58,0,0,0,748.58,341q-10,0-15.9,5.87t-5.87,16.2q0,10,5.61,15.76t15.42,5.72a30.78,30.78,0,0,0,17-5.46Z"/><path class="cls-3" d="M828,346a20.21,20.21,0,0,0-9.8-2.29,14.15,14.15,0,0,0-11.89,5.58Q802,354.89,802,364.48v36.09H778.66V325H802v14h.3q5.54-15.34,19.92-15.35a14.76,14.76,0,0,1,5.75.89Z"/><path class="cls-3" d="M873.31,402.42q-18.9,0-29.71-10.59t-10.81-28.75q0-18.74,11.22-29.34t30.33-10.59q18.82,0,29.52,10.59t10.71,28q0,18.83-11,29.75T873.31,402.42ZM873.9,341q-8.26,0-12.84,5.69t-4.58,16.09q0,21.76,17.57,21.77,16.74,0,16.75-22.36Q890.8,341,873.9,341Z"/><path class="cls-3" d="M923.24,398.58V379.69a49.6,49.6,0,0,0,11.48,5.16,37.66,37.66,0,0,0,10.81,1.7c4.13,0,7.39-.56,9.78-1.7s3.57-2.85,3.57-5.16a4.77,4.77,0,0,0-1.62-3.69,14.94,14.94,0,0,0-4.17-2.59,48.69,48.69,0,0,0-5.57-2c-2-.59-4-1.25-5.83-2a55.21,55.21,0,0,1-7.93-3.65,23.11,23.11,0,0,1-5.76-4.54,17.92,17.92,0,0,1-3.54-6,23.92,23.92,0,0,1-1.22-8.05A20.68,20.68,0,0,1,926,336.29a22.48,22.48,0,0,1,7.38-7.49,33.73,33.73,0,0,1,10.55-4.28,55,55,0,0,1,12.36-1.37,68.34,68.34,0,0,1,10.19.78,75.49,75.49,0,0,1,10.18,2.25v18a37.08,37.08,0,0,0-9.49-3.88,39.92,39.92,0,0,0-9.92-1.29,21.9,21.9,0,0,0-4.31.41,14.14,14.14,0,0,0-3.59,1.18,6.52,6.52,0,0,0-2.43,2,4.58,4.58,0,0,0-.89,2.77,5.14,5.14,0,0,0,1.33,3.54,11.41,11.41,0,0,0,3.47,2.55,34.67,34.67,0,0,0,4.76,1.92c1.74.57,3.48,1.14,5.2,1.73a66.51,66.51,0,0,1,8.41,3.54,26.86,26.86,0,0,1,6.46,4.5,17.66,17.66,0,0,1,4.13,6.06A24.12,24.12,0,0,1,978.33,389a23.41,23.41,0,0,1-7.74,7.75,35.27,35.27,0,0,1-11.15,4.35,61.86,61.86,0,0,1-13.1,1.37A67.45,67.45,0,0,1,923.24,398.58Z"/><path class="cls-3" d="M1029.18,402.42q-18.88,0-29.71-10.59t-10.81-28.75q0-18.74,11.22-29.34t30.33-10.59q18.82,0,29.52,10.59t10.71,28q0,18.83-11,29.75T1029.18,402.42Zm.59-61.41q-8.26,0-12.84,5.69t-4.58,16.09q0,21.76,17.57,21.77,16.75,0,16.75-22.36Q1046.67,341,1029.77,341Z"/><path class="cls-3" d="M1133.35,306.55a23.57,23.57,0,0,0-8.64-1.77q-11.2,0-11.21,12.17V325h17.27v17.19H1113.5v58.38h-23.25V342.19h-12.69V325h12.69v-9.38q0-12.9,8.42-20.8t22.87-7.9a40,40,0,0,1,11.81,1.48Z"/><path class="cls-3" d="M1186.16,399.69q-5.16,2.73-15.57,2.73-24.66,0-24.66-25.61V342.19h-12.25V325h12.25V308.69l23.25-6.65v23h17v17.19h-17v30.56q0,11.81,9.38,11.81a15.77,15.77,0,0,0,7.6-2.14Z"/><path class="cls-3" d="M1239,397.1V376.81a40.9,40.9,0,0,0,24.79,7.75q8.94,0,13.91-3.84a12.75,12.75,0,0,0,5-10.7,12.15,12.15,0,0,0-6.16-10.92q-6.16-3.84-16.94-3.84h-9.51V337.4h8.78q20.66,0,20.66-13.73,0-12.92-15.87-12.92-10.62,0-20.66,6.87v-19q11.15-5.61,26-5.61,16.23,0,25.27,7.31a23.23,23.23,0,0,1,9,19q0,20.75-21,26v.37q11.22,1.41,17.71,8.15a23,23,0,0,1,6.5,16.57q0,14.83-10.85,23.47t-30,8.64Q1249.26,402.42,1239,397.1Z"/><path class="cls-3" d="M1388,295.85v19.48a34.89,34.89,0,0,0-17.56-4.58,23.1,23.1,0,0,0-18.93,9q-7.2,9-7.49,24h.44q7.6-11.21,22.22-11.21,13.27,0,21.06,9t7.8,23.84q0,15.94-10.34,26.49t-26.27,10.56q-17.87,0-27.9-12.92t-10-36.23q0-27.47,12.92-43.88T1368.94,293Q1381.18,293,1388,295.85Zm-29.22,53.95a12.68,12.68,0,0,0-10.22,4.5,17.2,17.2,0,0,0-3.8,11.51,22.41,22.41,0,0,0,3.87,13.25,12.55,12.55,0,0,0,20.34.59q3.76-4.9,3.76-12.8Q1372.7,349.8,1358.75,349.8Z"/><path class="cls-3" d="M1411.11,397.84V377.92a43.59,43.59,0,0,0,23.1,6.64q9.22,0,14.43-4.39t5.2-11.92q0-15.72-22.21-15.72a138.57,138.57,0,0,0-17.49,1.33V294.74h58.6v19h-38.68V335q4.65-.43,8.79-.44,16.31,0,25.53,8.56t9.23,23q0,16-11,26.16t-29.81,10.15Q1421.52,402.42,1411.11,397.84Z"/><path class="cls-3" d="M734.43,544.69q-9,4.77-22.5,4.77-17.38,0-27.84-11.19t-10.46-29.38q0-19.54,11.76-31.59t29.83-12.05q11.6,0,19.21,3.36v10.17a38.93,38.93,0,0,0-19.32-4.89q-14,0-22.76,9.38t-8.72,25.05q0,14.9,8.15,23.73t21.4,8.83q12.26,0,21.25-5.46Z"/><path class="cls-3" d="M814,548.09H770.8V466.62h41.36v8.63H780.35v27.11h29.42v8.58H780.35v28.52H814Z"/><path class="cls-3" d="M907.85,548.09H896.49l-13.64-22.83a49,49,0,0,0-3.63-5.43,21,21,0,0,0-3.61-3.67,12.84,12.84,0,0,0-4-2.07,16.19,16.19,0,0,0-4.8-.66H859v34.66h-9.54V466.62h24.31a34.68,34.68,0,0,1,9.86,1.33,22,22,0,0,1,7.84,4.07,18.84,18.84,0,0,1,5.2,6.79,22.51,22.51,0,0,1,1.88,9.51,22.79,22.79,0,0,1-1.29,7.82,20.18,20.18,0,0,1-3.63,6.33,22.1,22.1,0,0,1-5.68,4.75,29,29,0,0,1-7.47,3v.24a17,17,0,0,1,3.55,2.07,19.93,19.93,0,0,1,2.87,2.75,36.84,36.84,0,0,1,2.69,3.61c.89,1.34,1.89,2.91,3,4.69ZM859,475.25V504.8h13a19.6,19.6,0,0,0,6.62-1.08,15.36,15.36,0,0,0,5.26-3.1,14,14,0,0,0,3.46-4.94,16.61,16.61,0,0,0,1.25-6.56q0-6.53-4.23-10.2c-2.83-2.44-6.9-3.67-12.24-3.67Z"/><path class="cls-3" d="M981.78,475.25H958.26v72.84h-9.55V475.25H925.25v-8.63h56.53Z"/><path class="cls-3" d="M1023.89,548.09h-9.54V466.62h9.54Z"/><path class="cls-3" d="M1106.46,475.25h-31.82v28.19h29.43V512h-29.43v36.07h-9.55V466.62h41.37Z"/><path class="cls-3" d="M1151.24,548.09h-9.55V466.62h9.55Z"/><path class="cls-3" d="M1235.62,548.09h-43.18V466.62h41.37v8.63H1202v27.11h29.43v8.58H1202v28.52h33.63Z"/><path class="cls-3" d="M1271.09,548.09V466.62h22.49q43.08,0,43.07,39.71,0,18.87-12,30.32t-32,11.44Zm9.54-72.84v64.21h12.16q16,0,25-8.58t8.91-24.32q0-31.31-33.29-31.31Z"/><path class="cls-4" d="M622.37,942.88l-21.11,1.18-4.62-80.37c-.36-6.58-.42-14.66-.11-24.24l-.37,0a80.07,80.07,0,0,1-2.86,11.9q-16.71,47.53-32.91,95.16l-14.65.94q-22.2-44.79-44.9-89.45a84.42,84.42,0,0,1-4.33-12.12l-.36,0q1.25,7.4,2.47,24.26l5.73,80.13-19.66,1.44-9.24-124.06q15.24-1.14,30.48-2.2,20.05,40.11,39.7,80.35a118.34,118.34,0,0,1,6,13.87l.44,0q2.7-10,4.47-14.89,14.65-42.25,29.72-84.47,14.7-.86,29.41-1.65Z"/><path class="cls-4" d="M727.79,938q-36,1.41-72,3.18Q652.7,879,649.63,816.9q35.19-1.74,70.41-3.12.36,8.76.69,17.51-24.3,1-48.61,2.08.81,17.6,1.63,35.18,22.28-1,44.57-1.92l.69,17.43q-22.23.88-44.46,1.91.86,18.38,1.7,36.75,25.44-1.19,50.87-2.17Q727.45,929.27,727.79,938Z"/><path class="cls-4" d="M746.37,932.33q-.39-10.62-.77-21.24a33.8,33.8,0,0,0,7.21,4.43,55.41,55.41,0,0,0,8.78,3.21,70.94,70.94,0,0,0,9.22,1.91,51.15,51.15,0,0,0,8.46.51q13.47-.42,19.93-4.93a14.15,14.15,0,0,0,6.26-12.76,13.36,13.36,0,0,0-2.42-7.62,22.57,22.57,0,0,0-6.34-5.76,65.13,65.13,0,0,0-9.48-4.89c-3.65-1.54-7.5-3.14-11.66-4.8q-6.69-3.18-12.5-6.45a54.14,54.14,0,0,1-10.16-7.34,32.51,32.51,0,0,1-6.94-9.26A29.88,29.88,0,0,1,743.11,845a27.58,27.58,0,0,1,3.59-15.37,34.07,34.07,0,0,1,10.55-11,50.88,50.88,0,0,1,15.23-6.75,76,76,0,0,1,17.62-2.57q20.5-.6,30,3.61l.51,20.38q-11.26-7.35-28.74-6.86a53.56,53.56,0,0,0-9.57,1.15,29.38,29.38,0,0,0-8.46,3.13,18,18,0,0,0-6,5.31,12,12,0,0,0-2.11,7.62,13.74,13.74,0,0,0,2.05,7.14,19,19,0,0,0,5.48,5.38,55,55,0,0,0,8.66,4.63Q787,863,793.74,865.6q6.9,3.2,13,6.75a59.73,59.73,0,0,1,10.78,8,36.47,36.47,0,0,1,7.47,9.84,28.31,28.31,0,0,1,3,12.47q.23,9.45-3.56,16A31.42,31.42,0,0,1,814,929.52a48.15,48.15,0,0,1-15.19,6.32,90.36,90.36,0,0,1-18.3,2.37q-3.21.1-7.93-.23c-3.15-.22-6.37-.57-9.67-1.07a88.33,88.33,0,0,1-9.38-1.89A29.94,29.94,0,0,1,746.37,932.33Z"/><path class="cls-4" d="M848.07,929.41l-.45-21.25a34.19,34.19,0,0,0,7.15,4.53,54.45,54.45,0,0,0,8.72,3.34,70.63,70.63,0,0,0,9.2,2.05,51.76,51.76,0,0,0,8.45.64q13.46-.22,20-4.64t6.45-12.67a13.31,13.31,0,0,0-2.31-7.65,22.39,22.39,0,0,0-6.25-5.85,64.44,64.44,0,0,0-9.41-5c-3.58-1.6-7.48-3.26-11.58-5-4.41-2.18-8.56-4.39-12.4-6.63a53.44,53.44,0,0,1-10-7.49,31.87,31.87,0,0,1-6.8-9.36,30,30,0,0,1-2.67-12.35,27.62,27.62,0,0,1,3.82-15.31,34.14,34.14,0,0,1,10.71-10.89A51,51,0,0,1,876,809.35,75.66,75.66,0,0,1,893.62,807c13.68-.2,23.65,1.17,30,4.05l.21,20.39q-11.14-7.53-28.64-7.29a54.17,54.17,0,0,0-9.58,1,29.34,29.34,0,0,0-8.5,3,18.48,18.48,0,0,0-6,5.23,12.09,12.09,0,0,0-2.23,7.59,13.92,13.92,0,0,0,2,7.16,18.88,18.88,0,0,0,5.4,5.46,54.67,54.67,0,0,0,8.59,4.76c3.37,1.54,7.28,3.2,11.7,5,4.53,2.19,8.85,4.51,12.89,6.94A59.7,59.7,0,0,1,920,878.45a36.24,36.24,0,0,1,7.32,9.94,28.71,28.71,0,0,1,2.77,12.52c.07,6.3-1.21,11.63-3.8,16a31.5,31.5,0,0,1-10.51,10.69,48.48,48.48,0,0,1-15.29,6.1,90.28,90.28,0,0,1-18.33,2.09c-2.14,0-4.77-.08-7.92-.34s-6.36-.67-9.65-1.22a92,92,0,0,1-9.36-2A30,30,0,0,1,848.07,929.41Z"/><path class="cls-4" d="M1061.22,933.12q-11.68-.12-23.37-.19-5.67-15.87-11.41-31.73-25.37-.12-50.73-.05-5.52,15.86-11,31.71-11.64,0-23.28.14,23.55-62.38,48-124.61,12.21,0,24.43,0Q1037.95,870.69,1061.22,933.12Zm-40.38-48.77Q1012,859.49,1003,834.68a55.07,55.07,0,0,1-1.72-7.81h-.36a47.69,47.69,0,0,1-1.83,7.81q-9,24.8-17.79,49.63Q1001,884.28,1020.84,884.35Z"/><path class="cls-4" d="M1178.94,926.77c-13.57,6.69-28.51,9.86-44.94,9.52q-28.47-.57-45.85-18c-11.61-11.61-17.39-26.81-17.18-45.67q.32-28.87,20.12-47.16t50.18-17.65q21.78.46,36.49,6.94-.29,10.62-.56,21.24c-9.85-6.62-21.65-10.09-35.49-10.38s-25.34,3.87-34.36,12.46-13.58,19.83-13.78,33.71c-.22,14.28,3.44,25.57,10.84,33.87s17.57,12.57,30.49,12.83q13.26.27,23.09-4.43.35-14.79.7-29.58-13.62-.32-27.23-.59.18-8.67.34-17.35,24.38.48,48.73,1.14Z"/><path class="cls-4" d="M1230,936.83q-11-.37-21.92-.71L1212,811.78q11.16.35,22.32.73Q1232.18,874.67,1230,936.83Z"/><path class="cls-4" d="M1372.25,943.2q-11.62-.65-23.26-1.25-28.27-47.24-57.37-94.24a39.68,39.68,0,0,1-3.59-7.36l-.55,0q.57,4,0,17.11-1.71,40.74-3.44,81.47-10.29-.43-20.57-.84,2.43-62.14,4.87-124.3,12.62.5,25.23,1,28.25,45.88,55.71,92,3.48,5.73,4.46,7.87l.36,0q-.64-5,0-16.77l4.17-80,20.85,1.12Z"/><path class="cls-4" d="M1506.49,943.39c-13.9,6-29,8.49-45.37,7.37q-28.39-1.93-45-20.13t-15-46.44c1.14-19.22,8.54-34.63,22.36-46.15s30.85-16.62,51-15.23c14.49,1,26.57,3.9,36.14,8.67q-.78,10.6-1.57,21.2-14.23-10.63-35-12.07t-34.94,10.8c-9.43,8.15-14.52,19.17-15.38,33q-1.32,21.39,9.22,34.35t29.86,14.27c8.85.61,16.59-.5,23.29-3.33q1-14.75,2.12-29.5-13.61-1-27.2-1.9.59-8.66,1.17-17.31,24.33,1.65,48.65,3.47Q1508.69,913.93,1506.49,943.39Z"/><path class="cls-4" d="M379.18,1162.62q-11.3,1.05-22.6,2.13-7.09-15.21-14.26-30.43-24.54,2.4-49.06,5-3.75,16.31-7.42,32.63-11.25,1.2-22.49,2.44Q279.74,1110,297,1045.67q11.82-1.22,23.64-2.4Q350.35,1102.82,379.18,1162.62Zm-44-44.51q-11.12-23.82-22.36-47.63a54,54,0,0,1-2.46-7.6l-.35,0a48.74,48.74,0,0,1-1,7.95q-6.15,25.56-12.15,51.13Q316,1120,335.19,1118.11Z"/><path class="cls-4" d="M401.57,1160.58q-5.52-61.95-11.06-123.91,18.27-1.64,36.54-3.16c46.76-3.9,71.59,14.67,74.49,55,1.42,19.15-3.88,35-15.74,47.59S457.36,1155.8,436,1157.6Q418.78,1159,401.57,1160.58Zm11.36-108.29q3.85,44.57,7.69,89.11l16.51-1.4c14.55-1.22,25.49-6.09,33-14.69s10.66-20.14,9.55-34.68c-2.2-29-18.63-42.37-49.23-39.82Q421.69,1051.53,412.93,1052.29Z"/><path class="cls-4" d="M667.94,1142.15q-10.25.51-20.49,1l-4.2-80.4q-.51-9.87,0-24.23l-.35,0a86.25,86.25,0,0,1-2.83,11.87q-16.39,47.43-32.28,94.93c-4.75.27-9.49.56-14.23.84q-21.4-44.94-43.3-89.75a85.84,85.84,0,0,1-4.16-12.16l-.36,0c.78,4.93,1.57,13,2.32,24.28q2.65,40.08,5.32,80.16l-19.08,1.29Q530,1088,525.68,1026q14.8-1,29.6-2,19.35,40.26,38.3,80.62a122.78,122.78,0,0,1,5.72,13.91l.44,0c1.78-6.66,3.22-11.61,4.37-14.86q14.37-42.16,29.16-84.26,14.28-.75,28.57-1.46Q664.9,1080,667.94,1142.15Z"/><path class="cls-4" d="M725.12,1139.59q-10.64.44-21.27.9l-5.43-124.28q10.83-.48,21.67-.92Q722.6,1077.45,725.12,1139.59Z"/><path class="cls-4" d="M866.77,1135.37q-11.29.23-22.59.47-30.79-45-62.4-89.78a39.53,39.53,0,0,1-4-7.08l-.54,0c.55,2.65,1,8.33,1.26,17.06l2.61,81.5-20,.67q-2.18-62.16-4.36-124.32,12.25-.43,24.51-.81,30.71,43.68,60.63,87.65a84.81,84.81,0,0,1,4.89,7.53h.35a112.46,112.46,0,0,1-1.25-16.72l-1.77-80.14q10.14-.23,20.27-.42Q865.58,1073.18,866.77,1135.37Z"/><path class="cls-4" d="M924.17,1134.52q-10.65.11-21.3.26l-1.71-124.39,21.69-.27Q923.52,1072.32,924.17,1134.52Z"/><path class="cls-4" d="M954.42,1129.32q-.07-10.62-.13-21.25a33,33,0,0,0,6.87,4.65,54,54,0,0,0,8.43,3.47,69,69,0,0,0,8.89,2.19,47.53,47.53,0,0,0,8.19.76q13.07,0,19.47-4.33t6.45-12.56a14,14,0,0,0-2.12-7.69,22.39,22.39,0,0,0-6-6,62.88,62.88,0,0,0-9.06-5.17q-5.2-2.48-11.17-5.15-6.4-3.37-11.94-6.83a51,51,0,0,1-9.64-7.64,31.85,31.85,0,0,1-6.47-9.46A30.68,30.68,0,0,1,953.8,1042a28.31,28.31,0,0,1,3.93-15.25A33.36,33.36,0,0,1,968.29,1016a48.49,48.49,0,0,1,15-6.29,72,72,0,0,1,17.18-2q19.92,0,29,4.51l-.1,20.38c-7.13-5.12-16.39-7.7-27.7-7.72a50.52,50.52,0,0,0-9.32.87,27.61,27.61,0,0,0-8.29,2.87,17.64,17.64,0,0,0-6,5.13,12.45,12.45,0,0,0-2.27,7.55,14,14,0,0,0,1.78,7.2,18.71,18.71,0,0,0,5.16,5.54,54.1,54.1,0,0,0,8.27,4.89c3.25,1.59,7,3.31,11.29,5.17,4.39,2.26,8.51,4.64,12.41,7.14a58,58,0,0,1,10.22,8.28,35.58,35.58,0,0,1,7,10,29,29,0,0,1,2.51,12.55q0,9.47-3.93,15.94a31,31,0,0,1-10.36,10.54,46.45,46.45,0,0,1-14.93,5.86,85.68,85.68,0,0,1-17.81,1.81,74.38,74.38,0,0,1-7.69-.46c-3-.32-6.15-.77-9.35-1.37a84.48,84.48,0,0,1-9.05-2.17A28.69,28.69,0,0,1,954.42,1129.32Z"/><path class="cls-4" d="M1144.75,1028.94q-18.2-.4-36.38-.71-.88,53.43-1.8,106.86-10.33-.18-20.68-.32l1.47-106.86q-18.15-.26-36.29-.4l.15-17.53q47,.39,93.92,1.44C1145,1017.26,1144.89,1023.1,1144.75,1028.94Z"/><path class="cls-4" d="M1262.21,1139.53q-12.06-.49-24.14-.93-9.35-17-18.78-34a69.4,69.4,0,0,0-5-8,30.92,30.92,0,0,0-5.07-5.49,17.46,17.46,0,0,0-5.72-3.22,24,24,0,0,0-7.06-1.17l-8.4-.25q-.73,25.23-1.46,50.47-10.29-.3-20.59-.57,1.61-62.17,3.2-124.36,20.89.54,41.77,1.21a61.07,61.07,0,0,1,16.4,2.62,38.24,38.24,0,0,1,12.86,6.75,29.22,29.22,0,0,1,8.31,10.81,32.36,32.36,0,0,1,2.57,14.82,35.07,35.07,0,0,1-2.43,12,32,32,0,0,1-6,9.59,34.75,34.75,0,0,1-9,7,44.81,44.81,0,0,1-11.69,4.28c0,.11,0,.23,0,.35a31.79,31.79,0,0,1,5.82,4.4c1.63,1.59,3.18,3.23,4.64,4.9a53.33,53.33,0,0,1,4.3,5.66c1.43,2.11,3,4.56,4.68,7.34Q1251.85,1121.62,1262.21,1139.53Zm-72.55-110.23-1.17,40.41q8.68.26,17.38.53a26.47,26.47,0,0,0,9-1.19,20.52,20.52,0,0,0,7.21-4,19.23,19.23,0,0,0,4.89-6.6,23.14,23.14,0,0,0,2-8.87q.33-8.94-5.25-14.16t-16.34-5.56Z"/><path class="cls-4" d="M1384.34,1145.56l-22.66-1.29q-4.73-16.11-9.5-32.22-24.6-1.32-49.21-2.45-6.13,15.56-12.23,31.14-11.28-.51-22.58-1,25.88-61.18,52.62-122.18,11.85.58,23.7,1.19Q1364.85,1082.11,1384.34,1145.56ZM1347.57,1095q-7.39-25.25-14.93-50.46a56.05,56.05,0,0,1-1.28-7.88H1331a50.14,50.14,0,0,1-2.16,7.71q-9.9,24.35-19.68,48.73Q1328.37,1093.94,1347.57,1095Z"/><path class="cls-4" d="M1481.7,1044.83q-18.15-1.32-36.31-2.53-3.57,53.33-7.12,106.64-10.32-.69-20.65-1.34l6.78-106.66q-18.11-1.15-36.24-2.21l1-17.5q46.9,2.73,93.78,6.12Z"/><path class="cls-4" d="M1541.25,1158.71q-26.84-2.2-41.72-20.79t-12.88-46.46q2.2-29.93,20.25-46.51c12-11,27.74-15.79,46.94-14.2q26.7,2.2,41.42,21c9.84,12.49,13.81,28,12.12,46.65q-2.76,30.32-20.8,46.46T1541.25,1158.71Zm10-110c-11.59-1-21.31,2.53-29.24,10.44s-12.36,18.8-13.43,32.63,1.58,25.15,7.9,34.12,15,13.89,26.3,14.81q17.88,1.49,29.28-9.62t13.32-32.71q2-22.22-7.13-35.2T1551.29,1048.73Z"/><path class="cls-4" d="M1725.59,1174.38l-24.06-2.61q-8.13-17.61-16.38-35.22a69.78,69.78,0,0,0-4.46-8.36,32.4,32.4,0,0,0-4.68-5.84,17.85,17.85,0,0,0-5.49-3.61,24.48,24.48,0,0,0-7-1.66l-8.37-.83q-2.49,25.13-5,50.24-10.26-1-20.52-2,5.92-61.92,11.86-123.84,20.82,2,41.63,4.12a61.38,61.38,0,0,1,16.19,3.76,38.58,38.58,0,0,1,12.38,7.63,29.2,29.2,0,0,1,7.54,11.36,32.87,32.87,0,0,1,1.55,15,35.67,35.67,0,0,1-3.27,11.82,32,32,0,0,1-6.65,9.14,34.36,34.36,0,0,1-9.52,6.37,44.56,44.56,0,0,1-12,3.45c0,.12,0,.23,0,.35a31.46,31.46,0,0,1,5.5,4.8c1.53,1.7,2.95,3.44,4.3,5.21a57.34,57.34,0,0,1,3.91,5.95c1.27,2.2,2.65,4.74,4.16,7.64Q1716.48,1155.79,1725.59,1174.38Zm-64.79-115q-2,20.12-4,40.23l17.32,1.73a26.05,26.05,0,0,0,9-.56,20.45,20.45,0,0,0,7.48-3.5A19.43,19.43,0,0,0,1696,1091a22.59,22.59,0,0,0,2.6-8.72q.95-8.88-4.26-14.48c-3.46-3.74-8.78-6-15.92-6.7Z"/></svg>