<svg id="Layer_1" data-name="Layer 1" xmlns="http://www.w3.org/2000/svg" viewBox="0 0 2000 2000"><defs><style>.cls-1{fill:#002050;}.cls-2{fill:#505050;}.cls-3{fill:#0064b5;}.cls-4{fill:#fff;}.cls-5{fill:#282828;}</style></defs><path class="cls-1" d="M1000,10a149.2,149.2,0,0,0-43.11,6.36L398.14,185A142.38,142.38,0,0,0,296.3,322.13v949.14c0,242.84,82.05,327.38,239.29,467.71,153.69,137.16,428.51,238,440.14,242.2L1000,1990l24.27-8.82c11.63-4.23,286.45-105,440.14-242.2,157.24-140.33,239.29-224.87,239.29-467.71V322.13A142.38,142.38,0,0,0,1601.86,185L1043.11,16.36A149.2,149.2,0,0,0,1000,10Z"/><path class="cls-2" d="M1581.33,253.07,1022.56,84.4a78.54,78.54,0,0,0-45.12,0L418.67,253.07a72.13,72.13,0,0,0-51.28,69.05V999.57H1632.61V322.12A72.13,72.13,0,0,0,1581.33,253.07Z"/><path class="cls-3" d="M367.39,1271.28c0,214,64.55,279.94,215.51,414.67,145.27,129.64,417.1,228.42,417.1,228.42s271.83-98.78,417.1-228.42c151-134.73,215.51-200.7,215.51-414.67V999.57H367.39Z"/><path class="cls-2" d="M1000,656.84c-300.5,0-593.32,25.46-870.34,75.68A102.73,102.73,0,0,0,47.27,854.08c25.46,125.27,54.59,278.35,74.23,390a113.27,113.27,0,0,0,111.74,93.78,114.58,114.58,0,0,0,23.46-2.44C354,1315,621.31,1267.58,1000,1267.58s646,47.43,743.31,67.82a114.42,114.42,0,0,0,23.45,2.44,113.27,113.27,0,0,0,111.74-93.78c19.64-111.64,48.77-264.72,74.23-390a102.73,102.73,0,0,0-82.39-121.56c-277-50.22-569.84-75.68-870.34-75.68Z"/><path class="cls-4" d="M1000,1230.27c315.15,0,582.57,33.34,751,68.61a76.19,76.19,0,0,0,90.8-61.28c20.68-117.62,50.24-272,74.41-390.95a65.42,65.42,0,0,0-52.49-77.42c-166.56-30.2-465-75.08-863.68-75.08h0c-398.71,0-697.12,44.88-863.68,75.08a65.42,65.42,0,0,0-52.49,77.42C108,965.58,137.56,1120,158.24,1237.6a76.19,76.19,0,0,0,90.8,61.28c168.39-35.27,435.81-68.61,751-68.61Z"/><path class="cls-4" d="M791.16,402.33H767.62V339q0-10.26.88-22.66h-.59a111.78,111.78,0,0,1-3.32,14l-24.8,72H720.31l-25.24-71.22q-1-2.88-3.33-14.76h-.66q1,15.66,1,27.46v58.52H670.56V296.5h34.91l21.63,62.73a87.82,87.82,0,0,1,3.76,15.13h.44a152.11,152.11,0,0,1,4.21-15.28l21.63-62.58h34Z"/><path class="cls-4" d="M823.22,314.8a13.58,13.58,0,0,1-9.66-3.5,11.31,11.31,0,0,1-3.77-8.6,10.89,10.89,0,0,1,3.77-8.56,15.79,15.79,0,0,1,19.37,0,10.92,10.92,0,0,1,3.73,8.56,11.24,11.24,0,0,1-3.73,8.71A13.86,13.86,0,0,1,823.22,314.8Zm11.52,87.53H811.41V326.76h23.33Z"/><path class="cls-4" d="M910.13,399.6q-7.9,4.57-22.8,4.57-17.43,0-28.2-10.55t-10.77-27.23q0-19.26,11.55-30.37t30.89-11.11q13.35,0,19.33,3.55v19.78a26.54,26.54,0,0,0-16.31-5.47q-10,0-15.91,5.87t-5.86,16.2q0,10,5.61,15.76t15.42,5.72a30.81,30.81,0,0,0,17-5.46Z"/><path class="cls-4" d="M973.19,347.79a20.25,20.25,0,0,0-9.81-2.29q-7.61,0-11.88,5.58t-4.29,15.16v36.09H923.89V326.76h23.32v14h.3q5.54-15.34,19.93-15.35a14.8,14.8,0,0,1,5.75.89Z"/><path class="cls-4" d="M1018.54,404.17q-18.88,0-29.7-10.58T978,364.84q0-18.75,11.21-29.34t30.34-10.59q18.81,0,29.52,10.59t10.7,28q0,18.83-11,29.75T1018.54,404.17Zm.6-61.4q-8.26,0-12.85,5.69t-4.57,16.09q0,21.76,17.56,21.77,16.76,0,16.76-22.36Q1036,342.77,1019.14,342.77Z"/><path class="cls-4" d="M1068.47,400.34V381.45a49.6,49.6,0,0,0,11.48,5.16,38.06,38.06,0,0,0,10.81,1.7,23.24,23.24,0,0,0,9.78-1.7c2.38-1.13,3.58-2.85,3.58-5.16a4.75,4.75,0,0,0-1.63-3.69,14.94,14.94,0,0,0-4.17-2.59,48.69,48.69,0,0,0-5.57-2c-2-.59-4-1.25-5.83-2a55.72,55.72,0,0,1-7.93-3.65,23.11,23.11,0,0,1-5.76-4.54,17.92,17.92,0,0,1-3.54-6,23.67,23.67,0,0,1-1.22-8,20.75,20.75,0,0,1,2.77-10.92,22.58,22.58,0,0,1,7.38-7.49,33.5,33.5,0,0,1,10.55-4.28,55,55,0,0,1,12.36-1.37,68.14,68.14,0,0,1,10.19.78,74.32,74.32,0,0,1,10.18,2.25v18a36.45,36.45,0,0,0-9.48-3.88,40.06,40.06,0,0,0-9.93-1.29,22.15,22.15,0,0,0-4.32.41,14,14,0,0,0-3.57,1.18,6.48,6.48,0,0,0-2.44,2,4.58,4.58,0,0,0-.89,2.77,5.14,5.14,0,0,0,1.33,3.54,11.54,11.54,0,0,0,3.47,2.55,35.73,35.73,0,0,0,4.76,1.92c1.75.56,3.49,1.14,5.2,1.73a67.31,67.31,0,0,1,8.42,3.54,27.06,27.06,0,0,1,6.46,4.5A17.7,17.7,0,0,1,1125,371a24.18,24.18,0,0,1-1.48,19.74,23.22,23.22,0,0,1-7.75,7.74,34.89,34.89,0,0,1-11.14,4.36,61.8,61.8,0,0,1-13.1,1.36A67.49,67.49,0,0,1,1068.47,400.34Z"/><path class="cls-4" d="M1174.42,404.17q-18.89,0-29.71-10.58t-10.81-28.75q0-18.75,11.22-29.34t30.33-10.59q18.83,0,29.52,10.59t10.71,28q0,18.83-11,29.75T1174.42,404.17Zm.59-61.4q-8.27,0-12.84,5.69t-4.58,16.09q0,21.76,17.57,21.77,16.74,0,16.75-22.36Q1191.91,342.77,1175,342.77Z"/><path class="cls-4" d="M1278.59,308.31a23.57,23.57,0,0,0-8.64-1.77q-11.22,0-11.21,12.17v8.05H1276V344h-17.27v58.38h-23.25V344h-12.7V326.76h12.7v-9.38q0-12.9,8.41-20.81t22.88-7.89a40.37,40.37,0,0,1,11.81,1.47Z"/><path class="cls-4" d="M1331.4,401.44q-5.18,2.74-15.57,2.73-24.66,0-24.66-25.6V344h-12.25V326.76h12.25V310.45l23.25-6.65v23h17V344h-17v30.56q0,11.81,9.38,11.81a15.91,15.91,0,0,0,7.6-2.14Z"/><path class="cls-4" d="M728.5,544.69q-9,4.77-22.49,4.77-17.38,0-27.85-11.19t-10.45-29.38q0-19.54,11.76-31.59t29.83-12.05q11.6,0,19.2,3.36v10.17a38.9,38.9,0,0,0-19.31-4.89q-14,0-22.76,9.38t-8.72,25.05q0,14.9,8.15,23.73t21.39,8.83q12.27,0,21.25-5.46Z"/><path class="cls-4" d="M808.06,548.1H764.88V466.62h41.36v8.63H774.42v27.11h29.43v8.58H774.42v28.52h33.64Z"/><path class="cls-4" d="M901.93,548.1H890.57l-13.64-22.84a49,49,0,0,0-3.63-5.43,21.34,21.34,0,0,0-3.61-3.67,12.84,12.84,0,0,0-4-2.07,16.2,16.2,0,0,0-4.8-.65h-7.84V548.1h-9.55V466.62h24.32A34.73,34.73,0,0,1,877.7,468a21.87,21.87,0,0,1,7.83,4.07,18.75,18.75,0,0,1,5.21,6.79,22.51,22.51,0,0,1,1.87,9.51,22.79,22.79,0,0,1-1.28,7.82,20.18,20.18,0,0,1-3.63,6.33,22.27,22.27,0,0,1-5.68,4.75,28.66,28.66,0,0,1-7.47,3v.24a17,17,0,0,1,3.55,2.07,19.93,19.93,0,0,1,2.87,2.75,38.52,38.52,0,0,1,2.69,3.61c.89,1.35,1.89,2.91,3,4.69Zm-48.86-72.85V504.8H866a19.68,19.68,0,0,0,6.62-1.08,15.22,15.22,0,0,0,5.25-3.1,13.93,13.93,0,0,0,3.47-4.94,16.61,16.61,0,0,0,1.25-6.56q0-6.53-4.24-10.2t-12.23-3.67Z"/><path class="cls-4" d="M975.86,475.25H952.33V548.1h-9.54V475.25H919.33v-8.63h56.53Z"/><path class="cls-4" d="M1018,548.1h-9.54V466.62H1018Z"/><path class="cls-4" d="M1100.53,475.25h-31.82v28.19h29.43V512h-29.43V548.1h-9.54V466.62h41.36Z"/><path class="cls-4" d="M1145.31,548.1h-9.54V466.62h9.54Z"/><path class="cls-4" d="M1229.7,548.1h-43.18V466.62h41.36v8.63h-31.82v27.11h29.44v8.58h-29.44v28.52h33.64Z"/><path class="cls-4" d="M1265.16,548.1V466.62h22.5q43.08,0,43.07,39.71,0,18.87-12,30.32t-32,11.45Zm9.55-72.85v64.21h12.16q16,0,24.94-8.58t8.92-24.32q0-31.31-33.29-31.31Z"/><polygon class="cls-4" points="858.58 1519.13 887.24 1607.31 979.96 1607.31 904.94 1661.81 933.6 1750 858.58 1695.49 783.57 1750 812.22 1661.81 737.21 1607.31 829.93 1607.31 858.58 1519.13"/><polygon class="cls-4" points="1140.51 1519.13 1169.16 1607.31 1261.88 1607.31 1186.87 1661.81 1215.52 1750 1140.51 1695.49 1065.49 1750 1094.14 1661.81 1019.13 1607.31 1111.85 1607.31 1140.51 1519.13"/><path class="cls-4" d="M697.32,1454.91q-11.19.67-22.38,1.4-3.9-9.91-7.83-19.82c-10.84.72-21.71,1.47-32.55,2.26q-2.49,10.35-4.95,20.71-11.11.82-22.24,1.7,13-46.77,26.62-93.49,12.4-.89,24.81-1.72Q678.36,1410.35,697.32,1454.91Zm-36-33.85q-6-15-12-29.92a39.07,39.07,0,0,1-2.12-8.08l-.51,0a34.67,34.67,0,0,1-1.06,8q-4,15.78-7.84,31.56Q649.58,1421.85,661.33,1421.06Z"/><path class="cls-4" d="M716,1450.31q-.57-10.17-1.15-20.33a39.77,39.77,0,0,0,25.73,7.92,29.44,29.44,0,0,0,6.75-1.05,16.3,16.3,0,0,0,4.76-2.17,8.59,8.59,0,0,0,2.77-3.07,7.33,7.33,0,0,0,.78-3.7,7.91,7.91,0,0,0-1.77-4.69,16.09,16.09,0,0,0-4.38-3.67,42.84,42.84,0,0,0-6.49-3.12q-3.74-1.46-8-3c-7.33-2.58-12.92-5.91-16.67-10a23.62,23.62,0,0,1-6.18-15.2,23.42,23.42,0,0,1,9.67-21.25,36.08,36.08,0,0,1,11.37-5.48,60.81,60.81,0,0,1,13.92-2.27,85.06,85.06,0,0,1,12.9.25,51.34,51.34,0,0,1,10.46,2.16q.43,9.49.85,19a31.75,31.75,0,0,0-5.19-2.57,39.76,39.76,0,0,0-5.75-1.73,42.61,42.61,0,0,0-5.84-.91,40.59,40.59,0,0,0-5.47-.11,28.16,28.16,0,0,0-6.43,1,16.79,16.79,0,0,0-4.82,2.12,9.58,9.58,0,0,0-2.95,3,6.83,6.83,0,0,0-.89,3.84,7.14,7.14,0,0,0,1.44,4,13.53,13.53,0,0,0,3.65,3.26,37.57,37.57,0,0,0,5.63,2.89c2.2.93,4.69,1.88,7.43,2.85a79.79,79.79,0,0,1,10.17,4.39,35.26,35.26,0,0,1,7.81,5.47,22.62,22.62,0,0,1,5.14,7.19,26.41,26.41,0,0,1,2.1,9.61A25.89,25.89,0,0,1,775,1438a23.57,23.57,0,0,1-7.5,8.75,34.41,34.41,0,0,1-11.34,5.15,67.6,67.6,0,0,1-13.83,2.09,78.57,78.57,0,0,1-14.34-.52A43.49,43.49,0,0,1,716,1450.31Z"/><path class="cls-4" d="M800.88,1446.24q-.4-10.17-.8-20.34a39.63,39.63,0,0,0,25.58,8.35,29.5,29.5,0,0,0,6.77-.93,16,16,0,0,0,4.8-2.09,8.62,8.62,0,0,0,2.81-3,7.32,7.32,0,0,0,.85-3.69,7.9,7.9,0,0,0-1.69-4.72,16.61,16.61,0,0,0-4.32-3.74,43.53,43.53,0,0,0-6.42-3.23c-2.47-1-5.17-2-8-3.1q-10.94-4.07-16.49-10.28a23.61,23.61,0,0,1-5.92-15.3,23.41,23.41,0,0,1,10-21.08,36.28,36.28,0,0,1,11.46-5.28,60.4,60.4,0,0,1,14-2,85.37,85.37,0,0,1,12.91.47,50.58,50.58,0,0,1,10.41,2.34c.18,6.34.34,12.67.52,19a31.07,31.07,0,0,0-5.14-2.65,38.53,38.53,0,0,0-5.72-1.84,41.46,41.46,0,0,0-5.82-1,39.57,39.57,0,0,0-5.47-.21,28.63,28.63,0,0,0-6.45.88,16.17,16.17,0,0,0-4.85,2,9.75,9.75,0,0,0-3,3,6.78,6.78,0,0,0-1,3.82,7,7,0,0,0,1.36,4.06,14,14,0,0,0,3.6,3.31,35.6,35.6,0,0,0,5.58,3c2.16,1,4.62,2,7.38,3a78.13,78.13,0,0,1,10.08,4.56,35.15,35.15,0,0,1,7.72,5.6,22.81,22.81,0,0,1,5,7.28A29.38,29.38,0,0,1,860,1435a23.37,23.37,0,0,1-7.64,8.61,34.64,34.64,0,0,1-11.42,5,68.68,68.68,0,0,1-13.86,1.85,78.69,78.69,0,0,1-14.33-.76A43.77,43.77,0,0,1,800.88,1446.24Z"/><path class="cls-4" d="M928.65,1448q-19.59.27-32.22-12.21c-8.41-8.33-12.81-19.31-13.12-33q-.49-21.63,12-35.25t33.6-13.92c13.27-.18,24.07,4,32.3,12.46s12.37,19.69,12.41,33.65q.06,21.49-12.39,34.74T928.65,1448Zm-.14-76.66c-7.31.1-13.12,2.9-17.31,8.38s-6.22,12.67-6.07,21.57,2.44,16.14,6.79,21.33a20.59,20.59,0,0,0,16.87,7.63c7.1-.09,12.74-2.71,16.85-7.86s6.15-12.25,6.09-21.34c-.07-9.46-2.2-16.8-6.33-22S935.62,1371.19,928.51,1371.29Z"/><path class="cls-4" d="M1066.19,1443.17c-6.72,3.13-15.43,4.62-26.17,4.53-14-.13-25-4.28-33-12.53s-12-19.2-12.06-32.9q0-21.88,13.75-35.48c9.16-9,21.17-13.54,35.81-13.4,9.08.09,16.75,1.32,22.92,3.65q-.15,9.89-.28,19.78a40.87,40.87,0,0,0-21.13-5.73q-13.08-.12-21.12,7.92t-8.1,21.84c0,8.82,2.44,15.86,7.39,21.13s11.66,7.92,20.09,8a43.57,43.57,0,0,0,22.19-5.59Z"/><path class="cls-4" d="M1114.37,1447.33l-20.57-.45q.92-45.6,1.81-91.21,10.47.21,21,.46Q1115.45,1401.73,1114.37,1447.33Z"/><path class="cls-4" d="M1227.13,1451.33q-11.2-.52-22.41-1-2.81-10.27-5.66-20.55-16.29-.66-32.6-1.23c-2.37,6.69-4.76,13.38-7.12,20.07q-11.14-.37-22.28-.69,17.91-45.12,36.45-90.11,12.4.45,24.83.94Q1213,1405,1227.13,1451.33Zm-32.17-37.5q-4.31-15.52-8.7-31a39.62,39.62,0,0,1-1.24-8.26l-.52,0a35.18,35.18,0,0,1-1.91,7.89q-5.61,15.25-11.16,30.53Q1183.21,1413.36,1195,1413.83Z"/><path class="cls-4" d="M1309.86,1381.25q-13.2-.82-26.41-1.58l-4.26,74.37-20.62-1.14,4-74.39q-13.14-.71-26.28-1.33.4-8.36.8-16.71,36.93,1.77,73.86,4.08Z"/><path class="cls-4" d="M1383.85,1461.16q-27.31-2.15-54.66-4,3.09-45.51,6.15-91,26.79,1.8,53.54,3.9-.66,8.34-1.31,16.68-16.24-1.27-32.51-2.44-.72,10.13-1.45,20.24,15.06,1.1,30.13,2.26l-1.29,16.61q-15-1.15-30-2.24-.73,10.41-1.49,20.81,17.11,1.23,34.24,2.58Q1384.5,1452.86,1383.85,1461.16Z"/><path class="cls-5" d="M206.4,990.46c-4.63.64-9.25,1.3-13.88,1.95l-11.1-78,14.07-2Q201,951.45,206.4,990.46Z"/><path class="cls-5" d="M300,978.16,285.24,980q-23-26.29-46.45-52.39a24.08,24.08,0,0,1-3.06-4.2l-.35.05a72.57,72.57,0,0,1,1.88,10.66q3.42,25.61,6.81,51.2l-13,1.75L220.48,909l15.91-2.14Q259.13,932.38,281.5,958c1.88,2.13,3.11,3.6,3.67,4.41l.23,0A68.5,68.5,0,0,1,283.52,952q-3.16-25.18-6.31-50.38L290.38,900Q295.18,939.06,300,978.16Z"/><path class="cls-5" d="M361.3,902.86q-15.41,1.71-30.8,3.49l2.73,23.52q14.11-1.64,28.26-3.2.6,5.48,1.21,11-14.1,1.56-28.2,3.2,1.89,16.38,3.8,32.75l-13.52,1.58-9.27-78.23q22.28-2.64,44.57-5.11Q360.7,897.35,361.3,902.86Z"/><path class="cls-5" d="M421.58,965.87q-17.61,1.78-29.37-8t-13.7-27.44c-1.35-12.59,1.17-23,7.66-31.32s16-13.06,28.54-14.33c11.63-1.18,21.33,1.57,29.1,8.18s12.22,15.81,13.32,27.6q1.78,19.18-7.92,31.37T421.58,965.87Zm-6.4-69.65q-11.35,1.15-17.6,9.93T392.72,928c.95,8.71,3.94,15.47,9.06,20.32s11.34,6.88,18.71,6.14q11.73-1.18,17.77-9.44T443,923.12c-.91-9.36-3.8-16.39-8.73-21.06S423,895.43,415.18,896.22Z"/><path class="cls-5" d="M543.57,953.54q-7.91.63-15.82,1.28-7.38-10-14.81-19.94a43.25,43.25,0,0,0-3.88-4.66,19.26,19.26,0,0,0-3.72-3.07,11.81,11.81,0,0,0-4-1.59,16.64,16.64,0,0,0-4.69-.2l-5.49.48q1.4,15.93,2.81,31.85l-13.49,1.21q-3.54-39.24-7.11-78.46,13.6-1.23,27.23-2.41a41.83,41.83,0,0,1,10.84.41,25.57,25.57,0,0,1,8.87,3.25,18.79,18.79,0,0,1,6.21,6.17,19.84,19.84,0,0,1,2.8,9.11,22.07,22.07,0,0,1-.67,7.75,19.38,19.38,0,0,1-3.17,6.48,22.68,22.68,0,0,1-5.35,5.11,29.22,29.22,0,0,1-7.28,3.58c0,.07,0,.14,0,.22a20.15,20.15,0,0,1,4.11,2.33q1.77,1.3,3.4,2.72a39.33,39.33,0,0,1,3.23,3.23c1.08,1.22,2.26,2.63,3.6,4.25Q535.44,943.08,543.57,953.54ZM488,889.77l2.25,25.51,11.34-1a17.73,17.73,0,0,0,5.74-1.43,13.75,13.75,0,0,0,4.39-3.07,12,12,0,0,0,2.69-4.53,14.11,14.11,0,0,0,.62-5.73,11,11,0,0,0-4.49-8.5c-2.69-1.9-6.35-2.67-11-2.26Z"/><path class="cls-5" d="M645.45,946.37l-13.45.84-3.24-50.88q-.4-6.26-.17-15.35l-.23,0a48.73,48.73,0,0,1-1.77,7.54Q616.15,918.72,606,948.93l-9.34.65q-14.25-28.3-28.76-56.54a50,50,0,0,1-2.77-7.67l-.23,0q.81,4.68,1.61,15.36,1.89,25.37,3.79,50.73l-12.53.95q-3-39.27-6-78.55,9.66-.74,19.34-1.45,12.81,25.37,25.41,50.78a78.71,78.71,0,0,1,3.83,8.77l.28,0c1.13-4.23,2.05-7.38,2.8-9.45q9.2-26.81,18.61-53.6,9.33-.6,18.65-1.17Z"/><path class="cls-5" d="M737.37,941.48l-14.88.69q-4.15-9.84-8.33-19.67-16.12.79-32.26,1.67-3,10.22-6,20.42l-14.82.84q13-40.21,26.42-80.38l15.49-.8Q720.41,902.82,737.37,941.48ZM710,912q-6.49-15.4-13-30.8a33.14,33.14,0,0,1-1.34-4.89l-.23,0a31,31,0,0,1-.9,5q-4.86,16-9.66,32Q697.46,912.67,710,912Z"/><path class="cls-5" d="M795.14,871.44q-11.88.42-23.77.87Q772.66,906.14,774,940l-13.57.54q-1.39-33.81-2.78-67.63-11.85.48-23.71,1c-.17-3.69-.34-7.39-.5-11.08q30.66-1.38,61.34-2.44C794.89,864.05,795,867.75,795.14,871.44Z"/><path class="cls-5" d="M828,938.12l-14,.43q-1.24-39.37-2.48-78.75l14.17-.43Q826.89,898.75,828,938.12Z"/><path class="cls-5" d="M886.59,938q-17.7.33-28.59-10.44c-7.26-7.18-11.1-16.67-11.39-28.46-.31-12.66,3-22.87,10.19-30.59s17-11.71,29.59-11.94c11.64-.21,21.1,3.31,28.29,10.54s10.85,16.75,11,28.59c.13,12.86-3.31,23.06-10.44,30.62S898.61,937.81,886.59,938Zm-.69-69.94q-11.37.21-18.32,8.45C863,882,860.74,889.18,861,898s2.66,15.75,7.36,21,10.72,7.79,18.12,7.65c7.84-.15,14-2.79,18.45-8s6.65-12.31,6.51-21.47c-.14-9.41-2.44-16.65-7-21.71S893.73,868,885.9,868.1Z"/><path class="cls-5" d="M1015.22,935.76l-14.84,0q-19.51-29-39.41-57.81a23.64,23.64,0,0,1-2.5-4.55h-.36a71.7,71.7,0,0,1,.53,10.82q.17,25.82.31,51.64l-13.11.1-.66-78.78q8-.07,16-.11,19.31,28.15,38.23,56.45c1.59,2.34,2.63,4,3.09,4.83a.88.88,0,0,0,.23,0,68.93,68.93,0,0,1-.56-10.6q0-25.38.08-50.76l13.25,0Z"/><path class="cls-5" d="M1090.94,908q-.24,14.28-.49,28.56-6.75-.12-13.52-.21.58-39.39,1.16-78.78,12.59.2,25.16.43,14.28.27,22,6.78t7.43,18a24.07,24.07,0,0,1-8.6,18.59c-5.53,4.75-12.94,7-22.18,6.84Zm.68-39.44q-.24,14.4-.5,28.78l8.85.16c5.87.12,10.34-1.1,13.47-3.63s4.74-6.17,4.84-10.89c.21-9.27-5.38-14-16.68-14.24Z"/><path class="cls-5" d="M1213.08,940l-15.85-.59q-6.17-10.77-12.35-21.54a46.36,46.36,0,0,0-3.3-5.08,20.73,20.73,0,0,0-3.33-3.49,11.47,11.47,0,0,0-3.76-2,16.31,16.31,0,0,0-4.62-.75l-5.51-.17q-.46,16-.95,32-6.77-.21-13.52-.39,1.08-39.37,2.17-78.75,13.65.38,27.3.82a41,41,0,0,1,10.7,1.67,25.42,25.42,0,0,1,8.42,4.28,19,19,0,0,1,5.45,6.85,20.18,20.18,0,0,1,1.7,9.38,22,22,0,0,1-1.58,7.61,19.38,19.38,0,0,1-3.9,6.07,22.46,22.46,0,0,1-5.91,4.44,29.62,29.62,0,0,1-7.66,2.7,1.7,1.7,0,0,1,0,.22,20.53,20.53,0,0,1,3.81,2.8c1.1,1,2.09,2,3.06,3.1a36.84,36.84,0,0,1,2.83,3.59q1.38,2,3.07,4.65Q1206.24,928.62,1213.08,940Zm-47.63-69.85q-.39,12.79-.77,25.59l11.38.35a17.66,17.66,0,0,0,5.86-.74,13.51,13.51,0,0,0,4.72-2.54,11.83,11.83,0,0,0,3.19-4.18,13.65,13.65,0,0,0,1.29-5.61,10.94,10.94,0,0,0-3.44-9q-3.65-3.32-10.69-3.54C1173.14,870.35,1169.3,870.23,1165.45,870.12Z"/><path class="cls-5" d="M1259.77,943.29c-11.76-.55-21.07-4.63-27.84-12.29s-10-17.35-9.5-29.15c.52-12.65,4.54-22.61,12.18-29.85s17.74-10.56,30.31-10c11.62.55,20.83,4.68,27.55,12.37s9.75,17.44,9.09,29.25c-.68,12.84-4.85,22.79-12.43,29.88S1271.77,943.86,1259.77,943.29Zm3.91-69.83q-11.36-.53-18.84,7.23c-5,5.17-7.64,12.15-8,20.94s1.64,15.88,6,21.43,10.21,8.47,17.59,8.82c7.85.37,14.13-1.87,18.93-6.72s7.45-11.85,7.91-21q.74-14.1-5.54-22.12T1263.68,873.46Z"/><path class="cls-5" d="M1370.9,880.45q-11.88-.8-23.76-1.52-2.07,33.78-4.16,67.56l-13.57-.82q2-33.78,4-67.57-11.85-.71-23.7-1.35c.21-3.69.41-7.39.61-11.08q30.66,1.7,61.3,3.71Q1371.26,874.92,1370.9,880.45Z"/><path class="cls-5" d="M1428.91,952.45q-22.92-1.77-45.83-3.34l5.4-78.6q22.32,1.53,44.63,3.24-.43,5.54-.85,11.06-15.4-1.17-30.83-2.27-.79,11.13-1.58,22.25,14.14,1,28.29,2.09-.42,5.5-.83,11-14.13-1.07-28.25-2.07L1397.41,939q16.18,1.15,32.35,2.4Q1429.33,946.95,1428.91,952.45Z"/><path class="cls-5" d="M1505.29,955.53c-6.43,2.51-14.17,3.36-23.33,2.57q-17.74-1.53-27.57-13.17t-8.47-29.18c1-12.56,5.85-22.39,14.6-29.47s19.37-10.09,31.79-9c8,.69,14.55,2.36,19.61,5l-1.17,12.91a37,37,0,0,0-18-6.34q-13.44-1.17-22.43,6.3t-10.1,21.12q-1.07,13,6,21.3t19.6,9.41c7.72.67,14.53-.48,20.53-3.47Q1505.84,949.51,1505.29,955.53Z"/><path class="cls-5" d="M1584.39,898.5q-11.85-1.23-23.7-2.4-3.35,33.67-6.68,67.36l-13.54-1.33q3.27-33.69,6.52-67.38-11.82-1.14-23.65-2.23.51-5.53,1-11,30.59,2.84,61.16,6C1585.15,891.14,1584.76,894.82,1584.39,898.5Z"/><path class="cls-5" d="M1607.88,969.06l-13.93-1.5q4.17-39.16,8.33-78.34,7.07.75,14.12,1.52Q1612.13,929.89,1607.88,969.06Z"/><path class="cls-5" d="M1666,977q-17.57-2.09-26.93-14.26c-6.22-8.13-8.73-18-7.4-29.76,1.41-12.59,6.15-22.23,14.3-28.9s18.48-9.27,31-7.77q17.38,2.08,26.64,14.32t7,29.83c-1.61,12.76-6.5,22.38-14.56,28.9S1677.93,978.44,1666,977Zm8.91-69.38c-7.54-.89-14,1.06-19.34,5.86s-8.49,11.57-9.51,20.31.47,16,4.41,21.8,9.58,9.19,16.94,10.07c7.82.93,14.27-.85,19.4-5.35s8.27-11.28,9.4-20.38c1.18-9.33-.16-16.83-4-22.46S1682.65,908.57,1674.88,907.63Z"/><path class="cls-5" d="M1794,992.41c-4.91-.69-9.81-1.39-14.72-2.07Q1763.84,959,1748,927.65a24.72,24.72,0,0,1-1.86-4.85l-.35,0a75.35,75.35,0,0,1-1,10.78q-3.37,25.61-6.77,51.2l-13-1.7,10.14-78.13,15.92,2.09q15.3,30.54,30.22,61.17c1.26,2.54,2.07,4.28,2.4,5.21l.23,0a68.23,68.23,0,0,1,.9-10.58q3.53-25.14,7-50.28c4.39.62,8.77,1.23,13.15,1.86Z"/><path class="cls-5" d="M583.57,1146.47l-14.35,1.09q-4.32-9.72-8.67-19.43-15.56,1.21-31.11,2.54-2.58,10.27-5.13,20.56-7.14.6-14.28,1.24,11.28-40.54,23-81l14.94-1.22Q566,1108.28,583.57,1146.47Zm-27.34-28.69q-6.74-15.24-13.55-30.44a36,36,0,0,1-1.46-4.85l-.22,0a31.08,31.08,0,0,1-.71,5q-4.18,16.11-8.32,32.23Q544.1,1118.74,556.23,1117.78Z"/><path class="cls-5" d="M601.15,1145.18q-2.82-39.29-5.63-78.58,11.55-.82,23.1-1.61c29.52-2,45,10,46.53,35.53.72,12.14-2.78,22.13-10.39,30s-18.2,12.23-31.78,13.15Q612.06,1144.4,601.15,1145.18Zm8.36-68.45q1.95,28.26,3.91,56.52l10.47-.72q13.82-.93,21.05-9t6.37-21.87c-1.12-18.38-11.37-27-30.72-25.71Z"/><path class="cls-5" d="M773.49,1135.55l-13,.54q-1.1-25.47-2.17-50.94c-.17-4.18-.16-9.29.13-15.34h-.22a55.24,55.24,0,0,1-1.85,7.5q-10.67,29.92-21,59.9l-9,.43q-13.23-28.62-26.71-57.18a54.41,54.41,0,0,1-2.53-7.73l-.22,0q.67,4.7,1.26,15.39,1.36,25.39,2.72,50.8l-12.11.66q-2.19-39.33-4.37-78.66,9.35-.53,18.7-1,11.88,25.65,23.58,51.35a78.41,78.41,0,0,1,3.53,8.85h.27c1.16-4.21,2.13-7.33,2.88-9.38q9.39-26.6,19-53.16l18-.75Q771.91,1096.2,773.49,1135.55Z"/><path class="cls-5" d="M813.13,1134.11l-13.5.46q-1.38-39.36-2.78-78.73l13.7-.47Z"/><path class="cls-5" d="M906.32,1131.84l-14.32.25q-19.39-28.6-39.2-57.06a25.31,25.31,0,0,1-2.51-4.5H850a80.77,80.77,0,0,1,.73,10.8q.66,25.82,1.33,51.63l-12.67.34q-1.11-39.37-2.21-78.75l15.47-.41q19.21,27.78,38,55.71c1.58,2.31,2.61,3.9,3.07,4.78h.22a70.65,70.65,0,0,1-.74-10.59q-.47-25.38-.92-50.76l12.79-.22Q905.7,1092.46,906.32,1131.84Z"/><path class="cls-5" d="M946.09,1131.36c-4.49,0-9,.08-13.49.13l-.87-78.78,13.68-.13Q945.76,1092,946.09,1131.36Z"/><path class="cls-5" d="M968.65,1128.08l-.06-13.46a21,21,0,0,0,4.36,2.94,34.13,34.13,0,0,0,5.33,2.22,42.81,42.81,0,0,0,5.63,1.39,31.2,31.2,0,0,0,5.19.48q8.28,0,12.34-2.74a9,9,0,0,0,4.08-8,8.85,8.85,0,0,0-1.34-4.86,14.44,14.44,0,0,0-3.79-3.77,40.18,40.18,0,0,0-5.73-3.28c-2.2-1-4.56-2.14-7.08-3.27-2.69-1.42-5.2-2.86-7.55-4.32a32.92,32.92,0,0,1-6.09-4.84,20.43,20.43,0,0,1-4.08-6,19.18,19.18,0,0,1-1.51-7.85,17.94,17.94,0,0,1,2.5-9.64,21.29,21.29,0,0,1,6.67-6.79,31.23,31.23,0,0,1,9.47-4,46.17,46.17,0,0,1,10.83-1.29c8.4,0,14.51,1,18.32,2.85q0,6.45,0,12.91c-4.5-3.24-10.33-4.88-17.49-4.88a31.57,31.57,0,0,0-5.89.55,18,18,0,0,0-5.24,1.81,11.55,11.55,0,0,0-3.76,3.25,7.75,7.75,0,0,0-1.44,4.78,8.91,8.91,0,0,0,1.13,4.56,11.61,11.61,0,0,0,3.25,3.51,33.44,33.44,0,0,0,5.23,3.11c2.06,1,4.44,2.09,7.14,3.26q4.15,2.16,7.85,4.53a36.86,36.86,0,0,1,6.47,5.23,22.38,22.38,0,0,1,4.4,6.37,18.56,18.56,0,0,1,1.61,7.94,19.85,19.85,0,0,1-2.48,10.1,19.59,19.59,0,0,1-6.56,6.68,29.25,29.25,0,0,1-9.47,3.72,54.16,54.16,0,0,1-11.29,1.14,48,48,0,0,1-4.87-.29c-1.93-.2-3.92-.49-5.93-.87a52.85,52.85,0,0,1-5.73-1.38A19,19,0,0,1,968.65,1128.08Z"/><path class="cls-5" d="M1092.4,1064.35q-11.49-.21-23-.36-.45,33.84-.92,67.68l-13.12-.17q.38-33.84.77-67.68-11.48-.13-22.92-.21c0-3.7,0-7.4.07-11.09q29.67.21,59.3.74C1092.53,1057,1092.47,1060.65,1092.4,1064.35Z"/><path class="cls-5" d="M1170.55,1134q-7.65-.26-15.31-.47-6-10.74-12-21.45A43.63,43.63,0,0,0,1140,1107a20.13,20.13,0,0,0-3.23-3.46,11.48,11.48,0,0,0-3.63-2,15.16,15.16,0,0,0-4.47-.72l-5.32-.12-.75,32q-6.52-.17-13-.29.83-39.39,1.66-78.77,13.2.29,26.38.62a38.56,38.56,0,0,1,10.35,1.6,24,24,0,0,1,8.15,4.21,18.85,18.85,0,0,1,5.29,6.82,20.33,20.33,0,0,1,1.7,9.36,22.09,22.09,0,0,1-1.49,7.63,20.08,20.08,0,0,1-3.73,6.09,21.87,21.87,0,0,1-5.69,4.48,27.85,27.85,0,0,1-7.38,2.76,1.62,1.62,0,0,0,0,.22,20.2,20.2,0,0,1,3.7,2.78c1,1,2,2,3,3.07a33.42,33.42,0,0,1,2.75,3.57q1.36,2,3,4.62Q1163.88,1122.73,1170.55,1134Zm-46.36-69.5q-.3,12.8-.61,25.59l11,.27a16.47,16.47,0,0,0,5.66-.79,13,13,0,0,0,4.54-2.56,12.2,12.2,0,0,0,3.06-4.21,14.57,14.57,0,0,0,1.22-5.62,11.26,11.26,0,0,0-3.37-9q-3.53-3.29-10.34-3.46Z"/><path class="cls-5" d="M1251.37,1137.23l-14.37-.66q-3.09-10.17-6.23-20.34-15.58-.68-31.17-1.26-3.8,9.88-7.57,19.79l-14.32-.51q16.11-38.87,32.64-77.64c5,.19,10,.39,15,.6Q1238.56,1097.19,1251.37,1137.23Zm-23.63-31.8q-4.85-15.93-9.75-31.86a37.7,37.7,0,0,1-.85-5h-.23a30.23,30.23,0,0,1-1.31,4.89q-6.12,15.48-12.17,31Q1215.58,1104.92,1227.74,1105.43Z"/><path class="cls-5" d="M1315.57,1072.82q-11.47-.66-23-1.28-1.83,33.8-3.64,67.59l-13.11-.69q1.76-33.81,3.49-67.6-11.44-.6-22.9-1.14c.17-3.69.35-7.38.52-11.08q29.64,1.41,59.24,3.13C1316,1065.44,1315.79,1069.13,1315.57,1072.82Z"/><path class="cls-5" d="M1357.69,1144.59c-11.34-.76-20.24-5-26.63-12.77s-9.26-17.53-8.56-29.31q1.13-19,12.39-29.63t29.49-9.44q16.86,1.11,26.36,12.84t8.17,29.4q-1.41,19.23-12.65,29.65T1357.69,1144.59Zm5.25-69.74a22.26,22.26,0,0,0-18.35,6.9c-4.94,5.07-7.63,12-8.19,20.79s1.23,15.91,5.31,21.53a21.48,21.48,0,0,0,16.8,9.12q11.33.76,18.43-6.39t8.09-20.86q1-14.09-4.88-22.21T1362.94,1074.85Z"/><path class="cls-5" d="M1478.05,1152.61l-15.28-1.33q-5.38-11.05-10.82-22.09A45.29,45.29,0,0,0,1449,1124a20.3,20.3,0,0,0-3-3.64,11.16,11.16,0,0,0-3.53-2.21,15.13,15.13,0,0,0-4.42-1l-5.31-.42q-1.26,15.93-2.54,31.87l-13-1,6.09-78.54q13.17,1,26.32,2.1a38.79,38.79,0,0,1,10.25,2.17,24.47,24.47,0,0,1,7.91,4.67,18.28,18.28,0,0,1,4.9,7.1,20.54,20.54,0,0,1,1.18,9.44,22.9,22.9,0,0,1-1.91,7.54,20.21,20.21,0,0,1-4.09,5.87,21.89,21.89,0,0,1-5.93,4.16,28.33,28.33,0,0,1-7.53,2.33,1.5,1.5,0,0,1,0,.22,20.4,20.4,0,0,1,3.54,3c1,1.06,1.92,2.13,2.79,3.24a36.84,36.84,0,0,1,2.55,3.71c.83,1.38,1.74,3,2.73,4.79Q1472,1141,1478.05,1152.61Zm-42.43-72-2,25.53,11,.88a16.62,16.62,0,0,0,5.69-.47,12.8,12.8,0,0,0,4.69-2.31,12,12,0,0,0,3.29-4,14.51,14.51,0,0,0,1.53-5.55c.32-3.75-.63-6.8-2.86-9.12s-5.63-3.67-10.14-4Z"/></svg>