<svg id="Layer_1" data-name="Layer 1" xmlns="http://www.w3.org/2000/svg" viewBox="0 0 2000 2000"><defs><style>.cls-1{fill:#002050;}.cls-2{fill:#505050;}.cls-3{fill:#0064b5;}.cls-4{fill:#fff;}.cls-5{fill:#282828;}</style></defs><path class="cls-1" d="M1000,10a149.2,149.2,0,0,0-43.11,6.36L398.14,185A142.38,142.38,0,0,0,296.3,322.13v949.14c0,242.84,82.05,327.38,239.29,467.71,153.69,137.16,428.51,238,440.14,242.2L1000,1990l24.27-8.82c11.63-4.23,286.45-105,440.14-242.2,157.24-140.33,239.29-224.87,239.29-467.71V322.13A142.38,142.38,0,0,0,1601.86,185L1043.11,16.36A149.2,149.2,0,0,0,1000,10Z"/><path class="cls-2" d="M1581.33,253.07,1022.56,84.4a78.54,78.54,0,0,0-45.12,0L418.67,253.07a72.13,72.13,0,0,0-51.28,69.05V999.57H1632.61V322.12A72.13,72.13,0,0,0,1581.33,253.07Z"/><path class="cls-3" d="M367.39,1271.28c0,214,64.55,279.94,215.51,414.67,145.27,129.64,417.1,228.42,417.1,228.42s271.83-98.78,417.1-228.42c151-134.73,215.51-200.7,215.51-414.67V999.57H367.39Z"/><path class="cls-2" d="M1000,656.84c-300.5,0-593.32,25.46-870.34,75.68A102.73,102.73,0,0,0,47.27,854.08c25.46,125.27,54.59,278.35,74.23,390a113.27,113.27,0,0,0,111.74,93.78,114.58,114.58,0,0,0,23.46-2.44C354,1315,621.31,1267.58,1000,1267.58s646,47.43,743.31,67.82a114.42,114.42,0,0,0,23.45,2.44,113.27,113.27,0,0,0,111.74-93.78c19.64-111.64,48.77-264.72,74.23-390a102.73,102.73,0,0,0-82.39-121.56c-277-50.22-569.84-75.68-870.34-75.68Z"/><path class="cls-4" d="M1000,1230.27c315.15,0,582.57,33.34,751,68.61a76.19,76.19,0,0,0,90.8-61.28c20.68-117.62,50.24-272,74.41-390.95a65.42,65.42,0,0,0-52.49-77.42c-166.56-30.2-465-75.08-863.68-75.08h0c-398.71,0-697.12,44.88-863.68,75.08a65.42,65.42,0,0,0-52.49,77.42C108,965.58,137.56,1120,158.24,1237.6a76.19,76.19,0,0,0,90.8,61.28c168.39-35.27,435.81-68.61,751-68.61Z"/><path class="cls-4" d="M791.16,402.33H767.62V339q0-10.26.88-22.66h-.59a111.78,111.78,0,0,1-3.32,14l-24.8,72H720.31l-25.24-71.22q-1-2.88-3.33-14.76h-.66q1,15.66,1,27.46v58.52H670.56V296.5h34.91l21.63,62.73a87.82,87.82,0,0,1,3.76,15.13h.44a152.11,152.11,0,0,1,4.21-15.28l21.63-62.58h34Z"/><path class="cls-4" d="M823.22,314.8a13.58,13.58,0,0,1-9.66-3.5,11.31,11.31,0,0,1-3.77-8.6,10.89,10.89,0,0,1,3.77-8.56,15.79,15.79,0,0,1,19.37,0,10.92,10.92,0,0,1,3.73,8.56,11.24,11.24,0,0,1-3.73,8.71A13.86,13.86,0,0,1,823.22,314.8Zm11.52,87.53H811.41V326.76h23.33Z"/><path class="cls-4" d="M910.13,399.6q-7.9,4.57-22.8,4.57-17.43,0-28.2-10.55t-10.77-27.23q0-19.26,11.55-30.37t30.89-11.11q13.35,0,19.33,3.55v19.78a26.54,26.54,0,0,0-16.31-5.47q-10,0-15.91,5.87t-5.86,16.2q0,10,5.61,15.76t15.42,5.72a30.81,30.81,0,0,0,17-5.46Z"/><path class="cls-4" d="M973.19,347.79a20.25,20.25,0,0,0-9.81-2.29q-7.61,0-11.88,5.58t-4.29,15.16v36.09H923.89V326.76h23.32v14h.3q5.54-15.34,19.93-15.35a14.8,14.8,0,0,1,5.75.89Z"/><path class="cls-4" d="M1018.54,404.17q-18.88,0-29.7-10.58T978,364.84q0-18.75,11.21-29.34t30.34-10.59q18.81,0,29.52,10.59t10.7,28q0,18.83-11,29.75T1018.54,404.17Zm.6-61.4q-8.26,0-12.85,5.69t-4.57,16.09q0,21.76,17.56,21.77,16.76,0,16.76-22.36Q1036,342.77,1019.14,342.77Z"/><path class="cls-4" d="M1068.47,400.34V381.45a49.6,49.6,0,0,0,11.48,5.16,38.06,38.06,0,0,0,10.81,1.7,23.24,23.24,0,0,0,9.78-1.7c2.38-1.13,3.58-2.85,3.58-5.16a4.75,4.75,0,0,0-1.63-3.69,14.94,14.94,0,0,0-4.17-2.59,48.69,48.69,0,0,0-5.57-2c-2-.59-4-1.25-5.83-2a55.72,55.72,0,0,1-7.93-3.65,23.11,23.11,0,0,1-5.76-4.54,17.92,17.92,0,0,1-3.54-6,23.67,23.67,0,0,1-1.22-8,20.75,20.75,0,0,1,2.77-10.92,22.58,22.58,0,0,1,7.38-7.49,33.5,33.5,0,0,1,10.55-4.28,55,55,0,0,1,12.36-1.37,68.14,68.14,0,0,1,10.19.78,74.32,74.32,0,0,1,10.18,2.25v18a36.45,36.45,0,0,0-9.48-3.88,40.06,40.06,0,0,0-9.93-1.29,22.15,22.15,0,0,0-4.32.41,14,14,0,0,0-3.57,1.18,6.48,6.48,0,0,0-2.44,2,4.58,4.58,0,0,0-.89,2.77,5.14,5.14,0,0,0,1.33,3.54,11.54,11.54,0,0,0,3.47,2.55,35.73,35.73,0,0,0,4.76,1.92c1.75.56,3.49,1.14,5.2,1.73a67.31,67.31,0,0,1,8.42,3.54,27.06,27.06,0,0,1,6.46,4.5A17.7,17.7,0,0,1,1125,371a24.18,24.18,0,0,1-1.48,19.74,23.22,23.22,0,0,1-7.75,7.74,34.89,34.89,0,0,1-11.14,4.36,61.8,61.8,0,0,1-13.1,1.36A67.49,67.49,0,0,1,1068.47,400.34Z"/><path class="cls-4" d="M1174.42,404.17q-18.89,0-29.71-10.58t-10.81-28.75q0-18.75,11.22-29.34t30.33-10.59q18.83,0,29.52,10.59t10.71,28q0,18.83-11,29.75T1174.42,404.17Zm.59-61.4q-8.27,0-12.84,5.69t-4.58,16.09q0,21.76,17.57,21.77,16.74,0,16.75-22.36Q1191.91,342.77,1175,342.77Z"/><path class="cls-4" d="M1278.59,308.31a23.57,23.57,0,0,0-8.64-1.77q-11.22,0-11.21,12.17v8.05H1276V344h-17.27v58.38h-23.25V344h-12.7V326.76h12.7v-9.38q0-12.9,8.41-20.81t22.88-7.89a40.37,40.37,0,0,1,11.81,1.47Z"/><path class="cls-4" d="M1331.4,401.44q-5.18,2.74-15.57,2.73-24.66,0-24.66-25.6V344h-12.25V326.76h12.25V310.45l23.25-6.65v23h17V344h-17v30.56q0,11.81,9.38,11.81a15.91,15.91,0,0,0,7.6-2.14Z"/><path class="cls-4" d="M728.5,544.69q-9,4.77-22.49,4.77-17.38,0-27.85-11.19t-10.45-29.38q0-19.54,11.76-31.59t29.83-12.05q11.6,0,19.2,3.36v10.17a38.9,38.9,0,0,0-19.31-4.89q-14,0-22.76,9.38t-8.72,25.05q0,14.9,8.15,23.73t21.39,8.83q12.27,0,21.25-5.46Z"/><path class="cls-4" d="M808.06,548.1H764.88V466.62h41.36v8.63H774.42v27.11h29.43v8.58H774.42v28.52h33.64Z"/><path class="cls-4" d="M901.93,548.1H890.57l-13.64-22.84a49,49,0,0,0-3.63-5.43,21.34,21.34,0,0,0-3.61-3.67,12.84,12.84,0,0,0-4-2.07,16.2,16.2,0,0,0-4.8-.65h-7.84V548.1h-9.55V466.62h24.32A34.73,34.73,0,0,1,877.7,468a21.87,21.87,0,0,1,7.83,4.07,18.75,18.75,0,0,1,5.21,6.79,22.51,22.51,0,0,1,1.87,9.51,22.79,22.79,0,0,1-1.28,7.82,20.18,20.18,0,0,1-3.63,6.33,22.27,22.27,0,0,1-5.68,4.75,28.66,28.66,0,0,1-7.47,3v.24a17,17,0,0,1,3.55,2.07,19.93,19.93,0,0,1,2.87,2.75,38.52,38.52,0,0,1,2.69,3.61c.89,1.35,1.89,2.91,3,4.69Zm-48.86-72.85V504.8H866a19.68,19.68,0,0,0,6.62-1.08,15.22,15.22,0,0,0,5.25-3.1,13.93,13.93,0,0,0,3.47-4.94,16.61,16.61,0,0,0,1.25-6.56q0-6.53-4.24-10.2t-12.23-3.67Z"/><path class="cls-4" d="M975.86,475.25H952.33V548.1h-9.54V475.25H919.33v-8.63h56.53Z"/><path class="cls-4" d="M1018,548.1h-9.54V466.62H1018Z"/><path class="cls-4" d="M1100.53,475.25h-31.82v28.19h29.43V512h-29.43V548.1h-9.54V466.62h41.36Z"/><path class="cls-4" d="M1145.31,548.1h-9.54V466.62h9.54Z"/><path class="cls-4" d="M1229.7,548.1h-43.18V466.62h41.36v8.63h-31.82v27.11h29.44v8.58h-29.44v28.52h33.64Z"/><path class="cls-4" d="M1265.16,548.1V466.62h22.5q43.08,0,43.07,39.71,0,18.87-12,30.32t-32,11.45Zm9.55-72.85v64.21h12.16q16,0,24.94-8.58t8.92-24.32q0-31.31-33.29-31.31Z"/><polygon class="cls-4" points="858.58 1519.13 887.24 1607.31 979.96 1607.31 904.94 1661.81 933.6 1750 858.58 1695.49 783.57 1750 812.22 1661.81 737.21 1607.31 829.93 1607.31 858.58 1519.13"/><polygon class="cls-4" points="1140.51 1519.13 1169.16 1607.31 1261.88 1607.31 1186.87 1661.81 1215.52 1750 1140.51 1695.49 1065.49 1750 1094.14 1661.81 1019.13 1607.31 1111.85 1607.31 1140.51 1519.13"/><path class="cls-4" d="M697.32,1454.91q-11.19.67-22.38,1.4-3.91-9.91-7.83-19.82c-10.84.72-21.71,1.47-32.55,2.26q-2.49,10.35-4.95,20.71-11.11.82-22.24,1.7,13-46.77,26.62-93.49,12.4-.89,24.81-1.72Q678.35,1410.35,697.32,1454.91Zm-36-33.85q-6-15-12-29.92a39.71,39.71,0,0,1-2.12-8.08l-.51,0a34.67,34.67,0,0,1-1.06,8q-4,15.78-7.84,31.56Q649.58,1421.85,661.33,1421.06Z"/><path class="cls-4" d="M716,1450.31q-.57-10.17-1.15-20.33a39.77,39.77,0,0,0,25.73,7.92,29.18,29.18,0,0,0,6.75-1.05,16.3,16.3,0,0,0,4.76-2.17,8.5,8.5,0,0,0,2.77-3.07,7.33,7.33,0,0,0,.78-3.7,8,8,0,0,0-1.77-4.69,16.56,16.56,0,0,0-4.38-3.67,44.28,44.28,0,0,0-6.49-3.12c-2.48-1-5.15-2-8-3q-11.06-3.87-16.67-10a23.62,23.62,0,0,1-6.18-15.2,23.42,23.42,0,0,1,9.67-21.25,36.08,36.08,0,0,1,11.37-5.48,60.54,60.54,0,0,1,13.92-2.27,85,85,0,0,1,12.9.25,51.48,51.48,0,0,1,10.46,2.16q.42,9.49.85,19a31,31,0,0,0-5.19-2.57,42.16,42.16,0,0,0-5.75-1.73,43.34,43.34,0,0,0-5.84-.91,40.59,40.59,0,0,0-5.47-.11,27.81,27.81,0,0,0-6.43,1,16.79,16.79,0,0,0-4.82,2.12,9.58,9.58,0,0,0-2.95,3,6.59,6.59,0,0,0-.89,3.84,6.93,6.93,0,0,0,1.44,4,14.17,14.17,0,0,0,3.65,3.26,37.57,37.57,0,0,0,5.63,2.89c2.2.93,4.69,1.88,7.43,2.85a80.41,80.41,0,0,1,10.17,4.39,34.35,34.35,0,0,1,7.81,5.47,23.09,23.09,0,0,1,5.14,7.19,26.41,26.41,0,0,1,2.1,9.61A25.89,25.89,0,0,1,775,1438a23.67,23.67,0,0,1-7.5,8.75,34.31,34.31,0,0,1-11.34,5.15,67.6,67.6,0,0,1-13.83,2.09,78.5,78.5,0,0,1-14.34-.52A43.3,43.3,0,0,1,716,1450.31Z"/><path class="cls-4" d="M800.88,1446.24q-.4-10.17-.8-20.34a39.63,39.63,0,0,0,25.58,8.35,29.5,29.5,0,0,0,6.77-.93,15.89,15.89,0,0,0,4.8-2.09,8.44,8.44,0,0,0,2.81-3,7.32,7.32,0,0,0,.85-3.69,7.77,7.77,0,0,0-1.69-4.72,17,17,0,0,0-4.32-3.74,44,44,0,0,0-6.42-3.23c-2.46-1-5.17-2-8-3.1q-11-4.07-16.49-10.28a23.5,23.5,0,0,1-5.92-15.3,23.41,23.41,0,0,1,10-21.08,36.17,36.17,0,0,1,11.46-5.28,60.56,60.56,0,0,1,14-2,85.42,85.42,0,0,1,12.91.47,50.44,50.44,0,0,1,10.41,2.34q.26,9.51.52,19a31.89,31.89,0,0,0-5.14-2.65,39.69,39.69,0,0,0-5.72-1.84,41.21,41.21,0,0,0-5.82-1,39.57,39.57,0,0,0-5.47-.21,28.39,28.39,0,0,0-6.45.88,16.63,16.63,0,0,0-4.85,2,9.53,9.53,0,0,0-3,3,6.78,6.78,0,0,0-1,3.82,7.19,7.19,0,0,0,1.36,4.06,14.19,14.19,0,0,0,3.6,3.31,36.53,36.53,0,0,0,5.58,3c2.16,1,4.62,2,7.38,3a80.69,80.69,0,0,1,10.08,4.56,35.39,35.39,0,0,1,7.72,5.6,22.81,22.81,0,0,1,5,7.28,25.68,25.68,0,0,1,1.93,9.65A26,26,0,0,1,860,1435a23.82,23.82,0,0,1-7.64,8.61,34.46,34.46,0,0,1-11.42,5,68.68,68.68,0,0,1-13.86,1.85,78.79,78.79,0,0,1-14.33-.76A43.77,43.77,0,0,1,800.88,1446.24Z"/><path class="cls-4" d="M928.65,1448q-19.56.27-32.22-12.21c-8.42-8.33-12.82-19.31-13.12-33-.31-14.42,3.61-26.18,12-35.25s19.53-13.74,33.6-13.92c13.26-.18,24.07,4,32.3,12.46s12.35,19.69,12.41,33.65c.07,14.33-4.1,25.91-12.39,34.74S942.07,1447.77,928.65,1448Zm-.14-76.66c-7.31.1-13.12,2.9-17.31,8.38s-6.22,12.67-6.07,21.57,2.46,16.14,6.79,21.33a20.61,20.61,0,0,0,16.87,7.63c7.12-.09,12.72-2.71,16.85-7.86s6.17-12.25,6.09-21.34c-.07-9.46-2.2-16.8-6.33-22S935.64,1371.19,928.51,1371.29Z"/><path class="cls-4" d="M1066.19,1443.17c-6.71,3.13-15.41,4.62-26.17,4.53-14-.13-25-4.28-33-12.53s-12.06-19.2-12.06-32.9q0-21.88,13.75-35.48c9.18-9,21.15-13.54,35.81-13.4q13.62.13,22.92,3.65-.15,9.89-.28,19.78a41,41,0,0,0-21.13-5.73c-8.73-.08-15.74,2.56-21.12,7.92s-8.07,12.64-8.1,21.84q0,13.23,7.39,21.13c5,5.27,11.65,7.92,20.09,8a43.62,43.62,0,0,0,22.19-5.59Q1066.31,1433.79,1066.19,1443.17Z"/><path class="cls-4" d="M1114.37,1447.33l-20.57-.45q.92-45.6,1.81-91.21,10.47.21,21,.46Q1115.45,1401.73,1114.37,1447.33Z"/><path class="cls-4" d="M1227.13,1451.33q-11.2-.52-22.41-1-2.81-10.27-5.66-20.55-16.29-.66-32.6-1.23-3.57,10-7.12,20.07-11.14-.37-22.28-.69,17.91-45.12,36.45-90.11,12.4.45,24.83.94Q1213,1405,1227.13,1451.33Zm-32.17-37.5q-4.31-15.52-8.7-31a37.72,37.72,0,0,1-1.24-8.26l-.52,0a34.13,34.13,0,0,1-1.91,7.89q-5.61,15.25-11.16,30.53Q1183.21,1413.36,1195,1413.83Z"/><path class="cls-4" d="M1309.86,1381.25q-13.2-.82-26.41-1.58l-4.26,74.37-20.62-1.14q2-37.2,4-74.39-13.14-.71-26.28-1.33.4-8.36.8-16.71,36.95,1.77,73.86,4.08Z"/><path class="cls-4" d="M1383.85,1461.16q-27.31-2.15-54.66-4,3.09-45.51,6.15-91,26.79,1.8,53.54,3.9-.64,8.34-1.31,16.68-16.24-1.27-32.51-2.44-.72,10.13-1.45,20.24,15.06,1.1,30.13,2.26l-1.29,16.61q-15-1.15-30-2.24-.75,10.41-1.49,20.81,17.11,1.23,34.24,2.58Q1384.5,1452.86,1383.85,1461.16Z"/><path class="cls-5" d="M225.67,977.1q-1.09-7.73-2.2-15.44a26.56,26.56,0,0,0,5.67,2.67,41.89,41.89,0,0,0,6.73,1.65,53.89,53.89,0,0,0,6.95.67,37.89,37.89,0,0,0,6.28-.28c6.6-.91,11.39-2.64,14.33-5.17a10.31,10.31,0,0,0,3.63-9.8,9.6,9.6,0,0,0-2.37-5.36,16.4,16.4,0,0,0-5.12-3.7,47.58,47.58,0,0,0-7.37-2.83c-2.77-.84-5.79-1.7-9-2.59-3.47-1.19-6.68-2.43-9.72-3.72a38.2,38.2,0,0,1-8.06-4.55,23.5,23.5,0,0,1-5.82-6.21,21.71,21.71,0,0,1-3.06-8.76A19.92,19.92,0,0,1,218,902.2a25.18,25.18,0,0,1,6.93-8.88,37.52,37.52,0,0,1,10.72-6.12,57.23,57.23,0,0,1,12.78-3.26c10.07-1.37,17.52-1.26,22.41.28q1,7.41,1.94,14.82-8.88-4.49-21.72-2.75a41.74,41.74,0,0,0-7,1.59,22.09,22.09,0,0,0-6,3,13.57,13.57,0,0,0-4,4.34,8.52,8.52,0,0,0-1,5.73,10.06,10.06,0,0,0,2.06,5,13.69,13.69,0,0,0,4.45,3.49,40.63,40.63,0,0,0,6.75,2.7q3.9,1.23,9.06,2.58,5.31,1.8,10.1,3.91a42.69,42.69,0,0,1,8.56,5,26.77,26.77,0,0,1,6.27,6.58,20.82,20.82,0,0,1,3.15,8.87,21.9,21.9,0,0,1-1.39,12,23.26,23.26,0,0,1-6.8,8.73,36.36,36.36,0,0,1-10.73,5.8,67.73,67.73,0,0,1-13.32,3.16,58.08,58.08,0,0,1-5.87.46c-2.34.09-4.74.08-7.22,0a67.26,67.26,0,0,1-7.07-.64A22.77,22.77,0,0,1,225.67,977.1Z"/><path class="cls-5" d="M362.46,963q-26.56,3.09-53.08,6.45L297.92,879q25.9-3.29,51.82-6.31l1.5,12.76q-17.91,2.1-35.79,4.31,1.57,12.81,3.17,25.63,16.41-2,32.82-4l1.5,12.71q-16.38,1.92-32.75,4,1.65,13.38,3.31,26.77,18.74-2.33,37.48-4.51Q361.73,956.69,362.46,963Z"/><path class="cls-5" d="M450.36,949.67q-10.2,6.39-26.08,8.05c-13.73,1.44-25.16-1.5-34.39-8.88s-14.6-17.79-16.15-31.29c-1.64-14.49,1.72-26.74,10.17-36.73s19.94-15.76,34.41-17.27c9.28-1,17.18-.52,23.55,1.36.5,5,1,10,1.49,14.94a43.06,43.06,0,0,0-22-3.25q-15.6,1.64-24.26,12.11t-6.88,26.23q1.63,15,11.59,22.89t24.45,6.37q13.44-1.4,22.7-8.46Q449.67,942.7,450.36,949.67Z"/><path class="cls-5" d="M544,907.9c2.08,25.55-9.48,39.3-34.67,41.55-24.13,2.16-37.36-8.9-39.75-33.43q-2.66-27.78-5.33-55.55l16-1.51q2.43,26.22,4.88,52.45c1.65,17.83,9.75,26,24.22,24.75q20.91-1.86,18.74-27.62-2.26-26.71-4.55-53.44,8-.69,16-1.34Q541.8,880.83,544,907.9Z"/><path class="cls-5" d="M648.12,937.31q-9.21.59-18.41,1.2-8.4-11.68-16.86-23.33a54.62,54.62,0,0,0-4.43-5.46,23,23,0,0,0-4.27-3.62,13.75,13.75,0,0,0-4.59-1.9,19.17,19.17,0,0,0-5.45-.31l-6.4.47q1.38,18.46,2.75,36.92l-15.69,1.19q-3.51-45.48-7-91,15.87-1.23,31.76-2.36a48.47,48.47,0,0,1,12.62.65,29.81,29.81,0,0,1,10.27,3.92,21.43,21.43,0,0,1,7.12,7.24,23.18,23.18,0,0,1,3.1,10.61,25.38,25.38,0,0,1-.92,8.95A22.91,22.91,0,0,1,627.9,888a25.93,25.93,0,0,1-6.32,5.81,34.61,34.61,0,0,1-8.53,4,2.09,2.09,0,0,0,0,.25,24.52,24.52,0,0,1,4.75,2.77c1.36,1,2.67,2.1,3.9,3.21a42,42,0,0,1,3.7,3.8c1.24,1.41,2.61,3.08,4.12,5Q638.86,925.06,648.12,937.31Zm-63.51-74.76q1.11,14.79,2.2,29.57l13.22-1a20.43,20.43,0,0,0,6.7-1.56,16.13,16.13,0,0,0,5.16-3.48,14.05,14.05,0,0,0,3.21-5.2,16.63,16.63,0,0,0,.82-6.63q-.43-6.53-5.07-9.91c-3.09-2.26-7.34-3.19-12.81-2.8Z"/><path class="cls-5" d="M680.76,935.33l-16.23,1q-2.74-45.54-5.51-91.06,8.25-.51,16.5-1Q678.13,889.79,680.76,935.33Z"/><path class="cls-5" d="M767.32,852.59q-13.85.57-27.7,1.21,1.8,39.15,3.61,78.29c-5.26.24-10.51.5-15.77.75q-1.92-39.14-3.84-78.28-13.82.68-27.62,1.42l-.69-12.83q35.73-1.93,71.48-3.4Q767.06,846.17,767.32,852.59Z"/><path class="cls-5" d="M856.1,836.81Q841,866.24,826.19,895.75l1,33.12-15.78.51q-.55-16.41-1.1-32.81-16.26-28.67-32.82-57.25,9.12-.36,18.25-.68Q806,857.86,816,877.1c.21.46,1,2.19,2.17,5.21h.21a34.25,34.25,0,0,1,2-5.34q9.27-19.86,18.66-39.7Q847.6,837,856.1,836.81Z"/><path class="cls-5" d="M957.89,928q-20.53.13-33.07-12.46t-12.89-33.1c-.21-14.67,3.83-26.44,12.26-35.29s20-13.34,34.63-13.43c13.56-.09,24.56,4.13,32.82,12.61S1004,865.88,1004,879.57c0,14.89-4.26,26.64-12.62,35.3S971.86,927.87,957.89,928Zm.21-81q-13.29.09-21.47,9.53t-8,24.72q.21,15.19,8.28,24.39c5.38,6.14,12.35,9.17,21,9.11,9.11-.06,16.3-3,21.57-8.94s7.9-14.16,7.89-24.76q0-16.35-7.79-25.24C974.34,849.87,967.21,846.92,958.1,847Z"/><path class="cls-5" d="M1042.8,893.45l-.3,33.08-15.72-.11q.27-45.61.55-91.23,14.67.09,29.33.25c11.11.12,19.68,2.71,25.71,7.68s8.92,11.89,8.79,20.76-3.45,16-9.87,21.59-15,8.23-25.75,8.11Zm.4-45.67q-.15,16.66-.29,33.33l10.29.1c6.82.08,12-1.36,15.65-4.32s5.45-7.17,5.53-12.64c.15-10.73-6.34-16.21-19.54-16.36Z"/><path class="cls-5" d="M1165,929q-26.67-.84-53.37-1.41,1-45.62,2-91.21,26.06.55,52.11,1.37-.2,6.42-.4,12.84-18-.55-36-1l-.63,25.82q16.5.39,33,.9l-.39,12.79q-16.47-.5-32.92-.9-.33,13.47-.67,27,18.85.47,37.69,1.05Q1165.16,922.61,1165,929Z"/><path class="cls-5" d="M1260.73,932.85q-9.21-.47-18.42-.88-7-12.54-14.13-25.07a50.15,50.15,0,0,0-3.79-5.92,23,23,0,0,0-3.84-4.08,13.22,13.22,0,0,0-4.34-2.4,18.94,18.94,0,0,0-5.38-.92l-6.4-.25q-.72,18.49-1.42,37l-15.71-.58q1.6-45.59,3.23-91.17,15.92.57,31.81,1.22a47.89,47.89,0,0,1,12.47,2.06,30.09,30.09,0,0,1,9.76,5,21.91,21.91,0,0,1,6.27,8,23.23,23.23,0,0,1,1.88,10.88,25.19,25.19,0,0,1-1.92,8.79,23.1,23.1,0,0,1-4.61,7,26.73,26.73,0,0,1-6.93,5.06,34.62,34.62,0,0,1-8.94,3c0,.08,0,.17,0,.25a24.85,24.85,0,0,1,4.4,3.29c1.22,1.17,2.43,2.39,3.52,3.62a42.3,42.3,0,0,1,3.25,4.19c1.07,1.56,2.23,3.36,3.53,5.42Q1252.9,919.63,1260.73,932.85ZM1206,851.44q-.55,14.8-1.13,29.62l13.24.53a20.64,20.64,0,0,0,6.83-.81,15.46,15.46,0,0,0,5.52-2.88,14,14,0,0,0,3.76-4.8,16.33,16.33,0,0,0,1.57-6.5c.19-4.35-1.11-7.84-3.93-10.42s-6.91-4-12.41-4.21Z"/><path class="cls-5" d="M1355.24,938.3q-8.64-.57-17.28-1.12-3.54-11.86-7.12-23.71-18.75-1.15-37.51-2.18-4.75,11.37-9.49,22.74-8.6-.46-17.22-.89,20.07-44.67,40.73-89.19,9,.51,18.05,1Q1340.63,891.62,1355.24,938.3Zm-27.84-37.4q-5.52-18.57-11.14-37.12a44.64,44.64,0,0,1-.94-5.79l-.27,0a31.81,31.81,0,0,1-1.68,5.64q-7.65,17.79-15.23,35.59Q1312.77,900,1327.4,900.9Z"/><path class="cls-5" d="M1431.19,865.25q-13.83-1.1-27.65-2.12-2.91,39.07-5.81,78.16-7.87-.59-15.75-1.15l5.58-78.18q-13.8-1-27.6-1.9.42-6.4.85-12.82,35.7,2.37,71.39,5.2C1431.87,856.71,1431.52,861,1431.19,865.25Z"/><path class="cls-5" d="M1460.44,946.31q-8.1-.7-16.2-1.37l7.53-90.91q8.25.68,16.48,1.39Q1464.35,900.86,1460.44,946.31Z"/><path class="cls-5" d="M1528.11,954.08c-13.64-1.35-24.17-6.61-31.63-15.86s-10.59-20.66-9.37-34.27q2-21.91,15.9-33.81t35.89-9.74c13.5,1.35,24,6.69,31.36,16s10.27,20.76,8.82,34.39q-2.38,22.2-16.26,33.78C1553.58,952.3,1542,955.45,1528.11,954.08Zm8.68-80.52q-13.18-1.3-22.37,7.23c-6.12,5.69-9.6,13.61-10.56,23.74s1,18.47,5.7,25.13,11.36,10.42,19.92,11.26c9.11.9,16.56-1.3,22.41-6.63s9.36-13.26,10.46-23.81c1.1-10.84-.57-19.48-5.12-25.91S1545.88,874.46,1536.79,873.56Z"/><path class="cls-5" d="M1677.1,969.29q-8.56-1.08-17.14-2.14-18.49-36.06-37.55-72a26.34,26.34,0,0,1-2.28-5.57l-.4,0c.16,2-.16,6.15-.88,12.5q-3.4,29.72-6.78,59.42-7.59-.87-15.19-1.71,5.05-45.35,10.1-90.67,9.3,1,18.59,2.1Q1644,906.26,1662,941.44c1.51,2.92,2.47,4.93,2.89,6l.26,0a81.88,81.88,0,0,1,.85-12.27l7.2-58.34,15.36,1.92Q1682.81,924,1677.1,969.29Z"/><path class="cls-5" d="M1702,968.84q1-7.73,2-15.46a25.47,25.47,0,0,0,4.74,4.09,42.06,42.06,0,0,0,6,3.4,52.64,52.64,0,0,0,6.52,2.51,39.4,39.4,0,0,0,6.13,1.41q9.87,1.34,15.18-1.13a10.28,10.28,0,0,0,6.13-8.47,9.53,9.53,0,0,0-.85-5.8,17,17,0,0,0-3.94-4.94,47.25,47.25,0,0,0-6.34-4.7q-3.7-2.34-8-4.9c-3-2.08-5.82-4.14-8.36-6.19a38.92,38.92,0,0,1-6.54-6.55,23.65,23.65,0,0,1-4-7.55,22,22,0,0,1-.58-9.25,19.87,19.87,0,0,1,4.49-10.67,24.88,24.88,0,0,1,9-6.7,38.42,38.42,0,0,1,12-3,57.17,57.17,0,0,1,13.19.29c10,1.38,17.24,3.49,21.51,6.28-.69,4.93-1.4,9.87-2.09,14.8-4.89-4.45-11.63-7.3-20.2-8.47a40.45,40.45,0,0,0-7.14-.34,22.48,22.48,0,0,0-6.56,1.23,13.6,13.6,0,0,0-5,3.11,8.89,8.89,0,0,0-2.47,5.26,9.93,9.93,0,0,0,.64,5.41,13.62,13.62,0,0,0,3.35,4.56,40.82,40.82,0,0,0,5.77,4.41c2.29,1.49,5,3.13,8,4.92,3.11,2.09,6,4.26,8.69,6.47a43.88,43.88,0,0,1,6.92,7.08,25.61,25.61,0,0,1,4.27,8,20.92,20.92,0,0,1,.66,9.38,21.74,21.74,0,0,1-4.55,11.18,23.27,23.27,0,0,1-8.89,6.58,36.55,36.55,0,0,1-11.9,2.71,67.68,67.68,0,0,1-13.68-.53c-1.6-.22-3.49-.59-5.78-1.13s-4.59-1.19-7-2a67,67,0,0,1-6.63-2.51A22.32,22.32,0,0,1,1702,968.84Z"/><path class="cls-5" d="M782.3,1137.87l-16.65.7q-4.6-11.41-9.26-22.82-18.06.81-36.11,1.75-3.37,11.8-6.7,23.6-8.28.45-16.57.92,14.52-46.51,29.65-93,8.69-.43,17.38-.84Q763.45,1093,782.3,1137.87Zm-30.52-34.27q-7.23-17.88-14.52-35.74a45.18,45.18,0,0,1-1.52-5.66h-.25a36.14,36.14,0,0,1-1,5.78q-5.46,18.49-10.85,37Q737.71,1104.25,751.78,1103.6Z"/><path class="cls-5" d="M880.24,1134.83q-8.29.18-16.58.39-22.68-33-45.92-65.75a28.75,28.75,0,0,1-3-5.18h-.39a93.42,93.42,0,0,1,.94,12.51l2,59.76-14.66.52-3.33-91.17q9-.33,18-.62,22.56,32,44.59,64.19c1.85,2.67,3.07,4.51,3.6,5.51h.26a80.05,80.05,0,0,1-.94-12.27L863.4,1044l14.86-.35Q879.25,1089.24,880.24,1134.83Z"/><path class="cls-5" d="M985.87,1133.6l-16.65.05q-4.17-11.58-8.37-23.16-18.08.1-36.14.35-3.83,11.65-7.61,23.32-8.29.12-16.58.27,16.31-45.92,33.22-91.72,8.7-.11,17.39-.17Q968.8,1088,985.87,1133.6Zm-29.15-35.43q-6.51-18.15-13.13-36.28a45.21,45.21,0,0,1-1.28-5.71h-.26a34.31,34.31,0,0,1-1.24,5.74q-6.18,18.25-12.28,36.53Q942.62,1098.27,956.72,1098.17Z"/><path class="cls-5" d="M1056.93,1134q-25.31-.3-50.65-.36l.21-91.23,15.45.06q-.2,39.22-.41,78.45,17.78.09,35.56.3Q1057,1127.58,1056.93,1134Z"/><path class="cls-5" d="M1135.44,1044.24q-16,28.63-31.71,57.36l-.69,33.13q-7.59-.17-15.18-.3.29-16.41.59-32.82-14.17-29.46-28.68-58.84l17.59.25q8.85,19.7,17.55,39.44c.22.46.81,2.24,1.83,5.31h.2a32.83,32.83,0,0,1,2.22-5.23q9.9-19.36,19.92-38.71Z"/><path class="cls-5" d="M1146.89,1132.2q.22-7.79.46-15.59a23.4,23.4,0,0,0,4.92,3.59,40.13,40.13,0,0,0,6.09,2.77,50.06,50.06,0,0,0,6.47,1.82,35.85,35.85,0,0,0,6,.78q9.6.32,14.39-2.68a10.4,10.4,0,0,0,5-9.05,10.14,10.14,0,0,0-1.36-5.68,16,16,0,0,0-4.24-4.51,45.69,45.69,0,0,0-6.5-4c-2.49-1.3-5.21-2.65-8.07-4.06-3.07-1.76-5.95-3.53-8.58-5.3a38.67,38.67,0,0,1-6.88-5.85,24.39,24.39,0,0,1-4.49-7.1,22.9,22.9,0,0,1-1.44-9.15,20.53,20.53,0,0,1,3.26-11.07,24.5,24.5,0,0,1,8-7.59,36,36,0,0,1,11.14-4.22,52.78,52.78,0,0,1,12.64-1.07q14.6.52,21.15,4-.3,7.47-.59,14.93c-5.1-3.92-11.81-6.06-20.1-6.36a37.57,37.57,0,0,0-6.86.4,21,21,0,0,0-6.16,1.9,13.06,13.06,0,0,0-4.48,3.6,9.13,9.13,0,0,0-1.86,5.48,10.34,10.34,0,0,0,1.12,5.32,14,14,0,0,0,3.64,4.19,38.25,38.25,0,0,0,5.94,3.8q3.51,1.88,8.14,4.07c3.16,1.78,6.11,3.63,8.92,5.55a42.12,42.12,0,0,1,7.28,6.33,26.18,26.18,0,0,1,4.85,7.54,21.45,21.45,0,0,1,1.53,9.27,21.63,21.63,0,0,1-11.16,19,33.83,33.83,0,0,1-11.09,3.91,63.06,63.06,0,0,1-13.12.88c-1.51-.06-3.42-.23-5.64-.54s-4.5-.72-6.82-1.24a65.44,65.44,0,0,1-6.58-1.82A21.38,21.38,0,0,1,1146.89,1132.2Z"/><path class="cls-5" d="M1293,1063.62q-13.32-.75-26.64-1.43-2,39.13-4,78.27-7.59-.39-15.17-.75l3.78-78.29q-13.29-.64-26.59-1.22.29-6.42.56-12.84,34.41,1.5,68.8,3.43Q1293.33,1057.2,1293,1063.62Z"/></svg>