<svg id="Layer_1" data-name="Layer 1" xmlns="http://www.w3.org/2000/svg" viewBox="0 0 2000 2000"><defs><style>.cls-1{fill:#002050;}.cls-2{fill:#fff;}.cls-3{fill:#0064b5;}.cls-4{fill:#505050;}.cls-5{fill:#282828;}</style></defs><path class="cls-1" d="M1000,10a149.2,149.2,0,0,0-43.11,6.36L398.14,185A142.38,142.38,0,0,0,296.3,322.13v949.14c0,242.84,82.05,327.38,239.29,467.71,153.69,137.16,428.51,238,440.14,242.2L1000,1990l24.27-8.82c11.63-4.23,286.45-105,440.14-242.2,157.24-140.33,239.29-224.87,239.29-467.71V322.13A142.38,142.38,0,0,0,1601.86,185L1043.11,16.36A149.2,149.2,0,0,0,1000,10Z"/><path class="cls-2" d="M1581.33,253.07,1022.56,84.4a78.54,78.54,0,0,0-45.12,0L418.67,253.07a72.13,72.13,0,0,0-51.28,69.05V999.57H1632.61V322.12A72.13,72.13,0,0,0,1581.33,253.07Z"/><path class="cls-3" d="M367.39,1271.28c0,214,64.55,279.94,215.51,414.67,145.27,129.64,417.1,228.42,417.1,228.42s271.83-98.78,417.1-228.42c151-134.73,215.51-200.7,215.51-414.67V999.57H367.39Z"/><path class="cls-4" d="M1000,656.84c-300.5,0-593.32,25.46-870.34,75.68A102.73,102.73,0,0,0,47.27,854.08c25.46,125.27,54.59,278.35,74.23,390a113.27,113.27,0,0,0,111.74,93.78,114.58,114.58,0,0,0,23.46-2.44C354,1315,621.31,1267.58,1000,1267.58s646,47.43,743.31,67.82a114.42,114.42,0,0,0,23.45,2.44,113.27,113.27,0,0,0,111.74-93.78c19.64-111.64,48.77-264.72,74.23-390a102.73,102.73,0,0,0-82.39-121.56c-277-50.22-569.84-75.68-870.34-75.68Z"/><path class="cls-2" d="M1000,1230.27c315.15,0,582.57,33.34,751,68.61a76.19,76.19,0,0,0,90.8-61.28c20.68-117.62,50.24-272,74.41-390.95a65.42,65.42,0,0,0-52.49-77.42c-166.56-30.2-465-75.08-863.68-75.08h0c-398.71,0-697.12,44.88-863.68,75.08a65.42,65.42,0,0,0-52.49,77.42C108,965.58,137.56,1120,158.24,1237.6a76.19,76.19,0,0,0,90.8,61.28c168.39-35.27,435.81-68.61,751-68.61Z"/><polygon class="cls-2" points="1000 1436.83 1031.5 1533.78 1133.44 1533.78 1050.97 1593.7 1082.47 1690.64 1000 1630.73 917.53 1690.64 949.03 1593.7 866.56 1533.78 968.5 1533.78 1000 1436.83"/><path class="cls-5" d="M306.11,884.42,304.64,871a21.78,21.78,0,0,0,4.85,2.45,37.23,37.23,0,0,0,5.8,1.61,48.68,48.68,0,0,0,6,.75,33.61,33.61,0,0,0,5.46-.09q8.66-.93,12.59-4.1a8.93,8.93,0,0,0,3.42-8.36,8.36,8.36,0,0,0-1.92-4.69,14.27,14.27,0,0,0-4.36-3.33,42.92,42.92,0,0,0-6.32-2.62c-2.4-.79-5-1.62-7.72-2.46-3-1.12-5.77-2.27-8.33-3.47a33.85,33.85,0,0,1-6.87-4.14,20.38,20.38,0,0,1-4.89-5.52,18.59,18.59,0,0,1-2.4-7.64,17.36,17.36,0,0,1,1.59-9.87,21.71,21.71,0,0,1,6.24-7.49,32.92,32.92,0,0,1,9.45-5,49.13,49.13,0,0,1,11.17-2.49c8.72-.92,15.22-.65,19.4.8q.65,6.42,1.31,12.85c-5.05-2.73-11.32-3.7-18.76-2.92a35,35,0,0,0-6.08,1.2A19.43,19.43,0,0,0,319,818.9a11.73,11.73,0,0,0-3.58,3.65,7.57,7.57,0,0,0-1,4.91,8.63,8.63,0,0,0,1.64,4.41,11.51,11.51,0,0,0,3.78,3.13,34.56,34.56,0,0,0,5.78,2.51c2.25.78,4.84,1.59,7.78,2.46,3.07,1.11,5.93,2.34,8.67,3.62a39,39,0,0,1,7.31,4.49,23.16,23.16,0,0,1,5.27,5.85,17.93,17.93,0,0,1,2.51,7.72A18.81,18.81,0,0,1,355.69,872a19.88,19.88,0,0,1-6.14,7.37,31.68,31.68,0,0,1-9.48,4.75,60.55,60.55,0,0,1-11.68,2.4c-1.37.14-3.1.22-5.12.24s-4.12-.06-6.27-.2-4.22-.41-6.14-.75A19.61,19.61,0,0,1,306.11,884.42Z"/><path class="cls-5" d="M423.12,875.76q-23.19,2.12-46.36,4.41-3.88-39.2-7.76-78.4,22.53-2.24,45.07-4.3c.34,3.68.67,7.37,1,11q-15.58,1.43-31.15,2.94,1.08,11.1,2.15,22.2,14.3-1.38,28.59-2.7c.34,3.66.67,7.33,1,11q-14.28,1.32-28.54,2.7,1.13,11.6,2.24,23.19,16.35-1.59,32.71-3.08Q422.61,870.26,423.12,875.76Z"/><path class="cls-5" d="M497.52,866.1q-9,5.34-22.86,6.48-18,1.5-29.75-8.32t-13.38-27.33c-1.1-12.54,2.05-23,9.59-31.51s17.61-13.23,30.18-14.26c8.09-.67,14.91-.13,20.4,1.6l1,12.92a37.7,37.7,0,0,0-19-3.2q-13.57,1.13-21.29,10T445.9,835q1.16,13,9.61,20t21.15,6c7.81-.65,14.42-2.94,19.9-6.9Z"/><path class="cls-5" d="M577.31,831.64c1.46,22.08-8.83,33.82-30.78,35.39-21,1.51-32.38-8.27-34-29.5q-1.85-24-3.68-48l13.89-1q1.68,22.69,3.38,45.37,1.73,23.13,20.66,21.74Q565,854.24,563.48,832q-1.59-23.1-3.17-46.2l13.9-.94Q575.77,808.23,577.31,831.64Z"/><path class="cls-5" d="M665.15,858.35l-16,.86q-7.18-10.17-14.42-20.32a42.09,42.09,0,0,0-3.79-4.76,19.41,19.41,0,0,0-3.67-3.17,11.73,11.73,0,0,0-4-1.7,16.68,16.68,0,0,0-4.73-.32l-5.57.33q1,16,1.93,31.92l-13.67.84q-2.46-39.31-4.93-78.63,13.79-.87,27.58-1.67a42,42,0,0,1,10.93.69,25.86,25.86,0,0,1,8.87,3.5,18.56,18.56,0,0,1,6.11,6.32,19.93,19.93,0,0,1,2.58,9.18,21.83,21.83,0,0,1-.9,7.73,19.75,19.75,0,0,1-3.38,6.4,23.08,23.08,0,0,1-5.55,5,29.79,29.79,0,0,1-7.48,3.39c0,.07,0,.15,0,.22a20.39,20.39,0,0,1,4.09,2.44c1.17.9,2.32,1.84,3.36,2.81a32.77,32.77,0,0,1,3.18,3.32q1.59,1.86,3.52,4.34Q657.23,847.68,665.15,858.35Zm-54.38-65.22q.78,12.78,1.55,25.55l11.5-.68a18.34,18.34,0,0,0,5.85-1.27,13.8,13.8,0,0,0,4.52-3,12.52,12.52,0,0,0,2.84-4.46,13.92,13.92,0,0,0,.79-5.71c-.23-3.76-1.63-6.64-4.29-8.62s-6.35-2.83-11.09-2.55Z"/><path class="cls-5" d="M691.24,857q-7.08.33-14.14.7-2-39.35-4-78.69l14.32-.71Q689.33,817.69,691.24,857Z"/><path class="cls-5" d="M764.66,786.19q-12,.43-24,.91,1.35,33.82,2.7,67.64l-13.75.56q-1.42-33.81-2.84-67.63-12,.51-24,1.06c-.18-3.7-.34-7.39-.51-11.09q31-1.42,62-2.54C764.39,778.8,764.52,782.49,764.66,786.19Z"/><path class="cls-5" d="M839.35,772.83q-13.14,25.41-26.06,50.87l.81,28.62q-6.87.18-13.74.4l-.87-28.33q-14.06-24.79-28.34-49.54l15.85-.53q8.79,16.62,17.5,33.26c.21.39.83,1.9,1.88,4.51h.18a31.61,31.61,0,0,1,1.78-4.62q8.08-17.13,16.27-34.25Z"/><path class="cls-5" d="M853.43,838.18q-4.17,13.8-8.32,27.62l-10,.24q2.82-13.78,5.67-27.57Z"/><path class="cls-5" d="M966.24,846.52q-9.35,4.65-23.26,4.76c-12,.09-21.65-3.4-29-10.53s-11.1-16.53-11.29-28.25c-.17-12.6,3.76-22.84,11.91-30.71s18.54-11.87,31.13-12q12.18-.09,20.2,3.12l.06,13a37.28,37.28,0,0,0-18.71-4.62q-13.6.09-22,8.39t-8.16,22c.11,8.67,2.78,15.56,8.07,20.65s12.14,7.59,20.62,7.53c7.81-.06,14.63-1.86,20.34-5.4Z"/><path class="cls-5" d="M1017,851.13c-11.94,0-21.46-3.74-28.69-11.09s-10.82-16.93-10.86-28.72c0-12.67,3.62-22.79,11-30.35s17.46-11.32,30.18-11.26c11.75,0,21.26,3.77,28.37,11.16s10.61,17,10.48,28.84c-.12,12.86-3.91,23-11.24,30.39S1029.13,851.17,1017,851.13Zm.91-70q-11.5,0-18.72,8c-4.81,5.38-7.19,12.46-7.2,21.25s2.3,15.8,6.95,21.16,10.67,8,18.17,8.07q11.91,0,18.85-7.54c4.64-5,7-12.16,7.07-21.32q.11-14.12-6.57-21.86C1032,783.82,1025.79,781.21,1017.88,781.18Z"/><path class="cls-5" d="M1163.59,852.09l-13.63-.36q.63-25.49,1.28-51c.11-4.16.51-9.27,1.19-15.3h-.23a51.37,51.37,0,0,1-2.46,7.36q-13.2,29.13-26.19,58.32l-9.47-.19q-11.82-29.48-23.88-58.89a52,52,0,0,1-2.09-7.89h-.23c.24,3.15.35,8.3.23,15.44q-.39,25.44-.77,50.87l-12.71-.17q.52-39.39,1-78.79l19.6.29q10.59,26.41,21,52.85a74,74,0,0,1,3.06,9.08h.29c1.5-4.11,2.72-7.15,3.67-9.15q11.68-25.89,23.54-51.74l18.9.49Q1164.66,812.72,1163.59,852.09Z"/><path class="cls-5" d="M1201,824.64q-.46,14.28-.94,28.55l-13.69-.44q1.22-39.37,2.44-78.75,12.72.4,25.43.84c9.63.34,17,2.72,22.15,7.14s7.54,10.45,7.24,18.09a24,24,0,0,1-9,18.46c-5.69,4.66-13.19,6.81-22.56,6.48Zm1.31-39.43-1,28.77,9,.31c5.93.2,10.48-.93,13.68-3.42s4.87-6.09,5.06-10.81c.36-9.26-5.22-14.11-16.64-14.51Z"/><path class="cls-5" d="M1303.65,857.49q-22.9-1.14-45.83-2.12,1.67-39.35,3.34-78.71l13.91.6q-1.52,33.84-3,67.68,16.08.72,32.15,1.51C1304,850.13,1303.83,853.81,1303.65,857.49Z"/><path class="cls-5" d="M1332.05,859l-14.14-.75q2-39.35,4.09-78.68l14.32.76Q1334.19,819.64,1332.05,859Z"/><path class="cls-5" d="M1422.73,864.55q-7.51-.52-15-1-3.06-10.26-6.13-20.5-16.32-1.06-32.64-2-4.2,9.79-8.36,19.6l-15-.87q17.71-38.46,35.81-76.81l15.66,1Q1410.07,824.19,1422.73,864.55Zm-24.14-32.4q-4.77-16-9.57-32.1a39.88,39.88,0,0,1-.8-5l-.23,0a32.06,32.06,0,0,1-1.47,4.86q-6.72,15.33-13.39,30.67Q1385.86,831.33,1398.59,832.15Z"/><path class="cls-5" d="M1506.56,870.89l-15-1.22q-17.43-30.43-35.24-60.78a23.93,23.93,0,0,1-2.16-4.74l-.36,0a76.37,76.37,0,0,1-.32,10.83q-1.89,25.75-3.77,51.51l-13.26-1q2.79-39.3,5.59-78.59l16.16,1.17q17.25,29.61,34.15,59.32c1.4,2.47,2.33,4.16,2.74,5.07l.23,0a64.86,64.86,0,0,1,.27-10.62q2-25.29,4.06-50.6l13.37,1.09Q1509.79,831.63,1506.56,870.89Z"/><path class="cls-5" d="M1587.28,874.75c-6.52,2.48-14.4,3.27-23.64,2.43q-18-1.65-27.86-13.36c-6.6-7.81-9.44-17.55-8.43-29.23,1.08-12.56,6-22.35,14.91-29.38s19.63-10,32.19-8.81c8.11.75,14.69,2.47,19.82,5.12l-1.23,12.9a37.58,37.58,0,0,0-18.18-6.45q-13.56-1.26-22.71,6.16c-6.09,5-9.51,12-10.32,21-.73,8.64,1.25,15.76,6,21.35s11.33,8.76,19.8,9.54q11.68,1.08,20.8-3.35Q1587.86,868.74,1587.28,874.75Z"/><path class="cls-5" d="M1651.31,884.51q-23.16-2.44-46.32-4.73,3.84-39.21,7.71-78.41,22.53,2.22,45,4.59l-1.17,11q-15.55-1.65-31.12-3.21-1.12,11.1-2.23,22.2,14.29,1.44,28.58,2.94c-.38,3.66-.78,7.32-1.16,11q-14.27-1.5-28.53-2.94-1.15,11.6-2.33,23.18,16.35,1.65,32.69,3.38Q1651.88,879,1651.31,884.51Z"/><path class="cls-5" d="M1680.76,874.48q-6,13.14-11.9,26.28l-10-1.08q4.62-13.29,9.27-26.58Z"/><path class="cls-5" d="M663.07,1006.73q-7.35.39-14.71.81-4.18-9.81-8.41-19.61-15.94.92-31.88,1.92-2.88,10.23-5.72,20.46l-14.64,1q12.51-40.31,25.4-80.57l15.29-.93Q645.94,968.2,663.07,1006.73ZM635.76,977.5q-6.56-15.36-13.15-30.71a32.91,32.91,0,0,1-1.38-4.87l-.23,0a34.8,34.8,0,0,1-.84,5q-4.65,16-9.25,32.06Q623.33,978.22,635.76,977.5Z"/><path class="cls-5" d="M746.17,1002.8l-14.66.61q-20.53-28.1-41.45-56.06a25.64,25.64,0,0,1-2.67-4.44l-.35,0a77.33,77.33,0,0,1,1,10.79q1.28,25.78,2.56,51.58l-13,.66q-2-39.35-4.06-78.69l15.81-.79q20.28,27.3,40.22,54.74c1.67,2.28,2.75,3.84,3.26,4.7h.22a66.3,66.3,0,0,1-1-10.57l-2.16-50.72,13.07-.54Q744.57,963.44,746.17,1002.8Z"/><path class="cls-5" d="M769.64,1001.9l-2.88-78.74q11.82-.43,23.65-.82c30.21-1,45.62,11.49,46.26,37.08q.45,18.24-11.68,29.63t-33,12.07Q780.84,1001.48,769.64,1001.9Zm11-68.13,2,56.61,10.73-.36q14.16-.45,21.83-8.26c5.14-5.2,7.55-12.41,7.31-21.64-.51-18.4-10.66-27.37-30.47-26.73Z"/><path class="cls-5" d="M904.91,998.45l-13.81.21q-.66-39.37-1.31-78.77l14-.22Q904.35,959.06,904.91,998.45Z"/><path class="cls-5" d="M928.29,998.16l-.83-78.79q11.82-.12,23.66-.2c30.2-.19,45.32,12.67,45.28,38.26,0,12.16-4.18,21.93-12.45,29.32S964.59,997.86,950.68,998Q939.49,998,928.29,998.16Zm12.8-67.82.48,56.65c3.57,0,7.15-.06,10.73-.08q14.19-.1,22.05-7.69t7.85-21.45c0-18.41-9.93-27.64-29.76-27.51Z"/><path class="cls-5" d="M1060,998.19q-22.69-.26-45.4-.33.14-39.4.28-78.79,22.08.07,44.16.31l-.12,11.1q-15.26-.16-30.51-.25-.08,11.14-.13,22.31,14,.08,28,.22,0,5.52-.11,11-14-.13-28-.22-.06,11.64-.13,23.29,16,.09,32,.27Z"/><path class="cls-5" d="M1146.45,999.75l-14.66-.35q-18.66-29.39-37.69-58.66a26.38,26.38,0,0,1-2.37-4.6h-.34a77.64,77.64,0,0,1,.28,10.83q-.42,25.83-.83,51.64l-13-.19q.56-39.39,1.1-78.78,7.9.11,15.82.24,18.45,28.57,36.54,57.26c1.53,2.38,2.5,4,3,4.9h.22a71.35,71.35,0,0,1-.32-10.62l1.17-50.75,13.08.32Q1147.44,960.37,1146.45,999.75Z"/><path class="cls-5" d="M1224.34,934.47q-11.73-.45-23.48-.84l-2.28,67.65-13.43-.44,2.13-67.65q-11.71-.37-23.43-.69.17-5.55.31-11.1,30.31.84,60.6,2Z"/><path class="cls-5" d="M1250.86,1003.27q-6.9-.3-13.81-.57,1.56-39.36,3.15-78.72l14,.57Z"/><path class="cls-5" d="M1329.76,939.32q-11.73-.63-23.47-1.23-1.72,33.79-3.44,67.6l-13.42-.67q1.65-33.79,3.29-67.61-11.7-.57-23.42-1.09c.17-3.7.33-7.39.5-11.09q30.29,1.37,60.56,3Z"/><path class="cls-5" d="M1404.78,932.76q-15.08,24.12-29.93,48.33-.9,14.28-1.78,28.57l-13.41-.82q.84-14.15,1.7-28.3-11.44-25.95-23.11-51.86l15.47.88q7.07,17.34,14,34.69c.15.41.67,2,1.43,4.66h.16a30.79,30.79,0,0,1,2.16-4.44q9.4-16.35,18.9-32.66Q1397.6,932.27,1404.78,932.76Z"/><path class="cls-5" d="M574.07,1092.75q-14.91,1-29.78,2.15.87,11.8,1.76,23.61,13.66-1,27.34-2,.39,5.52.77,11-13.63,1-27.29,2l2.46,32.87c-4.36.33-8.72.65-13.07,1q-3-39.29-6-78.56,21.54-1.65,43.08-3.15Q573.67,1087.21,574.07,1092.75Z"/><path class="cls-5" d="M657.24,1123.41c1.26,22.1-8.64,33.7-29.57,35-20.07,1.24-30.79-8.69-32.22-29.93q-1.61-24-3.2-48.07l13.25-.87q1.46,22.71,2.92,45.4,1.49,23.14,19.54,22,17.38-1.07,16.1-23.37l-2.7-46.24,13.26-.75Q655.93,1100,657.24,1123.41Z"/><path class="cls-5" d="M750.06,1150.82c-4.77.19-9.53.4-14.3.6q-20.09-28.11-40.53-56.09a26,26,0,0,1-2.62-4.44l-.34,0a80.73,80.73,0,0,1,1,10.79q1.28,25.79,2.57,51.58l-12.65.64q-2-39.33-4.09-78.68,7.71-.4,15.43-.78,19.85,27.32,39.34,54.77c1.66,2.27,2.7,3.84,3.19,4.7h.21a69,69,0,0,1-1-10.57q-1.08-25.35-2.17-50.72l12.76-.53Q748.44,1111.46,750.06,1150.82Z"/><path class="cls-5" d="M775.22,1149.85l-2.88-78.74q11.55-.42,23.08-.8c29.5-1,44.56,11.53,45.18,37.11.32,12.15-3.52,22-11.38,29.63s-18.59,11.59-32.16,12Q786.14,1149.45,775.22,1149.85Zm10.71-68.11,2,56.61,10.47-.35q13.83-.46,21.31-8.25t7.1-21.63c-.49-18.41-10.42-27.37-29.76-26.75Z"/><path class="cls-5" d="M924.75,1146.26l-14.37.18-7.4-20q-15.57.24-31.15.55l-6.42,20.2-14.3.32q13.85-39.74,28.07-79.4c5-.1,10-.18,14.94-.27Q909.63,1107,924.75,1146.26Zm-25.42-30.37q-5.75-15.63-11.55-31.24a30.46,30.46,0,0,1-1.15-4.93h-.22a30.71,30.71,0,0,1-1,5q-5.19,15.81-10.33,31.63Q887.19,1116.08,899.33,1115.89Z"/><path class="cls-5" d="M1026,1146l-13,0q.09-25.5.17-51c0-4.18.28-9.28.82-15.33h-.22a51.3,51.3,0,0,1-2.18,7.41q-12,29.41-23.74,58.87l-9,0q-11.88-29.21-24-58.36a54.92,54.92,0,0,1-2.16-7.84h-.23c.3,3.15.52,8.3.55,15.44q.18,25.44.34,50.87l-12.11.1q-.35-39.39-.68-78.79,9.33-.07,18.68-.13,10.65,26.17,21.13,52.39a72.85,72.85,0,0,1,3.11,9h.28q2-6.21,3.31-9.23,10.58-26.14,21.36-52.23,9,0,18,.07Q1026.2,1106.57,1026,1146Z"/><path class="cls-5" d="M1095.35,1146.75q-22.15-.37-44.31-.59.39-39.39.77-78.79,21.56.21,43.11.58c-.06,3.7-.13,7.39-.19,11.09q-14.89-.24-29.78-.43l-.27,22.31q13.68.16,27.34.39l-.18,11q-13.65-.22-27.29-.39-.13,11.64-.28,23.29,15.64.2,31.27.46Q1095.44,1141.23,1095.35,1146.75Z"/><path class="cls-5" d="M1181.92,1148.87l-14.3-.43q-18-29.51-36.36-58.89a23.25,23.25,0,0,1-2.28-4.61h-.35a78.56,78.56,0,0,1,.21,10.84q-.58,25.82-1.17,51.63l-12.65-.28q.81-39.37,1.61-78.77l15.45.34q17.79,28.68,35.25,57.47c1.5,2.4,2.41,4,2.84,4.92h.22a74.32,74.32,0,0,1-.24-10.61q.75-25.38,1.51-50.75l12.76.39Q1183.17,1109.49,1181.92,1148.87Z"/><path class="cls-5" d="M1260.7,1084.14q-11.46-.51-22.92-1-1.37,33.83-2.75,67.64l-13.09-.52q1.29-33.83,2.6-67.64-11.43-.45-22.87-.84l.39-11.09q29.58,1,59.13,2.34C1261,1076.75,1260.86,1080.44,1260.7,1084.14Z"/><path class="cls-5" d="M1331.44,1155.5l-14.34-.8q-3-10.2-6-20.41-15.55-.82-31.11-1.58-3.9,9.86-7.79,19.71l-14.29-.65q16.51-38.7,33.42-77.31l14.93.76Q1319,1115.33,1331.44,1155.5Zm-23.28-32q-4.7-16-9.41-32a39.65,39.65,0,0,1-.8-5h-.22a31.49,31.49,0,0,1-1.36,4.88q-6.27,15.42-12.48,30.85Q1296,1122.81,1308.16,1123.46Z"/><path class="cls-5" d="M1391.53,1159.22q-21.79-1.46-43.63-2.76,2.34-39.33,4.69-78.65,6.63.39,13.25.81-2.08,33.8-4.18,67.61,15.3.94,30.61,2C1392,1151.87,1391.78,1155.55,1391.53,1159.22Z"/><path class="cls-5" d="M1405.12,1157l.93-13.43a20.65,20.65,0,0,0,4.12,3.26,34.11,34.11,0,0,0,5.16,2.6,43.82,43.82,0,0,0,5.52,1.8,30.84,30.84,0,0,0,5.13.86c5.5.4,9.69-.21,12.5-1.83a9,9,0,0,0,4.64-7.64,8.48,8.48,0,0,0-1-5,14.14,14.14,0,0,0-3.49-4,40.39,40.39,0,0,0-5.48-3.68c-2.12-1.2-4.38-2.46-6.81-3.78-2.57-1.62-5-3.23-7.2-4.87a33.41,33.41,0,0,1-5.72-5.27,20.22,20.22,0,0,1-3.62-6.29,19.3,19.3,0,0,1-.92-7.94,17.9,17.9,0,0,1,3.19-9.44,21.3,21.3,0,0,1,7.14-6.28,31,31,0,0,1,9.72-3.27,45.53,45.53,0,0,1,10.89-.49c8.33.62,14.39,2,18,4.17q-.5,6.43-1,12.88c-4.24-3.56-10-5.62-17.06-6.14a31.55,31.55,0,0,0-5.91.11,17.19,17.19,0,0,0-5.35,1.43,11.14,11.14,0,0,0-4,3,7.88,7.88,0,0,0-1.79,4.66,9,9,0,0,0,.79,4.63,11.7,11.7,0,0,0,3,3.75,33.49,33.49,0,0,0,5,3.47q3,1.73,6.87,3.78c2.65,1.63,5.16,3.33,7.49,5.09a35.94,35.94,0,0,1,6.06,5.69,22.33,22.33,0,0,1,3.93,6.67,18.57,18.57,0,0,1,1,8,18.66,18.66,0,0,1-10.24,16.07,29.17,29.17,0,0,1-9.7,3,53.89,53.89,0,0,1-11.35.32c-1.31-.1-2.93-.32-4.83-.65s-3.88-.77-5.85-1.3a55.09,55.09,0,0,1-5.61-1.81A18.5,18.5,0,0,1,1405.12,1157Z"/><path class="cls-1" d="M791.16,402.33H767.62V339q0-10.26.88-22.66h-.59a111.78,111.78,0,0,1-3.32,14l-24.8,72H720.31l-25.24-71.22q-1-2.88-3.33-14.76h-.66q1,15.66,1,27.46v58.52H670.56V296.5h34.91l21.63,62.73a87.82,87.82,0,0,1,3.76,15.13h.44a152.11,152.11,0,0,1,4.21-15.28l21.63-62.58h34Z"/><path class="cls-1" d="M823.22,314.8a13.58,13.58,0,0,1-9.66-3.5,11.31,11.31,0,0,1-3.77-8.6,10.89,10.89,0,0,1,3.77-8.56,15.79,15.79,0,0,1,19.37,0,10.92,10.92,0,0,1,3.73,8.56,11.24,11.24,0,0,1-3.73,8.71A13.86,13.86,0,0,1,823.22,314.8Zm11.52,87.53H811.41V326.76h23.33Z"/><path class="cls-1" d="M910.13,399.6q-7.9,4.57-22.8,4.57-17.43,0-28.2-10.55t-10.77-27.23q0-19.26,11.55-30.37t30.89-11.11q13.35,0,19.33,3.55v19.78a26.54,26.54,0,0,0-16.31-5.47q-10,0-15.91,5.87t-5.86,16.2q0,10,5.61,15.76t15.42,5.72a30.81,30.81,0,0,0,17-5.46Z"/><path class="cls-1" d="M973.19,347.79a20.25,20.25,0,0,0-9.81-2.29q-7.61,0-11.88,5.58t-4.29,15.16v36.09H923.89V326.76h23.32v14h.3q5.54-15.34,19.93-15.35a14.8,14.8,0,0,1,5.75.89Z"/><path class="cls-1" d="M1018.54,404.17q-18.88,0-29.7-10.58T978,364.84q0-18.75,11.21-29.34t30.34-10.59q18.81,0,29.52,10.59t10.7,28q0,18.83-11,29.75T1018.54,404.17Zm.6-61.4q-8.26,0-12.85,5.69t-4.57,16.09q0,21.76,17.56,21.77,16.76,0,16.76-22.36Q1036,342.77,1019.14,342.77Z"/><path class="cls-1" d="M1068.47,400.34V381.45a49.6,49.6,0,0,0,11.48,5.16,38.06,38.06,0,0,0,10.81,1.7,23.24,23.24,0,0,0,9.78-1.7c2.38-1.13,3.58-2.85,3.58-5.16a4.75,4.75,0,0,0-1.63-3.69,14.94,14.94,0,0,0-4.17-2.59,48.69,48.69,0,0,0-5.57-2c-2-.59-4-1.25-5.83-2a55.72,55.72,0,0,1-7.93-3.65,23.11,23.11,0,0,1-5.76-4.54,17.92,17.92,0,0,1-3.54-6,23.67,23.67,0,0,1-1.22-8,20.75,20.75,0,0,1,2.77-10.92,22.58,22.58,0,0,1,7.38-7.49,33.5,33.5,0,0,1,10.55-4.28,55,55,0,0,1,12.36-1.37,68.14,68.14,0,0,1,10.19.78,74.32,74.32,0,0,1,10.18,2.25v18a36.45,36.45,0,0,0-9.48-3.88,40.06,40.06,0,0,0-9.93-1.29,22.15,22.15,0,0,0-4.32.41,14,14,0,0,0-3.57,1.18,6.48,6.48,0,0,0-2.44,2,4.58,4.58,0,0,0-.89,2.77,5.14,5.14,0,0,0,1.33,3.54,11.54,11.54,0,0,0,3.47,2.55,35.73,35.73,0,0,0,4.76,1.92c1.75.56,3.49,1.14,5.2,1.73a67.31,67.31,0,0,1,8.42,3.54,27.06,27.06,0,0,1,6.46,4.5A17.7,17.7,0,0,1,1125,371a24.18,24.18,0,0,1-1.48,19.74,23.22,23.22,0,0,1-7.75,7.74,34.89,34.89,0,0,1-11.14,4.36,61.8,61.8,0,0,1-13.1,1.36A67.49,67.49,0,0,1,1068.47,400.34Z"/><path class="cls-1" d="M1174.42,404.17q-18.89,0-29.71-10.58t-10.81-28.75q0-18.75,11.22-29.34t30.33-10.59q18.83,0,29.52,10.59t10.71,28q0,18.83-11,29.75T1174.42,404.17Zm.59-61.4q-8.27,0-12.84,5.69t-4.58,16.09q0,21.76,17.57,21.77,16.74,0,16.75-22.36Q1191.91,342.77,1175,342.77Z"/><path class="cls-1" d="M1278.59,308.31a23.57,23.57,0,0,0-8.64-1.77q-11.22,0-11.21,12.17v8.05H1276V344h-17.27v58.38h-23.25V344h-12.7V326.76h12.7v-9.38q0-12.9,8.41-20.81t22.88-7.89a40.37,40.37,0,0,1,11.81,1.47Z"/><path class="cls-1" d="M1331.4,401.44q-5.18,2.74-15.57,2.73-24.66,0-24.66-25.6V344h-12.25V326.76h12.25V310.45l23.25-6.65v23h17V344h-17v30.56q0,11.81,9.38,11.81a15.91,15.91,0,0,0,7.6-2.14Z"/><path class="cls-1" d="M728.5,544.69q-9,4.77-22.49,4.77-17.38,0-27.85-11.19t-10.45-29.38q0-19.54,11.76-31.59t29.83-12.05q11.6,0,19.2,3.36v10.17a38.9,38.9,0,0,0-19.31-4.89q-14,0-22.76,9.38t-8.72,25.05q0,14.9,8.15,23.73t21.39,8.83q12.27,0,21.25-5.46Z"/><path class="cls-1" d="M808.06,548.1H764.88V466.62h41.36v8.63H774.42v27.11h29.43v8.58H774.42v28.52h33.64Z"/><path class="cls-1" d="M901.93,548.1H890.57l-13.64-22.84a49,49,0,0,0-3.63-5.43,21.34,21.34,0,0,0-3.61-3.67,12.84,12.84,0,0,0-4-2.07,16.2,16.2,0,0,0-4.8-.65h-7.84V548.1h-9.55V466.62h24.32A34.73,34.73,0,0,1,877.7,468a21.87,21.87,0,0,1,7.83,4.07,18.75,18.75,0,0,1,5.21,6.79,22.51,22.51,0,0,1,1.87,9.51,22.79,22.79,0,0,1-1.28,7.82,20.18,20.18,0,0,1-3.63,6.33,22.27,22.27,0,0,1-5.68,4.75,28.66,28.66,0,0,1-7.47,3v.24a17,17,0,0,1,3.55,2.07,19.93,19.93,0,0,1,2.87,2.75,38.52,38.52,0,0,1,2.69,3.61c.89,1.35,1.89,2.91,3,4.69Zm-48.86-72.85V504.8H866a19.68,19.68,0,0,0,6.62-1.08,15.22,15.22,0,0,0,5.25-3.1,13.93,13.93,0,0,0,3.47-4.94,16.61,16.61,0,0,0,1.25-6.56q0-6.53-4.24-10.2t-12.23-3.67Z"/><path class="cls-1" d="M975.86,475.25H952.33V548.1h-9.54V475.25H919.33v-8.63h56.53Z"/><path class="cls-1" d="M1018,548.1h-9.54V466.62H1018Z"/><path class="cls-1" d="M1100.53,475.25h-31.82v28.19h29.43V512h-29.43V548.1h-9.54V466.62h41.36Z"/><path class="cls-1" d="M1145.31,548.1h-9.54V466.62h9.54Z"/><path class="cls-1" d="M1229.7,548.1h-43.18V466.62h41.36v8.63h-31.82v27.11h29.44v8.58h-29.44v28.52h33.64Z"/><path class="cls-1" d="M1265.16,548.1V466.62h22.5q43.08,0,43.07,39.71,0,18.87-12,30.32t-32,11.45Zm9.55-72.85v64.21h12.16q16,0,24.94-8.58t8.92-24.32q0-31.31-33.29-31.31Z"/></svg>